<svg width="400" height="400" viewBox="0 0 400 400" fill="none" xmlns="http://www.w3.org/2000/svg">
<path d="M199.518 391.235C185.703 391.235 174.619 379.435 174.619 365.108C174.619 350.779 185.864 338.98 199.518 338.98C213.173 338.98 224.418 350.779 224.418 365.108C224.418 379.435 213.173 391.235 199.518 391.235Z" fill="#FF4B11"/>
<path d="M74.5371 398.145V396.122C74.5371 323.809 130.602 264.98 199.518 264.98H201.285V317.235H199.518C158.072 317.235 124.497 352.632 124.497 395.953V397.808H74.5371V398.145Z" fill="#FF4B11"/>
<path d="M330.283 291.446C327.714 291.446 325.143 290.94 322.573 290.097C309.561 285.714 302.332 270.882 306.508 257.059C309.882 246.271 319.36 239.023 330.283 239.023C332.854 239.023 335.424 239.529 337.995 240.372C351.007 244.755 358.236 259.587 354.06 273.409C350.685 284.198 341.208 291.446 330.283 291.446Z" fill="#FF4B11"/>
<path d="M320.003 399.496C288.357 388.708 262.492 365.614 247.393 334.262C232.292 303.078 229.56 267.51 239.842 234.304L240.324 232.449L287.714 248.631L287.231 250.486C274.38 291.784 296.067 336.284 335.425 349.77L337.192 350.275L321.77 400.001L320.003 399.496Z" fill="#FF4B11"/>
<path d="M280.325 129.963C275.024 129.963 270.045 128.277 265.707 124.905C260.245 120.86 256.711 114.791 255.747 107.88C254.783 100.969 256.229 94.0582 260.245 88.327C264.904 81.5845 272.454 77.5391 280.486 77.5391C285.788 77.5391 290.767 79.2246 295.104 82.5959C300.567 86.6414 304.1 92.7097 305.065 99.6208C306.029 106.532 304.583 113.443 300.567 119.174C295.908 125.917 288.357 129.963 280.325 129.963Z" fill="#FF4B11"/>
<path d="M297.67 209.691C271.163 209.691 245.782 201.095 224.416 184.744L222.971 183.563L252.208 141.254L253.654 142.435C266.505 152.211 281.766 157.436 297.67 157.436C301.685 157.436 305.702 157.1 309.558 156.425C329.316 153.054 346.827 141.928 358.553 124.904L359.679 123.387L400 154.065L398.875 155.583C375.422 189.463 337.67 209.691 297.67 209.691Z" fill="#FF4B11"/>
<path d="M118.555 129.963C110.523 129.963 102.973 125.917 98.3143 119.174C94.4588 113.443 92.8523 106.532 93.8162 99.6208C94.7802 92.7097 98.4749 86.6414 103.776 82.5959C108.114 79.3932 113.094 77.5391 118.394 77.5391C126.427 77.5391 133.978 81.5845 138.635 88.327C142.491 94.0582 144.098 100.969 143.134 107.88C142.17 114.791 138.476 120.86 133.174 124.905C128.836 128.277 123.856 129.963 118.555 129.963Z" fill="#FF4B11"/>
<path d="M143.777 143.447L145.223 142.268C161.449 129.962 172.05 111.589 175.264 90.8556C178.477 70.1222 173.657 49.2204 161.93 32.1956L160.807 30.6784L201.128 0L202.252 1.51706C221.851 29.8357 229.722 64.5597 224.581 99.1151C219.441 133.67 201.61 164.012 174.621 184.745L173.176 185.925L143.777 143.447Z" fill="#FF4B11"/>
<path d="M68.595 291.446C57.8319 291.446 48.1933 284.198 44.8198 273.409C40.6431 259.756 47.7114 244.922 60.8841 240.372C63.4544 239.529 66.0248 239.023 68.595 239.023C79.3582 239.023 88.9968 246.271 92.3703 257.059C96.5471 270.713 89.4788 285.547 76.306 290.097C73.7356 290.94 71.1654 291.446 68.595 291.446Z" fill="#FF4B11"/>
<path d="M111.647 250.485C105.382 230.427 92.2096 214.245 74.3782 204.636C63.615 198.905 52.2092 196.04 40.3216 196.04C32.4501 196.04 24.5785 197.388 17.0282 199.916L15.4219 200.59L0 150.696L1.76709 150.19C14.4579 145.807 27.4701 143.785 40.4822 143.785C60.2415 143.785 79.1974 148.673 97.0288 158.112C126.748 173.958 148.756 201.097 159.198 234.472L159.68 236.327L112.29 252.509L111.647 250.485Z" fill="#FF4B11"/>
</svg>
