<svg width="259" height="400" viewBox="0 0 259 400" fill="none" xmlns="http://www.w3.org/2000/svg">
<g clip-path="url(#clip0_306_67)">
<path d="M156.26 138.4C171.495 141.6 185.949 147.6 199.622 156.8L154.697 211.2C129.695 199.6 100.397 206.4 82.8177 227.6C65.2385 248.8 63.6759 280 79.3018 302.8L34.3772 357.6C-9.76605 308.8 -11.7193 234 30.4708 182.8L180.87 0L233.608 45.2L156.26 138.4Z" fill="#13BBB2"/>
<path d="M228.53 352.798C185.949 404.398 113.288 414.798 58.9883 378.798L103.913 324.398C128.914 335.998 158.213 329.198 175.792 307.998C193.371 286.798 194.934 255.598 179.308 232.798L224.233 178.398C268.767 226.798 270.72 301.998 228.53 352.798Z" fill="#192232"/>
</g>
<defs>
<clipPath id="clip0_306_67">
<rect width="259" height="400" fill="white"/>
</clipPath>
</defs>
</svg>
