<svg width="400" height="154" viewBox="0 0 400 154" fill="none" xmlns="http://www.w3.org/2000/svg">
<path fill-rule="evenodd" clip-rule="evenodd" d="M325.34 149.551C320.663 149.551 316.156 149.551 311.564 149.551C311.564 126.257 311.564 104.904 311.564 81.4479C315.816 81.4479 320.068 81.4479 324.575 81.4479C324.575 85.4921 324.575 93.5803 324.575 93.5803C324.66 93.4185 325.255 92.6097 325.68 91.9627C330.952 83.2274 343.877 80.4774 354.081 81.2053C354.081 81.2053 354.081 89.4553 354.081 92.5288C350.255 92.5288 347.534 92.7715 344.047 93.2568C334.609 94.7127 329.081 104.338 326.956 111.455C325.595 115.985 325.51 118.249 325.34 123.021C325.085 131.676 325.255 138.551 325.255 147.124C325.34 147.933 325.34 148.661 325.34 149.551Z" fill="#FD9733"/>
<path d="M288.605 117.036C281.632 117.198 270.068 116.713 262.415 121.97C258.843 124.558 257.483 128.764 258.078 132.889C258.673 137.014 261.479 138.713 265.476 140.007C273.384 142.433 280.782 141.544 288.69 140.007C288.605 132 288.605 124.882 288.605 117.036ZM288.69 107.492C288.69 104.823 288.945 102.963 288.69 100.536C287.925 94.3083 283.758 91.1539 276.956 90.5877C267.857 90.0216 258.418 92.6098 251.7 96.2495C251.7 92.6907 251.7 85.0069 251.7 85.0069C255.867 81.8524 274.319 78.3745 286.224 81.2054C295.578 83.4701 300.68 89.2936 301.7 98.5142C301.87 100.375 301.956 101.669 301.956 103.61C301.956 117.926 301.956 131.191 301.956 145.426C301.956 148.823 297.279 150.117 295.918 150.36C281.377 152.22 262.585 155.779 251.785 146.558C242.602 140.33 242.092 126.095 250.425 118.007C256.122 112.749 266.581 107.492 288.69 107.492Z" fill="#FD9733"/>
<path fill-rule="evenodd" clip-rule="evenodd" d="M396.768 81.1255C396.768 84.9269 396.768 88.4049 396.768 92.2063C389.795 92.2063 382.908 92.2063 375.85 92.2063C375.85 93.1769 375.85 94.0666 375.85 94.7946C375.85 105.471 375.85 116.067 375.85 126.662C375.85 128.684 376.02 130.625 376.105 132.648C376.53 137.015 378.911 140.008 383.673 140.574C387.67 140.978 397.619 140.17 398.384 140.008C398.384 140.008 398.384 141.14 398.384 141.545C398.384 144.375 398.384 147.368 398.384 150.523C389.625 152.383 380.952 153.353 372.619 149.956C365.901 147.287 362.84 142.111 362.329 135.478C362.159 132.243 361.904 128.927 361.904 125.692C361.904 107.089 361.904 88.8902 361.904 70.2872C361.904 68.7505 362.329 67.8608 363.86 67.0519C367.602 64.8681 371.598 62.6843 375.935 60.2578C375.935 67.5372 375.935 74.1696 375.935 81.2872C376.02 81.2872 395.153 81.2063 396.768 81.1255Z" fill="#FD9733"/>
<path fill-rule="evenodd" clip-rule="evenodd" d="M238.775 95.6021C233.588 92.933 228.401 91.0727 223.044 91.0727C210.289 91.3962 201.36 98.9992 199.83 111.212C199.065 117.198 199.575 123.102 202.381 128.683C206.122 136.043 212.5 139.926 220.833 140.573C226.956 141.139 231.973 140.168 237.33 137.418C237.67 137.257 237.925 137.095 238.69 136.771C238.69 140.33 238.69 144.536 238.69 147.771C238.69 147.771 238.435 148.014 237.5 148.499C216.241 159.58 189.541 146.477 186.139 123.749C184.949 115.499 185.374 107.411 188.945 99.7271C194.728 86.9477 207.823 79.2639 222.449 79.8301C227.466 79.9918 234.013 81.933 238.775 84.1168C238.775 84.0359 238.775 92.2051 238.775 95.6021Z" fill="#FD9733"/>
<path fill-rule="evenodd" clip-rule="evenodd" d="M161.905 63.6538C159.864 61.5509 158.674 58.72 158.674 54.9994C158.674 51.2788 160.034 48.2053 162.84 45.6171C165.647 43.0288 169.218 41.8965 173.385 41.8965C177.126 41.8965 180.187 42.8671 182.568 44.7274C184.949 46.5877 186.14 49.4185 186.14 52.8156C186.14 57.1024 184.779 60.4994 182.143 62.9259C179.507 65.5141 175.936 66.6465 171.599 66.6465C167.347 66.8082 164.116 65.6759 161.905 63.6538Z" fill="#FD9733"/>
<path d="M171.513 76.4336C166.752 76.4336 163.35 76.9998 161.224 78.4557C159.184 79.7498 158.588 82.1762 157.653 85.5733C156.377 90.588 155.102 97.7865 153.996 105.47C151.701 106.603 148.979 107.654 145.408 108.139C145.323 107.412 145.323 106.684 145.238 105.875C144.388 97.7865 141.496 90.9924 136.65 85.4115C131.888 79.9115 125.68 76.9189 117.942 76.3527C126.275 66.5659 132.058 57.3454 135.629 48.3674C139.201 39.5512 140.221 33.3233 140.221 24.2645C140.221 17.3086 138.605 11.8086 135.459 7.36006C132.228 3.0733 128.061 0.808594 122.704 0.808594C112.925 0.808594 104.592 6.63212 97.6189 18.2792C90.6461 29.9262 85.8842 41.4115 82.3128 57.9115C78.5713 74.4924 76.7856 89.8601 76.7856 103.934C76.7856 113.639 77.806 121.889 79.6768 128.845C76.2754 133.456 72.4489 137.176 68.1121 136.367C65.4761 135.963 63.7754 132 63.7754 130.301C63.7754 125.367 65.1359 116.713 67.772 104.014C69.3876 95.3601 70.323 89.8601 70.323 87.5145C70.323 83.713 66.7516 83.2277 61.1393 83.2277C58.5033 83.2277 54.7618 75.5439 47.0237 76.0292C39.1155 76.4336 31.5475 78.2939 24.5747 83.1468C17.4319 87.9998 11.9046 94.2277 7.65294 101.992C3.31621 109.838 1.27539 118.007 1.27539 126.823C1.27539 134.912 3.31621 141.301 7.65294 146.235C11.8196 151.088 17.4319 153.595 24.9148 153.595C33.8434 153.595 41.4114 149.066 47.3638 139.845C48.9795 144.132 51.3604 147.529 54.5067 149.956C57.6529 152.382 61.2244 153.757 64.8808 153.676C73.8094 153.272 80.7822 148.742 85.7142 142.191C90.9863 149.551 99.0645 153.272 109.949 153.272C117.687 153.272 124.66 150.441 131.037 144.86C136.82 139.845 140.816 133.051 143.197 125.125C146.258 125.206 149.15 124.801 151.701 124.073C150.51 134.75 149.745 143.404 149.745 144.132C149.745 147.125 150.34 149.389 151.701 150.764C153.061 152.22 155.527 152.867 159.439 153.029C163.435 153.029 166.582 152.301 168.537 150.926C170.493 149.551 171.513 147.125 171.769 143.566C172.789 127.632 175 110.242 178.741 85.3307C178.911 83.7939 178.996 82.7424 178.996 82.1762C178.996 78.2939 176.445 76.4336 171.513 76.4336ZM42.9421 121.323C41.9216 126.014 40.1359 129.816 37.9251 132.647C35.7142 135.478 33.3332 136.934 30.7822 136.772C28.2312 136.772 26.3604 136.044 24.8298 134.345C23.4693 132.809 22.789 130.22 22.789 126.823C22.789 120.595 23.9795 114.934 26.3604 109.353C28.7414 103.934 31.9727 99.5659 36.0543 96.1689C40.221 92.9336 44.6427 91.2351 49.4046 91.0733L42.9421 121.323ZM103.061 51.7645C105.272 40.5218 111.99 16.9851 118.962 17.3086C120.408 17.3086 124.32 21.2718 124.32 28.6321C124.32 38.5807 122.279 42.3821 117.602 52.4924C113.18 62.6027 105.697 73.0365 98.2992 86.3012C99.3196 73.0365 100.68 63.0071 103.061 51.7645ZM120.153 131.838C117.347 134.669 114.201 136.125 110.629 136.125C107.398 136.125 104.422 134.426 102.041 131.191C99.4897 127.956 98.2992 123.103 98.2992 116.875C98.2992 109.514 99.9148 103.529 103.061 99.1615C103.231 98.9998 103.316 98.838 103.486 98.5954C103.911 97.8674 104.677 97.0586 105.527 96.3307L105.697 96.1689C105.952 96.0071 106.122 95.7645 106.462 95.6027C106.718 95.2792 107.058 95.1983 107.313 94.8748C110.289 92.7718 114.286 90.9115 118.027 90.8307C116.241 101.588 120.578 111.051 126.275 117.117C126.02 118.412 125.68 119.706 125.34 121.162C124.32 125.691 122.534 129.25 120.153 131.838Z" fill="#FD9733"/>
</svg>
