<svg width="400" height="400" viewBox="0 0 400 400" fill="none" xmlns="http://www.w3.org/2000/svg">
<path d="M346.842 205.036V190.009C346.842 182.1 343.684 173.795 331.447 173.795C326.315 173.795 321.579 175.377 318.026 177.355L319.605 182.1C322.368 180.123 326.315 179.332 330.263 179.332C338.552 179.332 339.342 185.264 339.342 188.427V189.218C323.552 188.823 314.868 194.359 314.868 203.85C314.868 209.782 319.21 215.318 327.105 215.318C333.026 215.318 337.368 212.55 339.342 209.386H339.736L340.526 214.527H347.236C346.842 211.759 346.842 208.595 346.842 205.036ZM339.342 200.686C339.342 201.477 339.342 202.268 338.947 203.059C337.763 206.618 334.21 209.782 329.079 209.782C325.526 209.782 322.368 207.805 322.368 202.664C321.973 195.15 331.052 193.964 339.342 193.964V200.686ZM298.684 156V214.527H306.184V156H298.684ZM290.789 192.382C290.789 184.868 287.236 173.795 274.21 173.795C262.368 173.795 255.263 183.286 255.263 195.15C255.263 207.014 262.763 215.318 275 215.318C281.315 215.318 286.052 213.736 288.421 212.945L287.236 207.409C284.473 208.595 281.315 209.386 276.184 209.386C268.684 209.386 262.368 205.432 262.368 195.545H290.789V192.382ZM262.368 190.405C262.763 185.264 266.315 178.541 273.815 178.541C282.105 178.541 284.079 185.659 284.079 190.405H262.368ZM230.789 173.795C224.079 173.795 219.342 176.564 216.579 181.705L216.184 174.982H209.473C209.868 178.936 209.868 182.891 209.868 188.032V231.136H217.368V209.386C219.736 213.341 224.473 215.714 230 215.714C239.473 215.714 248.552 208.595 248.552 194.359C248.157 181.705 240.657 173.795 230.789 173.795ZM228.421 209.782C223.289 209.782 218.552 206.223 217.368 201.477C216.973 200.686 216.973 199.5 216.973 198.709V191.195C216.973 190.405 217.368 189.218 217.368 188.427C218.947 182.891 223.684 179.727 228.421 179.727C236.315 179.727 240.263 186.45 240.263 194.359C240.657 203.455 236.315 209.782 228.421 209.782ZM198.815 205.036V190.009C198.815 182.1 195.657 173.795 183.421 173.795C178.289 173.795 173.552 175.377 170 177.355L171.579 182.1C174.342 180.123 178.289 179.332 182.236 179.332C190.526 179.332 191.315 185.264 191.315 188.427V189.218C175.526 189.218 166.842 194.359 166.842 203.85C166.842 209.782 171.184 215.318 179.079 215.318C185 215.318 189.342 212.55 191.315 209.386H191.71L192.5 214.527H199.21C198.815 211.759 198.815 208.595 198.815 205.036ZM191.71 201.082C191.71 201.873 191.71 202.664 191.315 203.455C190.131 207.014 186.579 210.177 181.447 210.177C177.894 210.177 174.736 208.2 174.736 203.059C174.736 195.15 183.815 193.964 191.71 193.964V201.082ZM95.7891 203.059C95.7891 207.805 98.947 210.177 102.5 210.177C108.026 210.177 111.184 207.014 112.368 203.455C112.763 202.664 112.763 201.873 112.763 201.082V193.964C104.868 193.964 95.7891 195.15 95.7891 203.059ZM342.105 222.041C340.131 222.041 338.157 223.227 336.973 225.205L337.368 222.436H335C335 224.018 334.605 225.995 334.21 227.577L331.447 242.605H333.815L335 236.277C335.394 236.673 336.579 237.068 338.157 237.068C342.894 237.068 346.842 232.323 346.842 227.182C346.447 224.414 345.263 222.041 342.105 222.041ZM337.763 235.091C336.579 235.091 335.789 234.695 335 234.3L335.789 230.345C336.579 226.391 338.947 224.018 340.921 224.018C342.894 224.018 343.684 225.995 343.684 227.182C343.684 231.136 341.315 235.091 337.763 235.091ZM328.684 222.041L326.71 229.555C326.315 232.718 323.947 235.091 321.973 235.091C320.394 235.091 319.605 233.905 319.605 232.718C319.605 231.927 319.605 231.532 320 230.741L321.579 222.832H319.21L317.631 230.741C317.631 231.532 317.236 232.323 317.236 233.114C317.236 236.277 319.21 237.068 321.184 237.068C323.157 237.068 325.131 235.882 326.315 233.905L325.921 236.673H328.289C328.289 235.486 328.684 233.905 329.079 232.323L331.052 222.041H328.684ZM308.947 222.041C304.21 222.041 301.052 226.391 301.052 231.136C301.052 234.3 303.026 237.068 306.579 237.068C308.947 237.068 310.921 235.882 312.5 234.3C313.684 232.718 314.473 230.345 314.473 227.973C314.868 224.809 312.894 222.041 308.947 222.041ZM306.973 235.091C305 235.091 303.421 233.509 303.421 231.136C303.421 227.973 305.394 224.018 308.552 224.018C311.315 224.018 312.105 226.391 312.105 227.973C312.105 231.532 309.736 235.091 306.973 235.091ZM299.473 222.041C298.289 222.041 296.71 223.623 295.526 225.6C295.526 224.414 295.921 223.623 295.921 222.436H293.552C293.552 223.623 293.157 225.6 292.763 227.577L290.789 236.673H293.157L294.342 230.345C295.131 227.182 297.105 224.414 299.079 224.414H299.868L300.263 222.041H299.473ZM284.868 222.041C279.342 222.041 275.789 226.786 275.789 231.927C275.789 234.3 277.368 237.068 280.131 237.068C282.105 237.068 284.079 235.882 285.263 233.905L284.868 235.882C284.079 239.836 282.105 241.023 279.736 241.023C278.157 241.023 276.579 240.627 275.789 240.232L275 241.814C275.789 242.605 277.763 243 279.342 243C280.921 243 282.894 242.605 284.473 241.418C286.052 240.232 286.842 237.859 287.236 235.091L289.605 223.227C288.421 222.832 286.447 222.041 284.868 222.041ZM286.052 229.159C285.657 231.927 283.289 234.695 281.315 234.695C278.947 234.695 278.552 232.718 278.552 231.136C278.552 227.577 280.921 223.623 284.868 223.623C286.052 223.623 286.842 224.018 287.236 224.018L286.052 229.159Z" fill="#FF3E47"/>
<path d="M159.736 207.409L160.526 213.341C158.947 214.131 154.605 215.713 149.078 215.713C137.236 215.713 129.736 208.2 128.947 196.731C127.368 202.268 124.999 207.804 121.052 212.55C120.657 210.177 120.657 207.804 120.657 205.036V190.009C120.657 182.1 117.894 173.795 105.263 173.795C100.131 173.795 94.9995 175.377 91.8416 177.354L93.4205 182.1C96.1837 180.518 100.131 179.331 104.078 179.331C112.368 178.936 113.157 185.263 113.157 188.427V189.218C97.3679 188.822 88.6837 194.359 88.6837 203.85C88.6837 209.781 92.6311 215.318 100.921 215.318C106.842 215.318 111.184 212.55 113.552 209.386L113.947 214.131H118.684C117.105 216.109 115.131 218.086 113.157 219.668C95.3942 234.695 71.3153 235.486 59.0784 221.25C46.8416 207.409 51.1837 184.077 68.9468 169.05C86.3153 154.022 110.789 153.627 123.421 167.863C128.157 173.4 130.526 180.122 130.131 187.241C132.894 179.331 140.394 173.795 150.657 173.795C154.999 173.795 158.947 174.586 160.921 175.772L159.342 181.309C157.368 180.518 154.605 179.331 150.657 179.331C141.578 179.331 136.447 186.45 136.447 194.359C136.447 203.85 142.763 209.386 150.657 209.386C154.999 209.386 157.763 208.2 159.736 207.409Z" fill="#FF3E47"/>
</svg>
