<svg width="340" height="400" viewBox="0 0 340 400" fill="none" xmlns="http://www.w3.org/2000/svg">
<rect width="340" height="400" fill="#0063D7"/>
<path d="M321.398 173.843C314.164 169.014 19.6461 8.85312 6.21197 2.41449L2.07812 0V39.4366C2.07812 52.3139 10.3455 56.338 20.6795 62.7767L22.7461 63.5815C37.2136 71.6298 246.994 185.111 274.895 200.402C246.994 215.694 34.1136 330.785 20.6795 337.223C4.14511 345.272 3.11159 350.905 3.11159 362.173V400C3.11159 400 316.231 230.181 322.431 226.157C336.899 218.109 339.999 207.646 339.999 201.207V196.378C339.999 188.33 333.799 180.282 321.398 173.843Z" fill="white"/>
<path d="M137.442 218.107C145.709 218.107 153.976 215.693 162.243 210.864C172.577 205.23 181.878 200.401 181.878 200.401L184.978 198.791L181.878 197.182C180.845 196.377 43.4026 122.332 28.935 115.089C22.7346 111.065 14.4675 110.26 9.30051 112.675C4.13353 115.089 0 119.113 0 125.552V150.502L1.03346 151.306C2.06686 152.111 96.106 202.815 114.707 212.473C122.974 216.497 130.208 218.107 137.442 218.107Z" fill="white"/>
</svg>
