<svg width="400" height="207" viewBox="0 0 400 207" fill="none" xmlns="http://www.w3.org/2000/svg">
<path d="M251.31 103.5C251.149 136.165 227.951 162.591 199.276 162.775H179.3V136.716H199.276C215.386 136.716 228.434 121.851 228.434 103.5C228.434 85.1492 215.386 70.2848 199.276 70.2848H179.3V44.2262H199.276C227.951 44.4097 251.31 70.8354 251.31 103.5ZM140.476 44.2262V92.4897H104.552L91.342 118.548H163.352V44.4097H140.476V44.2262ZM399.84 81.2955C399.84 126.256 367.782 162.591 328.475 162.591V206.817H266.775V172.501C249.538 194.705 224.729 207.368 198.793 207.001H140.476V162.775H94.7251L71.8495 207.001H-0.160156L105.68 0H199.437C225.373 0.183511 250.021 12.6623 267.419 34.5001V0H329.119C368.265 0.367023 400.001 36.7023 399.84 81.2955ZM199.276 180.942C225.696 180.942 249.699 163.692 260.976 136.716H290.134V180.942H306.243V136.716H329.119C355.861 136.716 377.609 112.125 377.77 81.479C377.77 81.479 377.77 81.479 377.77 81.2955C377.448 50.6491 355.539 25.8751 328.636 25.8751H289.651V92.4897H266.775C261.781 54.5029 233.106 26.2421 199.276 26.0586H119.373L39.9526 180.942H58.8008L81.6763 136.716H163.352V180.942H199.276ZM328.475 44.2262H305.599V70.2848H328.475C333.791 70.2848 338.14 75.0561 338.14 81.2955C338.14 81.2955 338.14 81.2955 338.14 81.479C337.979 87.5349 333.791 92.3062 328.475 92.4897H305.599V118.548H328.475C346.517 118.548 361.016 101.849 361.016 81.479C360.855 60.9257 346.356 44.4097 328.475 44.2262Z" fill="#AE0000"/>
<path d="M360.532 193.971C360.532 199.66 356.505 204.431 351.35 204.431C346.356 204.431 342.167 199.844 342.167 193.971C342.167 188.282 346.195 183.511 351.35 183.511C356.344 183.511 360.371 187.915 360.532 193.604C360.532 193.788 360.532 193.971 360.532 193.971ZM362.788 193.971C362.788 186.814 357.633 180.942 351.35 180.942C345.067 180.942 339.912 186.814 339.912 193.971C339.912 201.128 345.067 207.001 351.35 207.001C357.633 207.001 362.788 201.128 362.788 193.971Z" fill="#AE0000"/>
<path d="M351.994 188.099C353.283 188.099 354.249 189.2 354.249 190.668C354.249 192.137 353.283 193.238 351.994 193.238H349.739V188.099H351.994ZM354.733 187.549C353.927 186.815 352.961 186.264 351.833 186.264H347.322V201.863H349.094V195.99H351.35L354.249 201.863H356.505L353.122 195.44C353.766 195.44 354.249 194.706 354.894 194.155C355.377 193.421 355.538 192.504 355.538 191.586C355.86 190.118 355.699 188.466 354.733 187.549Z" fill="#AE0000"/>
</svg>
