<svg width="400" height="314" viewBox="0 0 400 314" fill="none" xmlns="http://www.w3.org/2000/svg">
<g clip-path="url(#clip0_181_31)">
<path d="M173.922 3.72453C192.702 -0.93422 207.4 -0.93422 224.547 3.72453C267.824 13.9738 302.935 54.0391 314.366 102.49C318.449 119.262 318.449 136.033 317.633 152.805C335.596 150.009 353.56 154.668 368.258 165.849C388.671 180.757 401.736 209.641 400.103 237.594C399.286 278.591 364.175 314.929 328.248 313.998H106.15C91.452 313.998 79.2039 314.929 65.3228 309.339C38.3771 299.09 15.514 274.864 5.71561 244.116C-1.63322 224.549 -0.000149414 203.119 1.63292 183.552C8.16522 136.033 44.9094 98.7631 85.7362 94.1044C98.8008 49.3803 133.095 13.042 173.922 3.72453ZM120.847 101.558C144.527 106.217 164.94 122.989 187.803 134.17C183.721 141.624 178.005 162.122 174.739 169.576C162.491 162.122 149.426 155.6 137.178 147.214C122.48 138.828 105.333 132.306 89.8189 136.965C60.4236 144.419 35.1109 172.371 38.3771 206.846C40.0101 244.116 75.1212 270.205 107.783 270.205H316C333.147 271.137 355.193 270.205 364.175 252.502C370.708 234.799 372.341 213.368 356.01 196.597C343.762 183.552 325.798 183.552 311.1 191.938C307.018 204.983 300.485 213.368 292.32 223.618C286.604 218.027 270.274 205.914 264.558 201.256C275.173 187.279 282.522 169.576 284.155 150.941C289.87 108.081 265.374 63.3566 230.263 48.4486C188.62 29.8136 135.545 54.9708 120.847 101.558Z" fill="#409CE3"/>
</g>
<defs>
<clipPath id="clip0_181_31">
<rect width="400" height="314" fill="white"/>
</clipPath>
</defs>
</svg>
