<svg width="400" height="400" viewBox="0 0 400 400" fill="none" xmlns="http://www.w3.org/2000/svg">
<path fill-rule="evenodd" clip-rule="evenodd" d="M301.6 8.6C279 3.4 242 0 200 0C158 0 121 3.4 98.4 8.6C53.4 18 18 53.4 8.6 98.4C3.4 121 0 158 0 200C0 242 3.4 279 8.6 301.6C18 346.6 53.4 382 98.4 391.4C121 396.6 158 400 200 400C242 400 279 396.6 301.6 391.4C346.6 382 382 346.6 391.4 301.6C396.6 279 400 242 400 200C400 158 396.6 121 391.4 98.4C382 53.4 346.6 18 301.6 8.6Z" fill="#00B388"/>
<path d="M248 306.999C244.2 297.999 236.2 291.199 226.4 289.199C220.6 287.799 210.8 286.999 200 286.999C189.2 286.999 179.4 287.799 173.6 289.199C163.8 291.199 155.8 297.999 152 306.999C150.6 310.199 147.4 311.999 144.2 311.599C143.4 311.599 142.6 311.399 142 311.399C126.4 309.799 114 307.599 106.8 305.199C102 303.399 98.5996 298.799 98.5996 293.399C98.5996 293.199 98.5996 293.199 98.5996 292.999C98.5996 292.799 98.5996 292.599 98.5996 292.399V292.199C98.5996 291.999 98.5996 291.999 98.5996 291.799C99.7996 275.399 109.8 237.199 124.6 193.599C141.6 143.799 159.2 103.399 167.2 95.3992C168.4 93.9992 170 92.9992 171.6 92.1992C172.2 91.7992 173 91.3992 174 91.1992C179.2 89.3992 189 88.1992 200 88.1992C211 88.1992 220.8 89.3992 226 91.1992C227 91.5992 227.8 91.7992 228.4 92.1992C230 92.9992 231.4 94.1992 232.8 95.3992C240.8 103.199 258.4 143.599 275.4 193.599C290.2 237.199 300.2 275.399 301.4 291.799C301.4 291.999 301.4 291.999 301.4 292.199V292.399C301.4 292.599 301.4 292.799 301.4 292.999C301.4 293.199 301.4 293.199 301.4 293.399C301.4 298.799 298 303.399 293.2 305.199C286 307.799 273.8 309.999 258 311.399C257.4 311.399 256.4 311.599 255.6 311.599C252.4 311.799 249.4 309.999 248 306.999Z" fill="white"/>
</svg>
