<svg width="400" height="400" viewBox="0 0 400 400" fill="none" xmlns="http://www.w3.org/2000/svg">
<path d="M182.692 81.5104L58.5384 132.887C51.6337 135.748 51.7065 145.551 58.6528 148.304L183.322 197.745C194.275 202.09 206.475 202.09 217.429 197.745L342.098 148.304C349.043 145.546 349.122 135.743 342.212 132.887L218.063 81.5155C206.737 76.8282 194.013 76.8282 182.687 81.5155" fill="#FFCC00"/>
<path d="M211.44 224.739V348.247C211.442 349.604 211.775 350.939 212.411 352.138C213.046 353.337 213.965 354.362 215.087 355.124C216.21 355.886 217.501 356.362 218.85 356.512C220.198 356.661 221.562 356.478 222.825 355.98L361.75 302.054C363.299 301.438 364.626 300.372 365.562 298.994C366.498 297.615 366.999 295.988 367 294.321V170.818C366.998 169.462 366.665 168.126 366.029 166.928C365.393 165.729 364.474 164.704 363.352 163.942C362.23 163.18 360.938 162.703 359.59 162.554C358.242 162.405 356.877 162.588 355.615 163.086L216.69 217.012C215.141 217.628 213.813 218.694 212.878 220.072C211.941 221.45 211.441 223.078 211.44 224.744" fill="#31C2F2"/>
<path d="M179.008 231.113L133.594 253.044L46.5605 294.748C41.0451 297.412 34 293.395 34 287.256V171.339C34 169.122 35.1343 167.207 36.664 165.771C37.2893 165.148 37.9986 164.616 38.7713 164.189C40.8526 162.941 43.8185 162.608 46.342 163.607L178.321 215.899C185.085 218.563 185.605 227.96 179.014 231.118" fill="#ED3049"/>
<path d="M179.008 231.114L137.778 251.021L36.6588 165.761C37.2841 165.138 37.9934 164.606 38.7661 164.179C40.8474 162.931 43.8132 162.598 46.3368 163.597L178.316 215.889C185.08 218.553 185.6 227.95 179.008 231.108" fill="#C62842"/>
</svg>
