<svg width="400" height="400" viewBox="0 0 400 400" fill="none" xmlns="http://www.w3.org/2000/svg">
<g clip-path="url(#clip0_282_61)">
<path d="M205.674 3.73816C204.21 0.373677 200.185 -0.747819 196.891 0.747508C195.793 1.49517 194.695 2.24284 193.963 3.73816L0.733833 390.28C-0.730028 393.645 0.367868 397.383 3.66156 399.252C4.39349 399.626 5.49138 400 6.58928 400H108.328C110.889 400 113.085 398.505 114.183 396.262L193.963 227.663C195.427 224.299 199.453 222.804 202.747 224.673C204.21 225.42 205.308 226.542 205.674 227.663L285.455 396.262C286.553 398.505 288.748 400 291.31 400H393.049C396.708 400 399.636 397.009 399.636 393.271C399.636 392.149 399.27 391.028 398.904 390.28L205.674 3.73816Z" fill="#F7941D"/>
</g>
<defs>
<clipPath id="clip0_282_61">
<rect width="400" height="400" fill="white"/>
</clipPath>
</defs>
</svg>
