<svg width="400" height="400" viewBox="0 0 400 400" fill="none" xmlns="http://www.w3.org/2000/svg">
<path d="M199.996 50C118.025 50 51.1978 116.052 50.0158 197.694C48.8158 280.613 116.129 349.315 199.108 349.795C224.734 349.945 249.417 343.679 271.335 331.777C273.471 330.619 273.801 327.681 271.983 326.068L257.949 313.633C255.099 311.102 251.037 310.389 247.527 311.882C232.227 318.388 215.602 321.709 198.472 321.499C131.423 320.678 77.2495 264.927 78.3174 197.922C79.3734 131.768 133.553 78.2712 199.996 78.2712H321.692V294.445L252.645 233.136C250.413 231.152 246.987 231.541 245.187 233.922C234.105 248.588 216.052 257.708 196 256.323C168.184 254.404 145.649 232.027 143.561 204.241C141.071 171.095 167.35 143.334 200.002 143.334C229.528 143.334 253.845 166.047 256.383 194.906C256.611 197.472 257.769 199.87 259.701 201.579L277.683 217.511C279.723 219.315 282.963 218.212 283.461 215.532C284.757 208.607 285.213 201.381 284.703 193.976C281.805 151.77 247.599 117.821 205.348 115.219C156.91 112.233 116.411 150.103 115.127 197.574C113.873 243.833 151.799 283.713 198.094 284.732C217.42 285.158 235.335 279.084 249.813 268.561L340.028 348.481C343.898 351.905 350 349.165 350 343.996V55.6902C350 52.5483 347.45 50 344.306 50H199.996Z" fill="#003FFF"/>
</svg>
