<svg width="400" height="257" viewBox="0 0 400 257" fill="none" xmlns="http://www.w3.org/2000/svg">
<path d="M266.676 112.375H133.41V143.328H266.676V112.375Z" fill="black"/>
<path d="M333.433 0H245.258L266.532 31.022L330.823 51.7033C336.498 53.5501 341.447 57.2269 344.94 62.1917C348.433 67.1565 350.286 73.1464 350.225 79.2784V178.135C350.265 184.262 348.404 190.242 344.914 195.202C341.424 200.163 336.487 203.844 330.823 205.71L266.532 225.978L245.258 257H333.433C342.205 257.009 350.892 255.23 358.994 251.764C367.096 248.299 374.453 243.216 380.64 236.808C386.828 230.4 391.724 222.794 395.046 214.428C398.368 206.062 400.051 197.101 399.999 188.062V68.9378C399.999 50.7139 392.996 33.2313 380.522 20.3129C368.048 7.39439 351.118 0.0911193 333.433 0Z" fill="black"/>
<path d="M66.9004 0H154.808L133.801 31.022L69.5096 51.7033C63.8279 53.5476 58.8705 57.2216 55.3661 62.1853C51.8618 67.149 49.9954 73.1404 50.0415 79.2784V178.135C50.0165 184.268 51.891 190.249 55.3923 195.209C58.8936 200.168 63.8392 203.847 69.5096 205.71L133.801 225.978L155.075 257H66.9004C49.1573 257 32.141 249.737 19.5947 236.809C7.04842 223.88 0 206.346 0 188.062L0 68.9378C0 50.6543 7.04842 33.1197 19.5947 20.1914C32.141 7.26306 49.1573 0 66.9004 0Z" fill="black"/>
</svg>
