<svg width="400" height="350" viewBox="0 0 400 350" fill="none" xmlns="http://www.w3.org/2000/svg">
<path fill-rule="evenodd" clip-rule="evenodd" d="M135.188 245.609C135.188 245.609 85.8168 230.759 52.9733 203.416C52.9733 203.416 46.6165 197.995 44.9214 196.109L0 216.381C17.5871 264.937 62.0847 293.223 106.794 288.744C110.82 288.509 115.058 288.037 119.084 287.33L135.188 245.609Z" fill="#6FD78A"/>
<path fill-rule="evenodd" clip-rule="evenodd" d="M104.04 169.477L99.8026 163.584C84.1225 142.37 76.2824 116.677 76.0705 90.9845L18.0118 64.1133C0.212736 111.02 12.2907 163.82 44.7103 196.348L104.04 169.477Z" fill="#0CBEB8"/>
<path fill-rule="evenodd" clip-rule="evenodd" d="M133.916 209.544L104.251 169.473L44.709 196.344L44.9209 196.58C47.2517 198.937 49.7944 201.058 52.3371 203.18C85.3925 230.522 134.764 245.608 134.976 245.608C140.909 232.644 143.028 222.272 133.916 209.544Z" fill="#1AA799"/>
<path fill-rule="evenodd" clip-rule="evenodd" d="M391.576 68.1172H278.849C242.615 68.1172 212.526 84.3814 193.244 106.538C193.244 106.538 216.976 138.36 217.612 139.067C227.359 151.795 233.716 153.681 250.455 150.852L285.842 144.724C303.005 103.238 330.763 83.6742 377.591 83.6742H392.212C402.383 83.9099 403.019 68.1172 391.576 68.1172Z" fill="#F4D138"/>
<path fill-rule="evenodd" clip-rule="evenodd" d="M174.6 137.892L175.448 135.77C179.262 125.635 185.407 115.735 193.247 106.542L113.787 0C88.3595 23.3355 75.434 57.2781 75.8577 91.4565L174.6 137.892Z" fill="#029CEF"/>
<path fill-rule="evenodd" clip-rule="evenodd" d="M76.0703 91.2188C76.2822 116.911 84.1223 142.604 99.8024 163.818L104.04 169.711L174.601 138.126L76.0703 91.2188Z" fill="#1E778B"/>
<path fill-rule="evenodd" clip-rule="evenodd" d="M119.298 287.332L98.3203 342.017C139.428 361.581 209.564 344.61 227.363 297.468C227.363 297.468 229.482 291.81 230.118 290.396C230.118 290.396 205.538 269.418 205.326 269.418C193.46 259.518 187.316 257.632 169.94 265.411H169.728C166.338 267.296 127.35 286.153 119.298 287.332Z" fill="#5A76B1"/>
<path fill-rule="evenodd" clip-rule="evenodd" d="M250.669 151.095C233.718 153.924 227.361 152.038 217.402 139.31L193.246 106.781C185.406 115.738 179.473 125.638 175.447 136.01L174.6 138.131L104.039 169.481L133.916 209.552C143.027 222.28 141.12 232.416 135.187 245.616L119.295 287.337C127.559 286.159 166.548 267.301 169.726 265.651C169.938 265.651 169.938 265.651 169.938 265.651C187.525 257.873 193.67 259.994 205.748 269.894C207.655 271.544 230.116 290.401 230.116 290.401L285.632 144.967L250.669 151.095Z" fill="#33457C"/>
</svg>
