<svg width="400" height="400" viewBox="0 0 400 400" fill="none" xmlns="http://www.w3.org/2000/svg">
<path fill-rule="evenodd" clip-rule="evenodd" d="M132.607 216.148C132.607 216.273 132.583 216.396 132.559 216.586H125.245C125.229 216.244 125.194 215.885 125.194 215.525C125.19 210.822 125.194 206.119 125.186 201.412C125.186 200.854 125.155 200.29 125.079 199.736C124.761 197.362 123.195 195.946 120.883 195.915C118.479 195.886 116.73 197.317 116.349 199.661C116.253 200.245 116.238 200.843 116.238 201.434C116.229 206.103 116.233 210.777 116.233 215.45V216.606H108.796V200.913C108.792 200.476 108.803 200.035 108.744 199.605C108.43 197.329 106.905 195.961 104.648 195.92C102.267 195.87 100.5 197.235 100.068 199.504C99.9478 200.114 99.9108 200.746 99.9108 201.366C99.8997 206.069 99.9034 210.772 99.9034 215.477V216.613H92.5716V190.353H99.752V193.171C101.791 190.633 104.306 189.586 107.374 189.669C110.465 189.755 112.944 190.887 114.641 193.4C114.744 193.359 114.855 193.347 114.907 193.287C117.226 190.397 120.397 189.488 124.102 189.71C127.812 189.932 130.736 191.853 131.846 195.027C132.252 196.197 132.553 197.452 132.568 198.676C132.644 204.501 132.607 210.325 132.607 216.148ZM69.7358 200.992C67.9629 201.001 67.4107 201.52 67.407 203.158C67.4033 203.876 67.4236 204.59 67.4033 205.307C67.3719 206.399 66.672 207.101 65.671 207.087C64.6922 207.07 64.0089 206.411 64.0015 205.355C63.9775 202.772 63.9775 200.189 64.0015 197.606C64.0144 196.496 64.5648 195.993 65.7652 195.881C67.3627 195.732 67.8355 195.247 67.8391 193.732C67.8447 192.614 67.8281 191.494 67.8447 190.371C67.8595 189.336 68.4394 188.738 69.5124 188.648C69.9741 188.61 70.4468 188.591 70.8993 188.655C71.1265 188.685 71.4404 188.887 71.5088 189.078C72.8902 192.995 74.2457 196.921 75.6548 200.989C73.5661 200.989 71.651 200.985 69.7358 200.992ZM89.035 215.444C87.6 211.637 86.1613 207.825 84.7227 204.021C81.8343 196.371 78.9422 188.726 76.0482 181.082C75.9005 180.692 75.8894 180.232 75.2098 180.239C71.9649 180.262 68.7219 180.224 65.4771 180.262C64.1658 180.279 63.5564 180.916 63.5379 182.151C63.5176 183.552 63.5398 184.953 63.5287 186.353C63.5176 187.575 62.9802 188.11 61.7004 188.233C60.1601 188.378 59.7058 188.849 59.7058 190.322C59.7021 193.192 59.7058 196.053 59.7021 198.922C59.7021 200.403 59.2884 200.828 57.7002 200.992C56.4259 201.129 55.8995 201.674 55.8829 202.888C55.8755 203.637 55.8921 204.383 55.8792 205.131C55.8644 206.455 55.3307 206.99 53.929 207.113C52.5347 207.233 52.0175 207.755 52.0083 209.098C51.9972 210.934 51.9972 212.773 52.0083 214.612C52.0175 215.996 52.6362 216.591 54.1284 216.623C55.2845 216.651 56.4443 216.632 57.6041 216.628C59.6356 216.623 60.1195 216.172 60.1306 214.271C60.1398 212.74 60.7123 212.19 62.3412 212.187C64.9914 212.178 67.6415 212.183 70.288 212.183H71.4201V207.504C73.3556 207.504 75.2024 207.533 77.0455 207.485C77.7066 207.467 77.9597 207.709 78.1499 208.259C78.8461 210.267 79.5848 212.267 80.3088 214.267C81.162 216.625 81.162 216.625 83.8565 216.625H89.4265C89.264 216.136 89.1624 215.788 89.035 215.444ZM158.021 207.682C156.78 210.063 154.578 211.114 151.793 211.133C148.035 211.102 145.143 208.632 144.794 204.914C144.653 203.457 144.785 201.904 145.182 200.491C145.896 197.934 147.767 196.32 150.606 195.927C153.705 195.5 156.283 196.405 157.838 199.07C159.47 201.872 159.509 204.82 158.021 207.68M165.402 197.729C162.586 189.975 154.229 188.333 148.591 190.537C147.283 191.044 146.144 191.926 144.842 192.693V180.296H137.497V216.591H144.46V214.16C144.657 214.264 144.755 214.295 144.816 214.355C149.732 218.998 159.212 217.997 163.428 212.489C166.937 207.912 167.271 202.881 165.402 197.729ZM320.54 210.022C316.458 212.605 311.13 210.721 309.836 206.26C309.073 203.637 309.199 201.064 310.809 198.711C312.466 196.289 314.946 195.527 317.864 195.927C320.484 196.289 322.268 197.738 323.146 200.058C323.552 201.127 323.674 202.287 323.801 202.851C323.701 206.073 322.994 208.466 320.54 210.022ZM326.13 192.42C321.886 189.029 313.928 188.354 309.509 192.696C309.461 192.743 309.346 192.727 309.215 192.746V190.359H302.286V226H309.677V214.078C314.853 219.155 325.351 218.22 329.34 211.146C330.446 209.183 331.044 207.091 331.2 204.904C331.537 200.029 330.243 195.703 326.13 192.42ZM183.128 195.358C186.441 195.389 188.825 197.49 188.988 200.603H177.061C177.251 197.49 179.778 195.329 183.128 195.358ZM195.588 205.251C196.312 205.251 196.63 205.075 196.575 204.369C196.49 203.25 196.523 202.126 196.375 201.014C195.934 197.676 194.754 194.599 191.869 192.454C187.411 189.138 182.349 188.742 177.279 190.802C168.426 194.401 167.273 205.505 171.621 211.618C176.171 218.01 186.127 218.665 191.758 215.291C193.352 214.332 194.781 213.181 195.744 211.502C194.115 210.343 192.517 209.207 190.912 208.063C188.273 210.989 185.023 211.936 181.241 210.791C178.539 209.973 177.061 208.082 176.734 205.236H178.018C183.874 205.236 189.732 205.225 195.588 205.251ZM239.363 209.083C239.284 212.284 237.679 214.679 234.635 215.984C229.62 218.137 224.737 217.84 220.251 214.631C219.449 214.059 218.81 213.292 217.99 212.518L222.459 208.792C224.243 210.718 226.43 211.731 229.112 211.614C229.758 211.589 230.447 211.473 231.027 211.218C232.634 210.514 232.859 208.679 231.4 207.748C230.403 207.11 229.232 206.71 228.114 206.245C226.729 205.666 225.289 205.195 223.922 204.571C220.542 203.023 218.825 200.447 219.108 196.902C219.388 193.381 221.641 191.208 225.123 190.259C229.45 189.08 233.577 189.406 237.131 192.35C237.79 192.896 238.325 193.571 238.996 194.266L234.035 197.748C232.752 196.376 231.328 195.356 229.357 195.285C229.259 195.279 229.16 195.257 229.064 195.257C227.475 195.24 226.354 195.886 226.103 196.962C225.869 197.956 226.497 198.887 227.976 199.497C229.302 200.047 230.693 200.466 232.044 200.966C232.994 201.318 233.952 201.674 234.864 202.102C237.917 203.531 239.443 205.861 239.363 209.083ZM265.337 214.115C265.409 214.343 265.047 214.811 264.761 214.993C261.724 216.934 258.345 217.582 254.74 217.192C250.455 216.726 246.835 215.031 244.394 211.618C241.127 207.053 240.854 202.12 243.321 197.229C245.703 192.51 249.977 190.136 255.488 189.712C258.873 189.456 261.976 190.211 264.833 191.941C265.385 192.278 265.579 192.585 265.329 193.212C264.685 194.842 264.122 196.503 263.497 198.23C258.598 194.499 253.628 195.657 251.414 197.915C248.588 200.802 248.439 205.62 251.048 208.57C253.911 211.809 258.204 211.925 263.553 208.871C264.164 210.627 264.801 212.357 265.337 214.115Z" fill="black"/>
<mask id="mask0_751_25" style="mask-type:luminance" maskUnits="userSpaceOnUse" x="333" y="184" width="16" height="33">
<path d="M333.321 184.804H348.999V216.992H333.321V184.804Z" fill="white"/>
</mask>
<g mask="url(#mask0_751_25)">
<path fill-rule="evenodd" clip-rule="evenodd" d="M348.975 216.314C348.973 216.493 348.659 216.804 348.46 216.823C346.182 217.057 343.894 217.151 341.693 216.399C338.38 215.272 336.9 212.784 336.489 209.699C336.226 207.735 336.237 205.729 336.202 203.74C336.158 201.192 336.193 198.641 336.193 195.954H333.321V190.334H336.221V184.804H343.54V190.293H348.729V195.935H343.56V206.088C343.56 206.212 343.556 206.339 343.56 206.464C343.621 209.959 344.594 210.852 348.328 210.84C348.519 210.84 348.705 210.857 348.997 210.871C348.997 212.721 349.012 214.52 348.977 216.314" fill="black"/>
</g>
<path fill-rule="evenodd" clip-rule="evenodd" d="M284.558 189.691V196.682C283.862 196.754 283.173 196.776 282.501 196.904C279.738 197.43 278.089 199.072 277.489 201.605C277.215 202.75 277.092 203.942 277.077 205.116C277.025 208.915 277.057 212.709 277.057 216.582H269.743V190.337H276.835V193.634C278.726 191.063 281.201 189.688 284.558 189.691ZM215.611 189.698V196.682C214.897 196.757 214.197 196.776 213.523 196.906C210.808 197.43 209.164 199.041 208.547 201.535C208.272 202.646 208.141 203.811 208.126 204.952C208.075 208.471 208.108 211.988 208.108 215.509V216.591H200.771V190.356H207.899V193.653C209.772 191.06 212.243 189.683 215.611 189.698Z" fill="black"/>
<mask id="mask1_751_25" style="mask-type:luminance" maskUnits="userSpaceOnUse" x="52" y="180" width="297" height="46">
<path d="M52 226H349V180H52V226Z" fill="white"/>
</mask>
<g mask="url(#mask1_751_25)">
<path fill-rule="evenodd" clip-rule="evenodd" d="M289.039 216.613H296.286V190.341H289.039V216.613ZM296.945 183.9C296.965 186.188 295.167 187.889 292.694 187.918C290.202 187.949 288.339 186.292 288.32 184.023C288.3 181.734 290.112 180.015 292.563 180C295.063 179.985 296.93 181.645 296.945 183.9Z" fill="black"/>
</g>
</svg>
