<svg width="400" height="400" viewBox="0 0 400 400" fill="none" xmlns="http://www.w3.org/2000/svg">
<g clip-path="url(#clip0_236_5)">
<path d="M191.02 124.898C195.918 139.592 200.816 158.367 206.531 179.592C185.306 179.592 163.265 178.776 142.857 178.776H132.245C144.49 132.245 158.367 96.3265 169.796 88.1633C170.612 87.3469 171.429 87.3469 173.061 87.3469C174.694 87.3469 175.51 88.1633 177.143 89.7959C178.776 93.8776 183.673 103.673 191.02 124.898ZM400 200C400 310.204 310.204 400 200 400C89.7959 400 0 310.204 0 200C0 89.7959 89.7959 0 200 0C310.204 0 400 89.7959 400 200ZM348.571 195.102C348.571 190.204 345.306 185.306 340.408 184.49C339.592 184.49 339.592 184.49 338.776 184.49H337.143C303.673 182.041 268.571 181.224 235.918 180.408C220.408 120.816 200 60.4082 173.878 60.4082C149.388 60.4082 126.531 100.408 106.939 178.776C93.0612 178.776 80.8163 178.776 69.3878 177.959C68.5714 177.959 67.7551 177.959 67.7551 177.959C65.3061 177.959 63.6735 177.959 63.6735 177.959C57.1429 178.776 52.2449 185.306 52.2449 191.837C52.2449 198.367 57.1429 204.898 64.4898 205.714H102.041C98.7755 221.224 95.5102 236.735 93.0612 251.429L92.2449 257.959C92.2449 262.857 96.3265 266.939 101.224 266.939C104.49 266.939 107.755 265.306 109.388 262.857L127.347 204.898H214.694C221.224 230.204 228.571 256.327 237.551 280.816C242.449 293.878 253.878 324.898 273.469 324.898C302.857 324.898 314.286 277.551 321.633 246.531C323.265 240 324.898 234.286 325.714 229.388L326.531 227.755C326.531 226.939 326.531 226.122 326.531 225.306C325.714 223.673 324.898 222.857 323.265 222.041C320.816 221.224 319.184 222.857 318.367 225.306L317.551 226.939C315.102 233.469 312.653 240 311.02 245.714V246.531C297.959 282.449 292.245 298.775 280.816 298.775C266.122 298.775 252.245 239.184 247.347 216.327C246.531 212.245 245.714 208.98 244.898 205.714H340.408C342.041 205.714 343.673 204.898 345.306 204.898C345.306 204.898 345.306 204.898 346.122 204.898C346.122 204.898 346.122 204.898 346.939 204.898C346.939 204.898 347.755 204.898 347.755 204.082C346.939 200.816 348.571 198.367 348.571 195.102Z" fill="#1E61F0"/>
</g>
<defs>
<clipPath id="clip0_236_5">
<rect width="400" height="400" fill="white"/>
</clipPath>
</defs>
</svg>
