<svg width="400" height="400" viewBox="0 0 400 400" fill="none" xmlns="http://www.w3.org/2000/svg">
<g clip-path="url(#clip0_326_79)">
<path d="M89.1458 296.542C89.4108 299.538 91.8029 303.338 95.9484 303.338H98.3772C99.3176 303.338 100.085 302.571 100.085 301.63V248.277H100.075C100.03 247.382 99.281 246.66 98.3772 246.66H90.8532C89.9405 246.66 89.2007 247.382 89.1552 248.277H89.1458V252.616C84.535 246.934 77.276 244.586 69.9898 244.586C53.4267 244.577 40.0046 258.005 40.0046 274.565C40.0046 291.135 53.4267 304.562 69.9898 304.562C77.2669 304.562 85.2108 301.739 89.1458 296.542ZM70.0172 294.067C59.4895 294.067 50.9523 285.334 50.9523 274.565C50.9523 263.796 59.4895 255.072 70.0172 255.072C80.5448 255.072 89.0819 263.805 89.0819 274.565C89.0819 285.334 80.5448 294.067 70.0172 294.067Z" fill="#0D0E10"/>
<path d="M211.661 296.542C211.926 299.538 214.318 303.338 218.464 303.338H220.892C221.833 303.338 222.6 302.57 222.6 301.63V248.277H222.591C222.545 247.382 221.796 246.66 220.892 246.66H213.369C212.456 246.66 211.716 247.382 211.661 248.277V252.616C207.05 246.934 199.792 244.586 192.505 244.586C175.951 244.586 162.52 258.014 162.52 274.583C162.52 291.153 175.942 304.58 192.505 304.58C199.792 304.562 207.735 301.739 211.661 296.542ZM192.542 294.067C182.014 294.067 173.477 285.334 173.477 274.565C173.477 263.796 182.014 255.072 192.542 255.072C203.069 255.072 211.607 263.805 211.607 274.565C211.607 285.334 203.069 294.067 192.542 294.067Z" fill="#0D0E10"/>
<path d="M348.631 296.542C348.896 299.538 351.288 303.338 355.434 303.338H357.862C358.803 303.338 359.579 302.57 359.579 301.63V248.277H359.57C359.524 247.382 358.775 246.66 357.872 246.66H350.348C349.435 246.66 348.695 247.382 348.65 248.277H348.64V252.616C344.029 246.934 336.77 244.586 329.484 244.586C312.921 244.586 299.499 258.014 299.499 274.583C299.499 291.153 312.921 304.58 329.484 304.58C336.761 304.562 344.696 301.739 348.631 296.542ZM329.502 294.067C318.975 294.067 310.438 285.334 310.438 274.565C310.438 263.796 318.975 255.072 329.502 255.072C340.03 255.072 348.567 263.805 348.567 274.565C348.576 285.334 340.039 294.067 329.502 294.067Z" fill="#0D0E10"/>
<path d="M289.985 298.369V270.756C289.985 255.192 280.169 244.696 264.519 244.696C257.05 244.696 250.211 248.98 248.76 252.734C248.294 249.83 246.751 246.779 241.975 246.779H239.538C238.597 246.779 237.83 247.546 237.83 248.496V296.67V296.679V301.758V301.849H237.839C237.885 302.744 238.634 303.466 239.538 303.466H244.633H247.061C247.18 303.466 247.29 303.457 247.399 303.429C247.445 303.42 247.5 303.402 247.545 303.384C247.6 303.365 247.655 303.356 247.709 303.329C247.773 303.301 247.837 303.265 247.901 303.228C247.929 303.21 247.965 303.192 247.993 303.174C248.066 303.128 248.139 303.064 248.203 303.009C248.212 303 248.23 302.991 248.239 302.982C248.312 302.908 248.385 302.827 248.44 302.744C248.632 302.489 248.741 302.178 248.76 301.84H248.769V301.749V298.36V297.474V270.327C248.769 261.969 255.544 255.192 263.898 255.192C272.253 255.192 279.028 261.969 279.028 270.327L279.037 296.67V296.661C279.037 296.688 279.037 296.706 279.037 296.734V301.749V301.84H279.046C279.092 302.735 279.841 303.457 280.744 303.457H285.839H288.268C288.387 303.457 288.496 303.448 288.606 303.42C288.652 303.411 288.688 303.393 288.734 303.384C288.798 303.365 288.862 303.347 288.916 303.329C288.98 303.301 289.035 303.265 289.09 303.237C289.126 303.219 289.163 303.201 289.2 303.183C289.272 303.137 289.336 303.082 289.391 303.027C289.41 303.009 289.427 303 289.437 302.991C289.51 302.918 289.574 302.844 289.629 302.772C289.629 302.763 289.638 302.763 289.638 302.753C289.82 302.498 289.939 302.187 289.957 301.858H289.966V301.767L289.985 298.369Z" fill="#0D0E10"/>
<path d="M118.054 288.896C123.076 292.377 128.554 294.066 133.822 294.066C138.835 294.066 144.021 291.463 144.021 286.932C144.021 280.886 132.718 279.945 125.623 277.533C118.519 275.122 112.402 270.126 112.402 262.051C112.402 249.683 123.413 244.577 133.694 244.577C140.205 244.577 146.925 246.724 151.289 249.802C152.787 250.944 151.874 252.25 151.874 252.25L147.71 258.196C147.244 258.863 146.423 259.448 145.254 258.717C144.076 257.995 139.967 255.082 133.694 255.082C127.422 255.082 123.642 257.977 123.642 261.567C123.642 265.878 128.554 267.23 134.306 268.701C144.332 271.404 155.261 274.656 155.261 286.942C155.261 297.839 145.071 304.571 133.813 304.571C125.276 304.571 118.017 302.141 111.927 297.665C110.658 296.395 111.544 295.217 111.544 295.217L115.68 289.307C116.529 288.193 117.588 288.576 118.054 288.896Z" fill="#0D0E10"/>
<path d="M226.152 120.325C226.152 134.857 214.373 146.649 199.846 146.649C185.31 146.649 173.532 134.866 173.532 120.325C173.532 105.783 185.31 94 199.846 94C214.373 94 226.152 105.783 226.152 120.325ZM165.661 153.226C151.134 153.226 139.346 165.009 139.346 179.542C139.346 194.074 151.125 205.867 165.661 205.867C180.197 205.867 191.976 194.083 191.976 179.542C191.976 165.009 180.197 153.226 165.661 153.226ZM234.022 153.226C219.486 153.226 207.708 165.009 207.708 179.551C207.708 194.092 219.486 205.876 234.022 205.876C248.549 205.876 260.337 194.092 260.337 179.551C260.337 165.009 248.558 153.226 234.022 153.226Z" fill="#F06A6A"/>
</g>
<defs>
<clipPath id="clip0_326_79">
<rect width="320" height="211" fill="white" transform="translate(40 94)"/>
</clipPath>
</defs>
</svg>
