<svg width="400" height="400" viewBox="0 0 400 400" fill="none" xmlns="http://www.w3.org/2000/svg">
<mask id="mask0_304_20" style="mask-type:luminance" maskUnits="userSpaceOnUse" x="22" y="11" width="357" height="357">
<path d="M378.985 11H22V368H378.985V11Z" fill="white"/>
</mask>
<g mask="url(#mask0_304_20)">
<path d="M55.7292 249.752L27.4805 316.158C19.5546 334.749 18.0641 355.95 37.9128 363.335C42.6547 365.118 47.4644 365.946 52.2742 365.946C67.5841 365.946 82.1488 357.287 88.1779 343.089L93.8684 329.719L137.427 227.405L180.782 125.473C191.13 107.354 197.475 79.4725 238.093 64.4795C206.515 60.4296 142.859 52.0957 142.223 52.0957C141.815 52.7324 137.562 59.1951 137.156 59.8318C136.275 61.2324 135.395 62.6968 134.717 64.2248C134.65 64.3522 134.65 64.4158 134.582 64.4795L55.7969 249.625C55.7969 249.625 55.7292 249.689 55.7292 249.752Z" fill="url(#paint0_radial_304_20)"/>
<path d="M338.141 249.75L366.389 316.156C374.315 334.746 375.805 355.948 355.956 363.333C351.214 365.116 346.405 365.944 341.596 365.944C326.285 365.944 311.721 357.285 305.692 343.087L300.001 329.717L256.443 227.402L213.088 125.471C202.74 107.352 185.273 69.8989 138.625 57.7921C144.518 43.9763 164.718 41.6206 180.502 41.6206H223.316H223.655C225.348 41.6842 226.975 41.8753 228.735 42.1299C229.616 42.2573 230.565 42.2573 231.446 42.4483C232.597 42.703 233.681 43.1486 234.833 43.467C236.12 43.8489 237.407 44.1036 238.627 44.613C239.168 44.8676 239.71 45.186 240.252 45.4407C241.946 46.2046 243.571 46.9687 245.129 47.9237C246.214 48.5603 247.094 49.4517 248.111 50.2157C248.99 50.916 250.007 51.5527 250.82 52.3168C251.566 53.0807 252.243 53.9722 252.988 54.7998C253.869 55.8185 254.817 56.7098 255.562 57.7921C255.968 58.4288 256.308 59.1929 256.714 59.8296C257.595 61.2302 258.474 62.6946 259.153 64.2226C259.22 64.35 259.22 64.4136 259.288 64.4773L338.073 249.623C338.073 249.623 338.141 249.687 338.141 249.75Z" fill="url(#paint1_radial_304_20)"/>
</g>
<defs>
<radialGradient id="paint0_radial_304_20" cx="0" cy="0" r="1" gradientUnits="userSpaceOnUse" gradientTransform="translate(156.122 86.8682) rotate(112.411) scale(305.887 208.793)">
<stop stop-color="#142167"/>
<stop offset="1" stop-color="#263DB5"/>
</radialGradient>
<radialGradient id="paint1_radial_304_20" cx="0" cy="0" r="1" gradientUnits="userSpaceOnUse" gradientTransform="translate(349.209 112.872) rotate(132.409) scale(283.924 993.404)">
<stop stop-color="#4259D4"/>
<stop offset="1" stop-color="#6A81FC"/>
</radialGradient>
</defs>
</svg>
