<svg width="400" height="400" viewBox="0 0 400 400" fill="none" xmlns="http://www.w3.org/2000/svg">
<g clip-path="url(#clip0_104_10)">
<path d="M118.824 184.686C112.758 178.015 103.66 178.621 99.4135 186.506L1.14595 383.018C-2.49347 390.903 2.96582 400.001 11.458 400.001H147.94C152.187 400.001 156.433 397.575 158.253 393.33C187.975 332.678 170.384 239.88 118.824 184.686Z" fill="url(#paint0_linear_104_10)"/>
<path d="M190.41 6.3685C135.817 93.1008 139.458 189.538 175.245 261.713C211.641 333.89 238.937 389.688 241.364 393.328C243.185 397.573 247.43 400 251.675 400H388.159C396.65 400 402.716 390.902 398.471 383.017C398.471 383.017 214.675 15.4663 209.821 6.3685C206.182 -2.12283 195.869 -2.12283 190.41 6.3685Z" fill="#2684FF"/>
</g>
<defs>
<linearGradient id="paint0_linear_104_10" x1="172.446" y1="215.085" x2="68.9004" y2="394.453" gradientUnits="userSpaceOnUse">
<stop stop-color="#0052CC"/>
<stop offset="0.9228" stop-color="#2684FF"/>
</linearGradient>
<clipPath id="clip0_104_10">
<rect width="400" height="400" fill="white"/>
</clipPath>
</defs>
</svg>
