<svg width="330" height="331" viewBox="0 0 330 331" fill="none" xmlns="http://www.w3.org/2000/svg">
<g clip-path="url(#clip0_1_7)">
<path d="M330 0H0V331H330V0Z" fill="url(#paint0_linear_1_7)"/>
<path fill-rule="evenodd" clip-rule="evenodd" d="M250.948 177.468L252.532 166.28C267.138 175.056 267.329 178.681 267.324 178.78C267.3 178.801 264.808 180.886 250.948 177.468ZM242.933 175.234C217.688 167.571 182.531 151.394 168.303 144.649C168.303 144.592 168.32 144.538 168.32 144.48C168.32 138.998 163.874 134.537 158.403 134.537C152.942 134.537 148.496 138.998 148.496 144.48C148.496 149.962 152.942 154.423 158.403 154.423C160.805 154.423 162.983 153.525 164.703 152.097C181.442 160.045 216.327 175.987 241.758 183.518L231.701 254.707C231.672 254.902 231.66 255.096 231.66 255.29C231.66 261.558 203.993 273.074 158.787 273.074C113.103 273.074 85.1437 261.558 85.1437 255.29C85.1437 255.101 85.1313 254.914 85.1065 254.728L64.0938 100.784C82.2809 113.341 121.398 119.986 158.812 119.986C196.168 119.986 235.22 113.366 253.443 100.846L242.933 175.234ZM61.8745 84.7262C62.1715 79.2812 93.3648 57.9234 158.812 57.9234C224.251 57.9234 255.449 79.2771 255.75 84.7262V86.584C252.161 98.7937 211.736 111.711 158.812 111.711C105.798 111.711 65.3519 98.7523 61.8745 86.526V84.7262ZM264 84.8172C264 70.4808 223.022 49.6484 158.812 49.6484C94.6023 49.6484 53.6245 70.4808 53.6245 84.8172L54.0123 87.9369L76.8978 255.605C77.4464 274.356 127.301 281.349 158.787 281.349C197.859 281.349 239.369 272.337 239.906 255.617L249.789 185.707C255.288 187.026 259.812 187.7 263.447 187.7C268.326 187.7 271.626 186.504 273.627 184.113C275.269 182.152 275.896 179.777 275.426 177.249C274.358 171.523 267.58 165.35 253.778 157.451L263.579 88.0983L264 84.8172Z" fill="white"/>
</g>
<defs>
<linearGradient id="paint0_linear_1_7" x1="0" y1="331" x2="330.998" y2="1.00151" gradientUnits="userSpaceOnUse">
<stop stop-color="#1B660F"/>
<stop offset="1" stop-color="#6CAE3E"/>
</linearGradient>
<clipPath id="clip0_1_7">
<rect width="330" height="331" fill="white"/>
</clipPath>
</defs>
</svg>
