<svg width="330" height="330" viewBox="0 0 330 330" fill="none" xmlns="http://www.w3.org/2000/svg">
<g clip-path="url(#clip0_1_11)">
<path d="M330 0H0V330H330V0Z" fill="url(#paint0_linear_1_11)"/>
<path fill-rule="evenodd" clip-rule="evenodd" d="M235.125 251.625C235.125 244.917 229.458 239.249 222.75 239.249C216.042 239.249 210.375 244.917 210.375 251.625C210.375 258.332 216.042 264 222.75 264C229.458 264 235.125 258.332 235.125 251.625ZM165 247.499C158.292 247.499 152.625 253.167 152.625 259.875C152.625 266.582 158.292 272.25 165 272.25C171.708 272.25 177.375 266.582 177.375 259.875C177.375 253.167 171.708 247.499 165 247.499ZM107.25 239.249C100.543 239.249 94.875 244.917 94.875 251.625C94.875 258.332 100.543 264 107.25 264C113.957 264 119.625 258.332 119.625 251.625C119.625 244.917 113.957 239.249 107.25 239.249ZM117.996 177.373H212.004L180.423 148.955L167.677 159.878C166.91 160.543 165.949 160.873 164.996 160.873C164.043 160.873 163.082 160.543 162.315 159.878L149.573 148.955L117.996 177.373ZM111.375 116.215V172.237L143.257 143.543L111.375 116.215ZM211.6 111.372H118.4L164.996 151.315L211.6 111.372ZM218.625 172.237V116.215L186.743 143.539L218.625 172.237ZM243.375 251.625C243.375 262.803 233.929 272.25 222.75 272.25C211.571 272.25 202.125 262.803 202.125 251.625C202.125 241.853 209.343 233.408 218.625 231.437V218.624H169.125V239.687C178.407 241.658 185.625 250.103 185.625 259.875C185.625 271.053 176.178 280.5 165 280.5C153.822 280.5 144.375 271.053 144.375 259.875C144.375 250.103 151.593 241.658 160.875 239.687V218.624H111.375V231.437C120.657 233.408 127.875 241.853 127.875 251.625C127.875 262.803 118.428 272.25 107.25 272.25C96.0713 272.25 86.625 262.803 86.625 251.625C86.625 241.853 93.8438 233.408 103.125 231.437V214.499C103.125 212.222 104.969 210.374 107.25 210.374H160.875V185.623H107.25C104.969 185.623 103.125 183.775 103.125 181.498V107.247C103.125 104.97 104.969 103.122 107.25 103.122H222.75C225.031 103.122 226.875 104.97 226.875 107.247V181.498C226.875 183.775 225.031 185.623 222.75 185.623H169.125V210.374H222.75C225.031 210.374 226.875 212.222 226.875 214.499V231.437C236.157 233.408 243.375 241.853 243.375 251.625ZM280.5 164.998C280.5 189.365 272.98 212.684 258.749 232.422L252.054 227.596C265.266 209.268 272.25 187.624 272.25 164.998C272.25 105.865 224.14 57.7501 165.004 57.7501C105.864 57.7501 57.75 105.865 57.75 164.998C57.75 187.624 64.7336 209.268 77.946 227.596L71.2512 232.422C57.0199 212.684 49.5 189.365 49.5 164.998C49.5 101.315 101.314 49.5 164.996 49.5C228.682 49.5 280.5 101.315 280.5 164.998Z" fill="white"/>
</g>
<defs>
<linearGradient id="paint0_linear_1_11" x1="0" y1="330" x2="330" y2="0" gradientUnits="userSpaceOnUse">
<stop stop-color="#BD0816"/>
<stop offset="1" stop-color="#FF5252"/>
</linearGradient>
<clipPath id="clip0_1_11">
<rect width="330" height="330" fill="white"/>
</clipPath>
</defs>
</svg>
