<svg width="400" height="318" viewBox="0 0 400 318" fill="none" xmlns="http://www.w3.org/2000/svg">
<g clip-path="url(#clip0_199_15)">
<path d="M292.135 97.8229C349.963 97.8229 400 148.097 400 206.246C400 269.24 352.06 318 288.539 318C231.011 318 180.974 277.417 180.974 212V0H214.232V129.623L218.127 125.383C232.809 111.149 253.483 97.8229 292.135 97.8229ZM288.839 287.411C336.18 287.411 366.142 253.794 366.142 209.274C366.142 168.389 337.678 129.32 289.738 129.32C241.498 129.32 211.835 165.663 211.835 210.183C211.536 254.4 246.891 287.411 288.839 287.411ZM114.457 25.7429C139.326 52.0914 142.022 66.6286 150.712 92.3714L165.393 140.829C165.393 140.829 150.712 138.103 138.727 136.286C124.944 134.166 118.652 132.046 100.974 124.777C83.2959 117.509 67.4157 99.9429 51.8352 80.2571C36.5543 60.8743 0 29.9829 0 29.9829C0 29.9829 11.3858 30.5886 22.7715 33.6171C32.0599 36.04 56.6292 43.9143 81.7978 56.9371C87.4906 59.9657 90.4869 61.7829 95.8801 65.1143C104.27 70.2629 112.959 78.1371 121.348 86.6171C131.236 96.6114 139.925 104.789 147.416 113.874C139.326 99.0343 118.352 45.4286 77.603 1.21143C73.7079 -3.33143 105.768 16.6571 114.457 25.7429Z" fill="#73C41D"/>
</g>
<defs>
<clipPath id="clip0_199_15">
<rect width="400" height="318" fill="white"/>
</clipPath>
</defs>
</svg>
