<svg width="400" height="400" viewBox="0 0 400 400" fill="none" xmlns="http://www.w3.org/2000/svg">
<path d="M192.618 252.025L180.451 279.801C175.774 290.478 160.95 290.478 156.273 279.801L144.106 252.025C133.277 227.305 113.788 207.629 89.4766 196.873L55.9859 182.056C45.338 177.345 45.338 161.906 55.9859 157.195L88.4306 142.84C113.367 131.807 133.206 111.402 143.849 85.8398L156.174 56.2388C160.748 45.2538 175.975 45.2537 180.549 56.2387L192.874 85.8401C203.518 111.402 223.357 131.807 248.293 142.84L280.738 157.195C291.386 161.906 291.386 177.345 280.738 182.056L247.247 196.873C222.936 207.629 203.446 227.305 192.618 252.025Z" fill="url(#paint0_radial_339_23)"/>
<path d="M305.693 339.609L302.27 347.426C299.766 353.148 291.816 353.148 289.312 347.426L285.89 339.609C279.79 325.672 268.804 314.575 255.094 308.504L244.552 303.835C238.852 301.311 238.852 293.052 244.552 290.527L254.505 286.12C268.567 279.893 279.75 268.385 285.745 253.974L289.259 245.527C291.708 239.64 299.874 239.64 302.323 245.527L305.837 253.974C311.832 268.385 323.016 279.893 337.078 286.12L347.03 290.527C352.732 293.052 352.732 301.311 347.03 303.835L336.488 308.504C322.779 314.575 311.792 325.672 305.693 339.609Z" fill="url(#paint1_radial_339_23)"/>
<defs>
<radialGradient id="paint0_radial_339_23" cx="0" cy="0" r="1" gradientUnits="userSpaceOnUse" gradientTransform="translate(236.492 181.142) rotate(78.8223) scale(187.349 188.01)">
<stop stop-color="#1BA1E3"/>
<stop offset="0.0001" stop-color="#1BA1E3"/>
<stop offset="0.300221" stop-color="#5489D6"/>
<stop offset="0.545524" stop-color="#9B72CB"/>
<stop offset="0.825372" stop-color="#D96570"/>
<stop offset="1" stop-color="#F49C46"/>
</radialGradient>
<radialGradient id="paint1_radial_339_23" cx="0" cy="0" r="1" gradientUnits="userSpaceOnUse" gradientTransform="translate(236.492 181.142) rotate(78.8223) scale(187.349 188.011)">
<stop stop-color="#1BA1E3"/>
<stop offset="0.0001" stop-color="#1BA1E3"/>
<stop offset="0.300221" stop-color="#5489D6"/>
<stop offset="0.545524" stop-color="#9B72CB"/>
<stop offset="0.825372" stop-color="#D96570"/>
<stop offset="1" stop-color="#F49C46"/>
</radialGradient>
</defs>
</svg>
