<svg width="400" height="400" viewBox="0 0 400 400" fill="none" xmlns="http://www.w3.org/2000/svg">
<path fill-rule="evenodd" clip-rule="evenodd" d="M368.477 127.7L393.237 171.7C397.678 180.713 400 190.751 400 200.943C400 211.135 397.678 221.173 393.237 230.186L318.143 367.986C308.396 387.714 289.596 400 269.156 400H130.489C110.049 400 91.2487 387.714 81.4887 367.986L55.5686 320.986L157.876 219.286L231.996 265.329C239.743 271.014 250.129 269.5 256.263 261.786L368.477 127.7ZM145.302 138.914L33.1685 274.114L6.76835 230.8C2.32363 221.804 0 211.779 0 201.6C0 191.421 2.32363 181.396 6.76835 172.4L85.9687 31.9714C90.6565 22.371 97.6982 14.3213 106.337 8.68803C114.975 3.05478 124.883 0.0510975 134.996 0L268.463 0C288.93 0 307.743 12.2714 317.503 31.9714L344.437 80.5714L244.156 180.429L170.289 134.471C166.394 131.617 161.621 130.484 156.966 131.309C152.31 132.134 148.132 134.854 145.302 138.9V138.914Z" fill="#5386FF"/>
</svg>
