<svg width="400" height="394" viewBox="0 0 400 394" fill="none" xmlns="http://www.w3.org/2000/svg">
<path d="M191.397 37.4449C120.365 37.4449 66.9173 86.8621 32.4443 183.719C28.9634 191.898 19.6863 195.968 11.2688 193.011C2.85122 190.054 -1.79934 181.09 0.65358 172.552C40.3919 60.6709 104.57 3.94006 191.397 3.94006C199.244 3.94006 199.244 37.4449 191.397 37.4449Z" fill="#1D2D35"/>
<path d="M116.439 394L3.95996 117.912L55.0009 96.8223L288.466 0L400 275.129L116.439 394Z" fill="#FFE200"/>
<path d="M87.9706 378.24L27.7227 80.2444L78.4074 69.497L331.831 15.76L392.079 313.756L87.9706 378.24Z" fill="#FFE200"/>
<path d="M191.397 319.123C132.161 319.9 75.5036 295.052 36.12 251.025C31.9135 246.378 30.6504 239.789 32.8416 233.927C43.4716 205.463 72.58 139.244 108.94 139.046C127.419 139.046 141.228 153.674 152.355 165.337C156.044 169.406 159.993 173.235 164.177 176.801C179.789 157.152 192.81 135.596 202.922 112.658C207.114 104.735 216.815 101.474 224.979 105.244C233.142 109.015 236.899 118.492 233.52 126.791C193.782 211.492 172.522 211.492 165.568 211.492C150.07 211.492 138.844 199.632 128.015 188.266C123.147 183.126 113.014 172.452 109.139 172.452C100.496 173.935 81.7196 203.486 68.2087 235.904C100.764 268.423 145.274 286.279 191.397 285.321C258.059 285.321 307.831 267.234 329.29 235.904C321.938 152.191 275.245 37.4448 191.397 37.4448C183.552 37.4448 183.552 3.93994 191.397 3.93994C304.751 3.93994 357.305 148.04 363.366 238.968C363.62 242.404 362.86 245.839 361.179 248.851C334.754 294.019 274.451 319.123 191.397 319.123Z" fill="#1D2D35"/>
</svg>
