<svg width="400" height="400" viewBox="0 0 400 400" fill="none" xmlns="http://www.w3.org/2000/svg">
<g clip-path="url(#clip0_747_25)">
<mask id="mask0_747_25" style="mask-type:luminance" maskUnits="userSpaceOnUse" x="61" y="61" width="278" height="278">
<path d="M130.781 61C110.472 61.064 92.8245 67.2112 80.0204 80.0231C67.1959 92.8502 61.0487 110.518 61 130.855V131.339C61.0948 172.449 85.9781 224.357 130.855 269.232C162.196 300.582 198.551 323.386 233.224 333.442C246.048 337.161 258.153 339 269.3 339C290.065 339 307.508 332.604 320.053 320.061C339.332 300.782 344.094 269.941 333.441 233.224C323.388 198.554 300.584 162.201 269.231 130.853C224.354 85.9705 172.449 61.0922 131.337 61H130.781ZM238.741 314.442C207.214 305.3 173.862 284.274 144.84 255.244C87.3612 197.77 64.0838 123.937 94.0053 94.0105C102.893 85.1252 115.651 80.9323 130.709 80.9323C166.35 80.9323 214.844 104.435 255.246 144.84C284.279 173.868 305.295 207.214 314.444 238.739C322.991 268.212 320.017 292.125 306.068 306.074C297.331 314.8 284.701 319.232 269.254 319.232C260.015 319.232 249.762 317.644 238.741 314.442Z" fill="white"/>
</mask>
<g mask="url(#mask0_747_25)">
<path fill-rule="evenodd" clip-rule="evenodd" d="M130.781 61C110.472 61.064 92.8245 67.2112 80.0204 80.0231C67.1959 92.8502 61.0487 110.518 61 130.855V131.339C61.0948 172.449 85.9781 224.357 130.855 269.232C162.196 300.582 198.551 323.386 233.224 333.442C246.048 337.161 258.153 339 269.3 339C290.065 339 307.508 332.604 320.053 320.061C339.332 300.782 344.094 269.941 333.441 233.224C323.388 198.554 300.584 162.201 269.231 130.853C224.354 85.9705 172.449 61.0922 131.337 61H130.781ZM238.741 314.442C207.214 305.3 173.862 284.274 144.84 255.244C87.3612 197.77 64.0838 123.937 94.0053 94.0105C102.893 85.1252 115.651 80.9323 130.709 80.9323C166.35 80.9323 214.844 104.435 255.246 144.84C284.279 173.868 305.295 207.214 314.444 238.739C322.991 268.212 320.017 292.125 306.068 306.074C297.331 314.8 284.701 319.232 269.254 319.232C260.015 319.232 249.762 317.644 238.741 314.442Z" fill="url(#paint0_linear_747_25)"/>
</g>
<mask id="mask1_747_25" style="mask-type:luminance" maskUnits="userSpaceOnUse" x="61" y="61" width="278" height="278">
<path d="M233.179 66.5706C198.535 76.6351 162.2 99.4483 130.859 130.79C63.568 198.104 41.2281 281.217 80.0007 319.999C92.8608 332.863 110.598 339 131.024 339C172.156 339 224.179 314.092 269.14 269.117C336.427 201.806 358.769 118.701 320.007 79.9165C307.467 67.3833 290.045 61 269.292 61C258.136 61 246.016 62.8458 233.179 66.5706ZM94.1038 305.887C80.2057 291.992 77.2611 268.133 85.808 238.714C94.9495 207.228 115.959 173.915 144.97 144.898C173.966 115.886 207.272 94.8749 238.743 85.7255C249.779 82.5236 260.027 80.9342 269.261 80.9342C284.648 80.9342 297.219 85.341 305.896 94.0289C319.792 107.923 322.736 131.785 314.192 161.197C305.05 192.677 284.041 225.993 255.032 255.013C214.663 295.402 166.218 318.92 130.649 318.92C115.66 318.92 102.953 314.741 94.1038 305.887Z" fill="white"/>
</mask>
<g mask="url(#mask1_747_25)">
<path fill-rule="evenodd" clip-rule="evenodd" d="M233.179 66.5706C198.535 76.6351 162.2 99.4483 130.859 130.79C63.568 198.104 41.2281 281.217 80.0007 319.999C92.8608 332.863 110.598 339 131.024 339C172.156 339 224.179 314.092 269.14 269.117C336.427 201.806 358.769 118.701 320.007 79.9165C307.467 67.3833 290.045 61 269.292 61C258.136 61 246.016 62.8458 233.179 66.5706ZM94.1038 305.887C80.2057 291.992 77.2611 268.133 85.808 238.714C94.9495 207.228 115.959 173.915 144.97 144.898C173.966 115.886 207.272 94.8749 238.743 85.7255C249.779 82.5236 260.027 80.9342 269.261 80.9342C284.648 80.9342 297.219 85.341 305.896 94.0289C319.792 107.923 322.736 131.785 314.192 161.197C305.05 192.677 284.041 225.993 255.032 255.013C214.663 295.402 166.218 318.92 130.649 318.92C115.66 318.92 102.953 314.741 94.1038 305.887Z" fill="url(#paint1_linear_747_25)"/>
</g>
</g>
<defs>
<linearGradient id="paint0_linear_747_25" x1="61" y1="13960.9" x2="27861.1" y2="13960.9" gradientUnits="userSpaceOnUse">
<stop stop-color="#933AFB"/>
<stop offset="1" stop-color="#FB3A41"/>
</linearGradient>
<linearGradient id="paint1_linear_747_25" x1="61.0175" y1="13961.1" x2="27861" y2="13961.1" gradientUnits="userSpaceOnUse">
<stop stop-color="#933AFB"/>
<stop offset="1" stop-color="#FB3A41"/>
</linearGradient>
<clipPath id="clip0_747_25">
<rect width="278" height="278" fill="white" transform="translate(61 61)"/>
</clipPath>
</defs>
</svg>
