<svg width="400" height="400" viewBox="0 0 400 400" fill="none" xmlns="http://www.w3.org/2000/svg">
<path d="M210.747 227.717H261.204C275.552 227.717 284.639 219.821 284.639 207.139C284.639 195.175 275.552 186.561 261.204 186.561H210.747C209.073 186.561 207.639 187.996 207.639 189.432V224.846C207.878 226.52 209.073 227.717 210.747 227.717Z" fill="#34313F"/>
<path d="M210.747 309.311H262.878C278.9 309.311 288.465 301.175 288.465 286.819C288.465 274.376 279.379 264.326 262.878 264.326H210.747C209.073 264.326 207.639 265.762 207.639 267.198V306.2C207.878 308.115 209.073 309.311 210.747 309.311Z" fill="#34313F"/>
<path d="M395.357 0.879173L246.139 149.712H270.53C308.552 149.712 331.031 173.64 331.031 199.722C331.031 220.3 317.161 235.375 302.335 242.075C299.943 243.032 299.943 246.382 302.574 247.339C319.791 254.039 331.987 271.985 331.987 293.041C331.987 322.712 312.139 346.401 273.639 346.401H167.942C166.268 346.401 164.833 344.965 164.833 343.53V230.828L1.02756 394.018C-1.12463 396.172 0.310166 400 3.41889 400H397.27C398.705 400 399.901 398.804 399.901 397.368V3.03269C400.618 0.400596 397.27 -1.03508 395.357 0.879173Z" fill="#34313F"/>
</svg>
