<svg width="400" height="400" viewBox="0 0 400 400" fill="none" xmlns="http://www.w3.org/2000/svg">
<path d="M200.029 18.3855L266.239 33.3095L275.658 21.8888C298.617 -5.92742 337.159 -7.43384 361.76 18.5256L365.292 22.2391C389.706 48.0584 391.194 91.3242 368.607 119.175L356.493 131.892L358.011 137.883C367.089 138.864 376.074 140.756 384.873 143.558C394.323 146.922 400.551 157.116 399.962 168.327L395.748 203.29L389.365 207.143L383.696 228.549C378.243 249.989 372.852 264.562 361.574 275.808L344.286 346.4L249.571 400H150.363L55.7419 346.47L38.4534 275.878C27.1756 264.562 21.7537 250.059 16.3316 228.619L10.6617 207.213L4.27929 203.36L0.0346297 168.432C-0.523063 157.221 5.7045 147.062 15.1542 143.664C23.9535 140.896 32.9385 139.039 42.0164 138.093L43.5347 132.103L31.4203 119.386C8.70984 91.4643 10.197 48.0935 34.7354 22.2391L38.2676 18.5256C62.868 -7.39881 101.411 -5.89239 124.369 21.8888L133.788 33.3095L199.998 18.3855H200.029Z" fill="white"/>
<path d="M204.054 313.998C213.969 313.017 238.259 308.743 236.091 291.997C235.316 286.637 231.753 274.831 199.965 282.538C168.114 274.866 164.582 286.637 163.839 291.997C161.701 308.708 185.805 312.982 195.689 313.998V329.447H163.839L166.782 341.463H232.93L235.874 329.447H204.024V313.998H204.054Z" fill="#1B1D3F"/>
<path d="M200.039 37.6779L127.911 53.9333L112.172 34.8753C95.5032 14.6613 67.5257 13.5402 49.6485 32.388L46.1165 36.0314C28.2083 54.8441 27.186 86.4789 43.7928 106.727C43.8237 106.763 43.8547 106.833 43.9167 106.868L62.2895 126.066L54.9466 155.599C31.2757 157.595 20.2148 161.589 20.0289 161.729C17.8291 162.605 16.4349 165.092 16.6827 167.72L19.5642 191.402L20.8344 192.173C24.8622 194.59 25.8847 198.164 31.3377 219.779L32.2981 223.598C38.2158 247 43.2041 257.264 53.0257 265.252L69.7564 333.636L153.844 381.666H246.111L330.199 333.636L346.991 265.252C356.844 257.264 361.801 247.035 367.719 223.598L368.68 219.779C374.132 198.199 375.155 194.555 379.182 192.173L380.453 191.402L383.365 167.72C383.582 165.092 382.219 162.605 379.988 161.729C379.833 161.729 368.742 157.56 345.071 155.599L337.759 126.066L356.162 106.938C372.893 86.8292 372.056 55.1594 354.241 36.2416C354.179 36.1715 354.117 36.1015 354.055 36.0314L350.523 32.3179C332.677 13.4351 304.669 14.5211 288 34.6651C288 34.6651 287.938 34.7352 287.907 34.7702L272.167 53.8281L200.101 37.6429M200.101 59.3634L304.762 85.3929L324.932 154.723H315.451C300.269 154.863 285.088 156.054 270.029 158.331C261.603 159.592 253.206 161.204 244.84 163.096C238.055 164.777 232.603 166.284 227.769 167.65C217.142 170.628 210.078 172.625 200.194 172.66H199.947C190.032 172.66 182.999 170.663 172.372 167.65C167.569 166.284 162.116 164.742 155.3 163.096C146.904 161.064 138.507 159.452 130.049 158.261C114.992 155.984 99.8411 154.758 84.6592 154.653H75.0855L95.3171 85.3579L199.977 59.3634H200.039H200.101ZM62.8473 254.392C58.4167 250.748 54.8537 245.949 52.437 240.378C49.7105 234.037 47.9754 227.241 47.2319 220.269C44.0407 194.065 47.3868 185.236 49.6795 182.259C51.7553 179.561 54.3579 177.459 57.2703 176.128C62.5684 173.816 68.1453 172.379 73.8462 171.924C80.2596 171.223 86.704 170.873 93.1486 170.943C99.1279 170.943 105.913 171.153 113.163 171.574C113.38 171.574 137.454 174.026 151.335 179.456C158.151 182.119 167.415 186.428 169.336 193.329C171.256 200.231 169.8 217.572 166.33 226.821C161.775 237.541 154.99 246.859 146.594 253.971C141.977 257.509 128.996 265.742 108.268 265.742H107.804C92.0018 265.637 79.3921 263.36 70.2212 258.946C67.6496 257.72 65.171 256.213 62.9092 254.392M317.093 321.411L242.455 364.045H157.624L82.9861 321.411L71.4605 274.255C82.9861 277.338 94.7909 278.88 106.626 278.88C112.11 278.88 117.563 278.564 123.016 277.829C152.884 273.835 167.818 252.64 170.482 248.436C176.4 239.152 183.091 222.652 188.855 207.728C190.899 202.473 198.986 202.227 200.039 202.227C201.093 202.227 209.179 202.473 211.224 207.728C216.987 222.652 223.618 239.152 229.597 248.436C232.292 252.64 247.289 273.835 277.063 277.829C282.516 278.529 287.969 278.88 293.453 278.88C305.289 278.88 317.093 277.373 328.587 274.255L317.093 321.411ZM352.816 220.269C352.073 227.241 350.306 234.037 347.611 240.378C345.194 245.914 341.6 250.748 337.201 254.392C334.908 256.213 332.46 257.72 329.889 258.946C320.718 263.36 308.077 265.637 292.306 265.742H291.811C271.084 265.742 258.194 257.509 253.485 253.971C245.058 246.895 238.303 237.576 233.718 226.891C230.186 217.677 228.698 200.441 230.682 193.399C232.665 186.358 241.897 182.189 248.713 179.526C262.563 174.096 286.636 171.679 286.885 171.644C294.135 171.258 300.889 171.013 306.899 171.013C313.344 170.943 319.788 171.293 326.202 171.994C331.872 172.484 337.448 173.886 342.777 176.198C345.69 177.529 348.293 179.631 350.368 182.329C352.661 185.236 356.008 194.135 352.816 220.304" fill="#1B1D3F"/>
</svg>
