<svg width="400" height="400" viewBox="0 0 400 400" fill="none" xmlns="http://www.w3.org/2000/svg">
<path d="M59.7329 66.0008C58.3306 65.9828 56.9413 66.2707 55.6626 66.8443C54.3839 67.4178 53.2468 68.2632 52.331 69.321C51.4153 70.3788 50.7432 71.6234 50.3619 72.9673C49.9807 74.3113 49.8994 75.7221 50.1239 77.1007L90.914 323.691C91.4223 326.708 92.9819 329.451 95.3191 331.437C97.6563 333.424 100.622 334.526 103.694 334.552H299.381C301.684 334.581 303.921 333.786 305.685 332.31C307.449 330.835 308.622 328.778 308.99 326.514L349.876 77.1964C350.101 75.8178 350.019 74.407 349.638 73.063C349.257 71.719 348.585 70.4745 347.669 69.4167C346.753 68.3589 345.616 67.5135 344.337 66.9399C343.059 66.3664 341.669 66.0785 340.267 66.0965L59.7329 66.0008ZM231.493 244.221H169.035L152.123 156.283H246.628L231.493 244.221Z" fill="#2684FF"/>
<path d="M336.834 156.281H246.654L231.52 244.219H169.061L95.3125 331.44C97.65 333.453 100.63 334.572 103.72 334.597H299.455C301.758 334.627 303.996 333.832 305.759 332.356C307.523 330.881 308.696 328.824 309.064 326.56L336.834 156.281Z" fill="url(#paint0_linear_705_9)"/>
<defs>
<linearGradient id="paint0_linear_705_9" x1="357.686" y1="180.873" x2="209.123" y2="297.355" gradientUnits="userSpaceOnUse">
<stop offset="0.18" stop-color="#0052CC"/>
<stop offset="1" stop-color="#2684FF"/>
</linearGradient>
</defs>
</svg>
