<svg width="400" height="400" viewBox="0 0 400 400" fill="none" xmlns="http://www.w3.org/2000/svg">
<path d="M206.219 227.299C190.919 227.299 182.382 218.119 182.382 206.889C182.382 202.268 182.596 167.996 182.596 167.996C177.578 167.996 175.099 165.365 175.099 162.091C175.114 161.212 175.307 160.345 175.667 159.543C176.027 158.741 176.546 158.021 177.192 157.425C177.839 156.83 178.6 156.373 179.429 156.08C180.258 155.788 181.138 155.668 182.015 155.726C182.015 155.726 182.015 144.281 182.015 139.538C181.99 138.257 182.22 136.983 182.691 135.791C183.162 134.599 183.864 133.512 184.758 132.593C185.651 131.674 186.718 130.941 187.896 130.437C189.075 129.932 190.341 129.666 191.623 129.655C194.223 129.679 196.707 130.733 198.531 132.585C200.355 134.438 201.37 136.938 201.354 139.538C201.354 143.608 200.987 149.239 201.017 155.481H211.024C216.287 155.481 218.459 158.357 218.459 162.06C218.461 162.901 218.29 163.733 217.956 164.505C217.622 165.277 217.133 165.972 216.518 166.546C215.904 167.121 215.177 167.562 214.385 167.843C213.592 168.124 212.75 168.239 211.911 168.18C208.484 168.18 200.895 168.18 200.895 168.18C200.558 179.104 200.222 192.293 200.222 202.819C200.216 203.962 200.451 205.094 200.91 206.141C201.37 207.188 202.044 208.127 202.889 208.897C203.734 209.667 204.731 210.251 205.816 210.612C206.901 210.972 208.05 211.101 209.188 210.989C223.753 210.989 227.945 196.301 227.945 168.608C227.945 166.855 228.642 165.174 229.881 163.935C231.121 162.695 232.802 161.999 234.555 161.999C236.308 161.999 237.989 162.695 239.229 163.935C240.468 165.174 241.165 166.855 241.165 168.608C241.195 204.9 232.015 227.299 206.219 227.299Z" fill="#EE6123"/>
<path d="M268.337 169.312C271.296 167.194 274.678 165.743 278.252 165.059C281.954 165.059 281.312 165.732 281.312 169.404C281.312 208.939 274.152 227.544 248.57 227.544C237.432 227.544 227.15 219.251 227.15 209.184C227.15 205.237 227.823 197.342 227.823 193.394C227.823 155.175 227.242 147.097 227.242 135.866C227.256 133.213 228.295 130.667 230.143 128.762C231.991 126.857 234.504 125.741 237.156 125.646C238.419 125.65 239.668 125.906 240.83 126.4C241.992 126.894 243.043 127.616 243.921 128.523C244.8 129.43 245.488 130.504 245.945 131.681C246.401 132.858 246.618 134.115 246.581 135.377C246.581 146.576 245.357 162.917 245.02 205.084C245.02 208.603 246.703 211.204 251.293 211.204C265.583 210.836 267.787 192.752 268.337 169.312Z" fill="#EE6123"/>
<path d="M314.727 220.598C314.727 220.598 309.341 227.636 295.724 227.299C277.64 226.871 269.286 212.519 268.398 197.74C267.725 186.571 268.031 178.676 268.031 171.424C267.948 170.183 268.118 168.938 268.53 167.765C268.943 166.592 269.589 165.515 270.431 164.599C271.272 163.684 272.291 162.948 273.425 162.438C274.559 161.928 275.784 161.654 277.028 161.632C282.474 161.632 285.657 166.13 285.657 171.515C285.657 178.768 285.198 185.132 285.137 192.935C285.137 202.452 288.197 210.867 296.244 210.836C304.292 210.806 312.218 207.623 312.432 191.283C312.432 183.358 312.248 178.645 312.248 171.393C312.248 168.958 313.215 166.623 314.937 164.902C316.659 163.18 318.994 162.213 321.428 162.213C323.863 162.213 326.198 163.18 327.92 164.902C329.641 166.623 330.608 168.958 330.608 171.393C330.608 178.645 330.027 185.836 330.027 197.036C330.027 197.036 329.69 219.649 330.486 224.576C334.71 222.7 338.188 219.47 340.37 215.396C341.313 213.852 342.798 212.714 344.535 212.205C346.272 211.696 348.136 211.852 349.764 212.642C351.274 213.65 352.342 215.195 352.751 216.964C353.161 218.732 352.88 220.59 351.967 222.158C348.356 230.145 343.675 235.041 331.863 239.111C331.863 252.667 330.945 272.771 305.883 276.29C284.463 279.35 274.671 266.926 274.641 256.339C274.641 239.6 291.318 234.735 315.461 228.799L314.727 220.598ZM317.083 242.263C304.843 244.894 289.543 248.719 289.757 256.247C289.941 263.285 297.193 264.57 303.283 263.315C315.859 260.714 317.328 253.279 317.083 242.263Z" fill="#EE6123"/>
<path d="M143.061 208.97C143.061 204.349 142.541 167.262 142.541 167.262C142.393 166.009 142.513 164.739 142.892 163.536C143.27 162.333 143.899 161.223 144.738 160.28C145.576 159.338 146.604 158.583 147.755 158.066C148.906 157.55 150.153 157.283 151.415 157.283C152.676 157.283 153.923 157.55 155.074 158.066C156.225 158.583 157.253 159.338 158.092 160.28C158.93 161.223 159.559 162.333 159.938 163.536C160.317 164.739 160.436 166.009 160.289 167.262C159.646 184.612 159.371 196.057 159.371 202.115C159.371 205.604 161.298 210.989 166.959 210.989C180.026 210.989 182.749 198.749 182.749 169.557C182.912 167.728 183.765 166.03 185.135 164.808C186.505 163.586 188.289 162.932 190.124 162.978C190.991 162.97 191.852 163.134 192.656 163.462C193.459 163.789 194.19 164.273 194.805 164.885C195.42 165.497 195.907 166.225 196.238 167.027C196.569 167.829 196.737 168.689 196.733 169.557C196.733 213.866 189.022 227.299 163.991 227.299C153.679 227.36 143.061 220.934 143.061 208.97Z" fill="#EE6123"/>
<path d="M148.967 160.652C145.387 160.652 145.142 161.417 142.847 165.151C142.847 181.491 141.164 199.361 120.142 209.062C134.248 183.419 120.509 156.644 98.8747 156.644C91.2825 156.402 83.8625 158.937 78.0055 163.774C78.0055 155.848 78.2809 141.772 78.2809 141.772C78.2809 132.011 74.8537 124.208 62.9809 124.024C59.6672 123.838 56.3827 124.734 53.6229 126.577C50.863 128.421 48.7775 131.112 47.6809 134.245C47.0378 135.391 46.8414 136.734 47.1295 138.017C47.4176 139.299 48.1699 140.43 49.2415 141.191C50.3707 141.661 51.6243 141.741 52.8044 141.42C53.9845 141.098 55.0241 140.393 55.7593 139.416C56.7691 138.131 57.3505 137.855 58.2379 137.947C59.7067 138.131 59.7679 140.487 59.8291 141.986C59.8903 143.486 61.0225 156.95 60.3799 200.126C60.3799 212.03 69.7741 227.36 92.2345 227.36C133.33 227.36 157.994 207.899 157.994 165.487C157.841 162.029 152.578 160.652 148.967 160.652ZM92.0815 210.745C83.6971 210.745 78.3421 207.685 77.9749 200.279C77.8488 198.007 77.8488 195.728 77.9749 193.456C78.8011 182.807 85.5025 175.891 92.9077 174.422C102.088 172.586 108.208 176.779 108.208 188.743C108.238 196.852 105.974 210.439 92.0815 210.745Z" fill="#EE6123"/>
<path d="M151.446 149.422C156.921 149.422 161.36 145.011 161.36 139.569C161.36 134.127 156.921 129.716 151.446 129.716C145.97 129.716 141.531 134.127 141.531 139.569C141.531 145.011 145.97 149.422 151.446 149.422Z" fill="#EE6123"/>
</svg>
