<svg width="400" height="226" viewBox="0 0 400 226" fill="none" xmlns="http://www.w3.org/2000/svg">
<g clip-path="url(#clip0_311_66)">
<path fill-rule="evenodd" clip-rule="evenodd" d="M108.668 79.9692C124.397 55.2831 116.533 22.9477 91.5103 7.64923C82.9312 2.78154 73.2797 0 63.2708 0H0V170.022H71.1349C100.804 170.022 124.754 146.378 124.754 117.52C124.754 103.265 119.035 90.0523 108.668 79.9692ZM40.7507 39.9846H63.2708C70.42 39.9846 76.1394 45.5477 76.1394 52.5015C76.1394 59.4554 70.42 65.0185 63.2708 65.0185H40.7507V39.9846ZM71.1349 130.037H40.7507V105.003H71.1349C78.2842 105.003 84.0036 110.566 84.0036 117.52C84.0036 124.474 78.2842 130.037 71.1349 130.037ZM321.716 0V170.022H280.965V8.34462L321.716 0ZM203.038 48.3292C168.365 48.3292 140.125 75.7969 140.125 109.871C140.125 143.945 168.365 171.412 203.038 171.412C237.712 171.412 265.952 143.945 265.952 109.871C265.594 75.7969 237.712 48.3292 203.038 48.3292ZM203.038 130.037C191.6 130.037 182.663 120.997 182.663 110.218C182.663 99.0923 191.6 90.4 203.038 90.4C214.477 90.4 223.414 99.44 223.414 110.218C223.414 120.997 214.12 130.037 203.038 130.037ZM223.414 206.182C223.414 217.308 214.12 226 203.038 226C191.957 226 182.663 216.96 182.663 206.182C182.663 195.055 191.957 186.363 203.038 186.363C214.12 186.015 223.414 195.055 223.414 206.182ZM399.643 50.4154V90.4H379.267V121.692C379.267 131.08 382.484 138.034 390.706 138.034C393.923 138.034 396.783 137.686 399.643 136.991V166.545C393.566 169.674 386.774 171.412 379.625 171.412H379.267C378.91 171.412 378.91 171.412 378.552 171.412C378.195 171.412 378.195 171.412 377.837 171.412H377.48H376.765C354.245 170.369 338.517 156.462 338.517 131.775V90.4V28.5108L379.267 20.1662V50.7631H399.643V50.4154Z" fill="#34D186"/>
</g>
<defs>
<clipPath id="clip0_311_66">
<rect width="400" height="226" fill="white"/>
</clipPath>
</defs>
</svg>
