<svg width="400" height="69" viewBox="0 0 400 69" fill="none" xmlns="http://www.w3.org/2000/svg">
<mask id="mask0_305_52" style="mask-type:luminance" maskUnits="userSpaceOnUse" x="3" y="2" width="394" height="64">
<path d="M371.279 25.0647C363.623 25.0647 357.437 31.5165 357.437 39.4543C357.437 47.3965 363.623 53.8439 371.279 53.8439C378.936 53.8439 385.124 47.3943 385.124 39.4543C385.126 31.5165 378.936 25.0647 371.279 25.0647ZM385.452 14.6429H396.527V64.2679H385.612V59.3065C381.379 62.7797 376.166 65.0959 370.464 65.0959C356.946 65.0959 346.034 53.5999 346.034 39.4543C346.034 25.3087 356.946 13.8149 370.464 13.8149C376.086 13.8149 381.217 16.1289 385.452 19.5215V14.6429ZM323.232 64.2701V40.2845C323.232 32.6757 328.118 25.0669 335.204 25.0669C337.238 25.0669 338.949 25.3131 340.415 25.8949L345.628 15.6387C342.778 14.4817 339.439 13.8193 336.019 13.8193C331.377 13.8193 325.186 16.7957 322.908 20.6001V14.6429H311.831V64.2679H323.232V64.2701ZM278.441 25.0647C270.786 25.0647 264.596 31.5165 264.596 39.4543C264.596 47.3965 270.786 53.8439 278.441 53.8439C286.095 53.8439 292.285 47.3943 292.285 39.4543C292.285 31.5165 286.095 25.0647 278.441 25.0647ZM278.441 13.8171C292.365 13.8171 303.688 25.3109 303.688 39.4565C303.688 53.6021 292.367 65.0981 278.441 65.0981C264.514 65.0981 253.193 53.6021 253.193 39.4565C253.193 25.3109 264.514 13.8171 278.441 13.8171ZM222.248 25.0647C214.592 25.0647 208.404 31.5165 208.404 39.4543C208.404 47.3965 214.592 53.8439 222.248 53.8439C229.904 53.8439 236.092 47.3943 236.092 39.4543C236.092 31.5165 229.904 25.0647 222.248 25.0647ZM247.491 39.4565C247.491 53.5999 236.579 65.0981 223.061 65.0981C217.359 65.0981 212.149 62.7819 207.913 59.3087V64.2701H197.001V2.23828H208.399V19.2753C212.553 15.9655 217.522 13.8171 223.059 13.8171C236.579 13.8171 247.491 25.3131 247.491 39.4565ZM158.317 64.2701V33.9155C158.317 29.0369 162.226 25.0647 167.111 25.0647C171.917 25.0647 175.826 29.0347 175.826 33.9155V64.2701H187.225V33.9155C187.225 22.8313 178.265 13.8171 167.924 13.8171C161.653 13.8171 156.116 16.5451 152.205 20.4323C148.213 16.5451 142.676 13.8171 136.57 13.8171C126.309 13.8171 117.269 22.8313 117.269 33.9155V64.2701H128.67V33.9155C128.67 29.0369 132.579 25.0647 137.383 25.0647C142.188 25.0647 146.099 29.0347 146.099 33.9155V64.2701H158.317ZM84.6956 25.0647C77.0394 25.0647 70.8513 31.5165 70.8513 39.4543C70.8513 47.3965 77.0416 53.8439 84.6956 53.8439C92.3497 53.8439 98.54 47.3943 98.54 39.4543C98.5421 31.5165 92.3519 25.0647 84.6956 25.0647ZM84.6956 13.8171C98.6221 13.8171 109.941 25.3109 109.941 39.4565C109.941 53.6021 98.6221 65.0981 84.6956 65.0981C70.7692 65.0981 59.4502 53.5999 59.4502 39.4565C59.4502 25.3131 70.7692 13.8171 84.6956 13.8171ZM28.5032 25.0647C20.847 25.0647 14.6589 31.5165 14.6589 39.4543C14.6589 47.3965 20.8492 53.8439 28.5032 53.8439C36.1573 53.8439 42.3475 47.3943 42.3475 39.4543C42.3475 31.5165 36.1594 25.0647 28.5032 25.0647ZM53.7486 39.4565C53.7486 53.5999 42.8362 65.0981 29.3184 65.0981C23.6167 65.0981 18.4059 62.7819 14.1702 59.3087V64.2701H3.25781V2.23828H14.6589V19.2753C18.8124 15.9655 23.7811 13.8171 29.3184 13.8171C42.8362 13.8171 53.7486 25.3131 53.7486 39.4565Z" fill="white"/>
</mask>
<g mask="url(#mask0_305_52)">
<mask id="mask1_305_52" style="mask-type:luminance" maskUnits="userSpaceOnUse" x="-62" y="-3886" width="2954" height="4891">
<path d="M2891.78 -3885.13H-61.7305V1004.38H2891.78V-3885.13Z" fill="white"/>
</mask>
<g mask="url(#mask1_305_52)">
<path d="M407.338 -8.65625H-7.55273V75.9928H407.338V-8.65625Z" fill="#EB7F23"/>
</g>
</g>
</svg>
