<svg width="400" height="223" viewBox="0 0 400 223" fill="none" xmlns="http://www.w3.org/2000/svg">
<g clip-path="url(#clip0_104_16)">
<path d="M396.171 198.182C401.044 205.376 400 214.727 394.082 219.763C387.119 224.798 377.023 223.719 372.15 217.605L337.337 171.206L303.22 216.526C298.346 223.719 288.251 223.719 281.288 218.684C274.326 213.648 273.281 204.297 278.155 197.103L318.19 143.511L278.503 89.5597C273.629 82.3661 275.37 71.9355 281.636 66.9C288.599 61.8645 298.694 63.6629 303.568 70.1371L337.685 116.535L372.498 72.2952C377.372 65.1016 386.423 64.0226 394.43 69.0581C401.393 74.0936 401.393 84.5242 396.519 91.7177L357.528 144.231L396.171 198.182ZM214.795 191.708C188.686 191.708 167.798 171.206 167.798 144.231C167.798 118.334 188.686 96.7532 214.795 96.7532C240.905 96.7532 261.793 118.334 261.793 144.231C260.4 171.206 239.513 191.708 214.795 191.708ZM76.9365 191.708C50.8268 191.708 29.9391 171.206 29.9391 144.231C29.9391 118.334 50.8268 96.7532 76.9365 96.7532C103.046 96.7532 123.934 118.334 123.934 144.231C123.934 171.206 102.698 191.708 76.9365 191.708ZM214.795 66.1806C185.901 66.1806 159.791 82.7258 146.91 107.544C133.681 82.3661 107.92 66.1806 77.9808 66.1806C59.8782 66.1806 43.8642 72.2952 30.9835 81.6468V15.4661C30.9835 7.19355 24.0209 0 16.0139 0C6.96258 0 0 7.19355 0 15.4661V145.31C1.04439 188.471 34.8129 222.64 76.9365 222.64C106.876 222.64 132.985 205.016 145.866 180.198C158.747 205.016 184.856 222.64 213.751 222.64C256.571 222.64 291.732 187.392 291.732 143.152C292.428 101.069 257.615 66.1806 214.795 66.1806Z" fill="#0061D5"/>
</g>
<defs>
<clipPath id="clip0_104_16">
<rect width="400" height="223" fill="white"/>
</clipPath>
</defs>
</svg>
