<svg width="400" height="400" viewBox="0 0 400 400" fill="none" xmlns="http://www.w3.org/2000/svg">
<g clip-path="url(#clip0_314_173)">
<path d="M200 400C310.457 400 400 310.457 400 200C400 89.543 310.457 0 200 0C89.543 0 0 89.543 0 200C0 310.457 89.543 400 200 400Z" fill="#F4B960"/>
<path d="M180.791 361.582C280.639 361.582 361.582 280.639 361.582 180.791C361.582 80.9429 280.639 0 180.791 0C80.9429 0 0 80.9429 0 180.791C0 280.639 80.9429 361.582 180.791 361.582Z" fill="#E66F32"/>
<path d="M203.39 311.864C289.509 311.864 359.322 242.051 359.322 155.932C359.322 69.8132 289.509 0 203.39 0C117.271 0 47.4575 69.8132 47.4575 155.932C47.4575 242.051 117.271 311.864 203.39 311.864Z" fill="#E43C41"/>
<path d="M215.819 311.865C295.074 311.865 359.322 247.617 359.322 168.362C359.322 89.1078 295.074 24.8594 215.819 24.8594C136.565 24.8594 72.3164 89.1078 72.3164 168.362C72.3164 247.617 136.565 311.865 215.819 311.865Z" fill="#BDD041"/>
<path d="M205.65 311.862C279.288 311.862 338.983 252.167 338.983 178.529C338.983 104.891 279.288 45.1953 205.65 45.1953C132.012 45.1953 72.3164 104.891 72.3164 178.529C72.3164 252.167 132.012 311.862 205.65 311.862Z" fill="#6DB54C"/>
<path d="M184.181 271.19C245.962 271.19 296.045 221.106 296.045 159.325C296.045 97.5443 245.962 47.4609 184.181 47.4609C122.4 47.4609 72.3164 97.5443 72.3164 159.325C72.3164 221.106 122.4 271.19 184.181 271.19Z" fill="#AEDAE6"/>
<path d="M204.52 232.766C256.316 232.766 298.305 190.777 298.305 138.981C298.305 87.1844 256.316 45.1953 204.52 45.1953C152.723 45.1953 110.734 87.1844 110.734 138.981C110.734 190.777 152.723 232.766 204.52 232.766Z" fill="#56B8DE"/>
<path d="M215.819 235.026C261.375 235.026 298.305 198.096 298.305 152.541C298.305 106.985 261.375 70.0547 215.819 70.0547C170.263 70.0547 133.333 106.985 133.333 152.541C133.333 198.096 170.263 235.026 215.819 235.026Z" fill="#00B1D5"/>
<path d="M203.39 232.769C242.081 232.769 273.446 201.404 273.446 162.713C273.446 124.022 242.081 92.6562 203.39 92.6562C164.699 92.6562 133.333 124.022 133.333 162.713C133.333 201.404 164.699 232.769 203.39 232.769Z" fill="url(#paint0_radial_314_173)"/>
<path d="M203.39 232.769C242.081 232.769 273.446 201.404 273.446 162.713C273.446 124.022 242.081 92.6562 203.39 92.6562C164.699 92.6562 133.333 124.022 133.333 162.713C133.333 201.404 164.699 232.769 203.39 232.769Z" fill="#221F1F"/>
<path d="M243.726 143.075C248.617 132.177 246.847 120.768 239.772 117.593C232.697 114.418 222.997 120.68 218.106 131.579C213.216 142.477 214.986 153.886 222.06 157.061C229.135 160.236 238.835 153.974 243.726 143.075Z" fill="white"/>
</g>
<defs>
<radialGradient id="paint0_radial_314_173" cx="0" cy="0" r="1" gradientUnits="userSpaceOnUse" gradientTransform="translate(7120.15 7090.77) scale(6994.35)">
<stop stop-color="#797979"/>
<stop offset="1" stop-color="#4C4C4C"/>
</radialGradient>
<clipPath id="clip0_314_173">
<rect width="400" height="400" fill="white"/>
</clipPath>
</defs>
</svg>
