<svg width="400" height="350" viewBox="0 0 400 350" fill="none" xmlns="http://www.w3.org/2000/svg">
<g clip-path="url(#clip0_256_130)">
<path d="M100 350L0 175L100 0H300L400 175L300 350H100Z" fill="#FF6900"/>
<path d="M218.285 124.175C254.285 124.175 283.999 158.251 283.999 199.835C283.999 241.419 254.856 275.495 218.285 275.495C199.999 275.495 182.285 266.832 170.856 252.393V272.608H134.856V114.934C134.856 109.736 130.856 105.693 125.713 105.693H116.57V73.9277H143.999C158.856 73.9277 171.427 86.0564 171.427 101.651V148.433C182.285 133.416 199.427 124.753 218.285 124.175ZM247.427 199.835C247.427 178.466 230.285 161.139 209.142 161.139C187.999 161.139 170.856 178.466 170.856 199.835C170.856 221.205 187.999 238.532 209.142 238.532C230.285 238.532 247.427 221.205 247.427 199.835Z" fill="white"/>
</g>
<defs>
<clipPath id="clip0_256_130">
<rect width="400" height="350" fill="white"/>
</clipPath>
</defs>
</svg>
