<svg width="400" height="387" viewBox="0 0 400 387" fill="none" xmlns="http://www.w3.org/2000/svg">
<g clip-path="url(#clip0_104_19)">
<path fill-rule="evenodd" clip-rule="evenodd" d="M279.862 337.899C283.084 342.123 287.226 345.819 290.909 350.57C295.052 356.906 301.956 374.857 302.416 376.441C302.416 380.665 299.655 380.137 296.893 382.248C295.512 382.776 294.591 384.36 293.671 381.721C293.21 381.193 292.29 381.193 291.369 381.193C290.449 381.72 290.449 382.776 290.909 384.36C290.909 385.416 290.449 385.944 289.988 386.472C287.687 387.528 285.385 387.528 282.624 386.472C280.322 385.944 278.941 385.944 278.481 381.721V381.193C274.798 369.577 282.623 376.441 267.434 345.819L266.973 344.235C265.592 338.955 263.291 334.203 259.148 331.036C256.386 329.452 254.545 326.284 253.164 323.116C250.403 315.725 245.8 310.973 239.816 308.333C236.133 306.749 231.991 305.165 227.848 303.053C219.102 298.83 208.515 290.91 200.69 277.711C200.23 277.183 199.77 276.655 199.77 276.127C199.309 274.543 193.786 267.152 194.706 267.68C206.214 273.487 233.371 278.767 248.561 280.879C250.863 281.407 252.704 282.991 253.625 285.103C253.625 285.63 255.006 287.742 255.006 288.27C259.609 296.718 260.069 298.302 261.91 300.942C265.132 305.693 269.275 309.917 269.735 316.253C270.195 326.284 275.259 332.092 279.862 337.899ZM399.079 223.858C398.619 223.33 398.159 222.802 398.159 222.274C398.159 219.107 396.778 220.163 395.857 220.69C392.175 223.33 387.572 224.386 386.191 231.25C385.731 232.834 384.81 233.362 383.889 233.89C374.683 240.225 364.096 232.834 361.795 216.995C360.414 209.075 358.573 201.156 355.811 193.764C353.97 190.068 349.827 184.789 347.526 180.565C347.065 180.037 347.065 178.981 347.065 178.453C347.065 174.229 345.224 164.198 335.098 157.862C322.67 147.303 295.972 136.744 281.703 131.992C276.179 130.408 274.798 134.104 274.798 136.744C274.798 137.272 274.798 137.8 274.798 138.328C275.259 139.384 275.719 142.023 275.719 142.023C278.941 156.806 283.544 177.397 280.782 176.869C278.021 175.813 271.576 133.048 255.926 120.905L255.466 120.377C245.339 109.289 224.165 104.538 216.801 102.954C215.88 102.954 214.96 101.898 214.499 101.37C210.357 95.0343 203.912 92.9224 193.325 91.3385C189.643 90.8106 185.961 90.2826 182.278 89.7546C179.516 89.2267 178.136 86.5868 179.056 83.419C179.516 82.3631 179.516 79.7232 178.596 79.7232C177.675 79.1953 175.374 80.7792 173.533 80.7792C172.152 80.7792 170.771 79.7232 170.771 79.7232C170.31 79.1953 171.691 80.7792 170.771 80.2512C164.787 73.9156 179.516 68.108 176.294 67.58C175.374 67.58 173.993 67.58 173.072 67.58C168.93 67.58 164.787 67.58 161.105 68.6359C160.184 68.6359 159.724 67.58 159.724 67.052C159.724 66.5241 160.184 65.9961 160.184 65.9961C179.516 53.8528 186.881 40.1257 186.881 40.1257C186.881 40.1257 192.865 29.0384 179.056 22.1748C176.294 20.5909 173.072 19.535 168.93 18.479C156.962 15.8392 146.375 11.0875 138.55 6.86376C135.788 5.80782 133.487 4.22392 130.725 2.64002C130.725 2.64002 130.264 2.11205 129.804 2.11205C128.423 1.58408 127.503 2.11205 126.582 3.69595C125.661 6.86376 129.344 8.44766 131.185 10.0316C139.47 17.4231 148.676 21.6468 156.962 27.9824C162.025 31.6782 162.485 33.7901 157.422 37.4859C150.518 43.2935 142.232 46.4613 134.407 50.1571C133.947 50.1571 133.487 50.685 133.026 50.685C128.884 47.5172 124.741 46.9893 120.598 47.5172C113.694 48.0452 106.789 52.2689 103.567 59.6605C102.647 61.2444 101.266 62.3003 99.8847 61.7723C99.4244 61.7723 99.4244 61.7723 98.9641 61.7723C98.5038 61.7723 98.0435 61.7723 97.5832 61.7723C80.0918 63.3563 76.8697 71.2758 75.9492 74.9715C75.9492 76.0275 75.0286 77.0834 74.5683 77.0834C37.284 93.4504 11.047 80.2512 2.30128 73.9156C1.38068 73.3876 -0.000217723 74.4436 0.460081 76.0275C8.74547 100.314 51.5533 101.898 63.0608 101.898H64.4417C65.3623 101.898 66.2829 102.954 65.8226 104.01C62.6005 114.041 58.9181 120.905 56.6166 124.072C55.696 125.656 54.7754 127.768 53.8548 129.88L53.3945 130.936C52.4739 134.632 52.4739 138.856 53.3945 142.551C53.8548 143.607 53.8548 144.663 53.3945 145.191C53.3945 145.719 53.3945 146.247 53.3945 146.247C53.3945 146.247 53.3945 147.303 53.3945 148.359C55.696 164.198 63.0608 167.366 63.0608 167.366C63.0608 167.366 64.4417 168.422 69.0447 167.894C80.5521 167.366 100.345 164.198 104.948 163.67C105.408 163.67 105.869 163.67 106.329 163.67H106.789C107.249 163.67 107.71 163.67 107.71 164.198C124.281 174.229 149.597 205.379 158.343 223.33C158.803 224.386 159.263 225.442 159.724 226.498C163.866 235.474 168.469 242.337 175.374 248.673C176.294 249.201 178.596 251.313 182.278 253.952C186.881 257.12 190.564 258.704 193.786 260.288C202.071 263.984 208.515 266.096 213.579 267.68C215.88 268.208 217.261 268.736 218.182 268.736C221.864 269.791 225.546 270.319 229.689 270.847C245.8 273.487 253.625 272.431 256.386 278.239C256.386 278.767 257.307 280.879 257.307 281.407C261.45 294.606 263.751 296.19 265.592 302.525C266.513 305.165 267.894 306.749 270.195 307.805C273.878 308.861 277.1 311.501 278.481 315.725C281.703 325.756 288.147 334.203 296.893 336.843C306.099 340.011 310.241 338.955 315.765 329.98C318.067 326.812 318.067 323.644 316.225 319.948C313.003 313.085 307.94 309.917 301.956 309.389C299.194 308.861 296.432 307.277 295.972 304.109C295.512 298.302 292.75 295.134 289.988 291.438C287.226 287.742 287.687 282.991 290.909 280.879C291.829 280.351 301.496 271.375 305.638 269.263C307.019 268.208 315.765 265.04 315.765 258.176C314.384 241.809 316.686 230.194 318.067 230.194C318.527 230.194 317.606 235.474 319.447 246.033C319.447 246.561 319.908 247.089 319.908 247.617C321.749 259.232 333.717 277.711 340.161 285.63C340.621 286.158 340.621 286.686 340.621 286.686C342.002 290.382 343.383 293.55 345.224 296.718C346.145 297.774 347.065 300.414 347.065 301.997C348.907 315.197 354.43 326.812 355.351 340.011C355.811 345.291 356.732 351.098 356.271 353.738C356.271 354.266 355.811 354.794 356.271 355.322C356.732 359.018 357.652 366.937 358.573 367.465C359.954 367.993 365.938 369.577 368.699 365.881C368.699 365.354 369.16 365.354 369.16 364.826C369.62 359.018 371.922 361.658 372.842 363.242C373.302 363.77 373.763 363.77 374.223 363.77C376.525 362.714 377.905 361.658 379.286 359.546C379.286 359.018 379.747 359.018 379.747 358.49C380.667 353.738 380.667 348.459 378.826 344.235C376.985 340.011 374.683 336.315 372.382 333.148C366.858 324.7 363.636 315.197 365.938 303.053C366.858 297.774 365.938 293.022 363.636 288.798C361.795 286.158 361.795 283.519 362.255 279.823C364.096 268.736 365.017 257.12 363.636 245.505C363.636 243.921 362.716 241.809 364.096 240.225C365.477 238.641 366.858 240.225 367.779 240.753C373.763 243.921 379.747 243.393 385.27 239.169C386.651 238.113 388.032 237.057 389.413 237.057C395.857 237.057 399.079 232.306 399.539 229.138C400 228.082 400 225.442 399.079 223.858Z" fill="#EF6A25"/>
</g>
<defs>
<clipPath id="clip0_104_19">
<rect width="400" height="387" fill="white"/>
</clipPath>
</defs>
</svg>
