<svg width="400" height="400" viewBox="0 0 400 400" fill="none" xmlns="http://www.w3.org/2000/svg">
<g clip-path="url(#clip0_317_330)">
<path d="M274.174 259.385C261.241 270.652 245.106 284.674 215.764 284.674H198.267C177.057 284.674 157.772 277.118 143.972 263.402C130.492 250.007 123.067 231.67 123.067 211.764V188.238C123.067 168.332 130.492 149.994 143.972 136.6C157.772 122.884 177.057 115.328 198.267 115.328H215.764C245.106 115.328 261.226 129.35 274.174 140.617C287.601 152.302 299.202 162.389 330.104 162.389C334.818 162.39 339.524 162.02 344.178 161.284C344.178 161.194 344.117 161.112 344.079 161.022C342.226 156.51 340.052 152.132 337.574 147.919L316.912 112.789C307.597 96.9543 294.199 83.8048 278.065 74.662C261.931 65.5191 243.629 60.7049 224.999 60.7031H183.668C165.038 60.7049 146.736 65.5191 130.602 74.662C114.468 83.8048 101.07 96.9543 91.7546 112.789L71.0928 147.919C61.7785 163.754 56.875 181.716 56.875 200.001C56.875 218.285 61.7785 236.248 71.0928 252.083L91.7546 287.213C101.071 303.047 114.469 316.195 130.603 325.337C146.737 334.478 165.038 339.291 183.668 339.291H224.999C243.629 339.291 261.93 334.478 278.064 325.337C294.198 316.195 307.596 303.047 316.912 287.213L337.574 252.083C340.052 247.87 342.226 243.491 344.079 238.98C344.079 238.89 344.147 238.808 344.178 238.718C339.524 237.982 334.818 237.612 330.104 237.613C299.202 237.613 287.601 247.7 274.174 259.385Z" fill="#006BFF"/>
<path d="M215.763 136.637H198.266C165.995 136.637 144.785 159.26 144.785 188.222V211.749C144.785 240.712 165.995 263.335 198.266 263.335H215.763C262.792 263.335 259.125 216.296 330.103 216.296C336.832 216.291 343.547 216.893 350.164 218.096C352.317 206.127 352.317 193.882 350.164 181.913C343.548 183.122 336.832 183.727 330.103 183.72C259.102 183.713 262.792 136.637 215.763 136.637Z" fill="#006BFF"/>
<path d="M390.955 235.29C378.856 226.611 364.909 220.74 350.164 218.117C350.164 218.237 350.126 218.356 350.103 218.468C348.837 225.409 346.851 232.204 344.177 238.747C356.359 240.597 367.919 245.265 377.9 252.366C377.9 252.47 377.839 252.575 377.801 252.687C372.144 270.718 363.595 287.748 352.476 303.138C341.484 318.385 328.138 331.857 312.917 343.068C276.072 370.273 230.082 382.742 184.234 377.959C138.385 373.175 96.0937 351.495 65.899 317.297C35.7043 283.098 19.8559 238.929 21.554 193.707C23.252 148.486 42.37 105.581 75.0475 73.6565C97.2471 51.8848 124.802 36.112 155.039 27.8672C185.277 19.6224 217.173 19.1854 247.633 26.5985C278.094 34.0117 306.086 49.0235 328.896 70.1785C351.706 91.3335 368.56 117.914 377.824 147.343C377.862 147.455 377.893 147.559 377.923 147.664C367.934 154.765 356.367 159.431 344.177 161.275C346.85 167.825 348.839 174.625 350.11 181.569C350.11 181.681 350.11 181.793 350.164 181.898C364.911 179.282 378.86 173.41 390.955 164.725C402.587 156.28 400.335 146.738 398.562 141.093C372.933 59.3732 295.42 0 203.773 0C91.2362 0 0 89.5451 0 199.996C0 310.447 91.2362 400 203.773 400C295.42 400 372.933 340.627 398.524 258.929C400.335 253.284 402.587 243.742 390.955 235.29Z" fill="#006BFF"/>
<path d="M344.177 161.276C339.523 162.013 334.817 162.382 330.103 162.381C299.202 162.381 287.6 152.294 274.173 140.609C261.241 129.342 245.105 115.32 215.763 115.32H198.266C177.057 115.32 157.772 122.876 143.972 136.592C130.491 149.987 123.066 168.325 123.066 188.23V211.757C123.066 231.662 130.491 250 143.972 263.395C157.772 277.111 177.057 284.667 198.266 284.667H215.763C245.105 284.667 261.225 270.645 274.173 259.378C287.6 247.693 299.202 237.606 330.103 237.606C334.817 237.605 339.523 237.974 344.177 238.711C346.852 232.167 348.838 225.372 350.103 218.432C350.103 218.32 350.149 218.2 350.164 218.081C343.548 216.879 336.832 216.276 330.103 216.282C259.103 216.282 262.793 263.32 215.763 263.32H198.266C165.995 263.32 144.786 240.697 144.786 211.735V188.238C144.786 159.275 165.995 136.652 198.266 136.652H215.763C262.793 136.652 259.126 183.691 330.103 183.691C336.833 183.697 343.548 183.092 350.164 181.884C350.164 181.779 350.164 181.667 350.111 181.555C348.838 174.616 346.85 167.821 344.177 161.276Z" fill="#0AE9EF"/>
<path d="M344.177 161.276C339.523 162.013 334.817 162.382 330.103 162.381C299.202 162.381 287.6 152.294 274.173 140.609C261.241 129.342 245.105 115.32 215.763 115.32H198.266C177.057 115.32 157.772 122.876 143.972 136.592C130.491 149.987 123.066 168.325 123.066 188.23V211.757C123.066 231.662 130.491 250 143.972 263.395C157.772 277.111 177.057 284.667 198.266 284.667H215.763C245.105 284.667 261.225 270.645 274.173 259.378C287.6 247.693 299.202 237.606 330.103 237.606C334.817 237.605 339.523 237.974 344.177 238.711C346.852 232.167 348.838 225.372 350.103 218.432C350.103 218.32 350.149 218.2 350.164 218.081C343.548 216.879 336.832 216.276 330.103 216.282C259.103 216.282 262.793 263.32 215.763 263.32H198.266C165.995 263.32 144.786 240.697 144.786 211.735V188.238C144.786 159.275 165.995 136.652 198.266 136.652H215.763C262.793 136.652 259.126 183.691 330.103 183.691C336.833 183.697 343.548 183.092 350.164 181.884C350.164 181.779 350.164 181.667 350.111 181.555C348.838 174.616 346.85 167.821 344.177 161.276Z" fill="#0AE9EF"/>
</g>
<defs>
<clipPath id="clip0_317_330">
<rect width="400" height="400" fill="white"/>
</clipPath>
</defs>
</svg>
