<svg width="400" height="388" viewBox="0 0 400 388" fill="none" xmlns="http://www.w3.org/2000/svg">
<g clip-path="url(#clip0_209_245)">
<path d="M270.94 89.9723C268.376 98.4071 262.393 104.03 256.41 102.156C250.428 100.282 247.863 91.8467 250.428 83.4119C252.992 74.9772 258.975 69.354 264.957 71.2284C270.94 73.1028 273.505 81.5376 270.94 89.9723Z" fill="#7632FF"/>
<path d="M399.145 237.111C395.726 254.918 373.504 270.85 338.461 260.541C331.623 258.667 321.367 254.918 303.418 249.295C287.179 244.609 269.23 242.734 251.282 242.734C207.692 242.734 167.521 253.981 139.316 277.411C117.948 295.217 109.401 308.338 103.418 305.527C100.854 303.652 100.854 298.966 105.128 294.28C186.324 182.754 307.692 224.928 342.735 236.174C352.136 238.986 358.974 238.986 361.538 234.3C366.666 226.802 359.829 219.304 350.427 211.807C338.461 203.372 322.222 195.874 316.239 193.063C258.974 165.884 215.384 164.947 215.384 164.947C215.384 164.947 259.829 157.449 292.307 140.58C301.709 135.894 306.837 131.208 307.692 130.271C314.529 124.647 323.076 116.213 324.786 107.778C324.786 104.966 324.786 103.092 323.076 99.343C320.512 93.7198 317.093 89.0338 314.529 85.285C267.521 24.3672 137.606 32.8019 70.085 39.3623C61.538 40.2995 48.7174 40.2995 41.0251 46.8599C38.461 48.7343 37.6063 53.4203 38.461 55.2947C45.2986 67.4783 135.897 82.4734 180.341 91.8454C191.452 80.599 211.965 68.4155 212.82 67.4783C212.82 68.4155 203.418 85.285 198.29 104.029C198.29 104.966 197.435 106.841 196.581 108.715C194.871 113.401 193.162 116.213 188.034 118.087C181.196 119.961 176.068 120.899 176.068 120.899C163.247 124.647 149.572 129.333 137.606 136.831C105.982 153.7 91.4525 166.821 81.1961 175.256C79.4867 177.13 75.2132 176.193 72.6491 174.319C70.9397 173.382 65.8115 169.633 58.1192 168.696C49.5721 167.758 40.1704 169.633 29.914 181.816C21.367 191.188 13.6747 214.618 25.6405 234.3C31.6234 243.671 35.8969 243.671 32.4781 251.169C29.0593 258.667 20.5123 283.971 17.9482 315.836C13.6747 368.319 22.2217 388 12.82 388C11.1106 388 10.2559 387.063 9.4012 386.126C9.4012 386.126 9.4012 386.126 9.4012 385.188C-0.000505196 337.391 1.7089 292.406 13.6747 251.169C13.6747 250.232 13.6747 249.295 12.82 248.357C10.2559 244.609 5.1277 236.174 2.5636 224.928C-2.56461 208.058 -1.70991 180.879 11.9653 164.01C35.8969 134.019 65.8115 147.14 73.5038 150.889C74.3585 151.826 76.0679 150.889 76.9226 149.952C91.4525 136.831 108.546 124.647 127.35 113.401C128.205 112.464 129.059 112.464 129.914 111.527C119.658 109.652 78.632 100.28 61.538 96.5314C53.8456 94.657 37.6063 91.8454 30.7687 88.0966C2.5636 74.9758 -2.56461 38.4251 23.0764 18.744C35.8969 8.43478 52.1362 6.56039 67.5209 5.62319C94.0166 1.8744 119.658 0 146.153 0C200 0 256.41 2.81159 305.128 30.9275C323.931 42.1739 341.88 60.9179 352.136 82.4734C368.376 117.15 344.444 145.266 318.803 162.135C321.367 163.072 406.837 199.623 399.145 237.111Z" fill="#7632FF"/>
</g>
<defs>
<clipPath id="clip0_209_245">
<rect width="400" height="388" fill="white"/>
</clipPath>
</defs>
</svg>
