<svg width="400" height="400" viewBox="0 0 400 400" fill="none" xmlns="http://www.w3.org/2000/svg">
<path d="M318.582 261.989C315.785 260.075 312.104 260.223 309.307 262.137C306.509 264.051 305.331 267.731 306.362 270.971C307.393 274.21 310.337 276.566 313.724 276.713C317.11 276.86 320.202 274.946 321.527 271.854C322.999 268.32 321.822 264.051 318.582 261.989C322.263 264.492 315.049 259.486 318.582 261.989Z" fill="#FF6C36"/>
<path d="M215.812 336.932C217.579 336.932 219.493 336.932 221.26 336.785C224.941 336.637 228.622 336.343 232.156 335.901C235.1 335.607 226.119 336.637 232.156 335.901C235.836 335.46 238.781 338.846 238.045 342.527C237.603 344.146 236.425 345.471 234.953 346.208C233.922 346.649 232.892 346.649 231.861 346.797C230.683 346.944 229.358 347.091 228.18 347.091C218.463 347.827 208.745 347.68 199.028 346.649C190.194 345.619 181.654 343.999 173.114 341.349C164.869 338.846 156.919 335.607 149.262 331.631C141.459 327.656 134.244 322.945 127.324 317.644C119.374 311.755 112.159 304.982 105.681 297.473C99.2025 290.111 93.4603 282.013 88.6016 273.621C83.5956 264.934 79.473 255.805 76.3811 246.235C73.1419 236.518 71.0806 226.506 69.9027 216.347C68.7249 206.04 68.7249 195.586 69.7555 185.28C70.7861 175.121 72.8474 164.962 76.0866 155.244C79.1785 145.674 83.1539 136.545 88.1599 127.711C93.0186 119.024 98.908 110.926 105.386 103.417C111.865 96.0557 119.079 89.2829 126.883 83.2462C134.833 77.2096 143.373 71.9092 152.207 67.6393C161.336 63.2223 170.906 59.8359 180.771 57.3329C190.783 54.8299 201.089 53.5048 211.395 53.0631C221.702 52.7686 232.156 53.5048 242.315 55.2716C252.179 57.0384 261.897 59.8359 271.32 63.5168C280.596 67.1976 289.43 71.9092 297.675 77.3568C305.92 82.8045 313.576 89.1356 320.644 96.2029C323.588 99.1476 326.239 102.092 328.153 105.92C329.772 109.16 330.656 112.84 330.95 116.374C331.392 123.736 328.889 131.245 323.883 136.692C318.141 143.171 309.454 146.704 300.914 146.116C296.792 145.821 292.669 144.643 288.988 142.582C287.074 141.551 285.307 140.226 283.835 138.754C282.068 137.134 280.449 135.22 278.682 133.601C271.467 126.828 263.222 121.38 254.241 117.257C244.965 113.135 235.1 110.485 225.088 109.601C214.782 108.718 204.328 109.454 194.316 111.957C184.599 114.46 175.323 118.583 166.783 124.03C158.538 129.478 151.176 136.251 145.14 143.907C138.956 151.71 134.097 160.545 130.711 169.968C127.324 179.538 125.558 189.697 125.558 199.856C125.558 210.163 127.177 220.322 130.563 230.039C133.803 239.462 138.661 248.149 144.698 255.953C150.735 263.756 158.096 270.529 166.342 275.977C174.734 281.572 184.01 285.694 193.874 288.197C203.886 290.847 214.34 291.584 224.647 290.7C234.659 289.817 244.523 287.314 253.799 283.191C254.83 282.749 255.713 282.161 256.744 282.013C257.627 281.866 258.511 281.866 259.394 282.161C261.161 282.749 262.486 284.075 262.928 285.841C263.369 287.461 263.075 289.375 261.897 290.7C261.308 291.436 260.425 291.878 259.541 292.32C258.363 292.761 257.333 293.35 256.155 293.792C246.732 297.767 236.867 300.27 226.708 301.154C216.401 302.184 205.948 301.596 195.936 299.534C197.261 301.007 198.439 302.626 199.617 304.246C200.795 305.865 201.972 307.632 203.003 309.252C203.15 309.546 203.592 310.135 203.592 310.135C203.592 310.135 203.739 310.135 204.034 310.135C204.623 310.135 205.064 310.282 205.653 310.282C206.684 310.43 207.715 310.43 208.745 310.577C213.015 310.871 217.285 310.871 221.555 310.724C229.947 310.282 238.339 309.105 246.437 306.749C254.241 304.54 261.897 301.448 269.111 297.62C276.179 293.792 282.804 289.375 288.841 284.075C290.313 282.749 291.786 281.424 293.258 280.099C294.583 278.921 295.614 277.449 297.233 276.713C300.031 275.241 303.417 275.682 305.773 277.596C308.276 279.51 309.307 282.749 308.57 285.841C308.129 287.461 307.393 288.786 306.215 289.817C304.742 291.142 303.417 292.614 301.945 293.939C296.055 299.24 289.724 304.099 282.952 308.221C276.032 312.491 268.817 316.025 261.161 318.822C253.357 321.767 245.407 323.828 237.162 325.153C228.769 326.478 220.23 327.067 211.69 326.773C212.426 328.687 213.015 330.601 213.604 332.515C213.898 333.398 214.046 334.282 214.34 335.165C214.34 335.46 214.635 336.196 214.635 336.196L215.812 336.932Z" fill="#FF6C36"/>
<path d="M297.97 309.841C289.724 316.025 280.743 321.325 271.32 325.448C266.608 327.509 261.75 329.276 256.744 330.895C254.241 331.631 251.738 332.368 249.235 332.956C248.204 333.251 247.026 333.398 245.996 333.987C245.112 334.429 244.523 335.165 244.082 336.048C243.051 337.962 243.345 340.171 244.67 341.791C246.143 343.705 248.351 343.999 250.56 343.557C255.566 342.38 260.572 340.907 265.431 339.14C275.148 335.754 284.571 331.19 293.405 325.742C295.614 324.417 297.822 322.945 299.884 321.472C300.914 320.736 302.092 320 303.123 319.264C304.006 318.527 305.037 317.939 305.773 316.908C306.951 315.288 306.951 312.933 305.92 311.166C304.89 309.399 302.828 308.368 300.914 308.515C299.736 308.81 298.706 309.252 297.97 309.841C300.325 308.074 282.804 321.03 297.97 309.841Z" fill="#FF6C36"/>
<path d="M315.638 293.939C314.313 295.412 312.84 296.884 311.368 298.356C310.19 299.534 308.865 300.565 308.276 302.184C307.393 305.276 309.454 308.516 312.546 308.957C314.46 309.252 316.08 308.516 317.405 307.338C318.877 306.013 320.349 304.54 321.674 303.068C322.852 301.89 324.177 300.712 324.619 298.945C324.914 297.62 324.766 296.001 324.03 294.823C322.263 291.878 317.994 291.436 315.638 293.939C317.699 291.731 313.724 296.001 315.638 293.939Z" fill="#FF6C36"/>
<path d="M282.215 263.02C278.829 266.554 275.295 269.793 271.467 272.738C270.437 273.474 269.259 274.357 268.228 275.093C267.345 275.682 266.608 276.566 266.167 277.596C265.283 279.658 265.872 282.161 267.639 283.633C269.7 285.4 272.351 285.252 274.559 283.633C276.62 282.161 278.682 280.688 280.596 279.216C282.363 277.743 284.129 276.124 285.896 274.504C286.927 273.621 287.81 272.59 288.841 271.56C289.724 270.676 290.608 269.793 291.197 268.615C292.08 266.259 291.197 263.462 288.988 262.137C286.78 260.959 283.982 261.253 282.215 263.02C284.277 260.959 277.062 268.468 282.215 263.02Z" fill="#FF6C36"/>
<path d="M216.401 165.551C209.187 165.551 202.12 167.759 196.23 172.029C190.488 176.151 186.071 181.894 183.715 188.519C181.212 195.292 180.918 202.948 182.979 210.015C184.893 216.788 188.868 222.825 194.316 227.242C199.764 231.806 206.684 234.604 213.751 235.045C220.966 235.634 228.327 233.867 234.511 230.039C240.548 226.359 245.259 221.058 248.204 214.58C251.149 207.954 252.032 200.445 250.56 193.231C249.235 186.311 245.554 179.832 240.548 174.974C235.395 170.115 228.769 166.876 221.849 165.698C219.935 165.698 218.168 165.551 216.401 165.551Z" fill="#FF6C36"/>
</svg>
