<svg width="212" height="400" viewBox="0 0 212 400" fill="none" xmlns="http://www.w3.org/2000/svg">
<g clip-path="url(#clip0_290_7)">
<path fill-rule="evenodd" clip-rule="evenodd" d="M194.811 195.42C199.722 195.42 203.815 193.893 207.089 190.839C210.363 187.786 212 183.969 212 179.389V9.92344C212 6.87 209.544 3.81657 207.089 1.52649C203.815 -0.000224471 200.541 -0.000224531 197.266 0.763134L16.3707 92.3662C5.72973 97.7097 0 106.87 0 116.794V195.42C0 202.29 8.18533 196.183 14.7336 192.366L104.772 138.168C109.683 135.878 115.413 137.404 118.687 141.221C119.506 142.748 120.324 144.275 120.324 145.801V177.862C120.324 182.443 121.961 186.259 125.236 189.313C128.51 192.366 132.602 193.893 137.514 193.893H194.811V195.42Z" fill="#2CA760"/>
<path fill-rule="evenodd" clip-rule="evenodd" d="M17.1892 206.107C12.278 206.107 8.18533 207.634 4.9112 210.688C1.63707 213.741 0 217.558 0 222.138V391.604C0 394.657 2.4556 397.71 4.9112 399.237C8.18533 400.764 11.4595 400.764 14.7336 400.001L195.629 308.398C204.633 303.817 210.363 294.657 211.181 284.733V226.718C211.181 206.107 201.359 209.161 194.811 212.978L106.409 262.596C101.498 264.886 95.7683 263.359 92.4942 259.543C91.6757 258.016 90.8571 256.489 90.8571 254.962V222.901C90.8571 218.321 89.2201 214.504 85.9459 211.451C82.6718 208.398 78.5792 206.871 73.668 206.871L17.1892 206.107Z" fill="#0077FF"/>
</g>
<defs>
<clipPath id="clip0_290_7">
<rect width="212" height="400" fill="white"/>
</clipPath>
</defs>
</svg>
