<svg width="400" height="400" viewBox="0 0 400 400" fill="none" xmlns="http://www.w3.org/2000/svg">
<g clip-path="url(#clip0_291_41)">
<path d="M173.846 331.077V152.308L55.0769 320C52.7566 323.317 49.6723 326.027 46.0842 327.902C42.4961 329.776 38.5097 330.76 34.4615 330.769H0V93.846C0 79.9999 11.3846 68.6152 25.2308 68.6152H56V237.846L164.308 79.9999C166.623 76.5829 169.742 73.7862 173.389 71.855C177.037 69.9238 181.103 68.917 185.231 68.9229H229.846V235.692L336.308 79.9999C338.623 76.5829 341.742 73.7862 345.389 71.855C349.037 69.9238 353.103 68.917 357.231 68.9229H398.769V305.846C398.769 319.692 387.385 331.077 373.538 331.077H343.077V154.769L232 320C229.685 323.417 226.566 326.213 222.918 328.145C219.27 330.076 215.204 331.083 211.077 331.077H173.846Z" fill="#12324B"/>
</g>
<defs>
<clipPath id="clip0_291_41">
<rect width="400" height="400" fill="white"/>
</clipPath>
</defs>
</svg>
