<svg width="400" height="400" viewBox="0 0 400 400" fill="none" xmlns="http://www.w3.org/2000/svg">
<g clip-path="url(#clip0_203_31)">
<path d="M400 0H0V400H400V0Z" fill="#009BB5"/>
<path d="M205.401 265C169.801 265 142.401 236.4 142.401 199.8C142.401 163.2 169.401 135.2 205.401 135.2C230.401 135.2 252.601 147.8 263.601 170.6L324.201 150.4C305.201 104.2 260.601 75 206.001 75C131.001 75 74.8008 128.2 74.8008 199.2C74.8008 270.2 131.401 325 205.001 325C260.601 325 306.601 294.6 324.801 246.6L263.201 226C254.001 250.2 231.201 265 205.401 265Z" fill="white"/>
</g>
<defs>
<clipPath id="clip0_203_31">
<rect width="400" height="400" fill="white"/>
</clipPath>
</defs>
</svg>
