<svg width="400" height="400" viewBox="0 0 400 400" fill="none" xmlns="http://www.w3.org/2000/svg">
<g clip-path="url(#clip0_306_71)">
<path fill-rule="evenodd" clip-rule="evenodd" d="M287.838 81.28C287.838 81.28 305.905 78.3378 319.457 81.28C319.457 81.28 339.419 66.5511 339.8 17.5556L353.733 0C353.733 0 375.571 43.4667 350.724 89.2711C350.724 89.2711 368.79 100.8 371.429 107.804L368.838 115.556C342.815 102.699 314.75 93.822 285.714 89.2622M0 399.884C0.171429 399.884 85.3905 403.84 180.952 364.818C157.116 354.57 134.198 342.555 112.419 328.889C79.1563 357.898 41.2217 381.854 0 399.884ZM314.286 269.502C284.99 263.969 256.658 254.675 230.095 241.884C211.81 266.444 188.476 292.089 159.333 314.373C159.333 314.373 189.829 284.711 217.619 235.573C209.852 231.415 202.271 226.961 194.895 222.222C178.507 252.919 157.804 281.437 133.333 307.022C157.887 322.701 184.101 335.985 211.562 346.667C249.984 326.21 284.661 300.161 314.286 269.502ZM261.133 129.244L291.2 136.142C291.2 136.142 278.914 173.76 249.905 220.053C279.144 234.379 310.708 244.12 343.333 248.889C366.505 219.764 385.551 187.97 400 154.293C352.952 124.382 296.686 106.889 236.21 106.667C230.855 137.41 221.906 167.512 209.524 196.436C217.345 201.832 225.434 206.884 233.762 211.573C245.029 187.173 254.962 159.484 261.133 129.244Z" fill="#FF5722"/>
</g>
<defs>
<clipPath id="clip0_306_71">
<rect width="400" height="400" fill="white"/>
</clipPath>
</defs>
</svg>
