<svg width="400" height="400" viewBox="0 0 400 400" fill="none" xmlns="http://www.w3.org/2000/svg">
<g clip-path="url(#clip0_315_288)">
<path d="M200 0C160.444 0 121.776 11.7298 88.886 33.7061C55.9962 55.6824 30.3617 86.9181 15.2242 123.463C0.0866583 160.009 -3.87401 200.222 3.84303 239.018C11.5601 277.814 30.6082 313.451 58.5787 341.421C86.5492 369.392 122.186 388.44 160.982 396.157C199.778 403.874 239.992 399.913 276.537 384.776C313.082 369.638 344.318 344.004 366.294 311.114C388.27 278.224 400 239.556 400 200C400 146.957 378.929 96.0859 341.421 58.5786C303.914 21.0714 253.043 0 200 0Z" fill="#3C82E9"/>
<path d="M89.0858 225.573C89.0858 229.697 87.4475 233.653 84.5314 236.569C81.6152 239.485 77.66 241.123 73.5358 241.123C69.4117 241.123 65.4565 239.485 62.5403 236.569C59.6241 233.653 57.9858 229.697 57.9858 225.573V174.43C57.9858 172.388 58.3881 170.366 59.1695 168.48C59.951 166.593 61.0964 164.879 62.5403 163.435C63.9843 161.991 65.6985 160.845 67.5851 160.064C69.4717 159.283 71.4938 158.88 73.5358 158.88C75.5779 158.88 77.6 159.283 79.4866 160.064C81.3732 160.845 83.0874 161.991 84.5314 163.435C85.9753 164.879 87.1207 166.593 87.9022 168.48C88.6836 170.366 89.0858 172.388 89.0858 174.43V225.573ZM139.657 277.945C139.657 282.067 138.02 286.02 135.105 288.935C132.19 291.85 128.237 293.487 124.114 293.487C119.992 293.487 116.039 291.85 113.124 288.935C110.209 286.02 108.572 282.067 108.572 277.945V122.059C108.572 117.935 110.21 113.98 113.126 111.063C116.042 108.147 119.997 106.509 124.122 106.509C128.246 106.509 132.201 108.147 135.117 111.063C138.033 113.98 139.672 117.935 139.672 122.059L139.657 277.945ZM190.257 323.516C190.257 327.64 188.619 331.595 185.703 334.512C182.787 337.428 178.831 339.066 174.707 339.066C170.583 339.066 166.628 337.428 163.712 334.512C160.796 331.595 159.157 327.64 159.157 323.516V76.4875C159.157 72.3634 160.796 68.4082 163.712 65.492C166.628 62.5758 170.583 60.9375 174.707 60.9375C178.831 60.9375 182.787 62.5758 185.703 65.492C188.619 68.4082 190.257 72.3634 190.257 76.4875V323.516ZM240.829 276.059C240.829 280.181 239.191 284.135 236.276 287.049C233.361 289.964 229.408 291.602 225.286 291.602C221.164 291.602 217.21 289.964 214.295 287.049C211.381 284.135 209.743 280.181 209.743 276.059V123.945C209.743 119.821 211.381 115.865 214.297 112.949C217.214 110.033 221.169 108.395 225.293 108.395C229.417 108.395 233.372 110.033 236.288 112.949C239.205 115.865 240.843 119.821 240.843 123.945L240.829 276.059ZM291.429 299.688C291.429 303.812 289.79 307.767 286.874 310.683C283.958 313.599 280.003 315.237 275.879 315.237C271.755 315.237 267.799 313.599 264.883 310.683C261.967 307.767 260.329 303.812 260.329 299.688V100.316C260.329 96.192 261.967 92.2367 264.883 89.3206C267.799 86.4044 271.755 84.7661 275.879 84.7661C280.003 84.7661 283.958 86.4044 286.874 89.3206C289.79 92.2367 291.429 96.192 291.429 100.316V299.688ZM342.014 223.516C342.014 227.64 340.376 231.595 337.46 234.512C334.544 237.428 330.589 239.066 326.464 239.066C322.34 239.066 318.385 237.428 315.469 234.512C312.553 231.595 310.914 227.64 310.914 223.516V176.487C310.914 172.363 312.553 168.408 315.469 165.492C318.385 162.576 322.34 160.937 326.464 160.937C330.589 160.937 334.544 162.576 337.46 165.492C340.376 168.408 342.014 172.363 342.014 176.487V223.516Z" fill="white"/>
</g>
<defs>
<clipPath id="clip0_315_288">
<rect width="400" height="400" fill="white"/>
</clipPath>
</defs>
</svg>
