<svg width="400" height="400" viewBox="0 0 400 400" fill="none" xmlns="http://www.w3.org/2000/svg">
<g clip-path="url(#clip0_222_6)">
<path fill-rule="evenodd" clip-rule="evenodd" d="M131.9 366.911L167.742 384.558L178.495 389.705L123.298 142.646H82.4375L131.9 366.911Z" fill="#7F96FF"/>
<path fill-rule="evenodd" clip-rule="evenodd" d="M39.4265 321.323L86.0215 344.117L40.8602 142.646H0L39.4265 321.323Z" fill="#7F96FF"/>
<path fill-rule="evenodd" clip-rule="evenodd" d="M231.542 258.823L205.735 142.646H164.875L211.47 350.735L231.542 258.823Z" fill="#7F96FF"/>
<path fill-rule="evenodd" clip-rule="evenodd" d="M280.287 361.029L240.144 380.882L316.846 36.0293L344.803 72.0587L280.287 361.029Z" fill="#002DFF"/>
<path fill-rule="evenodd" clip-rule="evenodd" d="M360.573 321.324L320.43 341.177L372.759 107.354L400.716 143.383L360.573 321.324Z" fill="#002DFF"/>
<path fill-rule="evenodd" clip-rule="evenodd" d="M111.111 0L83.1541 36.0294H245.161L237.276 72.0588H55.1971L27.2401 108.088H229.391L221.505 144.118H0L7.8853 180.147H213.62L167.742 386.029L200 402.206L288.889 0H111.111Z" fill="#002DFF"/>
</g>
<defs>
<clipPath id="clip0_222_6">
<rect width="400" height="400" fill="white"/>
</clipPath>
</defs>
</svg>
