<svg width="400" height="400" viewBox="0 0 400 400" fill="none" xmlns="http://www.w3.org/2000/svg">
<g clip-path="url(#clip0_317_341)">
<path fill-rule="evenodd" clip-rule="evenodd" d="M196.733 0C102.359 0 22.5045 64.2857 0 150.714C0 151.429 0 152.143 0 152.857C0 157.857 4.35572 162.143 9.43739 162.143H91.4701C95.0998 162.143 98.7296 160 100.181 156.429C116.878 120.714 153.902 95 196.733 95C255.535 95 302.722 142.143 302.722 200C302.722 257.857 254.809 305 196.733 305C153.902 305 116.878 280 100.181 243.571C98.7296 240 95.0998 237.857 91.4701 237.857H9.43739C4.35572 237.857 0 242.143 0 247.143C0 247.857 0 248.571 0 249.286C22.5045 335.714 102.359 400 196.733 400C308.53 400 399.274 310.714 399.274 200C400 89.2857 308.53 0 196.733 0ZM148.82 200C148.82 173.571 170.599 152.143 197.459 152.143C224.319 152.143 246.098 173.571 246.098 200C246.098 226.429 224.319 247.857 197.459 247.857C169.873 247.857 148.82 226.429 148.82 200Z" fill="black"/>
</g>
<defs>
<clipPath id="clip0_317_341">
<rect width="400" height="400" fill="white"/>
</clipPath>
</defs>
</svg>
