<svg width="400" height="213" viewBox="0 0 400 213" fill="none" xmlns="http://www.w3.org/2000/svg">
<g clip-path="url(#clip0_277_38)">
<path d="M130.737 141.562H113.219V211.689H130.737V141.562Z" fill="#00BCEB"/>
<path d="M272.18 161.552C271.531 161.224 265.692 157.947 257.257 157.947C245.903 157.947 238.117 165.812 238.117 176.626C238.117 187.112 245.578 195.304 257.257 195.304C265.367 195.304 271.207 192.027 272.18 191.7V210.706C269.909 211.033 264.07 213 256.284 213C236.495 213 219.301 199.237 219.301 176.626C219.301 155.653 234.873 140.252 256.284 140.252C264.394 140.252 270.558 142.218 272.18 142.873V161.552Z" fill="#00BCEB"/>
<path d="M88.887 161.552C88.2381 161.225 82.3987 157.948 74.2884 157.948C62.934 157.948 55.1481 165.812 55.1481 176.626C55.1481 187.112 62.6096 195.305 74.2884 195.305C82.3987 195.305 88.2381 192.028 88.887 191.7V210.706C86.6161 211.362 80.7767 213.328 72.9908 213.328C53.2016 213.328 36.0078 199.565 36.0078 176.954C36.0078 155.982 51.5796 140.58 72.9908 140.58C81.1011 140.58 87.2649 142.546 88.887 143.202V161.552Z" fill="#00BCEB"/>
<path d="M363.989 176.626C363.989 196.615 348.742 213 327.33 213C305.919 213 290.672 196.615 290.672 176.626C290.672 156.637 305.919 140.252 327.33 140.252C348.742 140.252 363.989 156.637 363.989 176.626ZM327.33 158.275C316.949 158.275 309.163 166.467 309.163 176.626C309.163 186.784 316.949 194.977 327.33 194.977C337.712 194.977 345.498 186.784 345.498 176.626C345.498 166.467 337.712 158.275 327.33 158.275Z" fill="#00BCEB"/>
<path d="M197.244 157.62C196.92 157.62 189.458 155.326 183.619 155.326C176.482 155.326 172.913 157.62 172.913 161.224C172.913 165.484 178.104 167.123 181.024 167.778L185.89 169.417C197.244 173.021 202.435 180.886 202.435 189.406C202.435 207.101 187.187 213 173.562 213C164.154 213 155.395 211.361 154.746 211.033V194.977C156.368 195.304 163.505 197.598 171.291 197.598C180.05 197.598 183.943 194.977 183.943 191.044C183.943 187.44 180.375 185.473 176.157 184.163C175.184 183.835 173.562 183.18 172.265 182.852C162.532 179.575 154.422 174.004 154.422 162.207C154.422 149.1 164.154 140.252 180.375 140.252C188.81 140.252 196.92 142.218 197.569 142.546V157.62H197.244Z" fill="#00BCEB"/>
<path d="M17.5182 66.1934C17.5182 61.278 13.6253 57.3457 8.75912 57.3457C3.89294 57.3457 0 61.278 0 66.1934V84.5442C0 89.4595 3.89294 93.3919 8.75912 93.3919C13.6253 93.3919 17.5182 89.4595 17.5182 84.5442V66.1934Z" fill="#00BCEB"/>
<path d="M65.2057 41.9453C65.2057 37.03 61.3128 33.0977 56.4466 33.0977C51.5804 33.0977 47.6875 37.03 47.6875 41.9453V84.5453C47.6875 89.4607 51.5804 93.393 56.4466 93.393C61.3128 93.393 65.2057 89.4607 65.2057 84.5453V41.9453Z" fill="#00BCEB"/>
<path d="M113.221 8.84769C113.221 3.93231 109.328 0 104.462 0C99.5961 0 95.7031 3.93231 95.7031 8.84769V102.24C95.7031 107.155 99.5961 111.088 104.462 111.088C109.328 111.088 113.221 107.155 113.221 102.24V8.84769Z" fill="#00BCEB"/>
<path d="M160.909 41.9453C160.909 37.03 157.016 33.0977 152.15 33.0977C147.284 33.0977 143.391 37.03 143.391 41.9453V84.5453C143.391 89.4607 147.284 93.393 152.15 93.393C157.016 93.393 160.909 89.4607 160.909 84.5453V41.9453Z" fill="#00BCEB"/>
<path d="M208.596 66.1934C208.596 61.278 204.703 57.3457 199.837 57.3457C194.971 57.3457 191.078 61.278 191.078 66.1934V84.5442C191.078 89.4595 194.971 93.3919 199.837 93.3919C204.703 93.3919 208.596 89.4595 208.596 84.5442V66.1934Z" fill="#00BCEB"/>
<path d="M256.608 41.9453C256.608 37.03 252.715 33.0977 247.849 33.0977C242.983 33.0977 239.09 37.03 239.09 41.9453V84.5453C239.09 89.4607 242.983 93.393 247.849 93.393C252.715 93.393 256.608 89.4607 256.608 84.5453V41.9453Z" fill="#00BCEB"/>
<path d="M304.3 8.84769C304.3 3.93231 300.407 0 295.54 0C290.674 0 286.781 3.93231 286.781 8.84769V102.24C286.781 107.155 290.674 111.088 295.54 111.088C300.407 111.088 304.3 107.155 304.3 102.24V8.84769Z" fill="#00BCEB"/>
<path d="M352.311 41.9453C352.311 37.03 348.418 33.0977 343.552 33.0977C338.686 33.0977 334.793 37.03 334.793 41.9453V84.5453C334.793 89.4607 338.686 93.393 343.552 93.393C348.418 93.393 352.311 89.4607 352.311 84.5453V41.9453Z" fill="#00BCEB"/>
<path d="M399.999 66.1934C399.999 61.278 396.106 57.3457 391.24 57.3457C386.373 57.3457 382.48 61.278 382.48 66.1934V84.5442C382.48 89.4595 386.373 93.3919 391.24 93.3919C396.106 93.3919 399.999 89.4595 399.999 84.5442V66.1934Z" fill="#00BCEB"/>
</g>
<defs>
<clipPath id="clip0_277_38">
<rect width="400" height="213" fill="white"/>
</clipPath>
</defs>
</svg>
