<svg width="400" height="359" viewBox="0 0 400 359" fill="none" xmlns="http://www.w3.org/2000/svg">
<g clip-path="url(#clip0_305_8)">
<path d="M387.799 68.1172L265.795 103.097C271.024 127.03 273.638 152.804 273.638 179.499C273.638 206.194 271.024 231.968 265.795 255.902L387.799 290.881C395.642 255.902 400 218.161 400 179.499C400 140.838 395.642 103.097 387.799 68.1172Z" fill="#00D7B8"/>
<path d="M80.1743 32.2188L0 179.501L127.233 79.1649C115.033 59.8341 98.4749 44.1854 80.1743 32.2188Z" fill="#5F3AD7"/>
<path d="M80.1743 326.782L0 179.5L127.233 279.836C115.033 299.167 98.4749 314.815 80.1743 326.782Z" fill="#5F3AD7"/>
<path d="M226.58 0L0 179.5L266.667 103.097C258.824 64.4359 244.88 30.3769 226.58 0Z" fill="#0280FF"/>
<path d="M226.58 359L0 179.5L266.667 255.903C258.824 294.564 244.88 328.623 226.58 359Z" fill="#0280FF"/>
<path d="M274.51 179.5C274.51 152.805 271.895 127.031 266.667 103.098L0 179.5L266.667 255.903C271.895 231.969 274.51 206.195 274.51 179.5Z" fill="white"/>
</g>
<defs>
<clipPath id="clip0_305_8">
<rect width="400" height="359" fill="white"/>
</clipPath>
</defs>
</svg>
