<svg width="398" height="400" viewBox="0 0 398 400" fill="none" xmlns="http://www.w3.org/2000/svg">
<rect width="398" height="400" fill="#B30000"/>
<path d="M223.839 400C206.61 400 189.381 398.086 172.814 394.259C115.163 381.503 64.8007 347.059 33.6557 298.584C-31.285 197.805 0.522671 65.773 105.223 2.62706C113.838 -2.47564 124.44 0.07571 129.741 8.3676C135.043 16.0217 132.392 26.8649 123.778 31.9676C36.3063 84.9081 9.13726 195.892 64.1381 280.724C90.6445 321.546 132.392 350.249 180.766 361.092C229.14 371.935 280.165 364.281 322.576 338.768C331.19 333.665 341.793 336.216 347.094 344.508C352.395 352.8 349.745 363.005 341.13 368.108C306.009 389.157 264.924 400 223.839 400Z" fill="white"/>
<path d="M379.445 344.628C389.692 344.628 398 336.632 398 326.769C398 316.905 389.692 308.909 379.445 308.909C369.198 308.909 360.891 316.905 360.891 326.769C360.891 336.632 369.198 344.628 379.445 344.628Z" fill="white"/>
</svg>
