<svg width="299" height="299" viewBox="0 0 299 299" fill="none" xmlns="http://www.w3.org/2000/svg">
<path d="M116.33 228.455C111.191 224.25 106.052 220.045 101.38 215.374C102.314 219.111 103.248 223.316 104.65 227.053C108.388 227.52 112.592 227.988 116.33 228.455Z" fill="#2F577E"/>
<path d="M143.427 217.709C145.295 219.111 147.164 220.512 149.033 221.914C153.238 224.25 156.975 227.053 160.713 228.922C161.18 229.389 161.647 229.856 162.114 229.856C168.655 229.856 175.663 229.389 182.203 228.455C185.941 227.987 190.145 227.52 193.883 227.053C198.555 226.119 203.227 225.184 207.898 224.25C212.103 223.316 216.775 222.381 220.98 220.98C231.258 218.177 240.602 214.906 249.478 211.169C248.544 206.964 247.609 202.759 246.208 198.555C245.741 197.62 245.741 196.219 245.273 194.817C244.339 192.481 243.405 190.145 242.47 187.809C237.798 190.145 232.192 192.014 227.053 193.883C223.316 195.284 219.111 196.219 215.373 197.153C214.906 197.62 214.439 197.62 213.972 197.62C209.3 199.022 205.095 199.956 200.423 200.423C198.088 200.891 195.752 201.358 193.416 201.825C186.408 203.227 179.4 203.694 171.925 204.628C164.45 205.095 156.975 205.562 149.033 205.562C141.558 205.562 134.083 205.095 126.608 204.628C131.747 209.3 137.82 213.505 143.427 217.709Z" fill="#2F577E"/>
<path d="M52.325 99.9781C52.325 100.912 52.7922 102.314 53.2594 103.716C54.1937 106.052 55.1281 108.387 56.0625 110.723C60.7344 108.387 66.3406 106.519 71.4797 104.65C75.2172 103.248 79.4219 102.314 83.1594 101.38C83.6266 100.912 84.0938 100.912 84.5609 100.912C89.2328 99.9781 93.4375 98.5765 98.1094 98.1093C100.445 97.6421 102.781 97.175 105.117 96.7078C112.125 95.7734 119.133 94.839 126.608 93.9046C134.083 93.4375 141.558 93.4375 149.033 93.4375C156.975 93.4375 164.45 93.4375 171.925 93.9046C166.786 89.2328 160.713 85.0281 155.106 80.8234C153.238 79.4218 151.369 78.0203 149.033 76.6187C145.295 74.2828 141.558 71.4796 137.82 69.6109C137.353 69.1437 136.886 68.6765 136.419 68.6765C129.411 68.6765 122.87 69.6109 116.33 70.0781C112.592 70.5453 108.387 71.0125 104.65 71.4796C99.9781 72.414 95.3062 73.3484 90.6344 74.2828C86.4297 75.2171 81.7578 76.1515 77.5531 77.5531C67.275 80.3562 57.9312 83.6265 49.0547 87.364C49.9891 91.5687 50.9234 95.7734 52.325 99.9781Z" fill="#2F577E"/>
<path d="M182.203 70.0781C187.342 74.2828 192.481 78.4875 197.153 83.1594C196.219 79.4219 195.284 75.2172 193.883 71.4797C190.145 71.0125 185.941 70.5453 182.203 70.0781Z" fill="#2F577E"/>
<path d="M13.0813 149.033C15.4172 139.689 22.8922 130.345 35.0391 122.403C33.6375 118.666 32.2359 115.395 31.3016 112.125C29.9 107.92 28.9656 103.248 28.0313 99.0437C21.9578 103.248 16.3516 108.387 12.1469 113.059C4.20469 122.403 0 132.214 0 142.959V155.573C0 166.319 4.20469 176.13 12.1469 185.473C16.3516 190.145 21.9578 194.817 28.0313 199.489C31.7688 201.825 35.5063 204.161 39.7109 206.497C42.9813 207.898 45.7844 209.767 49.0547 211.169C57.9313 214.906 67.275 218.177 77.5531 220.98C76.1516 216.775 75.2172 212.103 74.2828 207.898C73.3484 203.227 72.4141 198.555 71.4797 193.883C66.3406 192.014 60.7344 190.145 56.0625 187.809C53.7266 186.875 51.3906 185.941 49.0547 184.539C48.1203 184.072 46.7188 183.605 45.7844 183.137C41.5797 180.802 38.3094 178.466 35.0391 176.13C22.8922 168.187 15.4172 158.844 13.0813 149.033Z" fill="#2F577E"/>
<path d="M182.203 228.455C175.662 228.922 168.655 229.856 162.114 229.856C165.384 232.192 169.122 234.061 172.392 235.462C175.663 233.126 178.933 230.791 182.203 228.455Z" fill="#F4B563"/>
<path d="M259.289 48.1202L250.413 39.2436C242.938 31.7686 232.659 27.564 220.513 26.6296C213.972 26.1624 206.964 27.0968 199.489 28.4983C195.284 28.9655 190.613 30.3671 186.408 31.3015C183.138 32.2358 179.867 33.6374 176.13 35.039C167.72 38.3093 158.377 42.514 149.033 47.653C153.238 49.989 156.975 52.3249 161.18 55.128C164.917 57.464 168.655 60.2671 172.392 63.0702C177.531 60.2671 182.67 57.9311 187.809 56.0624C190.145 55.128 192.481 54.1936 194.817 53.2593C196.219 52.7921 197.62 52.7921 198.555 52.3249C202.759 50.9233 206.964 49.989 211.169 49.0546C225.184 46.7186 237.331 48.1202 245.741 52.7921" fill="#F4B563"/>
<path d="M245.741 52.7921C250.412 61.2015 251.814 73.3483 249.478 87.364C252.748 88.7655 255.552 90.6343 258.822 92.0358C263.027 94.3718 266.764 96.7077 270.034 99.0437C271.436 91.5687 272.37 84.5608 271.903 78.0202C270.969 65.8733 266.764 55.5952 259.289 48.1202C257.887 46.2515 256.486 45.3171 254.617 43.9155" fill="#F4B563"/>
<path d="M116.33 70.0781C122.87 69.1437 129.411 68.6766 136.419 68.6766C133.148 66.3406 129.411 64.4719 126.141 63.0703C122.87 64.9391 119.6 67.7422 116.33 70.0781Z" fill="#F4B563"/>
<path d="M52.7922 245.741C48.1203 237.331 46.7188 225.184 49.0547 211.169C45.7844 209.767 42.9813 207.898 39.7109 206.497C35.5063 204.161 31.7688 201.825 28.0313 199.489C27.0969 206.964 26.1625 213.972 26.6297 220.512C27.5641 232.659 31.7688 242.937 39.2438 250.412L48.1203 259.289C55.5953 266.764 65.8734 270.969 78.0203 271.903C84.5609 272.37 91.5688 271.436 99.0438 270.502C103.248 269.567 107.92 268.633 112.125 267.231C115.395 266.297 118.666 264.895 122.403 263.494C130.813 260.223 140.156 256.019 149.033 250.88C145.295 248.544 141.558 246.208 137.353 243.872C133.616 241.069 129.878 238.733 126.141 235.93C121.002 238.266 115.863 240.602 110.723 242.47C108.388 243.405 106.052 244.339 103.716 245.273C102.314 245.741 100.913 246.208 99.9781 246.208C95.7734 247.609 91.5688 248.544 87.3641 249.478C73.3484 251.814 61.2016 250.412 52.7922 245.741Z" fill="#F4B563"/>
<path d="M70.0781 182.203C69.1437 175.662 68.6766 168.655 68.6766 162.114C66.3406 165.384 64.4719 169.122 63.0703 172.392C64.9391 175.662 67.7422 178.933 70.0781 182.203Z" fill="#5CAFCD"/>
<path d="M201.825 105.117C201.358 102.781 200.891 100.445 200.423 98.1094C199.956 93.4375 198.555 89.2328 197.62 84.5609C197.62 84.0938 197.62 83.6266 197.153 83.1594C192.481 78.4875 187.342 74.2828 182.203 70.0781C178.933 67.7422 175.663 64.9391 172.392 63.0703C168.655 60.2672 164.917 57.4641 161.18 54.6609C156.975 52.325 153.238 49.9891 149.033 47.6531C140.156 42.5141 130.813 38.3094 122.403 35.0391C120.067 38.3094 117.731 41.5797 115.395 45.7844C114.928 46.7188 114.461 48.1203 113.994 49.0547C112.592 51.3906 111.658 53.7266 110.723 56.0625C115.863 57.9313 121.002 60.2672 126.141 63.0703C129.411 64.4719 133.148 66.3406 136.419 68.6766C136.886 68.6766 137.353 69.1437 137.82 69.6109C141.558 71.4797 145.295 74.2828 149.033 76.6187C151.369 78.0203 153.238 79.4219 155.106 80.8234C160.713 85.0281 166.786 89.2328 171.925 93.9047C177.998 99.0438 183.605 104.183 188.744 109.789C194.35 114.928 199.489 120.534 204.628 126.608C203.694 119.133 202.759 112.125 201.825 105.117Z" fill="#5CAFCD"/>
<path d="M96.7078 193.416C97.175 195.752 97.6422 198.088 98.1094 200.423C98.5766 205.095 99.9781 209.3 100.913 213.972C100.913 214.439 100.913 214.906 101.38 215.373C106.052 220.045 111.191 224.25 116.33 228.455C119.6 230.791 122.87 233.594 126.141 235.463C129.878 238.266 133.616 241.069 137.353 243.872C141.558 246.208 145.295 248.544 149.033 250.88C158.377 256.019 167.72 260.223 176.13 263.494C178.466 260.223 180.802 256.953 183.138 252.748C183.605 251.814 184.072 250.413 184.539 249.478C185.941 247.142 186.875 244.806 187.809 242.47C182.67 240.602 177.531 238.266 172.392 235.463C169.122 234.061 165.384 232.192 162.114 229.856C161.647 229.856 161.18 229.389 160.713 228.922C156.975 227.053 153.238 224.25 149.033 221.914C147.164 220.513 145.295 219.111 143.427 217.709C137.82 213.505 131.747 209.3 126.608 204.628C120.534 199.489 114.928 194.35 109.789 188.744C104.183 183.605 99.0438 177.998 93.9047 171.925C94.8391 179.4 95.3063 186.408 96.7078 193.416Z" fill="#5CAFCD"/>
<path d="M228.455 182.203C224.25 187.342 220.045 192.481 215.373 197.153C219.111 196.219 223.316 195.284 227.053 193.883C227.52 190.145 227.987 185.941 228.455 182.203Z" fill="#47B178"/>
<path d="M70.0781 116.33C74.2828 111.191 78.4875 106.519 83.1594 101.38C79.4219 102.314 75.2172 103.248 71.4797 104.65C71.0125 108.387 70.5453 112.592 70.0781 116.33Z" fill="#47B178"/>
<path d="M298.533 155.574V142.959C298.533 132.214 294.328 122.403 286.386 113.059C282.181 108.388 276.575 103.249 270.034 99.0438C266.764 96.7079 263.027 94.372 258.822 92.036C255.552 90.6345 252.748 88.7657 249.478 87.3642C240.602 83.6267 231.258 80.3563 220.98 77.5532C222.381 81.7579 223.316 86.4298 224.25 90.6345C225.184 95.3063 226.119 99.9782 227.053 104.65C232.192 106.519 237.798 108.388 242.47 110.724C244.806 111.658 247.142 112.592 249.478 113.994C250.412 114.461 251.814 114.928 252.748 115.395C256.953 117.731 260.223 120.067 263.494 122.403C275.641 130.345 283.116 139.689 285.452 149.033C283.116 158.844 275.641 168.188 263.494 176.13C264.895 179.867 266.297 183.138 267.231 186.408C268.633 190.613 269.567 195.284 270.034 199.489C276.575 195.284 282.181 190.145 286.386 185.474C294.328 176.13 298.533 166.319 298.533 155.574Z" fill="#2F577E"/>
<path d="M193.416 201.825C195.752 201.358 198.088 200.891 200.423 200.423C205.095 199.956 209.3 199.022 213.972 197.62C214.439 197.62 214.906 197.62 215.373 197.153C220.045 192.481 224.25 187.342 228.455 182.203C230.791 178.933 233.594 175.662 235.463 172.392C238.266 168.655 241.069 164.917 243.872 161.18C246.208 156.975 248.544 153.237 250.88 149.5C256.019 140.156 260.223 130.812 263.494 122.403C260.223 120.067 256.953 117.731 252.748 115.395C251.814 114.928 250.413 114.461 249.478 113.994C247.142 112.592 244.806 111.658 242.47 110.723C240.602 115.862 238.266 121.002 235.463 126.141C234.061 129.411 232.192 133.148 229.856 136.419C229.856 136.886 229.389 137.353 228.922 137.82C227.053 141.558 224.25 145.295 221.914 149.5C220.513 151.369 219.111 153.237 217.709 155.106C213.505 160.712 209.3 166.786 204.628 171.925C199.489 177.998 194.35 183.605 188.744 188.744C183.605 194.35 177.998 199.489 171.925 204.628C179.4 203.694 186.408 203.227 193.416 201.825Z" fill="#F4B563"/>
<path d="M45.7844 183.138C46.7188 183.605 48.1203 184.072 49.0547 184.539C51.3906 185.941 53.7266 186.875 56.0625 187.809C57.9313 182.67 60.2672 177.531 63.0703 172.392C64.4719 169.122 66.3406 165.384 68.6766 162.114C68.6766 161.647 69.1437 161.18 69.6109 160.713C71.4797 156.975 74.2828 153.238 76.6187 149.033C78.0203 147.164 79.4219 145.295 80.8234 143.427C85.0281 137.82 89.2328 131.747 93.9047 126.608C99.0438 120.534 104.183 114.928 109.789 109.789C114.928 104.183 120.534 99.0438 126.608 93.9048C119.133 94.8392 112.125 95.3063 105.117 96.7079C102.781 97.1751 100.445 97.6423 98.1094 98.1095C93.4375 98.5767 89.2328 99.9782 84.5609 100.913C84.0938 100.913 83.6266 100.913 83.1594 101.38C78.4875 106.052 74.2828 111.191 70.0781 116.33C67.7422 119.6 64.9391 122.87 62.6031 126.141C60.2672 129.878 57.4641 133.616 54.6609 137.353C52.325 141.558 49.9891 145.295 47.6531 149.033C42.5141 158.377 38.3094 167.72 35.0391 176.13C38.3094 178.466 41.5797 180.802 45.7844 183.138Z" fill="#F4B563"/>
<path d="M52.7922 52.7921C61.2016 48.1202 73.3485 46.7187 87.3641 49.0546C88.7656 45.7843 90.6344 42.9812 92.036 39.7108C94.3719 35.5062 96.7078 31.7686 99.0438 28.4983C91.5688 27.0968 84.561 26.1624 78.0203 26.6296C65.8735 27.564 55.5953 31.7686 48.1203 39.2436L39.2438 48.1202C31.7688 55.5952 27.5641 65.8733 26.6297 78.0202C26.1625 84.5608 27.0969 91.5687 28.0313 99.0437C28.9656 103.248 29.9 107.92 31.3016 112.125C32.2359 115.395 33.6375 118.666 35.0391 122.403C38.3094 130.812 42.5141 140.156 47.6531 149.5C49.9891 145.295 52.325 141.558 54.6609 137.353C57.4641 133.616 60.2672 129.878 62.6031 126.141C60.2672 121.001 57.9313 115.862 56.0625 110.723C55.1281 108.387 54.1938 106.051 53.2594 103.716C52.7922 102.314 52.325 100.912 52.325 99.978C50.9234 95.7733 49.9891 91.5687 49.0547 87.364C46.7188 73.3483 48.1203 61.2015 52.7922 52.7921Z" fill="#5CAFCD"/>
<path d="M228.455 116.33C228.922 122.87 229.856 129.878 229.856 136.419C232.192 133.148 234.061 129.411 235.463 126.141C233.594 122.87 230.791 119.6 228.455 116.33Z" fill="#5CAFCD"/>
<path d="M250.412 259.289L259.289 250.412C266.764 242.937 270.969 232.659 271.903 220.513C272.37 213.972 271.436 206.964 270.034 199.489C269.567 195.284 268.633 190.613 267.231 186.408C266.297 183.138 264.895 179.867 263.494 176.13C260.223 167.72 256.019 158.377 250.88 149.5C248.544 153.238 246.208 156.975 243.872 161.18C241.069 164.917 238.266 168.655 235.462 172.392C238.266 177.531 240.602 182.67 242.47 187.809C243.405 190.145 244.339 192.481 245.273 194.817C245.741 196.219 245.741 197.62 246.208 198.555C247.609 202.759 248.544 206.964 249.478 211.169C251.814 225.184 250.412 237.331 245.741 245.741C237.331 250.412 225.184 251.814 211.169 249.478C209.767 252.748 207.898 255.552 206.497 258.822C204.161 263.027 201.825 266.764 199.489 270.034C206.964 271.436 213.972 272.37 220.512 271.903C232.659 270.969 242.937 266.764 250.412 259.289Z" fill="#5CAFCD"/>
<path d="M80.8234 143.427C79.4219 145.295 78.0203 147.164 76.6188 149.5C74.2828 153.238 71.4797 156.975 69.6109 160.713C69.1438 161.18 68.6766 161.647 68.6766 162.114C68.6766 168.655 69.1438 175.663 70.0781 182.203C70.5453 185.941 71.0125 190.145 71.4797 193.883C72.4141 198.555 73.3484 203.227 74.2828 207.899C75.2172 212.103 76.1516 216.775 77.5531 220.98C80.3563 231.258 83.6266 240.602 87.3641 249.478C91.5688 248.544 95.7734 247.609 99.9781 246.208C100.913 245.741 102.314 245.741 103.716 245.274C106.052 244.339 108.388 243.405 110.723 242.47C108.388 237.799 106.519 232.192 104.65 227.053C103.248 223.316 102.314 219.111 101.38 215.374C100.913 214.906 100.913 214.439 100.913 213.972C99.9781 209.3 98.5766 205.095 98.1094 200.424C97.6422 198.088 97.175 195.752 96.7078 193.416C95.3063 186.408 94.8391 179.4 93.9047 171.925C93.4375 164.45 92.9703 156.975 92.9703 149.5C92.9703 141.558 93.4375 134.083 93.9047 126.608C89.2328 131.747 85.0281 137.82 80.8234 143.427Z" fill="#47B178"/>
<path d="M217.709 155.106C219.111 153.238 220.512 151.369 221.914 149.5C224.25 145.295 227.053 141.558 228.922 137.82C229.389 137.353 229.856 136.886 229.856 136.419C229.856 129.878 228.922 122.87 228.455 116.33C227.988 112.592 227.52 108.387 227.053 104.65C226.119 99.9781 225.184 95.3062 224.25 90.6344C223.316 86.4297 222.381 81.7578 220.98 77.5531C218.177 67.275 214.906 57.9312 211.169 49.0547C206.964 49.9891 202.759 50.9234 198.555 52.325C197.62 52.7922 196.219 52.7922 194.817 53.2594C192.481 54.1937 190.145 55.1281 187.809 56.0625C190.145 60.7344 192.014 66.3406 193.883 71.4797C195.284 75.2172 196.219 79.4219 197.153 83.1594C197.62 83.6266 197.62 84.0938 197.62 84.5609C198.555 89.2328 199.956 93.4375 200.423 98.1094C200.891 100.445 201.358 102.781 201.825 105.117C202.759 112.125 203.694 119.133 204.628 126.608C205.095 134.083 205.095 141.558 205.095 149.5C205.095 156.975 205.095 164.45 204.628 171.925C209.3 166.786 213.505 160.713 217.709 155.106Z" fill="#47B178"/>
<path d="M199.489 28.0313C194.817 21.9578 190.145 16.3516 185.473 12.1469C176.13 4.20469 166.319 0 155.573 0H142.959C132.214 0 122.403 4.20469 113.059 12.1469C108.388 16.3516 103.248 21.9578 99.0438 28.0313C96.7078 31.7688 94.3719 35.5063 92.0359 39.7109C90.6344 42.9813 88.7656 45.7844 87.3641 49.0547C83.6266 57.9313 80.3563 67.275 77.5531 77.5531C81.7578 76.1516 86.4297 75.2172 90.6344 74.2828C95.3063 73.3484 99.9781 72.4141 104.65 71.4797C106.519 66.3406 108.388 60.7344 110.723 56.0625C111.658 53.7266 112.592 51.3906 113.994 49.0547C114.461 48.1203 114.928 46.7188 115.395 45.7844C117.731 41.5797 120.067 38.3094 122.403 35.0391C130.345 22.8922 139.689 15.4172 149.033 13.0813C158.844 15.4172 168.188 22.8922 176.13 35.0391C179.867 33.6375 183.138 32.2359 186.408 31.3016" fill="#47B178"/>
<path d="M142.959 298.533H155.573C166.319 298.533 176.13 294.328 185.473 286.386C190.145 282.181 194.817 276.575 199.489 270.034C201.825 266.764 204.161 263.027 206.497 258.822C207.898 255.552 209.767 252.748 211.169 249.478C214.906 240.602 218.177 231.258 220.98 220.98L207.898 224.25C203.227 225.184 198.555 226.119 193.883 227.053C192.014 232.192 190.145 237.798 187.809 242.47C186.875 244.806 185.941 247.142 184.539 249.478C184.072 250.413 183.605 251.814 183.138 252.748C180.802 256.953 178.466 260.223 176.13 263.494C168.188 275.641 158.844 283.116 149.033 285.452C139.689 283.116 130.345 275.641 122.403 263.494C118.666 264.895 115.395 266.297 112.125 267.231L99.0438 270.034C103.248 276.575 108.388 282.181 113.059 286.386C122.403 294.328 132.214 298.533 142.959 298.533Z" fill="#47B178"/>
</svg>
