<svg width="400" height="400" viewBox="0 0 400 400" fill="none" xmlns="http://www.w3.org/2000/svg">
<g clip-path="url(#clip0_204_34)">
<path d="M249.15 400H151.015C67.6336 400 0 332.532 0 249.15V151.015C0 67.6337 67.6336 0 151.015 0H249.15C332.532 0 400.166 67.6337 400.166 151.015V249.15C400 332.532 332.532 400 249.15 400Z" fill="#0527FF"/>
<path d="M185.661 285.122C190.303 285.122 191.629 288.106 192.955 292.25L199.917 313.966C200.58 316.452 202.072 317.612 204.393 317.612H207.377C209.532 317.612 211.024 316.618 211.853 313.966L218.815 292.25C220.307 287.774 220.638 284.624 229.756 284.624C250.145 284.624 269.374 281.641 283.796 267.55C290.759 260.588 298.881 258.101 307.004 263.572L313.966 268.213C323.912 274.678 326.565 287.111 318.608 295.399C298.218 315.955 269.54 328.387 236.884 328.387H182.18C117.53 328.553 69.623 280.646 69.623 216.991V185.826C69.623 122.171 117.696 74.4297 182.18 74.4297H236.718C269.374 74.4297 298.052 86.8623 318.442 107.418C326.399 115.872 323.415 127.973 313.8 134.604L306.838 139.245C298.881 144.716 290.427 142.229 283.631 135.267C269.043 121.176 249.979 118.193 229.59 118.193L185.993 117.695C140.904 117.53 116.867 145.544 116.867 185.826V216.991C116.701 257.604 140.738 285.122 185.661 285.122Z" fill="white"/>
</g>
<defs>
<clipPath id="clip0_204_34">
<rect width="400" height="400" fill="white"/>
</clipPath>
</defs>
</svg>
