<svg width="400" height="400" viewBox="0 0 400 400" fill="none" xmlns="http://www.w3.org/2000/svg">
<path d="M259.51 270.984L261.166 265.229C263.133 258.39 262.405 252.077 259.092 247.424C255.995 243.144 250.947 240.631 244.769 240.336L127.821 238.847C127.454 238.842 127.094 238.748 126.771 238.573C126.448 238.398 126.172 238.148 125.967 237.843C125.762 237.539 125.633 237.189 125.592 236.823C125.551 236.458 125.598 236.088 125.731 235.745C125.929 235.171 126.292 234.668 126.774 234.299C127.256 233.929 127.835 233.71 128.44 233.667L246.519 232.116C260.454 231.48 275.69 220.096 281.001 206.199L287.721 188.58C287.912 188.086 288.006 187.559 288 187.029C287.992 186.748 287.961 186.468 287.907 186.192C284.241 169.803 275.328 155.064 262.527 144.218C249.725 133.372 233.736 127.014 216.994 126.111C200.252 125.209 183.674 129.811 169.784 139.218C155.895 148.625 145.454 162.32 140.053 178.22C134.319 173.951 127.407 171.564 120.265 171.387C113.123 171.21 106.101 173.251 100.164 177.231C94.2262 181.211 89.6638 186.934 87.1028 193.614C84.5418 200.295 84.1078 207.606 85.8602 214.544C78.9025 214.724 72.0624 216.383 65.793 219.41C59.5236 222.438 53.968 226.766 49.4942 232.106C45.0203 237.447 41.7304 243.679 39.8423 250.389C37.9542 257.1 37.511 264.135 38.5421 271.03C38.6167 271.574 38.8849 272.073 39.2974 272.435C39.7099 272.797 40.2389 272.997 40.7872 273H256.769C257.382 273.006 257.981 272.813 258.475 272.449C258.969 272.086 259.332 271.571 259.51 270.984Z" fill="#F4801F"/>
<path d="M297.568 190C296.528 190 295.437 190.031 294.293 190.093C294.121 190.098 293.952 190.134 293.794 190.201C293.509 190.295 293.251 190.457 293.045 190.673C292.838 190.889 292.688 191.152 292.608 191.439L287.929 207.312C285.932 214.134 286.666 220.43 290.019 225.072C291.713 227.268 293.895 229.048 296.394 230.274C298.893 231.5 301.643 232.139 304.431 232.142L329.559 233.689C329.91 233.699 330.254 233.792 330.563 233.958C330.871 234.125 331.137 234.361 331.337 234.648C331.549 234.954 331.683 235.307 331.73 235.676C331.776 236.044 331.732 236.419 331.602 236.767C331.402 237.34 331.036 237.842 330.551 238.21C330.066 238.579 329.482 238.798 328.872 238.84L302.778 240.387C288.6 241.037 273.33 252.377 267.98 266.223L266.093 271.112C266.014 271.317 265.985 271.537 266.008 271.755C266.031 271.973 266.105 272.182 266.225 272.366C266.346 272.55 266.508 272.703 266.699 272.813C266.89 272.923 267.104 272.987 267.325 272.999H357.213C357.761 273.012 358.297 272.84 358.733 272.511C359.17 272.183 359.481 271.716 359.615 271.189C362.294 261.691 362.723 251.707 360.867 242.017C359.011 232.328 354.92 223.195 348.915 215.334C342.911 207.472 335.154 201.095 326.252 196.7C317.35 192.305 307.543 190.012 297.599 190H297.568Z" fill="#F9AB41"/>
</svg>
