<svg width="400" height="400" viewBox="0 0 400 400" fill="none" xmlns="http://www.w3.org/2000/svg">
<mask id="mask0_338_12" style="mask-type:luminance" maskUnits="userSpaceOnUse" x="50" y="50" width="300" height="300">
<path d="M350 50H50V349.918H350V50Z" fill="white"/>
</mask>
<g mask="url(#mask0_338_12)">
<path fill-rule="evenodd" clip-rule="evenodd" d="M147.195 228.573C155.27 228.573 171.332 228.13 193.534 218.991C219.407 208.342 270.881 189.01 308.014 169.154C333.984 155.265 345.368 136.897 345.368 112.161C345.368 77.8308 317.529 50 283.19 50H139.311C89.9858 50 50 89.9748 50 139.286C50 188.598 87.4384 228.573 147.195 228.573Z" fill="#39594D"/>
<path fill-rule="evenodd" clip-rule="evenodd" d="M171.53 290.058C171.53 265.886 186.086 244.093 208.418 234.827L253.728 216.027C299.559 197.012 350.005 230.683 350.005 280.293C350.005 318.726 318.834 349.881 280.388 349.87L231.331 349.858C198.301 349.849 171.53 323.079 171.53 290.058Z" fill="#D18EE2"/>
<path d="M101.485 240.344C73.0511 240.344 50 263.386 50 291.813V298.48C50 326.905 73.0502 349.949 101.484 349.949C129.918 349.949 152.969 326.905 152.969 298.48V291.813C152.969 263.386 129.919 240.344 101.485 240.344Z" fill="#FF7759"/>
</g>
</svg>
