<svg width="400" height="400" viewBox="0 0 400 400" fill="none" xmlns="http://www.w3.org/2000/svg">
<path d="M333.002 138.343C333.002 128.808 327.914 119.998 319.655 115.229L212.855 53.5771C204.593 48.8076 194.41 48.8076 186.148 53.5771L103.066 101.538L248.413 185.197C259.65 191.664 272.387 195.068 285.352 195.068H333.002V138.343Z" fill="black"/>
<path d="M333.002 204.933H285.352C272.387 204.933 259.65 208.336 248.413 214.803L103.066 298.462L186.148 346.423C194.41 351.193 204.593 351.193 212.855 346.423L319.655 284.771C327.914 280.003 333.002 271.192 333.002 261.657V204.933Z" fill="black"/>
<path d="M85.4749 288.308C90.6327 291.285 96.9853 291.289 102.147 288.319L166.202 251.45V148.55L102.147 111.681C96.9853 108.711 90.6327 108.715 85.4749 111.692L79.3465 115.229C71.0877 119.997 66 128.808 66 138.343V261.656C66 271.191 71.0877 280.002 79.3465 284.77L85.4749 288.308Z" fill="black"/>
</svg>
