<svg width="400" height="370" viewBox="0 0 400 370" fill="none" xmlns="http://www.w3.org/2000/svg">
<path d="M395.341 96.3697C357.584 82.3125 320.749 40.316 277.082 78.5294C263.37 70.3606 248.447 64.4273 232.874 60.9519C234.745 53.9045 235.736 46.652 235.825 39.3603C235.825 22.9774 224.474 22.6349 218.509 16.3669C212.543 10.0989 208.956 0 200 0V77.7807C219.846 77.81 239.416 82.4445 257.173 91.3203C258.329 103.01 262.76 114.134 269.955 123.412C277.151 132.689 286.817 139.742 297.842 143.758L298.024 165.358L298.096 166.903C298.178 199.494 288.998 231.436 271.628 258.999C254.258 286.561 229.415 308.607 200 322.56V345.37C215.793 338.759 230.636 330.07 244.136 319.533C254.222 321.682 263.556 326.479 271.18 333.431C289.132 349.36 267.203 356.727 301.047 369.454C302.656 370.076 304.433 370.107 306.062 369.541C307.692 368.975 309.068 367.85 309.947 366.364C329.101 331.815 297.492 298.874 280.828 282.077C305.604 248.875 318.976 208.532 318.943 167.086C318.943 166.234 318.856 165.406 318.848 164.553H318.912V126.794C332.354 121.529 350.592 128.498 365.538 129.032C379.059 129.526 388.405 119.379 398.268 107.735C399.022 106.859 399.552 105.813 399.814 104.687C400.077 103.561 400.063 102.388 399.775 101.268C399.487 100.149 398.932 99.1157 398.159 98.2571C397.385 97.3985 396.416 96.7401 395.333 96.3379" fill="#127370"/>
<path d="M277.297 167.831L277.209 165.609L277.09 156.896C258.056 145.659 244.24 127.332 238.664 105.924C226.329 101.154 213.223 98.6942 200 98.668V299.141C223.45 286.194 242.996 267.177 256.594 244.078C270.191 220.978 277.341 194.645 277.297 167.831Z" fill="#127370"/>
<path d="M199.995 98.6387C186.775 98.667 173.673 101.124 161.339 105.886C155.763 127.33 141.921 145.684 122.849 156.922L122.754 165.628L122.666 167.109C122.515 194.042 129.614 220.518 143.216 243.753C156.818 266.989 176.42 286.125 199.963 299.151V98.6387H199.995Z" fill="#0A4543"/>
<path d="M200.01 322.56C170.619 308.628 145.789 286.616 128.416 259.091C111.043 231.566 101.844 199.663 101.89 167.102L101.985 164.713L102.152 143.694C113.184 139.683 122.858 132.629 130.058 123.348C137.259 114.067 141.691 102.936 142.845 91.2406C160.605 82.3878 180.17 77.7701 200.01 77.7489V0C191.053 0 187.474 10.075 181.501 16.3749C175.527 22.6748 164.185 22.9854 164.185 39.3682C164.276 46.6598 165.267 53.912 167.136 60.9598C151.563 64.4328 136.641 70.3634 122.928 78.5294C79.2607 40.316 42.426 82.3125 4.66855 96.3698C3.58592 96.7719 2.61653 97.4304 1.84308 98.289C1.06963 99.1475 0.515079 100.181 0.226748 101.3C-0.0615819 102.42 -0.0751365 103.593 0.187241 104.719C0.449619 105.845 0.980141 106.891 1.73354 107.767C11.5964 119.411 20.9185 129.558 34.464 129.064C49.4016 128.53 67.64 121.561 81.0901 126.826V164.601H81.1458C81.1458 165.445 81.0503 166.282 81.0503 167.134C81.0176 208.58 94.3897 248.923 119.166 282.124C102.462 298.913 70.8852 331.862 90.0462 366.412C90.9225 367.897 92.2952 369.023 93.9213 369.592C95.5475 370.16 97.322 370.134 98.9308 369.518C132.799 356.775 110.862 349.392 128.798 333.495C136.422 326.543 145.755 321.746 155.841 319.597C169.343 330.133 184.185 338.822 199.978 345.434V322.56" fill="#0A4543"/>
</svg>
