<svg width="400" height="400" viewBox="0 0 400 400" fill="none" xmlns="http://www.w3.org/2000/svg">
<g clip-path="url(#clip0_73_80)">
<path fill-rule="evenodd" clip-rule="evenodd" d="M257.882 164.32C261.647 174.648 271.059 181.221 282.353 181.221C285.177 181.221 288 180.282 290.824 179.343C304 174.648 311.53 159.625 306.824 146.479C298.353 123.005 280.471 104.226 256 92.9581C242.824 87.3243 227.765 92.9581 221.177 106.104C215.53 119.249 221.177 134.273 234.353 140.845C246.588 145.54 255.059 153.991 257.882 164.32Z" fill="#FF9E1A"/>
<path fill-rule="evenodd" clip-rule="evenodd" d="M249.412 0.939195C235.294 -1.87771 222.117 7.51197 219.294 21.5965C216.47 35.681 225.882 48.8265 240 51.6434C298.353 63.85 338.823 102.348 348.235 159.625C350.117 172.77 361.412 181.221 373.647 181.221C375.529 181.221 376.47 181.221 378.353 180.282C392.47 177.465 401.882 164.319 400 150.235C385.882 72.3007 329.412 15.9627 249.412 0.939195Z" fill="#FF9E1A"/>
<path fill-rule="evenodd" clip-rule="evenodd" d="M183.53 260.094C160 260.094 140.235 241.315 140.235 216.902C140.235 193.427 159.059 173.709 183.53 173.709C197.647 173.709 209.882 162.442 209.882 147.418C209.882 133.334 198.588 121.127 183.53 121.127C130.824 121.127 88.4707 163.38 88.4707 215.963C88.4707 268.545 130.824 310.798 183.53 310.798C236.235 310.798 278.588 268.545 278.588 215.963C278.588 201.878 267.294 189.672 252.235 189.672C238.118 189.672 225.882 200.939 225.882 215.963C226.824 240.376 207.059 260.094 183.53 260.094Z" fill="#1856ED"/>
<path fill-rule="evenodd" clip-rule="evenodd" d="M340.706 190.611C326.588 190.611 314.353 201.878 314.353 216.902C314.353 289.202 255.059 348.357 182.588 348.357C110.118 348.357 50.8235 289.202 50.8235 216.902C50.8235 144.601 110.118 85.4464 182.588 85.4464C196.706 85.4464 208.941 74.1788 208.941 59.1553C208.941 45.0708 197.647 32.8643 182.588 32.8643C82.8235 33.8032 0 116.432 0 216.902C0 317.371 82.8235 400 183.529 400C284.235 400 367.059 317.371 367.059 216.902C366.118 202.817 354.824 190.611 340.706 190.611Z" fill="#1856ED"/>
</g>
<defs>
<clipPath id="clip0_73_80">
<rect width="400" height="400" fill="white"/>
</clipPath>
</defs>
</svg>
