<svg width="334" height="400" viewBox="0 0 334 400" fill="none" xmlns="http://www.w3.org/2000/svg">
<rect width="334" height="400" fill="#00123F"/>
<path d="M199.717 400C157.991 400 122.144 391.908 92.1772 375.725C62.5894 359.172 39.8296 336 23.8978 306.206C7.96593 276.045 0 240.551 0 199.724C0 158.897 7.96593 123.586 23.8978 93.7932C39.8296 63.9999 62.5894 41.0115 92.1772 24.8276C122.144 8.27583 157.991 0 199.717 0C227.788 0 253.013 3.86212 275.393 11.5862C298.154 19.3103 317.689 30.7126 334 45.7932L310.102 102.069C292.273 88.092 275.014 78.161 258.324 72.2758C242.013 66.023 223.236 62.8966 201.993 62.8966C161.405 62.8966 130.3 74.8506 108.678 98.7587C87.4355 122.299 76.8142 155.954 76.8142 199.724C76.8142 243.494 87.4355 277.334 108.678 301.241C130.3 325.149 161.405 337.104 201.993 337.104C223.236 337.104 242.013 334.161 258.324 328.276C275.014 322.024 292.273 311.724 310.102 297.379L334 353.655C317.689 368.368 298.154 379.771 275.393 387.862C253.013 395.954 227.788 400 199.717 400Z" fill="#EC615B"/>
</svg>
