<svg width="400" height="341" viewBox="0 0 400 341" fill="none" xmlns="http://www.w3.org/2000/svg">
<path d="M121.891 170.962C121.891 222.875 142.076 268.963 175.267 300.016C170.022 300.487 164.623 300.714 159.055 300.714C65.1405 300.714 0 246.89 0 173.238C0 99.5857 65.1405 45.7461 159.055 45.7461C162.782 45.7461 166.417 45.8219 169.93 45.9585C139.791 77.179 121.891 121.674 121.891 170.962Z" fill="#004D45"/>
<path d="M399.443 70.4511C403.88 98.759 381.863 122.061 344.469 122.061C288.27 122.061 278.295 50.4717 169.938 45.9662C197.34 17.4611 234.918 0 278.386 0C279.243 0 280.085 0 280.942 0.0151665C343.459 0.0151665 394.577 39.5491 399.443 70.4511Z" fill="#0E9E53"/>
<path d="M366.93 225.858C381.421 228.649 400.002 238.449 400.002 268.244C400.002 309.613 334.922 340.485 280.814 341.001C280.814 341.001 280.676 341.001 280.552 341.001C280.46 341.001 280.413 341.001 280.367 341.001C280.321 341.001 280.305 341.001 280.305 341.001C239.1 340.94 202.755 325.572 175.27 300.026C270.629 292.031 315.291 215.86 366.93 225.858Z" fill="#0A004F"/>
</svg>
