<svg width="400" height="400" viewBox="0 0 400 400" fill="none" xmlns="http://www.w3.org/2000/svg">
<path d="M194.607 283.368C248.089 283.368 289.427 242.65 289.427 192.421C289.427 145.365 250.592 116.632 224.869 116.632C189.038 116.632 160.32 141.982 156.246 179.609C155.495 186.551 150.002 192.37 143.033 192.32C131.493 192.237 114.745 192.138 104.125 192.174C99.5335 192.19 95.7371 188.458 95.9624 183.864C97.562 151.241 108.383 120.738 129.022 97.3068C151.95 71.2779 185.339 56 224.869 56C291.285 56 353.983 116.815 353.983 192.421C353.983 276.136 285.155 344 196.021 344C132.453 344 68.4307 302.135 46.0778 243.605C45.9951 243.389 45.9815 243.162 46.0221 242.927C46.3192 241.195 46.9106 239.613 47.4927 238.054C48.3392 235.79 49.1663 233.576 49.0456 231.024L48.6594 222.871C48.4689 218.849 50.7235 215.109 54.3712 213.398L57.6024 211.882C61.2867 210.153 63.906 206.749 64.6307 202.747C65.7136 196.768 70.9224 192.421 77.0022 192.421C86.4919 192.421 94.743 198.749 97.8225 207.743C112.747 251.326 136.469 283.368 194.607 283.368Z" fill="#FB6970"/>
</svg>
