<svg width="400" height="400" viewBox="0 0 400 400" fill="none" xmlns="http://www.w3.org/2000/svg">
<g clip-path="url(#clip0_566_14)">
<path d="M74.532 189.276C79.9064 189.276 83.3515 191.889 84.8673 197.114L96.1673 193.264C95.0648 188.864 92.7222 185.289 88.8636 182.126C85.0051 178.964 80.182 177.451 74.2564 177.451C67.3662 177.451 61.5784 179.789 57.0308 184.464C52.3455 189.139 50.1406 195.051 50.1406 202.201C50.1406 209.351 52.4833 215.126 57.1686 219.939C61.854 224.614 67.6418 226.951 74.6698 226.951C80.4576 226.951 85.2807 225.439 89.1392 222.276C92.9978 219.251 95.3404 215.539 96.5807 211.139L85.4185 207.426C84.7295 209.626 83.4893 211.551 81.8356 213.064C80.0442 214.576 77.7015 215.401 74.6698 215.401C71.2247 215.401 68.4686 214.301 66.1259 211.964C63.7833 209.626 62.6808 206.326 62.6808 202.339C62.6808 198.351 63.7833 195.189 66.1259 192.714C68.3308 190.514 71.0869 189.276 74.532 189.276ZM123.039 215.676C119.732 215.676 116.838 214.576 114.633 212.239C112.29 209.901 111.188 206.601 111.188 202.476C111.188 198.351 112.29 195.051 114.633 192.714C116.976 190.376 119.732 189.276 123.039 189.276C126.209 189.276 129.103 190.514 131.445 192.714C133.788 195.051 134.89 198.351 134.89 202.476C134.89 206.601 133.65 209.901 131.445 212.239C129.103 214.439 126.346 215.676 123.039 215.676ZM123.039 177.726C116.011 177.726 110.086 180.064 105.538 184.739C100.853 189.414 98.6477 195.326 98.6477 202.476C98.6477 209.626 100.99 215.539 105.538 220.214C110.223 224.889 116.011 227.226 123.039 227.226C130.067 227.226 135.855 224.889 140.54 220.214C145.226 215.539 147.568 209.764 147.568 202.476C147.568 195.326 145.226 189.551 140.54 184.739C135.855 180.064 130.067 177.726 123.039 177.726ZM166.999 243.589V221.039C169.755 224.889 174.165 226.676 180.504 226.676C186.98 226.676 192.217 224.339 196.351 219.801C200.485 215.264 202.552 209.351 202.552 202.201C202.552 195.051 200.623 189.276 196.764 184.739C192.906 180.201 187.669 177.864 181.055 177.864C177.61 177.864 174.716 178.551 172.235 179.789C169.617 181.164 167.826 182.676 166.723 184.464V178.826H154.458V243.314H166.999V243.589ZM190.012 202.339C190.012 206.464 188.91 209.626 186.705 211.964C184.5 214.301 181.744 215.401 178.436 215.401C174.991 215.401 172.235 214.301 170.03 211.826C167.688 209.489 166.723 206.189 166.723 202.201C166.723 198.214 167.826 195.051 170.03 192.714C172.235 190.376 174.991 189.139 178.436 189.139C181.744 189.139 184.5 190.376 186.705 192.576C188.91 195.189 190.012 198.351 190.012 202.339ZM225.566 244.001L254.918 179.101H241.413L229.975 206.326L217.573 179.101H203.379L223.223 219.801L212.199 244.001H225.566Z" fill="#160647"/>
<path d="M259.188 217.051C259.188 219.664 260.152 221.864 261.944 223.651C263.735 225.439 265.94 226.264 268.558 226.264C271.176 226.264 273.381 225.439 275.173 223.651C276.964 221.864 277.929 219.664 277.929 217.051C277.929 214.439 276.964 212.376 275.173 210.451C273.381 208.664 271.039 207.701 268.558 207.701C265.94 207.701 263.873 208.664 261.944 210.451C260.152 212.376 259.188 214.439 259.188 217.051Z" fill="#47BAB7"/>
<path d="M285.094 212.926C285.094 216.776 286.472 220.076 289.503 222.826C292.397 225.713 296.394 226.951 301.217 226.951C307.418 226.951 311.966 224.613 314.997 220.076C314.997 222.413 315.135 224.338 315.411 225.713H326.986C326.573 223.651 326.435 221.176 326.435 218.288V195.326C326.435 190.238 324.781 185.976 321.474 182.676C318.167 179.376 313.068 177.726 306.178 177.726C300.252 177.726 295.705 179.376 292.122 182.401C288.539 185.563 286.472 189.138 286.196 193.126L297.358 195.463C297.496 193.401 298.461 191.613 299.977 190.101C301.492 188.726 303.697 187.901 306.316 187.901C308.796 187.901 310.725 188.451 312.103 189.551C313.481 190.651 314.17 192.163 314.17 193.951C314.17 195.876 312.93 196.976 310.725 197.251L299.288 198.901C295.153 199.588 291.846 201.101 289.228 203.438C286.334 205.913 285.094 208.938 285.094 212.926ZM303.835 217.601C301.906 217.601 300.39 217.188 299.425 216.088C298.323 214.988 297.772 213.751 297.772 212.238C297.772 208.938 299.701 206.876 303.56 206.326L314.033 204.676V206.876C314.033 210.726 312.93 213.476 311.139 215.263C309.347 217.051 306.729 217.601 303.835 217.601ZM348.622 225.576V179.101H335.944V225.713H348.622V225.576ZM334.428 163.838C334.428 165.901 335.255 167.688 336.77 169.201C338.286 170.713 340.078 171.538 342.283 171.538C344.35 171.538 346.279 170.713 347.795 169.201C349.311 167.688 350.137 165.901 350.137 163.838C350.137 161.638 349.311 159.713 347.795 158.201C346.279 156.688 344.35 155.863 342.283 155.863C340.078 155.863 338.286 156.688 336.77 158.201C335.255 159.851 334.428 161.776 334.428 163.838Z" fill="#160248"/>
</g>
<defs>
<clipPath id="clip0_566_14">
<rect width="300" height="88" fill="white" transform="translate(50 156)"/>
</clipPath>
</defs>
</svg>
