<svg width="350" height="400" viewBox="0 0 350 400" fill="none" xmlns="http://www.w3.org/2000/svg">
<g clip-path="url(#clip0_268_23)">
<path d="M160.204 84.7614C162.245 85.7138 162.245 87.6186 160.204 88.571L5.10204 141.904C3.06122 142.857 1.02041 141.904 1.02041 140C1.02041 140 1.02041 139.047 1.02041 138.095V2.85667C0 -0.000473604 2.04082 -0.952855 4.08163 0.951907L160.204 84.7614ZM196.939 103.809C193.878 101.904 190.816 101.904 187.755 102.857L5.10204 166.666C2.04082 167.619 0 170.476 0 173.333V183.809C0 185.714 2.04082 188.571 5.10204 188.571H347.959C351.02 188.571 351.02 187.619 348.98 186.666L196.939 103.809Z" fill="#00CCCC"/>
<path d="M4.08163 399.047C2.04082 400.952 0 400 0 397.143V260.952C0 260 0 260 0 259.047C1.02041 257.143 3.06122 257.143 5.10204 257.143L160.204 311.428C162.245 312.381 163.265 314.285 160.204 315.238L4.08163 399.047Z" fill="#00CCCC"/>
<path d="M348.98 213.332C351.02 212.38 351.02 211.428 347.959 211.428H5.10204C3.06122 211.428 0 213.332 0 216.19V226.666C0 229.523 2.04082 232.38 5.10204 233.332L187.755 297.142C190.816 298.094 193.878 298.094 196.939 296.19L348.98 213.332Z" fill="#00CCCC"/>
</g>
<defs>
<clipPath id="clip0_268_23">
<rect width="350" height="400" fill="white"/>
</clipPath>
</defs>
</svg>
