<svg width="400" height="350" viewBox="0 0 400 350" fill="none" xmlns="http://www.w3.org/2000/svg">
<path fill-rule="evenodd" clip-rule="evenodd" d="M389.318 288.932C380.384 288.218 364.921 286.076 344.992 295.357C325.405 304.994 317.502 305.351 307.881 304.281C310.63 309.278 316.471 316.06 334.339 317.488C352.208 318.558 361.142 319.272 351.52 341.046C351.864 334.621 350.146 321.771 332.278 323.913C314.409 326.054 310.286 341.76 329.529 349.256C323.344 350.327 309.942 351.04 300.665 327.482C294.136 330.338 284.171 335.692 265.616 322.128C272.144 324.27 280.048 324.626 280.048 324.626C263.897 317.131 248.091 303.21 238.47 290.003C246.373 295.714 254.963 301.425 263.897 302.496C253.589 290.36 229.536 265.73 199.984 240.744C218.883 252.523 241.906 271.441 279.017 267.158C316.471 262.875 341.555 254.665 389.318 288.932Z" fill="#FC0000"/>
<path fill-rule="evenodd" clip-rule="evenodd" d="M231.6 284.29C206.516 274.652 201.362 272.511 169.061 265.372C137.105 257.876 105.492 242.884 84.1875 218.969C98.9631 228.963 129.545 248.595 160.814 246.454C156.004 240.029 147.413 235.388 136.761 230.391C148.444 232.89 184.181 241.099 231.6 284.29Z" fill="#FC0000"/>
<path fill-rule="evenodd" clip-rule="evenodd" d="M357.708 262.517C379.699 264.659 378.669 267.872 378.669 273.583C369.391 266.444 357.708 262.517 357.708 262.517ZM225.071 144.368C130.232 116.17 92.4342 80.8319 63.2266 44.0664C76.6277 86.543 108.241 101.892 142.259 130.447C176.277 159.003 178.339 174.352 188.304 191.485C210.639 229.321 214.075 235.39 236.41 251.809C262.525 269.656 294.138 257.52 328.844 263.231C363.549 268.942 392.07 296.07 398.255 306.422C405.471 293.215 388.29 273.94 383.479 268.942C385.885 251.452 346.025 243.599 330.562 237.888C327.469 236.817 320.253 235.033 326.439 219.327C335.029 197.553 344.307 178.635 225.071 144.368Z" fill="#FC0000"/>
<path fill-rule="evenodd" clip-rule="evenodd" d="M179.025 196.838C172.84 179.348 162.188 157.217 110.645 124.021C85.2175 107.245 48.4502 86.5419 0 33C3.43619 47.2778 18.899 84.7572 95.8696 133.659C121.297 151.149 154.285 161.858 179.025 196.838Z" fill="#FC0000"/>
<path fill-rule="evenodd" clip-rule="evenodd" d="M179.026 229.679C173.184 215.044 160.814 196.126 113.738 169.355C91.7464 156.505 54.6356 136.516 20.9609 98.6797C24.0535 112.244 39.5163 142.227 106.522 179.706C125.077 190.772 156.347 200.766 179.026 229.679Z" fill="#FC0000"/>
</svg>
