<svg width="400" height="400" viewBox="0 0 400 400" fill="none" xmlns="http://www.w3.org/2000/svg">
<g clip-path="url(#clip0_293_12)">
<path d="M360 0H40C18.0952 0 0 18.0952 0 40V360C0 381.905 18.0952 400 40 400H360C381.905 400 400 381.905 400 360V40C400 18.0952 381.905 0 360 0Z" fill="#146AFF"/>
<path d="M163.81 223.81C156.191 241.905 135.239 249.524 117.144 240.953C99.0485 232.382 91.4294 212.382 100.001 194.286C107.62 176.191 128.572 168.572 146.668 177.143C154.287 180.953 160.953 186.667 163.81 194.286H191.429C183.81 160.953 150.477 140.953 117.144 149.524C83.8104 157.143 63.8104 190.477 72.3818 223.81C80.9532 257.143 113.334 277.143 146.668 268.572C168.572 262.858 186.668 245.715 191.429 223.81H163.81Z" fill="white"/>
<path d="M266.666 147.619H261.904C251.428 148.571 240.952 152.381 231.428 158.095V89.5234H206.666V265.714H231.428V259.047C247.618 270.476 269.523 272.381 287.618 265.714C294.285 262.857 299.999 260 305.714 255.238C331.428 233.333 334.285 194.285 312.38 168.571C301.904 155.238 284.761 147.619 266.666 147.619ZM301.904 214.285V215.238C301.904 217.142 300.952 218.095 300.952 220C300.952 221.904 299.999 222.857 299.047 224.762C295.237 232.381 289.523 238.095 281.904 241.904C279.999 242.857 277.142 243.809 275.237 244.762H271.428H266.666H261.904H260.952C258.095 243.809 255.237 242.857 252.38 241.904C249.523 240.952 246.666 239.047 244.761 236.19C241.904 234.285 239.999 231.428 239.047 228.571C239.047 226.666 237.142 225.714 237.142 223.809C235.237 219.047 234.285 214.285 234.285 209.523C234.285 204.762 235.237 199.047 237.142 194.285C242.856 182.857 253.333 175.238 265.714 174.285H269.523C288.571 174.285 304.761 190.476 304.761 209.523C302.856 210.476 301.904 212.381 301.904 214.285Z" fill="white"/>
</g>
<defs>
<clipPath id="clip0_293_12">
<rect width="400" height="400" fill="white"/>
</clipPath>
</defs>
</svg>
