<svg width="400" height="400" viewBox="0 0 400 400" fill="none" xmlns="http://www.w3.org/2000/svg">
<g clip-path="url(#clip0_293_51)">
<rect width="400" height="400" fill="#01293D"/>
<path d="M184.435 245.903L200.379 265.407L216.304 245.903L221.982 239.089L231.304 236.756L257.161 230.318L250.651 207.827L248.894 201.947L250.651 196.16L257.161 173.577L231.304 167.231L221.982 164.898L216.304 157.992L200.379 138.58L184.435 157.992L178.757 164.898L169.436 167.231L143.578 173.577L150.107 196.16L151.864 201.947L150.107 207.827L143.578 230.318L169.436 236.756L178.757 239.089L184.435 245.903Z" fill="#A2E2FC"/>
<path d="M143.473 255.348L110.161 247.041L118.965 216.805H42.6145L0 300.049L101.172 320.394L143.473 255.348Z" fill="#0283AA"/>
<path d="M299.975 79.7969L255.511 148.296L290.56 156.881L281.775 187.212H355.426L400 100.049L299.975 79.7969Z" fill="#1FC3EA"/>
<path d="M357.377 216.805H281.766L290.551 247.041L256.63 255.44L298.93 320.394L399.991 300.049L357.377 216.805Z" fill="#0283AA"/>
<path d="M228.622 272.519L200.379 306.956L171.822 272.053L130.446 335.605L200.065 399.999L269.683 335.605L228.622 272.519Z" fill="#0283AA"/>
<path d="M118.965 187.212L110.161 156.881L144.619 148.39L100.026 79.7969L0 100.049L44.5751 187.212H118.965Z" fill="#1FC3EA"/>
<path d="M172.544 131.119L200.362 97.0567L227.884 130.559L270.387 65.1397L200.047 0L129.615 65.1397L172.544 131.119Z" fill="#1FC3EA"/>
</g>
<defs>
<clipPath id="clip0_293_51">
<rect width="400" height="400" fill="white"/>
</clipPath>
</defs>
</svg>
