<svg width="400" height="281" viewBox="0 0 400 281" fill="none" xmlns="http://www.w3.org/2000/svg">
<path d="M199.737 160.571C243.919 160.571 279.737 124.626 279.737 80.2854C279.737 35.945 243.919 0 199.737 0C155.554 0 119.736 35.945 119.736 80.2854C119.736 124.626 155.554 160.571 199.737 160.571Z" fill="#FFCD00"/>
<path d="M200.262 200.714C200.175 200.714 200.088 200.715 200.001 200.715C143.93 200.715 96.8414 162.122 83.6705 109.961C79.6187 93.9135 66.628 80.2866 50.1328 80.2866H0C0 191.138 89.5434 281 200.001 281C200.088 281 200.175 281 200.262 281V200.714Z" fill="#00ECBB"/>
<path d="M199.738 200.714C199.826 200.714 199.913 200.715 200 200.715C256.071 200.715 303.16 162.122 316.33 109.961C320.382 93.9135 333.373 80.2866 349.868 80.2866H400C400 191.138 310.457 281 200 281C199.913 281 199.826 281 199.738 281V200.714Z" fill="#AF64FF"/>
<path d="M341.426 222.211C305.233 258.533 255.233 280.998 200.004 280.998C144.775 280.998 94.7751 258.533 58.582 222.211L115.151 165.44C136.867 187.234 166.867 200.713 200.004 200.713C233.141 200.713 263.141 187.234 284.857 165.44L341.426 222.211Z" fill="#7131FF"/>
</svg>
