<svg width="400" height="400" viewBox="0 0 400 400" fill="none" xmlns="http://www.w3.org/2000/svg">
<path d="M45.4558 90.6505C19.8579 90.6505 -0.738147 111.84 0.144538 137.741C1.02722 161.285 20.1522 180.414 43.6905 181.297C69.5826 182.18 90.7673 161.579 90.7673 135.975V119.198C90.7673 103.306 103.419 90.6505 119.307 90.6505H135.49C160.206 90.6505 180.801 71.2261 181.39 46.7983C182.272 21.1933 161.676 0.297374 136.373 0.00302705C111.069 -0.291171 90.7673 20.8991 90.7673 46.2097V65.0455C90.7673 79.1724 79.2923 90.6505 65.1692 90.6505H45.4558Z" fill="#66FF66"/>
<path d="M90.7673 263.998C90.7673 238.392 69.5826 217.791 43.6905 218.674C20.1522 219.557 1.02722 238.687 0.144538 262.232C-0.738147 288.131 19.8579 309.321 45.4558 309.321H62.227C78.1154 309.321 90.7673 321.977 90.7673 337.869V354.056C90.7673 378.778 110.186 399.379 134.607 399.969C160.206 400.852 181.095 380.249 181.39 354.939C181.684 329.628 160.5 309.321 135.196 309.321H116.365C102.242 309.321 90.7673 297.844 90.7673 283.716V263.998Z" fill="#66FF66"/>
<path d="M168.098 322.554C149.856 304.307 120.433 304.895 102.78 323.732C86.8912 341.095 86.8912 368.171 102.78 385.243C120.433 404.078 149.856 404.666 168.098 386.419L179.867 374.646C191.048 363.464 208.997 363.464 220.178 374.646L231.651 386.125C249.012 403.489 277.258 404.371 295.206 387.596C313.742 369.939 314.33 340.802 296.383 322.849C278.728 304.895 249.306 305.19 231.651 323.142L218.412 336.387C208.409 346.394 192.226 346.394 182.222 336.387L168.098 322.554Z" fill="#66FF66"/>
<path d="M264.039 309.326C238.44 309.326 217.844 330.516 218.727 356.416C219.61 379.961 238.734 399.09 262.273 399.973C288.165 400.855 309.349 380.254 309.349 354.65V337.874C309.349 321.982 322.001 309.326 337.889 309.326H354.072C378.788 309.326 399.384 289.901 399.972 265.474C400.855 239.868 380.259 218.972 354.956 218.679C329.651 218.384 309.349 239.575 309.349 264.886V283.721C309.349 297.847 297.874 309.326 283.752 309.326H264.039Z" fill="#66FF66"/>
<path d="M13.3217 232.208C-4.92045 250.456 -4.33199 279.888 14.4986 297.545C31.8582 313.439 58.9273 313.439 75.9926 297.545C94.8234 279.888 95.4118 250.456 77.1695 232.208L65.4005 220.436C54.2196 209.253 54.2196 191.299 65.4005 180.116L76.8754 168.639C94.2348 151.274 95.1175 123.02 78.3465 105.067C60.6928 86.5257 31.5639 85.937 13.616 103.89C-4.33197 121.549 -4.03775 150.979 13.9103 168.639L27.1505 181.882C37.1543 191.889 37.1543 208.076 27.1505 218.082L13.3217 232.208Z" fill="#66FF66"/>
<path d="M322.592 232.208C304.349 250.456 304.937 279.888 323.768 297.545C341.129 313.439 368.197 313.439 385.263 297.545C404.093 279.888 404.682 250.456 386.44 232.208L374.67 220.436C363.489 209.253 363.489 191.299 374.67 180.116L386.145 168.639C403.504 151.274 404.388 123.02 387.616 105.067C369.963 86.5257 340.835 85.937 322.886 103.89C304.937 121.549 305.233 150.979 323.18 168.639L336.42 181.882C346.424 191.889 346.424 208.076 336.42 218.082L322.592 232.208Z" fill="#66FF66"/>
<path d="M264.069 90.6473C289.092 90.6473 309.379 70.3552 309.379 45.3236C309.379 20.2921 289.092 0 264.069 0C239.043 0 218.758 20.2921 218.758 45.3236C218.758 70.3552 239.043 90.6473 264.069 90.6473Z" fill="#66FF66"/>
</svg>
