<svg width="400" height="400" viewBox="0 0 400 400" fill="none" xmlns="http://www.w3.org/2000/svg">
<g clip-path="url(#clip0_268_47)">
<path fill-rule="evenodd" clip-rule="evenodd" d="M26.0438 399.445H0.125V339.778H26.0438C44.7171 339.778 54.0663 349.182 54.0663 367.985C54.0663 388.947 44.7171 399.445 26.0438 399.445ZM11.2081 389.841H24.3698C36.7771 389.841 42.9732 382.556 42.9732 367.975C42.9732 355.563 36.7771 349.357 24.3698 349.357H11.2081V389.841ZM65.679 399.445H54.3011L79.6803 339.778H91.5928L117.527 399.445H105.604L98.0788 383.171H78.9258L82.7334 373.582H95.1556L85.3667 351.166L65.679 399.445ZM111.261 339.778H156.632V349.372H139.488V399.445H128.41V349.372H111.256L111.261 339.778ZM162.329 399.445H150.951L176.335 339.778H188.247L214.176 399.445H202.254L194.728 383.171H175.575L179.373 373.582H191.795L182.006 351.166L162.329 399.445ZM247.445 399.445H221.527V339.778H247.445C266.129 339.778 275.468 349.182 275.468 367.985C275.468 388.947 266.129 399.445 247.445 399.445ZM232.605 389.841H245.776C258.174 389.841 264.385 382.556 264.385 367.975C264.385 355.563 258.174 349.357 245.776 349.357H232.605V389.841ZM282.968 369.694C282.968 349.462 292.987 339.348 312.999 339.348C332.707 339.348 342.556 349.462 342.556 369.694C342.556 389.806 332.707 399.875 312.999 399.875C293.871 399.87 283.873 389.806 282.968 369.694ZM312.999 390.256C325.037 390.256 331.058 383.32 331.058 369.439C331.058 355.773 325.037 348.932 312.999 348.932C300.647 348.932 294.476 355.773 294.476 369.439C294.481 383.32 300.652 390.256 312.999 390.256ZM388.792 375.3V389.267C386.234 389.936 383.94 390.261 381.936 390.261C368.38 390.261 361.614 383.101 361.614 368.775C361.614 355.548 368.8 348.937 383.146 348.937C389.142 348.937 394.713 350.051 399.87 352.28V342.261C394.718 340.317 388.867 339.338 382.311 339.338C360.85 339.338 350.111 349.142 350.111 368.77C350.111 389.487 360.665 399.865 381.766 399.865C389.027 399.865 395.058 398.806 399.875 396.687V365.472H381.981L378.239 375.29H388.792V375.3Z" fill="#632CA6"/>
<path fill-rule="evenodd" clip-rule="evenodd" d="M299.996 225.225L273.623 207.826L251.621 244.578L226.032 237.098L203.501 271.486L204.656 282.309L327.164 259.734L320.049 183.186L299.996 225.225ZM185.753 192.226L205.41 189.522C208.588 190.952 210.802 191.496 214.615 192.466C220.556 194.01 227.427 195.494 237.605 190.367C239.974 189.193 244.911 184.681 246.904 182.107L327.434 167.501L335.649 266.929L197.68 291.794L185.753 192.226ZM335.339 156.398L327.389 157.912L312.119 0.130859L51.9062 30.302L83.9662 290.449L114.427 286.027C111.994 282.554 108.206 278.352 101.74 272.975C92.7707 265.525 95.9387 252.863 101.235 244.868C108.236 231.361 144.308 214.197 142.265 192.611C141.53 184.76 140.286 174.547 132.996 167.541C132.721 170.449 133.215 173.243 133.215 173.243C133.215 173.243 130.222 169.425 128.733 164.223C127.254 162.225 126.09 161.59 124.516 158.922C123.392 162.005 123.541 165.582 123.541 165.582C123.541 165.582 121.093 159.801 120.698 154.919C119.249 157.103 118.884 161.25 118.884 161.25C118.884 161.25 115.706 152.136 116.431 147.224C114.982 142.952 110.68 134.472 111.894 115.204C119.834 120.765 137.318 119.446 144.129 109.408C146.387 106.08 147.941 97.0053 142.999 79.1165C139.826 67.6487 131.971 50.5693 128.908 44.0884L128.543 44.3532C130.157 49.575 133.485 60.5131 134.764 65.8248C138.632 81.9147 139.666 87.5212 137.853 94.9416C136.308 101.393 132.606 105.61 123.222 110.327C113.838 115.059 101.38 103.541 100.596 102.907C91.4765 95.6412 84.4209 83.7936 83.6364 78.0322C82.8169 71.7311 87.2691 67.9485 89.5127 62.7967C86.2998 63.7111 82.722 65.3451 82.722 65.3451C82.722 65.3451 86.9943 60.9229 92.261 57.1003C94.4447 55.6562 95.7239 54.7367 98.0224 52.8279C94.6945 52.773 91.9912 52.8679 91.9912 52.8679C91.9912 52.8679 97.5427 49.8698 103.294 47.6861C99.0868 47.5013 95.0543 47.6562 95.0543 47.6562C95.0543 47.6562 107.442 42.1146 117.22 38.0522C123.946 35.2939 130.517 36.1084 134.21 41.45C139.057 48.4457 144.149 52.2433 154.937 54.5968C161.563 51.6587 163.571 50.1546 171.896 47.881C179.222 39.8211 184.973 38.7817 184.973 38.7817C184.973 38.7817 182.12 41.4001 181.355 45.5125C185.508 42.2395 190.06 39.5062 190.06 39.5062C190.06 39.5062 188.296 41.6799 186.652 45.1377L187.032 45.7074C191.879 42.7992 197.575 40.5106 197.575 40.5106C197.575 40.5106 195.946 42.5693 194.037 45.2327C197.695 45.2027 205.105 45.3876 207.984 45.7124C224.968 46.0871 228.491 27.5787 235.007 25.2552C243.167 22.342 246.814 20.5781 260.721 34.2395C272.648 45.9722 281.972 66.9591 277.34 71.6612C273.458 75.5637 265.803 70.1371 257.318 59.5637C252.836 53.9622 249.443 47.3414 247.854 38.9266C246.515 31.826 241.298 27.7086 241.298 27.7086C241.298 27.7086 244.321 34.4544 244.321 40.3957C244.321 43.6437 244.726 55.7811 249.932 62.5968C249.418 63.5912 249.178 67.5237 248.608 68.2783C242.552 60.9578 229.545 55.7211 227.422 54.1771C234.602 60.0584 251.102 73.57 257.438 86.5269C263.434 98.7742 259.901 110.002 262.934 112.905C263.799 113.735 275.826 128.725 278.14 136.256C282.177 149.378 278.38 163.174 273.098 171.729L258.342 174.027C256.184 173.428 254.729 173.128 252.796 172.008C253.865 170.12 255.984 165.413 256.004 164.438L255.169 162.979C250.577 169.485 242.887 175.801 236.496 179.429C228.131 184.171 218.492 183.436 212.216 181.497C194.407 176.006 177.563 163.968 173.5 160.805C173.5 160.805 173.375 163.329 174.14 163.898C178.627 168.965 188.916 178.125 198.864 184.516L177.663 186.849L187.686 264.885C183.244 265.52 182.55 265.835 177.688 266.524C173.4 251.379 165.2 241.49 156.236 235.729C148.331 230.647 137.428 229.503 126.994 231.571L126.325 232.351C133.58 231.596 142.145 232.646 150.944 238.217C159.579 243.679 166.54 257.785 169.103 266.275C172.386 277.128 174.655 288.74 165.82 301.048C159.539 309.797 141.2 314.629 126.38 304.171C130.337 310.537 135.684 315.739 142.889 316.718C153.583 318.172 163.731 316.313 170.717 309.143C176.678 303.012 179.846 290.19 179.012 276.688L188.451 275.319L191.859 299.554L348.086 280.74L335.339 156.398ZM240.288 90.5843C239.854 91.5787 239.164 92.2333 240.194 95.4713L240.254 95.6562L240.418 96.0759L240.848 97.0453C242.702 100.838 244.736 104.411 248.144 106.24C249.023 106.09 249.937 105.99 250.882 105.945C254.08 105.805 256.099 106.31 257.373 106.999C257.488 106.359 257.513 105.43 257.443 104.056C257.193 99.2539 258.392 91.089 249.163 86.7917C245.68 85.1777 240.793 85.6724 239.164 87.6911C239.459 87.7311 239.724 87.7911 239.934 87.861C242.402 88.7155 240.733 89.565 240.288 90.5843ZM266.162 135.386C264.953 134.717 259.297 134.982 255.319 135.456C247.744 136.351 239.564 138.974 237.775 140.373C234.517 142.892 235.996 147.279 238.405 149.083C245.155 154.125 251.072 157.507 257.313 156.683C261.145 156.178 264.528 150.107 266.922 144.601C268.561 140.808 268.561 136.715 266.162 135.386ZM199.099 96.5256C201.233 94.4969 188.461 91.8335 178.547 98.5943C171.237 103.581 171.002 114.275 178.002 120.336C178.702 120.935 179.282 121.36 179.816 121.71C181.86 120.745 184.189 119.776 186.872 118.907C191.399 117.438 195.167 116.678 198.26 116.273C199.739 114.619 201.463 111.706 201.033 106.429C200.443 99.2689 195.027 100.403 199.099 96.5256Z" fill="#632CA6"/>
</g>
<defs>
<clipPath id="clip0_268_47">
<rect width="400" height="400" fill="white"/>
</clipPath>
</defs>
</svg>
