<svg width="400" height="400" viewBox="0 0 400 400" fill="none" xmlns="http://www.w3.org/2000/svg">
<g clip-path="url(#clip0_212_41)">
<path d="M400 296.19V225.714L392.02 220.952L200.499 320.952L18.9526 225.714V184.762L200.499 279.048L400.998 175.238V105.714L393.017 100.952L200.499 201.905L25.9352 110.476L200.499 19.0476L341.147 92.381L352.12 86.6667V79.0476L200.499 0L0 103.81V114.286L200.499 219.048L382.045 123.81V165.714L200.499 260.952L7.98005 160L0 164.762V235.238L200.499 339.048L382.045 244.762V285.714L200.499 380.952L7.98005 280.952L0 285.714V296.19L200.499 400L400 296.19Z" fill="#FF3621"/>
</g>
<defs>
<clipPath id="clip0_212_41">
<rect width="400" height="400" fill="white"/>
</clipPath>
</defs>
</svg>
