<svg width="400" height="400" viewBox="0 0 400 400" fill="none" xmlns="http://www.w3.org/2000/svg">
<g clip-path="url(#clip0_222_14)">
<path fill-rule="evenodd" clip-rule="evenodd" d="M264.968 136.306C281.529 152.867 291.72 175.797 291.72 200.001C291.72 249.682 250.955 290.446 201.274 290.446H109.554L72.6113 327.389H200C270.064 327.389 327.388 270.064 327.388 200.001C327.388 164.332 313.376 132.485 290.446 109.555L264.968 136.306Z" fill="#05CBBF"/>
<path fill-rule="evenodd" clip-rule="evenodd" d="M315.924 84.0773C345.223 113.377 364.331 154.141 364.331 200.001C364.331 290.447 290.446 364.332 200 364.332H36.9427L0 400.001H200C310.828 400.001 400 310.829 400 200.001C400 145.224 377.07 94.2684 341.401 58.5996L315.924 84.0773Z" fill="#05CBBF"/>
<path fill-rule="evenodd" clip-rule="evenodd" d="M200 72.6113H0V109.554H136.306L0 245.86V298.089L222.93 75.1592C215.287 73.8853 207.643 72.6113 200 72.6113Z" fill="#304953"/>
<path fill-rule="evenodd" clip-rule="evenodd" d="M313.383 35.6688C281.535 12.7389 242.045 0 200.007 0H0.00683594V36.9427H200.007C231.854 36.9427 262.427 45.8599 286.631 62.4204L0.00683594 349.045V401.274L341.408 59.8726C333.765 49.6815 323.574 42.0383 313.383 35.6688Z" fill="#304953"/>
</g>
<defs>
<clipPath id="clip0_222_14">
<rect width="400" height="400" fill="white"/>
</clipPath>
</defs>
</svg>
