<svg width="400" height="140" viewBox="0 0 400 140" fill="none" xmlns="http://www.w3.org/2000/svg">
<path d="M325.407 137.276C324.824 137.276 324.352 136.8 324.352 136.213V8.22736C324.352 7.72347 324.703 7.28895 325.193 7.18692L347.408 2.56536C348.063 2.42904 348.677 2.93252 348.677 3.60578V136.213C348.677 136.8 348.205 137.276 347.622 137.276H325.407Z" fill="#1C4396"/>
<path d="M46.3714 139.984C37.5026 139.984 29.5839 137.817 22.6155 133.482C15.6472 129.148 10.1358 123.219 6.08151 115.697C2.02717 108.176 0 99.6338 0 90.0718C0 80.5104 2.02717 72.0322 6.08151 64.6379C10.1358 57.1158 15.6472 51.2513 22.6155 47.0441C29.5839 42.7095 37.5026 40.5422 46.3714 40.5422C53.4665 40.5422 59.6748 41.8808 64.9959 44.5581C69.2701 46.7085 72.8904 49.5579 75.8562 53.1065C76.5246 53.9059 77.9194 53.4513 77.9194 52.4067V5.92652C77.9194 5.4227 78.2707 4.98814 78.7612 4.88613L100.976 0.264574C101.631 0.128261 102.245 0.631742 102.245 1.305V136.627C102.245 137.214 101.772 137.689 101.19 137.689H81.4475C80.9432 137.689 80.5096 137.331 80.4116 136.832L78.3867 126.499C78.2087 125.589 77.0232 125.318 76.433 126.03C73.5983 129.452 70.0388 132.51 65.7559 135.203C60.8151 138.39 54.3533 139.984 46.3714 139.984ZM51.5027 118.566C59.3577 118.566 65.7559 115.953 70.6974 110.725C75.7652 105.371 78.2991 98.5499 78.2991 90.2631C78.2991 81.9763 75.7652 75.2195 70.6974 69.9923C65.7559 64.6379 59.3577 61.9604 51.5027 61.9604C43.7741 61.9604 37.3758 64.5737 32.3079 69.8009C27.24 75.0282 24.7061 81.7849 24.7061 90.0718C24.7061 98.3586 27.24 105.18 32.3079 110.534C37.3758 115.888 43.7741 118.566 51.5027 118.566Z" fill="#1C4396"/>
<path d="M161.56 140C152.058 140 143.633 137.96 136.285 133.881C128.936 129.801 123.172 124.064 118.99 116.67C114.809 109.276 112.719 100.734 112.719 91.0447C112.719 81.2278 114.746 72.4947 118.8 64.8454C122.981 57.196 128.683 51.2677 135.904 47.0605C143.253 42.7259 151.868 40.5586 161.751 40.5586C171 40.5586 179.172 42.5984 186.267 46.6781C193.362 50.7578 198.873 56.3673 202.801 63.5067C206.855 70.5184 208.882 78.3595 208.882 87.0284C208.882 88.4308 208.819 89.8973 208.692 91.4268C208.692 92.6524 208.652 93.9188 208.57 95.2266C208.536 95.7802 208.076 96.2078 207.525 96.2078H137.986C137.374 96.2078 136.889 96.7304 136.949 97.3429C137.629 104.198 140.132 109.621 144.457 113.61C149.144 117.817 154.783 119.921 161.371 119.921C166.312 119.921 170.429 118.837 173.724 116.67C176.948 114.508 179.384 111.779 181.032 108.483C181.217 108.114 181.588 107.873 181.999 107.873H204.616C205.322 107.873 205.829 108.558 205.606 109.232C203.798 114.697 200.962 119.725 197.1 124.319C193.045 129.164 187.977 132.989 181.896 135.793C175.941 138.598 169.163 140 161.56 140ZM161.751 60.4471C155.796 60.4471 150.538 62.1679 145.977 65.6102C141.697 68.7211 138.867 73.4029 137.487 79.6574C137.344 80.3061 137.844 80.9093 138.504 80.9093H183.054C183.663 80.9093 184.147 80.3924 184.086 79.7834C183.512 74.0621 181.261 69.4649 177.334 65.9929C173.154 62.2957 167.959 60.4471 161.751 60.4471Z" fill="#1C4396"/>
<path d="M267.385 140C257.883 140 249.457 137.96 242.109 133.881C234.76 129.801 228.996 124.064 224.815 116.67C220.633 109.276 218.543 100.734 218.543 91.0447C218.543 81.2278 220.57 72.4947 224.625 64.8454C228.806 57.196 234.507 51.2677 241.729 47.0605C249.077 42.7259 257.693 40.5586 267.575 40.5586C276.824 40.5586 284.996 42.5984 292.091 46.6781C299.186 50.7578 304.698 56.3673 308.625 63.5067C312.68 70.5184 314.707 78.3595 314.707 87.0284C314.707 88.4308 314.643 89.8973 314.517 91.4268C314.517 92.6524 314.476 93.9188 314.395 95.2266C314.36 95.7802 313.901 96.2078 313.349 96.2078H243.81C243.199 96.2078 242.713 96.7304 242.774 97.3429C243.454 104.198 245.956 109.621 250.281 113.61C254.969 117.817 260.607 119.921 267.195 119.921C272.137 119.921 276.254 118.837 279.548 116.67C282.772 114.508 285.208 111.779 286.857 108.483C287.042 108.114 287.413 107.873 287.824 107.873H310.44C311.146 107.873 311.653 108.558 311.43 109.232C309.622 114.697 306.786 119.725 302.924 124.319C298.869 129.164 293.802 132.989 287.72 135.793C281.766 138.598 274.987 140 267.385 140ZM267.575 60.4471C261.621 60.4471 256.363 62.1679 251.802 65.6102C247.521 68.7211 244.691 73.4029 243.312 79.6574C243.169 80.3061 243.668 80.9093 244.328 80.9093H288.878C289.487 80.9093 289.971 80.3924 289.911 79.7834C289.336 74.0621 287.086 69.4649 283.159 65.9929C278.978 62.2957 273.784 60.4471 267.575 60.4471Z" fill="#1C4396"/>
<path d="M380.555 137.303C389.6 137.303 396.933 129.925 396.933 120.824C396.933 111.722 389.6 104.344 380.555 104.344C371.51 104.344 364.178 111.722 364.178 120.824C364.178 129.925 371.51 137.303 380.555 137.303Z" fill="#2C71F0"/>
</svg>
