<svg width="400" height="400" viewBox="0 0 400 400" fill="none" xmlns="http://www.w3.org/2000/svg">
<path d="M346.852 108.519C343.674 106.963 342.307 109.929 340.449 111.435C339.813 111.92 339.274 112.551 338.738 113.134C334.094 118.092 328.667 121.348 321.577 120.959C311.214 120.377 302.363 123.633 294.542 131.554C292.879 121.786 287.355 115.951 278.947 112.211C274.547 110.267 270.098 108.322 267.017 104.094C264.867 101.081 264.28 97.7272 263.204 94.4222C262.521 92.4308 261.834 90.3885 259.537 90.0472C257.043 89.6583 256.064 91.7474 255.088 93.4991C251.176 100.644 249.661 108.517 249.809 116.487C250.152 134.422 257.729 148.709 272.788 158.869C274.498 160.036 274.938 161.202 274.401 162.902C273.374 166.403 272.152 169.804 271.077 173.304C270.392 175.54 269.364 176.026 266.969 175.054C258.707 171.605 251.568 166.5 245.261 160.328C234.554 149.975 224.875 138.554 212.798 129.61C210.004 127.545 207.133 125.583 204.194 123.729C191.873 111.774 205.808 101.955 209.034 100.789C212.407 99.5734 210.208 95.3945 199.304 95.4429C188.401 95.4913 178.427 99.1361 165.717 103.997C163.859 104.727 161.904 105.261 159.898 105.697C148.361 103.509 136.383 103.024 123.867 104.433C100.301 107.056 81.4799 118.187 67.6444 137.191C51.0227 160.038 47.1103 185.99 51.9019 213.062C56.9373 241.591 71.5059 265.213 93.8977 283.682C117.12 302.829 143.864 312.211 174.369 310.412C192.898 309.344 213.531 306.866 236.802 287.18C242.669 290.095 248.828 291.263 259.047 292.138C266.918 292.868 274.496 291.749 280.363 290.535C289.555 288.591 288.919 280.085 285.594 278.531C258.657 265.993 264.57 271.096 259.193 266.964C272.882 250.78 293.515 233.964 301.581 179.479C302.216 175.155 301.677 172.433 301.581 168.933C301.532 166.796 302.02 165.969 304.466 165.726C311.212 164.947 317.763 163.102 323.776 159.796C341.23 150.27 348.271 134.62 349.933 115.86C350.177 112.993 349.885 110.027 346.852 108.522V108.519ZM194.758 277.361C168.65 256.853 155.988 250.095 150.758 250.387C145.869 250.68 146.748 256.269 147.824 259.914C148.948 263.511 150.416 265.989 152.468 269.148C153.886 271.238 154.865 274.347 151.052 276.682C142.643 281.881 128.024 274.932 127.339 274.591C110.326 264.579 96.0986 251.36 86.0753 233.28C76.396 215.879 70.7729 197.218 69.8452 177.29C69.6006 172.479 71.0191 170.776 75.8091 169.903C82.1153 168.735 88.6177 168.492 94.9247 169.415C121.569 173.304 144.253 185.211 163.272 204.069C174.126 214.808 182.339 227.641 190.798 240.179C199.794 253.496 209.474 266.182 221.794 276.583C226.145 280.228 229.615 282.999 232.941 285.041C222.918 286.158 206.197 286.402 194.758 277.361ZM207.386 195.99C207.799 194.315 209.308 193.087 211.136 193.087C211.587 193.088 212.034 193.17 212.455 193.329C212.994 193.524 213.482 193.816 213.874 194.252C214.558 194.934 214.949 195.905 214.949 196.925C214.949 199.064 213.238 200.764 211.088 200.764C210.18 200.773 209.299 200.454 208.608 199.865C207.917 199.277 207.461 198.459 207.324 197.562C207.24 197.04 207.261 196.505 207.386 195.99ZM244.88 217.353C242.81 218.144 240.75 218.764 238.759 218.845C235.042 219.039 230.985 217.532 228.786 215.685C225.365 212.818 222.92 211.216 221.893 206.208C221.453 204.069 221.697 200.764 222.088 198.869C222.968 194.786 221.99 192.161 219.107 189.78C216.761 187.836 213.777 187.302 210.502 187.302C209.28 187.302 208.156 186.768 207.324 186.331C205.955 185.651 204.831 183.949 205.907 181.859C206.25 181.179 207.912 179.526 208.304 179.236C212.751 176.708 217.886 177.534 222.627 179.429C227.027 181.228 230.352 184.532 235.143 189.197C240.032 194.834 240.912 196.391 243.7 200.619C245.9 203.923 247.904 207.327 249.273 211.214C249.97 213.246 249.33 214.976 247.414 216.196C246.635 216.692 245.739 217.024 244.88 217.353Z" fill="#4D6BFE"/>
</svg>
