<svg width="400" height="400" viewBox="0 0 400 400" fill="none" xmlns="http://www.w3.org/2000/svg">
<rect x="49" y="49" width="302" height="302" fill="black"/>
<path fill-rule="evenodd" clip-rule="evenodd" d="M262.054 129.992C280.868 149.121 290.986 174.405 290.589 201.178V201.145C289.762 255.055 244.497 298.905 189.709 298.905H112.734C111.279 298.905 110.552 297.151 111.577 296.092L149.039 258.397C149.667 257.769 150.494 257.405 151.387 257.405H190.436C221.848 257.405 248.167 232.253 249.093 201.377C249.556 185.623 243.77 170.731 232.792 159.413C221.814 148.095 207.101 141.873 191.395 141.873H151.651V206.142C151.651 206.704 151.221 207.134 150.659 207.134H111.147C110.585 207.134 110.155 206.704 110.155 206.142V101.333C110.155 100.77 110.585 100.34 111.147 100.34H191.395C218.144 100.34 243.24 110.864 262.054 129.992Z" fill="white"/>
</svg>
