<svg width="400" height="400" viewBox="0 0 400 400" fill="none" xmlns="http://www.w3.org/2000/svg">
<g clip-path="url(#clip0_281_22)">
<path d="M160.625 91.875C103.125 111.875 82.5 161.25 136.25 201.25C154.375 160 176.25 106.875 213.75 86.25C209.375 85.625 204.375 85.625 199.375 85.625C186.25 85 173.125 87.5 160.625 91.875ZM245.625 94.375C205 111.875 183.125 175.625 167.5 219.375C208.125 239.375 256.25 250 300.625 255C310 238.75 315 219.375 315 199.375C314.375 153.125 286.25 112.5 245.625 94.375ZM128.125 298.125C147.5 312.5 171.25 320.625 196.875 320.625C232.5 320.625 266.875 298.75 288.125 273.125C246.25 266.25 200.625 255.625 160.625 238.75C153.125 257.5 139.375 281.25 128.125 298.125ZM0 200C0 310.625 89.375 400 200 400C310.625 400 400 310.625 400 200C400 89.375 310.625 0 200 0C89.375 0 0 89.375 0 200ZM107.5 321.875C98.75 315.625 86.875 304.375 81.875 296.25C80 293.125 80 290 82.5 287.5C98.75 266.25 115 246.875 126.875 222.5C42.5 174.375 60.625 96.875 131.875 63.125C152.5 53.125 175.625 47.5 200 47.5C284.375 47.5 353.125 116.25 353.125 200.625C353.125 285 284.375 353.125 200 353.125C166.875 353.125 135.625 342.5 110.625 324.375L107.5 321.875Z" fill="black"/>
</g>
<defs>
<clipPath id="clip0_281_22">
<rect width="400" height="400" fill="white"/>
</clipPath>
</defs>
</svg>
