<svg width="400" height="400" viewBox="0 0 400 400" fill="none" xmlns="http://www.w3.org/2000/svg">
<path d="M6.22568 0H393.774C397.332 0 400 2.89049 400 6.22568V393.774C400 397.332 397.11 400 393.774 400H6.22568C2.66815 400 0 397.11 0 393.774V6.22568C0 2.89049 2.89049 0 6.22568 0Z" fill="#353944"/>
<path d="M146.971 279.488C146.304 271.261 142.746 249.027 122.068 205.892C98.9443 157.42 95.6091 124.068 95.3867 111.839C123.847 111.839 146.971 134.963 146.971 163.424V279.488Z" fill="url(#paint0_linear_75_849)"/>
<path d="M95.3884 111.84C95.8331 123.847 99.1682 157.199 122.07 205.67C142.748 249.027 146.306 271.04 146.973 279.266H190.108C233.687 279.266 269.93 244.803 270.819 201.223C271.486 157.421 236.578 121.179 192.776 120.512H189.441C160.98 120.734 137.856 97.8323 137.856 69.3721H189.663C261.703 69.3721 321.514 126.96 321.959 199C322.403 271.262 264.371 330.184 192.109 330.628H100.058C97.3895 330.628 95.166 328.405 95.166 325.737V111.84H95.3884Z" fill="white"/>
<defs>
<linearGradient id="paint0_linear_75_849" x1="121.13" y1="123.235" x2="121.13" y2="276.079" gradientUnits="userSpaceOnUse">
<stop stop-color="#BFDA33"/>
<stop offset="1" stop-color="#3F4811"/>
</linearGradient>
</defs>
</svg>
