<svg width="400" height="400" viewBox="0 0 400 400" fill="none" xmlns="http://www.w3.org/2000/svg">
<g clip-path="url(#clip0_536_124)">
<path fill-rule="evenodd" clip-rule="evenodd" d="M73 322.824C73 339.412 83.5644 350 100.115 350H178.996C226.184 350 264.568 334.118 290.627 306.235H73V322.824ZM178.996 50H100.115C83.5644 50 73 60.5882 73 77.1765V94.1176H290.627C264.216 65.8824 225.832 50 178.996 50ZM247.665 242.706C247.665 256.118 256.116 264.588 269.498 264.588H316.686C321.968 251.176 325.489 236.706 327.25 220.824H269.498C256.116 220.824 247.665 229.647 247.665 242.706ZM182.166 157.294C182.166 170.706 190.617 179.176 203.999 179.176H327.25C325.489 163.294 321.968 148.824 316.686 135.412H203.999C190.617 135.412 182.166 144.235 182.166 157.294ZM203.999 242.706C203.999 229.294 195.547 220.824 182.166 220.824H73V264.588H182.166C195.547 264.588 203.999 256.118 203.999 242.706ZM138.499 157.294C138.499 143.882 130.048 135.412 116.666 135.412H73V179.176H116.666C130.048 179.176 138.499 170.706 138.499 157.294Z" fill="#0062FF"/>
</g>
<defs>
<clipPath id="clip0_536_124">
<rect width="254.25" height="300" fill="white" transform="translate(73 50)"/>
</clipPath>
</defs>
</svg>
