<svg width="400" height="143" viewBox="0 0 400 143" fill="none" xmlns="http://www.w3.org/2000/svg">
<path d="M239.799 89.6897L264.652 53.6696C265.995 51.5084 265.995 48.6267 264.652 46.4655C263.644 45.0247 261.965 44.3043 259.278 44.3043H254.576C252.561 44.3043 250.546 45.3849 249.539 47.1859L230.059 75.6419L210.916 47.5461C209.572 45.3849 207.221 44.3043 204.534 44.3043H200.84C198.489 44.3043 196.81 45.0247 195.466 46.4655C193.787 48.6267 193.787 51.5084 195.466 53.6696L220.319 89.6897L192.78 130.032C191.436 132.193 191.436 135.075 193.115 137.236C194.123 138.677 195.802 139.398 197.482 139.398H203.191C204.87 139.398 206.55 138.317 207.557 136.876L230.059 103.738L252.561 136.516C253.905 138.317 255.584 139.398 257.599 139.398H263.309C265.324 139.398 267.339 138.317 268.346 136.156C269.354 133.994 269.018 131.833 268.01 130.032L239.799 89.6897ZM286.818 44.3043H285.811C281.445 44.3043 278.422 47.5461 278.422 51.5084V131.833C278.422 135.796 281.445 139.037 285.139 139.037H287.49C291.184 139.037 294.207 135.796 294.207 131.833V51.5084C294.543 47.1859 291.184 44.3043 286.818 44.3043ZM383.208 56.5512C374.476 47.1859 363.393 42.1431 350.966 42.1431C338.204 42.1431 327.456 46.8257 318.724 56.5512C309.992 65.9164 305.626 77.8031 305.626 91.4907C305.626 105.178 309.992 117.065 318.724 126.43C327.456 135.796 338.204 140.838 350.966 140.838C363.728 140.838 374.476 136.156 383.208 126.43C391.94 117.065 396.306 105.178 396.306 91.4907C396.642 77.8031 392.276 65.9164 383.208 56.5512ZM330.479 68.4378C336.189 61.9542 342.906 59.0726 351.302 59.0726C359.698 59.0726 366.415 61.9542 372.125 68.4378C377.834 74.9215 380.521 82.4857 380.521 91.4907C380.521 100.856 377.834 108.42 372.125 114.544C366.415 120.667 359.698 123.909 351.302 123.909C342.906 123.909 336.189 121.027 330.815 114.544C325.105 108.42 322.419 100.496 322.419 91.1305C322.083 82.1255 324.77 74.9215 330.479 68.4378ZM188.078 95.0927C189.757 92.9315 190.764 90.4101 190.429 87.5285C189.757 75.6419 185.055 65.196 177.33 56.9114C168.598 47.5461 157.515 42.5033 145.089 42.5033C132.326 42.5033 121.579 47.1859 112.847 56.9114C104.115 66.2766 99.7485 78.1633 99.7485 91.8509C99.7485 105.539 104.115 117.425 112.847 126.79C121.579 136.156 132.326 141.199 145.089 141.199C157.515 141.199 168.598 136.516 177.33 126.79C180.689 123.188 183.376 118.506 185.391 114.904C186.063 113.463 186.063 111.662 185.391 110.221C184.383 108.78 183.04 107.7 181.025 107.7H175.315C171.957 107.7 170.613 108.42 169.942 109.861C168.934 111.662 167.591 113.463 166.247 114.904C160.538 121.027 153.821 124.269 145.424 124.269C137.028 124.269 130.311 121.387 124.937 114.904C120.571 110.221 117.885 104.458 117.213 97.9743H181.361C184.047 98.3346 186.398 96.8937 188.078 95.0927ZM145.424 59.4328C153.821 59.4328 160.538 62.3144 166.247 68.798C169.942 72.7602 172.293 77.0827 173.3 81.7653H117.549C118.892 77.0827 121.243 72.7602 124.602 68.798C130.311 62.3144 137.028 59.4328 145.424 59.4328ZM46.6839 42.5033C35.6008 42.5033 25.5252 46.4655 17.4647 54.0298V10.4454C17.4647 6.48317 14.4421 3.60156 10.076 3.60156H9.06844C4.70236 3.60156 1.67969 6.48317 1.67969 10.4454V91.8509C1.67969 105.539 6.04577 117.425 14.7779 126.79C23.5101 136.156 34.2574 141.199 47.0197 141.199C59.7821 141.199 70.5294 136.516 79.2616 126.79C87.9937 117.425 92.3598 105.539 92.3598 91.8509C92.3598 78.1633 87.9937 66.2766 79.2616 56.9114C70.1935 47.1859 59.4463 42.5033 46.6839 42.5033ZM46.6839 124.269C38.2876 124.269 31.5705 121.387 26.1969 114.904C20.4874 108.78 17.8006 100.856 17.8006 91.4907C17.8006 82.4857 20.4874 74.9215 25.861 68.4378C31.5705 62.3144 38.2876 59.0726 46.6839 59.0726C55.0802 59.0726 61.7972 61.9542 67.5067 68.4378C73.2162 74.9215 75.903 82.4857 75.903 91.4907C75.903 100.856 73.2162 108.42 67.5067 114.544C61.7972 121.027 55.0802 124.269 46.6839 124.269ZM286.482 5.04237C280.437 5.04237 275.399 10.4454 275.399 16.929C275.399 23.4126 280.437 28.8157 286.482 28.8157C292.528 28.8157 297.565 23.4126 297.565 16.929C297.565 10.4454 292.528 5.04237 286.482 5.04237Z" fill="#BBDC00"/>
</svg>
