<svg width="400" height="410" viewBox="0 0 400 410" fill="none" xmlns="http://www.w3.org/2000/svg">
<path d="M200 405.9V328C280.444 328 342.889 246.228 312 159.444C300.667 127.328 275.556 101.589 244.222 89.9721C159.556 58.5388 79.7778 122.317 79.7778 204.772H4C4 73.3443 128 -29.1556 262.444 13.8944C321.111 32.7999 368 80.6333 386.222 140.767C428.222 278.8 328.444 405.9 200 405.9Z" fill="#0080FF"/>
<path d="M200.222 328.228H124.667V250.783H200.222V328.228Z" fill="#0080FF"/>
<path d="M124.667 387.906H66.4443V328.228H124.667V387.906Z" fill="#0080FF"/>
<path d="M66.4445 328.228H17.7778V278.344H66.4445V328.228Z" fill="#0080FF"/>
</svg>
