<svg width="400" height="400" viewBox="0 0 400 400" fill="none" xmlns="http://www.w3.org/2000/svg">
<g clip-path="url(#clip0_104_44)">
<path d="M0 0V400H400V0H0ZM116.849 144.4L180.658 208.4V50H219.342V208.4L283.151 144.4L311.067 172.4L227.717 256L200.199 283.2L172.283 256L88.5344 172.4L116.849 144.4ZM344.566 344.4H55.4337V305.6H344.167V344.4H344.566Z" fill="#D5FF00"/>
<path d="M200.199 283.2L227.717 256L311.067 172.4L283.15 144.4L219.342 208.4V50H180.658V208.4L116.849 144.4L88.9331 172.4L172.283 256L200.199 283.2Z" fill="#191823"/>
<path d="M344.167 305.6H55.4336V344.4H344.167V305.6Z" fill="#191823"/>
</g>
<defs>
<clipPath id="clip0_104_44">
<rect width="400" height="400" fill="white"/>
</clipPath>
</defs>
</svg>
