<svg width="400" height="400" viewBox="0 0 400 400" fill="none" xmlns="http://www.w3.org/2000/svg">
<g clip-path="url(#clip0_305_26)">
<path d="M400 0H0V400H400V0Z" fill="#99CCEE"/>
<path d="M75.264 235.425C81.446 228.501 85.849 219.956 87.7605 210.507C92.693 234.909 114.257 253.281 140.113 253.281C165.971 253.281 187.538 234.905 192.467 210.499V253.281H210.168V189.4L245.88 225.111L281.438 189.4V253.28H299.447V210.498C304.377 234.904 325.942 253.28 351.801 253.28C373.048 253.28 391.396 240.873 400 222.909V176.824C391.396 158.86 373.048 146.453 351.801 146.453C325.942 146.453 304.377 164.829 299.447 189.235V146.453L245.88 199.866L192.467 146.453V189.235C187.538 164.829 165.971 146.453 140.113 146.453C114.257 146.453 92.6935 164.825 87.7605 189.226C85.8495 179.778 81.447 171.233 75.265 164.309C65.483 153.353 51.2535 146.453 35.411 146.453H0V253.28H35.411C51.253 253.28 65.482 246.38 75.264 235.425ZM351.801 164.225C371.484 164.225 387.443 180.182 387.443 199.866C387.443 219.551 371.484 235.508 351.801 235.508C332.116 235.508 316.159 219.551 316.159 199.866C316.159 180.183 332.116 164.225 351.801 164.225ZM140.113 164.225C159.797 164.225 175.755 180.182 175.755 199.866C175.755 219.551 159.797 235.508 140.113 235.508C120.429 235.508 104.471 219.551 104.471 199.866C104.471 180.183 120.428 164.225 140.113 164.225ZM17.7015 164.31H37.7435C56.339 165.513 71.052 180.967 71.052 199.867C71.052 218.771 56.332 234.229 37.73 235.425H17.7015V164.31Z" fill="white"/>
</g>
<defs>
<clipPath id="clip0_305_26">
<rect width="400" height="400" fill="white"/>
</clipPath>
</defs>
</svg>
