<svg width="400" height="400" viewBox="0 0 400 400" fill="none" xmlns="http://www.w3.org/2000/svg">
<mask id="mask0_307_177" style="mask-type:luminance" maskUnits="userSpaceOnUse" x="0" y="12" width="400" height="378">
<path d="M400 12.5H0V389.36H400V12.5Z" fill="white"/>
</mask>
<g mask="url(#mask0_307_177)">
<path d="M0 389.359H188.397V263.459C188.397 258.336 186.878 253.329 184.033 249.069C181.187 244.81 177.143 241.49 172.411 239.53C167.68 237.57 162.473 237.057 157.45 238.056C152.427 239.056 147.812 241.522 144.191 245.144L0 389.359Z" fill="#FF1F8A"/>
<path d="M188.398 138.404V12.5039H0L144.191 156.718C147.813 160.34 152.427 162.807 157.45 163.806C162.473 164.805 167.68 164.292 172.412 162.332C177.143 160.372 181.188 157.052 184.033 152.793C186.879 148.534 188.398 143.527 188.398 138.404Z" fill="#FF1F8A"/>
<path d="M260.443 12.5H188.955L399.915 200.93C399.915 200.93 408.223 12.5 260.443 12.5Z" fill="#FF1F8A"/>
<path d="M248.842 389.36C407.185 389.36 399.915 200.93 399.915 200.93L188.955 389.36H248.842Z" fill="#FF1F8A"/>
</g>
</svg>
