<svg width="400" height="400" viewBox="0 0 400 400" fill="none" xmlns="http://www.w3.org/2000/svg">
<path d="M205.347 28.5924C168.523 27.2407 132.576 40.0183 104.867 64.3086C77.1577 88.5989 59.7835 122.564 56.3024 159.247C52.8213 195.931 63.4966 232.558 86.1421 261.627C108.788 290.695 141.69 310.006 178.11 315.605C178.638 315.686 179.139 315.889 179.573 316.198C180.008 316.507 180.364 316.914 180.613 317.386C180.862 317.858 180.996 318.382 181.006 318.915C181.016 319.449 180.9 319.977 180.669 320.457L159.188 364.723C159.188 364.723 158.685 365.797 158.259 366.675C158.008 367.288 157.937 367.959 158.053 368.611C158.169 369.263 158.468 369.868 158.915 370.357C159.361 370.845 159.937 371.197 160.576 371.371C161.215 371.545 161.89 371.534 162.522 371.34C207.427 357.449 344.317 286.22 344.317 171.033C344.376 94.6536 281.649 31.3467 205.347 28.5924Z" fill="#070707"/>
<path d="M257.636 95.6338C258.268 95.6379 258.898 95.6893 259.521 95.7873C261.883 96.3416 262.932 98.499 261.704 100.324C261.431 100.673 261.15 101.023 260.851 101.347L220.474 147.233C220.474 147.233 219.724 148.034 219.425 148.461C217.95 150.524 219.426 153.031 222.282 153.185H238.765C241.477 153.466 242.876 155.956 241.443 157.943C241.089 158.406 240.71 158.85 240.309 159.273L210.549 192.82C210.182 193.213 209.84 193.629 209.525 194.065C208.229 196.069 209.73 198.439 212.442 198.593H223.195C223.899 198.55 224.6 198.71 225.216 199.055C225.831 199.399 226.334 199.914 226.665 200.537C226.946 201.115 227.015 201.774 226.859 202.397C226.703 203.021 226.333 203.57 225.812 203.948C225.557 204.195 224.96 204.673 224.96 204.673L156.136 256.57C155.728 256.942 155.301 257.292 154.857 257.619C154.532 257.832 154.153 257.946 153.765 257.946C153.377 257.946 152.998 257.832 152.674 257.619C152.375 257.463 152.145 257.204 152.025 256.889C151.906 256.575 151.906 256.228 152.025 255.913C152.179 255.479 152.614 254.626 152.614 254.626L171.587 215.537L172.141 214.394C173.412 211.836 172.141 209.661 169.31 209.278H155.027C154.489 209.279 153.951 209.25 153.415 209.192C151.079 208.809 149.842 206.847 150.729 204.929C150.934 204.502 151.437 203.675 151.437 203.675L174.981 164.219C174.981 164.219 175.245 163.776 175.373 163.537C176.661 161.209 175.1 158.975 172.133 158.89H156.681C154.686 158.89 153.27 157.832 152.963 156.229C152.878 155.411 153.1 154.59 153.586 153.927L160.749 141.306L184.267 99.8292L184.847 98.8571C186.05 96.6826 188.079 95.6338 190.816 95.6338H257.611H257.636Z" fill="white"/>
</svg>
