<svg width="400" height="400" viewBox="0 0 400 400" fill="none" xmlns="http://www.w3.org/2000/svg">
<path d="M327 235.718H289.05C289.05 237.123 289.05 238.528 289.05 239.933C289.05 296.131 242.667 329.849 200.5 329.849C158.333 329.849 111.95 296.131 111.95 239.933C111.95 238.528 111.95 237.123 111.95 235.718H74C74 237.123 74 238.528 74 239.933C74 317.205 137.25 367.783 200.5 367.783C263.75 367.783 327 317.205 327 239.933C327 238.528 327 237.123 327 235.718Z" fill="#F224F2"/>
<path d="M200.5 79.7683L227.206 116.297H274.994C252.506 86.7931 228.611 57.2891 200.5 32C172.389 57.2891 148.494 86.7931 126.006 116.297H173.794L200.5 79.7683Z" fill="#F224F2"/>
<path d="M124.6 201.999C138.573 201.999 149.9 190.677 149.9 176.71C149.9 162.743 138.573 151.421 124.6 151.421C110.627 151.421 99.3 162.743 99.3 176.71C99.3 190.677 110.627 201.999 124.6 201.999Z" fill="#F224F2"/>
<path d="M200.5 201.999C214.473 201.999 225.8 190.677 225.8 176.71C225.8 162.743 214.473 151.421 200.5 151.421C186.527 151.421 175.2 162.743 175.2 176.71C175.2 190.677 186.527 201.999 200.5 201.999Z" fill="#F224F2"/>
<path d="M276.4 201.999C290.373 201.999 301.7 190.677 301.7 176.71C301.7 162.743 290.373 151.421 276.4 151.421C262.427 151.421 251.1 162.743 251.1 176.71C251.1 190.677 262.427 201.999 276.4 201.999Z" fill="#F224F2"/>
</svg>
