<svg width="400" height="400" viewBox="0 0 400 400" fill="none" xmlns="http://www.w3.org/2000/svg">
<path fill-rule="evenodd" clip-rule="evenodd" d="M236.56 129.76C224.829 124.14 211.984 121.231 198.976 121.248C150.896 121.248 111.936 160.224 111.936 208.288C111.936 256.352 150.912 295.328 198.976 295.328C231.696 295.328 260.216 277.264 275.08 250.56L254.096 238.904C248.635 248.733 240.644 256.923 230.953 262.624C221.261 268.325 210.22 271.33 198.976 271.328C164.152 271.328 135.936 243.104 135.936 208.288C135.936 173.472 164.16 145.248 198.976 145.248C208.398 145.233 217.702 147.338 226.2 151.408L236.56 129.76ZM278.24 15.88V221.976H253.36V7.2C236.368 2.504 218.4 0 200 0C89.544 0 0 89.544 0 200C0 310.456 89.544 400 200 400C310.456 400 400 310.456 400 200C400 117.304 349.808 46.32 278.224 15.872L278.24 15.88Z" fill="#0ABA9F"/>
</svg>
