<svg width="400" height="400" viewBox="0 0 400 400" fill="none" xmlns="http://www.w3.org/2000/svg">
<g clip-path="url(#clip0_222_24)">
<path fill-rule="evenodd" clip-rule="evenodd" d="M298.939 303.889C292.112 303.889 286.567 309.433 286.567 316.279C286.567 323.126 292.112 328.67 298.939 328.67C305.786 328.67 311.33 323.126 311.33 316.279C311.33 309.433 305.786 303.889 298.939 303.889Z" fill="black"/>
<path fill-rule="evenodd" clip-rule="evenodd" d="M99.46 302.344C92.6321 302.344 87.0879 307.888 87.0879 314.734C87.0879 321.581 92.6321 327.125 99.46 327.125C106.306 327.125 111.851 321.581 111.851 314.734C111.851 307.888 106.306 302.344 99.46 302.344Z" fill="black"/>
<path fill-rule="evenodd" clip-rule="evenodd" d="M309.06 0H90.9395C40.7256 0 0 40.7256 0 90.9581V309.06C0 359.293 40.7256 400 90.9395 400H309.06C359.293 400 400 359.293 400 309.06V90.9395C400 40.7256 359.274 0 309.06 0ZM250.102 107.628C260.074 107.628 268.149 115.702 268.149 125.674C268.149 135.647 260.074 143.721 250.102 143.721C240.13 143.721 232.056 135.647 232.056 125.674C232.056 115.702 240.13 107.628 250.102 107.628ZM250.102 158.605C260.074 158.605 268.149 166.679 268.149 176.651C268.149 186.623 260.074 194.698 250.102 194.698C240.13 194.698 232.056 186.623 232.056 176.651C232.056 166.679 240.13 158.605 250.102 158.605ZM199.237 107.628C209.209 107.628 217.284 115.702 217.284 125.674C217.284 135.647 209.209 143.721 199.237 143.721C189.265 143.721 181.191 135.647 181.191 125.674C181.191 115.702 189.265 107.628 199.237 107.628ZM199.237 158.605C209.209 158.605 217.284 166.679 217.284 176.651C217.284 186.623 209.209 194.698 199.237 194.698C189.265 194.698 181.191 186.623 181.191 176.651C181.191 166.679 189.265 158.605 199.237 158.605ZM148.372 107.628C158.344 107.628 166.419 115.702 166.419 125.674C166.419 135.647 158.344 143.721 148.372 143.721C138.4 143.721 130.326 135.647 130.326 125.674C130.326 115.702 138.4 107.628 148.372 107.628ZM148.372 158.605C158.344 158.605 166.419 166.679 166.419 176.651C166.419 186.623 158.344 194.698 148.372 194.698C138.4 194.698 130.326 186.623 130.326 176.651C130.326 166.679 138.4 158.605 148.372 158.605ZM99.4605 349.247C80.4093 349.247 64.9488 333.786 64.9488 314.735C64.9488 295.665 80.4093 280.205 99.4605 280.205C118.53 280.205 133.991 295.665 133.991 314.735C134.009 333.786 118.53 349.247 99.4605 349.247ZM298.94 350.791C279.888 350.791 264.428 335.33 264.428 316.279C264.428 297.209 279.888 281.749 298.94 281.749C318.009 281.749 333.47 297.209 333.47 316.279C333.47 335.33 318.009 350.791 298.94 350.791ZM359.572 70.0651L323.888 202.977C314.363 238.456 284.298 260.726 247.553 260.726H224.019C216.242 260.726 204.986 256.521 200.316 252.13C199.535 251.405 198.307 251.405 197.526 252.13C192.856 256.521 181.6 260.726 173.823 260.726H147.963C112.391 260.726 85.4326 240.447 74.6419 206.549L44.2977 111.367C43.7023 109.47 44.0186 107.46 45.2093 105.842C46.3814 104.242 48.186 103.312 50.214 103.312L56.0186 103.33C70.0093 103.386 82.2698 112.372 86.493 125.693L108.781 195.684C114.809 214.642 134.102 227.386 153.991 227.386L162.642 227.367C171.572 227.367 177.86 222.791 181.656 218.698C183.628 216.558 186.381 215.312 189.302 215.312L208.726 215.33C211.479 215.33 214.158 216.428 216 218.456C219.684 222.493 226.214 227.367 235.219 227.367L243.46 227.386C264 227.386 283.926 213.526 289.265 193.693L318.158 86.0837C321.935 72.0744 334.679 62.307 349.172 62.307H354.27C354.754 62.307 355.237 62.3814 355.684 62.5674C358.94 63.9442 360.372 67.1256 359.572 70.0651Z" fill="black"/>
</g>
<defs>
<clipPath id="clip0_222_24">
<rect width="400" height="400" fill="white"/>
</clipPath>
</defs>
</svg>
