<svg width="400" height="400" viewBox="0 0 400 400" fill="none" xmlns="http://www.w3.org/2000/svg">
<g clip-path="url(#clip0_268_38)">
<path d="M400 209.577C400.043 193.288 395.07 177.384 385.761 164.042C376.453 150.7 363.264 140.573 348 135.046C352.945 109.659 349.095 83.337 337.089 60.4481C325.084 37.5591 305.644 19.4788 281.995 9.20677C258.346 -1.06527 231.91 -2.91159 207.072 3.97412C182.234 10.8598 160.488 26.0637 145.44 47.0632C135.129 39.0554 122.499 34.6372 109.463 34.4772C96.4275 34.3171 83.6944 38.4238 73.1905 46.176C62.6866 53.9282 54.9836 64.9041 51.247 77.4428C47.5103 89.9816 47.9433 103.401 52.4804 115.671C37.168 121.266 23.93 131.435 14.5475 144.81C5.16504 158.185 0.0883176 174.124 0.000440893 190.483C-0.0540659 206.843 4.94659 222.817 14.3134 236.205C23.6802 249.593 36.9521 259.735 52.3004 265.234C50.9672 272.344 50.2976 279.563 50.3004 286.798C50.2766 310.759 57.8335 334.109 71.8815 353.48C85.9295 372.851 105.743 387.243 128.464 394.58C151.185 401.917 175.64 401.82 198.303 394.303C220.966 386.786 240.665 372.237 254.56 352.755C264.856 360.737 277.456 365.143 290.463 365.31C303.47 365.477 316.179 361.397 326.675 353.683C337.17 345.969 344.885 335.039 348.655 322.541C352.426 310.043 352.049 296.653 347.58 284.389C362.882 278.784 376.107 268.611 385.478 255.237C394.849 241.862 399.917 225.928 400 209.577Z" fill="white"/>
<path d="M157.26 172.271L244.78 212.428L333.1 134.745C334.379 128.333 335.015 121.808 335 115.269C335.008 94.1038 328.266 73.4921 315.76 56.4528C303.254 39.4135 285.642 26.8419 265.504 20.5794C245.365 14.3169 223.759 14.6926 203.848 21.6514C183.938 28.6102 166.77 41.7865 154.86 59.2504L140.18 135.749L157.26 172.271Z" fill="#FEC514"/>
<path d="M66.6602 265.314C65.3455 271.824 64.6755 278.449 64.6602 285.091C64.6549 306.339 71.4354 327.029 84.0061 344.123C96.5768 361.217 114.275 373.814 134.503 380.066C154.731 386.318 176.423 385.894 196.394 378.857C216.364 371.82 233.561 358.541 245.46 340.969L260.04 264.672L240.6 227.346L152.72 187.189L66.6602 265.314Z" fill="#00BFB3"/>
<path d="M66.0996 113.261L126.1 127.477L139.26 59.0096C131.099 52.8321 121.169 49.4666 110.949 49.4147C100.729 49.3627 90.7655 52.6271 82.5433 58.7214C74.3211 64.8157 68.2802 73.4137 65.3207 83.2345C62.3612 93.0553 62.6414 103.573 66.1196 113.221" fill="#F04E98"/>
<path d="M60.9008 127.598C47.9259 131.89 36.5928 140.11 28.4578 151.129C20.3228 162.147 15.7849 175.423 15.4671 189.134C15.1494 202.845 19.0673 216.319 26.6831 227.705C34.2988 239.092 45.2388 247.832 58.0008 252.726L142.161 176.428L126.721 143.299L60.9008 127.598Z" fill="#1BA9F5"/>
<path d="M260.922 340.95C269.101 347.298 279.143 350.75 289.482 350.768C297.099 350.746 304.599 348.882 311.346 345.334C318.094 341.785 323.891 336.658 328.247 330.384C332.602 324.111 335.388 316.876 336.369 309.293C337.35 301.71 336.497 294.001 333.882 286.818L273.882 272.764L260.922 340.95Z" fill="#93C90E"/>
<path d="M273.102 257.002L339.102 272.482C352.274 268.029 363.733 259.559 371.879 248.253C380.025 236.947 384.452 223.37 384.542 209.416C384.536 195.967 380.454 182.838 372.837 171.774C365.221 160.71 354.431 152.235 341.902 147.475L255.602 223.371L273.102 257.002Z" fill="#0077CC"/>
</g>
<defs>
<clipPath id="clip0_268_38">
<rect width="400" height="400" fill="white"/>
</clipPath>
</defs>
</svg>
