<svg width="400" height="400" viewBox="0 0 400 400" fill="none" xmlns="http://www.w3.org/2000/svg">
<g clip-path="url(#clip0_205_38)">
<path fill-rule="evenodd" clip-rule="evenodd" d="M240.422 0C242.531 0 243.937 0 246.046 0.714286C289.631 11.4286 328.295 36.4286 356.415 72.1429C385.237 108.571 400.703 152.857 400.703 200C400.703 247.143 385.237 291.429 356.415 327.857C328.295 363.571 288.928 388.571 246.046 399.286C243.937 400 241.828 400 240.422 400C227.768 400 217.223 389.286 217.223 376.429C217.223 365 224.956 355 235.501 352.857C274.165 343.571 308.612 318.571 329.701 283.571C332.513 278.571 332.513 272.143 329.701 266.429C326.889 260.714 320.562 257.143 314.938 257.143C312.127 257.143 310.018 257.857 307.909 258.571C299.473 262.857 290.334 265 281.195 265C247.452 265 219.332 237.857 217.926 203.571C217.926 202.857 217.926 201.429 217.926 200.714V199.286C217.926 198.571 217.926 197.857 217.926 196.429C220.035 162.143 247.452 135.714 281.195 135.714C290.334 135.714 299.473 137.857 307.909 142.143C310.018 143.571 312.83 143.571 314.938 143.571C321.265 143.571 326.889 140 329.701 134.286C332.513 129.286 332.513 122.857 329.701 117.143V116.429C308.612 82.1428 274.165 56.4286 235.501 47.1429C224.956 44.2857 217.223 35 217.223 23.5714C217.223 10.7143 227.768 0 240.422 0ZM160.281 0C172.935 0 183.48 10.7143 183.48 23.5714C183.48 35 176.45 45 165.202 47.1429C126.538 57.1429 92.0914 82.1428 71.0018 116.429C68.1898 121.429 67.4868 127.857 71.0018 133.571C73.8137 139.286 80.1406 142.857 85.7645 142.857C88.5764 142.857 90.6854 142.143 92.7944 141.429C101.23 137.143 110.369 135 119.508 135C153.251 135 181.371 162.143 182.777 196.429C182.777 197.143 182.777 197.857 182.777 199.286V200C182.777 200 182.777 200 182.777 200.714V201.429C182.777 202.143 182.777 202.857 182.777 204.286C180.668 238.571 153.251 265.714 119.508 265.714C110.369 265.714 101.23 263.571 92.7944 259.286C90.6854 257.857 87.8735 257.857 85.7645 257.857C79.4376 257.857 73.8137 261.429 71.0018 267.143C68.1898 272.143 68.1898 278.571 71.0018 284.286C92.0914 318.571 126.538 344.286 165.202 353.571C175.747 356.429 183.48 365.714 183.48 377.143C183.48 390 172.935 400.714 160.281 400.714C158.172 400.714 156.766 400.714 154.657 400C111.072 389.286 72.4077 364.286 44.2882 328.571C15.4657 291.429 0 247.143 0 200C0 152.857 15.4657 108.571 44.2882 72.1429C72.4077 36.4286 111.775 11.4286 154.657 0.714286C156.063 0 158.172 0 160.281 0Z" fill="#7623D7"/>
</g>
<defs>
<clipPath id="clip0_205_38">
<rect width="400" height="400" fill="white"/>
</clipPath>
</defs>
</svg>
