<svg width="400" height="400" viewBox="0 0 400 400" fill="none" xmlns="http://www.w3.org/2000/svg">
<g clip-path="url(#clip0_213_94)">
<path fill-rule="evenodd" clip-rule="evenodd" d="M58.768 153.885C59.2013 144.902 66.618 137.819 75.618 137.819C91.668 137.802 116.785 137.802 134.668 137.802C146.435 137.802 155.968 128.269 155.968 116.502C155.968 98.9852 155.968 74.6686 155.968 59.6686C155.968 46.3186 166.018 35.1352 179.285 33.6852C183.318 33.3019 188.018 33.2019 193.501 33.5686C222.901 35.5352 208.568 62.0852 251.868 62.7519C297.085 63.4519 330.818 72.7186 335.268 133.635C339.501 191.652 344.401 233.352 339.435 279.585C335.268 318.469 320.718 361.102 264.385 366.269C198.935 372.285 185.768 308.085 227.685 284.585C243.751 275.585 276.901 294.052 245.201 305.435C219.801 314.569 236.268 339.735 259.418 337.969C281.718 336.252 292.235 319.869 289.401 299.969C283.901 261.385 240.668 261.919 227.651 254.569C206.801 242.785 202.718 221.202 202.718 221.202C202.718 221.202 198.735 255.085 179.318 271.252C169.135 279.719 145.851 274.169 130.951 271.252C81.3013 261.519 55.3513 222.469 58.768 153.885ZM265.735 187.219C265.351 188.469 266.051 189.785 267.301 190.202C277.618 193.502 288.535 194.752 300.051 193.919C300.768 193.869 301.418 193.502 301.835 192.919C302.251 192.352 302.385 191.619 302.218 190.919C301.001 186.235 297.235 177.119 286.068 176.169C271.435 174.935 267.018 183.085 265.735 187.219ZM149.301 43.5686L64.5347 127.802C64.5347 127.802 71.468 126.352 76.318 125.335C79.368 124.685 82.4847 124.369 85.6013 124.369C95.2013 124.352 117.335 124.352 131.551 124.335C138.685 124.335 144.451 118.552 144.451 111.419C144.451 97.2352 144.451 74.7686 144.451 61.9352C144.451 55.5019 146.118 49.1686 149.301 43.5686Z" fill="#00A82D"/>
</g>
<defs>
<clipPath id="clip0_213_94">
<rect width="400" height="400" fill="white"/>
</clipPath>
</defs>
</svg>
