<svg width="400" height="400" viewBox="0 0 400 400" fill="none" xmlns="http://www.w3.org/2000/svg">
<mask id="mask0_296_131" style="mask-type:luminance" maskUnits="userSpaceOnUse" x="0" y="0" width="400" height="400">
<path d="M400 0H0V400H400V0Z" fill="white"/>
</mask>
<g mask="url(#mask0_296_131)">
<path d="M345.212 281.285C350.9 234.68 288.447 188.704 205.715 178.622C122.981 168.541 51.3096 198.198 45.6214 244.801C39.9333 291.404 102.386 337.382 185.119 347.463C267.853 357.545 339.524 327.888 345.212 281.285Z" fill="#BCF9DF"/>
<path d="M369.847 200.235C375.574 153.317 302.06 105.772 205.596 94.0424C109.171 82.313 26.3199 110.793 20.5925 157.711C14.8651 204.628 88.3799 252.173 184.844 263.904C281.268 275.633 364.119 247.153 369.847 200.235Z" fill="#72DEB1"/>
<path d="M315.832 101.184C319.598 70.1935 269.855 38.6535 204.735 30.6901C139.576 22.7659 83.7147 41.4388 79.9095 72.4295C76.1435 103.42 125.886 134.96 191.006 142.924C256.165 150.848 312.027 132.175 315.832 101.184Z" fill="#33AA78"/>
<path d="M57.2371 57.6782C35.5829 79.3718 19.3421 105.89 9.77024 134.998C0.237623 164.145 -2.39071 195.097 2.19906 225.421L0.826056 227.343L2.7875 228.755C10.0841 272.143 31.7776 311.802 64.3376 341.342C96.8975 370.921 138.441 388.691 182.338 391.791C226.195 394.889 269.857 383.16 306.262 358.485C342.666 333.81 369.695 297.602 383.072 255.666C396.41 213.73 395.272 168.578 379.855 127.387C364.439 86.1976 335.605 51.3624 298.024 28.5312C260.403 5.69996 216.232 -3.87188 172.57 1.42402C128.909 6.71992 88.2672 26.5305 57.2371 57.6782ZM299.946 92.3565C272.368 119.935 234.944 135.43 195.951 135.43C156.957 135.43 119.533 119.935 91.9547 92.3565C119.533 64.7786 156.957 49.2832 195.951 49.2832C234.944 49.2832 272.368 64.7786 299.946 92.3565ZM91.9154 300.387C82.8928 291.403 75.1255 281.282 68.7312 270.259C110 289.403 155.27 298.269 200.697 296.072C246.125 293.875 290.335 280.734 329.563 257.745C309.479 301.486 269.269 332.633 221.881 341.146C174.493 349.658 125.966 334.438 91.9154 300.387ZM342.745 188.232L334.429 194.979C294.494 227.617 244.869 246.095 193.322 247.429C141.775 248.762 91.2486 232.913 49.6659 202.393L49.3129 202.04C48.2537 178.229 53.0005 154.495 63.1215 132.919C99.3297 166.224 146.718 184.702 195.911 184.702C245.104 184.702 292.493 166.224 328.701 132.919C336.939 150.258 341.725 169.049 342.745 188.232Z" fill="#FBFFFE"/>
</g>
</svg>
