<svg width="400" height="400" viewBox="0 0 400 400" fill="none" xmlns="http://www.w3.org/2000/svg">
<path d="M347.286 399.72C322.048 399.886 300.934 381.892 295.756 356.434C290.579 330.976 280.709 307.758 263.642 288.187C229.342 248.799 170.128 248.965 135.99 288.602C119.568 307.758 109.537 330.23 104.602 355.025C99.5063 380.399 79.4442 399.223 55.4179 399.97C28.8847 400.799 7.28667 384.462 1.38063 358.258C-5.49635 327.908 14.0009 298.803 44.6591 292.583C72.73 286.86 98.1313 274.588 117.14 251.866C145.615 217.785 141.247 167.699 108 138.592C89.0712 122.008 67.0671 111.973 42.9604 106.915C17.2354 101.526 -0.2376 79.4672 0.0860453 51.9374C0.40969 26.7284 19.4205 4.75345 44.3354 0.690145C72.8908 -3.95347 98.5354 15.2848 104.602 44.8893C110.265 72.5852 121.508 97.7109 141.894 117.53C174.9 149.54 225.783 149.123 258.868 117.032C261.781 114.213 265.502 111.559 269.303 110.398C277.635 107.746 286.292 111.809 290.499 119.272C294.948 127.148 293.816 136.52 287.182 143.32C277.231 153.519 270.033 165.459 266.716 179.474C258.707 214.053 269.062 242.496 295.756 264.637C314.039 279.812 335.313 288.52 358.208 293.578C383.446 299.133 401.082 322.103 399.948 348.225C398.817 375.008 379.645 396.487 353.757 399.886C351.654 399.97 349.471 399.72 347.286 399.72Z" fill="#4DB961"/>
<path d="M399.716 53.7643C399.716 83.9484 376.581 107.499 346.974 107.499C317.932 107.499 294.957 83.534 295.039 53.432C295.039 23.8285 318.255 0.195251 347.378 0.112186C376.5 -0.0535623 399.716 23.8285 399.716 53.7643Z" fill="#4DB961"/>
</svg>
