<svg width="400" height="400" viewBox="0 0 400 400" fill="none" xmlns="http://www.w3.org/2000/svg">
<g clip-path="url(#clip0_277_15)">
<path d="M376.16 357.8C377.39 358.99 378.359 360.422 379.006 362.006C379.653 363.589 379.964 365.29 379.92 367C379.935 369.574 379.182 372.094 377.759 374.238C376.336 376.383 374.307 378.055 371.93 379.042C369.553 380.029 366.936 380.285 364.412 379.779C361.889 379.273 359.573 378.027 357.76 376.2C356.552 374.995 355.597 373.56 354.951 371.98C354.305 370.4 353.982 368.707 354 367C353.995 365.293 354.326 363.602 354.975 362.022C355.623 360.443 356.576 359.007 357.78 357.796C358.983 356.585 360.413 355.623 361.988 354.965C363.564 354.307 365.253 353.965 366.96 353.96C368.676 353.926 370.381 354.25 371.965 354.911C373.549 355.573 374.978 356.556 376.16 357.8ZM377.68 356.32C376.287 354.896 374.617 353.771 372.774 353.014C370.931 352.258 368.953 351.885 366.96 351.92C364.48 351.926 362.04 352.543 359.856 353.717C357.671 354.891 355.81 356.585 354.437 358.65C353.064 360.715 352.221 363.087 351.983 365.555C351.746 368.024 352.121 370.513 353.075 372.802C354.029 375.091 355.533 377.109 357.453 378.678C359.373 380.247 361.651 381.318 364.084 381.797C366.518 382.275 369.031 382.146 371.403 381.421C373.774 380.696 375.931 379.398 377.68 377.64C379.086 376.239 380.201 374.575 380.962 372.742C381.722 370.909 382.114 368.945 382.114 366.96C382.114 364.976 381.722 363.011 380.962 361.178C380.201 359.346 379.086 357.681 377.68 356.28V356.32ZM369.2 366.28C368.298 366.576 367.348 366.698 366.4 366.64H363.8V360.64H366.32C367.92 360.64 369.12 360.84 369.8 361.24C370.48 361.64 370.92 362.48 370.92 363.64C370.96 364.202 370.813 364.762 370.502 365.232C370.191 365.702 369.733 366.057 369.2 366.24V366.28ZM360.88 375.16H363.8V368.68H366.12C367.64 368.68 368.76 368.84 369.36 369.2C370.4 369.84 370.92 371.08 370.92 373V374.32L370.96 374.84C370.979 374.906 370.993 374.973 371 375.04C371 375.12 371.04 375.16 371.08 375.16H373.8L373.72 375C373.599 374.738 373.544 374.449 373.56 374.16V371.72C373.515 370.775 373.18 369.868 372.6 369.12C372 368.24 371.04 367.72 369.76 367.48C370.603 367.366 371.417 367.095 372.16 366.68C373.24 365.96 373.76 364.84 373.76 363.4C373.76 361.32 372.96 359.92 371.2 359.2C370.24 358.8 368.76 358.6 366.68 358.6H360.88V375.16Z" fill="#E4002B"/>
<path d="M383.439 248.121C384.519 226.801 380.559 203.801 361.999 183.001C342.919 162.441 310.719 145.001 244.519 140.921C247.959 130.201 250.959 120.361 254.119 110.321C293.719 111.721 328.959 114.561 358.919 118.441C361.319 107.721 362.599 97.2413 365.039 87.0813C361.999 82.6279 358.772 78.3079 355.359 74.1213C341.119 72.4413 326.879 68.9213 311.599 66.9213C289.766 64.1352 267.827 62.2536 245.839 61.2812C228.367 113.306 211.02 165.373 193.799 217.481C292.279 226.001 330.199 252.561 327.999 290.001C325.999 310.241 307.559 328.601 283.199 330.801C254.319 332.761 241.079 321.041 232.399 308.241C224.506 296.418 216.679 284.551 208.919 272.641C206.719 268.961 203.799 271.361 201.159 273.921C195.323 279.58 189.47 285.22 183.599 290.841C179.839 294.121 180.679 296.961 181.999 299.721C187.203 311.994 192.483 324.234 197.839 336.441C206.439 341.721 246.999 348.921 277.319 346.681C301.73 344.422 325.062 335.543 344.799 321.001C365.799 304.721 381.079 282.801 383.439 248.121Z" fill="white"/>
<path d="M38.9205 318.522C42.7071 323.668 46.7338 328.615 51.0005 333.362C90.9354 340.143 131.306 344.047 171.8 345.042L171.4 331.242C144.24 329.722 131.76 325.562 129.6 320.202C127.76 315.922 127.44 309.522 127.08 303.242C125.013 259.207 124.346 215.119 125.08 171.042C140.28 170.762 155.4 170.642 171.28 170.442C178.96 166.962 186.2 163.482 193.88 160.042L193.92 144.322C170.4 144.402 148.08 144.802 125.68 145.442C126.32 126.362 127.08 108.802 128.2 91.6418C129 80.3618 136.8 72.1218 144.84 71.4818C157.76 70.9618 169.32 76.1218 180.56 81.0818C186.72 84.0818 192.84 87.0818 199.16 90.2818C202.2 91.0818 205.8 91.8018 207.96 89.2018C211.72 84.7218 215.28 80.6018 218.96 76.2818C220.96 73.3218 220.12 71.6418 219.28 70.5618C211.598 64.515 203.837 58.5678 196 52.7218C191.28 49.5218 183.8 48.8418 176.4 48.8418C173.48 48.8418 170.56 48.9218 167.8 49.0018C160.24 49.4018 150.6 50.6018 134.84 54.4818C99.3205 64.0418 56.6805 88.8018 52.1605 129.282C51.5832 135.929 51.0898 142.583 50.6805 149.242C40.6405 150.042 31.4805 150.802 22.8805 151.642C22.2715 159.312 21.8048 166.994 21.4805 174.682C30.2005 174.162 39.3205 173.682 49.4805 173.242C47.9605 215.722 49.3605 258.082 53.3605 297.362C54.0405 303.322 54.6805 309.242 53.9205 313.042C53.2805 316.682 47.4005 318.602 38.9205 318.522Z" fill="white"/>
<path d="M365.08 87.0809C362.6 97.2009 361.32 107.721 358.96 118.441C328.96 114.561 293.76 111.721 254.16 110.321C250.96 120.321 247.96 130.201 244.56 140.921C310.76 145.001 342.96 162.441 362.04 183.001C380.6 203.801 384.52 226.801 383.44 248.121C381.04 282.801 365.8 304.721 344.8 320.961C323.6 336.961 297.88 344.881 277.32 346.641C247.04 348.881 206.52 341.681 197.88 336.401C192.518 324.197 187.238 311.956 182.04 299.681C180.72 296.921 179.88 294.081 183.64 290.801C189.511 285.179 195.365 279.539 201.2 273.881C203.84 271.321 206.76 268.921 208.96 272.601C217.12 285.161 224.76 296.721 232.4 308.201C241.08 321.001 254.32 332.721 283.28 330.761C307.56 328.601 326.08 310.201 328.04 289.961C330.16 252.521 292.28 225.961 193.76 217.441C212.68 160.401 231.12 105.201 245.84 61.3209C269.24 62.4009 290.88 64.3209 311.6 67.0009C326.88 68.9209 341.12 72.4809 355.36 74.1209C329.335 42.0185 294.004 18.7664 254.226 7.56163C214.447 -3.6431 172.174 -2.25021 133.22 11.5488C94.2651 25.3478 60.5416 50.8752 36.6861 84.6212C12.8306 118.367 0.0145627 158.674 0.00020991 200.001C-0.0617215 242.657 13.582 284.205 38.9202 318.521C47.4002 318.601 53.2802 316.681 53.9202 313.041C54.6802 309.201 54.0402 303.321 53.3602 297.361C49.3602 258.081 47.9602 215.721 49.4402 173.241C40.1032 173.647 30.7696 174.127 21.4402 174.681C21.8402 166.801 22.2402 159.361 22.8802 151.641C31.5202 150.801 40.6402 150.041 50.6802 149.241C51.0802 142.441 51.5602 135.921 52.1602 129.321C56.6802 88.8009 99.3202 64.0009 134.84 54.4809C145.627 51.6156 156.665 49.7939 167.8 49.0409C170.56 48.9209 173.48 48.8409 176.44 48.8409C183.8 48.8409 191.24 49.5209 196 52.7209C203.68 58.4809 211.2 64.2009 219.28 70.5609C220.08 71.6409 220.96 73.3609 218.96 76.2809L208 89.2009C205.84 91.8009 202.24 91.1209 199.2 90.3209C192.88 87.0809 186.8 84.0809 180.6 81.1209C169.4 76.1209 157.8 70.9609 144.88 71.5209C136.84 72.1209 129.04 80.3609 128.24 91.6409C127.12 108.801 126.36 126.361 125.72 145.441C148.12 144.801 170.44 144.401 194 144.281L193.96 160.041C186.28 163.481 179.04 166.961 171.32 170.441C155.44 170.641 140.32 170.761 125.12 171.041C124.38 215.118 125.047 259.207 127.12 303.241C127.52 309.521 127.84 315.921 129.64 320.161C131.8 325.561 144.28 329.681 171.48 331.241L171.88 345.001C131.388 344.034 91.0168 340.158 51.0802 333.401C78.099 363.54 113.627 384.772 152.969 394.29C192.311 403.809 233.615 401.166 271.423 386.711C309.231 372.256 341.763 346.67 364.72 313.333C387.678 279.996 399.98 240.478 400 200.001C400.071 159.68 387.893 120.288 365.08 87.0409V87.0809Z" fill="#E4002B"/>
</g>
<defs>
<clipPath id="clip0_277_15">
<rect width="400" height="400" fill="white"/>
</clipPath>
</defs>
</svg>
