<svg width="400" height="400" viewBox="0 0 400 400" fill="none" xmlns="http://www.w3.org/2000/svg">
<g clip-path="url(#clip0_163_63)">
<path d="M325.714 355.238C290.476 383.81 245.714 400 199.999 400C154.285 400 109.523 384.762 74.2852 355.238C109.523 326.667 154.285 310.477 199.999 310.477C247.618 310.477 291.428 327.619 325.714 355.238Z" fill="#FF355E"/>
<path fill-rule="evenodd" clip-rule="evenodd" d="M73.3333 306.667C47.619 277.143 33.3333 239.048 34.2857 200C34.2857 108.571 108.571 34.2857 200 34.2857C291.429 34.2857 365.714 108.571 365.714 200C365.714 240.952 351.429 278.095 326.667 306.667C335.238 312.381 342.857 318.095 350.476 323.81L353.333 326.667C383.81 291.429 400 246.667 400 200C400 89.5238 310.476 0 200 0C89.5238 0 0 89.5238 0 200C0 246.667 16.1905 291.429 45.7143 326.667L48.5714 323.81C56.1905 318.095 64.7619 312.381 73.3333 306.667Z" fill="#FF355E"/>
<path d="M274.286 194.286C274.286 235.238 240.953 268.571 200.001 268.571C159.048 268.571 125.715 235.238 125.715 194.286C125.715 153.333 159.048 120 200.001 120C240.953 120 274.286 153.333 274.286 194.286Z" fill="#FF355E"/>
</g>
<defs>
<clipPath id="clip0_163_63">
<rect width="400" height="400" fill="white"/>
</clipPath>
</defs>
</svg>
