<svg width="400" height="58" viewBox="0 0 400 58" fill="none" xmlns="http://www.w3.org/2000/svg">
<g clip-path="url(#clip0_222_37)">
<path fill-rule="evenodd" clip-rule="evenodd" d="M43.2845 14.3815L42.6007 14.7766C40.7317 12.0899 38.9538 9.79837 37.2671 7.90191C35.5804 6.00544 33.9393 4.60945 32.3437 3.7139C31.5687 3.29246 30.167 2.93688 28.1384 2.64714C26.1097 2.3574 23.7507 2.21253 21.061 2.21253C20.6052 2.21253 20.0809 2.2257 19.4883 2.25204C18.8957 2.27838 18.3258 2.30472 17.7788 2.33106C17.2317 2.3574 16.7189 2.38374 16.2402 2.41008C15.7616 2.43642 15.4083 2.44959 15.1804 2.44959C15.1348 2.76567 15.0778 3.08174 15.0094 3.39782C14.941 3.7139 14.884 4.08265 14.8385 4.50409C14.7929 4.92552 14.7473 5.46548 14.7017 6.12398C14.6561 6.78247 14.6105 7.58583 14.5649 8.53406C14.5193 10.3778 14.4852 12.3928 14.4624 14.579C14.4396 16.7652 14.4282 18.8329 14.4282 20.782V28.2888H15.659C16.3884 28.2888 17.1976 28.2625 18.0865 28.2098C18.9754 28.1571 19.8986 28.0913 20.8559 28.0123C21.8132 27.9332 22.611 27.8147 23.2492 27.6567C24.8903 27.2352 26.1895 26.6821 27.1468 25.9973C28.1042 25.3124 28.8563 24.4959 29.4034 23.5477C29.9504 22.5995 30.3379 21.559 30.5658 20.4264C30.7938 19.2938 30.9989 18.069 31.1813 16.752H32.0018V42.1962H31.1813C30.8166 40.5104 30.2923 38.7325 29.6085 36.8624C28.9247 34.9923 28.1042 33.5568 27.1468 32.5559C26.2807 31.6603 25.3576 30.9886 24.3775 30.5409C23.3973 30.0931 22.2463 29.8165 20.9243 29.7112C20.2405 29.6585 19.6478 29.619 19.1464 29.5926C18.6449 29.5663 18.1663 29.5531 17.7104 29.5531H14.4282V39.3515C14.4282 40.8265 14.4396 42.183 14.4624 43.421C14.4852 44.659 14.4966 45.7257 14.4966 46.6213C14.5421 48.307 14.6219 49.9005 14.7359 51.4019C14.8498 52.9033 15.112 54.0227 15.5223 54.7602C15.9325 55.4977 16.6277 56.064 17.6078 56.4591C18.588 56.8542 20.0125 57.1045 21.8816 57.2098V58H0V57.2098C1.13967 56.9991 2.19955 56.6567 3.17967 56.1826C4.15979 55.7084 4.96894 55.05 5.60716 54.2071C5.83509 53.891 6.01744 53.4301 6.1542 52.8243C6.29096 52.2184 6.41632 51.5204 6.53029 50.7302C6.64425 49.9401 6.72403 49.1104 6.76962 48.2411C6.8152 47.3719 6.838 46.5159 6.838 45.673C6.838 44.9355 6.84939 43.9346 6.87219 42.6703C6.89498 41.406 6.91777 40.0232 6.94057 38.5218C6.96336 37.0204 6.97476 35.4796 6.97476 33.8992V13.9074C6.97476 12.9591 6.96336 11.9846 6.94057 10.9837C6.91777 9.98274 6.87219 9.03452 6.80381 8.13896C6.73543 7.24341 6.62146 6.44006 6.46191 5.72888C6.30235 5.01771 6.08582 4.50409 5.8123 4.18801C5.12849 3.34514 4.39912 2.80518 3.62414 2.56812C2.84916 2.33106 1.84627 2.10718 0.61542 1.89646V1.10627H38.6347L43.2845 14.3815ZM118.001 58V57.2098C118.138 57.2098 118.468 57.1571 118.993 57.0518C119.517 56.9464 120.064 56.762 120.634 56.4986C121.203 56.2352 121.705 55.8665 122.138 55.3924C122.571 54.9183 122.788 54.3124 122.788 53.5749C122.788 53.1008 122.662 52.3238 122.412 51.2439C122.161 50.1639 121.808 48.847 121.352 47.2929C120.896 45.7389 120.372 44.0136 119.779 42.1172C119.186 40.2207 118.548 38.2452 117.864 36.1907H99.6752C98.9914 38.1926 98.3304 40.1022 97.6922 41.9196C97.054 43.7371 96.4157 45.5677 95.7775 47.4114C94.8202 50.2561 94.3416 52.2579 94.3416 53.4169C94.3416 54.1017 94.5239 54.668 94.8886 55.1158C95.2533 55.5636 95.7206 55.9323 96.2904 56.2221C96.8602 56.5118 97.4756 56.7225 98.1366 56.8542C98.7977 56.9859 99.4245 57.1045 100.017 57.2098V58H85.4522V57.1308C86.6374 56.9728 87.6517 56.604 88.4951 56.0245C89.3384 55.445 89.8285 55.05 89.9652 54.8392C90.2843 54.4705 90.8086 53.6013 91.538 52.2316C92.2674 50.8619 93.1563 48.8338 94.2048 46.1471C95.1621 43.6712 96.2334 40.8529 97.4187 37.6921C98.6039 34.5313 99.8233 31.2784 101.077 27.9332C102.331 24.5881 103.573 21.2166 104.804 17.8188C106.035 14.421 107.197 11.2471 108.291 8.297L107.607 6.55858C108.428 6.13715 109.169 5.6367 109.83 5.05722C110.491 4.47774 111.072 3.87194 111.573 3.23978C112.075 2.60763 112.496 2.00182 112.838 1.42234C113.18 0.842867 113.442 0.368758 113.625 0H114.172C115.585 4.37241 116.93 8.52087 118.206 12.4455C119.483 16.3701 120.702 20.1498 121.864 23.7847C123.027 27.4196 124.155 30.936 125.249 34.3338C126.343 37.7316 127.437 41.0899 128.532 44.4087C129.033 46.0418 129.5 47.3983 129.933 48.4782C130.366 49.5581 130.856 50.7829 131.403 52.1526C131.495 52.3633 131.7 52.7321 132.019 53.2589C132.338 53.7857 132.76 54.3256 133.284 54.8787C133.808 55.4319 134.458 55.9192 135.233 56.3406C136.008 56.762 136.919 56.9991 137.968 57.0518V58H118.001ZM109.043 10.1144C108.77 10.7993 108.371 11.8792 107.847 13.3542C107.322 14.8293 106.673 16.6203 105.898 18.7275C105.123 20.8347 104.268 23.2184 103.334 25.8787C102.399 28.5391 101.385 31.4232 100.291 34.5313H117.317C116.542 32.1608 115.756 29.7902 114.958 27.4196C114.16 25.049 113.385 22.7707 112.633 20.5845C111.881 18.3983 111.197 16.3965 110.582 14.579C109.966 12.7616 109.454 11.2734 109.043 10.1144ZM205.231 58H184.512V57.2098C185.652 56.9991 186.711 56.6567 187.692 56.1826C188.672 55.7084 189.504 55.0236 190.187 54.1281C190.415 53.812 190.586 53.3642 190.7 52.7847C190.814 52.2053 190.905 51.5204 190.974 50.7302C191.042 49.9401 191.088 49.1104 191.111 48.2411C191.133 47.3719 191.145 46.5159 191.145 45.673C191.145 44.9355 191.156 43.9346 191.179 42.6703C191.202 41.406 191.225 40.0232 191.247 38.5218C191.27 37.0204 191.282 35.4796 191.282 33.8992V11.0627C191.282 10.1144 191.247 9.23207 191.179 8.41553C191.111 7.599 191.008 6.86149 190.871 6.203C190.735 5.5445 190.529 5.03088 190.256 4.66213C189.618 3.76657 188.831 3.12126 187.897 2.72616C186.962 2.33106 185.902 2.0545 184.717 1.89646V1.10627H205.163V1.89646C204.205 2.0545 203.18 2.34423 202.086 2.76567C200.992 3.1871 200.148 4.02997 199.556 5.29428C199.145 6.18983 198.929 7.32243 198.906 8.6921C198.883 10.0618 198.849 11.3524 198.803 12.564C198.803 13.881 198.792 15.1848 198.769 16.4755C198.746 17.7661 198.735 19.0699 198.735 20.3869V46.8583C198.735 48.386 198.758 49.861 198.803 51.2834C198.849 52.7057 199.054 53.7066 199.419 54.2861C199.966 55.1817 200.832 55.8665 202.017 56.3406C203.202 56.8147 204.274 57.1045 205.231 57.2098V58ZM308.736 58H294.718C294.307 57.5259 294.011 57.1703 293.829 56.9332C293.646 56.6962 293.441 56.4196 293.213 56.1035C292.985 55.7875 292.7 55.3265 292.359 54.7207C292.017 54.1149 291.481 53.2062 290.752 51.9946C289.885 50.5195 289.122 49.1894 288.461 48.0041C287.8 46.8188 287.127 45.6467 286.444 44.4877C285.76 43.3288 285.019 42.1567 284.221 40.9714C283.424 39.7861 282.478 38.456 281.384 36.9809C280.472 35.7693 279.48 34.6367 278.409 33.5831C277.338 32.5295 276.209 31.871 275.024 31.6076C274.158 31.3969 273.497 31.2916 273.041 31.2916C272.631 31.2916 272.107 31.2652 271.468 31.2125V40.1417C271.468 42.6703 271.491 44.8038 271.537 46.5422C271.582 48.228 271.628 49.6767 271.674 50.8883C271.719 52.0999 271.97 53.1008 272.426 53.891C272.79 54.5758 273.497 55.2738 274.546 55.985C275.594 56.6962 277.053 57.1045 278.922 57.2098V58H257.04V57.2098C258.18 56.9991 259.274 56.683 260.323 56.2616C261.371 55.8401 262.192 55.208 262.784 54.3651C263.012 54.049 263.194 53.5749 263.331 52.9428C263.468 52.3106 263.571 51.5995 263.639 50.8093C263.707 50.0191 263.764 49.1762 263.81 48.2807C263.855 47.3851 263.878 46.5159 263.878 45.673C263.878 44.9355 263.89 43.9346 263.912 42.6703C263.935 41.406 263.958 40.0232 263.981 38.5218C264.004 37.0204 264.015 35.4796 264.015 33.8992V13.9074C264.015 12.9591 264.004 11.9977 263.981 11.0232C263.958 10.0486 263.912 9.12671 263.844 8.25749C263.776 7.38828 263.662 6.5981 263.502 5.88692C263.343 5.17575 263.126 4.66213 262.853 4.34605C262.169 3.50317 261.405 2.93688 260.562 2.64714C259.719 2.3574 258.681 2.10718 257.451 1.89646V1.10627H260.254C261.804 1.10627 263.559 1.0931 265.519 1.06676C267.48 1.04042 269.44 1.02725 271.4 1.02725H276.187C279.241 1.02725 281.953 1.13261 284.324 1.34332C286.694 1.55404 288.86 2.26521 290.82 3.47684C292.826 4.68847 294.444 6.33469 295.675 8.41553C296.906 10.4964 297.521 13.1172 297.521 16.2779C297.521 18.2271 297.214 19.9786 296.598 21.5327C295.983 23.0867 295.162 24.4564 294.136 25.6417C293.111 26.827 291.914 27.841 290.546 28.6839C289.179 29.5268 287.743 30.238 286.239 30.8174V31.0545C287.013 31.5286 287.766 32.2134 288.495 33.109C289.224 34.0045 289.931 35.0054 290.615 36.1117C291.8 38.1135 293.088 40.2734 294.478 42.5913C295.869 44.9092 297.111 46.9637 298.205 48.7548C299.892 51.4941 301.533 53.4959 303.128 54.7602C304.724 56.0245 306.593 56.8411 308.736 57.2098V58ZM289.658 15.8038C289.658 13.1698 289.088 10.8256 287.948 8.77112C286.808 6.71661 285.144 5.08357 282.956 3.87193C281.862 3.29246 280.711 2.87103 279.503 2.60763C278.295 2.34423 277.03 2.21253 275.708 2.21253C274.751 2.21253 273.976 2.23887 273.383 2.29155C272.79 2.34423 272.335 2.39691 272.016 2.44959C271.97 2.76567 271.924 3.04223 271.879 3.27929C271.833 3.51635 271.799 3.81925 271.776 4.18801C271.753 4.55677 271.731 5.07039 271.708 5.72888C271.685 6.38738 271.651 7.32243 271.605 8.53406C271.56 10.3778 271.525 12.4587 271.503 14.7766C271.48 17.0945 271.468 19.3333 271.468 21.4932V30.1853C273.338 30.1853 275.081 30.0931 276.7 29.9087C278.318 29.7243 279.879 29.3424 281.384 28.7629C282.842 28.2361 284.096 27.525 285.144 26.6294C286.193 25.7339 287.048 24.7198 287.709 23.5872C288.37 22.4546 288.86 21.2298 289.179 19.9128C289.498 18.5958 289.658 17.2262 289.658 15.8038ZM400 42.9074L396.581 58H354.732V57.2098C355.872 56.9991 356.932 56.6567 357.912 56.1826C358.892 55.7084 359.701 55.05 360.34 54.2071C360.568 53.891 360.75 53.4301 360.887 52.8243C361.023 52.2184 361.149 51.5204 361.263 50.7302C361.377 49.9401 361.456 49.1104 361.502 48.2411C361.548 47.3719 361.57 46.5159 361.57 45.673C361.57 44.9355 361.582 43.9346 361.605 42.6703C361.627 41.406 361.65 40.0232 361.673 38.5218C361.696 37.0204 361.707 35.4796 361.707 33.8992C361.707 32.2661 361.707 30.7384 361.707 29.3161V13.9074C361.707 12.9591 361.696 11.9846 361.673 10.9837C361.65 9.98274 361.605 9.03452 361.536 8.13896C361.468 7.24341 361.354 6.44006 361.194 5.72888C361.035 5.01771 360.818 4.50409 360.545 4.18801C359.861 3.34514 359.132 2.80518 358.357 2.56812C357.582 2.33106 356.579 2.10718 355.348 1.89646V1.10627H393.094L397.743 14.1444L397.06 14.5395C393.367 9.21887 389.903 5.6367 386.666 3.79292C385.891 3.37148 384.455 3.00273 382.358 2.68665C380.261 2.37057 377.708 2.21253 374.699 2.21253C373.742 2.21253 372.751 2.25204 371.725 2.33106C370.699 2.41008 369.958 2.50227 369.503 2.60763C369.411 3.4505 369.332 5.18891 369.263 7.82289C369.195 10.4569 369.161 13.5122 369.161 16.9891C369.161 18.9909 369.161 20.6767 369.161 22.0463C369.161 23.416 369.172 24.5354 369.195 25.4046C369.218 26.2738 369.229 26.9455 369.229 27.4196C369.229 27.8411 369.229 28.1308 369.229 28.2888C369.457 28.2888 369.913 28.2888 370.597 28.2888C371.28 28.2888 372.067 28.2625 372.956 28.2098C373.845 28.1571 374.734 28.0913 375.623 28.0123C376.511 27.9332 377.252 27.8147 377.845 27.6567C379.212 27.2879 380.352 26.7875 381.264 26.1553C382.176 25.5232 382.916 24.7593 383.486 23.8638C384.056 22.9682 384.512 21.9278 384.854 20.7425C385.196 19.5572 385.503 18.2271 385.777 16.752H386.598V41.6431H385.777C385.412 39.9573 384.854 38.2189 384.102 36.4278C383.349 34.6367 382.563 33.2934 381.743 32.3978C381.013 31.6603 380.136 31.0545 379.11 30.5804C378.084 30.1063 376.888 29.8165 375.52 29.7112C374.836 29.6585 374.266 29.619 373.81 29.5926C373.355 29.5663 372.899 29.5531 372.443 29.5531C372.033 29.5531 371.577 29.5531 371.075 29.5531C370.619 29.5531 370.027 29.5531 369.297 29.5531C369.206 30.2906 369.161 31.3706 369.161 32.7929C369.161 34.2153 369.161 35.6903 369.161 37.218C369.161 37.9028 369.161 38.693 369.161 39.5886C369.161 40.4841 369.161 41.3797 369.161 42.2752C369.161 43.1181 369.172 43.9214 369.195 44.6853C369.218 45.4491 369.229 46.0945 369.229 46.6213C369.275 48.307 369.354 49.9005 369.468 51.4019C369.582 52.9033 369.844 54.0227 370.255 54.7602C370.665 55.4977 371.645 56.0245 373.195 56.3406C374.745 56.6567 376.432 56.8147 378.255 56.8147C379.03 56.8147 380.022 56.7884 381.23 56.7357C382.438 56.683 383.703 56.5513 385.025 56.3406C386.484 56.1299 387.828 55.7216 389.059 55.1158C390.29 54.51 391.475 53.654 392.615 52.5477C393.755 51.4414 394.86 50.0849 395.931 48.4782C397.003 46.8715 398.108 44.9355 399.248 42.6703L400 42.9074Z" fill="black"/>
</g>
<defs>
<clipPath id="clip0_222_37">
<rect width="400" height="58" fill="white"/>
</clipPath>
</defs>
</svg>
