<svg width="400" height="400" viewBox="0 0 400 400" fill="none" xmlns="http://www.w3.org/2000/svg">
<g clip-path="url(#clip0_315_277)">
<path d="M131.429 0H0V130.714H131.429V0Z" fill="url(#paint0_linear_315_277)"/>
<path d="M287.143 157.855H155.714V288.57H287.143V157.855Z" fill="url(#paint1_linear_315_277)"/>
<path d="M287.143 0H155.714V130.714H400V112.143C400 82.1429 387.857 54.2857 367.143 32.8571C345.714 12.1429 317.143 0 287.143 0Z" fill="url(#paint2_linear_315_277)"/>
<path d="M0 157.855V288.57C0 318.57 12.1429 346.427 32.8571 367.855C54.2857 388.57 82.8572 400.713 112.857 400.713H131.429V157.855H0Z" fill="url(#paint3_linear_315_277)"/>
<path opacity="0.18" d="M0 0L131.429 130.714H0V0Z" fill="url(#paint4_linear_315_277)"/>
<path opacity="0.18" d="M155.714 157.855L287.143 288.57H155.714V157.855Z" fill="url(#paint5_linear_315_277)"/>
<path opacity="0.18" d="M0 287.855C0 317.855 12.1429 345.713 32.8571 367.141C54.2857 387.855 82.8572 399.998 112.857 399.998H131.429V157.855L0 287.855Z" fill="url(#paint6_linear_315_277)"/>
<path opacity="0.18" d="M287.143 0C317.143 0 345.714 12.1429 367.143 32.8571C388.572 53.5714 400 82.1429 400 112.143V130.714H155.714L287.143 0Z" fill="url(#paint7_linear_315_277)"/>
</g>
<defs>
<linearGradient id="paint0_linear_315_277" x1="319.664" y1="332.054" x2="-233.063" y2="-248.684" gradientUnits="userSpaceOnUse">
<stop stop-color="#E82A73"/>
<stop offset="0.113" stop-color="#DE2D7A"/>
<stop offset="0.3" stop-color="#C5388F"/>
<stop offset="0.54" stop-color="#9B4AB0"/>
<stop offset="0.818" stop-color="#6262DE"/>
<stop offset="0.994" stop-color="#3B73FF"/>
</linearGradient>
<linearGradient id="paint1_linear_315_277" x1="322.737" y1="329.177" x2="-229.99" y2="-251.56" gradientUnits="userSpaceOnUse">
<stop stop-color="#FF3C82"/>
<stop offset="0.103" stop-color="#F53E88"/>
<stop offset="0.274" stop-color="#DC4598"/>
<stop offset="0.492" stop-color="#B251B2"/>
<stop offset="0.745" stop-color="#7961D7"/>
<stop offset="0.994" stop-color="#3B73FF"/>
</linearGradient>
<linearGradient id="paint2_linear_315_277" x1="320.265" y1="267.3" x2="132.979" y2="-411.405" gradientUnits="userSpaceOnUse">
<stop stop-color="#E82A73"/>
<stop offset="0.113" stop-color="#DE2D7A"/>
<stop offset="0.3" stop-color="#C5388F"/>
<stop offset="0.54" stop-color="#9B4AB0"/>
<stop offset="0.818" stop-color="#6262DE"/>
<stop offset="0.994" stop-color="#3B73FF"/>
</linearGradient>
<linearGradient id="paint3_linear_315_277" x1="259.418" y1="323.169" x2="-411.042" y2="118.913" gradientUnits="userSpaceOnUse">
<stop stop-color="#E82A73"/>
<stop offset="0.113" stop-color="#DE2D7A"/>
<stop offset="0.3" stop-color="#C5388F"/>
<stop offset="0.54" stop-color="#9B4AB0"/>
<stop offset="0.818" stop-color="#6262DE"/>
<stop offset="0.994" stop-color="#3B73FF"/>
</linearGradient>
<linearGradient id="paint4_linear_315_277" x1="-62.7043" y1="-163.761" x2="125.097" y2="266.562" gradientUnits="userSpaceOnUse">
<stop stop-color="#E82A73"/>
<stop offset="0.114" stop-color="#DE286E"/>
<stop offset="0.303" stop-color="#C52361"/>
<stop offset="0.544" stop-color="#9B1A4D"/>
<stop offset="0.825" stop-color="#620F30"/>
<stop offset="0.994" stop-color="#3D081E"/>
</linearGradient>
<linearGradient id="paint5_linear_315_277" x1="93.0823" y1="-6.18653" x2="280.884" y2="424.138" gradientUnits="userSpaceOnUse">
<stop stop-color="#E82A73"/>
<stop offset="0.114" stop-color="#DE286E"/>
<stop offset="0.303" stop-color="#C52361"/>
<stop offset="0.544" stop-color="#9B1A4D"/>
<stop offset="0.825" stop-color="#620F30"/>
<stop offset="0.994" stop-color="#3D081E"/>
</linearGradient>
<linearGradient id="paint6_linear_315_277" x1="-132.354" y1="121.101" x2="292.973" y2="403.657" gradientUnits="userSpaceOnUse">
<stop stop-color="#E82A73"/>
<stop offset="0.114" stop-color="#DE286E"/>
<stop offset="0.303" stop-color="#C52361"/>
<stop offset="0.544" stop-color="#9B1A4D"/>
<stop offset="0.825" stop-color="#620F30"/>
<stop offset="0.994" stop-color="#3D081E"/>
</linearGradient>
<linearGradient id="paint7_linear_315_277" x1="1256.51" y1="7844.58" x2="1329.39" y2="8420" gradientUnits="userSpaceOnUse">
<stop stop-color="#E82A73"/>
<stop offset="0.114" stop-color="#DE286E"/>
<stop offset="0.303" stop-color="#C52361"/>
<stop offset="0.544" stop-color="#9B1A4D"/>
<stop offset="0.825" stop-color="#620F30"/>
<stop offset="0.994" stop-color="#3D081E"/>
</linearGradient>
<clipPath id="clip0_315_277">
<rect width="400" height="400" fill="white"/>
</clipPath>
</defs>
</svg>
