<svg width="334" height="400" viewBox="0 0 334 400" fill="none" xmlns="http://www.w3.org/2000/svg">
<mask id="mask0_212_26" style="mask-type:luminance" maskUnits="userSpaceOnUse" x="0" y="0" width="334" height="400">
<path d="M290.965 89.4595C290.515 87.071 289 84.934 286.748 83.5138C284.496 82.0937 281.691 81.5055 278.943 81.8773C276.784 82.127 274.787 83.0095 273.281 84.3794L218.921 131.616L176.408 60.9507C175.774 59.8896 174.906 58.9478 173.853 58.179C172.801 57.4103 171.584 56.8297 170.273 56.4705C168.963 56.1114 167.583 55.9807 166.214 56.0859C164.846 56.1912 163.514 56.5303 162.296 57.0838C160.45 58.0101 158.917 59.3439 157.853 60.9507L134.68 99.6195L76.2259 4.69135C75.5704 3.64884 74.6848 2.7293 73.6198 1.98554C72.5549 1.24178 71.3316 0.68845 70.0203 0.357324C68.709 0.0261971 67.3354 -0.0761997 65.9784 0.0560129C64.6215 0.188226 63.3079 0.552445 62.1132 1.12775C60.695 1.78667 59.4653 2.7149 58.5152 3.84366C57.5652 4.97242 56.9191 6.27278 56.6249 7.64837L0 322.458L151.145 396.611C155.805 398.835 161.033 400 166.347 400C171.66 400 176.889 398.835 181.548 396.611L334 322.761L290.965 89.4595Z" fill="white"/>
</mask>
<g mask="url(#mask0_212_26)">
<path d="M0 322.456L56.6249 7.64653C57.054 5.31947 58.5207 3.23374 60.7064 1.84245C62.8922 0.451166 65.6204 -0.133289 68.2984 0.216054C69.8802 0.46854 71.379 1.02047 72.6887 1.8328C73.9983 2.64513 75.0869 3.69802 75.8774 4.91697L134.332 99.921L157.504 61.2521C158.139 60.1911 159.007 59.2492 160.06 58.4804C161.112 57.7117 162.329 57.1311 163.64 56.772C164.95 56.4128 166.33 56.2821 167.699 56.3874C169.067 56.4926 170.399 56.8317 171.617 57.3853C173.463 58.3115 174.996 59.6454 176.06 61.2521L333.739 322.456H0Z" fill="#FFA000"/>
<path opacity="0.12" d="M193.135 2.34052L-83.543 -18.207V417.917L0.000595093 322.458L193.135 2.34052Z" fill="url(#paint0_linear_212_26)"/>
<path d="M195.487 199.855L134.506 99.6953L0 322.458L195.487 199.855Z" fill="#F57C00"/>
<path opacity="0.2" d="M-83.543 -18.207H417.544V417.917H-83.543V-18.207Z" fill="url(#paint1_linear_212_26)"/>
<path d="M334.087 322.456L290.529 89.2302C290.08 86.8417 288.564 84.7047 286.312 83.2845C284.061 81.8644 281.255 81.2762 278.508 81.648C276.354 81.9147 274.363 82.7946 272.845 84.1502L0 322.456L151.145 396.609C155.805 398.833 161.033 399.998 166.347 399.998C171.66 399.998 176.889 398.833 181.548 396.609L334.087 322.456Z" fill="#FFCA28"/>
<path d="M290.965 89.4595C290.515 87.071 289 84.934 286.748 83.5138C284.496 82.0937 281.691 81.5055 278.943 81.8773C276.784 82.127 274.787 83.0095 273.281 84.3794L218.921 131.616L176.408 60.9507C175.774 59.8896 174.906 58.9478 173.853 58.179C172.801 57.4103 171.584 56.8297 170.273 56.4705C168.963 56.1114 167.583 55.9807 166.214 56.0859C164.846 56.1912 163.514 56.5303 162.296 57.0838C160.45 58.0101 158.917 59.3439 157.853 60.9507L134.68 99.6195L76.2259 4.69135C75.5704 3.64884 74.6848 2.7293 73.6198 1.98554C72.5549 1.24178 71.3316 0.68845 70.0203 0.357324C68.7089 0.0261971 67.3354 -0.0761997 65.9784 0.0560129C64.6215 0.188226 63.3079 0.552445 62.1132 1.12775C60.695 1.78667 59.4653 2.7149 58.5152 3.84366C57.5652 4.97242 56.9191 6.27278 56.6249 7.64837L0 322.458L1.56808 323.141L219.356 133.587L273.716 86.3508C274.675 85.484 275.825 84.7944 277.098 84.3234C278.37 83.8524 279.738 83.6097 281.121 83.6097C282.504 83.6097 283.872 83.8524 285.144 84.3234C286.417 84.7944 287.567 85.484 288.526 86.3508C290.135 87.6694 291.154 89.443 291.401 91.355L334.261 322.306H334.784L290.965 89.4595ZM0.522692 322.003L56.6249 9.92301C56.8058 8.75283 57.2533 7.62584 57.9411 6.60812C58.6289 5.5904 59.5432 4.70243 60.6304 3.99625C61.7177 3.29008 62.9559 2.77991 64.2726 2.49566C65.5893 2.21141 66.958 2.15879 68.2984 2.34089C69.8865 2.57806 71.3927 3.1239 72.7049 3.9378C74.0171 4.75169 75.1015 5.81269 75.8774 7.04181L134.332 102.046L157.504 63.377C158.13 62.3087 158.993 61.3596 160.045 60.5851C161.096 59.8107 162.315 59.2264 163.629 58.8663C164.942 58.5063 166.326 58.3778 167.697 58.4884C169.069 58.5989 170.401 58.9462 171.617 59.5101C173.463 60.4364 174.996 61.7702 176.06 63.377L217.788 132.45L0.522692 322.003Z" fill="white" fill-opacity="0.2"/>
<path opacity="0.2" d="M181.549 394.034C176.878 396.271 171.634 397.444 166.303 397.444C160.973 397.444 155.729 396.271 151.058 394.034L0.261719 320.791V322.838L151.145 396.612C155.805 398.835 161.033 400.001 166.347 400.001C171.661 400.001 176.889 398.835 181.549 396.612L334 322.762V320.715L181.549 394.034Z" fill="#A52714"/>
<path d="M290.965 89.4595C290.515 87.071 289 84.934 286.748 83.5138C284.496 82.0937 281.691 81.5055 278.943 81.8773C276.784 82.127 274.787 83.0095 273.281 84.3794L218.921 131.616L176.408 60.9507C175.774 59.8896 174.906 58.9478 173.853 58.179C172.801 57.4103 171.584 56.8297 170.273 56.4705C168.963 56.1114 167.583 55.9807 166.214 56.0859C164.846 56.1912 163.514 56.5303 162.296 57.0838C160.45 58.0101 158.917 59.3439 157.853 60.9507L134.68 99.6195L76.2259 4.69135C75.5704 3.64884 74.6848 2.7293 73.6198 1.98554C72.5549 1.24178 71.3316 0.68845 70.0203 0.357324C68.709 0.0261971 67.3354 -0.0761997 65.9784 0.0560129C64.6215 0.188226 63.3079 0.552445 62.1132 1.12775C60.695 1.78667 59.4653 2.7149 58.5152 3.84366C57.5652 4.97242 56.9191 6.27278 56.6249 7.64837L0 322.458L151.145 396.611C155.805 398.835 161.033 400 166.347 400C171.66 400 176.889 398.835 181.548 396.611L334 322.761L290.965 89.4595Z" fill="url(#paint2_linear_212_26)"/>
</g>
<defs>
<linearGradient id="paint0_linear_212_26" x1="65.0757" y1="214.716" x2="45.5946" y2="203.009" gradientUnits="userSpaceOnUse">
<stop stop-color="#A52714"/>
<stop offset="0.4" stop-color="#A52714" stop-opacity="0.5"/>
<stop offset="0.8" stop-color="#A52714" stop-opacity="0"/>
</linearGradient>
<linearGradient id="paint1_linear_212_26" x1="153.759" y1="188.254" x2="145.724" y2="179.022" gradientUnits="userSpaceOnUse">
<stop stop-color="#A52714" stop-opacity="0.8"/>
<stop offset="0.5" stop-color="#A52714" stop-opacity="0.21"/>
<stop offset="1" stop-color="#A52714" stop-opacity="0"/>
</linearGradient>
<linearGradient id="paint2_linear_212_26" x1="-8.90144" y1="70.3214" x2="291.63" y2="415.85" gradientUnits="userSpaceOnUse">
<stop stop-color="white" stop-opacity="0.1"/>
<stop offset="1" stop-color="white" stop-opacity="0"/>
</linearGradient>
</defs>
</svg>
