<svg width="250" height="400" viewBox="0 0 250 400" fill="none" xmlns="http://www.w3.org/2000/svg">
<g clip-path="url(#clip0_303_58)">
<path d="M172.917 200.599H207.813C210.938 200.599 213.021 198.204 213.021 194.611C213.021 194.012 213.021 192.814 212.5 192.216L152.604 3.59281C151.562 1.79641 150 0 147.917 0H113.021C109.896 0 107.812 2.39521 107.812 5.98802C107.812 6.58683 107.812 7.18563 108.333 7.78443L168.229 196.407C168.75 198.802 170.833 200.599 172.917 200.599Z" fill="#0073FF"/>
<path d="M166.667 400H201.562C204.687 400 206.771 397.605 206.771 394.012C206.771 393.413 206.771 392.814 206.25 392.216L82.8125 4.19162C81.7708 1.79641 79.6875 0 77.6042 0H42.7083C39.5833 0 37.5 2.39521 37.5 5.98802C37.5 6.58683 37.5 7.18563 38.0208 7.78443L161.979 395.808C162.5 398.802 164.583 400 166.667 400Z" fill="#0073FF"/>
<path d="M97.9167 399.999H132.813C135.417 399.999 138.021 397.604 138.021 394.61C138.021 394.011 138.021 392.813 137.5 392.214L77.0833 204.19C76.5625 201.795 74.4792 200.598 72.3958 200.598H37.5C34.8958 200.598 32.8125 203.592 32.8125 206.586C32.8125 207.184 32.8125 207.783 33.3333 208.382L93.2292 397.005C93.75 398.801 95.8333 399.999 97.9167 399.999Z" fill="#0073FF"/>
<path d="M177.083 8.38323L205.208 96.4072C205.729 98.8024 207.812 100 209.896 100H244.792C247.917 100 250 97.6048 250 94.012C250 93.4132 250 92.8144 249.479 92.2156L221.354 4.19162C220.833 1.79641 218.75 0 216.667 0H181.771C178.646 0 176.563 2.39521 176.563 5.98802C176.563 6.58683 176.562 7.78443 177.083 8.38323Z" fill="#0073FF"/>
<path d="M33.3333 400H68.2292C71.3542 400 73.4375 397.605 73.4375 394.012C73.4375 393.413 73.4375 392.814 72.9167 392.216L44.7917 303.593C44.2708 301.198 42.1875 300 40.1042 300H5.20833C2.08333 300 0 302.395 0 305.988C0 306.587 0 307.186 0.520833 307.784L28.6458 396.407C29.1667 398.802 31.25 400 33.3333 400Z" fill="#0073FF"/>
</g>
<defs>
<clipPath id="clip0_303_58">
<rect width="250" height="400" fill="white"/>
</clipPath>
</defs>
</svg>
