<svg width="400" height="400" viewBox="0 0 400 400" fill="none" xmlns="http://www.w3.org/2000/svg">
<path d="M271.314 116.008L387.637 168.788C413.08 134.13 398.001 89.8833 353.889 69.843L200.033 0L46.1104 69.843C1.99966 89.817 -13.0804 134.13 12.3631 168.788L126.826 116.869L199.966 83.7984L271.248 116.008H271.314Z" fill="#F4B943"/>
<path d="M271.314 231.637L387.637 284.417C413.08 249.76 398.001 205.512 353.889 185.473L200.033 115.629L46.1104 185.473C1.99966 205.447 -13.0804 249.76 12.3631 284.417L126.826 232.497L199.966 199.428L271.248 231.637H271.314Z" fill="#50ADD7"/>
<path d="M271.312 347.219L387.635 399.999C413.078 365.341 397.998 321.094 353.887 301.054L200.031 231.211L46.1745 301.054C1.9973 321.094 -13.0827 365.341 12.3606 399.999L126.822 348.079L199.964 315.01L271.246 347.219H271.312Z" fill="#EB484B"/>
</svg>
