<svg width="400" height="287" viewBox="0 0 400 287" fill="none" xmlns="http://www.w3.org/2000/svg">
<g clip-path="url(#clip0_277_58)">
<path d="M0 106.439H113.161V181.014H0V106.439ZM144.432 0.452547H255.568V75.0274H144.432V0.452547ZM144.432 211.974H255.568V286.549H144.432V211.974ZM286.614 106.439H400.225V181.014H286.614V106.439ZM46.5692 0.452547C22.9471 6.55412 4.49944 32.9943 0 66.8919V75.2533H113.161V0.452547H46.5692ZM0 211.974V221.239C4.04949 253.555 21.3723 279.317 43.6445 286.549H113.386V211.974H0ZM400 75.0274V66.6659C395.501 33.2203 377.053 6.55412 353.431 0.226562H286.389V74.8014H400V75.0274ZM356.355 287.001C378.403 279.317 395.726 254.007 400 221.691V212.426H286.389V287.001H356.355Z" fill="#EE3124"/>
</g>
<defs>
<clipPath id="clip0_277_58">
<rect width="400" height="287" fill="white"/>
</clipPath>
</defs>
</svg>
