<svg width="400" height="400" viewBox="0 0 400 400" fill="none" xmlns="http://www.w3.org/2000/svg">
<g clip-path="url(#clip0_705_7)">
<path d="M51.8789 222.233C56.263 254.175 71.2944 282.985 93.8413 306.158L144.572 255.428C144.572 201.565 172.756 152.714 219.102 125.156L51.8789 222.233Z" fill="#9B65C3"/>
<path d="M145.198 254.802C118.894 254.802 93.215 247.913 70.6681 234.76C64.405 231.003 58.142 226.619 51.8789 222.234C56.263 254.176 71.2944 282.986 93.8413 306.159L145.198 254.802Z" fill="#9B65C3"/>
<path d="M145.197 254.8L93.8398 306.157C117.013 329.33 145.823 343.735 177.138 348.119L274.216 180.27C247.911 225.99 198.433 254.8 145.197 254.8Z" fill="#BE63C5"/>
<path d="M165.239 329.96C152.086 306.787 145.197 281.734 145.197 255.43L93.8398 306.16C117.013 329.334 145.823 343.739 177.138 348.123C173.381 341.86 168.996 336.223 165.239 329.96Z" fill="#BF63C6"/>
<path d="M336.221 58.1406L219.729 124.529C173.382 150.834 117.015 150.834 70.0418 124.529C56.8894 147.702 50 174.007 50 200.312C50 207.201 50.6263 215.343 51.8789 222.232C58.142 226.617 64.405 231.001 70.6681 234.759C93.8413 247.911 118.894 254.8 145.198 254.8L338.727 61.2721C337.474 60.6458 336.848 59.3932 336.221 58.1406Z" fill="#3278B1"/>
<path d="M70.0417 234.761C93.215 247.913 118.267 254.803 144.572 254.803C144.572 200.94 172.756 152.089 219.102 124.531L51.8789 221.608C58.142 226.619 63.7787 231.003 70.0417 234.761Z" fill="#3278B2"/>
<path d="M70.0418 124.531C56.8894 147.705 50 174.009 50 200.314C50 207.203 50.6263 215.345 51.8789 222.235L219.729 124.531C174.008 152.089 117.015 152.089 70.0418 124.531Z" fill="#45A4EC"/>
<path d="M338.728 61.2735C336.223 58.7683 334.344 56.8894 331.838 55.0104C326.202 51.8789 319.312 50 313.049 50H199.688C145.826 50 96.3478 78.81 70.043 124.53C116.39 150.835 172.757 150.835 219.73 124.53C173.383 150.835 145.2 200.939 145.2 254.802C199.062 254.802 247.914 226.618 275.471 180.271L341.859 63.7787C340.607 63.1524 339.354 62.5261 338.728 61.2735Z" fill="#19BB7D"/>
<path d="M219.73 124.529L336.223 58.1406C334.344 57.5143 333.717 55.6354 331.838 54.3828L70.043 124.529C117.016 152.086 174.01 152.086 219.73 124.529Z" fill="#08C7FB"/>
<path d="M312.423 50H199.688C145.826 50 96.3478 78.81 70.043 124.53L331.838 54.3841C325.575 51.8789 319.312 50 312.423 50Z" fill="#59F2F6"/>
<path d="M275.469 180.27L341.858 63.7774C341.231 63.1511 339.979 61.8984 339.352 60.0195L145.824 254.174C145.824 280.479 152.714 306.157 165.866 328.704C169.624 334.967 174.008 341.23 178.392 347.493C185.281 348.12 192.171 349.372 199.686 349.372C225.991 349.372 251.67 342.483 274.217 329.331C247.912 282.984 247.912 225.99 275.469 180.27Z" fill="#DA3757"/>
<path d="M145.199 254.8C145.199 281.105 152.089 306.783 165.241 329.33C168.999 335.593 173.383 341.856 177.767 348.119L274.844 180.27C247.913 225.99 198.435 254.8 145.199 254.8Z" fill="#D33C4E"/>
<path d="M275.468 180.27L178.391 348.119C185.28 348.746 192.169 349.998 200.311 349.998C226.616 349.998 252.295 343.109 274.842 329.956C247.91 282.984 247.91 225.99 275.468 180.27Z" fill="#EE5A24"/>
<path d="M344.99 68.7878C342.485 64.4037 339.98 60.6458 336.222 58.1406L219.729 124.529C173.383 150.834 145.199 200.938 145.199 254.8C199.061 254.8 247.913 226.617 275.471 180.27C249.166 226.617 249.166 282.984 275.471 329.957C321.191 303.652 350.001 254.174 350.001 201.564V87.5769C350.001 80.6876 348.122 74.4245 344.99 68.7878Z" fill="#8BDF55"/>
<path d="M336.222 58.1406L219.729 124.529C173.383 150.834 145.199 200.938 145.199 254.8L338.727 61.2721C337.475 60.6458 336.848 58.7669 336.222 58.1406Z" fill="#25C16F"/>
<path d="M145.199 254.8C199.061 254.8 247.913 226.617 275.471 180.27L341.859 63.7774C341.233 63.1511 339.98 61.8984 339.354 60.0195L145.199 254.8Z" fill="#8BDF55"/>
<path d="M341.859 63.7773L275.471 180.27C249.166 226.617 249.166 282.984 275.471 329.957L345.617 68.7878C343.738 66.9089 343.112 65.6563 341.859 63.7773Z" fill="#FFBB00"/>
<path d="M275.469 329.959C321.815 303.655 349.999 254.177 349.999 200.314V87.5795C349.999 80.6902 348.12 74.4271 344.989 68.1641L275.469 329.959Z" fill="#FFA800"/>
</g>
<defs>
<clipPath id="clip0_705_7">
<rect width="300" height="300" fill="white" transform="translate(50 50)"/>
</clipPath>
</defs>
</svg>
