<svg width="400" height="400" viewBox="0 0 400 400" fill="none" xmlns="http://www.w3.org/2000/svg">
<path d="M59.6608 221.037C64.3665 251.762 78.7602 279.442 99.5205 300.203L147.961 251.762C147.961 202.768 173.427 155.158 218.823 128.862L59.6608 221.037Z" fill="#9B65C3"/>
<path d="M147.961 251.762C123.879 251.762 99.5205 245.673 77.0994 232.663C71.0098 229.064 65.1969 225.189 59.6608 220.76C64.3665 251.486 78.7602 279.166 99.5205 299.926L147.961 251.762Z" fill="#9B65C3"/>
<path d="M147.961 251.762L99.5204 300.203C120.557 321.24 147.961 335.634 178.686 340.062L270.585 180.901C244.565 226.296 196.955 251.762 147.961 251.762Z" fill="#BE63C5"/>
<path d="M167.06 322.901C154.051 300.479 147.961 276.121 147.961 252.039L99.5204 300.479C120.557 321.517 147.961 335.91 178.686 340.339C174.534 334.803 170.659 328.99 167.06 322.901Z" fill="#BF63C6"/>
<path d="M328.437 65.7506L219.099 129.139C173.704 155.435 119.727 153.497 77.3762 129.139C65.1969 149.899 58.2768 174.257 58.2768 200C58.2768 207.197 58.8304 214.117 59.9376 221.037C65.4737 225.466 71.2866 229.341 77.3762 232.94C99.7973 245.949 124.156 252.039 148.238 252.039L331.481 68.7955C330.374 67.6882 329.544 66.581 328.437 65.7506Z" fill="#3278B1"/>
<path d="M77.0994 232.939C99.5205 245.949 123.879 252.039 147.961 252.039C147.961 203.045 173.427 155.434 218.823 129.138L59.384 221.037C65.1969 225.189 71.0098 229.341 77.0994 232.939Z" fill="#3278B2"/>
<path d="M77.0994 129.138C64.9201 149.898 58 174.257 58 200C58 207.197 58.5536 214.117 59.6608 221.037L219.099 129.138C173.427 155.158 119.45 153.497 77.0994 129.138Z" fill="#45A4EC"/>
<path d="M331.481 68.5186C330.651 67.6882 329.544 66.5809 328.437 65.7505C327.053 64.6433 325.669 63.5361 324.008 62.7057C318.749 59.6609 312.659 58 306.292 58H200C147.407 58 101.735 86.5107 77.0994 128.862C119.45 153.22 173.427 155.158 218.823 128.862C173.427 155.158 147.961 202.768 147.961 251.762C196.955 251.762 244.565 226.296 270.862 180.901L333.973 71.5634C333.142 70.4562 332.312 69.349 331.481 68.5186Z" fill="#19BB7D"/>
<path d="M219.099 129.139L328.437 66.0275C327.053 64.9203 325.669 63.8131 324.008 62.9827L77.0994 129.139C119.45 153.497 173.427 155.158 219.099 129.139Z" fill="#08C7FB"/>
<path d="M306.292 58H200C147.407 58 101.735 86.5107 77.0994 128.862L324.008 62.7057C318.749 59.9377 312.936 58 306.292 58Z" fill="#59F2F6"/>
<path d="M270.862 180.901L333.973 71.5635C333.142 70.4563 332.312 69.6259 331.205 68.5187L147.961 251.762C147.961 275.844 154.051 300.203 167.06 322.624C170.659 328.714 174.534 334.526 178.963 340.063C185.883 341.17 192.803 341.723 200 341.723C225.743 341.723 250.101 334.803 270.862 322.624C246.503 280.273 244.565 226.296 270.862 180.901Z" fill="#DA3757"/>
<path d="M147.961 251.762C147.961 275.844 154.051 300.203 167.06 322.624C170.659 328.713 174.534 334.526 178.963 340.062L270.862 180.901C244.565 226.296 196.955 251.762 147.961 251.762Z" fill="#D33C4E"/>
<path d="M270.862 180.901L178.963 340.339C185.883 341.446 192.803 342 200 342C225.743 342 250.101 335.08 270.862 322.901C246.503 280.273 244.565 226.296 270.862 180.901Z" fill="#EE5A24"/>
<path d="M337.018 75.9923C336.187 74.3315 335.08 72.9475 333.973 71.5635C333.142 70.4563 332.312 69.6259 331.205 68.5186C330.374 67.6882 329.267 66.581 328.16 65.7506L219.099 129.139C173.704 155.435 148.238 203.045 148.238 252.039C197.232 252.039 244.842 226.573 271.138 181.177C244.842 226.573 246.78 280.55 271.138 322.901C313.489 298.265 342 252.593 342 200V93.7077C341.723 87.0645 340.062 80.9747 337.018 75.9923Z" fill="#8BDF55"/>
<path d="M328.437 65.7506L219.099 129.139C173.704 155.435 148.238 203.045 148.238 252.039L331.482 68.7955C330.374 67.6882 329.544 66.581 328.437 65.7506Z" fill="#25C16F"/>
<path d="M147.961 251.762C196.955 251.762 244.565 226.296 270.862 180.901L333.973 71.5635C333.142 70.4563 332.312 69.6259 331.205 68.5187L147.961 251.762Z" fill="#8BDF55"/>
<path d="M333.973 71.5635L270.862 180.901C244.565 226.296 246.503 280.273 270.862 322.624L337.018 75.7155C336.187 74.3315 335.08 72.9475 333.973 71.5635Z" fill="#FFBB00"/>
<path d="M270.862 322.901C313.212 298.265 341.723 252.593 341.723 200V93.7077C341.723 87.3412 340.062 81.2514 337.018 75.9922L270.862 322.901Z" fill="#FFA800"/>
</svg>
