<svg width="400" height="400" viewBox="0 0 400 400" fill="none" xmlns="http://www.w3.org/2000/svg">
<path d="M57.2348 400C25.7235 400 0 375.941 0 346.468C0 316.995 25.7235 292.936 57.2348 292.936H114.47V346.468C114.47 375.941 88.746 400 57.2348 400Z" fill="#00359E"/>
<path d="M140.836 267.656H64.3086C28.9389 267.656 0 240.89 0 207.508C0 174.125 28.9389 147.359 64.3086 147.359H255.305V248.409C255.305 281.19 226.688 307.956 191.64 307.956H140.836V267.656Z" fill="#00359E"/>
<path d="M285.53 120.598H64.3086C28.6174 120.598 0 93.5311 0 60.4493C0 27.0668 28.9389 0 64.3086 0H400V101.05C400 133.831 371.383 160.596 336.335 160.596H285.53V120.598Z" fill="#00359E"/>
</svg>
