<svg width="400" height="400" viewBox="0 0 400 400" fill="none" xmlns="http://www.w3.org/2000/svg">
<path d="M200.138 387.489C303.761 387.489 387.765 303.486 387.765 199.863C387.765 96.2396 303.761 12.2363 200.138 12.2363C96.5149 12.2363 12.5117 96.2396 12.5117 199.863C12.5117 303.486 96.5149 387.489 200.138 387.489Z" fill="white"/>
<path d="M200 194.25C221.573 194.25 239.098 176.724 239.098 155.151C239.098 133.578 221.573 116.053 200 116.053C178.427 116.053 160.901 133.578 160.901 155.151C160.901 176.724 178.427 194.25 200 194.25Z" fill="#4DC6E7"/>
<path d="M280.267 305.75H119.733C116.927 305.75 114.719 303.45 114.857 300.644C115.455 288.822 118.123 277.323 122.585 266.559C123.367 264.719 125.161 263.523 127.139 263.523H224.149C237.764 263.523 248.85 252.484 248.85 238.822V236.385C248.85 232.935 253.036 231.187 255.474 233.625C264.167 242.364 271.159 252.484 276.127 263.477C281.417 275.115 284.545 287.672 285.189 300.644C285.327 303.45 283.073 305.75 280.267 305.75ZM200 77.8289C242.64 77.8289 277.369 112.557 277.369 155.198C277.369 197.884 242.64 232.567 200 232.567C157.314 232.567 122.631 197.838 122.631 155.198C122.631 112.511 157.314 77.8289 200 77.8289ZM200 0C89.5584 0 0 89.5584 0 200C0 310.442 89.5584 400 200 400C310.442 400 400 310.442 400 200C400 89.5584 310.488 0 200 0Z" fill="#4DC6E7"/>
</svg>
