<svg width="265" height="400" viewBox="0 0 265 400" fill="none" xmlns="http://www.w3.org/2000/svg">
<path d="M3.43645 290.332H68.9008C71.3407 327.018 96.7532 338.613 129.503 338.613C160.774 338.613 189.125 324.132 189.125 294.678C189.125 271.505 173.97 253.628 130.482 253.628C51.3062 253.628 0 207.282 0 133.468C0 52.778 63.0417 11.7285 130.482 11.7285C147.664 11.7285 233.575 65.816 233.575 65.816C249.692 85.1185 258.49 107.324 258.49 129.546C258.49 165.757 243.352 199.066 206.685 217.91C260.466 241.083 260.466 281.164 260.466 294.746C260.466 365.725 195.465 400.001 129.503 400.001C45.447 400.001 1.95878 359.376 3.43645 290.332ZM191.067 133.468C191.067 100.16 165.173 73.6083 130.482 73.6083C94.8116 73.6083 67.9214 94.8461 67.9214 133.468C67.9214 168.236 94.8116 190.441 130.482 190.441C162.235 190.374 191.067 171.546 191.067 133.468Z" fill="#002337"/>
<path d="M258.197 132.434C258.197 198.982 200.396 252.968 129.106 252.968L258.197 132.434Z" fill="#002337"/>
<path d="M129.106 11.7285C200.396 11.7285 258.197 65.8839 258.197 132.432L129.106 11.7285Z" fill="#002337"/>
<path d="M219.268 -0.00027941L193.486 27.7988L239.218 69.2028L265 41.4037L219.268 -0.00027941Z" fill="#002337"/>
</svg>
