<svg width="400" height="260" viewBox="0 0 400 260" fill="none" xmlns="http://www.w3.org/2000/svg">
<g clip-path="url(#clip0_73_100)">
<path d="M400 242.871C400 252.659 392.216 260 383.234 260H16.7665C7.78443 260.612 0 252.659 0 242.871V17.1294C0 7.95294 7.78443 0 16.7665 0H382.635C392.216 0 399.401 7.95294 399.401 17.1294L400 242.871Z" fill="#00BAFF"/>
<path d="M396.407 6.72949C349.101 81.3648 275.449 150.494 199.401 148.659C171.257 148.047 139.52 140.094 112.574 117.459C92.215 100.941 72.4545 74.6354 64.6701 37.3177H56.8857C44.3108 37.3177 37.1252 48.3295 38.3228 58.7295C38.9216 61.1766 39.5204 63.6236 39.5204 66.6824C45.5084 102.777 66.4665 144.377 101.796 170.682C129.341 191.482 162.874 204.941 199.999 204.941C266.467 204.941 337.724 161.506 399.999 50.1648V17.1295C399.999 13.4589 398.802 9.17655 396.407 6.72949Z" fill="white"/>
</g>
<defs>
<clipPath id="clip0_73_100">
<rect width="400" height="260" fill="white"/>
</clipPath>
</defs>
</svg>
