<svg width="400" height="400" viewBox="0 0 400 400" fill="none" xmlns="http://www.w3.org/2000/svg">
<path d="M235.231 349.682C317.852 330.168 369.019 247.337 349.515 164.675C330.01 82.0116 247.221 30.8194 164.599 50.3334C81.978 69.8475 30.8114 152.678 50.3157 235.341C69.82 318.004 152.609 369.196 235.231 349.682Z" fill="black"/>
<path d="M256.739 119.122C242.654 118.671 233.339 122.269 227.613 129.46C219.972 123.167 207.558 119.122 197.051 119.122C164.816 119.122 148.105 139.347 148.105 159.8C148.105 173.96 156.224 182.948 166.49 190.815C160.998 192.388 147.148 200.925 147.148 212.162C147.148 224.748 159.802 227.671 165.534 231.041V231.493C154.789 231.493 143.091 238.457 143.091 253.068C143.091 271.496 165.055 280.932 198.482 280.932C238.119 280.932 256.026 262.955 256.026 246.323C256.026 199.58 174.37 225.2 174.37 206.32C174.37 199.58 184.637 199.128 197.525 199.128C228.565 199.128 244.324 183.395 244.324 161.373C244.324 152.385 241.458 145.64 237.64 140.697C242.176 138.002 249.816 138.002 256.739 138.002V119.122ZM191.32 235.985C219.972 235.985 228.804 244.075 228.804 249.47C228.804 253.515 222.36 262.503 203.257 262.503C178.427 262.503 170.308 258.458 170.308 249.47C170.308 244.526 175.083 235.985 191.32 235.985ZM196.812 178.452C184.158 178.452 175.322 169.915 175.322 159.125C175.322 148.336 184.158 139.799 196.812 139.799C208.031 139.799 217.107 148.336 217.107 159.125C217.107 169.915 208.031 178.452 196.812 178.452Z" fill="white"/>
</svg>
