<svg width="351" height="400" viewBox="0 0 351 400" fill="none" xmlns="http://www.w3.org/2000/svg">
<path fill-rule="evenodd" clip-rule="evenodd" d="M263.941 8.19455C250.099 -2.80386 229.335 -2.6735 215.532 8.23856C204.437 17.0121 190.221 21.8431 175.498 21.8431C160.778 21.8431 146.563 17.0114 135.472 8.23887C121.659 -2.68214 100.889 -2.79541 87.0499 8.20161L86.9804 8.25696L86.9116 8.31293C44.9694 42.5464 40.1939 82.7193 41.462 106.309L24.4046 117.805C9.10834 127.937 0 144.215 0 161.413V182.138C0 248.695 28.6502 314.515 76.341 353.719C112.574 383.501 144.443 399.951 175.492 400H175.542C206.562 399.951 238.431 383.5 274.658 353.719C322.354 314.515 351 248.695 351 182.138V161.413C351 144.231 341.909 127.947 326.667 117.853L309.565 106.328C310.768 81.9293 305.05 41.5492 264.051 8.28149L263.997 8.23779L263.941 8.19455Z" fill="white"/>
<path fill-rule="evenodd" clip-rule="evenodd" d="M167.529 91.3922C165.673 89.6588 163.2 87.3524 159.573 84.3369C135.05 63.946 102.638 58.3078 76.6722 74.295C82.0577 57.1923 92.7615 41.6452 107.817 29.6829C109.775 28.1275 112.782 28.1649 114.815 29.7716C131.701 43.0743 152.722 50.4046 175.523 50.4046C198.324 50.4046 219.402 43.0743 236.232 29.7716C238.261 28.1649 241.271 28.1275 243.229 29.6829C258.285 41.6452 268.988 57.1923 274.374 74.295C248.409 58.3078 215.996 63.946 191.474 84.3369C187.846 87.3524 185.374 89.6588 183.517 91.3924C179.846 94.8179 178.573 96.0059 175.523 96.0059C172.474 96.0059 171.201 94.8179 167.529 91.3922ZM93.218 179.834C112.258 196.057 136.469 206.001 162.654 208.474C173.623 225.43 179.662 246.772 179.662 268.858C179.662 302.914 164.1 335.465 136.882 358.833C125.13 352.482 112.254 343.545 98.1151 331.92C74.6407 312.624 56.334 285.24 45.0703 254.137L93.218 179.834Z" fill="#32466E"/>
<path d="M102.75 121.676C102.75 112.562 109.109 105.146 116.926 105.146C124.744 105.146 131.099 112.562 131.099 121.676C131.099 130.793 124.744 138.206 116.926 138.206C109.109 138.206 102.75 130.793 102.75 121.676Z" fill="#081736"/>
<path d="M175.447 132.549C182.171 132.549 187.002 136.952 187.471 143.505C187.542 144.48 187.577 145.48 187.577 146.475C187.577 156.914 185.261 165.424 179.833 174.934L179.627 175.299C178.841 176.711 177.654 178.839 175.447 178.839C173.252 178.839 172.065 176.72 171.276 175.311L171.066 174.934C165.635 165.424 163.324 156.914 163.324 146.475C163.324 145.48 163.358 144.48 163.428 143.505C163.894 136.952 168.728 132.549 175.447 132.549Z" fill="#081736"/>
<path d="M252.318 119.12C250.449 113.727 244.961 109.569 238.659 108.778C229.858 107.673 220.912 112.465 214.723 121.589C212.863 124.322 213.709 126.638 215.122 127.889C216.087 128.749 217.377 129.22 218.839 129.25C218.872 129.254 218.903 129.254 218.933 129.254C220.663 129.254 222.266 128.22 223.447 127.46L223.99 127.115C230.373 123.192 235.746 122.909 241.426 126.187C244.568 128.002 247.816 128.179 250.111 126.658C252.486 125.079 253.354 122.118 252.318 119.12Z" fill="#081736"/>
<path fill-rule="evenodd" clip-rule="evenodd" d="M295.112 112.316L318.396 128.007C330.062 135.712 337.067 148.216 337.067 161.407V182.132C337.067 245.808 309.568 307.973 265.294 344.365C229.644 373.671 201.102 387.339 175.482 387.381C149.832 387.339 121.291 373.671 85.6359 344.365C41.3666 307.973 13.8633 245.808 13.8633 182.132V161.407C13.8633 148.216 20.8725 135.712 32.6061 127.959L55.8625 112.286C53.6038 92.4676 54.2126 51.9317 96.1705 17.6856C104.717 10.8943 117.676 10.9182 126.308 17.7436C139.932 28.5187 157.39 34.4504 175.464 34.4504C193.541 34.4504 210.999 28.5187 224.625 17.7436C233.255 10.9216 246.21 10.8909 254.752 17.6787C295.538 50.772 297.489 91.5297 295.112 112.316ZM175.482 370.588C188.749 370.571 204.086 365.203 221.848 354.362C252.418 331.566 275.27 285.594 275.27 246.346C275.27 223.517 268.46 201.496 255.541 182.182C235.623 198.079 210.427 207.377 183.288 208.867C192.627 226.631 197.698 247.493 197.698 268.859C197.698 305.421 181.863 340.442 153.97 366.535C161.678 369.22 168.841 370.582 175.482 370.588ZM98.0533 331.922C112.196 343.543 125.068 352.479 136.824 358.833C164.042 335.465 179.601 302.914 179.601 268.859C179.601 246.77 173.565 225.427 162.594 208.475C136.411 206.001 112.196 196.059 93.1601 179.837L45.0122 254.134C56.2722 285.242 74.5826 312.626 98.0533 331.922ZM191.329 108.013C185.634 114.297 181.177 119.216 175.464 119.216C169.751 119.216 165.295 114.299 159.604 108.016C157.257 105.425 154.699 102.601 151.756 99.7945C133.622 82.2552 110.441 77.8652 93.5848 83.9504C79.1866 89.1489 72.2751 101.149 74.188 116.447C77.7509 135.5 87.4474 152.825 102.417 166.346C121.547 183.63 147.223 193.146 175.464 193.146C203.708 193.146 229.383 183.63 248.514 166.346C263.48 152.825 273.176 135.5 276.743 116.447C278.652 101.149 271.744 89.1489 257.343 83.9504C240.494 77.8652 217.312 82.2552 199.175 99.7945C196.233 102.6 193.675 105.422 191.329 108.013ZM236.171 29.7706C219.346 43.0735 198.265 50.4036 175.464 50.4036C152.662 50.4036 131.645 43.0735 114.759 29.7706C112.726 28.1641 109.719 28.1265 107.761 29.6819C92.7053 41.6442 82.0015 57.1915 76.6158 74.294C102.582 58.3068 134.99 63.9486 159.517 84.3359C163.139 87.3481 165.608 89.6529 167.465 91.3857C171.141 94.8155 172.416 96.0049 175.467 96.0049C178.516 96.0049 179.79 94.8169 183.461 91.3914C185.318 89.6578 187.79 87.3514 191.418 84.3359C215.94 63.9486 248.348 58.3068 274.318 74.294C268.932 57.1915 258.226 41.6442 243.173 29.6819C241.215 28.1265 238.204 28.1641 236.171 29.7706Z" fill="#081736"/>
</svg>
