<svg width="400" height="400" viewBox="0 0 400 400" fill="none" xmlns="http://www.w3.org/2000/svg">
<g clip-path="url(#clip0_111_9)">
<path d="M329.962 173.022L329.584 172.056L292.988 76.548C292.243 74.6761 290.925 73.0882 289.222 72.012C287.518 70.9541 285.53 70.4446 283.527 70.5523C281.524 70.66 279.603 71.3796 278.022 72.614C276.459 73.8839 275.325 75.6046 274.774 77.542L250.064 153.142H150.006L125.296 77.542C124.76 75.594 123.624 73.8647 122.048 72.6C120.467 71.3656 118.545 70.646 116.543 70.5383C114.54 70.4306 112.552 70.9401 110.848 71.998C109.149 73.0785 107.832 74.6651 107.082 76.534L70.416 172L70.052 172.966C64.7838 186.731 64.1335 201.835 68.1992 216.002C72.2649 230.169 80.8261 242.63 92.592 251.506L92.718 251.604L93.054 251.842L148.802 293.59L176.382 314.464L193.182 327.148C195.147 328.64 197.547 329.448 200.014 329.448C202.481 329.448 204.881 328.64 206.846 327.148L223.646 314.464L251.226 293.59L307.31 251.59L307.45 251.478C319.189 242.6 327.731 230.152 331.79 216.004C335.85 201.857 335.208 186.774 329.962 173.022V173.022Z" fill="#E24329"/>
<path d="M329.962 173.022L329.584 172.056C311.752 175.716 294.949 183.269 280.374 194.176L200 254.95C227.37 275.656 251.198 293.646 251.198 293.646L307.282 251.646L307.422 251.534C319.178 242.656 327.733 230.2 331.798 216.04C335.863 201.881 335.219 186.784 329.962 173.022Z" fill="#FC6D26"/>
<path d="M148.802 293.646L176.382 314.52L193.182 327.204C195.147 328.696 197.547 329.504 200.014 329.504C202.481 329.504 204.881 328.696 206.846 327.204L223.646 314.52L251.226 293.646C251.226 293.646 227.37 275.6 200 254.95C172.63 275.6 148.802 293.646 148.802 293.646Z" fill="#FCA326"/>
<path d="M119.612 194.176C105.049 183.247 88.2492 175.674 70.416 172L70.052 172.966C64.7838 186.731 64.1335 201.835 68.1992 216.002C72.2649 230.169 80.8261 242.63 92.592 251.506L92.718 251.604L93.054 251.842L148.802 293.59C148.802 293.59 172.602 275.6 200 254.894L119.612 194.176Z" fill="#FC6D26"/>
</g>
<defs>
<clipPath id="clip0_111_9">
<rect width="400" height="400" fill="white"/>
</clipPath>
</defs>
</svg>
