<svg width="400" height="400" viewBox="0 0 400 400" fill="none" xmlns="http://www.w3.org/2000/svg">
<mask id="mask0_1_264" style="mask-type:alpha" maskUnits="userSpaceOnUse" x="39" y="79" width="323" height="242">
<path d="M361.666 79H39V321H361.666V79Z" fill="white"/>
</mask>
<g mask="url(#mask0_1_264)">
<path d="M61 321H112.333V196.333L39 141.333V299C39 311.173 48.8634 321 61 321Z" fill="#4285F4"/>
<path d="M288.333 321H339.666C351.841 321 361.666 311.137 361.666 299V141.333L288.333 196.333" fill="#34A853"/>
<path d="M288.333 101V196.333L361.666 141.333V112C361.666 84.7933 330.61 69.2833 308.866 85.6" fill="#FBBC04"/>
<path d="M112.333 196.333V101L200.333 167L288.332 101V196.333L200.333 262.334" fill="#EA4335"/>
<path d="M39 112V141.333L112.333 196.333V101L91.8 85.6C70.02 69.2833 39 84.7933 39 112Z" fill="#C5221F"/>
</g>
</svg>
