<svg width="400" height="400" viewBox="0 0 400 400" fill="none" xmlns="http://www.w3.org/2000/svg">
<g clip-path="url(#clip0_212_7)">
<path d="M390.614 171.334H272.925C266.427 171.334 261.372 178 263.538 183.334L291.697 250.667C293.141 253.334 290.253 256.667 286.643 256.667L250.542 254.667C249.098 254.667 247.654 255.334 246.21 256.667L218.773 293.334C217.329 295.334 214.441 296 211.553 294.667L169.676 268.667C168.232 267.334 166.066 267.334 163.9 268.667L106.138 304.667C102.528 307.334 97.4735 304 98.9175 300L115.524 246.667C116.246 244.667 114.802 242 112.636 241.334L82.311 230C79.423 228.667 77.9789 225.334 80.145 223.334L106.86 192.667C108.304 191.334 108.304 188.667 106.86 187.334L84.4771 157.334C82.3111 154.667 84.4771 150.667 88.0872 150.667L123.466 148C126.354 148 127.798 146 127.798 143.334L124.91 98.0002C124.91 94.6669 128.52 92.6669 131.409 93.3336L174.73 110C176.896 110.667 179.062 110 180.506 108.667L210.831 78.0002C212.997 75.3336 217.329 76.0002 218.773 79.3336L236.824 122C238.99 127.334 246.21 129.334 251.264 126L322.022 77.3336C329.964 72.0002 324.91 60.0002 314.802 61.3336L269.315 66.6669C267.149 66.6669 264.983 66.0002 264.26 64.0002L239.712 6.00022C236.824 0.000222087 228.881 -1.33311 223.827 3.33356L170.398 56.6669C168.954 58.0002 166.788 58.6669 164.622 58.0002L94.5854 30.6669C88.0872 28.0002 81.589 32.0002 80.867 38.6669L77.9789 105.334C77.9789 108 75.8129 109.334 73.6468 109.334L9.38687 113.334C2.16665 114 -2.16548 121.334 2.16665 127.334L44.7659 185.334C46.21 186.667 46.21 189.334 44.7659 190.667L1.44463 236.667C-2.16548 240 0.000585973 247.334 5.77676 249.334L55.5963 269.334C57.7623 270 59.2064 272.667 58.4843 274.667L26.7154 388.667C24.5493 396.667 34.6576 402.667 41.8778 398L161.011 319.334C162.455 318 164.622 318 166.788 319.334L220.939 354.667C225.271 357.334 231.77 356.667 234.658 352L268.593 304C269.315 302.667 271.481 302 272.925 302L353.791 311.334C360.289 312 366.788 307.334 364.622 301.334L330.686 220.667C329.964 218.667 330.686 216 333.575 214.667L394.946 188C403.611 184 400.723 171.334 390.614 171.334Z" fill="#8039E9"/>
</g>
<defs>
<clipPath id="clip0_212_7">
<rect width="400" height="400" fill="white"/>
</clipPath>
</defs>
</svg>
