<svg width="400" height="400" viewBox="0 0 400 400" fill="none" xmlns="http://www.w3.org/2000/svg">
<path d="M376 204.166C376 191.166 374.833 178.666 372.667 166.666H200V237.666H298.667C294.333 260.499 281.333 279.833 261.833 292.833V338.999H321.333C356 306.999 376 259.999 376 204.166Z" fill="#4285F4"/>
<path d="M200 383.333C249.5 383.333 291 367 321.333 339L261.833 292.833C245.5 303.833 224.667 310.5 200 310.5C152.333 310.5 111.833 278.333 97.3335 235H36.3335V282.333C66.5002 342.167 128.333 383.333 200 383.333Z" fill="#34A853"/>
<path d="M97.3332 234.834C93.6665 223.834 91.4998 212.167 91.4998 200.001C91.4998 187.834 93.6665 176.167 97.3332 165.167V117.834H36.3332C23.8332 142.501 16.6665 170.334 16.6665 200.001C16.6665 229.667 23.8332 257.501 36.3332 282.167L83.8332 245.167L97.3332 234.834Z" fill="#FBBC05"/>
<path d="M200 89.666C227 89.666 251 98.9993 270.167 116.999L322.667 64.4993C290.833 34.8327 249.5 16.666 200 16.666C128.333 16.666 66.5002 57.8327 36.3335 117.833L97.3335 165.166C111.833 121.833 152.333 89.666 200 89.666Z" fill="#EA4335"/>
</svg>
