<svg width="400" height="400" viewBox="0 0 400 400" fill="none" xmlns="http://www.w3.org/2000/svg">
<mask id="mask0_1_281" style="mask-type:alpha" maskUnits="userSpaceOnUse" x="32" y="50" width="336" height="300">
<path d="M367.769 50H32V350H367.769V50Z" fill="white"/>
</mask>
<g mask="url(#mask0_1_281)">
<path d="M57.3846 307.115L72.1922 332.692C75.2693 338.077 79.6922 342.308 84.8846 345.385L137.769 253.846H32C32 259.808 33.5385 265.769 36.6154 271.154L57.3846 307.115Z" fill="#0066DA"/>
<path d="M199.884 146.154L147 54.6155C141.808 57.6924 137.385 61.9232 134.308 67.3078L36.6154 236.539C33.595 241.807 32.004 247.773 32 253.846H137.769L199.884 146.154Z" fill="#00AC47"/>
<path d="M314.885 345.385C320.077 342.308 324.5 338.077 327.577 332.692L333.731 322.115L363.155 271.154C366.23 265.769 367.769 259.808 367.769 253.846H261.992L284.5 298.077L314.885 345.385Z" fill="#EA4335"/>
<path d="M199.884 146.154L252.769 54.6154C247.577 51.5385 241.615 50 235.461 50H164.308C158.154 50 152.192 51.7308 147 54.6154L199.884 146.154Z" fill="#00832D"/>
<path d="M262 253.846H137.769L84.8845 345.385C90.0769 348.462 96.0385 350 102.192 350H297.577C303.731 350 309.692 348.269 314.885 345.385L262 253.846Z" fill="#2684FC"/>
<path d="M314.308 151.923L265.462 67.3078C262.385 61.9232 257.962 57.6924 252.769 54.6155L199.885 146.154L262 253.846H367.577C367.577 247.885 366.038 241.923 362.963 236.539L314.308 151.923Z" fill="#FFBA00"/>
</g>
</svg>
