<svg width="400" height="400" viewBox="0 0 400 400" fill="none" xmlns="http://www.w3.org/2000/svg">
<g clip-path="url(#clip0_536_122)">
<path d="M240.913 146.038L250.522 146.202L276.631 120.092L277.897 109.03C257.188 90.5797 229.845 79.3438 199.967 79.3438C145.873 79.3438 100.217 116.15 86.7031 166.006C89.5531 164.019 95.6469 165.509 95.6469 165.509L147.819 156.931C147.819 156.931 150.5 152.492 151.859 152.713C157.96 146.01 165.393 140.656 173.683 136.994C181.973 133.332 190.937 131.442 200 131.445C215.469 131.478 229.719 136.944 240.913 145.986V146.038Z" fill="#EA4335"/>
<path d="M313.297 166.109C307.236 143.75 294.744 124.006 277.883 109.029L240.913 146C255.725 157.953 265.227 176.243 265.227 196.718V203.243C283.213 203.243 297.823 217.887 297.823 235.84C297.823 253.826 283.18 268.437 265.227 268.437H200.033L193.508 275V314.121L200.033 320.614H265.227C287.7 320.583 309.243 311.642 325.135 295.752C341.026 279.861 349.968 258.318 350 235.845C349.967 206.993 335.469 181.465 313.297 166.109Z" fill="#4285F4"/>
<path d="M134.775 320.656H199.931V268.437H134.775C130.146 268.438 125.571 267.444 121.359 265.521L111.952 268.404L85.8422 294.514L83.5547 303.326C98.2682 314.551 116.264 320.627 134.77 320.618L134.775 320.656Z" fill="#34A853"/>
<path d="M134.773 151.109C112.3 151.14 90.7567 160.081 74.8655 175.972C58.9742 191.862 50.0322 213.405 50 235.878C50 263.408 63.1859 287.886 83.5906 303.392L121.391 265.592C115.669 263.012 110.813 258.837 107.405 253.566C103.997 248.296 102.182 242.154 102.177 235.878C102.177 217.892 116.82 203.281 134.773 203.281C147.992 203.281 159.355 211.25 164.492 222.5L202.292 184.7C186.791 164.295 162.308 151.109 134.778 151.109H134.773Z" fill="#FBBC05"/>
</g>
<defs>
<clipPath id="clip0_536_122">
<rect width="300" height="300" fill="white" transform="translate(50 50)"/>
</clipPath>
</defs>
</svg>
