<svg width="330" height="330" viewBox="0 0 330 330" fill="none" xmlns="http://www.w3.org/2000/svg">
<g clip-path="url(#clip0_1_81)">
<path d="M251.842 78.158H78.158V251.842H251.842V78.158Z" fill="white"/>
<path d="M251.842 330L330 251.842H251.842V330Z" fill="#EA4335"/>
<path d="M330 78.158H251.842V251.842H330V78.158Z" fill="#FBBC04"/>
<path d="M251.842 251.842H78.158V330H251.842V251.842Z" fill="#34A853"/>
<path d="M0 251.842V303.948C0 318.341 11.6586 330 26.0526 330H78.1579V251.842H0Z" fill="#188038"/>
<path d="M330 78.1579V26.0526C330 11.6586 318.341 0 303.948 0H251.842V78.1579H330Z" fill="#1967D2"/>
<path d="M251.842 0H26.0526C11.6586 0 0 11.6586 0 26.0526V251.842H78.1579V78.1579H251.842V0Z" fill="#4285F4"/>
<path d="M113.785 212.894C107.293 208.508 102.799 202.103 100.346 193.636L115.413 187.427C116.78 192.637 119.168 196.676 122.577 199.541C125.964 202.408 130.089 203.819 134.909 203.819C139.837 203.819 144.071 202.321 147.61 199.324C151.149 196.328 152.929 192.508 152.929 187.883C152.929 183.15 151.062 179.286 147.327 176.289C143.593 173.294 138.904 171.796 133.302 171.796H124.597V156.881H132.412C137.233 156.881 141.292 155.577 144.592 152.973C147.892 150.367 149.542 146.807 149.542 142.27C149.542 138.231 148.065 135.018 145.113 132.608C142.161 130.198 138.426 128.983 133.889 128.983C129.46 128.983 125.942 130.154 123.337 132.521C120.734 134.894 118.777 137.889 117.649 141.227L102.734 135.018C104.71 129.416 108.335 124.466 113.654 120.189C118.974 115.912 125.768 113.763 134.018 113.763C140.12 113.763 145.612 114.936 150.476 117.302C155.339 119.669 159.16 122.947 161.917 127.115C164.674 131.306 166.042 135.995 166.042 141.206C166.042 146.524 164.761 151.019 162.199 154.709C159.637 158.4 156.489 161.223 152.755 163.198V164.088C157.577 166.076 161.765 169.342 164.87 173.533C168.017 177.765 169.602 182.824 169.602 188.729C169.602 194.635 168.104 199.911 165.109 204.535C162.112 209.159 157.965 212.807 152.712 215.456C147.436 218.104 141.509 219.45 134.93 219.45C127.311 219.472 120.276 217.279 113.785 212.894ZM206.337 138.123L189.793 150.085L181.522 137.536L211.2 116.129H222.576V217.106H206.337V138.123Z" fill="#4285F4"/>
</g>
<defs>
<clipPath id="clip0_1_81">
<rect width="330" height="330" fill="white"/>
</clipPath>
</defs>
</svg>
