<svg width="400" height="400" viewBox="0 0 400 400" fill="none" xmlns="http://www.w3.org/2000/svg">
<path d="M323 351.531C322.996 356.693 320.949 361.643 317.309 365.293C313.669 368.943 308.733 370.996 303.585 371H96.43C91.2822 371 86.3448 368.951 82.7019 365.304C79.0589 361.657 77.0082 356.709 77 351.546V47.4848C76.998 44.9254 77.4992 42.3908 78.4749 40.0259C79.4506 37.6609 80.8817 35.5121 82.6864 33.7024C84.491 31.8927 86.6338 30.4575 88.9921 29.479C91.3503 28.5006 93.8779 27.998 96.43 28H229.377L323 123.748V351.531Z" fill="#23A566"/>
<path d="M240 121.387L323 201V123.32H249.477C246.268 123.356 243.103 122.557 240.293 121L240 121.387Z" fill="#1C8F5A"/>
<path d="M323 124H249.327C244.202 123.996 239.289 121.946 235.665 118.3C232.042 114.654 230.004 109.711 230 104.555V28L323 124Z" fill="#8ED1B1"/>
<path fill-rule="evenodd" clip-rule="evenodd" d="M264 308H136V197H264V308ZM207.958 213.012V232.443H248.269V213.043L207.958 213.012ZM207.958 244.68V263.244H248.269V244.587L207.958 244.68ZM207.958 275.079V292.267H248.269V274.986L207.958 275.079ZM192.134 292.174V274.986H151.84V292.174H192.134ZM192.134 263.043V244.587H151.84V263.136L192.134 263.043ZM192.134 232.644V213.012H151.84V232.443L192.134 232.644Z" fill="white"/>
</svg>
