<svg width="400" height="400" viewBox="0 0 400 400" fill="none" xmlns="http://www.w3.org/2000/svg">
<path d="M156 267.896C164.737 278.779 173.636 292.463 178.293 300.729C183.964 311.474 186.315 318.729 190.534 331.724C193.001 338.842 195.352 341 200.285 341C205.68 341 208.147 337.372 210.037 331.724C213.979 319.533 217.022 310.257 221.84 301.417C240.421 266.519 270.714 241.722 287.773 207.742C287.773 207.742 299 186.986 299 157.919C299 130.827 287.934 112 287.934 112L156.069 268.126L156 267.896Z" fill="#34A853"/>
<path d="M111.162 203.613C121.862 227.932 142.264 249.24 156.191 268L230 180.684C230 180.684 219.579 194.302 200.755 194.302C179.773 194.302 162.69 177.627 162.69 156.55C162.69 142.052 171.347 132 171.347 132C117.035 140.06 120.052 153.192 111 203.567L111.162 203.613Z" fill="#FBBC04"/>
<path d="M230.159 63C254.684 70.8284 275.506 87.3346 288 111.44L229.234 181C229.234 181 237.864 170.991 237.864 156.665C237.864 135.338 219.725 119.245 200.152 119.245C181.573 119.245 171 132.583 171 132.583C175.512 122.39 222.131 66.4665 230.229 63.023L230.159 63Z" fill="#4285F4"/>
<path d="M125 93.0961C139.521 75.8462 164.978 58 200.131 58C217.111 58 230 62.496 230 62.496L171.411 132C167.46 129.86 128.906 99.8859 125 93.0043V93.0961Z" fill="#1A73E8"/>
<path d="M111.527 204C111.527 204 102 184.772 102 157.092C102 130.851 112.099 107.862 124.848 93L171 132.477L111.596 204H111.527Z" fill="#EA4335"/>
</svg>
