<svg width="400" height="400" viewBox="0 0 400 400" fill="none" xmlns="http://www.w3.org/2000/svg">
<g clip-path="url(#clip0_330_58)">
<path d="M232.5 127.75L271.711 135.186L304 127.75L232.5 56L222.636 90.016L232.5 127.75Z" fill="#56368A"/>
<path d="M232.5 127.75V56H115.5C104.726 56 96 64.7568 96 75.5682V323.432C96 334.243 104.726 343 115.5 343H284.5C295.274 343 304 334.243 304 323.432V127.75H232.5Z" fill="#7248B9"/>
<path d="M151.25 263.096C145.871 263.096 141.5 258.71 141.5 253.312C141.5 247.915 145.871 243.528 151.25 243.528C156.629 243.528 161 247.915 161 253.312C161 258.71 156.629 263.096 151.25 263.096ZM151.25 223.96C145.871 223.96 141.5 219.574 141.5 214.176C141.5 208.778 145.871 204.392 151.25 204.392C156.629 204.392 161 208.778 161 214.176C161 219.574 156.629 223.96 151.25 223.96ZM151.25 184.824C145.871 184.824 141.5 180.437 141.5 175.04C141.5 169.642 145.871 165.256 151.25 165.256C156.629 165.256 161 169.642 161 175.04C161 180.437 156.629 184.824 151.25 184.824ZM258.5 261.466H177.25V245.159H258.5V261.466ZM258.5 222.329H177.25V206.023H258.5V222.329ZM258.5 183.193H177.25V166.886H258.5V183.193Z" fill="white"/>
</g>
<defs>
<clipPath id="clip0_330_58">
<rect width="208" height="287" fill="white" transform="translate(96 56)"/>
</clipPath>
</defs>
</svg>
