<svg width="25" height="26" viewBox="0 0 25 26" fill="none" xmlns="http://www.w3.org/2000/svg">
<path d="M22.2501 6.20245H18.2729V2.47619C18.2729 1.38248 17.3273 0.49649 16.1599 0.49649H2.11303C0.945659 0.49649 0 1.38248 0 2.47619V21.3427C0 22.4364 0.945659 23.3224 2.11303 23.3224H20.3023L22.2705 25.1665C22.5013 25.3827 22.8112 25.5035 23.137 25.5035C23.8134 25.5035 24.3632 24.9906 24.3632 24.3547V8.18215C24.3632 7.08844 23.4175 6.20245 22.2501 6.20245ZM22.3338 21.419H2.02932V2.39777H16.2414V6.20245H8.20325C7.03589 6.20245 6.09023 7.08844 6.09023 8.18215V15.6368C6.09023 16.7305 7.03589 17.6165 8.20325 17.6165H16.1599C17.3273 17.6165 18.2729 16.7305 18.2729 15.6368V8.10584H22.3338V21.4212V21.419ZM16.2436 8.10372V15.7131H8.12181V8.10372H16.2436Z" fill="#000000"></path>
</svg>