<svg width="383" height="400" viewBox="0 0 383 400" fill="none" xmlns="http://www.w3.org/2000/svg">
<g clip-path="url(#clip0_314_188)">
<path d="M380.048 176.114C379.31 169.697 378.572 161.854 375.62 153.298C373.407 144.742 369.717 135.472 365.289 125.49C360.123 116.221 353.482 105.526 345.364 96.2567C342.412 92.6916 338.723 88.4135 334.295 84.8485C340.198 62.7451 326.915 43.4938 326.915 43.4938C304.776 42.0677 290.755 49.9109 285.59 54.1889C284.852 54.1889 284.114 53.4759 282.638 52.7629C278.948 51.3369 275.258 49.9109 270.83 48.4849C266.403 47.0588 262.713 46.3458 258.285 44.9198C253.857 44.2068 250.168 43.4938 245.74 42.7808C245.002 42.7808 244.264 42.7808 243.526 42.7808C233.933 12.8342 206.628 0 206.628 0C175.634 19.2513 169.73 45.6328 169.73 45.6328C169.73 45.6328 169.73 46.3458 169.73 47.0588C168.254 47.7718 166.04 47.7718 164.565 48.4849C162.351 49.1979 160.137 49.9109 157.185 50.6239C154.971 51.3369 152.757 52.0499 149.805 53.4759C145.378 55.615 140.212 57.754 135.784 59.893C131.356 62.0321 126.929 64.8841 122.501 67.7362C121.763 67.7362 121.763 67.0232 121.763 67.0232C78.9615 51.3369 40.5877 70.5882 40.5877 70.5882C36.8979 115.508 57.5607 143.316 61.9884 148.307C61.2505 151.159 59.7746 154.011 59.0366 156.863C56.0848 166.845 53.1329 176.827 51.657 187.522C51.657 188.948 51.657 190.374 51.657 191.8C11.8073 211.052 0 249.554 0 249.554C33.2081 286.631 71.5819 288.77 71.5819 288.77C76.7476 297.326 81.9133 305.169 88.5549 313.013C91.5067 315.865 93.7206 319.43 96.6724 322.282C84.8651 355.793 98.1484 383.601 98.1484 383.601C135.046 385.027 159.399 367.914 164.565 364.349C168.254 365.775 171.944 366.488 175.634 367.914C186.703 370.766 198.511 372.193 210.318 372.906C213.27 372.906 216.222 372.906 219.173 372.906H221.387H222.125H223.601H225.077C242.788 397.148 273.044 400 273.044 400C294.445 377.897 295.921 355.793 295.921 350.802C295.921 350.089 295.921 350.089 295.921 350.089V349.376C300.349 346.524 304.776 342.959 309.204 339.394C318.06 331.551 325.439 322.995 332.081 313.726C332.819 313.012 333.557 312.299 333.557 310.873C357.909 312.299 375.62 295.9 375.62 295.9C371.193 270.945 357.171 258.824 354.22 256.685C354.22 256.685 354.22 256.685 353.482 256.685C353.482 255.258 353.482 253.832 353.482 252.406C353.482 249.554 353.482 247.415 353.482 244.563V242.424V241.711V240.998C353.482 240.285 353.482 240.285 353.482 240.285V238.859V236.72C353.482 236.007 353.482 235.294 353.482 234.581C353.482 233.868 353.482 233.155 353.482 232.442V230.303V228.164C352.744 225.312 352.744 222.46 352.006 220.321C349.792 209.626 345.364 199.644 339.46 190.374C333.557 181.105 326.915 173.262 318.798 166.132C310.68 159.002 301.825 154.011 292.231 149.733C282.638 145.455 273.044 143.316 263.451 141.889C258.285 141.176 253.857 141.176 248.692 141.176H247.216H246.478H245.74H245.002H243.526C242.788 141.176 242.05 141.176 241.312 141.176C239.098 141.176 236.146 141.889 233.933 141.889C224.339 143.316 214.746 146.881 206.628 151.872C198.511 156.863 191.131 162.567 185.965 168.984C180.062 175.401 175.634 183.244 172.682 190.374C169.73 198.217 168.254 206.061 167.516 213.191C167.516 215.33 167.516 216.756 167.516 218.895C167.516 219.608 167.516 219.608 167.516 220.321V221.747C167.516 222.46 167.516 223.886 167.516 224.599C168.254 228.164 168.992 232.442 169.73 236.007C171.944 243.137 175.634 249.554 179.324 255.258C183.751 260.963 188.917 265.241 194.083 268.806C199.249 272.371 205.152 275.223 211.056 276.649C216.96 278.075 222.125 278.788 228.029 278.788C228.767 278.788 229.505 278.788 230.243 278.788H230.981H231.719C232.457 278.788 233.195 278.788 233.195 278.788C233.195 278.788 233.195 278.788 233.933 278.788H234.671H235.408C236.146 278.788 236.884 278.788 237.622 278.788C238.36 278.788 239.098 278.788 239.836 278.075C241.312 278.075 242.05 277.362 243.526 277.362C245.74 276.649 247.954 275.936 250.168 274.51C252.382 273.797 253.857 272.371 256.071 270.945C256.809 270.945 256.809 270.232 257.547 269.519C259.761 268.093 259.761 265.241 258.285 263.815C256.809 262.389 254.595 261.676 253.119 263.102C252.381 263.102 252.381 263.815 251.644 263.815C250.168 264.528 248.692 265.241 246.478 265.954C245.002 266.667 242.788 266.667 241.312 267.38C240.574 267.38 239.098 267.38 238.36 267.38C237.622 267.38 237.622 267.38 236.884 267.38C236.146 267.38 236.146 267.38 235.408 267.38C234.671 267.38 234.671 267.38 233.933 267.38C233.195 267.38 232.457 267.38 232.457 267.38H231.719H230.981C230.243 267.38 230.243 267.38 229.505 267.38C225.077 266.667 221.387 265.954 216.96 263.815C212.532 262.389 208.842 259.537 205.152 256.685C201.462 253.832 198.511 250.267 196.297 245.989C194.083 241.711 191.869 237.433 191.131 232.442C190.393 230.303 190.393 227.451 190.393 225.312C190.393 224.599 190.393 223.886 190.393 223.173V222.46V221.747C190.393 220.321 190.393 218.895 191.131 217.469C193.345 206.774 198.511 196.791 207.366 188.948C209.58 186.809 211.794 185.383 214.008 183.244C216.222 181.818 219.173 180.392 221.387 178.966C224.339 177.54 226.553 176.827 229.505 176.114C232.457 175.401 235.408 174.688 238.36 174.688C239.836 174.688 241.312 174.688 242.788 174.688C243.526 174.688 243.526 174.688 243.526 174.688H245.002H245.74H247.216C250.168 174.688 253.857 175.401 256.809 176.114C263.451 177.54 269.355 179.679 275.258 182.531C287.065 188.948 296.659 198.217 302.563 210.339C305.514 216.043 307.728 222.46 308.466 228.877C308.466 230.303 309.204 232.442 309.204 233.868V235.294V236.72C309.204 237.433 309.204 237.433 309.204 238.146C309.204 238.859 309.204 238.859 309.204 239.572V240.998V242.424C309.204 243.137 309.204 244.563 309.204 245.276C309.204 247.415 309.204 248.841 308.466 250.98C308.466 252.406 307.728 254.545 307.728 255.972C307.728 257.398 306.99 259.537 306.252 260.963C305.514 264.528 304.039 268.093 302.563 270.945C299.611 277.362 295.921 283.779 291.493 289.483C282.638 300.891 270.83 310.873 256.809 316.578C250.168 319.43 242.788 321.569 235.408 322.995C231.719 323.708 228.029 323.708 224.339 324.421H223.601H222.863H221.387H220.649C218.435 324.421 216.96 324.421 214.746 324.421C206.628 323.708 198.511 322.282 191.131 320.143C183.751 318.004 176.372 315.152 168.992 311.586C154.971 304.456 142.426 294.474 132.832 282.353C127.667 276.649 123.239 270.232 120.287 263.102C116.597 256.685 113.645 249.554 112.17 241.711C109.956 234.581 108.48 226.738 108.48 219.608V218.182V213.904V212.478V211.765V211.052V209.626V208.913C108.48 208.2 108.48 206.774 108.48 206.061C108.48 202.496 109.218 198.93 109.218 194.652C109.956 191.087 110.694 186.809 111.432 183.244C112.17 179.679 112.908 175.401 114.383 171.836C116.597 164.706 119.549 157.576 122.501 150.446C129.143 136.898 137.26 124.777 147.592 115.508C149.805 113.369 152.757 110.517 155.709 108.378C158.661 106.239 161.613 104.1 164.565 102.674C167.516 100.535 170.468 99.1087 173.42 97.6827C174.896 96.9697 176.372 96.2567 177.848 95.5437C178.586 95.5437 179.324 94.8307 180.062 94.8307C180.8 94.8307 181.538 94.1176 182.276 94.1176C185.227 92.6916 188.917 91.9786 191.869 90.5526C192.607 90.5526 193.345 89.8396 194.083 89.8396C194.821 89.8396 195.559 89.1266 196.297 89.1266C197.773 88.4136 199.986 88.4136 201.462 87.7005C202.2 87.7005 202.938 86.9875 203.676 86.9875C204.414 86.9875 205.152 86.9875 205.89 86.2745C206.628 86.2745 207.366 86.2745 208.842 85.5615H210.318H211.794C212.532 85.5615 213.27 85.5615 214.746 84.8485C215.484 84.8485 216.96 84.8485 217.697 84.1355C218.435 84.1355 219.911 84.1355 220.649 84.1355C221.387 84.1355 222.125 84.1355 222.863 84.1355H224.339H225.077H225.815C226.553 84.1355 228.029 84.1355 228.767 84.1355H230.243H230.981C231.719 84.1355 232.457 84.1355 233.195 84.1355C236.884 84.1355 239.836 84.1355 243.526 84.1355C250.168 84.1355 256.809 84.8485 262.713 86.2745C275.258 88.4136 287.066 92.6916 298.135 97.6827C309.204 102.674 318.798 109.091 326.915 115.508C327.653 116.221 327.653 116.221 328.391 116.934C329.129 117.647 329.129 117.647 329.867 118.36C330.605 119.073 332.081 119.786 332.819 121.212C333.557 121.925 335.033 122.638 335.771 124.064C336.509 124.777 337.985 126.203 338.723 126.916C342.412 130.481 345.364 134.046 348.316 137.611C354.22 144.742 359.385 152.585 363.075 159.715C363.075 160.428 363.813 160.428 363.813 161.141C363.813 161.854 364.551 161.854 364.551 162.567C365.289 163.28 365.289 163.993 366.027 165.419C366.765 166.132 366.765 166.845 367.503 168.271C368.241 168.984 368.241 169.697 368.979 170.41C370.455 173.975 371.931 176.827 372.669 179.679C374.144 184.67 375.62 188.948 376.358 192.513C377.096 193.939 378.572 194.652 380.048 194.652C381.524 194.652 383 193.226 383 191.8C380.786 186.096 380.048 181.818 380.048 176.114Z" fill="url(#paint0_linear_314_188)"/>
</g>
<defs>
<linearGradient id="paint0_linear_314_188" x1="191.5" y1="488.998" x2="191.5" y2="124.27" gradientUnits="userSpaceOnUse">
<stop stop-color="#FFF100"/>
<stop offset="1" stop-color="#F05A28"/>
</linearGradient>
<clipPath id="clip0_314_188">
<rect width="383" height="400" fill="white"/>
</clipPath>
</defs>
</svg>
