<svg width="203" height="400" viewBox="0 0 203 400" fill="none" xmlns="http://www.w3.org/2000/svg">
<g clip-path="url(#clip0_163_69)">
<path d="M177.329 118.838C177.329 138.149 168.64 155.232 154.422 168.601C138.625 183.456 115.718 187.169 115.718 199.796C115.718 216.879 144.944 211.68 172.984 238.047C191.547 255.501 203 278.526 203 305.264C203 357.998 157.977 399.963 101.5 399.963C45.0233 399.963 0 357.998 0 305.301C0 278.526 11.4533 255.501 30.0156 238.047C58.0564 211.68 87.2821 216.879 87.2821 199.796C87.2821 187.169 64.3755 183.456 48.5778 168.601C34.3599 155.232 25.6712 138.149 25.6712 118.095C25.6712 79.4727 59.2412 48.2778 100.315 48.2778C108.214 48.2778 115.323 49.3919 121.247 49.3919C131.911 49.3919 137.44 44.9355 137.44 37.8795C137.44 33.7944 135.465 28.5953 135.465 23.0248C135.465 10.3983 146.918 0 160.741 0C174.564 0 185.623 10.7697 185.623 23.7675C185.623 37.5081 174.169 43.8214 165.481 46.7923C158.372 49.0205 152.842 51.9915 152.842 58.6761C152.842 71.3026 177.329 83.5577 177.329 118.838ZM169.43 305.301C169.43 268.536 140.599 238.826 101.5 238.826C62.4008 238.826 33.57 268.536 33.57 305.301C33.57 341.695 62.4008 371.776 101.5 371.776C140.599 371.776 169.43 341.658 169.43 305.301ZM146.128 118.095C146.128 94.6987 125.986 75.3876 101.5 75.3876C77.0136 75.3876 56.8716 94.6987 56.8716 118.095C56.8716 141.491 77.0136 160.802 101.5 160.802C125.986 160.802 146.128 141.491 146.128 118.095Z" fill="#23A47F"/>
</g>
<defs>
<clipPath id="clip0_163_69">
<rect width="203" height="400" fill="white"/>
</clipPath>
</defs>
</svg>
