<svg width="400" height="400" viewBox="0 0 400 400" fill="none" xmlns="http://www.w3.org/2000/svg">
<path d="M222.742 360.703C301.699 360.703 365.706 298.915 365.706 222.695C365.706 146.475 301.699 84.6862 222.742 84.6862C143.785 84.6862 79.7773 146.475 79.7773 222.695C79.7773 298.915 143.785 360.703 222.742 360.703Z" fill="black"/>
<path d="M185.846 331.782C268.89 331.782 336.692 266.727 336.692 185.891C336.692 105.056 268.89 40 185.846 40C102.803 40 35 105.056 35 185.891C35 266.727 102.803 331.782 185.846 331.782Z" fill="#FF90E8" stroke="black" stroke-width="1.5625"/>
<path d="M174.5 259.494C132.283 259.494 107.45 225.384 107.45 182.954C107.45 138.859 134.766 103.085 186.915 103.085C240.721 103.085 258.931 139.692 259.759 160.49H220.854C220.027 148.843 210.093 131.372 186.088 131.372C160.428 131.372 143.872 153.835 143.872 181.29C143.872 208.745 160.428 231.207 186.088 231.207C209.266 231.207 219.199 212.904 223.338 194.602H186.088V179.626H264.25V256.166H229.96V207.912C227.476 225.384 216.715 259.494 174.5 259.494Z" fill="black"/>
</svg>
