<svg width="400" height="166" viewBox="0 0 400 166" fill="none" xmlns="http://www.w3.org/2000/svg">
<g clip-path="url(#clip0_104_41)">
<path d="M355.183 24.3118C330.497 24.3118 310.366 46.2709 310.366 73.4583C310.366 100.515 330.497 122.605 355.183 122.605C379.868 122.605 400 100.515 400 73.4583C400 46.2709 379.868 24.3118 355.183 24.3118ZM355.183 99.2079C342.121 99.2079 331.576 87.5748 331.576 73.3276C331.576 59.0803 342.121 47.4472 355.183 47.4472C368.125 47.4472 378.79 59.0803 378.79 73.3276C378.79 87.5748 368.125 99.2079 355.183 99.2079ZM223.128 63.3937L215.339 59.0803C211.983 57.2504 209.826 55.8126 208.987 54.7669C208.149 53.852 207.669 52.5449 207.669 51.3685C207.669 49.6693 208.388 48.3622 209.706 47.1858C211.025 46.0094 212.942 45.4866 215.339 45.4866C219.772 45.4866 224.566 48.3622 229.958 54.2441L243.14 39.7354C239.904 34.8992 235.59 30.978 230.677 28.2331C225.884 25.6189 220.491 24.1811 215.099 24.3118C207.07 24.3118 200.36 26.926 195.207 32.1543C190.054 37.3827 187.418 43.6567 187.418 51.1071C187.418 62.4787 194.248 72.0205 208.029 79.6016L215.219 83.5228C221.45 86.9213 224.566 90.4504 224.566 94.1102C224.566 96.0709 223.727 97.7701 222.049 99.3386C220.371 100.776 218.095 101.561 215.219 101.561C212.582 101.561 209.587 100.515 206.231 98.5543C202.876 96.5937 199.88 93.9795 197.484 90.8425L184.302 106.528C191.732 117.115 201.678 122.474 214.02 122.474C223.367 122.474 230.797 119.729 236.309 114.109C241.821 108.619 244.697 101.691 244.697 93.326C244.697 87.052 243.14 81.6929 240.144 76.9874C237.028 72.4126 231.396 67.9685 223.128 63.3937ZM90.1138 111.756V26.2724H68.7837V32.0236C61.5938 26.926 53.2055 24.3118 44.6974 24.3118C20.1318 24.3118 0 46.2709 0 73.3276C0 100.384 20.1318 122.474 44.8173 122.474C53.2055 122.474 61.4739 119.86 68.6639 115.024C68.6639 115.808 68.6639 116.461 68.6639 116.854C68.6639 131.101 58.1186 142.734 45.0569 142.734C40.6231 142.734 36.3092 141.296 32.5944 138.813L22.0491 158.942C28.9994 163.517 36.9083 166 45.0569 166C69.7424 166 90.1138 143.91 90.1138 116.854C90.1138 115.808 90.2337 112.802 90.1138 111.756ZM44.8173 99.2079C31.8754 99.2079 21.2103 87.5748 21.2103 73.3276C21.2103 59.0803 31.7555 47.4472 44.8173 47.4472C57.879 47.4472 68.4242 59.0803 68.4242 73.3276C68.4242 87.5748 57.7591 99.2079 44.8173 99.2079ZM174.835 26.1417H153.505V72.8047C153.505 79.4709 153.505 90.8425 149.071 95.8095C146.914 98.1622 144.638 100.254 139.724 100.254C134.811 100.254 132.415 98.1622 130.258 95.8095C125.824 90.9732 125.824 79.4709 125.824 72.8047V26.1417H104.494V72.674C104.374 82.3465 104.374 100.123 115.039 111.887C121.27 118.814 128.82 122.343 139.605 122.343C150.389 122.343 157.939 118.814 164.17 111.887C174.835 100.123 174.835 82.2157 174.715 72.674L174.835 26.1417ZM295.986 95.0252C294.308 96.463 290.114 99.6 285.44 98.9465C281.606 98.4236 278.49 95.2866 278.011 84.9606V46.1402H303.176V26.1417H278.011V0H256.681V5.09764V81.8236C256.681 93.9795 259.437 122.343 285.44 122.343C298.502 122.082 306.531 114.37 309.886 111.233L310.366 110.841L297.543 93.5874C297.424 93.8488 296.585 94.6331 295.986 95.0252Z" fill="#F45D48"/>
</g>
<defs>
<clipPath id="clip0_104_41">
<rect width="400" height="166" fill="white"/>
</clipPath>
</defs>
</svg>
