<svg width="400" height="400" viewBox="0 0 400 400" fill="none" xmlns="http://www.w3.org/2000/svg">
<path d="M177.389 254.994L180.089 252.744L315.896 251.562L316.739 254.994C316.552 255.728 316.268 256.434 315.896 257.094C314.733 259.156 312.202 260.638 307.139 263.563L176.002 339.425C162.933 346.981 156.408 350.769 152.377 349.869C150.654 349.488 149.054 348.683 147.721 347.528C146.389 346.372 145.366 344.901 144.746 343.25C143.302 339.388 146.114 332.375 151.777 318.406L177.389 254.994Z" fill="#7957FF"/>
<path d="M316.737 254.995H177.388L176.562 249.22L218.75 146.095L222.2 144.164L310.513 242.264L310.887 242.714C314.562 246.783 316.4 248.902 316.85 251.133C317.105 252.412 317.067 253.733 316.737 254.995Z" fill="#18B6AA"/>
<path d="M223.249 60.4804L92.7485 135.612C87.6673 138.537 85.1173 139.999 83.936 142.062C82.9159 143.878 82.5831 146.001 82.9985 148.043C83.4673 150.368 85.436 152.543 89.336 156.912L177.405 254.993L222.217 144.162L247.473 81.5179C253.098 67.5867 255.911 60.6117 254.449 56.7492C253.83 55.1001 252.81 53.6312 251.481 52.4756C250.151 51.3199 248.555 50.5139 246.836 50.1304C242.786 49.2492 236.28 52.9804 223.249 60.4804Z" fill="#F845C6"/>
</svg>
