<svg width="400" height="191" viewBox="0 0 400 191" fill="none" xmlns="http://www.w3.org/2000/svg">
<g clip-path="url(#clip0_209_188)">
<path d="M208.752 187.093C174.179 187.093 146.17 158.877 146.17 124.15C146.17 89.4229 174.179 61.207 208.752 61.207C243.325 61.207 271.334 89.4229 271.334 124.15C271.334 158.877 243.325 187.093 208.752 187.093ZM208.752 81.1752C185.12 81.1752 165.864 100.709 165.864 124.15C165.864 148.025 185.12 167.125 208.752 167.125C232.384 167.125 251.64 148.025 251.64 124.15C251.64 100.275 232.384 81.1752 208.752 81.1752Z" fill="#E52D51"/>
<path d="M28.4464 69.0205V14.325C28.4464 6.51136 21.8818 0 14.0044 0C6.56455 0 0 6.51136 0 14.325V124.15C0 161.048 30.1969 191 66.9584 191C104.158 191 133.917 161.048 133.917 123.716C133.917 86.8182 103.72 56.4318 66.9584 56.4318C52.5164 56.8659 39.3873 61.2068 28.4464 69.0205ZM66.9584 162.35C45.5142 162.35 28.4464 144.986 28.4464 123.716C28.4464 102.445 45.9519 85.0818 66.9584 85.0818C88.4026 85.0818 105.47 102.445 105.47 123.716C105.908 144.986 88.4026 162.35 66.9584 162.35Z" fill="#E52D51"/>
<path d="M341.356 65.9832C321.662 65.9832 304.595 75.5332 294.091 90.2923V7.81506C294.091 4.77642 291.466 2.17188 288.84 2.17188C285.776 2.17188 283.15 4.77642 283.15 7.81506V124.151C283.15 156.274 309.409 182.32 341.356 182.32C373.741 182.32 399.562 156.274 399.562 123.717C399.999 92.0287 373.741 65.9832 341.356 65.9832ZM341.356 171.901C315.098 171.901 294.091 150.631 294.091 124.586C294.091 98.5401 315.536 77.2696 341.356 77.2696C367.614 77.2696 388.621 98.5401 388.621 124.586C389.059 150.197 367.614 171.901 341.356 171.901Z" fill="#E52D51"/>
</g>
<defs>
<clipPath id="clip0_209_188">
<rect width="400" height="191" fill="white"/>
</clipPath>
</defs>
</svg>
