<svg width="400" height="400" viewBox="0 0 400 400" fill="none" xmlns="http://www.w3.org/2000/svg">
<g clip-path="url(#clip0_306_74)">
<path d="M246.49 394.522C353.922 368.847 420.198 260.942 394.523 153.51C368.847 46.079 260.942 -20.197 153.51 5.4787C46.0788 31.1544 -20.1975 139.059 5.47823 246.491C31.1539 353.922 139.059 420.198 246.49 394.522Z" fill="white"/>
<path d="M200 0C89.5428 0 0 89.5428 0 200C0 310.457 89.5428 400 200 400C310.457 400 400 310.457 400 200C400 89.5428 310.457 0 200 0ZM199.999 367.099C155.372 367.099 113.412 349.716 81.8474 318.152C75.3577 311.662 75.3577 301.102 81.8474 294.613L131.532 244.928C123.032 232.019 118.078 216.579 118.078 200.001C118.078 154.829 154.828 118.078 199.999 118.078C245.172 118.078 281.922 154.829 281.922 200.001C281.922 245.173 245.172 281.923 199.999 281.923C183.421 281.923 167.981 276.968 155.072 268.469L118.184 305.357C141.519 323.503 170.407 333.452 199.999 333.452C273.586 333.452 333.452 273.586 333.452 200.001C333.452 126.415 273.586 66.5477 199.999 66.5477C126.414 66.5477 66.5484 126.414 66.5478 200C66.5478 209.277 59.0003 216.824 49.724 216.824C40.4478 216.824 32.9011 209.277 32.9011 200C32.9019 107.861 107.862 32.9011 199.999 32.9011C292.138 32.9011 367.099 107.862 367.099 200.001C367.099 292.14 292.138 367.099 199.999 367.099Z" fill="#006DC7"/>
<path d="M248.325 200.001C248.325 226.647 226.647 248.325 200 248.325C173.354 248.325 151.676 226.647 151.676 200.001C151.676 173.354 173.354 151.676 200 151.676C226.647 151.676 248.325 173.354 248.325 200.001Z" fill="#006DC7"/>
</g>
<defs>
<clipPath id="clip0_306_74">
<rect width="400" height="400" fill="white"/>
</clipPath>
</defs>
</svg>
