<svg width="400" height="100" viewBox="0 0 400 100" fill="none" xmlns="http://www.w3.org/2000/svg">
<g clip-path="url(#clip0_239_43)">
<path d="M73.9221 45.9875H73.522C73.3797 45.9737 73.2421 45.9336 73.1175 45.8696C72.993 45.8057 72.8842 45.7193 72.7979 45.6157C72.7117 45.5135 72.6494 45.3962 72.615 45.2713C72.5806 45.1464 72.5747 45.0164 72.5978 44.8893C74.1031 37.0374 80.7817 31.5202 86.1265 28.2774C87.3898 27.6116 88.459 26.6809 89.2447 25.563C90.0304 24.4452 90.5097 23.1728 90.6424 21.8523C91.0807 19.4761 91.7535 17.1406 92.6526 14.8737C92.948 14.0609 93.2433 13.2307 93.5196 12.4006C93.5573 12.2881 93.5468 12.1668 93.4903 12.061C93.4338 11.9552 93.3354 11.8726 93.2147 11.8298C88.6702 10.2646 86.5457 7.679 86.8601 4.13352C87.003 2.59426 89.0894 0.709097 90.6328 0.285368C91.268 0.103048 91.9293 0.00688727 92.5954 0C95.6918 0 97.521 2.33483 98.9977 4.5313C99.0439 4.5987 99.1086 4.65405 99.1854 4.69194C99.2622 4.72984 99.3486 4.74898 99.436 4.74749C99.5493 4.74688 99.6594 4.71357 99.7504 4.65237C103.895 1.88516 108.982 0.536147 115.28 0.536147H115.585C122.101 0.536147 127.208 2.20512 130.752 5.36147C130.853 5.45423 130.99 5.50708 131.133 5.50847C131.239 5.5091 131.343 5.47879 131.428 5.422L133.191 4.22864C134.944 3.03528 136.754 1.79869 138.631 0.717745C139.277 0.33323 140.03 0.123302 140.803 0.112418C141.494 0.116625 142.168 0.308218 142.739 0.662607C143.309 1.017 143.75 1.51801 144.004 2.10135C144.69 3.5109 144.957 5.75925 144.176 7.13421C143.488 8.36778 142.503 9.44508 141.294 10.2863C140.085 11.1276 138.683 11.7113 137.192 11.9941C137.058 12.0172 136.94 12.0875 136.863 12.1896C136.787 12.2918 136.758 12.4174 136.783 12.5389L137.316 15.1332C138.04 18.5922 138.717 21.9128 139.469 25.2681C139.643 25.8878 140.051 26.4325 140.622 26.8073C147.434 30.889 152.731 36.5185 155.161 42.2605C155.321 42.7633 155.321 43.2969 155.161 43.7997C155.111 44.0141 154.981 44.2065 154.794 44.345C154.607 44.4834 154.373 44.5595 154.132 44.5607C153.966 44.5614 153.803 44.5258 153.655 44.4569C153.075 44.2451 152.573 43.8883 152.207 43.4279L151.254 41.9319C149.235 38.6977 148.12 36.9249 145.881 34.8668C145.783 34.7762 145.694 34.6778 145.614 34.5728C141.079 28.6493 133.677 25.147 122.959 23.8672C120.097 23.5249 117.214 23.3515 114.327 23.3483C106.436 23.2608 98.6394 24.9106 91.6046 28.1563C82.9444 32.2293 77.895 37.1844 76.5707 42.7966C76.5707 42.9436 76.504 43.0993 76.4754 43.2549C76.2182 44.4742 75.9038 45.9875 73.9221 45.9875ZM114.518 20.8232C121.658 20.8542 128.742 21.9678 135.477 24.118C135.534 24.1263 135.592 24.1263 135.649 24.118C135.723 24.1178 135.797 24.103 135.864 24.0747C135.932 24.0463 135.991 24.005 136.04 23.9537C136.087 23.9029 136.122 23.8434 136.142 23.7792C136.162 23.715 136.166 23.6476 136.154 23.5818C135.011 16.854 133.924 10.4981 127.084 6.76237C123.372 4.63811 119.086 3.48321 114.699 3.42442C110.796 3.44638 106.975 4.43616 103.647 6.28675C97.9307 9.39121 94.9773 14.5711 94.196 23.0889C94.1896 23.1519 94.1982 23.2153 94.2213 23.275C94.2443 23.3347 94.2811 23.3892 94.3294 23.4348C94.3778 23.4831 94.4365 23.5218 94.5021 23.5486C94.5677 23.5754 94.6386 23.5896 94.7105 23.5905H94.8629C101.23 21.7855 107.857 20.8528 114.527 20.8232H114.518ZM91.4617 3.312C91.3446 3.31131 91.2307 3.34694 91.1388 3.41298C91.047 3.47902 90.9828 3.57152 90.9568 3.6752L90.871 4.01245C90.7091 4.66102 90.5376 5.32688 90.7853 5.65548C91.679 6.80365 92.6799 7.87991 93.7768 8.87236L94.5676 9.63335C94.616 9.6809 94.6751 9.7186 94.7408 9.74394C94.8064 9.76928 94.8773 9.78169 94.9487 9.78035C95.0326 9.78145 95.1155 9.76391 95.1902 9.72924C95.265 9.69457 95.3292 9.64384 95.3774 9.58146C96.4349 8.17191 96.8065 7.16015 96.6064 6.32134C96.4063 5.48253 95.5108 4.63507 93.672 3.64061C93.0741 3.39751 92.4208 3.2878 91.7666 3.32065H91.4617V3.07852V3.312ZM139.822 3.15635C137.745 3.15635 134.334 6.00138 134.106 7.91249C134.118 8.39247 134.262 8.86206 134.525 9.2788V9.36527C134.566 9.44859 134.633 9.5192 134.717 9.56838C134.802 9.61755 134.901 9.64315 135.001 9.64199H135.096C137.554 9.2615 141.432 6.1311 141.299 4.64372C141.299 4.12487 140.346 3.19094 139.841 3.17364L139.822 3.15635Z" fill="#F47A58"/>
<path d="M125.92 17.7352C124.424 18.4356 123.538 19.1101 122.595 19.1793C122.128 19.1793 120.994 17.8303 121.137 17.6227C121.59 16.8149 122.368 16.1958 123.31 15.8932C123.91 15.8327 124.701 16.8358 125.92 17.7352Z" fill="#F47A58"/>
<path d="M68.3385 66.1544C68.6561 67.3708 68.9736 68.6305 69.2912 69.9333C69.5711 71.1951 69.762 72.4717 69.8628 73.7556C69.961 74.9601 69.897 76.1711 69.6723 77.3616C69.4704 78.4559 69.0159 79.4992 68.3385 80.4228C68.1513 80.9059 67.8108 81.328 67.3598 81.6358C66.9088 81.9435 66.3676 82.1233 65.8042 82.1523C64.6852 82.1344 63.5935 81.835 62.6507 81.2875C61.5735 80.6893 60.5925 79.9589 59.7354 79.117C59.0032 78.4551 58.3893 77.6937 57.9157 76.86C56.9535 75.6361 56.1959 74.2898 55.6673 72.8649C55.1238 71.4099 54.7252 69.9137 54.4764 68.3941C54.2196 66.8421 54.0764 65.2763 54.0477 63.7071C54.0159 62.116 54 60.5969 54 59.1499C53.9968 57.5265 53.9014 55.9044 53.7142 54.29C53.5237 52.6123 53.3966 51.0789 53.3331 49.6895C53.2525 48.532 53.3325 47.3699 53.5713 46.2305C53.7936 45.3081 54.3525 44.844 55.2481 44.8382H57.9252C59.047 44.7927 60.1494 45.115 61.0311 45.7462C61.9382 46.4873 62.6707 47.3874 63.1843 48.3924C64.0971 49.8104 64.8503 51.3082 65.4327 52.8631C65.9685 54.3158 66.4169 55.7938 66.776 57.2907C67.1253 58.7665 67.3953 60.2568 67.5858 61.7614C67.7764 63.2661 68.0273 64.7304 68.3385 66.1544Z" fill="#F47A58"/>
<path d="M111.954 52.6107C112.734 54.538 113.212 56.5554 113.373 58.6035C113.534 60.6669 113.39 62.7405 112.945 64.7692C112.494 66.8076 111.737 68.7803 110.696 70.6322C109.646 72.5095 108.272 74.2229 106.628 75.7083C105.499 76.8468 104.111 77.7495 102.56 78.3544C101.268 78.8315 99.887 79.081 98.4919 79.0895C97.1398 79.089 95.7972 78.8844 94.5191 78.4841C93.1513 78.0629 91.8121 77.5692 90.5081 77.0054V83.3786C90.5314 84.3195 90.6429 85.2568 90.8416 86.1804C91.0639 87.8004 91.2226 89.406 91.3179 90.9971C91.4193 92.5068 91.3234 94.022 91.0321 95.5111C90.8082 96.8456 90.0808 98.0682 88.9742 98.9701C88.3387 99.5782 87.4754 99.9484 86.5543 100.008C85.6162 100.063 84.6763 99.9298 83.801 99.6187C82.8933 99.304 82.0448 98.8635 81.2858 98.3129C80.6153 97.851 80.0655 97.2605 79.6757 96.5834C78.7171 95.1389 77.998 93.5743 77.5416 91.9397C77.1292 90.402 76.874 88.833 76.7794 87.2527C76.6829 86.1014 76.6829 84.9451 76.7794 83.7937C76.8747 82.1161 76.9223 80.352 76.9223 78.5014V59.8228C76.9223 58.9004 76.8747 57.8021 76.7794 56.5281C76.6833 55.2122 76.6833 53.892 76.7794 52.5762C76.8694 51.2371 77.1251 49.9114 77.5416 48.6242C77.9404 47.3782 78.6812 46.2446 79.6947 45.3295C80.9611 43.4779 82.712 41.9392 84.7918 40.8501C87.3636 39.615 90.2492 39.0184 93.1567 39.1206C95.1955 39.1272 97.2116 39.5097 99.0826 40.2448C101.011 40.9766 102.814 41.955 104.437 43.1504C106.128 44.4031 107.624 45.8575 108.886 47.4741C110.143 49.0622 111.174 50.7881 111.954 52.6107ZM101.045 56.2081C101.302 55.364 101.366 54.4814 101.236 53.6139C101.103 52.794 100.778 52.0096 100.283 51.3136C99.8112 50.6058 99.1574 50.0124 98.3776 49.5841C97.5523 49.1446 96.6095 48.9202 95.6528 48.9355C93.8386 48.8699 92.0581 49.3943 90.632 50.4143C89.389 51.3249 88.3918 52.4815 87.7166 53.7955C88.4034 55.1537 88.7763 56.6252 88.8123 58.1192C88.9075 59.8487 88.9552 61.6416 88.9552 63.498V67.1472C90.0241 67.1593 91.0929 67.1159 92.1563 67.0175C92.9932 66.9247 93.7631 66.5552 94.319 65.9798C95.7739 64.7099 97.0886 63.3139 98.2442 61.8117C99.5364 60.1093 100.485 58.2119 101.045 56.2081Z" fill="#F47A58"/>
<path d="M153.788 52.6108C154.559 54.5393 155.027 56.5567 155.179 58.6036C155.339 60.6669 155.195 62.7406 154.75 64.7693C154.299 66.8077 153.543 68.7804 152.502 70.6323C151.45 72.5091 150.077 74.2225 148.433 75.7084C147.304 76.8469 145.916 77.7496 144.365 78.3545C143.073 78.8316 141.692 79.081 140.297 79.0896C138.945 79.0892 137.602 78.8847 136.324 78.4842C134.97 78.0617 133.643 77.568 132.351 77.0055V83.3787C132.374 84.3196 132.486 85.2569 132.685 86.1805C132.907 87.8005 133.066 89.4061 133.161 90.9972C133.263 92.5068 133.167 94.0221 132.875 95.5112C132.651 96.8457 131.924 98.0683 130.818 98.9702C130.183 99.579 129.319 99.9493 128.398 100.008C127.46 100.063 126.52 99.9301 125.644 99.6188C124.737 99.3042 123.888 98.8637 123.129 98.313C122.459 97.8511 121.909 97.2606 121.519 96.5835C120.561 95.1389 119.842 93.5743 119.385 91.9398C118.973 90.402 118.718 88.8331 118.623 87.2528C118.527 86.1015 118.527 84.9452 118.623 83.7938C118.718 82.1162 118.766 80.3521 118.766 78.5015V59.8229C118.766 58.9005 118.718 57.8022 118.623 56.5282C118.527 55.2123 118.527 53.8921 118.623 52.5762C118.713 51.2372 118.969 49.9116 119.385 48.6243C119.784 47.3783 120.525 46.2446 121.538 45.3296C122.826 43.4696 124.604 41.9301 126.711 40.8502C129.283 39.6147 132.169 39.0181 135.076 39.1207C137.08 39.1252 139.062 39.4927 140.907 40.2016C142.835 40.9334 144.638 41.9119 146.261 43.1072C147.952 44.3601 149.448 45.8145 150.71 47.431C151.974 49.032 153.008 50.7726 153.788 52.6108ZM142.908 56.2082C143.164 55.3641 143.229 54.4815 143.098 53.6139C142.965 52.7942 142.641 52.0098 142.145 51.3137C141.674 50.6059 141.02 50.0125 140.24 49.5842C139.415 49.1447 138.472 48.9202 137.515 48.9356C135.701 48.87 133.92 49.3944 132.494 50.4144C131.243 51.3339 130.242 52.5027 129.569 53.8301C130.256 55.1883 130.629 56.6598 130.665 58.1539C130.76 59.8834 130.808 61.6763 130.808 63.5327V67.1819C131.877 67.1939 132.946 67.1506 134.009 67.0522C134.875 66.9649 135.673 66.5815 136.239 65.9799C137.693 64.7099 139.008 63.3139 140.164 61.8118C141.436 60.1058 142.365 58.2085 142.908 56.2082Z" fill="#F47A58"/>
<path d="M199.603 63.2918C199.92 65.2634 199.754 67.274 199.118 69.1808C198.497 71.1471 197.44 72.9774 196.012 74.5596C194.571 76.1577 192.801 77.4853 190.8 78.4682C188.716 79.4919 186.378 80.0158 184.007 79.9902C181.558 80.2838 179.067 80.0468 176.738 79.2984C171.841 77.7255 167.765 74.5531 165.306 70.4001C163.989 68.2037 163.13 65.8057 162.771 63.3264C162.447 61.2551 162.399 59.156 162.628 57.0743C162.824 54.9141 163.424 52.7999 164.4 50.8221C165.332 48.9428 166.762 47.3026 168.564 46.0487C170.567 44.7079 173.012 44.0221 175.5 44.103C176.262 44.103 176.964 44.0886 177.605 44.0597C178.339 44.0332 179.074 44.0477 179.806 44.103C182.327 44.2128 184.792 44.8208 187.028 45.8844C189.282 46.9518 191.318 48.3615 193.049 50.0525C194.844 51.8172 196.299 53.8429 197.355 56.0452C198.477 58.3525 199.234 60.7922 199.603 63.2918ZM179.806 68.4112C181.621 67.6581 183.137 66.4175 184.15 64.857C184.935 63.532 185.298 62.0349 185.198 60.5333C185.085 58.9454 184.635 57.3922 183.874 55.9587C183.113 54.4809 182.2 53.0709 181.149 51.7474C180.129 52.3839 179.24 53.177 178.52 54.0909C177.788 55.0121 177.189 56.0148 176.738 57.0743C176.295 58.1096 175.975 59.1852 175.785 60.2825C175.604 61.286 175.508 62.3008 175.5 63.3178V68.4371C175.714 68.4421 175.924 68.4862 176.119 68.5668C176.383 68.667 176.654 68.7537 176.929 68.8263C177.301 68.9173 177.688 68.9466 178.072 68.9127C178.677 68.8374 179.264 68.6677 179.806 68.4112Z" fill="#F47A58"/>
<path d="M11.4322 83.882C10.7257 83.874 10.025 83.766 9.35522 83.562C8.41821 83.2971 7.51699 82.9374 6.66855 82.4897C6.07431 82.2055 5.51808 81.8602 5.01082 81.4606C4.97238 81.425 4.94024 81.3841 4.91554 81.3396C3.63527 79.0289 2.67524 76.5832 2.05738 74.0584C1.39243 71.435 0.921374 68.7743 0.647353 66.094C0.380591 63.396 0.218628 60.6806 0.161465 58.0086C0.104301 55.3365 0.0757198 52.82 0.0757198 50.4593C0.0757198 47.8045 0.0757198 45.2707 0.0757198 43.0397C0.0757198 40.8086 0.0757198 38.4565 0.0757198 35.7585C-0.00049786 33.5533 -0.000497856 31.132 0.123356 28.6415C0.209909 26.0324 0.496418 23.4318 0.980805 20.8588V20.7982C1.06614 20.4391 1.28508 20.1175 1.60085 19.8876C1.91662 19.6577 2.30995 19.5334 2.71476 19.5357H2.85767C3.67133 19.5861 4.4608 19.8082 5.16325 20.1843C5.95349 20.5881 6.68349 21.0822 7.33546 21.6543C7.89325 22.1032 8.36634 22.632 8.73595 23.2196C8.74076 23.2569 8.74076 23.2946 8.73595 23.332C9.71263 27.251 10.2962 31.2423 10.4794 35.2569C10.6319 38.9235 10.7176 42.6505 10.7176 46.3517C11.9562 46.0317 13.3281 45.7291 14.8143 45.4869C16.5578 45.1756 18.2155 44.8124 19.7589 44.4319C22.0777 43.8919 24.4425 43.5303 26.8281 43.351C28.9908 43.1953 31.2488 43.1089 33.5448 43.0916V33.9165C33.5448 33.095 33.5448 32.066 33.421 30.8553C33.2971 29.6447 33.3257 28.3129 33.421 26.9812C33.4726 25.6662 33.6543 24.358 33.964 23.0725C34.2267 21.8869 34.7731 20.768 35.5646 19.7951V19.7432C35.7243 19.6166 35.9101 19.5201 36.1113 19.4592C36.3125 19.3984 36.525 19.3744 36.7364 19.3887C36.9141 19.3782 37.0923 19.3782 37.27 19.3887C37.963 19.4729 38.6396 19.6446 39.2802 19.8989C39.894 20.1462 40.4864 20.4353 41.0523 20.7637C41.5591 20.9861 41.9493 21.3806 42.1384 21.8619C42.5972 23.2157 42.9161 24.6053 43.0911 26.0127C43.253 27.3098 43.3483 28.607 43.3769 29.8781C43.4055 31.1493 43.3769 32.4119 43.2912 33.6658C43.2054 34.9197 43.1673 36.1908 43.1673 37.4966C43.1673 40.0909 43.1673 42.6851 43.2912 45.3486C43.415 48.012 43.4912 50.6495 43.6532 53.2784C43.8264 55.8076 44.2022 58.322 44.7774 60.8017C45.357 63.3729 45.78 65.9711 46.0445 68.5845C46.1433 69.7474 46.3279 70.903 46.5971 72.0435C46.8672 73.166 47.0739 74.3003 47.2164 75.442C47.3543 76.5559 47.383 77.6787 47.3021 78.7972C47.2111 79.9726 46.8884 81.1237 46.3494 82.1957C46.1674 82.5492 45.889 82.8547 45.5406 83.0832C45.1921 83.3117 44.7851 83.4557 44.3582 83.5015C44.0869 83.5369 43.813 83.5542 43.5389 83.5534C42.9718 83.5497 42.4078 83.477 41.8621 83.3372C41.0362 83.1313 40.2493 82.8135 39.5279 82.3946C38.8832 82.0777 38.3686 81.5803 38.0607 80.9764C37.5181 79.8323 37.1155 78.6375 36.8603 77.4136C36.5078 75.9176 36.1934 74.2227 35.9076 72.3807C35.6217 70.5388 35.4026 68.5931 35.2121 66.5523C35.0215 64.5115 34.8596 62.5053 34.7262 60.5509C34.5928 58.5966 34.5071 56.7201 34.4785 54.9733C34.4785 53.5724 34.4785 52.3012 34.4785 51.177C33.234 51.514 31.9585 51.7484 30.6676 51.8775C29.2463 52.0206 27.8429 52.2841 26.4756 52.6644C23.9685 53.2476 21.4227 53.6837 18.8539 53.9702C16.4431 54.2575 14.0158 54.4163 11.5846 54.4458C11.5846 56.9017 11.6894 59.2192 11.8704 61.3638C12.061 63.6381 12.3944 66.068 12.8803 68.5931C13.748 72.9885 14.1848 77.445 14.1855 81.9103C14.1919 81.9534 14.1919 81.997 14.1855 82.04C14.1061 82.5041 13.8655 82.933 13.4987 83.2643C13.132 83.5956 12.6583 83.812 12.1467 83.882C11.9088 83.8968 11.6701 83.8968 11.4322 83.882Z" fill="#F47A58"/>
<path d="M104.037 17.7352C105.533 18.4356 106.419 19.1101 107.362 19.1793C107.829 19.1793 108.963 17.8303 108.82 17.6227C108.367 16.8149 107.589 16.1958 106.648 15.8932C106.047 15.8327 105.257 16.8358 104.037 17.7352Z" fill="#F47A58"/>
<path d="M239.553 82.6102C239.029 82.6075 238.507 82.5465 238 82.4286C236.901 82.1478 235.911 81.5937 235.142 80.8288C234.349 80.0873 233.818 79.1478 233.617 78.1308C232.541 74.1097 229.806 66.2145 225.348 54.6182C225.119 53.935 224.843 53.2 224.547 52.439C222.994 48.4265 221.032 43.3072 218.669 37.2539C216.554 31.9184 215.334 28.8226 215.049 28.027C214.764 27.3478 214.64 26.622 214.685 25.8966C214.729 25.1711 214.941 24.4622 215.306 23.8157C215.647 23.1567 216.136 22.5695 216.741 22.0915C217.347 21.6136 218.055 21.2554 218.821 21.0398C219.469 20.8391 220.148 20.734 220.832 20.7285C221.759 20.7355 222.672 20.9367 223.499 21.3165C224.217 21.6188 224.857 22.0556 225.376 22.5981C225.894 23.1406 226.281 23.7765 226.51 24.4642L230.064 33.5701C232.464 39.6234 234.465 44.7168 235.989 48.8243C236.294 49.5507 236.59 50.2685 236.885 51.0122C237.352 52.3352 237.838 53.6064 238.305 54.7911L239.314 57.2903L240.124 54.696C240.467 53.5978 240.848 52.4995 241.258 51.4532C245.069 40.0298 248.527 30.9239 251.509 24.3345C251.817 23.6652 252.271 23.0596 252.844 22.5542C253.418 22.0488 254.098 21.6543 254.844 21.3944C255.58 21.1114 256.369 20.9615 257.168 20.9534C258.372 20.9703 259.544 21.3069 260.54 21.9216C261.536 22.5363 262.311 23.4022 262.77 24.4124C263.099 25.0683 263.268 25.7803 263.268 26.5007C263.268 27.2211 263.099 27.9332 262.77 28.5891C259.912 34.8586 256.616 43.6185 252.91 54.6355C249.966 63.4041 247.46 71.3857 245.46 78.3816C245.278 79.0957 244.936 79.768 244.453 80.356C243.971 80.9439 243.36 81.4347 242.659 81.7973C241.727 82.3256 240.651 82.6071 239.553 82.6102Z" fill="#F47A58"/>
<path d="M276.974 60.8181C276.879 68.3126 276.707 73.9248 276.46 77.6548C276.442 78.3405 276.263 79.0148 275.935 79.6323C275.606 80.2499 275.135 80.7964 274.554 81.2349C273.99 81.7052 273.327 82.0677 272.605 82.3009C271.884 82.5342 271.118 82.6333 270.353 82.5925C269.593 82.5724 268.846 82.4081 268.16 82.1102C267.474 81.8123 266.864 81.3875 266.37 80.863C265.856 80.3569 265.461 79.7604 265.21 79.1105C264.96 78.4606 264.858 77.7709 264.913 77.0841C265.11 73.504 265.256 68.0445 265.351 60.7056C265.397 59.729 265.726 58.7806 266.304 57.9557C266.858 57.1437 267.654 56.4903 268.6 56.0706C267.576 55.6739 266.709 55.0045 266.113 54.1508C265.829 53.8106 265.607 53.431 265.456 53.0266C265.353 52.7451 265.28 52.4557 265.237 52.1619C265.184 51.9666 265.159 51.7662 265.16 51.5652V51.0982C265.111 50.6584 265.111 50.215 265.16 49.7752C265.155 49.5312 265.18 49.2874 265.237 49.0488V48.6856C265.28 48.3918 265.354 48.1023 265.456 47.8208C265.66 47.2755 265.955 46.7621 266.332 46.2989C267.157 45.2854 268.354 44.5743 269.708 44.2949C271.061 44.0156 272.48 44.1866 273.706 44.7769C274.571 45.1685 275.302 45.7664 275.821 46.5064C276.062 46.8135 276.257 47.1478 276.402 47.5009L276.698 48.2964C276.831 49.1967 276.904 50.1035 276.917 51.0118C276.943 52.2816 276.447 53.5147 275.526 54.4708C275.174 54.8795 274.757 55.2381 274.287 55.5344C274.066 55.6996 273.819 55.8337 273.554 55.9322C274.599 56.3565 275.486 57.0475 276.107 57.9211C276.725 58.7798 277.029 59.7936 276.974 60.8181Z" fill="#F47A58"/>
<path d="M339.682 70.9096C339.86 71.4854 340.194 72.0117 340.653 72.4406C341.112 72.8695 341.682 73.1874 342.311 73.3655C343.325 73.6905 344.409 73.7941 345.475 73.6679C346.541 73.5417 347.559 73.1893 348.447 72.6391C349.063 72.2377 349.762 71.9518 350.501 71.7979C351.241 71.644 352.006 71.6253 352.754 71.7428C353.502 71.8603 354.216 72.1117 354.855 72.4824C355.495 72.853 356.046 73.3355 356.478 73.9016C356.923 74.4662 357.236 75.1068 357.4 75.7846C357.564 76.4624 357.574 77.1633 357.431 77.8449C357.324 78.5335 357.061 79.1947 356.66 79.7869C356.258 80.3792 355.726 80.8897 355.097 81.2866C349.79 84.6419 344.503 84.8148 339.244 83.535C336.657 82.9375 334.305 81.6978 332.451 79.9549C330.539 78.1662 329.136 75.9817 328.363 73.5903C326.394 67.8829 326.066 61.813 327.411 55.958C328.065 52.9607 329.577 50.1723 331.793 47.8726C333.039 46.6059 334.556 45.5825 336.251 44.8645C337.946 44.1464 339.784 43.7488 341.654 43.6958C343.993 43.58 346.331 43.9225 348.511 44.6999C350.691 45.4773 352.661 46.6714 354.287 48.2012C355.924 49.5217 357.248 51.1315 358.177 52.932C359.106 54.7326 359.62 56.6862 359.689 58.6733C359.771 60.9505 359.083 63.1958 357.717 65.1071C356.354 67.0095 354.401 67.6235 351.877 68.6872C348.083 70.3483 343.888 71.1128 339.682 70.9096ZM338.367 60.1694C339.959 60.4198 341.573 60.5298 343.188 60.498C344.538 60.5163 345.879 60.2899 347.132 59.8321C347.376 59.7693 347.601 59.657 347.789 59.5035C347.885 59.4612 347.962 59.3912 348.009 59.3046C348.077 59.1818 348.104 59.0433 348.085 58.9068C347.93 57.6614 347.246 56.5199 346.179 55.7245C345.687 55.2214 345.078 54.8239 344.396 54.5607C343.714 54.2974 342.976 54.1751 342.235 54.2026C341.878 54.1902 341.523 54.2489 341.194 54.3743C340.865 54.4998 340.57 54.6891 340.33 54.929C339.514 55.9027 338.962 57.0374 338.72 58.241C338.58 58.8578 338.462 59.4977 338.367 60.1607V60.1694Z" fill="#F47A58"/>
<path d="M387.832 43.7572C388.574 43.7916 389.296 43.9874 389.938 44.3279C394.085 46.3168 396.985 49.6202 398.636 54.238C400.031 58.2083 400.374 62.4215 399.636 66.5348C399.042 70.6542 397.242 74.5538 394.425 77.8284C392.942 79.6409 391.013 81.1135 388.791 82.1285C386.57 83.1435 384.117 83.6728 381.63 83.6742C378.675 83.6704 375.831 82.6544 373.665 80.8291C371.765 79.2694 370.248 77.3628 369.216 75.2342C367.062 70.8521 366.083 66.069 366.358 61.2771C366.65 55.512 368.448 50.9606 371.75 47.6226C373.616 45.6637 376.095 44.2671 378.858 43.6188C381.811 42.9504 384.906 42.9981 387.832 43.7572ZM385.117 53.944C384.117 53.6578 383.058 53.5809 382.021 53.7191C381.372 53.8684 380.788 54.1907 380.344 54.6444C378.966 56.0799 378.184 58.4234 378 61.6748C377.769 64.7982 378.388 67.9252 379.801 70.7807C380.151 71.5903 380.695 72.3197 381.392 72.9166C381.446 73.0001 381.53 73.0642 381.63 73.0982C382.382 73.0697 383.116 72.8849 383.777 72.558C384.438 72.2312 385.007 71.7711 385.441 71.2131C386.972 69.3879 387.933 67.2223 388.223 64.9436C388.673 62.4683 388.487 59.9321 387.68 57.5327C387.245 56.131 386.352 54.8824 385.117 53.9526V53.944Z" fill="#F47A58"/>
<path d="M319.276 82.0659C318.744 82.5674 318.099 82.9596 317.386 83.2161C316.673 83.4727 315.907 83.5876 315.141 83.5533C314.466 83.6108 313.787 83.4993 313.178 83.231C312.568 82.9627 312.051 82.5477 311.683 82.0313C311.013 81.0169 310.618 79.873 310.53 78.6934C309.297 80.2296 307.659 81.4605 305.766 82.2734C303.861 83.0863 303.861 83.4927 301.717 83.4927C299.102 83.5266 296.518 82.9678 294.2 81.867C291.985 80.8006 290.039 79.3283 288.484 77.5432C286.902 75.7313 285.68 73.6829 284.873 71.49C284.032 69.2635 283.604 66.9257 283.606 64.572C283.589 62.2122 284.014 59.867 284.864 57.6366C285.692 55.4697 286.94 53.4548 288.551 51.6871C290.149 49.9481 292.141 48.5414 294.391 47.5623C296.77 46.5324 299.377 46.0117 302.013 46.0403C305.69 46.0403 306.776 47.1904 309.301 49.4993L307.281 34.418C307.28 33.7569 307.423 33.102 307.702 32.4913C307.981 31.8805 308.39 31.326 308.907 30.8597C309.423 30.3934 310.036 30.0245 310.711 29.7744C311.385 29.5243 312.107 29.3979 312.835 29.4025H313.255C314.72 29.4025 316.126 29.9309 317.162 30.8715C318.198 31.8121 318.78 33.0878 318.78 34.418L320.8 78.2091C320.867 79.6262 320.32 81.0108 319.276 82.0659ZM309.225 61.7529C308.976 60.6232 308.522 59.5389 307.881 58.5446C307.262 57.602 306.147 57.0918 305.347 56.2098C304.547 55.3277 304.604 55.3969 303.442 55.2932C302.13 55.2086 300.823 55.512 299.716 56.1579C298.683 56.712 297.793 57.4611 297.106 58.3544C296.412 59.2834 295.896 60.3127 295.582 61.3983C295.237 62.4982 295.061 63.636 295.058 64.7795C295.06 65.9464 295.224 67.1084 295.544 68.2385C295.839 69.3351 296.342 70.3768 297.03 71.317C297.701 72.2197 298.578 72.9807 299.602 73.5481C300.729 74.1497 302.021 74.4495 303.327 74.4128C304.15 74.4019 304.951 74.1735 305.633 73.7556C306.776 73.3924 306.929 72.4412 307.595 71.611C308.284 70.7419 308.8 69.7703 309.12 68.7401C309.471 67.6414 309.647 66.5028 309.644 65.3589C309.64 64.1471 309.499 62.9388 309.225 61.7529Z" fill="#F47A58"/>
</g>
<defs>
<clipPath id="clip0_239_43">
<rect width="400" height="100" fill="white"/>
</clipPath>
</defs>
</svg>
