<svg width="400" height="400" viewBox="0 0 400 400" fill="none" xmlns="http://www.w3.org/2000/svg">
<mask id="mask0_584_121" style="mask-type:luminance" maskUnits="userSpaceOnUse" x="50" y="70" width="300" height="260">
<path d="M76.3415 232.187C61.8535 232.187 50 217.591 50 199.75C50 181.902 61.8535 167.312 76.3415 167.312H323.658C338.146 167.312 350 181.902 350 199.75C350 217.591 338.146 232.187 323.658 232.187H76.3415ZM276.061 134.875H125.814C112.991 134.875 102.5 120.278 102.5 102.437C102.5 84.5969 112.991 70 125.814 70H276.061C288.884 70 299.375 84.5969 299.375 102.437C299.375 120.278 288.884 134.875 276.061 134.875ZM228.4 329.5H276.061C288.884 329.5 299.375 314.903 299.375 297.062C299.375 279.222 288.884 264.625 276.061 264.625H125.814C112.991 264.625 102.5 279.222 102.5 297.062C102.5 314.903 112.991 329.5 125.814 329.5H175.35C179.211 316.901 189.629 307.875 201.875 307.875C214.121 307.875 224.539 316.901 228.4 329.5Z" fill="white"/>
</mask>
<g mask="url(#mask0_584_121)">
<path d="M76.3415 232.187C61.8535 232.187 50 217.591 50 199.75C50 181.902 61.8535 167.312 76.3415 167.312H323.658C338.146 167.312 350 181.902 350 199.75C350 217.591 338.146 232.187 323.658 232.187H76.3415ZM276.061 134.875H125.814C112.991 134.875 102.5 120.278 102.5 102.437C102.5 84.5969 112.991 70 125.814 70H276.061C288.884 70 299.375 84.5969 299.375 102.437C299.375 120.278 288.884 134.875 276.061 134.875ZM228.4 329.5H276.061C288.884 329.5 299.375 314.903 299.375 297.062C299.375 279.222 288.884 264.625 276.061 264.625H125.814C112.991 264.625 102.5 279.222 102.5 297.062C102.5 314.903 112.991 329.5 125.814 329.5H175.35C179.211 316.901 189.629 307.875 201.875 307.875C214.121 307.875 224.539 316.901 228.4 329.5Z" fill="url(#paint0_linear_584_121)"/>
</g>
<defs>
<linearGradient id="paint0_linear_584_121" x1="50" y1="199.75" x2="350" y2="199.75" gradientUnits="userSpaceOnUse">
<stop stop-color="#F9C162"/>
<stop offset="1" stop-color="#F7974D"/>
</linearGradient>
</defs>
</svg>
