<svg width="400" height="400" viewBox="0 0 400 400" fill="none" xmlns="http://www.w3.org/2000/svg">
<path fill-rule="evenodd" clip-rule="evenodd" d="M268.384 270.993C244.884 270.993 225.835 252.118 225.835 228.838C225.835 205.553 244.884 186.678 268.384 186.678C291.883 186.678 310.932 205.553 310.932 228.838C310.932 252.118 291.883 270.993 268.384 270.993ZM281.121 147.675V110.171C291.001 105.548 297.921 95.6451 297.921 84.1527V83.287C297.921 67.4258 284.824 54.4488 268.816 54.4488H267.947C251.939 54.4488 238.842 67.4258 238.842 83.287V84.1527C238.842 95.6451 245.762 105.552 255.642 110.176V147.675C240.933 149.928 227.493 155.939 216.409 164.786L112.488 84.6867C113.174 82.0775 113.655 79.3915 113.659 76.568C113.676 58.6073 99.0031 44.0243 80.8685 44C62.7421 43.9798 48.0204 58.5223 48 76.487C47.9796 94.4518 62.6522 109.035 80.7869 109.055C86.6943 109.063 92.1649 107.4 96.9578 104.698L199.18 183.495C190.489 196.496 185.394 212.07 185.394 228.838C185.394 246.39 190.991 262.627 200.446 275.98L169.362 306.785C166.904 306.052 164.356 305.543 161.654 305.543C146.757 305.543 134.676 317.508 134.676 332.269C134.676 347.034 146.757 359 161.654 359C176.555 359 188.631 347.034 188.631 332.269C188.631 329.599 188.117 327.071 187.378 324.636L218.127 294.168C232.086 304.721 249.469 311.064 268.384 311.064C314.218 311.064 351.369 274.249 351.369 228.838C351.369 187.726 320.889 153.763 281.121 147.675Z" fill="#F95C35"/>
</svg>
