<svg width="400" height="400" viewBox="0 0 400 400" fill="none" xmlns="http://www.w3.org/2000/svg">
<path d="M71.598 206.869C56.5133 210.327 47.1262 224.569 50.7949 239.834C54.2589 255.099 68.9335 264.062 83.8135 260.603C98.8981 257.145 108.08 242.903 104.616 227.639C101.153 212.354 86.478 203.412 71.598 206.869Z" fill="#FFB5D6"/>
<path d="M84.6212 149.261C96.6522 158.837 113.561 157.2 123.358 144.984C133.134 132.768 130.9 115.887 119.074 106.311C107.248 96.7348 90.114 98.3715 80.3378 110.588C70.5612 122.803 72.7955 139.684 84.6212 149.261Z" fill="#D2A7E9"/>
<path d="M157.615 293.979C143.555 287.267 127.445 292.956 120.723 306.809C114 320.641 119.493 336.725 133.573 343.64C147.633 350.353 163.743 344.664 170.465 330.811C176.983 316.774 171.695 300.691 157.615 293.979Z" fill="#FFDCDC"/>
<path d="M242.413 293.967C228.354 300.678 222.84 316.966 229.563 330.799C236.285 344.632 252.19 350.544 266.455 343.629C280.515 336.918 286.028 320.63 279.306 306.797C272.583 292.964 256.495 287.051 242.413 293.967Z" fill="#FFD1A4"/>
<path d="M328.467 206.868C313.382 203.411 298.913 212.373 295.449 227.638C291.985 242.902 301.167 257.348 316.251 260.601C331.336 264.06 345.806 255.097 349.269 239.833C352.735 224.569 343.551 210.327 328.467 206.868Z" fill="url(#paint0_linear_582_53)"/>
<path d="M319.295 149.284C331.326 139.707 333.355 122.826 323.579 110.61C313.803 98.3944 296.873 96.7778 284.842 106.334C272.811 115.91 270.782 132.791 280.558 145.007C290.355 157.223 307.264 158.839 319.295 149.284Z" fill="#A0B0F6"/>
<path d="M200.028 53C184.123 53 172.297 65.2157 172.297 80.685C172.297 96.1543 184.123 108.37 200.028 108.37C215.727 108.37 227.758 96.1543 227.758 80.685C227.737 65.1952 215.727 53 200.028 53Z" fill="#BBABED"/>
<defs>
<linearGradient id="paint0_linear_582_53" x1="314.47" y1="260.254" x2="329.729" y2="208.794" gradientUnits="userSpaceOnUse">
<stop offset="0.2656" stop-color="#FFB7B2"/>
<stop offset="0.5781" stop-color="#AB9EFC"/>
</linearGradient>
</defs>
</svg>
