<svg width="400" height="399" viewBox="0 0 400 399" fill="none" xmlns="http://www.w3.org/2000/svg">
<g clip-path="url(#clip0_297_153)">
<path d="M241.343 177.125C233.251 179.569 224.329 179.61 215.985 179.239C206.283 178.808 196.005 177.52 187.045 173.339C179.672 169.899 173.758 163.693 176.853 154.728C179.036 148.406 183.873 142.758 189.464 139.574C195.751 135.993 202.659 136.575 208.949 139.812C216.011 143.446 221.885 149.359 227.209 155.324C230.001 158.452 232.665 161.7 235.293 164.979C236.505 166.487 244.729 175.111 241.343 177.125ZM375.847 180.207C363.401 177.167 348.697 178.256 336.221 176.161C316.569 172.86 287.297 148.8 271.429 124.345C260.403 107.352 255.141 90.0441 246.713 68.954C240.831 54.2332 228.003 7.67238 210.065 29.466C202.679 38.4412 194.409 67.9871 188.368 67.5709C183.894 68.6631 183.164 59.5071 181.748 55.5942C179.178 48.4888 177.815 40.2688 174.371 33.5686C171.618 28.2133 168.003 21.7985 162.468 19.1957C152.606 13.8712 140.716 29.9192 134.815 48.9492C132.292 59.1535 115.331 78.9338 107.945 83.7178C74.3374 105.493 6.88527 128.434 0.00585402 204.824C-0.0222181 205.141 0.005854 206.105 1.14804 205.237C9.19243 199.121 100.437 130.116 41.879 263.499C6.00451 345.218 179.213 397.256 188.117 397.468C189.317 397.496 189.229 396.922 189.27 396.546C203.093 266.12 339.639 279.849 371.437 248.612C402.949 217.662 403.593 187.701 375.847 180.207Z" fill="#FA5320"/>
</g>
<defs>
<clipPath id="clip0_297_153">
<rect width="400" height="399" fill="white"/>
</clipPath>
</defs>
</svg>
