<svg width="300" height="400" viewBox="0 0 300 400" fill="none" xmlns="http://www.w3.org/2000/svg">
<g clip-path="url(#clip0_259_33)">
<path d="M10.2031 201C18.3664 196 26.5297 191 35.7133 188C35.7133 188 26.5297 183 13.2643 177C12.2439 181 10.2031 201 10.2031 201Z" fill="#01C5D1"/>
<path d="M71.4286 0C29.5918 65 74.4898 104 91.8367 116C48.9796 89 54.0816 81 7.14286 77C26.5306 143 73.4694 150 116.327 158C65.3061 156 40.8163 131 0 149C30.6122 200 106.122 190 123.469 185C76.5306 203 56.1224 171 4.08163 217C66.3265 237 124.49 208 124.49 208C102.041 224 57.1429 222 44.898 258C72.449 261 106.122 243 128.571 224C104.082 251 63.2653 253 67.3469 282C116.327 275 136.735 234 138.776 232C118.367 273 95.9184 267 97.9592 295C123.469 295 147.959 269 158.163 247C154.082 234 156.122 220 161.224 208C161.224 239 175.51 268 200 287C182.653 283 169.388 272 161.224 256C161.224 256 161.224 256 161.224 257C154.082 280 128.571 299 108.163 307C130.612 310 215.306 337 212.245 400C225.51 369 224.49 346 216.327 328C208.163 311 209.184 290 218.367 273C219.388 271 221.429 269 222.449 266C198.98 236 194.898 208 203.061 187C216.327 210 248.98 212 260.204 210C260.204 210 255.102 246 283.673 266C271.429 249 265.306 222 268.367 193" fill="#01C5D1"/>
<path d="M268.365 193C262.243 194 255.1 193 248.978 193C244.896 193 241.835 192 237.753 191C229.59 189 222.447 186 216.325 180C245.917 187 259.182 187 263.263 187H265.304C263.263 177 257.141 155 234.692 124C234.692 132 233.672 141 231.631 149C219.386 118 209.182 111 197.957 103C202.039 115 202.039 128 199.998 140C190.814 109 159.182 94 159.182 94C159.182 94 192.855 149 163.263 189C196.937 78 52.0389 94 71.4267 0" fill="#01C5D1"/>
<path d="M271.427 124.001C234.692 77.0009 172.448 57.0009 115.305 73.0009C122.448 77.0009 133.672 84.0009 140.815 89.0009C143.876 89.0009 145.917 88.0009 148.978 88.0009C146.937 84.0009 144.897 80.0009 142.856 77.0009C142.856 77.0009 155.101 83.0009 165.305 88.0009C173.468 89.0009 180.611 90.0009 188.774 92.0009C187.754 89.0009 186.733 85.0009 184.692 82.0009C190.815 86.0009 195.917 91.0009 201.019 96.0009C211.223 100.001 220.407 105.001 228.57 111.001L227.55 99.0009C232.652 107.001 237.754 115.001 241.835 123.001C245.917 127.001 249.999 132.001 254.08 136.001C266.325 151.001 273.468 169.001 277.55 188.001C278.57 195.001 279.59 203.001 279.59 210.001C279.59 215.001 279.59 220.001 280.611 225.001C282.652 237.001 285.713 248.001 290.815 259.001C308.162 214.001 301.019 163.001 271.427 124.001Z" fill="#01C5D1"/>
<path d="M31.6333 130C29.5925 133 28.5721 135 26.5312 138C30.6129 138 36.7353 139 42.8578 139C38.7761 135 34.6945 132 31.6333 130Z" fill="#01C5D1"/>
<path d="M153.059 332C93.8757 331 42.8553 289 32.6512 232C25.5084 232 18.3655 230 11.2227 228C21.4267 306 93.8757 361 173.468 351C176.529 351 178.57 350 181.631 350C177.549 345 169.386 339 153.059 332Z" fill="#01C5D1"/>
<path d="M268.368 271C257.144 263 248.98 249 247.96 237C251.021 237 254.082 236 256.123 234C254.082 235 251.021 235 248.98 235C252.042 235 255.103 233 256.123 229C255.103 231 253.062 233 250.001 233C252.042 232 254.082 230 254.082 227C253.062 229 251.021 231 247.96 232C247.96 228 248.98 223 251.021 219C237.756 217 221.429 217 208.164 207C208.164 221 212.246 239 229.593 260L233.674 265L229.593 271C228.572 273 227.552 275 226.531 277C218.368 291 218.368 309 225.511 324C229.593 334 232.654 344 232.654 355H233.674C233.674 355 247.96 350 246.94 340C245.919 330 244.899 317 256.123 316H257.144C257.144 316 261.225 312 253.062 306C252.042 306 251.021 305 250.001 305C253.062 305 257.144 305 259.184 303C263.266 301 266.327 298 263.266 295C261.225 293 258.164 291 256.123 288C255.103 287 256.123 285 257.144 284H258.164C262.246 284 266.327 281 269.389 273C269.389 272 269.389 271 268.368 271Z" fill="#01C5D1"/>
</g>
<defs>
<clipPath id="clip0_259_33">
<rect width="300" height="400" fill="white"/>
</clipPath>
</defs>
</svg>
