<svg width="400" height="400" viewBox="0 0 400 400" fill="none" xmlns="http://www.w3.org/2000/svg">
<rect x="48" y="48" width="303" height="303" fill="#33353B"/>
<path d="M297.622 199.91C297.622 195.737 298.066 194.269 301.976 192.646C303.373 192.077 304.802 191.624 306.163 191.192C310.343 189.868 313.883 188.746 313.883 185.073C313.883 181.828 310.683 179.048 306.774 179.048C303.486 179.048 300.198 180.439 297.266 183.142C295.577 180.514 293.356 179.278 290.602 179.278C285.804 179.278 283.583 182.138 283.583 188.088V212.581C283.583 218.531 285.804 221.468 290.602 221.468C295.4 221.468 297.622 218.531 297.622 212.581V199.91Z" fill="white"/>
<path d="M234.345 204.254C234.345 216.001 241.92 222.225 255.554 222.225C269.19 222.225 276.765 216.001 276.765 204.254V187.918C276.765 181.927 274.626 179.048 269.813 179.048C265.002 179.048 262.773 181.927 262.773 187.918V201.765C262.773 207.522 261.258 210.711 255.554 210.711C249.852 210.711 248.336 207.522 248.336 201.765V187.918C248.336 181.927 246.109 179.048 241.385 179.048C236.573 179.048 234.345 181.927 234.345 187.918V204.254Z" fill="white"/>
<path fill-rule="evenodd" clip-rule="evenodd" d="M203.317 238.89C213.106 238.89 220.274 235.676 224.294 229.639C227.003 225.641 227.528 219.997 227.528 212.549V187.699C227.528 181.662 225.343 178.76 220.622 178.76C218.526 178.76 216.078 180.093 214.504 182.68C211.708 179.701 208.211 178.29 203.492 178.29C191.779 178.29 182.078 187.62 182.078 200.163C182.078 212.706 191.167 221.643 202.006 221.643C207.424 221.643 211.533 219.683 214.504 215.842C214.504 216.126 214.527 216.39 214.55 216.644C214.571 216.879 214.591 217.106 214.591 217.332C214.591 224.074 210.572 227.758 203.841 227.758C199.537 227.758 196.34 226.599 193.74 225.656C191.958 225.01 190.455 224.465 189.069 224.465C185.661 224.465 183.126 226.739 183.126 229.874C183.126 234.736 190.73 238.89 203.317 238.89ZM196.324 200.163C196.324 193.969 200.258 190.05 205.328 190.05C210.396 190.05 214.416 193.969 214.416 200.163C214.416 206.434 210.484 210.511 205.328 210.511C200.171 210.511 196.324 206.513 196.324 200.163Z" fill="white"/>
<path d="M162.189 212.565C162.189 218.526 164.304 221.468 169.059 221.468C173.816 221.468 176.018 218.526 176.018 212.565V195.071C176.018 184.544 169.94 179.048 160.34 179.048C154.615 179.048 150.562 180.673 146.334 184.776C143.075 180.983 138.494 179.048 132.505 179.048C127.837 179.048 124.314 180.286 121.406 183.072C119.733 180.44 117.532 179.202 114.801 179.202C110.044 179.202 107.843 182.067 107.843 188.027V212.565C107.843 218.526 110.044 221.468 114.801 221.468C119.556 221.468 121.759 218.526 121.759 212.565V198.633C121.759 192.594 123.698 189.498 128.717 189.498C133.21 189.498 134.972 192.594 134.972 198.787V212.565C134.972 218.526 137.173 221.468 141.93 221.468C146.687 221.468 148.889 218.526 148.889 212.565V198.633C148.889 192.594 150.826 189.498 155.847 189.498C160.34 189.498 162.189 192.594 162.189 198.787V212.565Z" fill="white"/>
<path d="M100.267 187.906C100.267 181.923 98.097 179.048 93.4938 179.048C88.8043 179.048 86.6324 181.923 86.6324 187.906V212.532C86.6324 218.515 88.8043 221.468 93.4938 221.468C98.1847 221.468 100.267 218.515 100.267 212.532V187.906Z" fill="white"/>
<path d="M93.8774 159.353C89.065 159.353 85.1176 162.595 85.1176 166.549C85.1176 170.582 88.9678 173.745 93.8774 173.745C98.6898 173.745 102.54 170.582 102.54 166.549C102.54 162.595 98.6898 159.353 93.8774 159.353Z" fill="#1BB76E"/>
</svg>
