<svg width="400" height="400" viewBox="0 0 400 400" fill="none" xmlns="http://www.w3.org/2000/svg">
<path d="M303.174 213.628C303.174 216.133 302.186 218.536 300.427 220.307C298.667 222.078 296.282 223.073 293.794 223.073C291.306 223.073 288.92 222.078 287.161 220.307C285.402 218.536 284.414 216.133 284.414 213.628V129.25C284.414 126.746 285.402 124.343 287.161 122.572C288.92 120.801 291.306 119.806 293.794 119.806C296.282 119.806 298.667 120.801 300.427 122.572C302.186 124.343 303.174 126.746 303.174 129.25V213.628ZM299.917 272.092C298.677 273.34 263.795 302.611 199.845 302.611C135.895 302.611 101.246 273.497 99.7731 272.247C98.845 271.46 98.0804 270.495 97.5233 269.409C96.9663 268.322 96.6276 267.136 96.5268 265.917C96.426 264.7 96.5649 263.473 96.9358 262.309C97.3066 261.145 97.902 260.066 98.6878 259.134C100.307 257.248 102.6 256.084 105.069 255.893C107.538 255.703 109.981 256.504 111.865 258.12C112.408 258.51 143.569 283.956 199.767 283.956C255.966 283.956 287.36 258.354 287.671 258.12C289.576 256.517 292.027 255.727 294.502 255.917C296.978 256.107 299.282 257.261 300.925 259.134C302.506 260.992 303.296 263.404 303.122 265.845C302.948 268.285 301.824 270.559 299.995 272.17L299.917 272.092ZM96.4399 129.25C96.5801 126.738 97.7025 124.383 99.5616 122.701C101.421 121.019 103.866 120.146 106.362 120.274C108.676 120.406 110.859 121.397 112.491 123.054C114.123 124.712 115.087 126.919 115.199 129.25V213.473C115.199 215.977 114.21 218.379 112.451 220.15C110.692 221.922 108.307 222.917 105.819 222.917C103.332 222.917 100.946 221.922 99.187 220.15C97.4281 218.379 96.4399 215.977 96.4399 213.473V129.25ZM143.492 110.517C143.632 108.004 144.754 105.65 146.613 103.968C148.473 102.286 150.917 101.413 153.414 101.541C155.728 101.673 157.911 102.664 159.543 104.321C161.175 105.979 162.139 108.186 162.25 110.517V235.405C162.25 237.911 161.262 240.313 159.503 242.084C157.744 243.855 155.359 244.85 152.871 244.85C150.383 244.85 147.998 243.855 146.239 242.084C144.48 240.313 143.492 237.911 143.492 235.405V110.517ZM190.776 105.834C190.776 103.329 191.764 100.927 193.523 99.1556C195.282 97.3843 197.668 96.3892 200.155 96.3892C202.643 96.3892 205.029 97.3843 206.788 99.1556C208.547 100.927 209.535 103.329 209.535 105.834V241.65C209.535 244.155 208.547 246.557 206.788 248.329C205.029 250.1 202.643 251.095 200.155 251.095C197.668 251.095 195.282 250.1 193.523 248.329C191.764 246.557 190.776 244.155 190.776 241.65V105.834ZM237.285 110.517C237.285 108.012 238.274 105.61 240.033 103.839C241.792 102.068 244.177 101.073 246.664 101.073C249.152 101.073 251.538 102.068 253.297 103.839C255.056 105.61 256.044 108.012 256.044 110.517V235.405C256.044 237.911 255.056 240.313 253.297 242.084C251.538 243.855 249.152 244.85 246.664 244.85C244.177 244.85 241.792 243.855 240.033 242.084C238.274 240.313 237.285 237.911 237.285 235.405V110.517ZM305.731 59.0008H94.2694C89.6618 58.9699 85.0934 59.8546 80.8258 61.604C76.5582 63.3535 72.6751 65.9334 69.399 69.1961C66.1229 72.4588 63.518 76.3401 61.7336 80.6179C59.9492 84.8957 59.0203 89.4858 59 94.1257V304.875C59.0203 309.514 59.9492 314.105 61.7336 318.383C63.518 322.66 66.1229 326.542 69.399 329.804C72.6751 333.067 76.5582 335.647 80.8258 337.396C85.0934 339.146 89.6618 340.03 94.2694 339.999H305.731C310.332 340.03 314.895 339.149 319.157 337.404C323.42 335.66 327.299 333.086 330.574 329.831C333.849 326.578 336.456 322.705 338.244 318.436C340.034 314.168 340.97 309.586 341 304.953V94.1257C340.98 89.4925 340.054 84.9087 338.274 80.636C336.495 76.3634 333.897 72.4856 330.628 69.2238C327.361 65.9622 323.487 63.3806 319.228 61.6266C314.97 59.8725 310.41 58.9802 305.808 59.0008" fill="black"/>
</svg>
