<svg width="400" height="400" viewBox="0 0 400 400" fill="none" xmlns="http://www.w3.org/2000/svg">
<g clip-path="url(#clip0_311_75)">
<path d="M347.97 172.5L296.419 320.5L348.448 311L399.999 163L269.211 0L217.66 9.5L347.97 172.5Z" fill="url(#paint0_linear_311_75)"/>
<path d="M103.103 79.5L251.551 52L217.661 9.5L69.2124 37L0 237L33.8902 279.5L103.103 79.5Z" fill="url(#paint1_linear_311_75)"/>
<path d="M296.42 320.5L148.449 348L51.5517 227.5L33.8906 279.5L130.311 400L330.311 363L348.449 311L296.42 320.5Z" fill="url(#paint2_linear_311_75)"/>
</g>
<defs>
<linearGradient id="paint0_linear_311_75" x1="364.761" y1="306.418" x2="277.914" y2="-2.81458" gradientUnits="userSpaceOnUse">
<stop stop-color="#783282"/>
<stop offset="1" stop-color="#B432C8"/>
</linearGradient>
<linearGradient id="paint1_linear_311_75" x1="196.755" y1="-8.2495" x2="-0.0597383" y2="251.882" gradientUnits="userSpaceOnUse">
<stop stop-color="#783282"/>
<stop offset="1" stop-color="#B432C8"/>
</linearGradient>
<linearGradient id="paint2_linear_311_75" x1="29.8047" y1="295.041" x2="325.255" y2="372.719" gradientUnits="userSpaceOnUse">
<stop stop-color="#783282"/>
<stop offset="1" stop-color="#B432C8"/>
</linearGradient>
<clipPath id="clip0_311_75">
<rect width="400" height="400" fill="white"/>
</clipPath>
</defs>
</svg>
