<svg width="400" height="400" viewBox="0 0 400 400" fill="none" xmlns="http://www.w3.org/2000/svg">
<g clip-path="url(#clip0_277_62)">
<path d="M313.253 66.3934C261.847 66.3934 231.325 88.5246 216.867 136.066L181.526 249.18C168.675 286.066 146.988 301.639 108.434 301.639H20.0803C9.63855 301.639 0 311.475 0 322.131V380.328C0 390.984 8.03213 399.18 19.2771 399.18H379.116C390.361 399.18 400 389.344 400 377.869V86.8852C400 75.4098 391.968 67.2131 380.723 67.2131H313.253V66.3934ZM21.6867 0C10.4418 0 0 10.6557 0 22.1311V176.23C0 188.525 9.63855 198.361 21.6867 198.361H97.992C132.53 198.361 180.723 190.984 194.378 127.869C194.378 127.869 207.229 63.9344 215.261 27.0492C216.867 12.2951 207.229 0 192.771 0H21.6867Z" fill="#778EB1"/>
</g>
<defs>
<clipPath id="clip0_277_62">
<rect width="400" height="400" fill="white"/>
</clipPath>
</defs>
</svg>
