<svg width="400" height="400" viewBox="0 0 400 400" fill="none" xmlns="http://www.w3.org/2000/svg">
<path d="M342.634 195.784L330.907 189.382C325.759 164.058 313.459 141.409 296.202 123.539C286.477 113.409 275.227 104.904 262.736 98.2149V90.7611C262.736 86.843 255.3 83.3072 243.286 80.8225C232.035 78.4334 216.78 77 200 77C194.089 77 188.368 77.1911 182.838 77.4778C156.523 79.1024 137.263 84.4539 137.263 90.6655V98.1194C128.873 102.611 121.055 107.962 113.809 114.078C91.4031 133.191 75.2901 159.471 69.0927 189.382L57.3654 195.784C52.0262 198.651 49.1658 204.672 50.2146 210.597L60.8931 270.706C61.9419 276.822 66.8998 281.409 73.0018 282.173L90.9263 284.371C100.651 294.883 112.951 303.102 127.157 309.122C146.226 317.245 168.632 321.545 192.754 322.214C195.137 322.31 197.616 322.31 200 322.31C218.401 322.31 235.944 320.303 251.962 316.194C272.938 310.747 291.244 301.573 305.069 288.385C306.69 286.856 308.311 285.231 309.836 283.511L326.712 281.887C333.005 281.313 338.058 276.631 339.202 270.323L349.785 210.501C350.834 204.672 347.974 198.651 342.634 195.784Z" fill="url(#paint0_linear_522_89)"/>
<path d="M199.999 289.531C168.154 289.531 142.03 282.938 124.486 270.419C107.42 258.282 99.125 240.603 99.125 216.426C99.125 160.617 144.413 115.225 200.094 115.225C255.775 115.225 301.063 160.617 301.063 216.426C301.063 240.603 292.768 258.187 275.702 270.419C257.968 282.938 231.843 289.531 199.999 289.531Z" fill="white"/>
<path d="M199.999 266.215C180.168 266.215 161.766 254.556 153.09 236.59L169.108 228.946C174.924 240.986 186.746 248.536 199.999 248.536C213.252 248.536 225.17 241.082 230.891 228.946L246.908 236.59C238.232 254.556 219.831 266.215 199.999 266.215Z" fill="black"/>
<defs>
<linearGradient id="paint0_linear_522_89" x1="127.235" y1="301.425" x2="291.59" y2="122.907" gradientUnits="userSpaceOnUse">
<stop stop-color="#E74694"/>
<stop offset="0.572917" stop-color="#6C2BD9"/>
<stop offset="1" stop-color="#00F0FF"/>
</linearGradient>
</defs>
</svg>
