<svg width="322" height="400" viewBox="0 0 322 400" fill="none" xmlns="http://www.w3.org/2000/svg">
<path fill-rule="evenodd" clip-rule="evenodd" d="M317.153 192.751C317.153 272.001 247.242 336.246 161.002 336.246C74.7628 336.246 4.85156 272.001 4.85156 192.751C4.85156 113.5 74.7628 49.2538 161.002 49.2538C247.242 49.2538 317.153 113.5 317.153 192.751Z" fill="#D33833"/>
<path d="M11.2157 228.289C11.2157 228.289 -0.0885127 78.6476 153.387 74.3715L142.68 58.3385L59.3996 83.4575L35.6046 108.041L14.7849 143.849L2.88672 185.535L6.45589 213.325" fill="#EF3D3A"/>
<path d="M54.0521 94.8608C26.6551 120.046 9.7016 154.818 9.7016 193.286C9.7016 231.746 26.6551 266.523 54.0521 291.704C81.4622 316.884 119.237 332.421 161 332.421C202.763 332.421 240.541 316.884 267.948 291.704C295.344 266.523 312.301 231.746 312.301 193.286C312.301 154.818 295.344 120.046 267.948 94.8608C240.541 69.6857 202.763 54.1481 161 54.1448C119.237 54.1481 81.4622 69.6857 54.0521 94.8608ZM47.1172 297.795C18.0006 271.042 0 234.07 0 193.286C0 152.497 18.0006 115.527 47.1172 88.7731C76.227 62.0139 116.522 45.4277 161 45.4325C205.477 45.4277 245.777 62.0139 274.882 88.7731C304.001 115.527 322.004 152.5 322 193.286C322.004 234.07 304.001 271.042 274.882 297.795C245.777 324.553 205.477 341.137 161 341.137C116.522 341.137 76.227 324.553 47.1172 297.795Z" fill="#231F20"/>
<path fill-rule="evenodd" clip-rule="evenodd" d="M226.734 193.545L202.938 196.752L170.815 199.958L149.994 200.492L129.77 199.958L114.303 195.682L100.621 182.322L89.9131 155.066L87.5338 149.186L73.2572 144.912L64.9289 132.619L58.9805 114.983L65.5249 99.4838L80.9901 94.6739L93.4822 100.019L99.432 111.776L106.57 110.707L108.949 108.036L106.57 95.7433L105.974 80.2441L109.544 58.8672L109.404 46.6564L120.251 31.0771L139.287 18.7845L172.6 5.95808L209.481 10.768L241.603 31.611L256.476 52.9879L265.993 68.4871L268.372 106.966L261.234 140.102L248.147 169.495L235.655 184.995" fill="#F0D6B7"/>
<path fill-rule="evenodd" clip-rule="evenodd" d="M206.507 286L121.441 289.207V302.033L128.579 346.926L125.01 350.668L65.5246 332.496L61.3594 326.083L55.411 265.693L41.7311 229.351L38.7559 220.8L86.3436 191.407L101.216 186.061L114.302 200.491L125.605 209.577L138.693 213.317L144.64 214.921L151.779 242.711L157.132 248.59L170.815 244.314L161.296 260.883L213.05 282.794L206.507 286Z" fill="#335061"/>
<path fill-rule="evenodd" clip-rule="evenodd" d="M65.5252 99.4848L80.9904 94.6749L93.4825 100.02L99.4323 111.777L106.571 110.708L108.355 104.295L104.786 92.0038L108.355 62.6087L105.38 46.5757L116.087 35.3525L139.287 18.7855L132.743 10.769L100.026 25.1987L86.3441 34.8186L78.6112 49.7823L66.7137 64.212L63.1445 81.3145L65.5252 99.4848Z" fill="#6D6B6D"/>
<path fill-rule="evenodd" clip-rule="evenodd" d="M89.9131 49.247C89.9131 49.247 98.836 29.4734 134.528 19.8536C170.219 10.2337 136.312 12.9048 136.312 12.9048L97.6475 26.2668L82.7747 39.6271L76.2324 50.3164L89.9131 49.247Z" fill="#DCD9D8"/>
<path fill-rule="evenodd" clip-rule="evenodd" d="M72.0675 95.7438C72.0675 95.7438 59.5754 58.3323 107.165 52.9885L105.38 46.5752L72.6635 53.524L63.1445 81.3141L65.5252 99.4844L72.0675 95.7438Z" fill="#DCD9D8"/>
<path fill-rule="evenodd" clip-rule="evenodd" d="M91.1016 145.446L98.8904 138.665C98.8904 138.665 102.406 139.032 103 142.773C103.594 146.515 105.378 180.184 130.957 198.356C133.29 200.014 111.923 195.682 111.923 195.682L92.8861 168.961" fill="#F7E4CD"/>
<path fill-rule="evenodd" clip-rule="evenodd" d="M200.561 135.293C200.561 135.293 201.947 119.093 206.803 120.339C211.659 121.585 211.659 125.947 211.659 125.947C211.659 125.947 199.867 132.801 200.561 135.293Z" fill="#F7E4CD"/>
<path d="M249.931 75.9701C249.931 75.9701 240.127 77.8299 239.224 85.5899C238.321 93.3515 249.931 87.1932 251.716 86.6593" fill="#F7E4CD"/>
<path d="M177.953 76.506C177.953 76.506 164.865 78.1093 164.865 85.5903C164.865 93.0729 179.738 92.539 183.902 89.3324" fill="#F7E4CD"/>
<path fill-rule="evenodd" clip-rule="evenodd" d="M97.0516 111.242C97.0516 111.242 74.4459 98.9499 72.0674 110.709C69.6881 122.466 64.333 131.018 75.6365 143.309L67.9036 141.171L60.7652 124.604L58.3867 108.571L72.0674 95.7433L87.534 96.8127L96.4569 103.226L97.0516 111.242Z" fill="#F7E4CD"/>
<path fill-rule="evenodd" clip-rule="evenodd" d="M107.759 77.5742C107.759 77.5742 117.872 30.5444 169.031 21.4585C211.149 13.979 233.274 23.0618 241.603 31.6122C241.603 31.6122 204.127 -8.46887 168.435 3.82208C132.743 16.1146 106.57 38.5609 107.164 52.9891C108.177 77.5646 107.759 77.5742 107.759 77.5742Z" fill="#F7E4CD"/>
<path fill-rule="evenodd" clip-rule="evenodd" d="M245.768 36.9535C245.768 36.9535 228.518 36.4196 227.922 50.3154C227.922 50.3154 227.92 52.4526 229.11 54.5898C229.11 54.5898 242.795 40.694 251.121 48.1766" fill="#F7E4CD"/>
<path fill-rule="evenodd" clip-rule="evenodd" d="M170.23 56.0402C170.23 56.0402 167.26 34.7114 147.02 47.1114C133.933 55.1279 135.124 66.3511 137.502 68.4883C139.881 70.6271 139.234 74.932 141.046 71.9771C142.856 69.0222 142.26 59.4024 148.804 56.7313C155.348 54.0585 166.075 51.0732 170.23 56.0402Z" fill="#F7E4CD"/>
<path fill-rule="evenodd" clip-rule="evenodd" d="M114.302 200.492L58.3863 222.939C58.3863 222.939 81.5859 305.777 69.6877 331.43L61.3594 328.759L60.7648 297.226L45.3003 237.37L38.7559 220.801L97.0511 185.53L114.302 200.492Z" fill="#49728B"/>
<path fill-rule="evenodd" clip-rule="evenodd" d="M120.052 246.312L127.985 255.008V287.074H118.466C118.466 287.074 117.277 264.628 117.277 261.955C117.277 259.282 118.466 249.663 118.466 249.663" fill="#49728B"/>
<path fill-rule="evenodd" clip-rule="evenodd" d="M120.251 291.883L93.4824 292.951L101.217 297.761L120.251 300.434" fill="#49728B"/>
<path fill-rule="evenodd" clip-rule="evenodd" d="M211.861 286.538L233.871 286.004L239.224 335.173L216.619 337.844L211.861 286.538Z" fill="#335061"/>
<path fill-rule="evenodd" clip-rule="evenodd" d="M217.809 286.539L251.121 284.936C251.121 284.936 264.802 253.939 264.802 252.335C264.802 250.732 276.7 207.443 276.7 207.443L249.931 182.326L244.577 178.05L230.301 190.876V240.579L217.809 286.539Z" fill="#335061"/>
<path fill-rule="evenodd" clip-rule="evenodd" d="M232.68 282.797L211.861 286.538L214.834 301.503C222.567 304.71 235.655 296.158 235.655 296.158" fill="#49728B"/>
<path fill-rule="evenodd" clip-rule="evenodd" d="M233.275 189.272L274.915 217.062L276.105 204.236L244.577 178.049L233.275 189.272Z" fill="#49728B"/>
<path fill-rule="evenodd" clip-rule="evenodd" d="M140.894 391.828L128.578 346.929L122.452 313.8L121.439 289.21L177.181 286.544L211.86 286.539L208.706 342.659L214.06 385.949L213.466 393.965L168.258 397.172L140.894 391.828Z" fill="white"/>
<path fill-rule="evenodd" clip-rule="evenodd" d="M204.126 286.001C204.126 286.001 201.153 341.583 210.076 381.131C210.076 381.131 192.23 391.286 166.055 393.957L216.024 392.354L221.972 389.147L214.833 301.501L213.049 282.793" fill="#DCD9D8"/>
<path fill-rule="evenodd" clip-rule="evenodd" d="M240.237 330.902L263.436 325.023L307.455 322.886L313.999 304.716L302.101 273.183L288.42 271.58L269.384 276.924L251.121 284.936L241.425 283.337L233.869 286.005" fill="white"/>
<path fill-rule="evenodd" clip-rule="evenodd" d="M239.818 320.207C239.818 320.207 255.284 313.795 257.664 314.329L251.122 284.934L258.855 282.263C258.855 282.263 264.208 310.052 264.208 313.259C264.208 313.259 297.519 314.862 300.494 314.862C300.494 314.862 307.633 302.57 305.848 289.744L312.392 306.846L312.986 316.466L303.469 329.292L292.762 331.43L274.916 330.895L268.968 323.949L248.147 326.62L241.603 328.759" fill="#DCD9D8"/>
<path d="M216.443 282.27L203.356 252.34L189.674 234.704C189.674 234.704 192.647 227.221 196.812 227.221C200.977 227.221 210.495 227.221 210.495 227.221L223.581 231.497L222.392 251.271L216.443 282.27Z" fill="white"/>
<path fill-rule="evenodd" clip-rule="evenodd" d="M218.998 272.108C218.998 272.108 202.341 243.249 202.341 238.974C202.341 238.974 205.314 232.561 209.479 234.164C213.644 235.767 222.567 240.042 222.567 240.042V229.888L202.341 226.146L188.66 227.749L211.86 276.918L216.617 277.453" fill="#DCD9D8"/>
<path d="M146.25 201.57L129.77 199.96L114.303 195.684V200.494L121.86 207.982L145.654 217.602" fill="white"/>
<path fill-rule="evenodd" clip-rule="evenodd" d="M119.658 203.17C119.658 203.17 138.1 210.118 144.048 208.515L144.64 214.922L127.987 211.722L117.873 205.308L119.658 203.17Z" fill="#DCD9D8"/>
<path fill-rule="evenodd" clip-rule="evenodd" d="M240.173 229.039C230.079 228.773 220.96 227.695 212.976 225.672C213.518 222.732 212.503 219.846 213.319 217.728C215.544 216.288 219.274 216.31 222.638 215.972C219.729 214.688 215.642 214.18 212.285 214.922C212.207 212.881 211.188 211.616 210.57 210.019C216.245 208.199 229.642 196.269 237.178 200.22C240.769 202.099 242.295 212.831 242.573 218.05C242.805 222.379 242.136 226.746 240.173 229.039Z" fill="#D33833"/>
<path d="M240.173 229.039C230.079 228.773 220.96 227.695 212.976 225.672C213.518 222.732 212.503 219.846 213.319 217.728C215.544 216.288 219.274 216.31 222.638 215.972C219.729 214.688 215.642 214.18 212.285 214.922C212.207 212.881 211.188 211.616 210.57 210.019C216.245 208.199 229.642 196.269 237.178 200.22C240.769 202.099 242.295 212.831 242.573 218.05C242.805 222.379 242.136 226.746 240.173 229.039Z" stroke="#D33833" stroke-width="2.5"/>
<path fill-rule="evenodd" clip-rule="evenodd" d="M191.906 214.216C191.879 214.902 191.847 215.593 191.817 216.286C188.665 218.146 183.577 218.123 180.119 219.687C185.217 219.887 189.231 220.99 192.704 222.545C192.627 224.274 192.554 226 192.479 227.729C186.702 231.282 181.425 236.573 174.624 239.904C171.408 241.48 160.122 245.535 156.7 244.818C154.765 244.414 154.59 242.256 153.816 240.222C152.168 235.866 148.372 228.931 148.041 222.374C147.619 214.091 146.689 200.21 156.624 201.916C164.639 203.29 173.961 206.607 180.167 209.653C183.959 211.516 186.152 213.818 191.906 214.216Z" fill="#D33833"/>
<path d="M191.906 214.216C191.879 214.902 191.847 215.593 191.817 216.286C188.665 218.146 183.577 218.123 180.119 219.687C185.217 219.887 189.231 220.99 192.704 222.545C192.627 224.274 192.554 226 192.479 227.729C186.702 231.282 181.425 236.573 174.624 239.904C171.408 241.48 160.122 245.535 156.7 244.818C154.765 244.414 154.59 242.256 153.816 240.222C152.168 235.866 148.372 228.931 148.041 222.374C147.619 214.091 146.689 200.21 156.624 201.916C164.639 203.29 173.961 206.607 180.167 209.653C183.959 211.516 186.152 213.818 191.906 214.216Z" stroke="#D33833" stroke-width="2.5"/>
<path fill-rule="evenodd" clip-rule="evenodd" d="M197.642 224.096C196.761 219.584 195.742 218.297 196.136 214.361C209.529 206.338 212.044 228.141 197.642 224.096Z" fill="#D33833"/>
<path d="M197.642 224.096C196.761 219.584 195.742 218.297 196.136 214.361C209.529 206.338 212.044 228.141 197.642 224.096Z" stroke="#D33833" stroke-width="2.5"/>
<path fill-rule="evenodd" clip-rule="evenodd" d="M217.036 227.754C217.036 227.754 212.87 222.408 215.845 220.805C218.82 219.202 221.795 220.807 223.58 218.134C225.364 215.461 223.58 213.858 224.174 210.651C224.768 207.445 227.745 206.909 230.718 206.375C233.691 205.842 242.022 204.772 243.21 207.445L239.641 197.825L232.503 195.688L209.897 207.445L208.707 213.324V225.081" fill="#EF3D3A"/>
<path fill-rule="evenodd" clip-rule="evenodd" d="M154.576 245.391C153.862 237.05 153.105 228.721 152.264 220.388C151.005 207.947 155.59 210.118 167.594 210.118C169.428 210.118 178.884 212.082 179.56 213.324C182.804 219.277 174.135 217.955 183.297 222.444C191.031 226.233 204.694 220.143 201.569 211.721C199.82 209.848 192.457 211.137 189.818 209.908C185.171 207.743 180.524 205.579 175.876 203.414C169.963 200.658 156.298 196.64 149.994 200.491C134.021 210.251 151.002 234.635 156.7 244.816" fill="#EF3D3A"/>
<path fill-rule="evenodd" clip-rule="evenodd" d="M170.23 56.0397C154.017 52.6471 145.96 62.1355 141.046 71.9766C136.657 71.021 138.404 65.6595 139.512 62.9275C142.414 55.7575 154.109 46.213 163.665 47.5069C167.778 48.0632 173.342 51.4414 170.23 56.0397Z" fill="#231F20"/>
<path fill-rule="evenodd" clip-rule="evenodd" d="M249.226 72.6272C249.481 72.6368 249.74 72.6449 249.995 72.6545C253.659 79.4926 256.83 86.7363 261.452 92.7728C258.356 99.2518 238.006 104.985 238.32 93.3516C242.721 91.6232 250.318 92.9989 254.219 90.7911C251.963 85.2292 248.708 80.4947 249.226 72.6272Z" fill="#231F20"/>
<path fill-rule="evenodd" clip-rule="evenodd" d="M178.529 72.8035C182.006 78.5289 183.137 84.5445 188.079 88.8718C190.304 90.8198 194.632 93.1943 192.486 98.6119C191.985 99.8897 188.321 102.739 186.206 103.298C178.481 105.347 160.48 103.722 166.576 95.0686C172.965 95.3363 181.552 98.7963 186.328 94.6293C182.661 89.3624 176.123 78.9425 178.529 72.8035Z" fill="#231F20"/>
<path fill-rule="evenodd" clip-rule="evenodd" d="M246.326 130.995C234.694 137.708 221.724 145.008 202.665 143.315C198.592 140.134 197.04 133.055 200.996 128.38C203.055 131.561 201.762 137.411 207.501 138.292C218.315 139.954 230.902 132.348 238.681 129.69C243.505 122.384 238.265 119.696 233.92 114.994C225.024 105.36 213.09 93.4182 213.524 78.9949C217.12 76.6524 217.43 82.5703 217.946 83.6477C222.591 93.415 234.282 105.906 242.814 114.266C244.909 116.325 248.359 118.3 248.743 119.661C249.849 123.62 245.864 128.362 246.326 130.995Z" fill="#231F20"/>
<path fill-rule="evenodd" clip-rule="evenodd" d="M92.9808 123.928C89.3348 122.059 88.467 113.824 84.1867 113.59C78.0696 113.256 79.185 124.273 79.2095 130.715C74.9989 127.281 74.2585 116.707 77.3517 111.276C73.8264 109.721 72.2522 112.992 70.2969 114.145C72.8099 97.7428 97.003 106.537 92.9808 123.928Z" fill="#231F20"/>
<path fill-rule="evenodd" clip-rule="evenodd" d="M253.732 137.825C248.318 147.084 240.658 157.282 224.77 157.578C224.447 154.588 224.199 150.038 224.788 148.237C236.934 147.189 244.433 141.635 253.732 137.825Z" fill="#231F20"/>
<path fill-rule="evenodd" clip-rule="evenodd" d="M177.613 143.83C187.747 148.617 206.371 149.132 220.144 148.769C220.883 151.481 220.865 154.83 220.894 158.136C203.189 158.93 182.256 154.993 177.613 143.83Z" fill="#231F20"/>
<path fill-rule="evenodd" clip-rule="evenodd" d="M175.688 152.756C182.695 168.563 206.78 166.743 227.09 166.307C226.196 168.359 224.258 170.784 221.849 171.661C215.341 174.04 197.39 175.845 188.354 171.534C182.624 168.797 178.942 162.613 175.803 158.988C174.286 157.237 166.737 152.766 175.688 152.756Z" fill="#231F20"/>
<path fill-rule="evenodd" clip-rule="evenodd" d="M245.481 239.947C237.257 252.6 229.389 265.597 219.633 276.758C223.723 265.953 225.474 247.869 226.091 234.082C234.648 230.484 241.976 234.892 245.481 239.947Z" fill="#81B0C4"/>
<path fill-rule="evenodd" clip-rule="evenodd" d="M289.732 285.426C280.525 287.082 274.056 295.121 265.074 294.605C270.01 288.353 278.66 285.718 289.732 285.426Z" fill="#231F20"/>
<path fill-rule="evenodd" clip-rule="evenodd" d="M293.793 298.373C286.289 299.085 277.475 300.177 269.863 299.614C273.466 294.67 287.349 296.376 293.793 298.373Z" fill="#231F20"/>
<path fill-rule="evenodd" clip-rule="evenodd" d="M296.394 309.532C287.96 309.696 277.477 309.545 269.461 308.941C274.203 304.365 290.924 307.243 296.394 309.532Z" fill="#231F20"/>
<path fill-rule="evenodd" clip-rule="evenodd" d="M229.612 340.073C230.822 349.589 235.021 359.23 234.494 369.652C229.831 371.065 227.153 372.3 220.905 372.293C220.464 363.436 219.145 349.896 219.539 341.453C222.613 341.636 227.144 339.481 229.612 340.073Z" fill="#DCD9D8"/>
<path fill-rule="evenodd" clip-rule="evenodd" d="M216.015 199.83C211.78 202.314 208.173 205.414 204.106 208.066C195.087 208.467 190.165 207.505 183.539 202.852C183.648 202.479 184.314 202.646 184.339 202.187C193.993 206.053 206.266 200.613 216.015 199.83Z" fill="#F0D6B7"/>
<path fill-rule="evenodd" clip-rule="evenodd" d="M165.332 258.953C167.985 248.627 178.378 243.278 187.817 237.591C197.559 248.699 203.484 262.984 210.008 276.77C194.593 272.595 178.842 265.821 165.332 258.953Z" fill="#81B0C4"/>
<path fill-rule="evenodd" clip-rule="evenodd" d="M219.54 341.453C219.146 349.896 220.465 363.436 220.906 372.293C227.153 372.301 229.832 371.065 234.495 369.652C235.022 359.231 230.822 349.589 229.613 340.073C227.144 339.481 222.613 341.636 219.54 341.453ZM122.255 293.436C126.375 327.463 132.342 356.067 143.287 386.199C167.577 392.825 196.86 393.402 218.33 387.423C214.388 370.417 216.11 349.712 213.806 331.564C212.07 317.924 212.955 304.199 210.575 290.282C184.559 285.42 147.787 289.145 122.255 293.436ZM216.726 290.496C216.507 305.11 217.454 319.525 218.696 334.157C224.942 333.315 229.181 332.752 234.984 331.609C233.1 317.523 233.332 301.672 229.493 289.211C225.056 289.249 221.15 289.165 216.726 290.496ZM248.411 288.14C245.447 287.53 241.996 288.116 239.164 288.166C240.495 300.079 243.725 313.224 244.862 325.728C249.318 325.853 251.699 323.965 255.364 323.33C255.56 312.353 254.297 297.231 248.411 288.14ZM296.388 327.522C305.677 325.495 311.518 315.274 308.92 304.778C307.176 297.723 304.071 284.439 300.748 279.926C298.292 276.588 291.634 272.218 286.318 275.277C277.67 280.252 262.435 281.696 256.128 287.719C259.29 297.178 260.272 310.171 261.576 322.157C272.38 322.762 285.674 319.486 294.659 322.963C288.386 324.788 280.247 324.803 274.827 327.463C279.256 329.385 289.626 328.997 296.388 327.522ZM210.009 276.771C203.484 262.986 197.56 248.701 187.818 237.593C178.379 243.28 167.985 248.628 165.333 258.955C178.843 265.822 194.594 272.596 210.009 276.771ZM226.092 234.083C225.474 247.87 223.723 265.954 219.633 276.759C229.389 265.598 237.258 252.601 245.481 239.948C241.976 234.893 234.649 230.485 226.092 234.083ZM207.86 228.263C204.164 227.906 201.027 232.081 196.221 230.275C195.12 231.369 194.119 232.554 192.996 233.621C203.611 245.114 208.435 261.419 216.633 274.925C221.032 261.952 220.525 247.738 221.494 233.578C215.45 233.923 212.097 228.667 207.86 228.263ZM196.137 214.362C195.743 218.299 196.762 219.586 197.643 224.098C212.045 228.143 209.531 206.339 196.137 214.362ZM180.167 209.652C173.961 206.606 164.639 203.288 156.624 201.914C146.689 200.207 147.619 214.09 148.041 222.373C148.372 228.93 152.168 235.864 153.817 240.221C154.59 242.255 154.765 244.413 156.7 244.817C160.122 245.534 171.408 241.479 174.624 239.903C181.425 236.571 186.702 231.28 192.479 227.728C192.554 225.999 192.627 224.272 192.704 222.544C189.231 220.989 185.217 219.886 180.119 219.685C183.577 218.122 188.665 218.145 191.817 216.285C191.847 215.592 191.879 214.901 191.906 214.215C186.153 213.817 183.959 211.515 180.167 209.652ZM120.894 199.979C115.744 204.677 135.34 211.08 141.579 211.425C141.544 208.453 143.464 205.65 143.078 203.518C135.667 202.349 125.929 203.12 120.894 199.979ZM184.339 202.185C184.314 202.644 183.649 202.477 183.54 202.851C190.166 207.503 195.088 208.465 204.107 208.065C208.174 205.413 211.781 202.312 216.016 199.828C206.267 200.611 193.994 206.051 184.339 202.185ZM242.574 218.05C242.296 212.831 240.77 202.099 237.179 200.22C229.643 196.267 216.246 208.199 210.571 210.019C211.188 211.616 212.207 212.881 212.286 214.922C215.643 214.18 219.729 214.688 222.638 215.972C219.274 216.31 215.545 216.288 213.319 217.728C212.504 219.846 213.519 222.732 212.977 225.672C220.961 227.695 230.08 228.773 240.174 229.039C242.137 226.746 242.806 222.379 242.574 218.05ZM112.224 204.523C110.607 203.487 99.6656 190.698 98.1667 191.228C78.369 198.243 59.8573 210.372 43.3151 221.843C59.0871 252.249 65.4538 289.5 66.5788 325.404C84.6463 332.996 100.516 343.94 125.033 345.083C122.196 327.049 119.606 310.96 117.996 293.981C111.836 291.648 102.998 294.087 97.2326 293.258C97.1837 287.016 106.037 290.524 106.774 286.327C107.33 283.152 101.903 282.912 103.67 277.913C108.177 279.385 110.544 282.636 115.35 283.856C119.742 275.224 115.289 259.951 115.922 252.736C116.042 251.381 116.675 245.231 120.052 246.31C123.042 247.265 119.882 262.667 120.209 269.495C120.508 275.787 119.363 281.874 122.199 285.824C145.89 282.926 169.965 281.054 195.598 280.422C189.959 278.248 183.26 276.191 175.915 272.471C171.933 270.454 159.382 266.258 158.233 262.861C156.399 257.446 163.043 254.562 164.179 249.921C152.22 255.78 149.887 244.304 147.058 236.174C144.495 228.81 143.036 223.309 142.407 219.062C132.105 214.649 121.091 210.181 112.224 204.523ZM232.111 192.775C248.606 185.589 251.579 219.632 245.113 230.599C246.113 233.87 249.55 235.122 250.953 238.062C241.748 252.877 231.524 266.705 222.132 281.346C229.118 277.438 239.098 280.647 247.319 277.722C250.324 276.654 252.5 270.473 254.775 265.529C261.034 251.925 267.605 234.774 270.528 221.792C271.188 218.834 272.987 212.389 272.584 209.756C271.864 205.042 264.746 201.547 261.125 198.632C254.454 193.248 250.253 188.511 243.295 183.476C240.474 187.218 234.418 189.732 232.111 192.775ZM74.5001 61.3556C66.6402 69.1252 68.2854 83.6832 69.237 94.0406C83.4439 86.0112 102.301 94.6755 102.123 108.332C108.906 108.171 104.657 100.722 103.43 95.9229C99.4202 80.2489 110.185 63.2202 103.918 48.8866C91.7499 49.7156 81.7533 54.1808 74.5001 61.3556ZM130.739 16.2609C112.945 20.7919 90.1409 32.4079 82.8291 46.7687C88.4909 46.0296 92.4212 43.4643 98.0064 43.1468C100.117 43.0233 102.883 43.9421 105.309 43.4001C110.143 42.3227 114.223 32.5842 117.87 28.9607C121.426 25.4222 125.699 23.9103 128.623 20.6845C130.502 19.87 133.28 19.9261 133.387 17.3913C132.572 16.6089 131.715 16.0124 130.739 16.2609ZM223.365 20.5225C204.896 11.1608 173.635 4.11909 153.989 12.918C138.137 20.0191 116.71 31.7681 109.404 46.6564C116.229 61.0237 107.382 74.1884 106.818 88.7753C106.518 96.5369 110.885 103.313 111.22 111.762C108.885 115.223 101.75 115.65 96.8108 115.413C95.1483 107.938 92.2378 99.5367 83.6705 98.6934C71.5478 97.5021 62.6841 106.516 62.1334 115.935C61.4817 127.013 71.6035 145.372 85.95 144.097C91.492 143.605 92.8534 138.614 98.8918 138.665C102.165 144.532 93.8434 146.374 92.9873 150.57C92.7642 151.654 93.6774 155.89 94.2085 157.876C96.8143 167.549 102.623 180.068 108.341 187.432C115.598 196.773 129.855 198.18 145.193 199.096C147.933 193.794 158.025 194.23 164.601 195.617C156.72 192.812 149.393 186.014 143.322 179.997C136.347 173.093 129.282 165.688 128.925 156.664C142.105 173.092 152.994 187.438 176.96 194.664C195.095 200.128 216.275 192.16 230.209 183.369C235.991 179.715 239.442 173.917 243.552 168.61C258.93 148.737 266.106 120.372 264.528 92.8782C263.878 81.5396 263.907 70.2395 259.672 62.611C255.246 54.6345 240.277 47.4982 231.515 54.7131C229.891 46.9563 238.801 42.1592 249.268 44.9505C241.805 36.2975 233.972 25.9 223.365 20.5225ZM257.773 276.358C272.205 269.912 299.17 259.008 308.218 276.382C311.557 282.785 315.474 293.611 317.204 300.221C319.647 309.548 314.555 329.15 303.885 332.279C294.461 335.043 283.464 334.875 272.112 332.826C270.776 331.827 269.287 330.086 268.247 328.271C260.141 327.989 252.552 328.662 246.148 331.656C246.755 337.041 242.701 337.905 238.9 339.015C236.082 349.053 244.537 362.162 242.513 371.315C241.07 377.836 232.14 378.844 225.576 380.064C225.362 383.688 225.863 386.713 226.311 389.779C224.81 394.747 218.079 397.575 211.701 398.268C190.716 400.535 158.853 401.554 138.668 395.033C133.036 382.62 128.599 367.523 123.907 353.35C104.221 355.239 88.2992 345.718 73.2892 339.481C68.0923 337.317 60.9031 336.124 58.9617 332.408C57.0795 328.81 57.8497 321.914 57.3827 315.4C56.1941 298.762 55.1764 282.715 50.2861 265.679C48.0903 258.035 44.2631 251.29 41.5932 243.924C39.1255 237.097 34.8139 228.661 33.6894 221.853C32.0221 211.763 42.597 211.202 49.359 206.83C59.812 200.069 68.017 196.33 79.3379 190.228C82.6909 188.421 92.8026 183.847 93.9528 181.74C96.2392 177.563 90.0281 171.674 88.3675 168.4C85.7408 163.223 84.371 158.825 83.9946 153.717C74.4979 152.369 67.2989 147.291 62.9504 141.566C55.7571 132.09 50.7684 114.56 56.9922 101.225C57.4803 100.175 59.9145 98.1098 60.2735 96.4968C60.9818 93.3207 58.9406 89.0976 58.8137 85.7194C58.1598 68.3877 62.0777 53.4545 75.0647 48.2277C80.3369 29.3583 99.2067 23.0846 116.985 13.7069C123.631 10.202 130.956 7.96222 138.522 5.46106C165.662 -3.51266 207.303 -1.82276 229.828 13.4824C239.38 19.9726 254.647 33.6761 260.108 43.5973C274.531 69.7906 273.506 113.566 263.418 145.428C262.062 149.706 260.095 155.994 257.349 161.133C255.434 164.721 249.482 171.9 250.205 175.069C250.949 178.344 263.775 187.093 266.525 189.476C271.477 193.768 280.885 199.464 281.647 204.88C282.467 210.644 278.821 218.529 276.974 224.091C270.799 242.653 264.774 259.81 257.773 276.358Z" fill="#231F20"/>
<path fill-rule="evenodd" clip-rule="evenodd" d="M161.488 147.87C162.271 146.934 166.576 145.512 172.599 148.117C172.599 148.117 165.46 149.186 166.054 159.879L163.08 159.343C163.08 159.343 160.005 149.648 161.488 147.87Z" fill="#F7E4CD"/>
<path fill-rule="evenodd" clip-rule="evenodd" d="M213.646 239.776C213.646 241.399 212.18 242.715 210.373 242.715C208.567 242.715 207.102 241.399 207.102 239.776C207.102 238.154 208.567 236.836 210.373 236.836C212.18 236.836 213.646 238.154 213.646 239.776Z" fill="#1D1919"/>
<path fill-rule="evenodd" clip-rule="evenodd" d="M216.917 253.401C216.917 255.024 215.452 256.34 213.644 256.34C211.838 256.34 210.373 255.024 210.373 253.401C210.373 251.779 211.838 250.461 213.644 250.461C215.452 250.461 216.917 251.779 216.917 253.401Z" fill="#1D1919"/>
</svg>
