<svg width="400" height="400" viewBox="0 0 400 400" fill="none" xmlns="http://www.w3.org/2000/svg">
<path d="M200 0C89.5448 0 0 89.5448 0 200C0 310.459 89.5448 400 200 400C310.455 400 400 310.459 400 200C400 89.5448 310.455 0 200 0ZM299.996 115.572C285.763 144.568 274.553 175.278 264.658 202.373C256.76 223.997 249.3 244.423 241.539 260.518L241.485 260.491C222.38 303.076 181.467 323.826 147.716 323.826C145.106 323.826 142.542 323.704 140.031 323.456C113.019 320.788 93.7231 304.674 88.4115 280.353C84.5385 262.605 89.022 245.702 101.374 231.465C122.86 206.708 166.467 192.529 221.208 191.693C217.877 200.714 214.542 209.65 211.302 218.121C163.121 220.433 133.541 234.285 121.12 248.602C114.195 256.58 111.852 265.143 113.954 274.778C117.804 292.41 133.552 296.543 142.595 297.436C167.818 299.928 202.801 283.787 217.995 248.979L218.064 249.01C220.33 244.309 222.597 239.104 224.883 233.548L224.951 233.575C225.573 231.984 226.207 230.354 226.836 228.721C228.244 225.188 229.656 221.555 231.079 217.801C231.057 217.801 231.03 217.801 231.003 217.801C234.186 209.383 237.417 200.652 240.627 191.941H240.638C241.252 190.258 241.882 188.534 242.508 186.824C242.897 185.763 243.29 184.703 243.675 183.646C251.139 163.311 259.4 141.382 269.211 119.621C225.096 113.13 190.922 120.971 178.529 133.373C173.618 138.287 173.732 142.344 174.385 145.328C174.827 147.358 176.174 153.524 185.531 154.451C197.321 155.607 214.073 147.148 221.922 129.168L245.881 139.619C232.354 170.607 203.774 182.52 182.963 180.459C165.521 178.742 152.448 167.413 148.842 150.902C145.976 137.769 149.952 124.982 160.034 114.889C183.13 91.7656 234.556 84.7598 291.037 97.0351L307.353 100.584L299.996 115.572Z" fill="#EE3071"/>
</svg>
