<svg width="400" height="400" viewBox="0 0 400 400" fill="none" xmlns="http://www.w3.org/2000/svg">
<path d="M338.382 49H192.85C192.85 85.1727 222.293 114.616 258.465 114.616H285.384V140.273C285.384 176.446 314.827 205.889 351 205.889V61.6184C351 54.468 345.111 49 338.382 49Z" fill="#0082FF"/>
<path d="M266.457 121.345H120.925C120.925 157.518 150.368 186.961 186.54 186.961H213.46V213.039C213.46 249.211 242.903 278.654 279.075 278.654V134.384C279.075 127.234 273.187 121.345 266.457 121.345Z" fill="url(#paint0_linear_333_32)"/>
<path d="M194.532 193.69H49C49 229.863 78.4429 259.306 114.616 259.306H141.114V284.963C141.114 321.136 170.557 350.579 206.73 350.579V205.888C207.15 199.579 201.262 193.69 194.532 193.69Z" fill="url(#paint1_linear_333_32)"/>
<defs>
<linearGradient id="paint0_linear_333_32" x1="275.847" y1="121.651" x2="213.975" y2="185.458" gradientUnits="userSpaceOnUse">
<stop offset="0.18" stop-color="#0050D3"/>
<stop offset="1" stop-color="#0082FF"/>
</linearGradient>
<linearGradient id="paint1_linear_333_32" x1="207.981" y1="194.521" x2="136.434" y2="264.132" gradientUnits="userSpaceOnUse">
<stop offset="0.18" stop-color="#0050D3"/>
<stop offset="1" stop-color="#0082FF"/>
</linearGradient>
</defs>
</svg>
