<svg width="400" height="400" viewBox="0 0 400 400" fill="none" xmlns="http://www.w3.org/2000/svg">
<path d="M329 201.477C329 194.031 332.848 186.929 342.438 186.929C348.042 186.929 350 190.171 350 192.998V196.307H349.664C348.313 195.754 346.76 195.203 344.397 195.203C340.346 195.203 338.116 197.48 338.116 203.133V224.507H335.618C331.566 224.507 329 222.44 329 218.577V201.477ZM78.0011 207.003C78.0011 195.867 84.4141 186.929 96.4132 186.929C107.586 186.929 114 195.867 114 205.696C114 216.832 107.586 225.7 95.5872 225.7C84.4141 225.7 78.0011 216.832 78.0011 207.003ZM87.5871 205.696C87.5871 213.053 90.2761 217.453 96.4132 217.453C101.793 217.453 104.413 213.053 104.413 207.003C104.413 199.579 101.655 195.179 95.5872 195.179C90.2761 195.179 87.5871 199.579 87.5871 205.696ZM63.295 176.989H66.4641C70.6651 176.989 72.8001 179.179 72.8001 183.356V211.287C72.8001 218.957 68.4601 224.707 58.749 224.707C53.581 224.707 50 222.173 50 219.299V214.984H50.344C51.861 215.876 54.616 216.492 57.44 216.492C61.71 216.492 63.295 214.642 63.295 210.878V176.989ZM119 175H122.173C125.758 175 128.242 177.053 128.242 181.365V192.112C130.103 189.443 133.275 186.499 138.311 186.499C147.759 186.499 155.001 194.165 155.001 205.049C155.001 216.138 147.827 225.104 136.518 225.104C127 225.104 119 217.368 119 206.282V175ZM128.31 204.981C128.31 213.468 131.965 216.959 137.482 216.959C142.104 216.959 145.414 212.577 145.414 206.622C145.414 197.656 142.172 194.644 136.518 194.644C131.827 194.644 128.31 199.231 128.31 204.981ZM180.059 176.989H183.918C187.709 176.989 190.258 179.053 191.568 181.322C195.84 188.958 202.941 209.251 204.801 224.11H200.942C197.012 224.11 194.945 221.84 194.599 219.569C194.187 216.474 193.773 214.066 193.291 212.071H174.475C173.511 216.062 172.684 220.12 171.994 224.11H168.341C165.24 224.11 164 222.458 164 219.569C164 212.76 172.822 185.038 180.059 176.989ZM183.848 185.656C181.091 190.54 178.128 198.038 176.544 204.573H191.154C189.57 197.97 186.331 190.059 183.848 185.656ZM235.169 175H238.016C242.458 175 244.402 177.532 244.402 181.228V207.238C244.402 217.985 239.265 225.104 226.423 225.104C216.567 225.104 209.001 216.617 209.001 206.487C209.001 194.371 214.969 186.499 225.868 186.499C229.616 186.499 233.711 189.101 235.169 192.317V175ZM218.162 204.706C218.162 212.372 222.189 217.368 227.533 217.368C232.739 217.368 235.031 213.536 235.031 206.829C235.031 197.587 230.934 194.234 225.938 194.234C221.217 194.234 218.162 198.751 218.162 204.706ZM276.17 175H279.015C283.457 175 285.401 177.532 285.401 181.228V207.238C285.401 217.985 280.264 225.104 267.423 225.104C257.566 225.104 250.002 216.617 250.002 206.487C250.002 194.371 255.97 186.499 266.867 186.499C270.616 186.499 274.71 189.101 276.17 192.317V175ZM259.163 204.706C259.163 212.372 263.19 217.368 268.534 217.368C273.739 217.368 276.03 213.536 276.03 206.829C276.03 197.587 271.935 194.234 266.937 194.234C262.218 194.234 259.163 198.751 259.163 204.706ZM291.001 207.072C291.001 194.696 298.563 186.929 309.152 186.929C316.85 186.929 324 192.429 324 201.296C324 208.102 318.845 210.301 306.609 210.301H300.558C301.246 214.977 305.507 217.932 310.939 217.932C314.789 217.932 319.326 217.176 322.283 214.427H322.627V217.314C322.627 222.058 319.396 225.7 309.22 225.7C300.008 225.7 291.001 218.415 291.001 207.072ZM300.558 202.533L300.488 203.772H304.614C313.345 203.772 315.34 202.809 315.34 200.197C315.34 196.485 312.59 194.628 308.326 194.628C303.858 194.628 300.764 198.272 300.558 202.533Z" fill="#0069B2"/>
</svg>
