<svg width="370" height="400" viewBox="0 0 370 400" fill="none" xmlns="http://www.w3.org/2000/svg">
<g clip-path="url(#clip0_284_65)">
<path d="M101.421 378.795C108.934 386.506 103.769 399.518 92.9695 399.518H24.4162C10.7995 399.518 0 388.915 0 375.421V307.951C0 297.349 13.1472 292.048 20.6599 299.277L101.421 378.795Z" fill="white"/>
<path d="M208.006 384.58C187.816 364.339 187.816 331.086 208.006 310.845L280.785 237.11C300.976 216.869 333.844 216.869 354.034 237.11C374.224 257.351 374.224 290.604 354.034 310.845L281.255 384.58C261.064 404.821 228.196 404.821 208.006 384.58Z" fill="#FFB21D"/>
<path d="M15.4943 199.519C-4.69603 179.278 -4.69603 146.025 15.4943 125.784L124.898 15.4229C145.088 -4.81805 177.956 -4.81805 198.147 15.4229C218.337 35.6639 218.337 68.9169 198.147 89.1578L88.7431 199.519C68.5527 220.242 35.6847 220.242 15.4943 199.519Z" fill="#0099FF"/>
<path d="M115.506 288.193C95.3157 267.952 95.3157 234.699 115.506 214.458L281.724 46.7471C301.915 26.5062 334.783 26.5062 354.973 46.7471C375.163 66.9881 375.163 100.241 354.973 120.482L188.755 288.193C168.564 308.434 136.166 308.434 115.506 288.193Z" fill="#FF6100"/>
</g>
<defs>
<clipPath id="clip0_284_65">
<rect width="370" height="400" fill="white"/>
</clipPath>
</defs>
</svg>
