<svg width="400" height="400" viewBox="0 0 400 400" fill="none" xmlns="http://www.w3.org/2000/svg">
<g clip-path="url(#clip0_256_99)">
<path fill-rule="evenodd" clip-rule="evenodd" d="M33.3333 198.667C33.3333 202.667 33.6667 207 34 211H83.3333C99.3333 211 115.667 211 130.667 207C152.667 201.333 172.333 188.667 192.667 175.333L193.333 175C200 170 207.333 166.333 215.333 164C225.333 161.333 235.667 160.333 246 160.333H360C356.333 144.667 350.667 129.667 342.333 116H55.3333C41 141 33.3333 169.667 33.3333 198.667ZM324.333 306C265 375.333 160.667 384 91.3333 324.333C84.6667 318.667 78.6667 312.333 73 306H324.333ZM305 234.667C305 250.667 292 263.667 276 263.667C260 263.667 247 250.667 247 234.667C247 218.667 260 205.667 276 205.667C292 205.667 305 219 305 234.667ZM363.333 185H245.667C237.667 184.667 229.333 185.667 222 187.333C216.333 189.333 211.333 192 206.667 195.333L206 195.667C185 209.333 163 223.667 137 230.667C120.667 235 104.333 235.333 88.3333 235.333H83.3333H37.6667C41.3333 251.333 47.3333 266.667 55.6667 281H342C356.667 256 364.333 227.333 364 198.333C364 194.333 363.667 190.333 363.333 186V185ZM91.3333 73C161 13.6667 265 22 324.333 91.3333H73C78.6667 84.6667 84.6667 78.3333 91.3333 73ZM200 400C310.333 400 400 310.333 400 200C400 89.6667 310.333 0 200 0C89.6667 0 0 89.6667 0 200C0 310.333 89.6667 400 200 400Z" fill="#00BFA5"/>
</g>
<defs>
<clipPath id="clip0_256_99">
<rect width="400" height="400" fill="white"/>
</clipPath>
</defs>
</svg>
