<svg width="400" height="400" viewBox="0 0 400 400" fill="none" xmlns="http://www.w3.org/2000/svg">
<path fill-rule="evenodd" clip-rule="evenodd" d="M199.136 339.136V294.971C176.019 294.971 154.783 286.742 138.207 273.055C137.788 272.714 137.395 272.347 136.986 271.996C136.227 271.352 135.463 270.71 134.727 270.043C115.427 252.498 103.29 227.206 103.29 199.132C103.294 152.488 128.584 108.787 199.136 59.1251V103.288C211.743 103.29 223.78 105.763 234.813 110.208C258.473 119.735 277.495 138.415 287.429 161.859C292.285 173.324 294.973 185.917 294.973 199.132C294.973 245.771 269.679 289.472 199.136 339.136ZM0 199.132C0 260.573 27.9786 315.602 71.8588 352.158C73.1786 353.26 74.5155 354.351 75.8674 355.418C76.0021 355.523 76.1326 355.63 76.261 355.739C110.133 382.366 152.811 398.263 199.132 398.267C200.851 398.267 202.558 398.246 204.265 398.201C311.358 395.476 397.696 307.784 398.252 200.171C398.255 199.825 398.267 199.476 398.267 199.127C398.263 89.324 308.93 0 199.132 0C89.3326 0 0 89.3283 0 199.132Z" fill="#0555CA"/>
<path fill-rule="evenodd" clip-rule="evenodd" d="M199.132 294.971C176.015 294.971 154.783 286.742 138.207 273.057C137.788 272.717 137.395 272.349 136.986 271.998C136.227 271.352 135.463 270.71 134.727 270.045C115.427 252.498 103.29 227.206 103.29 199.132C103.294 152.488 128.584 108.789 199.136 59.1273V0C89.3366 0 0 89.3283 0 199.132C0 260.575 27.9786 315.604 71.8588 352.158C73.1786 353.26 74.5155 354.353 75.8674 355.42C76.0021 355.525 76.1326 355.63 76.261 355.739C110.133 382.366 152.811 398.263 199.132 398.267V294.971Z" fill="#0166EF"/>
</svg>
