<svg width="291" height="400" viewBox="0 0 291 400" fill="none" xmlns="http://www.w3.org/2000/svg">
<g clip-path="url(#clip0_208_98)">
<path d="M4.99805 172.27C5.71216 170.191 6.78332 168.111 7.49743 166.031C6.42627 168.111 5.71216 170.191 4.99805 172.27Z" fill="#00A099"/>
<path d="M2.5 179.548C3.21411 177.468 3.57117 175.388 4.28528 173.309C3.92822 175.388 3.21411 177.468 2.5 179.548Z" fill="#00A099"/>
<path d="M0.357422 194.455C0.357422 192.375 0.714477 190.642 1.07153 188.562C0.714477 190.296 0.357422 192.375 0.357422 194.455Z" fill="#00A099"/>
<path d="M9.99817 238.822C9.28406 237.782 8.927 236.395 8.21289 235.355C8.927 236.742 9.28406 237.782 9.99817 238.822Z" fill="#00A099"/>
<path d="M3.92663 224.608C3.56958 223.221 3.21252 221.835 2.85547 220.102C2.85547 221.488 3.21252 222.875 3.92663 224.608Z" fill="#00A099"/>
<path d="M6.42627 231.887C5.71216 230.501 5.3551 229.114 4.99805 228.074C5.3551 229.114 6.06921 230.501 6.42627 231.887Z" fill="#00A099"/>
<path d="M15.7109 151.817C17.1392 149.738 18.9244 147.658 20.7097 145.578C18.9244 147.658 17.4962 149.738 15.7109 151.817Z" fill="#00A099"/>
<path d="M14.2814 245.752C13.5673 244.713 13.2102 243.673 12.4961 242.633C12.8531 243.673 13.5673 244.713 14.2814 245.752Z" fill="#00A099"/>
<path d="M142.108 138.301C143.179 139.341 144.607 140.381 145.678 141.42L206.021 199.999L266.363 141.42C299.569 109.185 299.569 56.4984 266.363 24.2627C233.157 -7.97299 178.885 -7.97299 145.678 24.2627L145.321 24.6093C112.829 55.8052 112.115 105.719 142.108 138.301Z" fill="url(#paint0_linear_208_98)"/>
<path d="M19.2814 252.34C18.5673 251.647 18.2102 250.954 17.4961 249.914C18.2102 250.607 18.5673 251.647 19.2814 252.34Z" fill="#00A099"/>
<path d="M7.85547 165.337C8.92663 163.257 9.9978 161.177 11.426 159.098C9.9978 160.831 8.92663 163.257 7.85547 165.337Z" fill="#00A099"/>
<path d="M2.49927 220.104C2.14221 219.064 2.14221 218.024 1.78516 216.984C2.14221 218.024 2.49927 219.064 2.49927 220.104Z" fill="#00A099"/>
<path d="M4.9989 227.728C4.64184 226.688 4.28479 225.302 3.92773 224.262C4.28479 225.648 4.64184 226.688 4.9989 227.728Z" fill="#00A099"/>
<path d="M12.4974 242.633C11.7833 241.247 10.7122 240.207 9.99805 238.82C10.7122 240.207 11.4263 241.593 12.4974 242.633Z" fill="#00A099"/>
<path d="M11.0684 158.753C11.0684 158.753 11.0684 158.406 11.4254 158.406C11.4254 158.753 11.4254 158.753 11.0684 158.753Z" fill="#00A099"/>
<path d="M7.49805 166.029C7.49805 165.683 7.8551 165.683 7.8551 165.336C7.8551 165.336 7.49805 165.683 7.49805 166.029Z" fill="#00A099"/>
<path d="M145.321 24.6094L20.709 145.58L21.066 145.927C22.4943 144.54 23.9225 142.807 25.3507 141.42L145.321 24.6094Z" fill="#00A099"/>
<path d="M4.64258 173.309C4.64258 172.963 4.99963 172.616 4.99963 172.27C4.64258 172.616 4.64258 172.963 4.64258 173.309Z" fill="#00A099"/>
<path d="M2.5 180.933C2.5 180.587 2.85706 180.24 2.85706 179.547C2.5 179.893 2.5 180.24 2.5 180.933Z" fill="#00A099"/>
<path d="M0 196.533C0 195.84 0 195.146 0 194.453C0.358282 195.146 0 195.84 0 196.533Z" fill="#00A099"/>
<path d="M1.0719 212.132C1.0719 211.092 0.714844 210.399 0.714844 209.359C0.714844 210.399 0.714844 211.439 1.0719 212.132Z" fill="#00A099"/>
<path d="M0.714844 188.561C0.714844 187.868 0.714844 187.521 1.0719 186.828C1.0719 187.521 1.0719 187.868 0.714844 188.561Z" fill="#00A099"/>
<path d="M266.006 258.578L205.664 199.999L145.679 141.42C144.607 140.381 143.179 139.341 142.108 138.301C112.115 105.719 113.186 55.8052 145.321 24.6094L24.9939 141.42C23.5656 142.807 22.1374 144.193 20.7092 145.927C18.9239 148.006 17.1386 150.086 15.7104 152.166C14.2822 154.245 12.854 156.325 11.4258 158.405C11.4258 158.405 11.4258 158.751 11.0687 158.751C9.99754 160.831 8.56932 162.911 7.49816 164.991C7.49816 165.337 7.1411 165.337 7.1411 165.684C6.06994 167.764 5.35583 169.843 4.64172 171.923C4.64172 172.27 4.28466 172.616 4.28466 172.963C3.57055 175.043 2.85644 177.122 2.49939 179.202C2.49939 179.549 2.14233 179.895 2.14233 180.589C1.78528 182.668 1.42822 184.748 1.07117 186.828C1.07117 187.521 1.07117 187.868 0.71411 188.561C0.357055 190.641 0.357055 192.374 0 194.453C0 195.147 0 195.84 0 196.533C0 198.266 0 200.346 0 202.079C0 202.772 0 203.812 0 204.505C0 206.238 0.357055 207.972 0.357055 209.705C0.357055 210.745 0.71411 211.438 0.71411 212.478C1.07117 214.211 1.07117 215.597 1.42822 217.33C1.78528 218.37 1.78528 219.41 2.14233 220.45C2.49939 221.836 2.85644 223.223 3.2135 224.956C3.57055 225.996 3.92761 227.382 4.28466 228.422C4.64172 229.809 5.35583 231.195 5.71288 232.235C6.06994 233.275 6.78405 234.661 7.49816 236.048C8.21227 237.088 8.56932 238.474 9.28343 239.514C9.99754 240.901 10.7117 242.287 11.7828 243.327C12.4969 244.367 12.854 245.407 13.5681 246.446C14.6393 247.833 15.7104 249.219 16.7816 250.606C17.4957 251.299 17.8528 251.992 18.5669 253.032C20.3521 255.112 22.1374 257.192 24.2798 259.271L144.964 376.429C178.171 408.665 232.443 408.665 265.649 376.429C299.569 343.154 299.569 290.814 266.006 258.578Z" fill="url(#paint1_linear_208_98)"/>
</g>
<defs>
<linearGradient id="paint0_linear_208_98" x1="142.478" y1="138.906" x2="270.202" y2="28.4702" gradientUnits="userSpaceOnUse">
<stop stop-color="#7E28B2"/>
<stop offset="0.28" stop-color="#A7199F"/>
<stop offset="0.6" stop-color="#CE0C8E"/>
<stop offset="0.85" stop-color="#E70483"/>
<stop offset="1" stop-color="#F00180"/>
</linearGradient>
<linearGradient id="paint1_linear_208_98" x1="315.99" y1="297.403" x2="29.9815" y2="127.321" gradientUnits="userSpaceOnUse">
<stop stop-color="#9F37F4"/>
<stop offset="0.6" stop-color="#28A4D3"/>
<stop offset="1" stop-color="#18D0CC"/>
</linearGradient>
<clipPath id="clip0_208_98">
<rect width="291" height="400" fill="white"/>
</clipPath>
</defs>
</svg>
