<svg width="300" height="400" viewBox="0 0 300 400" fill="none" xmlns="http://www.w3.org/2000/svg">
<path d="M295.631 358.664L254.854 395.679C249.029 402.061 240.291 400.785 233.01 395.679L88.8349 266.764V386.744C88.8349 394.403 83.0097 399.508 72.8155 399.508H14.5631C5.82524 399.508 0 394.403 0 386.744V12.7638C0 5.10554 5.82524 0 14.5631 0H72.8155C83.0097 0 88.8349 5.10554 88.8349 12.7638V135.297H285.437C294.175 135.297 300 140.402 300 148.061V200.392C300 208.051 294.175 213.156 285.437 213.156H151.456L295.631 340.794C301.456 345.9 301.456 352.282 295.631 358.664Z" fill="#36A635"/>
</svg>
