<svg width="400" height="188" viewBox="0 0 400 188" fill="none" xmlns="http://www.w3.org/2000/svg">
<g clip-path="url(#clip0_209_267)">
<path fill-rule="evenodd" clip-rule="evenodd" d="M316.218 9.57831C315.792 16.1293 313.261 24.1457 312.278 27.6798C308.661 40.6727 305.403 51.1544 303.267 50.0539C301.132 48.9477 303.1 37.6759 304.542 23.686C305.085 18.4193 307.618 -3.66168 313.727 0.524664C315.941 2.04174 316.482 5.52988 316.218 9.57831Z" fill="#89C263"/>
<path fill-rule="evenodd" clip-rule="evenodd" d="M352.111 20.901C351.598 22.3511 350.995 23.6968 350.411 24.8575C347.583 30.4552 344.391 35.7156 341.041 40.7105C331.904 54.3047 324.072 65.0345 321.511 62.2118C318.953 59.3832 325.284 46.7855 331.773 30.4671C334.493 23.6193 337.771 16.5059 341.892 11.141C344.294 8.01395 349.124 3.6934 352.007 8.23177C354.328 11.8899 353.572 16.7953 352.111 20.901Z" fill="#EDA42D"/>
<path fill-rule="evenodd" clip-rule="evenodd" d="M394.728 96.652C391.954 98.4491 388.736 99.5854 386.795 100.278C383.845 101.331 380.863 102.212 377.859 102.978C365.062 106.223 354.468 108.334 353.572 104.38C352.769 100.851 357.984 98.3551 359.738 97.2672C366.41 93.1224 373.23 88.8863 380.164 85.5285C384.714 83.3232 397.025 77.2148 399.638 86.2834C401.023 91.0701 398.229 94.3822 394.728 96.652Z" fill="#AE5191"/>
<path fill-rule="evenodd" clip-rule="evenodd" d="M382.579 47.5314C380.691 50.2624 378.286 52.5141 376.162 54.6967C372.84 58.1173 369.397 61.3246 365.873 64.3574C352.843 75.5581 341.898 84.2245 339.871 80.6489C337.759 76.9264 346.239 67.598 347.649 65.6592C352.678 58.7543 357.688 51.7608 363.14 45.4431C367.262 40.6709 378.818 25.8723 384.887 33.4558C386.993 36.0898 385.806 40.8592 384.656 43.7203C384.101 45.1024 383.389 46.3599 382.579 47.5314Z" fill="#2D89BE"/>
<path fill-rule="evenodd" clip-rule="evenodd" d="M12.5187 186.271H15.3966C22.4474 186.271 27.6275 181.663 27.6275 168.414V145.948L43.0241 175.711C47.0531 183.967 52.9528 186.847 57.989 186.847C66.191 186.847 73.9612 177.631 73.2417 175.711L52.2333 136.347L71.3711 100.057C72.0906 97.9445 64.752 88.7278 56.4062 88.7278C51.6577 88.7278 45.7581 91.608 41.873 99.8647L27.6275 128.475V78.167C27.6275 55.7012 18.5622 50.1328 10.6481 50.1328C5.03627 50.1328 0 53.013 0 54.3571V168.414C0 182.047 5.18016 186.271 12.5187 186.271ZM119.256 187.999C139.401 187.999 150.481 178.399 150.481 165.726C150.481 151.709 137.818 149.981 137.818 150.365C135.084 156.893 129.184 162.461 120.551 162.461C111.773 162.461 105.73 157.469 104.003 147.484H149.042C153.214 147.484 154.51 143.452 154.653 137.884V135.579C154.653 108.121 139.401 88.1518 117.529 88.1518C95.5132 88.1518 79.5411 109.657 79.5411 138.844C79.5411 169.374 94.9377 187.999 119.256 187.999ZM117.241 112.154C124.867 112.154 129.616 118.682 129.76 128.475H103.571C104.435 119.066 110.046 112.154 117.241 112.154ZM180.234 186.271H183.112C190.163 186.271 195.343 181.663 195.343 168.414V145.948L210.74 175.711C214.769 183.967 220.669 186.847 225.705 186.847C233.907 186.847 241.677 177.631 240.957 175.711L219.949 136.347L239.087 100.057C239.806 97.9445 232.468 88.7278 224.122 88.7278C219.373 88.7278 213.474 91.608 209.589 99.8647L195.343 128.475V78.167C195.343 55.7012 186.278 50.1328 178.364 50.1328C172.752 50.1328 167.716 53.013 167.716 54.3571V168.414C167.716 182.047 172.896 186.271 180.234 186.271ZM270.855 187.231C281.216 187.231 289.993 181.471 294.742 171.678C296.9 181.855 302.368 187.039 310.282 187.039C315.606 187.039 320.93 184.735 320.93 182.815V128.667C320.93 101.401 309.707 88.1518 284.094 88.1518C260.495 88.1518 249.847 97.5605 249.847 112.538C249.847 128.859 267.977 127.515 268.121 126.939C269.992 121.178 273.589 114.266 282.511 114.266C289.13 114.266 293.015 118.682 293.59 126.939H290.856C260.495 127.131 247.113 137.5 247.113 159.197C247.113 175.711 256.466 187.231 270.855 187.231ZM281.647 164.766C276.611 164.766 273.302 161.501 273.302 155.933C273.302 148.636 279.201 145.564 290.281 145.18H293.734V148.444C293.734 158.045 288.986 164.766 281.647 164.766Z" fill="#2C2E31"/>
</g>
<defs>
<clipPath id="clip0_209_267">
<rect width="400" height="188" fill="white"/>
</clipPath>
</defs>
</svg>
