<svg width="360" height="400" viewBox="0 0 360 400" fill="none" xmlns="http://www.w3.org/2000/svg">
<g clip-path="url(#clip0_259_8)">
<path d="M185.192 400C185.192 400 10 360.388 10 181.748V0L79.7039 69.9029V181.748C79.7039 287.767 185.192 323.883 185.192 323.883V400Z" fill="url(#paint0_linear_259_8)"/>
<path d="M185.191 400C185.191 400 360.383 360.388 360.383 181.748V0L290.679 69.9029V181.748C290.679 287.767 185.191 323.883 185.191 323.883V400Z" fill="url(#paint1_linear_259_8)"/>
<path d="M290.679 69.9029H79.7039L10 0H360.011L290.679 69.9029Z" fill="url(#paint2_linear_259_8)"/>
</g>
<defs>
<linearGradient id="paint0_linear_259_8" x1="-35.9099" y1="10.2699" x2="56.4687" y2="163.864" gradientUnits="userSpaceOnUse">
<stop stop-color="#01023B"/>
<stop offset="1" stop-color="#FF646C"/>
</linearGradient>
<linearGradient id="paint1_linear_259_8" x1="386.274" y1="46.0353" x2="298.333" y2="192.242" gradientUnits="userSpaceOnUse">
<stop stop-color="#01023B"/>
<stop offset="0.24" stop-color="#071573"/>
<stop offset="0.49" stop-color="#0D27AA"/>
<stop offset="0.72" stop-color="#1135D2"/>
<stop offset="0.89" stop-color="#143DEA"/>
<stop offset="1" stop-color="#1540F3"/>
</linearGradient>
<linearGradient id="paint2_linear_259_8" x1="10" y1="34.9705" x2="360.177" y2="34.9705" gradientUnits="userSpaceOnUse">
<stop offset="0.2" stop-color="#00F8F8"/>
<stop offset="0.3" stop-color="#00F4F8"/>
<stop offset="0.4" stop-color="#02E7F8"/>
<stop offset="0.51" stop-color="#04D3F7"/>
<stop offset="0.61" stop-color="#08B6F6"/>
<stop offset="0.72" stop-color="#0C90F5"/>
<stop offset="0.83" stop-color="#1163F4"/>
<stop offset="0.9" stop-color="#1540F3"/>
</linearGradient>
<clipPath id="clip0_259_8">
<rect width="360" height="400" fill="white"/>
</clipPath>
</defs>
</svg>
