<svg width="400" height="400" viewBox="0 0 400 400" fill="none" xmlns="http://www.w3.org/2000/svg">
<path d="M400 199.308C400 310.035 310.345 400 200 400C89.6552 400 0 310.035 0 199.308C0 88.5813 89.6552 0 200 0C310.345 0 400 88.5813 400 199.308Z" fill="#00B969"/>
<path d="M286.907 123.16H183.459V267.105H286.907V123.16Z" fill="#4D4D4F"/>
<path d="M222.074 261.594H195.867V134.258H223.453C249.66 134.258 262.074 145.331 268.97 155.019C277.246 167.476 280.005 184.085 280.005 197.926C280.005 231.144 267.591 261.594 222.074 261.594ZM317.246 125.953C286.901 83.0469 240.005 83.0469 213.798 83.0469H136.557V308.652C154.488 311.421 172.419 310.036 190.35 310.036C191.729 310.036 193.108 310.037 193.108 311.421C194.488 311.421 195.867 312.805 197.246 314.189H219.315C307.591 314.189 339.315 261.594 339.315 197.926C339.315 171.628 333.798 148.099 317.246 125.953Z" fill="white"/>
<path d="M80.0117 83.0469H137.943V261.594H195.874L197.253 312.805H80.0117V83.0469Z" fill="#4D4D4F"/>
</svg>
