<svg width="400" height="400" viewBox="0 0 400 400" fill="none" xmlns="http://www.w3.org/2000/svg">
<rect width="400" height="400" fill="#070707"/>
<path fill-rule="evenodd" clip-rule="evenodd" d="M310 209.486V92.7131C310 91.2209 309.143 90 308.096 90H187.574C187.174 90 186.793 90.1628 186.47 90.4884L146.968 130.48C145.464 131.999 146.226 135.391 148.072 135.391H245.369L305.45 95.1821L262.122 144.588V255.799C262.122 258.024 263.893 259.299 265.15 257.969L309.219 211.657C309.714 211.141 310 210.354 310 209.486ZM213.492 309.492L253.032 269.453C254.535 267.928 253.774 264.588 251.929 264.588H139.758C138.712 264.588 137.856 263.412 137.856 261.915V144.176C137.856 141.958 136.067 140.702 134.811 142.038L90.7611 188.332C90.2854 188.84 90 189.641 90 190.47V288.616C90 300.431 96.812 310 105.222 310H212.37C212.769 310 213.169 309.813 213.492 309.492Z" fill="white"/>
</svg>
