<svg width="400" height="400" viewBox="0 0 400 400" fill="none" xmlns="http://www.w3.org/2000/svg">
<g clip-path="url(#clip0_306_95)">
<path d="M311.111 111.109H100V322.22H311.111V111.109Z" fill="white"/>
<path fill-rule="evenodd" clip-rule="evenodd" d="M400 0H0V400H400V0ZM139.934 133.16C139.934 123.174 131.859 115.078 121.897 115.078C111.933 115.078 103.858 123.174 103.858 133.16V223.571C103.858 263.518 136.162 295.9 176.012 295.9H266.204C276.167 295.9 284.243 287.804 284.243 277.818C284.243 267.831 276.167 259.736 266.204 259.736H176.012C156.087 259.736 139.934 243.544 139.934 223.571V133.16ZM266.203 205.49C266.203 195.503 258.127 187.408 248.164 187.408H194.049C184.087 187.408 176.01 195.503 176.01 205.49C176.01 215.477 184.087 223.572 194.049 223.572H248.164C258.127 223.572 266.203 215.477 266.203 205.49ZM266.203 115.078C276.166 115.078 284.242 123.174 284.242 133.16C284.242 143.147 276.166 151.242 266.203 151.242H194.049C184.087 151.242 176.01 143.147 176.01 133.16C176.01 123.174 184.087 115.078 194.049 115.078H266.203Z" fill="#316BFF"/>
</g>
<defs>
<clipPath id="clip0_306_95">
<rect width="400" height="400" fill="white"/>
</clipPath>
</defs>
</svg>
