<svg width="400" height="400" viewBox="0 0 400 400" fill="none" xmlns="http://www.w3.org/2000/svg">
<path fill-rule="evenodd" clip-rule="evenodd" d="M164.169 233.762L244.898 271.087C254.904 275.715 261.966 283.483 265.781 292.393C275.428 314.956 262.242 338.033 241.544 346.332C220.842 354.628 198.779 349.289 188.747 325.825L153.614 243.446C150.891 237.06 157.731 230.785 164.169 233.762Z" fill="#FFC233"/>
<path fill-rule="evenodd" clip-rule="evenodd" d="M168.961 209.458L252.39 177.846C280.117 167.341 310.405 187.219 309.996 216.102C309.989 216.479 309.983 216.855 309.973 217.236C309.374 245.362 279.928 264.266 252.81 254.316L169.04 223.583C162.358 221.133 162.309 211.978 168.961 209.458Z" fill="#FFC233"/>
<path fill-rule="evenodd" clip-rule="evenodd" d="M164.924 198.339L246.695 163.463C273.867 151.872 280.763 117.085 259.482 96.9851C259.203 96.7204 258.924 96.4589 258.642 96.1974C237.777 76.7578 203.286 83.6023 191.407 109.207L154.713 188.314C151.785 194.623 158.402 201.119 164.924 198.339Z" fill="#FFC233"/>
<path fill-rule="evenodd" clip-rule="evenodd" d="M143.696 184.966L173.554 103.248C177.256 93.1154 176.571 82.7824 172.743 73.8668C163.052 51.2991 136.806 44.0144 116.059 52.3311C95.315 60.6511 83.5931 79.5462 93.6701 103.015L129.123 185.354C131.872 191.735 141.316 191.483 143.696 184.966Z" fill="#FFC233"/>
</svg>
