<svg width="400" height="400" viewBox="0 0 400 400" fill="none" xmlns="http://www.w3.org/2000/svg">
<g clip-path="url(#clip0_163_85)">
<path d="M396.251 379.063L320.938 303.75C315.938 298.75 308.126 298.75 303.126 303.75L227.813 379.063C222.813 383.75 222.813 391.563 227.501 396.25C230.001 398.75 233.438 400.313 236.876 400H387.501C394.376 400.313 400.001 394.687 400.001 388.125C400.001 384.687 398.751 381.25 396.251 379.063Z" fill="#C3C6CC"/>
<path d="M398.75 108.438L375 38.4375C374.062 35.3125 372.187 32.5 370 30L2.8125 397.188C5 399.063 7.8125 400 10.625 400H115C120.937 400 126.562 397.813 130.625 393.438L393.75 130.625C399.687 124.688 401.562 116.25 398.75 108.438Z" fill="#E1E3E6"/>
<path d="M361.563 24.6893L291.562 1.25178C283.75 -1.56072 275.313 0.314274 269.375 6.25177L6.25 269.064C2.1875 273.127 -0.3125 278.752 -0.3125 284.689V389.064C-0.3125 391.877 0.625005 394.689 2.5 396.877L370.312 29.6893C367.812 27.5018 364.688 25.9393 361.563 24.6893Z" fill="#C3C6CC"/>
</g>
<defs>
<clipPath id="clip0_163_85">
<rect width="400" height="400" fill="white"/>
</clipPath>
</defs>
</svg>
