<svg width="400" height="400" viewBox="0 0 400 400" fill="none" xmlns="http://www.w3.org/2000/svg">
<mask id="mask0_583_118" style="mask-type:luminance" maskUnits="userSpaceOnUse" x="50" y="146" width="300" height="108">
<path d="M350 146H50V253.32H350V146Z" fill="white"/>
</mask>
<g mask="url(#mask0_583_118)">
<path d="M103.634 213.074C96.2291 213.074 90.2266 207.068 90.2266 199.659C90.2266 192.251 96.2291 186.244 103.634 186.244C111.04 186.244 117.042 192.251 117.042 199.659C117.042 207.068 111.04 213.074 103.634 213.074Z" fill="#0B1C56"/>
<path d="M50 162.769H137.151C139.002 162.769 140.503 164.271 140.503 166.122V226.49H157.263V162.769C157.263 153.508 149.759 146 140.503 146H66.7598C57.5034 146 50 153.508 50 162.769Z" fill="#302EB7"/>
<path d="M66.7598 233.197V172.83H50V236.551C50 245.812 57.5034 253.32 66.7598 253.32H140.503C149.759 253.32 157.263 245.812 157.263 236.551H70.1117C68.2606 236.551 66.7598 235.049 66.7598 233.197Z" fill="#0B1C56"/>
<path d="M182.398 233.198V166.123H195.806V220.622H225.974V233.198H182.398Z" fill="#302EB7"/>
<path d="M261.172 233.198V166.123H274.58V220.622H304.747V233.198H261.172Z" fill="#302EB7"/>
<path d="M236.875 166.123H250.283V233.198H236.875V166.123Z" fill="#302EB7"/>
<path d="M329.053 178.7V233.198H315.645V178.7H294.695V166.123H350.003V178.7H329.053Z" fill="#302EB7"/>
</g>
</svg>
