<svg width="400" height="400" viewBox="0 0 400 400" fill="none" xmlns="http://www.w3.org/2000/svg">
<path d="M53.6741 234.566C53.0081 231.719 56.3981 229.928 58.4651 231.995L168.001 341.529C170.071 343.599 168.277 346.989 165.43 346.32C110.155 333.351 66.6401 289.84 53.6741 234.566ZM50.0051 190.665C49.9804 191.085 50.0452 191.505 50.1952 191.898C50.3451 192.291 50.5769 192.648 50.8751 192.944L207.049 349.125C207.652 349.725 208.483 350.046 209.329 349.995C216.439 349.548 223.414 348.615 230.218 347.214C232.513 346.743 233.308 343.926 231.652 342.27L57.7271 168.342C56.0711 166.689 53.2541 167.484 52.7831 169.779C51.3694 176.667 50.4411 183.646 50.0051 190.665ZM62.6291 139.113C62.3871 139.662 62.3172 140.271 62.4287 140.86C62.5401 141.449 62.8275 141.991 63.2531 142.413L257.581 336.738C258.448 337.608 259.759 337.863 260.881 337.362C266.219 334.984 271.413 332.295 276.436 329.31C276.821 329.079 277.148 328.763 277.392 328.385C277.636 328.008 277.79 327.581 277.843 327.135C277.896 326.689 277.846 326.237 277.698 325.813C277.549 325.389 277.305 325.005 276.985 324.69L75.3071 123.007C74.9921 122.686 74.6079 122.442 74.1838 122.293C73.7598 122.144 73.3073 122.094 72.8609 122.147C72.4146 122.2 71.9864 122.355 71.609 122.599C71.2317 122.843 70.9153 123.17 70.6841 123.556C67.6988 128.579 65.0102 133.773 62.6321 139.11L62.6291 139.113ZM87.9731 104.221C87.436 103.689 87.1227 102.972 87.0976 102.217C87.0725 101.462 87.3375 100.725 87.8381 100.159C115.339 69.3797 155.332 50 199.855 50C282.775 50 349.999 117.22 349.999 200.141C349.999 244.661 330.619 284.656 299.839 312.153C299.273 312.654 298.537 312.919 297.781 312.894C297.026 312.869 296.309 312.556 295.777 312.018L87.9761 104.221H87.9731Z" fill="#5E6AD2"/>
</svg>
