<svg width="400" height="400" viewBox="0 0 400 400" fill="none" xmlns="http://www.w3.org/2000/svg">
<path d="M285.258 50H114.71C112.018 50 110 51.9502 110 54.5504V297.996C110 299.621 111.009 301.246 112.355 301.896L197.797 349.35C198.47 349.675 199.479 350 200.152 350C200.825 350 201.834 349.675 202.507 349.35L287.613 302.221C288.959 301.246 289.968 299.946 289.968 298.321V54.5504C290.304 51.9502 287.95 50 285.258 50Z" fill="#2B3039" stroke="white" stroke-width="1.70079" stroke-miterlimit="10"/>
<path d="M165.841 115.98H234.128H285.26V96.4785H114.711V115.98H165.841Z" fill="white"/>
<path d="M165.841 115.979H114.711V247.614L165.841 219.012V115.979Z" fill="#F9DA2A"/>
<path d="M114.711 54.5488H285.26V96.4773H114.711V54.5488Z" fill="#EF4882"/>
<path d="M165.844 255.741H166.18L200.492 275.242L233.794 255.741H234.131V180.984L165.844 219.013V255.741Z" fill="#56C5C9"/>
<path d="M165.844 219.012L234.131 180.984V115.979H165.844V219.012Z" fill="#64C297"/>
<path d="M165.841 219.012L114.711 247.614V283.692L165.841 255.74V219.012Z" fill="#F89521"/>
<path d="M234.133 115.979V180.984L285.264 152.381V115.979H234.133Z" fill="#6088C5"/>
<path d="M234.133 255.741L285.264 284.019V152.383L234.133 180.985V255.741Z" fill="#6B64AD"/>
<path d="M234.128 255.742H233.792L200.49 275.244L166.178 255.742H165.841L114.711 283.694V297.996L151.377 318.472H248.593L285.26 297.996V284.019L234.128 255.742Z" fill="white"/>
<path d="M285.258 50H114.71C112.018 50 110 51.9502 110 54.5504V297.996C110 299.621 111.009 301.246 112.355 301.896L197.797 349.35C198.47 349.675 199.479 350 200.152 350C200.825 350 201.834 349.675 202.507 349.35L287.613 302.221C288.959 301.246 289.968 299.946 289.968 298.321V54.5504C290.304 51.9502 287.95 50 285.258 50ZM200.488 269.718L170.886 253.142V120.856H229.418V253.142L200.488 269.718ZM119.419 111.43V101.029H280.213V111.43H119.419ZM119.419 120.856H161.131V252.817L119.755 275.569V120.856H119.419ZM238.837 120.856H280.213V275.894L238.837 252.817V120.856ZM280.549 59.1007V91.6034H119.419V59.1007H280.549ZM247.246 313.922H152.721L119.755 295.396V286.295L165.504 260.943H166.177L198.134 278.819C198.47 278.819 198.47 278.819 198.806 279.144C199.143 279.144 199.479 279.469 199.816 279.469H201.834C202.17 279.469 202.507 279.144 202.843 279.144C203.18 279.144 203.18 279.144 203.516 278.819L234.8 260.943H235.136L280.885 286.62V295.07L247.246 313.922Z" fill="#2B3039"/>
</svg>
