<svg width="400" height="400" viewBox="0 0 400 400" fill="none" xmlns="http://www.w3.org/2000/svg">
<path d="M340.818 340.827H281.551V248.008C281.551 225.875 281.156 197.382 250.725 197.382C219.857 197.382 215.134 221.498 215.134 246.397V340.821H155.866V149.948H212.763V176.033H213.56C219.254 166.297 227.482 158.288 237.367 152.858C247.253 147.429 258.426 144.782 269.697 145.201C329.767 145.201 340.843 184.714 340.843 236.117L340.818 340.827ZM88.9928 123.857C82.1904 123.859 75.5402 121.843 69.8835 118.064C64.2268 114.286 59.8178 108.915 57.2135 102.631C54.6092 96.3461 53.9267 89.4306 55.2526 82.7584C56.5785 76.0862 59.8532 69.9571 64.6624 65.146C69.4715 60.335 75.5993 57.0581 82.2708 55.7297C88.9423 54.4014 95.8577 55.0813 102.143 57.6834C108.428 60.2856 113.8 64.6931 117.58 70.3486C121.361 76.0041 123.379 82.6537 123.38 89.4563C123.381 93.9731 122.492 98.4458 120.765 102.619C119.037 106.792 116.504 110.584 113.311 113.779C110.118 116.973 106.327 119.508 102.154 121.237C97.9816 122.966 93.5094 123.857 88.9928 123.857ZM118.626 340.827H59.2973V149.948H118.626V340.827ZM370.365 0.0272526H29.5155C21.7792 -0.0600548 14.3243 2.92772 8.78969 8.33404C3.25506 13.7404 0.0934411 21.1229 -0.000976562 28.8594V371.135C0.0902096 378.875 3.24997 386.263 8.78441 391.674C14.3189 397.086 21.7754 400.08 29.5155 399.998H370.365C378.121 400.095 385.598 397.11 391.154 391.698C396.711 386.286 399.892 378.89 399.999 371.135V28.8347C399.888 21.0829 396.705 13.6919 391.149 8.28574C385.592 2.87955 378.117 -0.0996905 370.365 0.00254703" fill="#0A66C2"/>
</svg>
