<svg width="400" height="400" viewBox="0 0 400 400" fill="none" xmlns="http://www.w3.org/2000/svg">
<g clip-path="url(#clip0_184_9)">
<path d="M393.188 148.762C365.288 128.928 316.951 119.671 272.182 115.374C332.523 73.0598 358.476 78.349 358.476 78.349C327.981 40.6631 304.299 29.4234 304.299 29.4234C269.262 32.068 224.494 63.1424 190.43 91.2416C204.38 16.2003 228.711 1.98539 228.711 1.98539C204.38 -1.65098 179.725 -0.328662 155.718 4.96059C141.768 19.1755 132.361 43.3077 125.872 69.4234L89.5381 33.3904C68.127 47.9358 49.6355 66.4482 34.7125 87.6052L71.6955 124.63C17.8431 137.853 5.19102 155.374 5.19102 155.374C-0.648395 179.175 -1.62163 203.969 2.27131 228.432C17.1943 208.266 55.7993 196.366 92.1334 189.754C28.2243 267.44 29.5219 304.134 29.5219 304.134C42.174 325.291 58.719 343.473 78.1837 358.349C78.1837 333.556 94.7287 301.82 114.842 272.729C123.277 359.341 148.906 393.06 148.906 393.06C172.912 399.341 197.567 401.324 222.223 399.01C192.377 365.291 183.942 282.647 181.671 235.043L312.085 365.291C333.496 350.746 351.987 332.233 366.586 310.415L237.47 181.159C366.91 186.779 398.703 221.82 398.703 221.82C401.622 197.357 400 172.564 393.188 148.762Z" fill="#222222"/>
</g>
<defs>
<clipPath id="clip0_184_9">
<rect width="400" height="400" fill="white"/>
</clipPath>
</defs>
</svg>
