<svg width="400" height="400" viewBox="0 0 400 400" fill="none" xmlns="http://www.w3.org/2000/svg">
<g clip-path="url(#clip0_310_37)">
<path d="M328.606 311.687C328.606 315.599 326.65 318.533 323.716 319.511C319.804 320.489 290.465 320.489 288.509 319.511C286.553 319.511 284.597 318.533 283.619 316.577C282.641 314.621 281.663 313.643 281.663 311.687C281.663 309.731 281.663 230.514 281.663 230.514C281.663 221.712 281.663 214.866 280.685 207.042C279.707 200.196 276.773 177.702 249.389 177.702C224.939 177.702 217.115 197.262 215.159 207.042C214.181 217.8 213.203 229.536 213.203 240.294V308.753C213.203 310.709 213.203 312.665 212.225 313.643C211.247 315.599 209.291 317.555 206.357 317.555C202.445 318.533 175.061 318.533 173.105 317.555C170.171 317.555 169.193 316.577 167.237 315.599C165.281 313.643 165.281 310.709 165.281 306.797C165.281 302.885 165.281 154.23 165.281 152.274C165.281 150.318 166.259 148.362 167.237 147.384C168.215 145.428 171.149 144.45 177.017 144.45H196.577C202.445 144.45 208.313 144.45 209.291 149.34C209.291 150.318 210.269 161.076 215.159 161.076C216.137 161.076 217.115 160.098 218.093 159.12C219.071 159.12 224.939 151.296 229.829 148.362C247.433 137.604 278.729 136.626 297.31 145.428C306.112 149.34 313.936 156.186 318.826 164.01C323.716 172.812 327.628 187.482 327.628 203.13C329.584 208.02 328.606 307.775 328.606 311.687ZM131.051 315.599C130.073 317.555 127.139 319.511 124.205 319.511C121.271 319.511 89.9755 319.511 88.0196 319.511C86.0636 319.511 84.1076 318.533 83.1296 317.555C82.1516 316.577 81.1736 314.621 81.1736 312.665C81.1736 310.709 81.1736 307.775 81.1736 305.819C81.1736 305.819 81.1736 97.5065 81.1736 92.6166C81.1736 88.7046 81.1736 85.7706 83.1296 83.8146C83.1296 81.8586 85.0856 79.9026 88.0196 79.9026C88.9975 79.9026 123.227 79.9026 125.183 79.9026C127.139 79.9026 129.095 80.8806 130.073 82.8366C131.051 84.7926 132.029 86.7486 132.029 88.7046C132.029 91.6386 132.029 304.841 132.029 307.775C133.007 311.687 133.007 313.643 131.051 315.599ZM200.489 -0.292969C89.9755 -0.292969 0 89.6826 0 200.196C0 310.709 89.9755 400.685 200.489 400.685C311.002 400.685 400.978 310.709 400.978 200.196C400 89.6826 311.002 -0.292969 200.489 -0.292969Z" fill="#165C7D"/>
</g>
<defs>
<clipPath id="clip0_310_37">
<rect width="400" height="400" fill="white"/>
</clipPath>
</defs>
</svg>
