<svg width="390" height="400" viewBox="0 0 390 400" fill="none" xmlns="http://www.w3.org/2000/svg">
<g clip-path="url(#clip0_277_65)">
<path d="M207.669 204.238C207.669 203.027 207.669 201.413 207.669 199.798V41.5742C207.669 41.1705 207.669 41.1705 207.669 40.7669V0C207.253 0 206.423 0 206.007 0C203.515 0 201.023 0 198.531 0V102.523L207.669 205.045V206.66V207.064C207.669 205.853 207.669 205.045 207.669 204.238Z" fill="#00C55F"/>
<path d="M207.669 312.816L206.838 298.285H198.531V400.001C201.023 400.001 203.1 400.001 205.592 400.001C206.423 400.001 206.838 400.001 207.669 400.001V312.816Z" fill="#00C55F"/>
<path d="M207.666 205.047L198.529 102.928L189.391 0.808594C186.484 1.21223 183.161 1.21223 180.254 1.61586L189.391 104.946L207.666 206.661V205.047Z" fill="#0DC959"/>
<path d="M216.804 312.816L214.727 298.285H206.836L207.667 312.816L213.481 400.001C216.389 400.001 219.711 399.597 222.619 399.597L216.804 312.816Z" fill="#0DC959"/>
<path d="M207.669 206.659L189.394 104.54L171.535 2.82422C168.627 3.22785 165.72 4.03512 162.812 4.43875L183.579 119.878L208.499 209.888C208.084 209.081 207.669 207.87 207.669 206.659Z" fill="#1BCD52"/>
<path d="M225.11 307.569L223.033 298.285H214.727L216.803 312.816L228.848 398.79C231.755 398.386 234.663 397.982 237.985 397.579L225.11 307.569Z" fill="#1BCD52"/>
<path d="M234.666 308.78L230.928 298.285H222.621L224.698 307.569L245.049 396.368C247.957 395.964 250.864 395.157 253.771 394.35L234.666 308.78Z" fill="#28D14C"/>
<path d="M208.081 209.891L183.161 119.88L152.011 6.86328C149.104 7.67055 146.196 8.47781 143.289 9.28508L178.593 138.044L208.912 215.541C208.497 213.523 208.497 211.909 208.081 209.891Z" fill="#28D14C"/>
<path d="M208.914 215.539L178.595 138.042L130.416 13.7227C127.509 14.9336 124.601 15.7408 122.109 16.9517L176.518 157.416L210.576 222.804C209.745 220.383 209.33 217.961 208.914 215.539Z" fill="#36D446"/>
<path d="M245.047 311.605L239.232 298.285H230.926L234.664 308.78L262.491 392.332C265.399 391.524 268.306 390.717 271.213 389.91L245.047 311.605Z" fill="#36D446"/>
<path d="M210.574 222.806L176.517 157.418L107.571 24.2188C105.079 25.4296 102.172 27.0442 99.6797 28.6587L172.363 168.719L212.651 229.264C211.82 227.246 210.99 225.228 210.574 222.806Z" fill="#43D83F"/>
<path d="M254.602 310.798L247.541 298.285H239.234L245.049 311.605L277.861 387.488C280.768 386.277 283.675 385.47 286.167 384.259L254.602 310.798Z" fill="#43D83F"/>
<path d="M212.653 229.265L172.366 168.72L85.5607 37.5391C83.0687 39.1536 80.5767 41.1718 78.5 42.7863L181.088 197.378L217.637 239.355C215.561 236.126 213.899 232.897 212.653 229.265Z" fill="#50DC39"/>
<path d="M264.569 310.394L255.432 298.285H247.125L254.186 310.798L293.643 380.626C296.55 379.415 299.042 378.204 301.949 376.59L264.569 310.394Z" fill="#50DC39"/>
<path d="M276.612 311.605L263.736 298.285H255.43L264.567 310.394L310.254 372.15C312.746 370.535 315.238 368.921 318.145 367.306L276.612 311.605Z" fill="#5EE033"/>
<path d="M217.222 239.356L180.672 197.378L60.6402 58.125C58.5635 60.1432 56.4868 62.1613 54.4102 64.5831L178.595 208.276L222.206 247.832C220.129 245.411 218.468 242.585 217.222 239.356Z" fill="#5EE033"/>
<path d="M291.566 314.43L272.045 298.285H263.738L276.614 311.605L325.623 362.463C328.115 360.848 330.607 358.83 333.099 357.216L291.566 314.43Z" fill="#6BE42C"/>
<path d="M221.79 247.829L178.18 208.273L39.458 82.3398C37.3813 84.7616 35.7199 87.1834 34.0586 89.6052L186.902 228.455L229.266 257.92C226.774 254.691 224.282 251.462 221.79 247.829Z" fill="#6BE42C"/>
<path d="M302.778 312.009L280.35 298.285H272.043L291.564 314.43L338.497 352.776C340.989 350.757 343.065 348.739 345.142 346.721L302.778 312.009Z" fill="#79E826"/>
<path d="M229.265 257.517L186.901 228.456L20.3513 112.613C19.1053 115.439 17.8593 117.861 16.6133 120.686L194.377 243.794L238.818 266.397C235.08 263.976 232.172 260.747 229.265 257.517Z" fill="#79E826"/>
<path d="M238.403 266.801L193.962 244.197L7.06105 148.133C6.23038 150.958 5.39971 153.784 4.98438 157.013L193.547 253.481L247.125 273.259C243.802 271.241 241.31 268.819 238.403 266.801Z" fill="#86EC20"/>
<path d="M318.147 310.798L289.489 298.285H289.074H280.352L302.78 312.009L351.374 341.474C353.451 339.456 355.527 337.034 357.604 335.016L318.147 310.798Z" fill="#86EC20"/>
<path d="M336.838 309.185L296.966 297.883H296.55H289.074H289.49L318.148 310.395L362.173 329.77C364.25 327.348 366.327 324.926 367.988 322.504L336.838 309.185Z" fill="#93F019"/>
<path d="M246.709 273.257L193.131 253.479L0.415335 182.844C0.415335 186.073 0 188.898 0 192.127L198.53 264.781L201.853 265.992L257.923 279.716C254.185 277.697 250.447 275.679 246.709 273.257Z" fill="#93F019"/>
<path d="M350.958 303.937L310.256 298.69L304.856 297.883H304.026H296.965H297.38L337.252 309.185L371.725 318.872C373.802 316.45 375.463 314.028 377.125 311.203L350.958 303.937Z" fill="#A1F313"/>
<path d="M258.34 279.719L202.27 265.996L198.947 265.189L0.832031 217.156C1.24737 220.385 1.24737 223.211 1.6627 226.44L197.286 274.068L269.554 284.563C265.401 282.948 261.663 281.334 258.34 279.719Z" fill="#A1F313"/>
<path d="M269.136 284.159L196.868 273.665L5.39844 246.621C6.22911 249.85 7.05978 252.676 7.89045 255.905L178.178 280.123L278.274 286.984C275.366 286.177 272.459 285.37 269.136 284.159Z" fill="#AEF70D"/>
<path d="M316.069 298.285H313.993H303.609H304.44L309.839 299.092L350.542 304.34L378.785 307.972C380.031 306.358 380.862 304.743 382.108 303.129L316.069 298.285Z" fill="#AEF70D"/>
<path d="M385.016 297.883H313.578L315.655 298.286L382.108 302.726C382.939 301.515 383.354 300.708 384.185 299.497C384.6 299.094 384.6 298.69 385.016 297.883Z" fill="#BCFB06"/>
<path d="M299.458 289.404C292.397 289.404 285.336 288.597 278.691 286.983L178.595 280.121L12.4609 269.223C13.7069 272.452 14.953 275.277 16.199 278.103L183.579 289.404H299.458Z" fill="#BCFB06"/>
<path d="M183.578 289.406H21.5977C23.259 292.232 24.9203 295.461 26.5817 298.286L385.432 297.883C385.432 297.479 385.847 297.075 385.847 297.075C386.262 296.268 386.678 295.057 387.508 294.25C388.339 292.635 389.17 291.021 390 289.406H183.578Z" fill="#C8FF00"/>
</g>
<defs>
<clipPath id="clip0_277_65">
<rect width="390" height="400" fill="white"/>
</clipPath>
</defs>
</svg>
