<svg width="400" height="400" viewBox="0 0 400 400" fill="none" xmlns="http://www.w3.org/2000/svg">
<path d="M96.0294 117.964V219.076C96.0294 229.499 87.237 238.047 76.5147 238.047C65.7923 238.047 57 229.499 57 219.076V117.964C57 107.54 65.7923 98.9922 76.5147 98.9922C87.237 98.9922 96.0294 107.54 96.0294 117.964Z" fill="#2871DE"/>
<path d="M158.002 68.9715V272.863C158.002 283.287 149.21 291.834 138.487 291.834C127.765 291.834 118.973 283.287 118.973 272.863V68.9715C118.973 58.5476 127.765 50 138.487 50C149.21 50 158.002 58.3391 158.002 68.9715Z" fill="#2871DE"/>
<path d="M219.768 125.47V331.029C219.768 341.453 210.975 350 200.253 350C189.531 350 180.738 341.453 180.738 331.029V125.47C180.738 115.046 189.531 106.498 200.253 106.498C210.975 106.498 219.768 115.046 219.768 125.47Z" fill="#2871DE"/>
<path d="M281.74 68.9715V272.863C281.74 283.287 272.948 291.834 262.226 291.834C251.503 291.834 242.711 283.287 242.711 272.863V68.9715C242.711 58.5476 251.503 50 262.226 50C272.948 50 281.74 58.3391 281.74 68.9715Z" fill="#2871DE"/>
<path d="M343.498 117.964V219.076C343.498 229.499 334.706 238.047 323.983 238.047C313.261 238.047 304.469 229.499 304.469 219.076V117.964C304.469 107.54 313.261 98.9922 323.983 98.9922C334.706 98.9922 343.498 107.54 343.498 117.964Z" fill="#2871DE"/>
</svg>
