<svg width="370" height="400" viewBox="0 0 370 400" fill="none" xmlns="http://www.w3.org/2000/svg">
<g clip-path="url(#clip0_297_156)">
<path fill-rule="evenodd" clip-rule="evenodd" d="M320.028 97.1429C320.028 104.762 318.965 111.429 316.839 118.095C404.023 163.81 359.367 314.286 346.609 352.381C346.609 353.333 344.482 353.333 344.482 352.381C344.482 340 342.356 321.905 332.787 304.762C332.787 306.667 332.787 309.524 332.787 311.429C332.787 343.81 303.017 370.476 266.867 370.476C230.718 370.476 200.948 343.81 200.948 311.429C200.948 305.714 202.011 300 204.138 294.286C204.138 294.286 203.074 294.286 202.011 294.286C197.758 293.333 194.569 292.381 191.379 292.381C188.189 292.381 185 293.333 180.747 294.286C179.684 294.286 179.684 294.286 178.62 294.286C180.747 300 181.81 305.714 181.81 311.429C181.81 343.81 152.04 370.476 115.89 370.476C81.8675 370.476 54.2238 347.619 49.9709 319.048C43.5916 342.857 42.5284 369.524 44.6548 400C45.718 400 43.5916 400 43.5916 400C13.8215 354.286 -12.759 260 6.37896 190.476C23.3905 128.571 73.3617 98.0952 103.132 87.619C109.511 38.0952 155.23 0 211.58 0C271.12 0 320.028 43.8095 320.028 97.1429ZM88.2468 258.095C96.7525 254.286 106.321 252.381 116.954 252.381C140.344 252.381 161.609 263.81 173.304 280C174.367 280 176.494 279.048 178.62 279.048C182.873 278.095 188.189 277.143 192.442 277.143C197.758 277.143 203.074 278.095 207.327 279.048C209.454 279.048 210.517 280 211.58 280C223.276 262.857 243.477 252.381 267.931 252.381C270.057 252.381 273.247 252.381 275.373 252.381C253.046 228.571 243.477 194.286 240.287 173.333C163.735 202.857 116.954 229.524 88.2468 258.095ZM312.586 311.429C312.586 334.286 292.385 352.381 266.867 352.381C241.35 352.381 221.149 334.286 221.149 311.429C221.149 288.571 241.35 270.476 266.867 270.476C292.385 270.476 312.586 288.571 312.586 311.429ZM161.609 311.429C161.609 334.286 141.408 352.381 115.89 352.381C90.3732 352.381 71.2353 333.333 71.2353 311.429C71.2353 288.571 91.4364 270.476 116.954 270.476C142.471 270.476 161.609 288.571 161.609 311.429Z" fill="#600DFF"/>
</g>
<defs>
<clipPath id="clip0_297_156">
<rect width="370" height="400" fill="white"/>
</clipPath>
</defs>
</svg>
