<svg width="400" height="377" viewBox="0 0 400 377" fill="none" xmlns="http://www.w3.org/2000/svg">
<path fill-rule="evenodd" clip-rule="evenodd" d="M149.135 377H249.827V163.803C249.827 143.116 253.287 113.564 275.433 113.564C297.232 113.564 299.308 144.805 299.308 163.803V377H400V119.897C400 59.1041 373.01 0 317.647 0C271.626 0 256.747 21.5308 243.253 40.9507C232.526 20.2643 216.955 0 174.74 0C137.024 0 112.803 24.486 99.654 44.7503V5.48825H0V377H99.308V163.803C99.308 141.85 103.114 113.564 124.221 113.564C146.367 113.564 149.135 141.85 149.135 163.803V377Z" fill="#E20714"/>
</svg>
