<svg width="400" height="400" viewBox="0 0 400 400" fill="none" xmlns="http://www.w3.org/2000/svg">
<path d="M79.5676 187.446C123.244 200.865 151.784 237.23 199.784 237.23C248.649 237.23 284.108 190.476 310.054 187.446C333.405 184.415 369.73 193.073 399.568 207.359V89.1774C400 39.8268 360.216 0 310.919 0H89.0812C39.7838 0 0 39.8268 0 89.1774V200.865C21.6217 190.476 53.6217 179.22 79.5676 187.446Z" fill="#20C58B"/>
<path d="M310.054 187.446C284.108 190.909 248.649 237.229 199.784 237.229C153.514 237.229 123.676 200.866 79.5676 187.446C53.6217 179.22 21.6217 190.476 0 200.866V310.823C0 360.173 39.7838 400 89.0812 400H310.919C360.216 400 400 360.173 400 310.823V206.926C370.162 193.073 333.405 184.415 310.054 187.446Z" fill="#5858E0"/>
<path d="M87.3542 316.448C71.7867 316.448 59.2461 303.895 59.2461 288.309V112.119C59.2461 96.535 71.7867 83.981 87.3542 83.981C102.922 83.981 115.462 96.535 115.462 112.119V287.877C115.462 303.461 102.922 316.448 87.3542 316.448Z" fill="white"/>
<path d="M199.777 276.624C184.21 276.624 171.67 264.071 171.67 248.486V151.949C171.67 136.365 184.21 123.812 199.777 123.812C215.345 123.812 227.886 136.365 227.886 151.949V248.919C227.886 264.071 215.345 276.624 199.777 276.624Z" fill="white"/>
<path d="M312.224 316.448C296.656 316.448 284.115 303.895 284.115 288.309V112.119C284.115 96.535 296.656 83.981 312.224 83.981C327.791 83.981 340.332 96.535 340.332 112.119V287.877C340.332 303.461 327.791 316.448 312.224 316.448Z" fill="white"/>
</svg>
