<svg width="400" height="400" viewBox="0 0 400 400" fill="none" xmlns="http://www.w3.org/2000/svg">
<path d="M200.34 134.842C165.793 134.842 137.795 164.011 137.795 199.806C137.795 235.601 165.861 264.77 200.34 264.77C234.82 264.77 262.886 235.601 262.886 199.806C262.886 164.011 234.82 134.842 200.34 134.842ZM102.965 199.806C102.965 143.926 146.587 98.5908 200.34 98.5908C254.094 98.5908 297.711 143.98 297.711 199.849C297.711 203.715 297.371 207.231 297.042 210.748C296.371 220.589 303.125 227.966 312.592 227.966C328.483 227.966 330.124 206.528 330.124 199.5C330.124 124.641 271.961 64.2028 199.948 64.2028C127.936 64.2028 69.8254 124.646 69.8254 199.505C69.8254 274.364 127.983 334.803 200 334.803C238.157 334.803 272.358 317.584 296.422 290.52L323.132 313.713C292.988 348.858 248.984 371 200 371C108.709 371.011 35 294.042 35 199.505C35 104.615 109.044 28 200 28C291.292 28 365 104.969 365 199.505C365 237.464 347.469 268.389 312.592 268.389C297.04 268.389 287.909 261.007 282.5 252.926C265.258 281.747 234.825 300.721 199.659 300.721C146.576 301.07 102.959 255.729 102.959 199.86L102.965 199.806ZM200.34 169.933C216.232 169.933 229.082 183.286 229.082 199.452C229.082 215.972 216.232 229.324 200.34 229.324C184.449 229.324 171.599 216.026 171.599 199.505C171.939 183.399 184.449 169.987 200.34 169.987V169.933Z" fill="#C02126"/>
</svg>
