<svg width="400" height="332" viewBox="0 0 400 332" fill="none" xmlns="http://www.w3.org/2000/svg">
<path d="M355.414 0H43.949C19.7452 0 0 20.502 0 44.9721V195.761V225.522V332.661L60.5096 271.155H356.051C380.255 271.155 400 250.653 400 226.183V44.9721C399.363 20.502 379.618 0 355.414 0Z" fill="#09C269"/>
<path d="M298.09 104.494C331.211 104.494 346.498 131.61 346.498 157.403C346.498 164.016 341.402 169.307 335.033 169.307H273.886C277.071 184.518 287.262 193.116 303.822 193.116C315.924 193.116 322.294 190.47 328.663 187.163C329.937 186.502 331.848 185.841 333.122 185.841C338.854 185.841 343.95 190.47 343.95 196.422C343.95 200.391 341.402 203.697 337.58 206.343C329.3 210.972 320.383 215.602 302.549 215.602C269.428 215.602 249.682 195.1 249.682 160.048C249.045 119.705 275.797 104.494 298.09 104.494ZM200.638 87.299C204.459 87.299 207.007 90.6057 207.007 93.9125V106.478H225.478C231.211 106.478 236.306 111.108 236.306 117.06C236.306 123.012 231.848 127.642 225.478 127.642H207.007V185.179C207.007 193.116 210.829 193.777 216.561 193.777C219.746 193.777 221.657 193.116 223.568 193.116C224.842 193.116 226.752 192.454 228.026 192.454C232.485 192.454 238.217 196.422 238.217 202.375C238.217 206.343 235.67 209.65 231.848 211.634C226.115 214.279 221.02 215.602 214.65 215.602C194.268 215.602 183.44 205.681 183.44 186.502V128.303H172.612C168.791 128.303 166.243 124.996 166.243 121.689C166.243 119.705 166.88 117.721 168.791 115.737L194.268 89.283C195.542 89.283 197.453 87.299 200.638 87.299ZM81.5294 62.1675C87.8989 62.1675 92.9944 67.4583 92.9944 74.0719V202.375C92.9944 208.988 87.8989 214.279 81.5294 214.279C75.16 214.279 70.0645 208.988 70.0645 202.375V74.0719C70.0645 67.4583 75.16 62.1675 81.5294 62.1675ZM136.307 105.817C142.676 105.817 147.771 111.108 147.771 117.721V202.375C147.771 208.988 142.676 214.279 136.307 214.279C129.937 214.279 124.842 208.988 124.842 202.375V117.721C124.842 111.108 129.937 105.817 136.307 105.817ZM298.727 126.319C287.899 126.319 275.797 132.932 273.886 149.466H324.205C321.02 132.932 309.555 126.319 298.727 126.319ZM136.943 65.4743C143.95 65.4743 149.682 71.4264 149.682 78.7013V79.3627C149.682 86.6376 143.95 92.5898 136.943 92.5898H135.67C128.663 92.5898 122.931 86.6376 122.931 79.3627V78.7013C122.931 71.4264 128.663 65.4743 135.67 65.4743H136.943Z" fill="white"/>
</svg>
