<svg width="318" height="400" viewBox="0 0 318 400" fill="none" xmlns="http://www.w3.org/2000/svg">
<g clip-path="url(#clip0_236_33)">
<path d="M24.4046 126.471C37.883 126.471 48.8093 115.607 48.8093 102.206C48.8093 88.8051 37.883 77.9414 24.4046 77.9414C10.9263 77.9414 0 88.8051 0 102.206C0 115.607 10.9263 126.471 24.4046 126.471Z" fill="#509EE3"/>
<path d="M24.4046 194.853C37.883 194.853 48.8093 183.989 48.8093 170.588C48.8093 157.187 37.883 146.324 24.4046 146.324C10.9263 146.324 0 157.187 0 170.588C0 183.989 10.9263 194.853 24.4046 194.853Z" fill="#509EE3"/>
<path opacity="0.2" d="M91.7015 126.471C105.18 126.471 116.106 115.607 116.106 102.206C116.106 88.8051 105.18 77.9414 91.7015 77.9414C78.2232 77.9414 67.2969 88.8051 67.2969 102.206C67.2969 115.607 78.2232 126.471 91.7015 126.471Z" fill="#509EE3"/>
<path d="M91.7015 195.588C105.18 195.588 116.106 184.724 116.106 171.323C116.106 157.922 105.18 147.059 91.7015 147.059C78.2232 147.059 67.2969 157.922 67.2969 171.323C67.2969 184.724 78.2232 195.588 91.7015 195.588Z" fill="#509EE3"/>
<path opacity="0.2" d="M158.998 126.471C172.477 126.471 183.403 115.607 183.403 102.206C183.403 88.8051 172.477 77.9414 158.998 77.9414C145.52 77.9414 134.594 88.8051 134.594 102.206C134.594 115.607 145.52 126.471 158.998 126.471Z" fill="#509EE3"/>
<path opacity="0.2" d="M158.998 48.5294C172.477 48.5294 183.403 37.6657 183.403 24.2647C183.403 10.8637 172.477 0 158.998 0C145.52 0 134.594 10.8637 134.594 24.2647C134.594 37.6657 145.52 48.5294 158.998 48.5294Z" fill="#509EE3"/>
<path opacity="0.2" d="M158.998 195.588C172.477 195.588 183.403 184.724 183.403 171.323C183.403 157.922 172.477 147.059 158.998 147.059C145.52 147.059 134.594 157.922 134.594 171.323C134.594 184.724 145.52 195.588 158.998 195.588Z" fill="#509EE3"/>
<path opacity="0.2" d="M226.299 126.471C239.778 126.471 250.704 115.607 250.704 102.206C250.704 88.8051 239.778 77.9414 226.299 77.9414C212.821 77.9414 201.895 88.8051 201.895 102.206C201.895 115.607 212.821 126.471 226.299 126.471Z" fill="#509EE3"/>
<path d="M293.596 126.471C307.074 126.471 318.001 115.607 318.001 102.206C318.001 88.8051 307.074 77.9414 293.596 77.9414C280.118 77.9414 269.191 88.8051 269.191 102.206C269.191 115.607 280.118 126.471 293.596 126.471Z" fill="#509EE3"/>
<path d="M226.299 195.588C239.778 195.588 250.704 184.724 250.704 171.323C250.704 157.922 239.778 147.059 226.299 147.059C212.821 147.059 201.895 157.922 201.895 171.323C201.895 184.724 212.821 195.588 226.299 195.588Z" fill="#509EE3"/>
<path d="M293.596 195.588C307.074 195.588 318.001 184.724 318.001 171.323C318.001 157.922 307.074 147.059 293.596 147.059C280.118 147.059 269.191 157.922 269.191 171.323C269.191 184.724 280.118 195.588 293.596 195.588Z" fill="#509EE3"/>
<path d="M24.4046 262.5C37.883 262.5 48.8093 251.636 48.8093 238.235C48.8093 224.834 37.883 213.971 24.4046 213.971C10.9263 213.971 0 224.834 0 238.235C0 251.636 10.9263 262.5 24.4046 262.5Z" fill="#509EE3"/>
<path opacity="0.2" d="M91.7015 263.235C105.18 263.235 116.106 252.372 116.106 238.971C116.106 225.57 105.18 214.706 91.7015 214.706C78.2232 214.706 67.2969 225.57 67.2969 238.971C67.2969 252.372 78.2232 263.235 91.7015 263.235Z" fill="#509EE3"/>
<path d="M158.998 263.235C172.477 263.235 183.403 252.372 183.403 238.971C183.403 225.57 172.477 214.706 158.998 214.706C145.52 214.706 134.594 225.57 134.594 238.971C134.594 252.372 145.52 263.235 158.998 263.235Z" fill="#509EE3"/>
<path opacity="0.2" d="M226.299 263.235C239.778 263.235 250.704 252.372 250.704 238.971C250.704 225.57 239.778 214.706 226.299 214.706C212.821 214.706 201.895 225.57 201.895 238.971C201.895 252.372 212.821 263.235 226.299 263.235Z" fill="#509EE3"/>
<path d="M293.596 263.235C307.074 263.235 318.001 252.372 318.001 238.971C318.001 225.57 307.074 214.706 293.596 214.706C280.118 214.706 269.191 225.57 269.191 238.971C269.191 252.372 280.118 263.235 293.596 263.235Z" fill="#509EE3"/>
<path d="M24.4046 330.882C37.883 330.882 48.8093 320.019 48.8093 306.618C48.8093 293.217 37.883 282.353 24.4046 282.353C10.9263 282.353 0 293.217 0 306.618C0 320.019 10.9263 330.882 24.4046 330.882Z" fill="#509EE3"/>
<path opacity="0.2" d="M91.7015 331.618C105.18 331.618 116.106 320.754 116.106 307.353C116.106 293.952 105.18 283.088 91.7015 283.088C78.2232 283.088 67.2969 293.952 67.2969 307.353C67.2969 320.754 78.2232 331.618 91.7015 331.618Z" fill="#509EE3"/>
<path opacity="0.2" d="M158.998 331.618C172.477 331.618 183.403 320.754 183.403 307.353C183.403 293.952 172.477 283.088 158.998 283.088C145.52 283.088 134.594 293.952 134.594 307.353C134.594 320.754 145.52 331.618 158.998 331.618Z" fill="#509EE3"/>
<path opacity="0.2" d="M158.998 400C172.477 400 183.403 389.136 183.403 375.735C183.403 362.334 172.477 351.471 158.998 351.471C145.52 351.471 134.594 362.334 134.594 375.735C134.594 389.136 145.52 400 158.998 400Z" fill="#509EE3"/>
<path opacity="0.2" d="M226.299 331.618C239.778 331.618 250.704 320.754 250.704 307.353C250.704 293.952 239.778 283.088 226.299 283.088C212.821 283.088 201.895 293.952 201.895 307.353C201.895 320.754 212.821 331.618 226.299 331.618Z" fill="#509EE3"/>
<path d="M293.596 331.618C307.074 331.618 318.001 320.754 318.001 307.353C318.001 293.952 307.074 283.088 293.596 283.088C280.118 283.088 269.191 293.952 269.191 307.353C269.191 320.754 280.118 331.618 293.596 331.618Z" fill="#509EE3"/>
</g>
<defs>
<clipPath id="clip0_236_33">
<rect width="318" height="400" fill="white"/>
</clipPath>
</defs>
</svg>
