<svg width="400" height="400" viewBox="0 0 400 400" fill="none" xmlns="http://www.w3.org/2000/svg">
<g clip-path="url(#clip0_535_45)">
<path d="M149.943 58H238.743L146.686 331.872C144.8 337.718 139.314 341.5 133.314 341.5H64.0571C56.1714 341.5 50 335.139 50 327.402C50 325.855 50.1714 324.308 50.6857 322.932L136.571 67.6277C138.457 61.9542 143.943 58 149.943 58Z" fill="url(#paint0_linear_535_45)"/>
<path d="M279.027 241.613H138.284C134.684 241.613 131.77 244.536 131.77 248.146C131.77 250.037 132.455 251.757 133.827 252.96L224.341 337.546C226.912 339.953 230.512 341.328 234.112 341.328H313.827L279.027 241.613Z" fill="#0078D4"/>
<path d="M149.943 58C143.771 58 138.286 61.9542 136.571 67.7996L50.8571 322.417C48.2857 329.809 52.0571 337.89 59.4286 340.468C60.9714 340.984 62.5143 341.328 64.2286 341.328H135.029C140.343 340.297 144.8 336.514 146.686 331.357L163.829 280.811L224.857 338.233C227.429 340.297 230.686 341.5 233.943 341.5H313.314L278.514 241.613H177.029L239.086 58H149.943Z" fill="url(#paint1_linear_535_45)"/>
<path d="M263.43 67.6277C261.545 61.7823 256.059 58 250.059 58H151.145C157.145 58 162.63 61.9542 164.516 67.6277L250.23 322.76C252.802 330.153 248.687 338.233 241.316 340.64C239.945 341.156 238.402 341.328 236.859 341.328H335.773C343.659 341.328 349.83 334.967 349.83 327.23C349.83 325.683 349.659 324.136 349.145 322.76L263.43 67.6277Z" fill="url(#paint2_linear_535_45)"/>
</g>
<defs>
<linearGradient id="paint0_linear_535_45" x1="182.357" y1="79.009" x2="89.6937" y2="351.973" gradientUnits="userSpaceOnUse">
<stop stop-color="#114A8B"/>
<stop offset="1" stop-color="#0765B6"/>
</linearGradient>
<linearGradient id="paint1_linear_535_45" x1="211.153" y1="206.289" x2="189.816" y2="213.483" gradientUnits="userSpaceOnUse">
<stop stop-opacity="0.3"/>
<stop offset="0.071" stop-opacity="0.2"/>
<stop offset="0.321" stop-opacity="0.1"/>
<stop offset="0.623" stop-opacity="0.05"/>
<stop offset="1" stop-opacity="0"/>
</linearGradient>
<linearGradient id="paint2_linear_535_45" x1="200.091" y1="70.7938" x2="301.795" y2="340.975" gradientUnits="userSpaceOnUse">
<stop stop-color="#3BC9F3"/>
<stop offset="1" stop-color="#2892DF"/>
</linearGradient>
<clipPath id="clip0_535_45">
<rect width="300" height="283.5" fill="white" transform="translate(50 58)"/>
</clipPath>
</defs>
</svg>
