<svg width="400" height="400" viewBox="0 0 400 400" fill="none" xmlns="http://www.w3.org/2000/svg">
<g clip-path="url(#clip0_314_211)">
<path d="M86.6667 0H313.333C360.833 0 400 39.1667 400 86.6667V313.333C400 360.833 360.833 400 313.333 400H86.6667C39.1667 400 0 360.833 0 313.333V86.6667C0 39.1667 39.1667 0 86.6667 0Z" fill="#FFD02F"/>
<path fill-rule="evenodd" clip-rule="evenodd" d="M277.5 50H233.333L270 114.167L190 50H145.833L185.833 128.333L102.5 50H58.3333L102.5 150L58.3333 350H102.5L186.667 135.833L145.833 350H190L270.833 121.667L234.167 350H278.333L358.333 100L277.5 50Z" fill="#050038"/>
</g>
<defs>
<clipPath id="clip0_314_211">
<rect width="400" height="400" fill="white"/>
</clipPath>
</defs>
</svg>
