<svg width="400" height="400" viewBox="0 0 400 400" fill="none" xmlns="http://www.w3.org/2000/svg">
<path d="M322.727 63H268.182V117.546H322.727V63Z" fill="black"/>
<path d="M350.001 63H295.455V117.546H350.001V63Z" fill="#F7D046"/>
<path d="M104.545 63H50V117.546H104.545V63Z" fill="black"/>
<path d="M104.545 117.546H50V172.092H104.545V117.546Z" fill="black"/>
<path d="M104.545 172.092H50V226.638H104.545V172.092Z" fill="black"/>
<path d="M104.545 226.638H50V281.184H104.545V226.638Z" fill="black"/>
<path d="M104.545 281.184H50V335.73H104.545V281.184Z" fill="black"/>
<path d="M131.819 63H77.2734V117.546H131.819V63Z" fill="#F7D046"/>
<path d="M350.001 117.546H295.455V172.092H350.001V117.546Z" fill="#F2A73B"/>
<path d="M131.819 117.546H77.2734V172.092H131.819V117.546Z" fill="#F2A73B"/>
<path d="M268.182 117.546H213.637V172.092H268.182V117.546Z" fill="black"/>
<path d="M295.454 117.546H240.908V172.092H295.454V117.546Z" fill="#F2A73B"/>
<path d="M186.364 117.546H131.818V172.092H186.364V117.546Z" fill="#F2A73B"/>
<path d="M240.909 172.092H186.363V226.638H240.909V172.092Z" fill="#EE792F"/>
<path d="M295.454 172.092H240.908V226.638H295.454V172.092Z" fill="#EE792F"/>
<path d="M186.364 172.092H131.818V226.638H186.364V172.092Z" fill="#EE792F"/>
<path d="M213.637 226.638H159.092V281.184H213.637V226.638Z" fill="black"/>
<path d="M240.909 226.638H186.363V281.184H240.909V226.638Z" fill="#EB5829"/>
<path d="M350.001 172.092H295.455V226.638H350.001V172.092Z" fill="#EE792F"/>
<path d="M131.819 172.092H77.2734V226.638H131.819V172.092Z" fill="#EE792F"/>
<path d="M322.727 226.638H268.182V281.184H322.727V226.638Z" fill="black"/>
<path d="M350.001 226.638H295.455V281.184H350.001V226.638Z" fill="#EB5829"/>
<path d="M322.727 281.184H268.182V335.73H322.727V281.184Z" fill="black"/>
<path d="M131.819 226.638H77.2734V281.184H131.819V226.638Z" fill="#EB5829"/>
<path d="M350.001 281.184H295.455V335.73H350.001V281.184Z" fill="#EA3326"/>
<path d="M131.819 281.184H77.2734V335.73H131.819V281.184Z" fill="#EA3326"/>
</svg>
