<svg width="400" height="388" viewBox="0 0 400 388" fill="none" xmlns="http://www.w3.org/2000/svg">
<g clip-path="url(#clip0_237_58)">
<path d="M116.116 160.083H166.962C154.23 151.972 149.476 140.666 143.11 119.693L124.013 47.7627C115.31 15.402 108.139 0.0819257 73.1668 0.0819257H0.0805802V19.4983H10.4754C31.9098 19.4983 34.3272 27.609 40.693 51.859L57.3731 114.942C66.0757 145.582 79.6938 160.083 116.116 160.083ZM233.844 160.083H284.69C321.273 160.083 333.924 145.5 342.707 114.86L359.388 51.777C365.753 27.527 368.896 19.4164 389.605 19.4164H400V0H327.639C291.861 0 284.69 14.5828 276.712 47.6807L257.615 119.611C251.33 141.404 246.495 151.972 233.844 160.083ZM167.043 227.917H233.844V160.001H167.043V227.917ZM0.0805802 388H73.1668C108.139 388 115.31 372.598 124.013 340.319L143.11 268.389C149.476 247.416 154.23 236.028 166.962 227.999H116.116C79.5326 227.999 65.9952 242.582 57.2925 273.222L40.6124 336.305C34.2466 360.555 31.9098 368.666 10.3948 368.666H0L0.0805802 388ZM327.558 388H399.919V368.584H389.525C368.896 368.584 365.673 360.473 359.307 336.223L342.627 273.14C333.924 242.418 321.193 227.917 284.609 227.917H233.844C246.575 236.028 251.168 246.514 257.534 268.307L276.632 340.237C284.609 373.417 291.781 388 327.558 388Z" fill="#7856FF"/>
</g>
<defs>
<clipPath id="clip0_237_58">
<rect width="400" height="388" fill="white"/>
</clipPath>
</defs>
</svg>
