<?xml version="1.0" encoding="UTF-8"?>
<svg width="227px" height="41px" viewBox="0 0 227 41" version="1.1" xmlns="http://www.w3.org/2000/svg" xmlns:xlink="http://www.w3.org/1999/xlink">
    <!-- Generator: Sketch 52.3 (67297) - http://www.bohemiancoding.com/sketch -->
    <title>monday logowednesy-01 copy 8</title>
    <desc>Created with Sketch.</desc>
    <g id="Page-1" stroke="none" stroke-width="1" fill="none" fill-rule="evenodd">
        <g id="monday.Brandbook" transform="translate(-82.000000, -7045.000000)">
            <g id="monday-logowednesy-01-copy-8" transform="translate(82.000000, 7045.000000)">
                <path d="M4.83098706,30.9421549 C3.14254296,30.9405946 1.58793708,30.0318604 0.770760609,28.5687774 C-0.0464158638,27.1056944 0.0025599962,25.3187296 0.898672825,23.90169 L9.25980562,10.6836105 C10.1186024,9.24433866 11.6984211,8.37981755 13.3860172,8.42563176 C15.0736133,8.47144597 16.6032245,9.42038069 17.3810956,10.9040841 C18.1589667,12.3877876 18.0625987,14.1726065 17.1293991,15.5657206 L8.77323139,28.7838001 C7.92331498,30.128679 6.43314963,30.9445354 4.83098706,30.9421549 Z" id="Shape" fill="#FB275D" fill-rule="nonzero"></path>
                <path d="M19.23706,30.9421549 C17.5486159,30.9405946 15.99401,30.0318604 15.1768335,28.5687774 C14.3596571,27.1056944 14.4086329,25.3187296 15.3047458,23.90169 L23.663396,10.6836105 C24.5101065,9.21987016 26.0980584,8.33254497 27.8011147,8.37151163 C29.5041709,8.41047829 31.0490402,9.36948377 31.8265729,10.8703875 C32.6041056,12.3712912 32.4895303,14.1732415 31.5280245,15.5657206 L23.1693742,28.7838001 C22.3213301,30.1257131 20.8356919,30.941145 19.23706,30.9421549 Z" id="Shape" fill="#FFCC00" fill-rule="nonzero"></path>
                <ellipse id="Oval" fill="#00CA72" fill-rule="nonzero" cx="33.6406504" cy="26.4484503" rx="4.64976299" ry="4.49370454"></ellipse>
                <path d="M222.930441,23.8009012 C224.261073,23.8009012 225.05548,24.725208 225.05548,26.239498 L225.05548,31.4313492 L226.862755,31.4313492 L226.862755,26.1215014 C226.862755,23.5452419 225.621494,22.050618 223.287924,22.050618 C222.374356,22.050618 220.924564,22.2964443 220.060646,23.9385639 C219.645688,22.9470604 218.715735,22.2601855 217.637705,22.1489485 C217.303707,22.0890196 216.963627,22.0692103 216.624836,22.0899502 C215.88008,22.1489485 214.559378,22.6012689 214.062874,23.6239063 L214.062874,22.2472791 L212.255598,22.2472791 L212.255598,31.4313492 L214.062874,31.4313492 L214.062874,26.4754912 C214.062874,24.5482131 215.353785,23.8009012 216.644696,23.8009012 C217.856167,23.8009012 218.650574,24.7055419 218.650574,26.2198319 L218.650574,31.4313492 L220.447919,31.4313492 L220.447919,26.4754912 C220.447919,24.9415352 221.388795,23.7812351 222.930441,23.8009012 Z M205.617335,29.8973931 C206.443845,29.9135911 207.240506,29.591505 207.819386,29.0071157 C208.398265,28.4227265 208.708101,27.6277832 208.675802,26.809815 C208.675802,24.9612013 207.28559,23.8009012 205.617335,23.8009012 C203.949081,23.8009012 202.558869,24.9612013 202.558869,26.809815 C202.526716,27.6256117 202.834882,28.4185831 203.411025,29.0025802 C203.987169,29.5865774 204.780549,29.9101693 205.604923,29.8973931 L205.617335,29.8973931 Z M205.617335,31.6181772 C202.975932,31.6181772 200.771453,29.7105652 200.771453,26.7999819 C200.771453,23.8893987 202.975932,22.040785 205.617335,22.040785 C208.258738,22.040785 210.483078,23.8893987 210.483078,26.7999819 C210.483078,29.7105652 208.246326,31.6280102 205.604923,31.6280102 L205.617335,31.6181772 Z M191.466962,26.7999819 C191.466962,29.7105652 193.731022,31.6181772 196.372425,31.6181772 C197.729425,31.6418174 199.033939,31.0994179 199.967116,30.1235533 L198.576904,28.9829194 C197.68516,29.865699 196.344253,30.1297378 195.179284,29.651947 C194.014316,29.1741562 193.254631,28.0485981 193.254378,26.7999819 C193.254378,24.9513682 194.70417,23.7910682 196.372425,23.7910682 C197.193859,23.7796806 197.986439,24.0907861 198.576904,24.6563767 L199.947256,23.5157427 C199.017444,22.549154 197.720253,22.0139395 196.372425,22.040785 C193.711162,22.050618 191.447102,23.8992317 191.447102,26.809815 L191.466962,26.7999819 Z" id="Shape" fill="#333333" fill-rule="nonzero"></path>
                <path d="M190.307624,11.025309 L183.932509,11.025309 L179.46397,22.3333183 L175.017774,11.025309 L168.642658,11.025309 L176.395573,28.8944219 L171.572034,40.706375 L177.902464,40.706375 L190.307624,11.025309 Z M152.029624,20.9616076 C152.029624,23.818109 154.571726,25.6962219 157.069143,25.6962219 C159.524356,25.6962219 161.934885,23.948397 161.934885,20.9616076 C161.934885,17.9748182 159.524356,16.224535 157.069143,16.224535 C154.571726,16.224535 152.029624,18.1051061 152.029624,20.9616076 Z M161.934885,30.9396966 L161.934885,28.680553 C160.643974,30.6004563 157.62771,31.3256439 156.078616,31.3256439 C150.954692,31.3256439 145.828285,27.3604659 145.828285,20.9616076 C145.828285,14.5627493 150.952209,10.5975713 156.078616,10.5975713 C157.369528,10.5975713 160.385791,11.0228508 161.934885,13.2426621 L161.934885,11.0302255 L167.878042,11.0302255 L167.878042,30.9421549 L161.934885,30.9396966 Z M144.137687,30.9396966 L138.194531,30.9396966 L138.194531,28.4666841 C137.201522,30.3005483 134.793476,31.3674343 132.293577,31.3674343 C127.124967,31.3674343 122.55961,27.3162171 122.55961,21.0427303 C122.55961,14.6512468 127.124967,10.595113 132.293577,10.595113 C134.790994,10.595113 137.204005,11.6177504 138.194531,13.4516145 L138.194531,0.176994927 L144.137687,0.176994927 L144.137687,30.9396966 Z M138.06544,20.9173588 C138.06544,17.9330277 135.868408,16.1827445 133.413194,16.1827445 C130.871092,16.1827445 128.760949,18.0583991 128.760949,20.9173588 C128.760949,23.8672743 130.871092,25.7355541 133.413194,25.7355541 C135.913093,25.7380124 138.06544,23.7763186 138.06544,20.9173588 Z M107.865564,20.4035819 C107.865564,17.375002 109.459343,16.3523647 111.569486,16.3523647 C113.592742,16.3523647 115.057429,17.6749101 115.057429,20.3175427 L115.057429,30.9372383 L121.042789,30.9372383 L121.042789,19.039246 C121.042789,13.3680335 118.200302,10.595113 113.677147,10.595113 C111.308822,10.595113 108.940496,11.9176584 107.863082,13.9211427 L107.863082,11.025309 L101.880205,11.025309 L101.880205,30.9372383 L107.865564,30.9372383 L107.865564,20.4035819 Z M89.7232962,31.2789369 C84.0383217,31.2789369 79.2967054,27.1859292 79.2967054,20.9149006 C79.2967054,14.643872 84.0333567,10.5901965 89.7232962,10.5901965 C95.4132358,10.5901965 100.189607,14.6414137 100.189607,20.9149006 C100.189607,27.1883875 95.4082707,31.2813951 89.7232962,31.2813951 L89.7232962,31.2789369 Z M89.7232962,25.4798948 C92.220713,25.4798948 94.2886535,23.6878211 94.2886535,20.9173588 C94.2886535,18.2304775 92.220713,16.3966134 89.7232962,16.3966134 C88.5102818,16.3767835 87.3416498,16.8480939 86.4877949,17.7014941 C85.6339399,18.5548943 85.168852,19.7164337 85.2001418,20.9173588 C85.2026244,23.6902794 87.2680823,25.482353 89.7232962,25.482353 L89.7232962,25.4798948 Z M68.567247,16.3548229 C70.3323199,16.3548229 71.8838959,17.7191588 71.8838959,20.320001 L71.8838959,30.9396966 L77.8270526,30.9396966 L77.8270526,19.6316874 C77.8270526,13.6187764 74.8480267,10.5901965 70.0741376,10.5901965 C68.6541353,10.5901965 65.982942,11.015476 64.0440926,14.130095 C62.9244754,11.8267027 60.7721291,10.631987 57.5895364,10.631987 C55.3409089,10.6163682 53.2890998,11.8991803 52.3365207,13.9162262 L52.3365207,11.025309 L46.346196,11.025309 L46.346196,30.9372383 L52.3315556,30.9372383 L52.3315556,20.4035819 C52.3315556,17.375002 54.0122228,16.3523647 55.8194985,16.3523647 C57.5423685,16.3523647 59.091462,17.6749101 59.1361474,20.189713 L59.1361474,30.9372383 L65.121507,30.9372383 L65.121507,20.4035819 C65.121507,17.5077482 66.673083,16.3548229 68.567247,16.3548229 Z" id="Shape" fill="#333333"></path>
                <path d="M185.940869,29.9170592 C185.983349,30.5976149 186.553127,31.1280284 187.24171,31.1280284 C187.930293,31.1280284 188.500072,30.5976149 188.542552,29.9170592 C188.542552,29.2056448 187.960145,28.6289295 187.24171,28.6289295 C186.523275,28.6289295 185.940869,29.2056448 185.940869,29.9170592 Z" id="Shape" fill="#333333" fill-rule="nonzero"></path>
            </g>
        </g>
    </g>
</svg>