<svg width="400" height="400" viewBox="0 0 400 284" fill="none" xmlns="http://www.w3.org/2000/svg">
<path fill-rule="evenodd" clip-rule="evenodd" d="M196.231 240.444C116.575 234.238 90.7019 189.947 83.4791 159.305C83.4791 159.305 99.0539 163.578 119.4 166.402C119.457 166.411 124.901 167.178 125.011 165.709C125.225 162.878 79.1501 149.129 56.8261 110.336C39.4059 80.0625 38.3402 51.0347 38.3402 51.0347C85.0848 60.1834 113.811 71.6458 260.875 67.9302C306.416 67.9302 326.732 77.4802 326.732 134.06C326.732 173.571 309.688 239.677 196.231 240.444ZM400 131.947C400 124.543 392.26 119.794 382.69 116.746L382.88 116.548C382.88 116.548 382.308 116.501 381.402 116.35C379.862 115.893 378.285 115.474 376.691 115.096C374.537 114.29 372.229 113.057 370.499 111.162C368.498 108.972 367.291 106.186 366.563 103.805C360.493 62.7627 337.539 25.2149 260.875 25.2149H127.72C123.212 25.0614 110.975 24.3472 81.9832 21.1304C53.8659 18.011 28.7089 9.02765 28.475 8.94502L3.79441 0L0.73028 26.5783C0.357732 29.8069 -7.64193 104.776 39.7496 142.822L39.7091 143.262C37.8868 163.389 45.4822 207.297 86.653 242.811C175.897 319.799 297.191 271.473 328.22 237.608C347.638 216.41 361.567 191.375 366.381 161.329C367.086 158.829 368.328 155.745 370.499 153.367C371.441 152.337 372.556 151.511 373.72 150.832C376.836 150.02 379.943 149.079 382.874 147.981C392.358 144.437 400 139.302 400 131.947ZM283.292 93.5641C272.961 93.5641 266.007 100.063 266.007 112.044C266.007 123.212 272.961 129.51 283.292 129.51C293.431 129.51 300.784 122.807 300.784 111.841C300.784 99.859 294.621 93.5641 283.292 93.5641Z" fill="#3291F0"/>
</svg>
