<svg width="400" height="400" viewBox="0 0 400 400" fill="none" xmlns="http://www.w3.org/2000/svg">
<path d="M266.668 83.3333C266.668 64.9238 281.592 50 300.001 50H316.668C335.078 50 350.001 64.9238 350.001 83.3333V316.667C350.001 335.076 335.078 350 316.668 350H300.001C281.592 350 266.668 335.076 266.668 316.667V83.3333Z" fill="#FFCE00"/>
<path d="M158.332 158.333C158.332 139.924 173.256 125 191.665 125H208.332C226.742 125 241.665 139.924 241.665 158.333V241.667C241.665 260.076 226.742 275 208.332 275H191.665C173.256 275 158.332 260.076 158.332 241.667V158.333Z" fill="#FFCE00"/>
<path d="M50 83.3333C50 64.9238 64.9238 50 83.3333 50H100C118.41 50 133.333 64.9238 133.333 83.3333V316.667C133.333 335.076 118.41 350 100 350H83.3333C64.9238 350 50 335.076 50 316.667V83.3333Z" fill="#FFCE00"/>
</svg>
