<svg width="400" height="400" viewBox="0 0 400 400" fill="none" xmlns="http://www.w3.org/2000/svg">
<path d="M324.388 114C319.275 114 314.254 115.379 309.848 117.994C305.441 120.608 301.808 124.363 299.326 128.869L298.743 130.08L276.413 174.724L248 231.152L266.614 268.122L267.634 270.142C270.504 275.258 274.832 279.389 280.056 282C285.274 279.38 289.599 275.251 292.478 270.142L293.498 268.122L349.268 157.212L350.616 154.531C352.513 150.145 353.297 145.351 352.899 140.583C352.501 135.814 350.932 131.221 348.334 127.215C345.737 123.21 342.191 119.918 338.018 117.637C333.844 115.356 329.173 114.156 324.425 114.147L324.388 114Z" fill="#FF5100"/>
<path d="M150.927 167.582L132.203 130.849L131.175 128.828C128.307 123.712 123.954 119.588 118.693 117C113.441 119.584 109.091 123.694 106.211 128.791L105.146 130.849L48.866 241.71L47.5077 244.355C44.4726 251.155 44.1814 258.866 46.6949 265.877C49.2083 272.887 54.3319 278.654 60.9953 281.974C67.6587 285.293 75.3462 285.908 82.4518 283.689C89.5574 281.471 95.5313 276.59 99.1253 270.068L99.7495 268.893L122.401 224.225L151 167.802L150.927 167.582Z" fill="#FF5100"/>
<path d="M324.139 114C318.993 114.003 313.941 115.384 309.508 117.998C305.075 120.613 301.422 124.366 298.928 128.869L298.304 130.08L275.661 174.724L247 231.152L265.789 268.122L266.817 270.142C269.697 275.266 274.06 279.4 279.331 282C284.602 279.4 288.964 275.266 291.845 270.142L292.909 268.122L349.277 157.212L350.598 154.531C352.509 150.145 353.3 145.351 352.898 140.583C352.497 135.814 350.917 131.221 348.3 127.215C345.683 123.21 342.111 119.918 337.906 117.637C333.702 115.356 328.996 114.156 324.212 114.147L324.139 114Z" fill="url(#paint0_linear_333_78)"/>
<path d="M73.9143 285C79.0386 285.015 84.0742 283.662 88.5026 281.081C92.9309 278.5 96.5919 274.783 99.1083 270.315L99.7318 269.103L122.395 224.46L151 168.031L132.26 130.878L131.233 128.858C128.334 123.737 123.965 119.605 118.691 117C113.432 119.611 109.076 123.742 106.186 128.858L105.159 130.878L48.7569 241.788L47.4001 244.468C45.4905 248.855 44.7006 253.649 45.1016 258.417C45.5026 263.185 47.0817 267.779 49.697 271.785C52.3122 275.79 55.8814 279.082 60.0833 281.363C64.2851 283.644 68.9877 284.844 73.7676 284.853L73.9143 285Z" fill="url(#paint1_linear_333_78)"/>
<path d="M151.207 167.619L132.52 130.868L131.495 128.847C128.619 123.717 124.263 119.579 119 116.977C120.75 116.117 122.578 115.428 124.459 114.919C126.855 114.31 129.316 114.001 131.788 114H170.92C176.029 114.014 181.044 115.381 185.458 117.962C189.871 120.543 193.527 124.248 196.056 128.7L197.082 130.721L247.683 231.271L266.333 268.021L267.359 270.043C270.267 275.227 274.675 279.404 280 282.023C276.037 283.956 271.692 284.973 267.286 285H227.933C222.83 284.983 217.821 283.615 213.414 281.034C209.007 278.452 205.357 274.75 202.834 270.3L201.772 268.279L151.207 167.619Z" fill="#FF8C44"/>
<defs>
<linearGradient id="paint0_linear_333_78" x1="261.165" y1="273.519" x2="334.685" y2="115.933" gradientUnits="userSpaceOnUse">
<stop stop-color="#D4202C"/>
<stop offset="0.1" stop-color="#DC3D29" stop-opacity="0.79"/>
<stop offset="0.2" stop-color="#E45926" stop-opacity="0.58"/>
<stop offset="0.32" stop-color="#EA7123" stop-opacity="0.4"/>
<stop offset="0.43" stop-color="#F08521" stop-opacity="0.25"/>
<stop offset="0.55" stop-color="#F4941F" stop-opacity="0.14"/>
<stop offset="0.68" stop-color="#F79F1E" stop-opacity="0.06"/>
<stop offset="0.82" stop-color="#F8A51D" stop-opacity="0.02"/>
<stop offset="1" stop-color="#F9A71D" stop-opacity="0"/>
</linearGradient>
<linearGradient id="paint1_linear_333_78" x1="136.844" y1="125.481" x2="63.292" y2="283.028" gradientUnits="userSpaceOnUse">
<stop stop-color="#D4202C"/>
<stop offset="0.1" stop-color="#DC3D29" stop-opacity="0.79"/>
<stop offset="0.2" stop-color="#E45926" stop-opacity="0.58"/>
<stop offset="0.32" stop-color="#EA7123" stop-opacity="0.4"/>
<stop offset="0.43" stop-color="#F08521" stop-opacity="0.25"/>
<stop offset="0.55" stop-color="#F4941F" stop-opacity="0.14"/>
<stop offset="0.68" stop-color="#F79F1E" stop-opacity="0.06"/>
<stop offset="0.82" stop-color="#F8A51D" stop-opacity="0.02"/>
<stop offset="1" stop-color="#F9A71D" stop-opacity="0"/>
</linearGradient>
</defs>
</svg>
