<svg enable-background="new 0 0 178.6 180" viewBox="0 0 178.6 180" xmlns="http://www.w3.org/2000/svg"><path d="m41.9 0h94.9c23.1 0 41.9 18.7 41.9 41.9v96.3c0 23.1-18.7 41.9-41.9 41.9h-94.9c-23.2-.1-41.9-18.8-41.9-42v-96.2c0-23.2 18.7-41.9 41.9-41.9z" fill="#7bc475"/><path d="m112.7 99.3v-2.4c0-10.8.1-21.6-.1-32.4-.2-7.1-4.2-10.9-11.3-11.4-.4 0-.8-.1-1.1-.1v-5.2h31.4v4.9c-2.3.7-4.6 1.2-6.5 2.2-3.1 1.6-4.4 4.6-4.8 7.9-.3 2.3-.4 4.7-.4 7.1v61.3c0 .8.5 2-1 2.2s-2.8 1.5-4.3-.1c-5-5.3-10.1-10.6-15.1-15.9-6.5-6.8-13-13.6-19.4-20.4-4.6-4.8-9.2-9.6-13.8-14.4-1.7-1.7-3.3-3.6-5.2-5.6-.1.9-.1 1.3-.1 1.8 0 11.8-.1 23.7 0 35.5 0 3.5.8 7 3.3 9.7 2.1 2.4 5.1 3.2 8.2 3.5.5.1 1 .1 1.6.1v5.1h-31.9v-4.8c1.9-.6 3.8-.9 5.5-1.8 2.5-1.3 3.8-3.6 4.4-6.3.5-1.9.7-3.9.7-5.9.1-18.3 0-36.7 0-55 0-2.6-.7-3.8-3.3-4.5-2.9-.7-6-1-9.1-1.5v-5.4h1.8c6.5.1 13 .1 19.5 0 2.1-.1 3.5.6 4.9 2.2 2.5 2.9 5.3 5.8 7.9 8.6 7 7.4 13.9 14.9 20.9 22.3 4.6 4.9 9.2 9.8 13.7 14.8 1.1 1.1 2.2 2.3 3.6 3.9z" fill="#fff"/><path d="m132.3 124.7c.1-5.3 4.4-9.5 9.7-9.5 5.3.1 9.5 4.4 9.5 9.7-.1 5.3-4.4 9.5-9.6 9.5s-9.5-4.3-9.5-9.5c-.1-.1-.1-.1-.1-.2z" fill="#4e4e4e"/></svg>