<svg width="400" height="400" viewBox="0 0 400 400" fill="none" xmlns="http://www.w3.org/2000/svg">
<g clip-path="url(#clip0_209_196)">
<path fill-rule="evenodd" clip-rule="evenodd" d="M262.016 0L215.504 105.439C213.953 102.929 213.178 102.092 211.628 99.5816C204.651 92.0502 196.124 85.3557 186.822 81.1716C177.519 76.9874 167.442 74.477 156.589 74.477C141.085 74.477 127.132 78.6611 113.953 87.8661C101.55 97.0711 91.4729 108.787 85.2713 123.849L0 330.544L137.984 400L184.496 295.397C186.047 297.908 186.047 298.745 188.372 301.255C195.349 308.787 203.876 315.481 213.954 319.665C223.256 323.849 233.333 326.36 244.186 326.36C259.69 326.36 273.643 322.176 286.047 312.971C298.45 303.766 307.752 292.05 314.729 276.987L400 68.6192L262.016 0Z" fill="#276DF6"/>
</g>
<defs>
<clipPath id="clip0_209_196">
<rect width="400" height="400" fill="white"/>
</clipPath>
</defs>
</svg>
