<svg width="400" height="400" viewBox="0 0 400 400" fill="none" xmlns="http://www.w3.org/2000/svg">
<path d="M140.382 169.29C156.902 169.29 170.293 182.815 170.293 199.5C170.293 207.836 166.95 215.382 161.546 220.848L190.798 262.125C193.759 261.134 196.915 260.579 200.204 260.579C203.523 260.579 206.706 261.147 209.689 262.155L227.302 235.982C229.575 232.609 234.125 231.734 237.464 234.026C240.806 236.32 241.674 240.916 239.402 244.29L222.001 270.147C227.019 275.549 230.115 282.797 230.115 290.789C230.115 307.475 216.723 321 200.204 321C183.684 321 170.293 307.475 170.293 290.789C170.293 282.771 173.408 275.502 178.455 270.093L148.934 228.441C146.224 229.259 143.356 229.711 140.382 229.711C136.889 229.711 133.549 229.074 130.433 227.963L102.956 271.532C107.243 276.76 109.822 283.469 109.822 290.789C109.822 307.475 96.4297 321 79.9109 321C63.3922 321 50 307.475 50 290.789C50 274.104 63.3922 260.579 79.9109 260.579C83.8777 260.579 87.6559 261.375 91.1199 262.792L118.251 219.772C113.432 214.41 110.472 207.313 110.472 199.5C110.472 182.815 123.863 169.29 140.382 169.29ZM320.09 78C336.609 78 350 91.5254 350 108.211C350 124.896 336.609 138.421 320.09 138.421C316.452 138.421 312.98 137.732 309.755 136.531L282.383 179.933C286.831 185.206 289.529 192.03 289.529 199.499C289.529 216.185 276.138 229.712 259.618 229.712C243.099 229.712 229.708 216.185 229.708 199.499C229.708 191.531 232.786 184.304 237.779 178.905L208.212 137.188C205.541 137.978 202.722 138.421 199.797 138.421C196.827 138.421 193.962 137.969 191.254 137.155L172.7 164.726C170.426 168.101 165.878 168.974 162.537 166.683C159.195 164.389 158.328 159.794 160.599 156.418L178.659 129.584C173.239 124.116 169.886 116.559 169.886 108.211C169.886 91.5254 183.278 78 199.797 78C216.316 78 229.708 91.5254 229.708 108.211C229.708 116.595 226.323 124.177 220.862 129.652L250.085 170.885C253.081 169.864 256.282 169.289 259.618 169.289C263.441 169.289 267.083 170.041 270.443 171.361L297.68 128.173C293.026 122.848 290.179 115.873 290.179 108.211C290.179 91.5254 303.57 78 320.09 78Z" fill="#546FFF"/>
</svg>
