<svg width="400" height="400" viewBox="0 0 400 400" fill="none" xmlns="http://www.w3.org/2000/svg">
<g clip-path="url(#clip0_330_72)">
<mask id="mask0_330_72" style="mask-type:luminance" maskUnits="userSpaceOnUse" x="51" y="68" width="299" height="264">
<path d="M350 68H51V331.147H350V68Z" fill="white"/>
</mask>
<g mask="url(#mask0_330_72)">
<path d="M131.807 287.73H128.984L114.891 273.635V270.811L136.435 249.264H151.361L153.351 251.255V266.182L131.807 287.73Z" fill="#05BDBA"/>
<path d="M114.891 128.314V125.49L128.984 111.395H131.807L153.351 132.942V147.87L151.361 149.861H136.435L114.891 128.314Z" fill="#05BDBA"/>
<path d="M238.948 242.298H218.446L216.733 240.585V192.584C216.733 184.044 213.378 177.425 203.08 177.194C197.781 177.055 191.718 177.194 185.239 177.448L184.267 178.443V240.562L182.554 242.275H162.052L160.339 240.562V158.563L162.052 156.85H208.194C226.128 156.85 240.661 171.385 240.661 189.321V240.585L238.948 242.298Z" fill="#014847"/>
<path d="M134.723 211.562H52.7124L51 209.85V189.298L52.7124 187.585H134.723L136.435 189.298V209.85L134.723 211.562Z" fill="#05BDBA"/>
<path d="M348.311 211.562H266.3L264.588 209.85V189.298L266.3 187.585H348.311L350.023 189.298V209.85L348.311 211.562Z" fill="#05BDBA"/>
<path d="M188.687 131.23V69.7127L190.399 68H210.948L212.66 69.7127V131.23L210.948 132.942H190.399L188.687 131.23Z" fill="#05BDBA"/>
<path d="M188.687 329.435V267.918L190.399 266.206H210.948L212.66 267.918V329.435L210.948 331.147H190.399L188.687 329.435Z" fill="#05BDBA"/>
</g>
</g>
<defs>
<clipPath id="clip0_330_72">
<rect width="299" height="264" fill="white" transform="translate(51 68)"/>
</clipPath>
</defs>
</svg>
