<svg width="400" height="200" viewBox="0 0 400 200" fill="none" xmlns="http://www.w3.org/2000/svg">
<g clip-path="url(#clip0_257_153)">
<path d="M95.5767 69.3008C93.2168 74.7719 89.677 80.243 84.9572 85.1063C74.3377 95.4406 61.3584 99.6959 47.7891 100.304L98.5265 151.368C99.1165 137.994 103.246 124.62 113.866 114.286C118.586 109.422 123.895 106.383 129.795 103.343C113.866 97.8722 101.476 85.1063 95.5767 69.3008Z" fill="#FF8300"/>
<path d="M84.3669 184.803C103.836 165.35 103.836 133.739 84.3669 114.894C64.8978 95.4415 33.6294 95.4415 14.1604 114.894C-5.30866 134.347 -5.30866 165.958 14.1604 184.803C33.6294 204.256 64.8978 204.256 84.3669 184.803Z" fill="#FF8300"/>
<path d="M184.664 14.5897C204.133 34.0426 204.133 65.6535 184.664 84.4985C165.195 103.951 133.926 103.951 114.457 84.4985C94.9882 65.0456 94.9882 33.4347 114.457 14.5897C133.926 -4.86322 165.785 -4.86322 184.664 14.5897Z" fill="#53565A"/>
<path d="M385.251 14.5897C365.782 -4.86322 334.514 -4.86322 315.045 14.5897C305.605 24.3161 300.886 35.8663 300.886 48.0243C300.296 61.3982 296.166 74.772 285.546 85.1064C280.827 89.9696 275.517 93.617 269.617 96.0486C285.546 101.52 297.936 114.286 303.835 130.091C306.195 124.62 309.735 119.149 314.455 114.286C325.074 103.951 338.054 99.696 351.623 99.0881C364.012 99.0881 375.812 93.617 385.251 84.4985C404.72 65.0456 404.72 34.0425 385.251 14.5897ZM368.142 67.4772C363.422 72.3404 356.933 74.772 350.443 74.772C343.363 74.772 337.464 72.3404 332.744 67.4772C322.715 57.7508 322.715 41.3374 332.744 31.6109C337.464 26.7477 343.953 24.3161 350.443 24.3161C357.523 24.3161 363.422 26.7477 368.142 31.6109C372.862 36.4742 375.222 42.5532 375.222 49.2401C375.812 56.535 373.452 62.614 368.142 67.4772Z" fill="#00A7CE"/>
<path d="M284.957 114.894C304.426 134.347 304.426 165.958 284.957 184.803C265.488 204.256 234.219 204.256 214.75 184.803C195.281 165.35 195.281 133.739 214.75 114.894C234.219 95.4415 266.078 95.4415 284.957 114.894Z" fill="#53565A"/>
<path d="M214.749 85.1055C204.129 74.7712 199.999 61.3973 199.409 48.0234L148.082 99.0873C161.651 99.6952 174.631 103.95 185.25 114.285C195.87 124.619 199.999 137.993 200.589 151.367L251.327 100.303C238.347 99.6952 224.778 95.4398 214.749 85.1055Z" fill="#53565A"/>
</g>
<defs>
<clipPath id="clip0_257_153">
<rect width="400" height="200" fill="white"/>
</clipPath>
</defs>
</svg>
