<svg width="400" height="176" viewBox="0 0 400 176" fill="none" xmlns="http://www.w3.org/2000/svg">
<g clip-path="url(#clip0_180_13)">
<path d="M5.96387 174.668V109.926H15.8548L37.382 152.265V109.926H48.0002V174.668H38.1093L16.582 132.329V174.668H5.96387Z" fill="#403C38"/>
<path d="M57.7456 174.668V109.926H90.182V121.887H68.6547V136.126H88.2911V148.088H68.6547V163.276H90.7638V174.288L57.7456 174.668Z" fill="#403C38"/>
<path d="M111.273 174.668V121.317H96.4365V109.926H136.146V121.887H121.455V174.668H111.273Z" fill="#403C38"/>
<path d="M142.836 171.442V164.038C147.345 166.886 152.291 168.215 157.236 168.215C160.436 168.595 163.636 167.266 165.964 165.367C168.145 163.468 169.164 160.241 169.164 157.013C169.164 154.735 168.436 152.456 166.982 150.558C164.8 148.28 162.473 146.381 160 145.432L154.764 142.584C151.273 141.255 148.073 138.407 145.309 135.179C143.564 132.901 142.545 129.673 142.545 125.876C142.545 120.75 144.291 116.193 147.054 112.966C150.982 109.738 155.2 107.839 159.709 108.409C162.182 108.409 164.218 108.789 166.691 109.358C168.873 109.738 170.909 110.687 172.654 112.206V119.611C168.727 117.332 164.218 116.003 160 115.434C152.582 115.434 148.8 118.661 148.8 125.117C148.8 127.395 149.527 129.294 150.982 130.623C153.164 132.901 155.491 134.23 157.964 135.749L163.2 138.597C166.691 139.926 170.182 142.774 173.091 146.381C174.836 149.229 175.854 152.836 175.854 157.013C176.145 162.139 174.4 167.076 171.345 170.303C167.418 173.911 162.909 175.429 158.255 175.429C156.509 175.429 154.764 175.429 153.018 175.05C151.273 174.67 149.527 174.1 147.782 173.721C145.309 173.151 143.854 172.392 142.836 171.442Z" fill="#403C38"/>
<path d="M183.709 145.24V109.926H190.109V145.24C190.109 153.024 191.127 159.099 193.309 162.707C198.254 169.542 206.691 170.491 211.927 164.036C212.218 163.656 212.654 163.087 212.945 162.707C215.127 159.099 216.145 153.024 216.145 145.24V109.926H222.545V145.809C222.545 156.441 220.8 163.656 217.6 168.782C214.4 173.909 209.454 176.187 203.2 176.187C196.945 176.187 192 173.909 188.8 168.782C185.454 163.656 183.709 155.872 183.709 145.24Z" fill="#403C38"/>
<path d="M232.873 174.668V109.926H239.273V174.668H232.873Z" fill="#403C38"/>
<path d="M263.564 174.668V116.761H248.146V109.926H285.818V116.761H269.964V174.098H263.564V174.668Z" fill="#403C38"/>
<path d="M294.109 174.668V109.926H324.654V116.761H300.363V137.835H322.473V144.67H300.363V166.694H325.382V173.529H294.109V174.668Z" fill="#403C38"/>
<path d="M172.509 44.0458H198.836L185.018 14.6176L159.273 67.5884H147.491L178.764 4.17528C181.236 -0.381358 185.745 -1.33066 189.236 1.89696C189.964 2.27668 190.691 2.84626 190.982 3.79556L222.255 67.5884H210.473L204.945 55.8171H178.182L172.509 44.0458ZM293.527 55.8171V0.567941H283.491V61.3231C283.491 63.2217 284.218 64.5507 284.945 65.8797C285.964 67.2087 286.982 67.7783 288.436 67.7783H333.527L339.491 56.007L293.527 55.8171ZM130.182 45.7546C139.927 45.7546 147.491 35.8819 147.491 23.1613C147.491 10.4406 139.782 0.567941 130.182 0.567941H86.6909V67.5884H96.7273V12.3392H129.455C133.964 12.719 137.455 17.8452 137.455 23.7308C137.164 29.2368 133.964 33.6035 129.455 34.1731H101.673L131.2 67.7783H145.455L125.673 45.7546H130.182ZM26.0364 67.5884H55.8545C70.1091 67.5884 81.6 52.5895 81.6 33.9833C81.6 15.377 70.1091 0.567941 55.8545 0.567941H26.0364C11.7818 0.567941 0 15.377 0 33.9833C0 52.5895 11.7818 67.5884 26.0364 67.5884ZM55.1273 55.8171H26.3273C17.3091 55.4374 10.0364 45.3748 10.3273 33.2238C10.6182 21.8322 17.6 12.9088 26.3273 12.3392H55.1273C64.1455 11.9595 72.1455 21.4525 72.4364 33.2238C72.7273 44.9951 65.4545 55.4374 56.4364 55.8171C55.8545 55.8171 55.5636 55.8171 55.1273 55.8171ZM242.909 67.5884H273.455L279.418 55.8171H243.636C234.618 56.1969 226.618 46.7039 226.327 34.9326C226.036 23.1613 233.309 12.719 242.327 12.3392C242.618 12.3392 243.055 12.3392 243.345 12.3392H272.436L278.4 0.567941H242.909C228.655 0.567941 217.164 15.5669 217.164 34.1731C217.164 52.7794 228.655 67.5884 242.909 67.5884ZM363.927 55.8171C356.655 55.8171 350.109 49.5518 347.927 40.0588H390.255L396.218 28.2875H347.927C349.964 18.7945 356.655 12.5291 363.927 12.5291H393.018L398.982 0.757801H363.636C349.382 0.757801 337.891 15.7567 337.891 34.363C337.891 52.9692 349.382 67.9682 363.636 67.9682H394.182L400.145 56.1969L363.927 55.8171Z" fill="#403C38"/>
</g>
<defs>
<clipPath id="clip0_180_13">
<rect width="400" height="176" fill="white"/>
</clipPath>
</defs>
</svg>
