<svg width="400" height="400" viewBox="0 0 400 400" fill="none" xmlns="http://www.w3.org/2000/svg">
<path opacity="0.05" d="M200.426 350C244.364 350 279.983 345.596 279.983 340.164C279.983 334.732 244.364 330.328 200.426 330.328C156.488 330.328 120.869 334.732 120.869 340.164C120.869 345.596 156.488 350 200.426 350Z" fill="black"/>
<path d="M321.86 169.331C321.86 101.485 264.271 46.9205 194.545 50.1351C134.631 52.8422 84.6173 100.047 79.4524 158.757C75.0622 209.599 103.039 254.351 145.391 275.584C168.72 287.259 186.797 307.054 195.578 331.418L195.75 332.01C197.299 336.325 203.497 336.325 205.046 332.01C213.569 308.154 230.527 287.597 253.683 276.515C294.055 257.143 321.86 216.451 321.86 169.416V169.331Z" fill="#111111"/>
<path opacity="0.05" d="M200.426 276.23C260.841 276.23 309.817 227.788 309.817 168.033C309.817 108.277 260.841 59.8361 200.426 59.8361C140.011 59.8361 91.0352 108.277 91.0352 168.033C91.0352 227.788 140.011 276.23 200.426 276.23Z" fill="white"/>
<path opacity="0.08" d="M200.427 220.79C255.35 220.79 299.873 184.759 299.873 140.313C299.873 95.8668 255.35 59.8361 200.427 59.8361C145.504 59.8361 100.98 95.8668 100.98 140.313C100.98 184.759 145.504 220.79 200.427 220.79Z" fill="white"/>
<path opacity="0.08" d="M200.426 174.918C249.856 174.918 289.927 149.156 289.927 117.377C289.927 85.598 249.856 59.8361 200.426 59.8361C150.995 59.8361 110.924 85.598 110.924 117.377C110.924 149.156 150.995 174.918 200.426 174.918Z" fill="white"/>
<path opacity="0.08" d="M200.427 138.525C241.619 138.525 275.011 120.91 275.011 99.1803C275.011 77.4511 241.619 59.8361 200.427 59.8361C159.235 59.8361 125.842 77.4511 125.842 99.1803C125.842 120.91 159.235 138.525 200.427 138.525Z" fill="white"/>
<path opacity="0.1" d="M200.426 99.1803C227.888 99.1803 250.15 90.3728 250.15 79.5082C250.15 68.6436 227.888 59.8361 200.426 59.8361C172.965 59.8361 150.703 68.6436 150.703 79.5082C150.703 90.3728 172.965 99.1803 200.426 99.1803Z" fill="white"/>
<path opacity="0.1" d="M200.426 79.5082C216.903 79.5082 230.26 75.1044 230.26 69.6721C230.26 64.2398 216.903 59.8361 200.426 59.8361C183.949 59.8361 170.592 64.2398 170.592 69.6721C170.592 75.1044 183.949 79.5082 200.426 79.5082Z" fill="white"/>
<path d="M260.592 171.633L278.642 205.623L296.664 205.778L260.885 138.399L223.918 205.151L241.964 205.265L260.592 171.633Z" fill="white"/>
<path d="M200.729 189.247L201.24 137.838L185.297 137.7L184.705 204.813L215.399 205.078L224.06 189.449L200.729 189.247Z" fill="white"/>
<path d="M140.646 134.906C120.558 134.705 104.11 150.65 103.906 170.518C103.703 190.386 119.824 206.656 139.912 206.857C159.999 207.058 176.448 191.113 176.651 171.244C176.85 151.376 160.733 135.108 140.646 134.906ZM140.087 190.252C129.273 190.145 120.591 181.387 120.695 170.691C120.803 159.996 129.657 151.408 140.471 151.511C151.285 151.619 159.966 160.375 159.863 171.072C159.755 181.772 150.901 190.355 140.087 190.252Z" fill="white"/>
</svg>
