<svg width="400" height="400" viewBox="0 0 400 400" fill="none" xmlns="http://www.w3.org/2000/svg">
<g clip-path="url(#clip0_73_655)">
<path d="M199.541 0C89.4493 0 -0.458921 91.0345 -0.000205596 201.839C0.45851 303.908 77.9815 389.425 179.816 400C180.734 400 181.651 399.54 182.11 398.621C182.11 398.161 182.11 398.161 182.11 397.701V200.46H166.514C165.137 200.46 164.22 199.54 164.22 198.161V166.897C164.22 165.517 165.137 164.598 166.514 164.598H215.596C216.972 164.598 217.89 165.517 217.89 166.897V397.701C217.89 399.08 218.807 400 220.183 400C220.183 400 220.183 400 220.642 400C330.734 388.966 410.55 290.575 399.541 180.23C388.532 77.7012 302.293 0 199.541 0ZM256.422 355.402C255.046 355.862 254.128 355.402 253.67 354.023C253.67 353.563 253.67 353.563 253.67 353.103V320C253.67 318.621 254.587 317.241 255.504 316.782C319.725 285.977 347.248 209.195 316.514 144.828C294.954 99.3103 248.624 70.3448 198.165 71.2644C129.816 72.6437 73.3943 127.816 71.1007 196.322C69.2659 247.816 98.1649 295.172 144.495 317.241C145.871 317.701 146.33 319.08 146.33 320.46V353.563C146.33 354.943 145.413 355.862 144.036 355.862C143.578 355.862 143.578 355.862 143.119 355.862C77.9815 331.954 34.4035 269.425 35.3209 199.54C36.2383 109.425 109.633 36.3218 198.624 35.8621C289.908 34.9425 364.22 109.425 364.22 200.46C364.679 271.724 319.266 331.954 256.422 355.402Z" fill="#E54B4D"/>
</g>
<defs>
<clipPath id="clip0_73_655">
<rect width="400" height="400" fill="white"/>
</clipPath>
</defs>
</svg>
