<svg width="347" height="400" viewBox="0 0 347 400" fill="none" xmlns="http://www.w3.org/2000/svg">
<path fill-rule="evenodd" clip-rule="evenodd" d="M291.667 119.585C294.458 105.296 308.675 95.7674 323.657 98.1454C339.08 100.593 349.392 114.692 346.519 129.403L332.779 199.752L324.062 244.381C318.364 273.558 289.334 293.015 258.742 288.16L291.667 119.585Z" fill="#EC6454"/>
<path fill-rule="evenodd" clip-rule="evenodd" d="M226.981 21.7976C229.665 7.46968 243.932 -2.09343 258.915 0.393291C274.019 2.90052 284.107 16.6927 281.402 31.1361L222.125 347.682C219.442 362.01 205.174 371.573 190.191 369.086C175.088 366.579 164.999 352.787 167.704 338.344L226.981 21.7976Z" fill="#1BBBFF"/>
<path fill-rule="evenodd" clip-rule="evenodd" d="M129.446 84.8358C132.161 70.5039 146.43 60.9403 161.427 63.4003C176.631 65.8941 186.789 79.7817 184.037 94.3107L130.269 378.179C127.554 392.51 113.286 402.075 98.2882 399.615C83.0848 397.123 72.9266 383.234 75.6785 368.705L129.446 84.8358Z" fill="#F3A86D"/>
<path fill-rule="evenodd" clip-rule="evenodd" d="M22.9375 202.81C28.6363 173.632 57.6662 154.176 88.2573 159.031L69.2832 256.179L55.3324 327.605C52.5414 341.895 38.3243 351.423 23.3426 349.046C7.9199 346.598 -2.39246 332.498 0.480493 317.788L22.9375 202.81Z" fill="#5EC1B2"/>
</svg>
