<svg width="400" height="75" viewBox="0 0 400 75" fill="none" xmlns="http://www.w3.org/2000/svg">
<g clip-path="url(#clip0_277_100)">
<path d="M52.9949 34.5181C52.9949 46.8976 45.6914 60.2711 26.631 60.2711C12.7366 60.2711 0 52.5904 0 34.5181C0 19.6084 9.53017 8.04217 28.4124 9.03615C48.5415 10.2108 52.9949 25.5723 52.9949 34.5181ZM17.1899 25.1205C15.4086 27.8313 14.6961 31.1747 14.6961 34.5181C14.6961 42.0181 18.5259 48.8855 26.542 48.8855C34.4689 48.8855 38.2988 42.5602 38.2988 35.1506C38.2988 29.8193 36.9628 25.753 34.2017 23.2229C31.2625 20.5121 27.7889 20.4217 25.6513 20.5121C21.6433 20.7831 19.1494 22.1386 17.1899 25.1205ZM182.142 14.5482C183.656 13.012 184.458 11.8374 187.13 10.6627C189.446 9.66868 192.563 8.94578 196.215 8.94578C199.154 8.94578 202.449 9.48795 204.943 10.753C210.02 13.4639 211.534 17.8012 211.534 25.4819V59.006H196.838V31.4458C196.838 27.1084 196.66 25.3916 196.215 24.0361C195.057 21.3253 192.563 20.3313 189.624 20.3313C182.053 20.3313 182.053 26.3855 182.053 32.5301V59.006H167.446V10.2108H182.142V14.5482ZM160.588 46.3554C159.252 49.1566 154.977 60.2711 136.005 60.2711C121.309 60.2711 111.067 51.4157 111.067 35.3313C111.067 23.5843 117.034 9.03615 136.451 9.03615C139.39 9.03615 147.851 8.6747 154.264 15.3614C160.677 22.2289 161.033 31.8072 161.211 37.3193H125.763C125.763 43.3735 129.236 49.5181 137.163 49.5181C145.09 49.5181 147.851 44.3675 149.722 41.0241L160.588 46.3554ZM146.07 28.2831C145.714 26.2952 145.446 23.4036 143.309 21.4157C141.527 19.6084 138.677 18.7048 136.183 18.7048C132.71 18.7048 130.216 20.4217 128.791 21.8675C126.831 24.0361 126.297 26.2048 125.852 28.3735L146.07 28.2831ZM363.037 20.4217H372.567V10.3916H363.037V0H348.519V10.2108H346.204L339.613 20.241H348.519V43.5542C348.519 48.253 348.697 51.7771 350.657 54.5783C353.774 59.0964 359.207 59.4578 364.373 59.4578C367.045 59.4578 369.005 59.0964 371.944 58.6446V47.3494L366.867 47.5301C362.948 47.5301 362.948 45 363.037 42.0181V20.4217ZM218.481 0H232.999V10.2108H248.052L241.372 20.241H232.821V42.0181C232.643 45 232.643 47.5301 236.651 47.5301L241.728 47.3494V58.5542C238.611 59.0964 236.74 59.3675 234.157 59.3675C229.169 59.3675 223.558 59.006 220.441 54.488C218.481 51.6867 218.303 48.1627 218.303 43.4639V0H218.481ZM385.927 20.4217H384.146V11.747H380.851V10.2108H389.134V11.747H385.838V20.4217H385.927ZM400 20.4217H398.219V14.1867L398.397 12.1988L397.862 13.9157L395.725 20.6024H394.033L391.895 13.9157L391.36 12.1988L391.539 14.1867V20.4217H389.846V10.3916H392.34L394.834 18.4337L397.328 10.3916H399.822V20.4217H400Z" fill="black"/>
<path d="M293.564 46.355L290.803 50.5116C288.131 54.2165 283.411 60.0899 269.338 60.0899C254.642 60.0899 244.934 51.2345 244.934 35.1502C244.934 23.4032 250.901 8.855 270.318 8.855C273.257 8.855 281.718 8.49356 288.131 15.1803C294.544 22.0478 294.9 31.6261 295.078 37.1381H259.808C259.63 43.1924 262.747 49.3369 270.496 49.3369C278.423 49.3369 280.739 44.1863 282.52 40.843L293.564 46.355ZM280.026 28.2827C279.67 26.2948 279.403 23.4032 277.265 21.4152C275.484 19.608 272.633 18.7044 270.14 18.7044C266.666 18.7044 264.172 20.4213 262.747 21.8671C260.788 24.0357 260.253 26.2044 259.808 28.3731L280.026 28.2827Z" fill="black"/>
<path d="M343.264 59.0954L325.095 33.5231L340.147 10.3906H323.67L316.544 21.234L308.796 10.3906H292.318L308.617 33.5231L291.784 59.0954H308.261L316.99 45.5412L326.52 59.0954H343.264ZM72.9461 14.5472C74.2821 12.3785 78.7354 9.03516 85.8608 9.03516C97.8848 9.03516 106.524 18.0713 106.524 34.3364C106.524 44.3665 102.873 60.0894 85.2373 60.0894C79.0026 60.0894 74.0149 56.5653 72.857 54.5773V74.999H58.25V10.2099H72.9461V14.5472ZM82.8325 20.24C80.1605 20.24 77.3994 21.234 75.4399 23.9448C73.3023 26.4749 72.5007 30.2701 72.5007 34.6978C72.5007 40.3906 74.193 43.9147 75.9743 45.9026C77.6666 47.7099 80.0714 48.8846 82.5653 48.8846C89.6907 48.8846 92.808 41.4749 92.808 34.3364C92.808 28.2821 91.0267 21.9568 85.0592 20.6014C84.1685 20.4207 83.456 20.24 82.8325 20.24Z" fill="black"/>
</g>
<defs>
<clipPath id="clip0_277_100">
<rect width="400" height="75" fill="white"/>
</clipPath>
</defs>
</svg>
