<svg width="400" height="400" viewBox="0 0 400 400" fill="none" xmlns="http://www.w3.org/2000/svg">
<g clip-path="url(#clip0_102_7)">
<path d="M833.998 162.956V163.069C833.321 163.069 832.64 163.181 831.962 163.181C831.285 163.181 830.604 163.069 829.927 163.069C789.557 163.069 764.567 188.294 764.567 228.784V248.69C764.567 287.71 789.898 311.917 830.492 311.917C831.323 311.938 832.154 311.901 832.98 311.805C833.545 311.805 833.998 311.917 834.563 311.917C861.814 311.917 880.814 301.966 892.911 281.378L868.826 267.463C860.796 279.338 850.053 288.275 834.675 288.275C814.096 288.275 801.77 275.606 801.77 254.229V248.574H897.211V225.049C897.211 187.272 872.448 162.952 833.998 162.952V162.956ZM831.962 186.145C850.735 187.051 862.042 199.491 862.042 219.963V225.618H801.658V222.335C801.658 199.716 812.401 187.047 831.962 186.141V186.145ZM683.715 163.069C665.737 163.069 650.246 170.535 642.104 182.975L640.068 186.141V166.459H605.918V357.497H641.763V290.768L643.799 293.822C651.488 305.244 666.53 312.029 684.056 312.029H684.962H685.751C715.266 312.029 745.005 292.8 745.005 249.708V225.506C745.005 194.514 726.685 163.185 685.523 163.185L685.298 163.073H684.509L683.715 163.069ZM675.349 189.989C696.157 190.329 709.047 204.465 709.047 227.089V247.897C709.047 270.517 696.041 284.544 675.009 284.997C655.447 284.656 641.763 269.727 641.763 248.462V227.085C641.763 205.595 655.559 190.438 675.349 189.985V189.989ZM1139.88 115.905L1070.91 308.638H1109.69L1122.92 267.355H1198.23V267.807L1211.46 308.751H1250.25L1181.16 116.018H1177.09L1176.98 115.905H1139.88ZM1160.47 149.046L1189.3 240.098H1131.4L1160.47 149.046ZM1389 143.05V115.905H1270.72V143.05H1312.22V281.265H1270.72V308.41H1389V281.265H1347.5V143.05H1389ZM999.775 163.073H998.757H998.192C978.178 163.073 963.929 169.858 956.917 182.867L954.77 186.827V166.467H920.619V308.526H956.464V223.922C956.464 204.016 967.207 192.594 985.751 192.253C1003.51 192.594 1013.68 203.792 1013.68 223.133V308.526H1049.53V217.021C1049.53 183.204 1030.98 163.069 999.887 163.069L999.775 163.073ZM490.684 111.946C437.873 111.946 404.968 144.861 404.968 197.908V226.523C404.968 279.57 437.761 312.482 490.684 312.482H491.477H492.266C545.077 312.482 577.982 279.57 577.982 226.523V197.908C577.982 144.861 545.077 111.946 492.266 111.946H491.477H490.684ZM491.477 140.677C522.915 141.018 541.006 161.149 541.006 195.984V228.559C541.006 263.395 522.915 283.53 491.477 283.866C460.039 283.526 441.944 263.395 441.944 228.559V195.984C441.944 161.149 460.039 141.014 491.477 140.677V140.677ZM179.26 33.001C142.733 33.001 110.282 56.5265 98.9701 91.2497C87.3619 93.6431 76.3964 98.4819 66.8034 105.444C57.2104 112.406 49.21 121.332 43.3344 131.628C25.0149 163.297 29.1981 203.11 53.7403 230.255C46.1633 252.991 48.7638 277.871 60.8646 298.459C79.0719 330.24 115.707 346.528 151.556 338.949C159.406 347.81 169.053 354.895 179.856 359.731C190.659 364.568 202.369 367.046 214.204 366.999C250.731 366.999 283.183 343.474 294.494 308.751C318.015 303.885 338.257 289.181 350.018 268.372C368.449 236.703 364.266 196.89 339.728 169.746V169.633C343.471 158.395 344.772 146.487 343.543 134.706C342.314 122.924 338.585 111.541 332.604 101.317C314.392 69.6479 277.753 53.3564 242.02 60.935C234.135 52.0975 224.461 45.037 213.642 40.2212C202.822 35.4054 191.103 32.9443 179.26 33.001V33.001ZM179.26 54.719L179.148 54.8312C193.849 54.8312 207.986 59.9211 219.293 69.3112C218.84 69.5357 217.935 70.1008 217.257 70.4414L150.767 108.784C147.373 110.707 145.338 114.326 145.338 118.286V208.316L116.729 191.804V117.38C116.722 100.779 123.304 84.8546 135.029 73.1047C146.754 61.3547 162.663 54.7405 179.26 54.715V54.719ZM259.358 80.9297C270.376 80.9085 281.205 83.7973 290.75 89.3039C300.295 94.8105 308.217 102.74 313.715 112.29C320.952 124.959 323.664 139.776 321.176 154.139C320.723 153.799 319.822 153.35 319.253 153.009L252.763 114.551C251.09 113.605 249.201 113.107 247.279 113.107C245.357 113.107 243.468 113.605 241.796 114.551L163.882 159.566V126.538L228.224 89.326C237.685 83.8401 248.423 80.9428 259.358 80.9257V80.9297ZM94.9031 115.116V194.177C94.9031 198.137 96.9386 201.643 100.332 203.679L178.13 248.582L149.405 265.206L85.1744 228.107C70.8203 219.786 60.3535 206.109 56.0715 190.077C51.7895 174.045 54.0422 156.969 62.3351 142.597C69.6507 129.914 81.1723 120.19 94.9031 115.112V115.116ZM243.943 134.682L308.286 171.782C338.254 189.087 348.427 227.317 331.125 257.291L331.237 257.403C323.889 270.072 312.353 279.799 298.669 284.776V205.711C298.669 201.752 296.634 198.133 293.24 196.213L215.33 151.194L243.943 134.682ZM196.674 161.943L229.47 180.943V218.833L196.674 237.833L163.882 218.833V180.943L196.674 161.943ZM248.239 191.804L276.848 208.316V282.628C276.848 317.239 248.804 345.289 214.316 345.289V345.177C199.727 345.177 185.479 340.087 174.284 330.701C174.736 330.477 175.754 329.908 176.319 329.567L242.809 291.225C246.203 289.301 248.351 285.682 248.235 281.722L248.239 191.804ZM229.579 240.438V273.462L165.236 310.562C135.268 327.755 97.0468 317.576 79.745 287.714H79.8572C72.5086 275.158 69.9041 260.229 72.3924 245.865C72.8452 246.206 73.7507 246.654 74.3157 246.995L140.806 285.454C142.479 286.4 144.368 286.897 146.289 286.897C148.211 286.897 150.1 286.4 151.773 285.454L229.579 240.438Z" fill="#0F0F0F"/>
</g>
<defs>
<clipPath id="clip0_102_7">
<rect width="400" height="400" fill="white"/>
</clipPath>
</defs>
</svg>
