<svg width="400" height="292" viewBox="0 0 400 292" fill="none" xmlns="http://www.w3.org/2000/svg">
<g clip-path="url(#clip0_163_90)">
<path d="M129.925 292.002H276.89C346.751 290.035 401.703 222.688 400 142.56C398.296 64.3989 343.769 1.96788 276.89 0.00154975H129.925C60.0634 -1.96478 1.70346 61.4494 -0.000484603 142.069C-1.70443 222.688 53.2477 289.544 123.109 291.51C125.239 292.002 127.369 292.002 129.925 292.002ZM273.482 240.385H132.907C87.7524 238.911 52.3957 195.16 53.6736 143.052C55.3776 93.4022 89.8824 53.0925 132.907 51.6177H273.482C318.636 50.143 356.549 90.9443 357.827 143.052C359.105 195.16 323.748 238.911 278.594 240.385C276.89 240.385 275.186 240.385 273.482 240.385Z" fill="#C74634"/>
</g>
<defs>
<clipPath id="clip0_163_90">
<rect width="400" height="292" fill="white"/>
</clipPath>
</defs>
</svg>
