<svg width="400" height="400" viewBox="0 0 400 400" fill="none" xmlns="http://www.w3.org/2000/svg">
<path fill-rule="evenodd" clip-rule="evenodd" d="M177.88 0C239.14 0 331.7 19.7895 374.8 65.1368C385.72 76.6316 400 99.1368 400 132.126C400 190.779 355.1 280.758 305.54 332.968C279.92 359.916 239.14 395.2 184.3 395.2C130.7 395.2 89.76 356.863 77.9 344.379C32.52 296.589 0 224.042 0 156.421C0 113.768 11.56 76.4211 41.04 45.4105C68.34 16.6316 115.4 0 177.88 0ZM248.36 234.316C269.04 212.526 274.62 185.684 274.62 170.947C274.62 160.232 271.94 144.547 259.22 131.158C239.7 110.632 218.12 104.842 194.62 104.842C164.84 104.842 144.84 114.737 131.52 128.758C121.06 139.747 112.04 156.674 112.04 180.674C112.04 204.674 124.2 227.874 137.44 241.832C149.7 254.695 168.92 264.253 188.3 264.253C207.7 264.253 227.68 256.084 248.36 234.316Z" fill="#5951FF"/>
</svg>
