<svg width="332" height="400" viewBox="0 0 332 400" fill="none" xmlns="http://www.w3.org/2000/svg">
<path d="M0 146.405V132.026C17.5447 132.026 35.0894 125.49 48.5854 112.418C60.7317 100.654 67.4797 83.6601 67.4797 66.6667H80.9756C80.9756 83.6601 87.7236 100.654 101.22 112.418C113.366 124.183 130.911 132.026 149.805 132.026V146.405C132.26 146.405 114.715 152.941 101.22 166.013C89.0732 177.778 80.9756 193.464 80.9756 211.765H67.4797C67.4797 194.771 60.7317 177.778 47.2358 166.013C35.0894 152.941 17.5447 146.405 0 146.405ZM67.4797 41.8301H184.894C241.577 41.8301 283.415 81.0458 283.415 138.562C283.415 196.078 242.927 235.294 184.894 235.294H67.4797V400H116.065V277.124H183.545C265.87 277.124 330.65 214.379 330.65 138.562C332 62.7451 267.22 0 184.894 0H67.4797V41.8301Z" fill="#FFDD35"/>
</svg>
