<svg width="400" height="400" viewBox="0 0 400 400" fill="none" xmlns="http://www.w3.org/2000/svg">
<g clip-path="url(#clip0_316_325)">
<path fill-rule="evenodd" clip-rule="evenodd" d="M219.683 2.53968L211.429 104.127C207.619 103.492 203.81 103.492 199.365 103.492C194.286 103.492 189.206 104.127 184.762 104.762L180.317 55.873C180.317 54.6032 181.587 52.6984 182.857 52.6984H191.111L187.302 3.1746C187.302 1.90476 188.571 0 189.841 0H217.143C219.048 0 220.317 1.26984 219.683 2.53968ZM151.111 7.61905C150.476 6.34921 149.206 5.07936 147.937 5.71429L122.54 15.2381C120.635 15.873 120 17.7778 120.635 19.0476L141.587 64.127L133.968 67.3016C132.698 67.9365 132.063 69.2063 132.698 71.1111L153.651 115.556C161.27 111.111 169.524 107.937 178.413 106.032L151.111 7.61905ZM88.8889 36.1905L147.937 119.365C140.317 124.444 133.968 130.159 128.254 136.508L92.0635 101.587C90.7937 100.317 90.7937 98.4127 92.0635 97.7778L98.4127 92.6984L63.4921 57.1429C62.2222 55.873 62.2222 53.9683 63.4921 53.3333L84.4444 36.1905C85.7143 34.2857 87.619 34.9206 88.8889 36.1905ZM39.3651 83.8095C38.0952 83.1746 36.1905 83.1746 35.5556 84.4444L22.2222 107.937C21.5873 109.206 22.2222 111.111 23.4921 111.746L68.5714 133.333L64.127 140.317C63.4921 141.587 64.127 143.492 65.3968 144.127L110.476 164.444C113.651 156.19 118.095 148.571 123.175 141.587L39.3651 83.8095ZM5.71429 147.937C5.71429 146.667 7.61905 145.397 8.88889 146.032L107.302 171.429C104.762 179.683 103.492 188.571 102.857 197.46L53.3333 193.651C52.0635 193.651 50.7937 192.381 50.7937 190.476L52.0635 182.222L3.80952 177.778C2.53968 177.778 1.26984 176.508 1.26984 174.603L5.71429 147.937ZM2.53968 214.603C0.634921 214.603 0 215.873 0 217.778L5.07937 244.444C5.07937 245.714 6.98413 246.984 8.25397 246.349L56.5079 233.651L57.7778 241.905C57.7778 243.175 59.6825 244.444 60.9524 243.81L108.571 230.476C106.032 222.222 104.127 213.333 103.492 204.444L2.53968 214.603ZM18.4127 285.079C17.7778 283.81 18.4127 281.905 19.6825 281.27L111.746 237.46C114.921 245.714 120 253.333 125.714 260.317L85.7143 288.889C84.4444 289.524 82.5397 289.524 81.9048 288.254L76.1905 281.27L34.9206 309.841C33.6508 310.476 31.746 310.476 31.1111 309.206L18.4127 285.079ZM129.524 266.032L57.7778 338.413C56.5079 339.683 56.5079 341.587 57.7778 342.222L78.7302 359.365C80 360.635 81.9048 360 82.5397 358.73L111.746 318.095L118.095 323.81C119.365 325.079 121.27 324.444 121.905 323.175L149.841 282.54C142.222 278.095 135.238 272.381 129.524 266.032ZM115.556 381.587C114.286 380.952 113.651 379.683 114.286 377.778L156.19 285.714C163.81 289.524 172.698 292.698 180.952 294.603L168.254 342.222C167.619 343.492 166.349 344.762 165.079 344.127L157.46 340.952L144.127 389.206C143.492 390.476 142.222 391.746 140.952 391.111L115.556 381.587ZM187.937 295.873L179.683 397.46C179.683 398.73 180.952 400.635 182.222 400.635H209.524C210.794 400.635 212.064 399.365 212.064 397.46L208.254 347.937H216.508C217.778 347.937 219.048 346.667 219.048 344.762L214.603 295.873C209.524 296.508 205.079 297.143 200 297.143C196.19 296.508 191.746 296.508 187.937 295.873ZM286.349 21.5873C286.984 20.3175 286.349 18.4127 285.079 17.7778L259.683 8.25397C258.413 7.61905 256.508 8.88889 256.508 10.1587L243.175 58.4127L235.556 55.2381C234.286 54.6032 232.381 55.873 232.381 57.1429L219.683 104.762C228.571 106.667 236.825 109.841 244.444 113.651L286.349 21.5873ZM342.222 61.5873L270.476 133.968C264.762 127.619 257.778 121.905 250.159 117.46L278.095 76.8254C278.73 75.5556 280.635 75.5556 281.905 76.1905L288.254 81.9048L317.46 41.2698C318.095 40 320 40 321.27 40.6349L342.222 57.7778C342.857 59.0476 342.857 60.9524 342.222 61.5873ZM380.317 118.73C381.587 118.095 382.222 116.19 381.587 114.921L368.254 91.4286C367.619 90.1587 365.714 89.5238 364.444 90.7937L323.175 119.365L318.73 112.381C318.095 111.111 316.19 110.476 314.921 111.746L274.921 139.683C280.635 146.667 285.079 154.286 288.889 162.54L380.317 118.73ZM394.921 155.556L399.365 182.222C399.365 183.492 398.73 185.397 396.825 185.397L295.873 194.921C295.238 186.032 293.333 177.143 290.794 168.889L338.413 155.556C339.683 154.921 341.587 156.19 341.587 157.46L342.857 165.714L391.111 153.016C393.016 153.016 394.286 154.286 394.921 155.556ZM390.476 253.968C391.746 254.603 393.651 253.333 393.651 252.064L398.095 225.397C398.095 224.127 397.46 222.222 395.556 222.222L346.032 217.778L347.302 209.524C347.302 208.254 346.667 206.349 344.762 206.349L295.238 202.54C295.238 211.429 293.333 220.317 290.794 228.571L390.476 253.968ZM364.444 314.921C363.81 316.19 361.905 316.825 360.635 315.556L276.825 257.778C281.905 250.794 286.349 243.175 289.524 234.921L334.603 255.238C335.873 255.873 336.508 257.778 335.873 259.048L331.429 266.667L376.508 288.254C377.778 288.889 378.413 290.794 377.778 292.063L364.444 314.921ZM252.064 280.635L311.111 363.81C311.746 365.079 313.651 365.079 314.921 364.444L335.873 347.302C337.143 346.032 337.143 344.762 335.873 343.492L300.952 307.937L307.302 302.857C308.571 301.587 308.571 300.317 307.302 299.048L272.381 264.127C266.667 270.476 259.683 276.19 252.064 280.635ZM252.064 393.651C250.794 394.286 248.889 393.016 248.889 391.746L222.222 293.968C231.111 292.063 239.365 288.889 246.984 284.444L267.937 328.889C268.571 330.159 267.937 332.064 266.667 332.698L259.048 335.873L280 380.952C280.635 382.222 280 384.127 278.73 384.762L252.064 393.651Z" fill="black"/>
</g>
<defs>
<clipPath id="clip0_316_325">
<rect width="400" height="400" fill="white"/>
</clipPath>
</defs>
</svg>
