<svg width="400" height="400" viewBox="0 0 400 400" fill="none" xmlns="http://www.w3.org/2000/svg">
<g clip-path="url(#clip0_213_109)">
<path d="M400 0H0V400H400V0Z" fill="#47B972"/>
<path d="M292.5 88.5V147.5L291.5 148C283 141 272 136.5 258 136.5C240 136.5 223.5 143 212.5 156L229.5 174C238 166 247 161.5 258.5 161.5C280 162 294 178.5 294 200.5C294 222.5 279.5 239.5 257.5 239.5C202.5 239.5 218 136.5 144 136.5C107 136.5 81 164 81 200.5V312H107.5V252.5L108.5 252C117 259 128 263.5 142 263.5C160 263.5 176.5 257 187.5 244L170.5 226C162 234 153 238.5 141.5 238.5C120 238 106 221.5 106 199.5C106 177.5 120.5 160.5 142.5 160.5C197.5 160.5 182 263.5 256 263.5C293 263.5 319 236 319 199.5V88.5H292.5Z" fill="white"/>
</g>
<defs>
<clipPath id="clip0_213_109">
<rect width="400" height="400" fill="white"/>
</clipPath>
</defs>
</svg>
