<svg width="400" height="400" viewBox="0 0 400 400" fill="none" xmlns="http://www.w3.org/2000/svg">
<path fill-rule="evenodd" clip-rule="evenodd" d="M341.406 341.388C419.531 263.268 419.531 136.693 341.406 58.573C324.37 41.5468 296.574 41.5468 279.538 58.573C262.511 75.5992 262.511 103.401 279.538 120.462C323.432 164.356 323.432 235.605 279.538 279.534C235.643 323.429 164.366 323.429 120.472 279.534C98.4544 257.5 87.5161 228.766 87.5161 199.998C87.5161 104.54 154.394 24.6932 243.777 4.83503C229.724 1.7268 215.014 0 200.024 0C89.5613 0 0 89.5172 0 199.998C0 225.623 4.85004 251.249 14.6814 275.321C35.939 325.778 74.3638 364.078 122.17 384.385C162.64 400.79 204.217 404.071 243.749 395.16C279.538 387.148 313.6 369.189 341.406 341.388Z" fill="#3CC1CA"/>
</svg>
