<svg width="400" height="400" viewBox="0 0 400 400" fill="none" xmlns="http://www.w3.org/2000/svg">
<path d="M354.206 36.2738C325.674 12.5587 286.061 0 239.705 0H97.8583C92.007 0.0143706 86.3375 2.0752 81.7936 5.83934C77.2495 9.60347 74.1056 14.8435 72.8855 20.6869L0.557523 368.507C-0.232901 372.306 -0.18228 376.237 0.705676 380.013C1.59364 383.789 3.29651 387.316 5.68989 390.334C8.08333 393.352 11.1067 395.786 14.5394 397.459C17.9721 399.131 21.7272 399.999 25.5305 400H120.616C126.468 399.991 132.141 397.933 136.686 394.167C141.231 390.402 144.374 385.159 145.588 379.312L159.854 310.207C160.311 308.018 161.49 306.053 163.195 304.644C164.899 303.234 167.025 302.464 169.219 302.462H211.329C325.956 302.462 400 238.234 400 138.816C400.063 96.7087 384.205 61.2001 354.206 36.2738ZM211.392 262.937H150.832C144.98 262.945 139.307 265.004 134.762 268.769C130.216 272.535 127.074 277.778 125.86 283.624L111.718 352.697C111.263 354.891 110.084 356.859 108.38 358.274C106.677 359.688 104.55 360.466 102.353 360.474H53.6251C52.1977 360.473 50.7886 360.146 49.5007 359.518C48.2128 358.889 47.0786 357.975 46.1811 356.842C45.2836 355.709 44.6454 354.385 44.313 352.967C43.9807 351.55 43.9627 350.074 44.2602 348.649L106.911 47.3026C107.363 45.1062 108.539 43.1349 110.243 41.719C111.949 40.3031 114.078 39.5284 116.277 39.525H239.705C314.811 39.525 361.448 77.5838 361.448 138.816C361.448 216.527 305.259 262.937 211.392 262.937Z" fill="#37C4C0"/>
<path d="M267.135 92.7188H204.89C173.268 92.7188 146.297 117.773 145.111 150.094C144.817 158.107 146.108 166.099 148.907 173.592C151.707 181.085 155.956 187.924 161.402 193.703C166.848 199.48 173.378 204.078 180.604 207.221C187.829 210.364 195.601 211.987 203.454 211.995H243.848C246.773 211.995 249.609 210.968 251.881 209.089C254.155 207.209 255.727 204.589 256.335 201.667L259.955 184.295C260.253 182.87 260.235 181.395 259.902 179.978C259.57 178.56 258.932 177.236 258.034 176.103C257.137 174.97 256.003 174.055 254.715 173.426C253.427 172.798 252.018 172.471 250.591 172.47H204.141C199.28 172.543 194.558 170.818 190.846 167.613C187.133 164.409 184.682 159.94 183.944 155.035C183.58 152.199 183.813 149.316 184.626 146.578C185.439 143.842 186.816 141.313 188.662 139.163C190.509 137.012 192.783 135.287 195.334 134.105C197.885 132.923 200.653 132.31 203.454 132.307H260.424C263.348 132.307 266.185 131.281 268.458 129.401C270.73 127.521 272.302 124.901 272.91 121.98L276.532 104.608C276.834 103.176 276.819 101.693 276.488 100.268C276.156 98.8424 275.517 97.5105 274.615 96.3711C273.714 95.2308 272.575 94.3113 271.281 93.679C269.987 93.0467 268.57 92.7188 267.135 92.7188Z" fill="#37C4C0"/>
</svg>
