<svg width="400" height="400" viewBox="0 0 400 400" fill="none" xmlns="http://www.w3.org/2000/svg">
<g clip-path="url(#clip0_208_169)">
<mask id="mask0_208_169" style="mask-type:luminance" maskUnits="userSpaceOnUse" x="0" y="218" width="400" height="182">
<path d="M1.80723 218.79C0.60241 218.79 0 220.002 0 221.214C0 221.214 0 221.214 0 221.82C20.4819 324.85 80.1205 400.002 150 400.002C172.289 400.002 241.566 400.002 265.06 248.487C265.663 245.456 262.048 244.244 261.446 247.274C250.602 284.85 228.313 344.85 200.602 344.85C180.723 344.85 157.229 313.335 132.53 220.002C132.53 218.79 131.325 218.184 130.723 218.184H1.80723V218.79ZM283.133 218.79C281.928 218.79 281.325 220.002 281.325 220.608C273.494 300.608 253.012 358.79 218.675 390.911C217.47 392.123 217.47 393.335 218.675 394.547L219.277 395.153C229.518 398.184 239.759 400.002 250.602 400.002C320.482 400.002 379.518 323.638 400 220.608C400 219.396 399.398 218.184 398.193 218.184H283.133V218.79Z" fill="white"/>
</mask>
<g mask="url(#mask0_208_169)">
<path d="M400 218.789H0V400.001H400V218.789Z" fill="url(#paint0_linear_208_169)"/>
</g>
<mask id="mask1_208_169" style="mask-type:luminance" maskUnits="userSpaceOnUse" x="0" y="0" width="400" height="182">
<path d="M0 179.394C0 180.606 0.60241 181.818 1.80723 181.818H116.265C117.47 181.818 118.072 180.606 118.072 180C126.506 99.3939 146.386 41.2121 181.325 9.09091C182.53 7.87879 182.53 6.66667 181.325 5.45455L180.723 4.84848C170.482 1.81818 160.241 0 149.398 0C79.5181 0 20.4819 76.3636 0 179.394ZM134.94 151.515C134.337 154.545 137.952 155.152 138.554 152.727C149.398 115.152 171.687 55.1515 199.398 55.1515C219.277 55.1515 242.771 86.0606 267.47 180C267.47 181.212 268.675 181.818 269.277 181.818H397.59C398.795 181.818 400 180.606 399.398 179.394C399.398 179.394 399.398 179.394 399.398 178.788C378.916 75.1515 319.88 0 250 0C227.711 0 158.434 0 134.94 151.515Z" fill="white"/>
</mask>
<g mask="url(#mask1_208_169)">
<path d="M400 0H0V181.212H400V0Z" fill="url(#paint1_linear_208_169)"/>
</g>
</g>
<defs>
<linearGradient id="paint0_linear_208_169" x1="377.87" y1="309.187" x2="10.7395" y2="309.187" gradientUnits="userSpaceOnUse">
<stop stop-color="#FF8F1C"/>
<stop offset="1" stop-color="#ED2024"/>
</linearGradient>
<linearGradient id="paint1_linear_208_169" x1="21.8887" y1="90.8" x2="389.019" y2="90.8" gradientUnits="userSpaceOnUse">
<stop stop-color="#FF8F1C"/>
<stop offset="1" stop-color="#ED2024"/>
</linearGradient>
<clipPath id="clip0_208_169">
<rect width="400" height="400" fill="white"/>
</clipPath>
</defs>
</svg>
