<svg width="400" height="400" viewBox="0 0 400 400" fill="none" xmlns="http://www.w3.org/2000/svg">
<path d="M316.433 115.166C317.325 68.7914 279.058 33.1914 226.442 33.1914H117.625C115.088 33.1922 112.636 34.0984 110.708 35.7467C108.78 37.3951 107.503 39.6775 107.108 42.1831L63.5 314.65C63.305 315.884 63.3798 317.147 63.7193 318.349C64.0588 319.552 64.655 320.667 65.4668 321.618C66.2786 322.568 67.2867 323.331 68.4218 323.855C69.5568 324.378 70.7918 324.649 72.0417 324.65H136.517L126.433 387.75C126.238 388.985 126.313 390.248 126.653 391.451C126.993 392.655 127.59 393.77 128.403 394.721C129.216 395.671 130.225 396.434 131.361 396.957C132.497 397.48 133.733 397.751 134.983 397.75H187.5C190.042 397.75 192.3 396.833 194.225 395.191C196.15 393.541 196.467 391.266 196.858 388.758L212.275 298.05C212.667 295.55 213.942 292.3 215.875 290.65C217.8 289 219.483 288.1 222.017 288.091H254.167C305.692 288.091 349.417 251.475 357.408 200.533C363.058 164.366 347.55 131.475 316.433 115.166Z" fill="#001C64"/>
<path d="M150.467 224.168L134.409 326.001L124.325 389.868C124.13 391.103 124.205 392.366 124.545 393.57C124.885 394.773 125.482 395.889 126.295 396.839C127.107 397.79 128.117 398.553 129.253 399.076C130.389 399.599 131.625 399.869 132.875 399.868H188.459C190.994 399.865 193.445 398.958 195.371 397.31C197.297 395.662 198.572 393.38 198.967 390.876L213.617 298.043C214.012 295.54 215.287 293.259 217.214 291.612C219.14 289.966 221.591 289.06 224.125 289.06H256.85C308.375 289.06 352.092 251.476 360.084 200.535C365.75 164.376 347.55 131.485 316.434 115.168C316.35 119.018 316.017 122.86 315.425 126.668C307.434 177.601 263.709 215.193 212.184 215.193H160.975C158.442 215.193 155.992 216.098 154.066 217.743C152.14 219.388 150.864 221.666 150.467 224.168Z" fill="#0070E0"/>
<path d="M134.4 326H69.7336C68.4832 326.001 67.2475 325.731 66.1118 325.208C64.9761 324.685 63.9673 323.922 63.1552 322.971C62.3432 322.02 61.7471 320.905 61.4081 319.701C61.0691 318.498 60.9954 317.235 61.1919 316L104.792 39.4833C105.187 36.9785 106.464 34.6971 108.392 33.0502C110.32 31.4032 112.773 30.4988 115.309 30.5H226.45C279.059 30.5 317.325 68.7917 316.434 115.167C303.342 108.3 287.959 104.375 271.1 104.375H178.442C175.908 104.377 173.458 105.283 171.532 106.93C169.606 108.576 168.33 110.856 167.934 113.358L150.475 224.167L134.4 326Z" fill="#003087"/>
</svg>
