<svg width="400" height="400" viewBox="0 0 400 400" fill="none" xmlns="http://www.w3.org/2000/svg">
<g clip-path="url(#clip0_310_43)">
<path d="M364.762 400H35.2381C16.1905 400 0 383.81 0 364.762V35.2381C0 16.1905 16.1905 0 35.2381 0H364.762C383.81 0 400 16.1905 400 35.2381V364.762C400 383.81 383.81 400 364.762 400Z" fill="black"/>
<path d="M273.332 169.522C267.617 169.522 263.808 165.713 263.808 159.999V118.094H259.998C238.094 118.094 230.475 121.903 230.475 141.903V188.57V199.046V199.999V264.76C230.475 272.379 228.57 279.046 225.713 283.808C219.998 293.332 207.617 297.141 189.522 297.141C170.475 297.141 159.046 293.332 153.332 283.808C150.475 279.046 148.57 272.379 148.57 264.76V199.999V199.046V188.57V141.903C148.57 121.903 139.998 118.094 119.046 118.094H112.379C90.4745 118.094 82.8555 121.903 82.8555 141.903V188.57V238.094V264.76C82.8555 284.76 87.6174 300.951 96.1888 314.284C112.379 339.999 144.76 354.284 190.475 354.284C236.189 354.284 268.57 339.999 284.76 314.284C293.332 300.951 298.094 283.808 298.094 264.76V238.094V188.57V170.475L273.332 169.522Z" fill="white"/>
<path d="M367.616 100.951H337.14C333.331 100.951 331.426 98.0938 331.426 95.2366V63.808C331.426 59.9985 334.283 58.0938 337.14 58.0938H367.616C371.426 58.0938 373.331 60.9509 373.331 63.808V95.2366C374.283 99.0461 371.426 100.951 367.616 100.951Z" fill="white"/>
<path d="M326.664 58.0949H305.712C303.807 58.0949 301.902 56.1901 301.902 54.2853V33.333C301.902 31.4282 303.807 29.5234 305.712 29.5234H326.664C328.569 29.5234 330.474 31.4282 330.474 33.333V54.2853C331.426 56.1901 329.521 58.0949 326.664 58.0949Z" fill="white"/>
<path d="M320.951 100.953H272.379C266.665 100.953 262.855 104.763 262.855 110.477V117.144H266.665C288.57 117.144 296.189 120.953 296.189 140.953V169.525H320.951C326.665 169.525 330.475 165.715 330.475 160.001V111.429C330.475 105.715 326.665 100.953 320.951 100.953Z" fill="white"/>
</g>
<defs>
<clipPath id="clip0_310_43">
<rect width="400" height="400" fill="white"/>
</clipPath>
</defs>
</svg>
