<svg width="400" height="400" viewBox="0 0 400 400" fill="none" xmlns="http://www.w3.org/2000/svg">
<g clip-path="url(#clip0_581_44)">
<path d="M97.1874 166.796L78.1746 185.804H97.1874V166.796ZM97.1874 166.796V172M78.1306 164V236M97.1874 204.808L78.1746 185.8M97.1874 204.808V232.058L78.1746 213.05M97.1874 204.808L78.1726 185.8M97.1874 204.808L97.1854 212.94H105.345V185.8H78.1726M78.1746 185.8V213.05M78.1746 185.8L59.1598 204.808M78.1746 213.05L59.1598 232.058V204.808M59.1598 204.808L59.1578 212.94H51V185.8H78.1726M59.1598 204.808L78.1726 185.8M78.1726 185.804L59.1578 166.796V185.804H78.1726Z" stroke="#20808D" stroke-miterlimit="10"/>
<path d="M161.056 190.055C162.243 187.837 163.903 186.129 166.044 184.927C168.18 183.729 170.687 183.129 173.563 183.129C176.438 183.129 178.819 183.719 180.811 184.901C182.806 186.083 184.298 187.649 185.285 189.599C186.272 191.551 186.767 193.689 186.767 196.013V199.233H164.398C164.578 202.025 165.521 204.245 167.227 205.891C168.933 207.539 171.224 208.361 174.101 208.361C176.436 208.361 178.226 207.887 179.464 206.939C180.705 205.991 181.61 204.677 182.187 202.993H187.309C186.626 205.605 185.235 207.871 183.132 209.785C181.032 211.701 178.02 212.657 174.103 212.657C171.156 212.657 168.559 212.057 166.312 210.859C164.067 209.661 162.331 207.951 161.11 205.731C159.888 203.511 159.278 200.899 159.278 197.891C159.278 194.883 159.87 192.273 161.058 190.053L161.056 190.055ZM181.378 195.207C181.378 192.773 180.749 190.869 179.492 189.489C178.234 188.111 176.258 187.423 173.561 187.423C171.046 187.423 168.987 188.093 167.389 189.435C165.789 190.777 164.81 192.703 164.452 195.207H181.378ZM193.487 183.933V188.389C193.487 188.641 193.613 188.765 193.865 188.765C194.009 188.765 194.115 188.729 194.19 188.657C194.264 188.585 194.334 188.443 194.404 188.229C195.337 185.295 197.656 183.827 201.358 183.827H203.729V188.657H200.655C198.246 188.657 196.45 189.229 195.263 190.375C194.075 191.521 193.483 193.399 193.483 196.013V211.851H188.631V183.931H193.487V183.933ZM232.217 205.971C230.942 208.207 229.288 209.881 227.257 210.989C225.227 212.097 223.042 212.653 220.707 212.653C216.108 212.653 212.872 210.829 211.004 207.177C210.86 206.893 210.679 206.749 210.465 206.749C210.251 206.749 210.141 206.857 210.141 207.071V222.049H205.289V183.935H210.141V188.713C210.141 188.927 210.249 189.035 210.465 189.035C210.681 189.035 210.86 188.891 211.004 188.607C212.872 184.955 216.108 183.131 220.707 183.131C223.042 183.131 225.227 183.687 227.257 184.795C229.288 185.903 230.94 187.577 232.217 189.815C233.493 192.051 234.131 194.747 234.131 197.893C234.131 201.039 233.493 203.733 232.217 205.971ZM226.61 190.187C224.83 188.343 222.485 187.421 219.576 187.421C216.666 187.421 214.32 188.343 212.542 190.187C210.761 192.031 210.109 194.599 210.109 197.891C210.109 201.183 210.761 203.753 212.542 205.595C214.322 207.439 216.666 208.361 219.576 208.361C222.485 208.361 224.832 207.441 226.61 205.595C228.391 203.751 229.28 201.183 229.28 197.891C229.28 194.599 228.391 192.031 226.61 190.187ZM241.172 173.195V211.849H236.32V173.199H241.172V173.195ZM245.167 190.053C246.352 187.835 248.014 186.127 250.155 184.925C252.291 183.727 254.798 183.127 257.672 183.127C260.545 183.127 262.93 183.717 264.922 184.899C266.917 186.081 268.409 187.647 269.396 189.597C270.385 191.549 270.878 193.687 270.878 196.011V199.231H248.509C248.689 202.023 249.632 204.243 251.338 205.889C253.044 207.537 255.335 208.359 258.212 208.359C260.547 208.359 262.335 207.885 263.575 206.937C264.816 205.989 265.721 204.675 266.298 202.991H271.42C270.737 205.603 269.344 207.869 267.243 209.783C265.143 211.699 262.131 212.655 258.214 212.655C255.267 212.655 252.67 212.055 250.423 210.857C248.178 209.659 246.442 207.949 245.221 205.729C243.999 203.509 243.389 200.897 243.389 197.889C243.389 194.881 243.981 192.271 245.169 190.051H245.167V190.053ZM265.489 195.205C265.489 192.771 264.86 190.867 263.603 189.487C262.345 188.109 260.369 187.421 257.672 187.421C255.159 187.421 253.098 188.091 251.5 189.433C249.9 190.775 248.923 192.701 248.563 195.205H265.489ZM268.719 210.775L279.822 197.083L270.713 185.005V183.931H276.05L283.653 194.345L291.847 183.931H297.289V185.059L286.833 197.891L296.482 210.775V211.849H291.254L283.006 200.629L274.167 211.849H268.723V210.775H268.719ZM304.334 174.845V180.887H298.667V174.845H304.334ZM304.039 211.851H299.186V183.933H304.039V211.851ZM305.569 183.933H310.848V176.417H315.701V183.933H321.256L322.62 188.025H315.701V201.381C315.701 203.205 315.655 204.557 315.565 205.435C315.475 206.313 315.431 206.841 315.431 207.019C315.431 207.271 315.501 207.467 315.645 207.609C315.789 207.753 315.986 207.823 316.24 207.823C316.418 207.823 316.949 207.779 317.83 207.689C318.709 207.599 320.067 207.555 321.901 207.555H323.787V211.849H320.015C316.923 211.849 314.622 211.099 313.114 209.593C311.606 208.089 310.85 205.801 310.85 202.721V188.023H305.573V183.931H305.569V183.933ZM322.718 183.933H327.664L335.695 207.355C335.805 207.643 335.976 208.021 336.526 208.021C337.077 208.021 337.247 207.641 337.355 207.355L345.387 183.933H350V185.007L339.952 215.125C339.089 217.703 337.878 219.501 336.316 220.521C334.752 221.541 332.936 222.051 329.914 222.051H324.74V217.757H328.677C329.934 217.757 330.958 217.801 331.749 217.891C332.538 217.981 333.042 218.025 333.258 218.025C333.869 218.025 334.282 217.757 334.5 217.221L336.01 213.141C336.19 212.713 336.206 212.391 336.064 212.173C335.992 212.029 335.904 211.939 335.795 211.905C335.687 211.869 335.525 211.851 335.311 211.851H332.023L322.722 183.935H322.718V183.933ZM156.194 206.017C154.918 208.253 153.264 209.927 151.234 211.035C149.204 212.143 147.019 212.699 144.684 212.699C140.085 212.699 136.849 210.875 134.98 207.223C134.836 206.939 134.656 206.795 134.442 206.795C134.228 206.795 134.117 206.903 134.117 207.117V222.095H129.266V183.981H134.117V188.759C134.117 188.973 134.226 189.081 134.442 189.081C134.658 189.081 134.836 188.937 134.98 188.653C136.847 185.001 140.085 183.177 144.684 183.177C147.019 183.177 149.204 183.733 151.234 184.841C153.264 185.949 154.916 187.623 156.194 189.859C157.469 192.095 158.108 194.791 158.108 197.939C158.108 201.087 157.469 203.781 156.194 206.017ZM150.587 190.233C148.807 188.389 146.462 187.467 143.553 187.467C140.643 187.467 138.296 188.389 136.518 190.233C134.738 192.077 134.085 194.645 134.085 197.937C134.085 201.229 134.738 203.799 136.518 205.641C138.298 207.485 140.643 208.407 143.553 208.407C146.462 208.407 148.809 207.487 150.587 205.641C152.367 203.797 153.256 201.229 153.256 197.937C153.256 194.645 152.367 192.077 150.587 190.233Z" fill="#13343B"/>
</g>
<defs>
<clipPath id="clip0_581_44">
<rect width="300" height="72" fill="white" transform="translate(50 164)"/>
</clipPath>
</defs>
</svg>
