<svg width="400" height="400" viewBox="0 0 400 400" fill="none" xmlns="http://www.w3.org/2000/svg">
<path d="M181.951 289.462H181.409C153.922 289.462 127.561 278.374 108.125 258.636C88.6887 238.899 77.7698 212.128 77.7698 184.215C77.7698 156.302 88.6887 129.531 108.125 109.794C127.561 90.0559 153.922 78.9676 181.409 78.9676C201.189 78.9666 220.558 84.7121 237.225 95.5295C253.891 106.347 267.16 121.785 275.465 140.015L357.589 140.585C347.922 100.521 325.315 64.9019 293.375 39.4183C261.435 13.9348 222.005 0.0563388 181.386 0C133.296 0.0536096 87.1913 19.4783 53.186 54.0112C19.1808 88.544 0.0527906 135.367 0 184.203C0.0527906 233.04 19.1808 279.86 53.186 314.393C87.1913 348.925 133.296 368.35 181.386 368.404H181.928L181.951 289.462Z" fill="#0051FF"/>
<path d="M346.655 290.164L336.507 279.597C353.726 250.882 362.822 217.905 362.798 184.285C362.781 176.617 362.295 168.957 361.343 161.351L282.434 160.801C284.169 168.5 285.046 176.376 285.051 184.274C285.049 208.503 276.816 231.987 261.745 250.769C246.673 269.551 225.684 282.481 202.317 287.375V367.2C230.547 363.883 257.605 353.835 281.284 337.878L339.252 399.998H345.763C353.465 399.716 360.996 397.613 367.76 393.861C375.15 389.678 381.609 383.991 386.733 377.154C391.856 370.317 395.534 362.477 397.535 354.129L400 345.504L346.655 290.164Z" fill="#05D8FF"/>
</svg>
