<svg width="400" height="400" viewBox="0 0 400 400" fill="none" xmlns="http://www.w3.org/2000/svg">
<path d="M302 50H98C71.4903 50 50 71.4997 50 98.0209V302.11C50 328.631 71.4903 350.13 98 350.13H302C328.51 350.13 350 328.631 350 302.11V98.0209C350 71.4997 328.51 50 302 50Z" fill="#07A081"/>
<path d="M162.026 252.468H204.572V211.68H217.4C226.402 211.68 235.035 208.102 241.401 201.734C247.766 195.366 251.342 186.729 251.342 177.723C251.342 168.717 247.766 160.08 241.401 153.712C235.035 147.344 226.402 143.766 217.4 143.766H162.026V252.468ZM226.604 274.209H140V122.031H217.4C231.491 121.831 245.134 126.989 255.57 136.463C266.007 145.938 272.46 159.022 273.625 173.073C274.791 187.123 270.582 201.093 261.85 212.159C253.117 223.225 240.512 230.562 226.58 232.689L226.604 274.209Z" fill="white"/>
</svg>
