<svg width="400" height="400" viewBox="0 0 400 400" fill="none" xmlns="http://www.w3.org/2000/svg">
<g clip-path="url(#clip0_326_131)">
<path d="M351 199.5C351 116.381 283.619 49 200.5 49C117.381 49 50 116.381 50 199.5C50 282.619 117.381 350 200.5 350C283.619 350 351 282.619 351 199.5Z" fill="#017737"/>
<path d="M283.074 174.436C283.074 215.154 256.801 243.003 219.236 243.003C201.377 243.003 186.659 235.644 181.148 226.448L181.409 235.904V294.22H143.061V143.436C143.061 141.338 142.54 140.805 140.17 140.805H127.028V108.761H159.083C173.789 108.761 177.475 121.37 178.518 126.893C184.301 117.175 199.528 105.882 221.072 105.882C258.117 105.87 283.074 133.446 283.074 174.436ZM243.932 174.697C243.932 152.892 229.747 137.925 211.876 137.925C197.17 137.925 180.615 147.643 180.615 174.97C180.615 192.828 190.593 211.481 211.355 211.481C226.595 211.469 243.932 200.436 243.932 174.697Z" fill="white"/>
</g>
<defs>
<clipPath id="clip0_326_131">
<rect width="301" height="301" fill="white" transform="translate(50 49)"/>
</clipPath>
</defs>
</svg>
