<svg width="400" height="217" viewBox="0 0 400 217" fill="none" xmlns="http://www.w3.org/2000/svg">
<g clip-path="url(#clip0_294_75)">
<mask id="mask0_294_75" style="mask-type:luminance" maskUnits="userSpaceOnUse" x="-1554" y="-135" width="8525" height="15796">
<path d="M-1553.85 -134.041H6970.13V15660.4H-1553.85V-134.041Z" fill="white"/>
</mask>
<g mask="url(#mask0_294_75)">
<path d="M146.117 165.025C158.716 167.001 171.418 163.848 171.418 163.848V131.599C171.418 131.599 167.169 131.943 164.603 129.888C162.903 128.521 162.925 125.932 162.925 123.754V55.7814H120.487V138.513C120.487 138.513 121.473 161.175 146.117 165.025Z" fill="#5DA1DF"/>
<path d="M327.792 165.025C340.392 167.001 353.093 163.848 353.093 163.848V131.599C353.093 131.599 348.844 131.943 346.278 129.888C344.578 128.521 344.6 125.932 344.6 123.754V1.52776H302.162V138.513C302.145 138.513 303.148 161.175 327.792 165.025Z" fill="#5DA1DF"/>
<path d="M165.363 23.3757C165.363 36.2787 154.877 46.752 141.971 46.752C129.043 46.752 118.579 36.3008 118.579 23.3757C118.579 10.4682 129.043 -0.00062561 141.971 -0.00062561C154.877 -0.00062561 165.363 10.4682 165.363 23.3757Z" fill="#5DA1DF"/>
<path d="M245.347 131.785C241.964 134.599 238.456 135.004 234.101 135.004V165.053C256.162 170.221 269.107 163.029 269.107 163.029C286.035 155.078 290.266 134.656 291.23 116.827C291.496 111.972 291.62 106.53 291.372 100.948C290.613 83.5422 285.973 64.5889 270.262 56.7836C263.873 53.6262 256.592 52.4355 249.511 52.4355C228.703 52.4355 214.505 62.7721 214.505 62.7721L209.83 56.0295H181.963V217H224.379V86.4747C224.623 86.3556 229.116 82.2369 237.817 83.7671C249.742 85.822 251.029 99.7878 251.029 107.778C251.007 113.749 250.949 127.133 245.347 131.785Z" fill="#5DA1DF"/>
<path d="M63.3838 131.785C60.0009 134.599 56.5113 135.004 52.1384 135.004V165.053C74.1986 170.221 87.1444 163.029 87.1444 163.029C104.073 155.078 108.303 134.656 109.267 116.827C109.533 111.972 109.658 106.53 109.409 100.948C108.65 83.5422 104.01 64.5889 88.2987 56.7836C81.9102 53.6262 74.6292 52.4355 67.5481 52.4355C46.7398 52.4355 32.5421 62.7721 32.5421 62.7721L27.8672 56.0295H0V217H42.4157V86.4747C42.6599 86.3556 47.1527 82.2369 55.8498 83.7671C67.779 85.822 69.0665 99.7878 69.0665 107.778C69.0443 113.749 68.9866 127.133 63.3838 131.785Z" fill="#5DA1DF"/>
<path d="M384.23 148.945C386.175 148.945 387.227 148.142 387.227 146.555C387.227 144.95 386.175 144.385 384.23 144.385H382.263V148.945H384.23ZM379.657 142.321H384.496C387.489 142.321 389.784 143.362 389.784 146.555C389.784 148.707 388.67 150.03 386.965 150.616L390.357 156.525H387.444L384.385 151.009H382.263V156.525H379.657V142.321Z" fill="#5DA1DF"/>
<path d="M384.141 136.186C376.838 136.186 370.903 142.086 370.903 149.341C370.903 156.595 376.838 162.495 384.141 162.495C391.444 162.495 397.385 156.595 397.385 149.341C397.385 142.086 391.444 136.186 384.141 136.186ZM384.141 165.088C375.4 165.088 368.283 158.023 368.283 149.341C368.283 140.653 375.4 133.589 384.141 133.589C392.887 133.589 400 140.653 400 149.341C400 158.023 392.887 165.088 384.141 165.088Z" fill="#5DA1DF"/>
</g>
</g>
<defs>
<clipPath id="clip0_294_75">
<rect width="400" height="217" fill="white"/>
</clipPath>
</defs>
</svg>
