<svg width="400" height="400" viewBox="0 0 400 400" fill="none" xmlns="http://www.w3.org/2000/svg">
<g clip-path="url(#clip0_296_96)">
<path d="M315.602 0C69.5026 18.6667 -31.9158 210.667 8.50972 330.667C31.914 296 76.5948 258.667 166.666 245.333C161.701 144 200.708 72.6667 315.602 0Z" fill="#1D5080"/>
<path d="M189.36 259.999C126.949 269.333 83.6867 285.333 56.7363 309.333C57.4455 341.333 67.3746 372.666 85.1051 399.999C106.382 351.999 175.176 317.333 280.141 317.333C254.609 201.999 312.055 95.9993 399.999 24.666C356.027 30.666 313.474 41.3327 271.63 56.666C204.963 117.999 179.431 196.666 189.36 259.999Z" fill="#1D5080"/>
</g>
<defs>
<clipPath id="clip0_296_96">
<rect width="400" height="400" fill="white"/>
</clipPath>
</defs>
</svg>
