<svg width="400" height="400" viewBox="0 0 400 400" fill="none" xmlns="http://www.w3.org/2000/svg">
<path fill-rule="evenodd" clip-rule="evenodd" d="M160.032 120.463L193.523 178.454C198.844 177.033 204.639 177.446 209.924 179.918L227.524 149.423L198.101 98.4688L159.688 120.652L160.032 120.463Z" fill="#DE752C"/>
<path fill-rule="evenodd" clip-rule="evenodd" d="M108.687 196.025H175.687C176.223 194.022 176.995 192.058 178.074 190.184C179.896 187.039 182.334 184.47 185.14 182.519L167.535 152.031H108.672V196.394H108.687V196.025Z" fill="#DE752C"/>
<path fill-rule="evenodd" clip-rule="evenodd" d="M220.3 213.947C218.471 217.105 216.04 219.661 213.25 221.607L230.865 252.125H289.71V208.145H222.688C222.152 210.129 221.377 212.083 220.305 213.947" fill="#DE752C"/>
<path fill-rule="evenodd" clip-rule="evenodd" d="M215.797 184.545C219.86 188.601 222.281 193.916 222.765 199.479H257.965L287.395 148.523L249.301 126.523L215.797 184.545Z" fill="#DE752C"/>
<path fill-rule="evenodd" clip-rule="evenodd" d="M149.329 276L182.846 217.953C178.795 213.902 176.377 208.6 175.882 203.047H140.657L111.227 253.988L149.64 276.184L149.329 276Z" fill="#DE752C"/>
<path fill-rule="evenodd" clip-rule="evenodd" d="M239.945 282.915L206.464 224.903C201.146 226.339 195.335 225.928 190.048 223.449L172.438 253.955L201.847 304.898L240.269 282.726L239.945 282.915Z" fill="#DE752C"/>
<path fill-rule="evenodd" clip-rule="evenodd" d="M200.008 50.0026C117.288 50.0026 50 117.288 50 199.98C50 282.702 117.288 350 200.008 350C282.71 350 350 282.702 350 199.977C350 117.286 282.712 50 200.005 50L200.008 50.0026ZM200.008 80.3806C266.066 80.3806 319.621 133.918 319.621 199.98C319.621 266.066 266.066 319.63 200.005 319.63C133.929 319.63 80.3714 266.066 80.3714 199.98C80.3714 133.918 133.929 80.3806 200 80.3806H200.008Z" fill="#517C9F"/>
</svg>
