<svg width="400" height="400" viewBox="0 0 400 400" fill="none" xmlns="http://www.w3.org/2000/svg">
<path d="M72.1001 167.528C83.3635 167.274 93.9383 176.417 95.1266 187.63C96.5546 197.486 90.7406 207.721 81.6448 211.72C76.1291 214.451 69.9046 213.611 63.9733 213.751H58.1771V232.282H49.0048C49.0226 217.984 48.9691 203.686 49.0303 189.391C49.3363 178.736 58.07 169.201 68.6194 167.78C69.7669 167.612 70.9399 167.528 72.1001 167.528ZM72.1001 204.59C78.7199 204.753 84.9266 199.601 85.9211 193.052C87.2395 186.464 83.0269 179.382 76.5881 177.407C70.3712 175.203 62.8895 178.1 59.8499 183.962C57.4988 187.973 58.3352 192.703 58.1771 197.114V204.593L72.1001 204.59ZM99.556 167.304H108.626V213.53H99.5585V167.302L99.556 167.304ZM135.893 196.373H136.225L149.12 213.542H160.366L142.837 189.768L158.382 167.327H147.136L136.222 183.173H135.896L124.982 167.33H113.737L129.279 189.776L111.753 213.54H122.998L135.893 196.373Z" fill="black"/>
<path d="M180.924 167.304C190.111 167.126 198.927 173.133 202.328 181.62C204.098 185.565 204.07 189.928 204.011 194.159V213.53C195.826 213.504 187.635 213.586 179.439 213.484C170.035 213.026 161.424 206.179 158.733 197.183C156.26 189.368 158.31 180.294 164.129 174.447C168.472 169.959 174.643 167.251 180.916 167.312L180.924 167.304ZM194.847 204.366C194.808 199.224 194.931 194.083 194.775 188.946C194.235 182.06 187.844 176.29 180.924 176.473C174.339 176.31 168.135 181.404 167.103 187.907C165.899 194.154 169.492 200.955 175.456 203.282C179.133 204.88 183.196 204.216 187.084 204.359H194.849L194.847 204.366ZM231.651 167.528C242.519 167.264 252.675 175.801 254.407 186.479C256.37 196.61 250.643 207.551 241.193 211.72C231.962 216.073 220.092 213.265 213.745 205.298C209.813 200.673 208.114 194.518 208.448 188.523V149H217.628V167.531H231.653L231.651 167.528ZM231.651 204.59C238.62 204.776 244.987 198.932 245.505 192.011C246.372 185.133 241.267 178.214 234.446 176.962C230.672 176.443 226.841 176.796 223.042 176.682H217.626C217.682 181.91 217.498 187.144 217.733 192.357C218.462 199.255 224.707 204.717 231.656 204.575L231.651 204.59ZM281.381 167.304C290.571 167.126 299.384 173.133 302.786 181.62C304.56 185.565 304.535 189.928 304.479 194.159V213.53C296.293 213.504 288.098 213.586 279.907 213.484C270.497 213.026 261.886 206.179 259.191 197.183C256.717 189.368 258.77 180.294 264.589 174.447C268.929 169.962 275.1 167.253 281.373 167.312L281.381 167.304ZM295.304 204.366C295.263 199.224 295.385 194.083 295.235 188.946C294.705 182.06 288.312 176.29 281.388 176.473C274.809 176.31 268.603 181.404 267.575 187.907C266.366 194.154 269.962 200.955 275.924 203.282C279.596 204.88 283.658 204.216 287.542 204.359H295.306L295.304 204.366ZM354.992 167.414C354.974 181.681 355.03 195.943 354.966 210.203C354.635 221.428 344.965 231.519 333.686 232.104C331.544 232.216 329.397 232.145 327.253 232.16V223.001C331.17 222.984 335.357 223.383 338.822 221.169C343.157 218.738 345.911 213.843 345.817 208.895C337.682 215.447 325.07 215.105 317.16 208.35C311.392 203.704 308.242 196.233 308.686 188.877V167.419H317.866C317.907 175.577 317.779 183.743 317.932 191.899C318.43 198.484 324.206 204.109 330.823 204.437C337.641 205.14 344.353 200.008 345.536 193.281C346.054 189.513 345.707 185.685 345.812 181.887V167.427H354.992V167.414Z" fill="black"/>
</svg>
