<svg width="400" height="400" viewBox="0 0 400 400" fill="none" xmlns="http://www.w3.org/2000/svg">
<g clip-path="url(#clip0_534_14)">
<path d="M85.6914 279.709C80.2932 276.717 76.9453 271.038 76.9453 264.875V135.717C76.9453 129.58 80.2656 123.922 85.6285 120.919L191.519 61.6236C196.687 58.7296 202.992 58.7296 208.16 61.6236L314.05 120.919C319.413 123.922 322.734 129.58 322.734 135.717V264.875C322.734 271.038 319.386 276.717 313.987 279.709L208.097 338.417M85.6914 279.709L208.097 338.417L85.6914 279.709ZM85.6914 279.709L191.581 338.417C196.717 341.265 202.962 341.265 208.097 338.417M85.6914 279.709L208.097 338.417L85.6914 279.709Z" fill="white"/>
<path d="M85.6914 279.709C80.2932 276.717 76.9453 271.038 76.9453 264.875V135.717C76.9453 129.58 80.2656 123.922 85.6285 120.919L191.519 61.6236C196.687 58.7296 202.992 58.7296 208.16 61.6236L314.05 120.919C319.413 123.922 322.734 129.58 322.734 135.717V264.875C322.734 271.038 319.386 276.717 313.987 279.709L208.097 338.417M85.6914 279.709L208.097 338.417M85.6914 279.709L191.581 338.417C196.717 341.265 202.962 341.265 208.097 338.417" stroke="white" stroke-width="45.5009" stroke-linejoin="round"/>
<path d="M93.9375 136.101L199.696 194.736V323.733L93.9375 265.098V136.101Z" fill="white" fill-opacity="0.01"/>
<path d="M305.457 136.101L199.699 194.736V323.733L305.457 265.098V136.101Z" fill="white" fill-opacity="0.01"/>
<path fill-rule="evenodd" clip-rule="evenodd" d="M97.9313 128.923C95.3836 127.51 92.2771 127.548 89.7651 129.023C87.2532 130.498 85.7109 133.19 85.7109 136.098V265.096C85.7109 268.077 87.3305 270.824 89.9419 272.271L195.7 330.907C198.248 332.319 201.354 332.281 203.866 330.806C206.378 329.331 207.92 326.64 207.92 323.731V194.734C207.92 191.753 206.301 189.006 203.689 187.558L97.9313 128.923ZM102.162 165.994C102.162 158.841 109.862 154.319 116.129 157.793L186.634 196.883C189.618 198.538 191.469 201.677 191.469 205.084V250.503C191.469 257.656 183.769 262.177 177.503 258.703L152.556 244.872C146.29 241.398 138.59 245.92 138.59 253.073V264.859C138.59 271.859 131.054 276.284 124.922 272.885L106.998 262.946C104.013 261.292 102.162 258.153 102.162 254.745V165.994Z" fill="black"/>
<path fill-rule="evenodd" clip-rule="evenodd" d="M138.887 210.57C138.887 204.393 145.531 200.484 150.946 203.475L164.827 211.14C167.491 212.612 169.145 215.412 169.145 218.451C169.145 224.54 162.602 228.398 157.258 225.46L143.091 217.672C140.498 216.246 138.887 213.525 138.887 210.57Z" fill="black"/>
<path d="M201.529 100.895C203.156 100.015 203.173 97.6897 201.557 96.787L200.25 96.0563C198.813 95.2532 197.06 95.2589 195.629 96.0716L184.77 102.237C183.167 103.147 183.191 105.461 184.813 106.337L185.902 106.926C187.299 107.682 188.984 107.681 190.381 106.926L201.529 100.895Z" fill="black"/>
<path fill-rule="evenodd" clip-rule="evenodd" d="M313.679 136.118C313.673 139.093 312.054 141.831 309.448 143.276L203.689 201.911C201.205 203.289 198.184 203.289 195.7 201.911L89.9419 143.276C87.336 141.831 85.7173 139.093 85.711 136.118C85.7046 133.143 87.3117 130.397 89.9114 128.941L195.67 69.7199C198.17 68.3199 201.22 68.3199 203.72 69.7199L309.478 128.941C312.078 130.397 313.685 133.143 313.679 136.118ZM201.995 87.5797C200.567 86.7797 198.823 86.7797 197.395 87.5797L170.759 102.495C167.551 104.291 167.561 108.904 170.778 110.687L195.131 124.181C197.969 125.754 201.42 125.754 204.258 124.181L206.964 122.683C208.579 121.787 208.575 119.468 206.957 118.578L199.903 114.699C198.282 113.808 198.281 111.483 199.902 110.591L210.938 104.514C212.351 103.736 214.065 103.736 215.479 104.514L225.382 109.962C226.799 110.741 228.518 110.739 229.933 109.955L232.293 108.647C233.901 107.756 233.906 105.449 232.302 104.551L201.995 87.5797ZM195.131 142.961L151.049 118.534C148.259 116.988 144.865 116.995 142.081 118.554L118.152 131.953C114.943 133.75 114.953 138.362 118.169 140.145L195.129 182.813C197.969 184.388 201.421 184.388 204.26 182.813L281.221 140.145C284.436 138.362 284.446 133.75 281.238 131.953L257.308 118.554C254.525 116.995 251.131 116.988 248.341 118.534L204.258 142.961C201.42 144.533 197.969 144.533 195.131 142.961Z" fill="black"/>
<path fill-rule="evenodd" clip-rule="evenodd" d="M309.624 129.023C307.112 127.548 304.006 127.51 301.458 128.923L195.7 187.558C193.089 189.006 191.469 191.753 191.469 194.734V323.731C191.469 326.64 193.011 329.331 195.523 330.806C198.035 332.281 201.142 332.319 203.689 330.907L309.447 272.271C312.059 270.824 313.678 268.077 313.678 265.096V136.098C313.678 133.19 312.136 130.498 309.624 129.023ZM283.261 157.793C289.527 154.319 297.227 158.841 297.227 165.994V254.745C297.227 258.153 295.376 261.292 292.392 262.946L221.886 302.036C215.62 305.51 207.92 300.989 207.92 293.836V275.495C207.92 272.089 209.77 268.95 212.753 267.295L267.471 236.935C270.059 235.499 271.654 232.767 271.63 229.813C271.58 223.699 265.003 219.857 259.637 222.806L221.856 243.573C215.591 247.017 207.92 242.494 207.92 235.355V205.084C207.92 201.677 209.771 198.538 212.756 196.883L236.19 183.891C239.323 182.153 243.173 184.415 243.173 187.991V196.562C243.173 202.765 249.803 206.727 255.283 203.798C257.956 202.369 259.624 199.588 259.624 196.562V176.418C259.624 173.011 261.475 169.872 264.459 168.217L283.261 157.793Z" fill="black"/>
</g>
<defs>
<clipPath id="clip0_534_14">
<rect width="264" height="300" fill="white" transform="translate(68 50)"/>
</clipPath>
</defs>
</svg>
