<svg width="400" height="400" viewBox="0 0 400 400" fill="none" xmlns="http://www.w3.org/2000/svg">
<path d="M200 350C282.843 350 350 282.843 350 200C350 117.157 282.843 50 200 50C117.157 50 50 117.157 50 200C50 282.843 117.157 350 200 350Z" fill="#F27777"/>
<path d="M123.002 123.268C136.324 126.199 149.112 130.995 160.569 137.389C146.981 144.316 135.525 154.707 127.265 167.496C121.937 160.302 119.006 151.243 119.006 141.652C119.006 134.991 120.338 128.863 123.002 123.268Z" fill="white"/>
<path d="M280.996 261.812C280.996 270.071 274.335 276.732 266.076 276.732C257.817 276.732 251.156 270.071 251.156 261.812V249.822H148.58V261.812C148.58 270.071 141.92 276.732 133.66 276.732C125.401 276.732 118.74 270.071 118.74 261.812V216.252C118.74 172.291 152.843 134.991 196.804 133.393C242.897 131.794 280.73 168.561 280.73 214.387L280.996 261.812Z" fill="white"/>
<path d="M272.733 167.496C264.474 154.707 253.018 144.316 239.43 137.389C251.153 130.995 263.675 126.199 276.996 123.268C279.661 128.863 280.993 134.991 280.993 141.652C280.993 151.243 277.796 160.036 272.733 167.496Z" fill="white"/>
<path d="M235.434 198.401C234.368 197.868 233.303 198.135 232.77 198.934C231.704 200.533 230.372 201.598 228.507 202.664C228.507 202.131 228.507 201.865 228.507 201.332C228.507 197.602 227.175 194.138 225.043 191.474C223.445 189.076 220.78 187.744 217.583 187.744C212.521 187.744 208.258 192.007 208.258 197.069C208.258 199.201 209.058 201.332 210.39 202.931C211.988 204.796 213.853 206.394 216.251 207.46C214.653 208.259 213.054 208.792 211.189 208.792C209.058 208.792 207.459 210.657 207.459 212.522C207.459 214.654 209.058 216.252 211.189 216.252C211.722 216.252 212.521 216.252 213.054 216.252C218.915 216.252 224.244 212.789 226.642 207.993C230.638 206.927 233.836 204.263 235.967 200.799C236.766 200.266 236.5 198.934 235.434 198.401ZM220.248 203.464C217.85 202.664 215.718 201.332 214.386 199.201C213.853 198.668 213.587 197.868 213.587 197.069C213.587 194.938 215.185 193.339 217.317 193.339C219.182 193.339 221.047 194.938 221.047 196.803C221.047 197.336 221.313 197.868 221.313 198.668C221.58 200.266 221.047 202.131 220.248 203.464Z" fill="#F27777"/>
</svg>
