<svg width="400" height="400" viewBox="0 0 400 400" fill="none" xmlns="http://www.w3.org/2000/svg">
<path d="M350.458 43H49.5417C45.9288 43 43 45.9288 43 49.5417V350.458C43 354.071 45.9288 357 49.5417 357H350.458C354.071 357 357 354.071 357 350.458V49.5417C357 45.9288 354.071 43 350.458 43Z" fill="#FEDD00"/>
<path fill-rule="evenodd" clip-rule="evenodd" d="M155.189 272.234V129.024H131.312V105.147H215.981C268.864 105.147 279.834 140.027 279.834 164.218C279.834 183.627 271.958 198.536 263.8 206.693C250.58 219.914 232.577 223.008 205.292 223.008H183.914V272.234H208.949V296.111H131.312V272.234H155.189ZM183.881 199.942H207.758C242.919 199.942 250.514 183.627 250.514 163.937C250.514 141.433 237.856 129.057 216.759 129.057H183.914L183.881 199.942Z" fill="black"/>
</svg>
