<svg width="400" height="187" viewBox="0 0 400 187" fill="none" xmlns="http://www.w3.org/2000/svg">
<path d="M335.497 0L290.447 137.565H289.877L241.533 0H185.036H179.826H135.843L99.2363 56.1255L60.4878 0H6.15142L69.3548 88.1956L0 187H51.4655L95.7019 121.963L141.505 187H180.555H194.138H223.092V58.0338H223.657C224.796 63.4336 225.869 68.0539 226.857 71.8987C227.86 75.7476 228.829 79.3041 229.775 82.5765C230.721 85.8489 231.748 88.9548 232.835 91.9024C233.927 94.8499 235.038 98.0777 236.177 101.594L268.185 187H311.278L342.891 101.638C345.212 94.7688 347.367 88.1469 349.368 81.7726C351.363 75.3903 353.109 68.196 354.587 60.1856H355.152V187H400V0H335.497ZM121.959 88.1062L178.24 7.52721V167.114L121.959 88.1062Z" fill="url(#paint0_linear_282_60)"/>
<defs>
<linearGradient id="paint0_linear_282_60" x1="52.9571" y1="1.7676" x2="345.381" y2="246.914" gradientUnits="userSpaceOnUse">
<stop stop-color="#21DBAA"/>
<stop offset="0.253764" stop-color="#00B4EF"/>
<stop offset="0.309135" stop-color="#00B4EF"/>
<stop offset="0.376491" stop-color="#00B4EF"/>
<stop offset="0.645893" stop-color="#0768DD"/>
<stop offset="1" stop-color="#5F1AE5"/>
</linearGradient>
</defs>
</svg>
