<svg width="346" height="400" viewBox="0 0 346 400" fill="none" xmlns="http://www.w3.org/2000/svg">
<g clip-path="url(#clip0_259_20)">
<path d="M172.999 0C285.709 0 342.345 58.5466 342.345 58.5466C342.345 58.5466 348.81 101.808 344.734 189.15C338.55 320.983 173.139 400 173.139 400.136C173.139 400.273 7.5878 320.846 1.40421 189.15C-2.81188 101.808 3.65279 58.5466 3.65279 58.5466C3.65279 58.5466 60.2889 0 172.999 0Z" fill="#ED2E26"/>
<path d="M88.3953 173.182C88.3953 126.645 126.34 88.7061 172.998 88.7061C219.656 88.7061 257.601 125.554 257.601 170.862C257.601 207.027 225.559 236.778 200.965 252.063C210.521 257.386 231.602 262.981 251.839 264.755C281.773 242.237 299.34 207.573 299.34 170.862C299.621 103.036 243.126 47.9009 173.279 47.628C103.433 47.355 46.6561 102.217 46.375 170.044C46.375 170.316 46.375 170.589 46.375 170.862C46.375 211.804 63.942 248.106 97.1086 275.946C128.167 302.012 173.42 319.344 225.137 327.532C236.38 321.528 255.493 303.786 262.66 293.414C219.516 288.092 178.76 277.857 151.355 263.936C109.616 242.647 88.3953 212.077 88.3953 173.182Z" fill="white"/>
</g>
<defs>
<clipPath id="clip0_259_20">
<rect width="346" height="400" fill="white"/>
</clipPath>
</defs>
</svg>
