<svg width="356" height="400" viewBox="0 0 356 400" fill="none" xmlns="http://www.w3.org/2000/svg">
<path d="M334.413 150L178 0L21.5868 150C7.76456 163.264 0 181.248 0 200C0 218.752 7.76456 236.736 21.5868 250L65.0349 291.667L134.552 358.333L160.621 383.333L178 400L195.379 383.333L221.448 358.333L290.965 291.667L334.413 250C348.235 236.736 356 218.752 356 200C356 181.248 348.235 163.264 334.413 150ZM256.792 299.438C256.7 284.006 250.271 269.229 238.898 258.311L180.342 202.156C180.059 201.878 179.72 201.657 179.346 201.506C178.972 201.354 178.57 201.277 178.164 201.277C177.758 201.277 177.356 201.354 176.982 201.506C176.608 201.657 176.269 201.878 175.986 202.156L117.102 258.311C105.709 269.213 99.2546 283.982 99.1376 299.416L78.0577 279.2C74.0494 275.371 70.8689 270.82 68.6988 265.809C66.5286 260.798 65.4115 255.426 65.4115 250C65.4115 244.574 66.5286 239.202 68.6988 234.191C70.8689 229.18 74.0494 224.629 78.0577 220.8L178 125L277.919 220.845C281.927 224.674 285.108 229.225 287.278 234.236C289.448 239.247 290.565 244.619 290.565 250.045C290.565 255.471 289.448 260.843 287.278 265.854C285.108 270.865 281.927 275.416 277.919 279.245L256.792 299.438ZM321.367 237.489L308.93 249.438C308.813 234.004 302.358 219.235 290.965 208.333L180.178 102.089C179.895 101.81 179.556 101.589 179.182 101.438C178.808 101.287 178.406 101.209 178 101.209C177.594 101.209 177.192 101.287 176.818 101.438C176.444 101.589 176.105 101.81 175.822 102.089L65.0349 208.333C53.6417 219.235 47.1872 234.004 47.0701 249.438L34.633 237.489C29.495 232.566 25.4191 226.72 22.6381 220.285C19.8572 213.851 18.4259 206.954 18.4259 199.989C18.4259 193.024 19.8572 186.127 22.6381 179.692C25.4191 173.258 29.495 167.412 34.633 162.489L178 25L321.367 162.489C326.505 167.412 330.581 173.258 333.362 179.692C336.143 186.127 337.574 193.024 337.574 199.989C337.574 206.954 336.143 213.851 333.362 220.285C330.581 226.72 326.505 232.566 321.367 237.489Z" fill="#67B8C7"/>
</svg>
