<svg width="400" height="400" viewBox="0 0 400 400" fill="none" xmlns="http://www.w3.org/2000/svg">
<path d="M200 400C310.456 400 400 310.456 400 200C400 89.543 310.456 0 200 0C89.5431 0 0 89.543 0 200C0 310.456 89.5431 400 200 400Z" fill="#2FA549"/>
<path d="M55.5808 199.994C55.5808 220.624 63.7763 240.41 78.3643 254.998C92.9523 269.586 112.738 277.781 133.369 277.781H144.429V248.861H133.369C126.769 249.145 120.179 248.091 113.997 245.76C107.815 243.431 102.168 239.873 97.3971 235.303C92.6262 230.734 88.8296 225.245 86.2359 219.17C83.6421 213.093 82.305 206.556 82.305 199.949C82.305 193.343 83.6421 186.804 86.2359 180.728C88.8296 174.652 92.6262 169.163 97.3971 164.594C102.168 160.024 107.815 156.467 113.997 154.137C120.179 151.807 126.769 150.753 133.369 151.037H160.023V302.169C160.023 309.84 163.07 317.196 168.494 322.62C173.918 328.043 181.274 331.091 188.944 331.091V122.569H133.369C112.801 122.569 93.0698 130.715 78.4922 145.224C63.9145 159.734 55.6767 179.426 55.5808 199.994ZM266.732 122.206H255.581V151.127H266.732C279.692 151.127 292.122 156.275 301.286 165.44C310.451 174.604 315.599 187.034 315.599 199.994C315.599 212.955 310.451 225.383 301.286 234.547C292.122 243.712 279.692 248.861 266.732 248.861H239.534V97.7274C239.534 90.0812 236.496 82.748 231.089 77.3412C225.683 71.9346 218.349 68.897 210.703 68.897V277.42H266.279C286.909 277.42 306.695 269.224 321.283 254.636C335.871 240.048 344.067 220.262 344.067 199.632C344.067 179 335.871 159.214 321.283 144.626C306.695 130.038 286.909 121.843 266.279 121.843L266.732 122.206Z" fill="white"/>
</svg>
