<svg width="400" height="400" viewBox="0 0 400 400" fill="none" xmlns="http://www.w3.org/2000/svg">
<mask id="mask0_103_14" style="mask-type:alpha" maskUnits="userSpaceOnUse" x="48" y="0" width="305" height="349">
<path d="M163.599 121.801L352.962 4.8594e-05L306.722 169.546L260.483 349H48L90.9369 212.078L163.599 121.801Z" fill="#D9D9D9"/>
</mask>
<g mask="url(#mask0_103_14)">
<path d="M184.224 130.882L169.368 185.66L254.402 130.57L198.788 338.439L255.27 338.486L337.427 31.4543" fill="#3395FF"/>
<path d="M92.7 251.098L69.3074 338.486H185.073L232.443 160.714L92.7 251.098ZM494.828 174.16C491.998 184.696 486.546 192.435 478.415 197.377C470.303 202.31 458.918 204.786 444.222 204.786H397.531L413.925 143.553H460.616C475.293 143.553 485.376 146.01 490.847 151.018C496.318 156.027 497.639 163.681 494.828 174.264M543.169 172.941C549.112 150.829 546.659 133.82 535.793 121.914C524.946 110.102 505.911 104.149 478.745 104.149H374.544L311.818 338.59H362.442L387.721 244.096H420.924C428.376 244.096 434.243 245.324 438.525 247.686C442.817 250.143 445.335 254.396 446.109 260.538L455.145 338.59H509.382L500.591 265.829C498.799 249.576 491.375 240.032 478.33 237.198C494.96 232.378 508.892 224.346 520.116 213.196C531.263 202.127 539.226 188.254 543.169 173.036M666.226 254.679C661.982 270.554 655.473 282.555 646.673 290.965C637.863 299.375 627.336 303.533 615.055 303.533C602.547 303.533 594.067 299.469 589.587 291.248C585.097 283.027 584.946 271.121 589.115 255.529C593.284 239.938 599.934 227.748 609.084 218.96C618.233 210.172 628.93 205.778 641.211 205.778C653.473 205.778 661.868 210.03 666.113 218.469C670.452 226.945 670.546 239.068 666.302 254.849L666.226 254.679ZM688.411 171.713L682.073 195.431C679.337 186.926 674.027 180.123 666.179 175.02C658.312 170.012 648.578 167.46 636.966 167.46C622.723 167.46 609.046 171.146 595.935 178.516C582.824 185.887 571.316 196.281 561.506 209.7C551.696 223.118 544.528 238.331 539.906 255.435C535.378 272.633 534.435 287.658 537.17 300.698C540 313.833 545.943 323.849 555.092 330.842C564.336 337.929 576.127 341.425 590.558 341.425C602.026 341.483 613.365 338.999 623.761 334.149C634.04 329.505 643.182 322.668 650.549 314.116L643.947 338.836H692.901L737.602 171.798H688.553L688.411 171.713ZM913.519 171.713H771.154L761.202 208.944H844.039L734.527 303.722L725.17 338.685H872.129L882.08 301.454H793.32L904.511 205.258M1038.83 254.396C1034.42 270.838 1027.89 283.198 1019.26 291.248C1010.63 299.375 1000.18 303.438 987.904 303.438C962.247 303.438 953.815 287.091 962.568 254.396C966.907 238.142 973.472 225.924 982.244 217.694C991.016 209.435 1001.65 205.315 1014.14 205.315C1026.41 205.315 1034.69 209.407 1038.95 217.647C1043.22 225.868 1043.18 238.124 1038.83 254.377M1067.49 177.997C1056.21 170.966 1041.83 167.451 1024.28 167.451C1006.52 167.451 990.083 170.947 974.953 177.94C959.886 184.889 946.644 195.262 936.279 208.235C925.621 221.37 917.952 236.772 913.245 254.348C908.623 271.858 908.057 287.232 911.642 300.396C915.226 313.53 922.772 323.641 934.091 330.634C945.505 337.683 960.031 341.189 977.858 341.189C995.403 341.189 1011.72 337.655 1026.72 330.624C1041.72 323.556 1054.54 313.521 1065.2 300.292C1075.86 287.119 1083.5 271.754 1088.22 254.178C1092.93 236.602 1093.5 221.256 1089.92 208.065C1086.33 194.93 1078.88 184.819 1067.66 177.779M1242.25 216.333L1254.8 170.881C1250.55 168.708 1244.99 167.574 1238.01 167.574C1226.78 167.574 1216.03 170.352 1205.65 175.984C1196.73 180.765 1189.15 187.512 1182.73 195.96L1189.24 171.486L1175.03 171.543H1140.13L1095.13 338.515H1144.78L1168.12 251.23C1171.52 238.539 1177.63 228.551 1186.45 221.464C1195.22 214.349 1206.16 210.786 1219.37 210.786C1227.48 210.786 1235.03 212.648 1242.2 216.361M1380.38 255.199C1376.14 270.79 1369.72 282.697 1360.95 290.918C1352.18 299.177 1341.61 303.297 1329.35 303.297C1317.09 303.297 1308.69 299.139 1304.26 290.823C1299.73 282.46 1299.64 270.412 1303.88 254.575C1308.13 238.747 1314.64 226.605 1323.6 218.195C1332.56 209.718 1343.12 205.485 1355.39 205.485C1367.46 205.485 1375.57 209.832 1379.91 218.62C1384.25 227.408 1384.34 239.598 1380.17 255.189M1414.89 178.271C1405.69 170.9 1393.95 167.215 1379.7 167.215C1367.22 167.215 1355.33 170.05 1344.05 175.776C1332.78 181.493 1323.63 189.289 1316.6 199.154L1316.77 198.02L1325.1 171.467H1276.61L1264.26 217.675L1263.88 219.281L1212.94 409.631H1262.65L1288.31 313.814C1290.86 322.337 1296.05 329.027 1303.97 333.866C1311.89 338.685 1321.67 341.076 1333.3 341.076C1347.74 341.076 1361.51 337.579 1374.57 330.587C1387.68 323.575 1399 313.483 1408.62 300.443C1418.24 287.403 1425.38 272.283 1429.94 255.18C1434.56 238.048 1435.51 222.768 1432.86 209.397C1430.18 196.007 1424.22 185.641 1415.04 178.308M1579.78 254.518C1575.53 270.299 1569.02 282.394 1560.25 290.71C1551.48 299.082 1540.91 303.249 1528.65 303.249C1516.11 303.249 1507.62 299.186 1503.18 290.965C1498.66 282.744 1498.56 270.838 1502.71 255.246C1506.86 239.654 1513.48 227.465 1522.63 218.677C1531.78 209.889 1542.49 205.504 1554.77 205.504C1567.03 205.504 1575.33 209.756 1579.67 218.166C1584.01 226.605 1584.04 238.728 1579.81 254.547L1579.78 254.518ZM1601.94 171.505L1595.59 195.223C1592.86 186.671 1587.58 179.868 1579.75 174.812C1571.82 169.766 1562.11 167.253 1550.51 167.253C1536.26 167.253 1522.51 170.938 1509.38 178.308C1496.27 185.679 1484.76 196.017 1474.95 209.397C1465.14 222.778 1457.97 238.029 1453.35 255.133C1448.78 272.302 1447.88 287.355 1450.62 300.452C1453.38 313.492 1459.33 323.566 1468.54 330.596C1477.73 337.589 1489.57 341.123 1504 341.123C1515.61 341.123 1526.69 338.704 1537.21 333.847C1547.46 329.181 1556.58 322.335 1563.93 313.785L1557.33 338.524H1606.28L1650.97 171.552H1602.02L1601.94 171.505ZM1856.5 171.562L1856.53 171.514H1826.44C1825.47 171.514 1824.63 171.562 1823.75 171.58H1808.14L1800.12 182.731L1798.14 185.377L1797.29 186.7L1733.86 275.222L1720.75 171.562H1668.79L1695.11 329.084L1637 409.688H1688.79L1702.84 389.721C1703.24 389.135 1703.6 388.644 1704.07 388.02L1720.48 364.68L1720.95 364.019L1794.46 259.602L1856.43 171.722L1856.53 171.665H1856.5V171.562Z" fill="#072654"/>
</g>
</svg>
