<svg width="400" height="300" viewBox="0 0 400 300" fill="none" xmlns="http://www.w3.org/2000/svg">
<g clip-path="url(#clip0_307_172)">
<path d="M389.76 114.153C389.76 44.5476 350.08 6.2645 275.84 5.56845H165.12L2.56 0C1.28 0 0 1.39211 0 2.78422L2.56 18.0974C7.04 41.7633 26.24 59.1647 48.64 59.1647L165.12 64.7332V89.0951L56.96 83.5267C55.68 83.5267 54.4 84.9188 54.4 86.3109L57.6 103.712C62.08 127.378 81.28 144.78 103.68 144.78L165.12 147.564V168.445L119.04 167.053C117.76 167.053 116.48 168.445 116.48 169.838L119.04 179.582C123.52 203.944 142.08 222.738 165.12 224.13V299.304H229.12V222.738H270.72L319.36 300H400.64L339.2 208.121C371.2 192.111 389.76 160.789 389.76 114.153ZM267.52 162.181H228.48V68.2135H269.44C305.28 68.2135 319.36 84.9188 319.36 117.633C319.36 141.995 304.64 162.181 267.52 162.181Z" fill="#5F239F"/>
</g>
<defs>
<clipPath id="clip0_307_172">
<rect width="400" height="300" fill="white"/>
</clipPath>
</defs>
</svg>
