<svg width="400" height="400" viewBox="0 0 400 400" fill="none" xmlns="http://www.w3.org/2000/svg">
<path fill-rule="evenodd" clip-rule="evenodd" d="M169.594 100.293C154.236 116.656 138.592 132.573 122.661 148.489C120.077 151.018 115.771 152.803 112.183 153.101C101.419 153.845 90.6545 153.25 80.0335 154.142C61.0881 155.63 52.62 163.514 50.7542 183C50.1801 188.95 50.0366 194.9 50.0366 200.851C49.893 206.801 50.1801 212.751 50.7542 218.701C52.4765 238.188 61.0881 246.071 80.0335 247.559C90.798 248.452 101.562 247.708 112.183 248.6C115.771 248.898 120.077 250.534 122.661 253.212C138.592 268.979 154.236 285.045 169.594 301.408C186.817 319.853 208.346 318.663 230.305 316.58C230.305 277.905 230.305 239.526 230.305 200.999C230.305 162.472 230.305 121.416 230.305 82.8893C208.202 80.5093 186.817 81.8481 169.594 100.293Z" fill="#444464"/>
<path fill-rule="evenodd" clip-rule="evenodd" d="M281.539 106.393L292.591 84.3779C292.591 84.3779 350.001 118.294 350.001 201C350.001 283.856 291.873 314.499 291.873 314.499L281.539 293.674C281.539 293.674 327.18 264.072 327.18 201.595C327.18 139.119 281.539 106.393 281.539 106.393Z" fill="#EE6600"/>
<path fill-rule="evenodd" clip-rule="evenodd" d="M261.754 149.528L272.662 127.215C272.662 127.215 306.247 153.098 306.247 201.74C306.247 250.382 272.518 272.993 272.518 272.993L261.754 250.531C261.754 250.531 283.426 233.276 283.426 201.889C283.57 170.353 261.754 149.528 261.754 149.528Z" fill="#EE6600"/>
</svg>
