<svg width="400" height="280" viewBox="0 0 400 280" fill="none" xmlns="http://www.w3.org/2000/svg">
<path d="M400 182.186C400 208.617 389.832 233.97 371.662 251.95C370.495 253.209 368.661 253.209 367.494 251.95C360.826 245.118 352.992 239.724 344.49 235.948C339.323 233.79 330.988 232.531 330.988 224.62C330.988 223.002 331.488 221.383 332.155 219.945C332.321 219.765 332.321 219.585 332.488 219.406C339.323 208.437 343.824 196.031 345.657 182.905V182.725C346.157 179.309 346.491 175.893 346.491 172.296V172.476C345.824 152.877 330.488 137.594 312.318 138.313C295.148 139.032 281.313 153.956 280.646 172.476C280.812 175.893 280.979 179.309 281.479 182.905V183.085C283.313 196.211 287.814 208.617 294.648 219.585C294.815 219.765 294.815 219.945 294.982 220.125C295.815 221.563 296.149 223.002 296.149 224.8C296.149 232.352 288.48 233.43 283.48 235.588C281.979 236.307 281.146 238.285 281.813 239.903C281.979 240.263 282.146 240.623 282.313 240.802C284.313 243.32 286.313 246.017 288.314 248.714C293.981 256.805 298.982 265.616 302.983 274.965L303.15 275.145C303.316 275.325 303.316 275.505 303.316 275.685L303.483 276.044C303.483 276.224 303.483 276.404 303.483 276.763C303.483 278.382 302.483 279.64 301.149 280C300.983 280 300.816 280 300.483 280C299.649 280 298.982 279.64 298.482 279.101C280.812 258.783 261.142 242.6 236.138 234.689C235.638 234.509 234.971 234.15 234.471 233.79C234.138 233.61 233.804 233.43 233.471 233.071C227.637 228.755 226.636 220.844 229.804 214.371C234.304 205.021 239.805 196.57 243.473 186.681C252.974 161.328 258.809 130.042 242.973 106.128C226.136 80.4158 193.297 74.3025 169.46 92.4628C169.126 92.6426 168.96 92.8224 168.626 93.182C164.125 96.7782 160.125 101.273 156.791 106.128C140.955 130.042 146.789 161.328 156.291 186.681C159.958 196.57 165.459 205.021 169.96 214.371C173.127 220.844 172.127 228.755 166.292 233.071L165.292 233.79C164.792 234.15 164.125 234.329 163.625 234.689C138.621 242.6 118.951 258.783 101.281 279.101C100.781 279.64 99.9475 280 99.114 280C98.9473 280 98.7806 280 98.4472 280C97.1136 279.64 96.1135 278.382 96.1135 276.763C96.1135 276.584 96.1135 276.404 96.1135 276.044C96.1135 275.864 96.1135 275.864 96.2802 275.685C96.2802 275.505 96.4469 275.325 96.4469 275.145L96.6136 274.965C100.614 265.616 105.448 256.805 111.283 248.714C113.116 246.017 115.117 243.32 117.284 240.802C118.451 239.544 118.284 237.386 117.117 236.307C116.784 236.127 116.617 235.768 116.284 235.768C111.283 233.61 103.615 232.531 103.615 224.98C103.615 223.361 104.115 221.743 104.782 220.305C104.948 220.125 104.948 219.945 105.115 219.765C111.95 208.797 116.45 196.39 118.284 183.265V183.085C118.784 179.669 119.118 176.252 119.118 172.656V172.476C118.451 152.877 103.281 137.594 85.1115 138.313C67.9419 139.032 54.1061 153.956 53.4393 172.476C53.606 175.893 53.7727 179.309 54.2728 182.905V183.085C56.1065 196.211 60.6073 208.617 67.4418 219.585C67.6085 219.765 67.6085 219.945 67.7752 220.125C68.6087 221.563 68.942 223.002 68.942 224.8C68.942 232.711 60.4406 233.97 55.4397 236.127C46.9382 239.903 39.1035 245.298 32.4357 252.13C31.2688 253.389 29.4351 253.389 28.2683 252.13C-7.07126 216.888 -9.5717 157.552 22.4339 118.894C36.6031 101.813 56.1065 91.0244 77.2768 88.5071C78.4437 88.3273 79.2772 87.6081 79.7773 86.5292C108.449 13.8878 185.462 -19.556 251.807 11.7301C282.479 26.2944 306.984 53.0854 319.986 86.5292C320.486 87.6081 321.32 88.3273 322.486 88.5071C366.661 93.3618 400 133.818 400 182.186Z" fill="#1999E3"/>
</svg>
