<svg width="400" height="400" viewBox="0 0 400 400" fill="none" xmlns="http://www.w3.org/2000/svg">
<g clip-path="url(#clip0_290_23)">
<path d="M200 0C89.7143 0 0 89.7143 0 200C0 310.286 89.7143 400 200 400C310.286 400 400 310.286 400 200C400 89.7143 310.286 0 200 0ZM244.571 316L204 250.286C186.857 225.143 177.143 221.143 166.857 221.143V316H121.143V190.286H193.714C226.286 190.286 240 170.286 240 144.571C240 126.857 229.714 105.143 200.571 105.143C166.286 105.143 166.286 132.571 166.286 132.571H192.571L144 171.429L98.2857 132.571H121.143C127.429 94.8572 154.286 72.5714 200 72.5714C252.571 72.5714 285.714 95.4286 285.714 144C285.714 183.429 257.143 208 228.571 214.857C234.286 219.429 242.286 230.857 253.714 248L296 315.429L244.571 316Z" fill="#893999"/>
</g>
<defs>
<clipPath id="clip0_290_23">
<rect width="400" height="400" fill="white"/>
</clipPath>
</defs>
</svg>
