<svg width="400" height="400" viewBox="0 0 400 400" fill="none" xmlns="http://www.w3.org/2000/svg">
<path d="M200 353C284.5 353 353 284.5 353 200C353 115.5 284.5 47 200 47C115.5 47 47 115.5 47 200C47 284.5 115.5 353 200 353Z" fill="#FF4500"/>
<path d="M302 200C302 187.653 291.979 177.632 279.631 177.632C273.547 177.632 268.179 179.958 264.242 183.895C249.031 172.979 227.916 165.821 204.653 164.926L214.853 117.148L247.958 124.126C248.316 132.537 255.295 139.337 263.884 139.337C272.653 139.337 279.81 132.179 279.81 123.411C279.81 114.642 272.653 107.484 263.884 107.484C257.621 107.484 252.253 111.063 249.747 116.432L212.705 108.558C211.631 108.379 210.558 108.558 209.663 109.095C208.768 109.632 208.231 110.526 207.874 111.6L196.6 164.926C172.8 165.642 151.505 172.621 136.116 183.895C132.179 180.137 126.631 177.632 120.726 177.632C108.379 177.632 98.3578 187.653 98.3578 200C98.3578 209.126 103.726 216.821 111.6 220.4C111.242 222.548 111.063 224.874 111.063 227.2C111.063 261.558 150.968 289.295 200.358 289.295C249.747 289.295 289.653 261.558 289.653 227.2C289.653 224.874 289.474 222.726 289.116 220.579C296.453 217 302 209.126 302 200ZM149 215.926C149 207.158 156.158 200 164.926 200C173.695 200 180.853 207.158 180.853 215.926C180.853 224.695 173.695 231.853 164.926 231.853C156.158 231.853 149 224.695 149 215.926ZM237.937 257.979C227.021 268.895 206.263 269.611 200.179 269.611C194.095 269.611 173.158 268.716 162.421 257.979C160.81 256.369 160.81 253.684 162.421 252.074C164.031 250.463 166.716 250.463 168.326 252.074C175.126 258.874 189.8 261.379 200.358 261.379C210.916 261.379 225.41 258.874 232.389 252.074C234 250.463 236.684 250.463 238.295 252.074C239.547 253.863 239.547 256.369 237.937 257.979ZM235.074 231.853C226.305 231.853 219.147 224.695 219.147 215.926C219.147 207.158 226.305 200 235.074 200C243.842 200 251 207.158 251 215.926C251 224.695 243.842 231.853 235.074 231.853Z" fill="white"/>
</svg>
