<svg width="400" height="400" viewBox="0 0 400 400" fill="none" xmlns="http://www.w3.org/2000/svg">
<g clip-path="url(#clip0_306_83)">
<path d="M278.599 129.383V84.7998L139.144 4.36328L53.5406 53.6228L14.9414 120.341L139.144 48.6345L278.599 129.383Z" fill="#3195D8"/>
<path d="M139.144 74.1992L0 154.324V253.467L37.9767 319.562V177.083L177.432 96.6466L139.144 74.1992Z" fill="#3195D8"/>
<path d="M98.3648 167.73L59.7656 189.866V350.116L146.303 399.999H221.945L98.3648 328.603V167.73Z" fill="#3195D8"/>
<path d="M120.467 271.551V315.822L259.611 396.258L346.148 346.375L384.436 280.28L259.611 351.987L120.467 271.551Z" fill="#3195D8"/>
<path d="M361.09 79.1875V223.848L221.635 304.285L260.234 326.732L400.001 245.672V145.906L361.09 79.1875Z" fill="#3195D8"/>
<path d="M300.701 233.203L339.3 211.068V49.5713L253.697 0H175.564L300.701 72.3305V233.203Z" fill="#3195D8"/>
</g>
<defs>
<clipPath id="clip0_306_83">
<rect width="400" height="400" fill="white"/>
</clipPath>
</defs>
</svg>
