<svg width="400" height="400" viewBox="0 0 400 400" fill="none" xmlns="http://www.w3.org/2000/svg">
<rect x="47" y="47" width="306" height="306" fill="#05050A"/>
<path d="M105.14 315.947V82.9551H208.14C222.538 82.9551 235.607 86.2835 247.347 92.9405C259.086 99.3755 268.279 108.14 274.925 119.235C281.791 130.33 285.225 142.978 285.225 157.18C285.225 171.159 281.791 183.918 274.925 195.457C268.279 206.774 259.086 215.761 247.347 222.418C235.607 229.075 222.538 232.403 208.14 232.403H153.317V315.947H105.14ZM237.047 315.947L177.905 210.768L229.072 202.447L294.86 316.28L237.047 315.947ZM153.317 191.796H205.814C211.795 191.796 217 190.464 221.43 187.802C226.082 184.917 229.626 181.034 232.063 176.152C234.499 171.048 235.718 165.39 235.718 159.177C235.718 152.52 234.278 146.751 231.398 141.869C228.519 136.987 224.31 133.215 218.772 130.552C213.235 127.667 206.811 126.225 199.501 126.225H153.317V191.796Z" fill="white"/>
</svg>
