<svg width="400" height="400" viewBox="0 0 400 400" fill="none" xmlns="http://www.w3.org/2000/svg">
<g clip-path="url(#clip0_299_2)">
<path d="M199.999 400.799C310.456 400.799 400 310.898 400 200C400 89.1008 310.456 -0.800781 199.999 -0.800781C89.5432 -0.800781 0 89.1008 0 200C0 310.898 89.5432 400.799 199.999 400.799Z" fill="#3A589B"/>
<path fill-rule="evenodd" clip-rule="evenodd" d="M95.0155 370.112L204.136 222.431L187.757 206.453L33.4258 311.784C48.7095 335.748 69.892 355.822 95.0155 370.112Z" fill="#FFBA00"/>
<path d="M398.966 1.91522C398.81 2.07387 398.346 2.5498 397.261 3.66041C398.346 2.70844 398.966 2.07387 398.966 1.91522C395.713 1.75647 392.771 2.23251 392.771 2.23251C326.024 13.021 274.145 34.4397 234.964 68.0747C225.672 76.0076 210.96 90.9212 203.992 99.806C201.048 103.614 195.938 111.07 192.221 116.306C188.969 121.542 184.788 127.095 184.788 127.095C184.788 127.095 182.31 126.302 177.974 125.826C168.527 123.921 151.182 125.667 142.045 134.234C132.753 142.643 94.5019 181.038 92.1787 183.893C94.9659 184.688 149.633 188.971 155.673 190.875C157.687 191.827 158.306 192.62 159.39 194.206C159.544 195.476 158.925 200.87 158.925 200.712C158.46 203.884 157.222 222.764 154.899 227.683L179.987 253.385C184.788 250.847 201.822 248.308 205.075 247.832C204.92 247.832 210.185 247.198 211.424 247.356C212.972 248.468 213.747 249.101 214.676 251.164C216.535 257.352 220.872 313.357 221.646 316.213C224.433 313.992 262.064 274.645 270.118 265.125C278.481 255.765 280.029 238.154 278.326 228.317C277.707 223.875 277.087 221.336 277.087 221.336C277.087 221.336 282.508 217.212 287.618 213.721C292.728 209.913 300.008 204.678 303.724 201.664C312.551 194.524 327.108 179.292 334.696 169.932C367.528 129.792 388.28 76.6422 398.811 8.26145C398.656 8.42009 399.12 5.24697 398.966 1.91522ZM328.348 113.451C317.816 124.239 300.782 124.239 290.251 113.451C279.72 102.662 279.72 85.21 290.251 74.421C300.782 63.6324 317.816 63.6324 328.348 74.421C338.878 85.3684 338.878 102.82 328.348 113.451Z" fill="white"/>
</g>
<defs>
<clipPath id="clip0_299_2">
<rect width="400" height="400" fill="white"/>
</clipPath>
</defs>
</svg>
