<svg width="400" height="300" viewBox="0 0 400 300" fill="none" xmlns="http://www.w3.org/2000/svg">
<path fill-rule="evenodd" clip-rule="evenodd" d="M398.612 6.71027C397.639 4.67366 396.174 2.97042 394.378 1.78694C392.583 0.603468 390.525 -0.0146386 388.431 0.000263909H101.941C99.0702 -0.0201402 96.2969 1.14328 94.1692 3.26057C92.0415 5.37785 90.7143 8.29493 90.4499 11.4352C90.3535 12.5538 90.3877 13.6812 90.5517 14.7902C90.8385 16.5651 91.4582 18.2551 92.3714 19.7529L116.105 58.4193L272.247 58.5311C288.345 58.5311 297.927 78.2418 288.969 92.9199L213.341 216.915L235.967 253.792C236.243 254.254 236.549 254.693 236.883 255.106L237.074 255.316C237.354 255.652 237.621 255.973 237.914 256.239L238.219 256.518L239.033 257.217L239.364 257.427C239.648 257.629 239.942 257.816 240.242 257.986L240.599 258.168C240.904 258.322 241.21 258.489 241.515 258.615L241.948 258.755C242.24 258.853 242.533 258.965 242.838 259.049L243.297 259.132C243.589 259.202 243.882 259.272 244.187 259.314L244.696 259.356L245.549 259.398C245.778 259.398 245.982 259.37 246.211 259.356L246.923 259.3C247.14 259.272 247.369 259.216 247.598 259.16C247.827 259.118 248.043 259.091 248.272 259.021C248.527 258.965 248.756 258.881 248.998 258.783C249.201 258.727 249.392 258.671 249.583 258.587C249.837 258.489 250.092 258.35 250.334 258.238L250.855 257.972C251.152 257.801 251.441 257.614 251.721 257.413C251.823 257.315 251.95 257.259 252.064 257.175C252.37 256.931 252.667 256.675 252.955 256.407L253.184 256.225C253.923 255.5 254.573 254.673 255.119 253.764L398.027 19.7109C399.246 17.7488 399.93 15.4453 399.999 13.0708C400.028 10.8549 399.559 8.66686 398.612 6.71027Z" fill="#12B36A"/>
<path fill-rule="evenodd" clip-rule="evenodd" d="M250.829 82.0195H9.71812C2.41365 82.0195 -2.0912 90.421 0.975659 97.3128C1.24104 98.1014 1.59136 98.8523 2.01915 99.5494L121.525 294.112C121.894 294.699 122.301 295.216 122.747 295.705C126.717 301.563 134.836 301.437 138.59 295.286L258.821 98.6128C259.799 97.0084 260.362 95.1421 260.449 93.2136C260.536 91.285 260.144 89.3667 259.316 87.6638C258.487 85.9609 257.252 84.5375 255.744 83.5458C254.236 82.5541 252.511 82.0313 250.753 82.0335" fill="#12B36A"/>
</svg>
