<svg width="400" height="400" viewBox="0 0 400 400" fill="none" xmlns="http://www.w3.org/2000/svg">
<g clip-path="url(#clip0_557_82)">
<mask id="mask0_557_82" style="mask-type:luminance" maskUnits="userSpaceOnUse" x="50" y="160" width="300" height="80">
<path d="M50 160H350V239.09H50V160Z" fill="white"/>
</mask>
<g mask="url(#mask0_557_82)">
<path fill-rule="evenodd" clip-rule="evenodd" d="M65.1364 196.987C72.1918 196.987 76.0782 194.655 76.0782 186.345V179.151C76.0782 172.161 73.4709 168.564 66.9773 168.564H58.5909V197.241L65.1364 196.987ZM67.4873 160.507C79.76 160.507 84.9745 166.687 84.9745 178.343V184.573C84.9745 193.084 81.8573 198.509 75.3118 200.581C82.3673 202.662 85.2309 208.335 85.2309 216.847V229.007C85.2309 232.351 85.2309 235.744 86.8155 238.329H77.9191C76.8964 236 76.3345 234.176 76.3345 229.007V216.593C76.3345 207.83 72.14 204.942 64.8282 204.942H58.5909V238.024H50V160.51H67.4873V160.507Z" fill="black"/>
<path fill-rule="evenodd" clip-rule="evenodd" d="M129.309 168.258C112.024 168.258 98.0137 182.14 98.0137 199.267C98.0137 216.394 112.024 230.276 129.306 230.276C146.589 230.276 160.602 216.394 160.602 199.267C160.547 182.195 146.592 168.31 129.309 168.258ZM129.309 238.329C107.576 238.329 89.9355 220.85 89.9355 199.316C89.9355 177.785 107.573 160.306 129.306 160.306C151.04 160.306 168.68 177.785 168.68 199.316C168.576 220.801 150.991 238.228 129.309 238.329Z" fill="#006FE8"/>
<path fill-rule="evenodd" clip-rule="evenodd" d="M190.105 160C202.122 160 207.593 167.751 207.593 179.404V181.482H199.209V178.9C199.209 171.907 196.599 167.803 190.362 167.803C184.125 167.803 181.465 171.956 181.465 178.646C181.465 195.972 207.797 197.797 207.797 219.481C207.797 231.135 202.07 238.888 190.054 238.888C178.037 238.888 172.566 231.135 172.566 219.481V215.074H180.647V219.988C180.647 226.981 183.511 231.086 189.8 231.086C196.089 231.086 198.953 226.929 198.953 219.988C198.953 202.662 172.875 201.143 172.875 179.151C173.131 167.5 178.602 160 190.105 160ZM231.833 160C243.846 160 249.32 167.751 249.32 179.404V181.482H240.985V178.9C240.985 171.907 238.375 167.803 232.138 167.803C225.898 167.803 223.242 171.956 223.242 178.646C223.242 195.972 249.574 197.797 249.574 219.481C249.574 231.135 243.846 238.888 231.83 238.888C219.814 238.888 214.343 231.135 214.343 219.481V215.074H222.424V219.988C222.424 226.981 225.287 231.086 231.576 231.086C237.865 231.086 240.729 226.929 240.729 219.988C240.729 202.662 214.651 201.143 214.651 179.151C214.599 167.5 220.07 160 231.833 160ZM274.067 239.09C286.34 239.09 291.811 231.086 291.811 219.432V160.761H283.733V219.939C283.733 226.929 280.869 231.034 274.58 231.034C268.288 231.034 265.427 226.88 265.427 219.939V160.758H256.836V219.686C256.632 231.388 262.1 239.09 274.067 239.09ZM329.136 238.075H320.802L307.765 176.263V238.026H300.195V160.507H312.467L325.25 222.525L337.727 160.505H350V238.026H341.665V175.758L329.136 238.075Z" fill="black"/>
</g>
</g>
<defs>
<clipPath id="clip0_557_82">
<rect width="300" height="79.09" fill="white" transform="translate(50 160)"/>
</clipPath>
</defs>
</svg>
