<svg width="401" height="401" viewBox="0 0 401 401" fill="none" xmlns="http://www.w3.org/2000/svg">
<mask id="mask0_753_2" style="mask-type:luminance" maskUnits="userSpaceOnUse" x="0" y="0" width="401" height="401">
<path d="M400.5 0.5H0.5V400.5H400.5V0.5Z" fill="white"/>
</mask>
<g mask="url(#mask0_753_2)">
<path d="M283.815 140.796C288.839 156.42 287.515 170.692 277.103 183.585C272.424 189.38 265.798 193.149 252.674 196.509C255.927 199.541 258.912 202.158 261.708 204.965C267.114 210.392 272.482 215.86 277.743 221.426C290.039 234.437 289.572 253.23 281.222 268.093C270.195 287.718 242.088 294.085 225.14 279.486C217.062 272.528 209.478 264.993 201.706 257.681C200.144 256.212 198.742 254.573 197.043 252.776C195.702 256.917 194.835 260.825 193.216 264.393C184.2 284.265 158.764 292.312 138.038 282.1C123.965 275.165 117.381 263.285 117.159 248.278C116.703 217.422 116.847 186.554 117.085 155.693C117.245 134.953 134.16 117.151 154.855 116.796C186.431 116.256 218.028 116.332 249.608 116.787C265.836 117.02 277.338 125.366 283.815 140.796ZM167.18 144.617C161.992 140.545 156.334 139.082 150.266 142.293C144.131 145.54 141.267 150.686 141.304 157.84C141.46 187.368 141.334 216.896 141.431 246.424C141.44 249.092 141.796 251.992 142.884 254.376C145.855 260.878 153.823 264.065 161.298 262.21C168.446 260.436 172.635 254.994 172.639 247.317C172.658 217.354 172.583 187.392 172.711 157.429C172.732 152.437 171.187 148.42 167.18 144.617ZM201.09 196.297C199.831 196.357 198.571 196.417 197.02 196.49C197.02 203.529 196.948 210.313 197.091 217.093C197.115 218.224 197.811 219.586 198.63 220.416C211.214 233.17 223.756 245.972 236.611 258.449C238.928 260.7 242.464 262.362 245.671 262.89C252.206 263.968 258.808 259.586 262.026 253.07C264.71 247.633 263.446 240.949 258.567 235.977C247.518 224.718 236.282 213.641 225.358 202.264C221.083 197.81 216.539 195.22 210.179 196.226C207.494 196.652 204.684 196.297 201.09 196.297ZM226.152 140.558C215.53 140.558 204.907 140.558 195.098 140.558C195.986 151.37 196.836 161.748 197.707 172.35C214.068 172.35 230.535 172.392 247.002 172.336C256.78 172.301 262.975 165.97 262.916 156.268C262.86 147.032 256.39 140.629 246.976 140.568C240.326 140.524 233.674 140.558 226.152 140.558Z" fill="#FEFEFE"/>
<path d="M167.413 144.83C171.188 148.415 172.733 152.433 172.712 157.425C172.584 187.387 172.658 217.35 172.64 247.313C172.636 254.99 168.446 260.432 161.298 262.206C153.824 264.061 145.856 260.874 142.885 254.371C141.797 251.987 141.441 249.087 141.432 246.419C141.334 216.891 141.461 187.363 141.305 157.835C141.268 150.682 144.132 145.535 150.266 142.289C156.334 139.078 161.993 140.541 167.413 144.83Z" fill="black"/>
<path d="M201.511 196.291C204.684 196.291 207.493 196.646 210.179 196.22C216.539 195.214 221.083 197.804 225.357 202.258C236.281 213.635 247.517 224.712 258.567 235.971C263.445 240.943 264.709 247.627 262.025 253.064C258.808 259.58 252.205 263.962 245.671 262.884C242.464 262.356 238.928 260.694 236.611 258.443C223.756 245.966 211.213 233.164 198.629 220.41C197.811 219.58 197.115 218.218 197.091 217.087C196.948 210.307 197.02 203.523 197.02 196.484C198.571 196.411 199.831 196.351 201.511 196.291Z" fill="black"/>
<path d="M226.585 140.556C233.672 140.556 240.324 140.521 246.974 140.565C256.388 140.627 262.858 147.029 262.914 156.265C262.974 165.968 256.778 172.299 247 172.333C230.533 172.389 214.066 172.348 197.705 172.348C196.834 161.745 195.984 151.368 195.096 140.556C204.905 140.556 215.528 140.556 226.585 140.556Z" fill="black"/>
<path d="M184.027 400.5C122.569 400.5 61.5469 400.5 0.5 400.5C0.5 267.193 0.5 133.887 0.5 0.5C133.772 0.5 267.069 0.5 400.5 0.5C400.5 133.78 400.5 267.14 400.5 400.5C328.537 400.5 256.499 400.5 184.027 400.5ZM282.885 139.564C276.552 124.439 265.047 116.092 248.812 115.858C217.22 115.404 185.611 115.328 154.021 115.868C133.318 116.222 116.396 134.028 116.236 154.773C115.998 185.64 115.854 216.515 116.31 247.376C116.532 262.385 123.119 274.268 137.197 281.204C157.932 291.417 183.377 283.369 192.397 263.493C194.016 259.925 194.884 256.016 196.225 251.873C197.925 253.672 199.328 255.311 200.891 256.78C208.665 264.093 216.252 271.631 224.335 278.591C241.289 293.191 269.407 286.824 280.437 267.195C288.791 252.328 289.259 233.532 276.957 220.519C271.695 214.951 266.325 209.481 260.916 204.055C258.12 201.248 255.133 198.629 251.879 195.597C265.007 192.236 271.636 188.465 276.317 182.671C286.733 169.775 288.057 155.5 282.885 139.564Z" fill="black"/>
</g>
</svg>
