<svg width="400" height="400" viewBox="0 0 400 400" fill="none" xmlns="http://www.w3.org/2000/svg">
<path d="M314.467 87.4719C339.757 87.4719 360.261 67.8899 360.261 43.736C360.261 19.5806 339.757 0 314.467 0C289.176 0 268.674 19.5806 268.674 43.736C268.674 67.8899 289.176 87.4719 314.467 87.4719Z" fill="#00D639"/>
<path d="M80.7328 87.4719C106.023 87.4719 126.526 67.8899 126.526 43.736C126.526 19.5806 106.023 0 80.7328 0C55.4411 0 34.9395 19.5806 34.9395 43.736C34.9395 67.8899 55.4411 87.4719 80.7328 87.4719Z" fill="#00D639"/>
<path d="M324.351 141.927C322.179 134.764 311.553 134.764 309.383 141.927L234.047 390.487C232.604 395.247 236.342 399.998 241.529 399.998H392.203C397.39 399.998 401.13 395.247 399.687 390.487L324.351 141.927Z" fill="black"/>
<path d="M90.6167 141.927C88.4445 134.764 77.8189 134.764 75.6483 141.927L0.312307 390.487C-1.13062 395.247 2.6076 399.998 7.79496 399.998H158.468C163.656 399.998 167.396 395.247 165.953 390.487L90.6167 141.927Z" fill="black"/>
</svg>
