<svg width="346" height="400" viewBox="0 0 346 400" fill="none" xmlns="http://www.w3.org/2000/svg">
<path d="M268.384 361.182C268.384 340.439 284.943 322.809 306.669 322.809C329.441 322.809 346 340.439 346 361.182C346 381.925 329.441 399.556 307.715 399.556C283.91 400.593 268.384 381.925 268.384 361.182Z" fill="#B4D625"/>
<path d="M66.2228 78.4896C66.2228 51.5242 92.0911 29.7443 125.203 29.7443C167.627 29.7443 193.495 49.4498 207.981 152.126H217.294L230.745 12.1131C134.515 -21.0751 16.5556 14.1875 14.4863 114.789C14.4863 223.688 187.286 223.688 187.286 323.253C187.286 352.292 161.418 371.998 132.446 371.998C55.8756 371.998 38.285 307.696 34.1462 240.282H24.8335L0 366.813C0 366.813 56.9102 400 117.959 400C191.426 398.963 240.058 345.033 242.128 287.99C242.128 179.091 66.2228 156.275 66.2228 78.4896Z" fill="#06492E"/>
</svg>
