<svg width="401" height="397" viewBox="0 0 401 397" fill="none" xmlns="http://www.w3.org/2000/svg">
<g clip-path="url(#clip0_73_681)">
<rect width="400" height="396" fill="#000F25"/>
<path d="M389.791 127.912H161.29C156.939 127.912 153.412 131.257 153.412 135.383V160.621C153.412 164.747 156.939 168.092 161.29 168.092H389.791C394.142 168.092 397.67 164.747 397.67 160.621V135.383C397.67 131.257 394.142 127.912 389.791 127.912Z" fill="#52BD94"/>
<path d="M238.658 228.328H10.1577C5.80656 228.328 2.2793 231.673 2.2793 235.799V261.037C2.2793 265.163 5.80656 268.508 10.1577 268.508H238.658C243.01 268.508 246.537 265.163 246.537 261.037V235.799C246.537 231.673 243.01 228.328 238.658 228.328Z" fill="#52BD94"/>
<path fill-rule="evenodd" clip-rule="evenodd" d="M31.6088 155.417C33.5957 155.905 35.7047 155.645 37.4937 154.691C39.2826 153.737 40.6127 152.163 41.2051 150.299C53.8243 112.718 80.8021 80.9669 116.842 61.2808C152.881 41.5948 195.38 35.3955 235.992 43.9002C237.955 44.2878 240.001 43.9445 241.705 42.9414C243.409 41.9384 244.64 40.3523 245.145 38.5117L252.039 14.1124C252.311 13.1308 252.37 12.1072 252.214 11.1032C252.057 10.0993 251.688 9.13577 251.128 8.27086C250.568 7.40594 249.829 6.65751 248.956 6.07071C248.083 5.4839 247.094 5.07087 246.047 4.85653C194.731 -6.11692 140.938 1.65665 95.3975 26.6269C49.8569 51.5971 15.9153 91.9288 0.342117 139.578C0.0447889 140.534 -0.0470559 141.536 0.0720358 142.526C0.191127 143.516 0.518728 144.473 1.03539 145.34C1.55204 146.208 2.24723 146.968 3.07966 147.576C3.9121 148.183 4.86481 148.626 5.88124 148.878L31.6088 155.417Z" fill="#52BD94"/>
<path fill-rule="evenodd" clip-rule="evenodd" d="M368.429 241.003C366.442 240.515 364.333 240.775 362.545 241.729C360.756 242.683 359.426 244.257 358.834 246.12C346.215 283.702 319.237 315.454 283.197 335.14C247.157 354.826 204.658 361.025 164.046 352.52C162.082 352.133 160.038 352.477 158.334 353.48C156.631 354.483 155.399 356.068 154.894 357.908L148.002 382.308C147.73 383.289 147.671 384.313 147.827 385.317C147.984 386.321 148.353 387.284 148.913 388.149C149.473 389.014 150.212 389.762 151.085 390.349C151.958 390.936 152.948 391.349 153.994 391.563C205.31 402.537 259.103 394.763 304.644 369.793C350.184 344.823 384.126 304.491 399.699 256.842C399.997 255.886 400.089 254.884 399.969 253.894C399.85 252.904 399.523 251.947 399.006 251.08C398.489 250.212 397.794 249.452 396.962 248.844C396.129 248.237 395.177 247.794 394.16 247.542L368.429 241.003Z" fill="#52BD94"/>
<path d="M320.749 83.7925C333.579 83.7925 343.98 73.9292 343.98 61.7622C343.98 49.5952 333.579 39.7319 320.749 39.7319C307.919 39.7319 297.518 49.5952 297.518 61.7622C297.518 73.9292 307.919 83.7925 320.749 83.7925Z" fill="#52BD94"/>
<path d="M79.282 356.688C92.1122 356.688 102.513 346.825 102.513 334.658C102.513 322.491 92.1122 312.627 79.282 312.627C66.4517 312.627 56.0508 322.491 56.0508 334.658C56.0508 346.825 66.4517 356.688 79.282 356.688Z" fill="#52BD94"/>
</g>
<defs>
<clipPath id="clip0_73_681">
<rect width="400.57" height="396.42" fill="white"/>
</clipPath>
</defs>
</svg>
