<svg width="400" height="400" viewBox="0 0 400 400" fill="none" xmlns="http://www.w3.org/2000/svg">
<g clip-path="url(#clip0_306_92)">
<path d="M392.899 -9.11177e-05L97.0414 50.1252C94.6746 51.1277 92.3077 53.1327 92.3077 55.1378V152.381C92.3077 154.386 94.6746 156.391 97.0414 157.393L394.083 207.519C397.633 207.519 400 205.514 400 202.506V4.00993C400 2.00492 396.45 -1.0026 392.899 -9.11177e-05ZM5.91716 400L302.959 349.875C305.325 349.875 307.692 347.87 307.692 344.862V247.619C307.692 245.614 305.325 243.609 302.959 242.606L5.91716 192.481C2.36686 192.481 0 194.486 0 197.494V394.987C0 398.997 3.5503 401.002 5.91716 400Z" fill="#FE5000"/>
</g>
<defs>
<clipPath id="clip0_306_92">
<rect width="400" height="400" fill="white"/>
</clipPath>
</defs>
</svg>
