<svg width="400" height="278" viewBox="0 0 400 278" fill="none" xmlns="http://www.w3.org/2000/svg">
<g clip-path="url(#clip0_187_31)">
<path fill-rule="evenodd" clip-rule="evenodd" d="M235.452 0C291.639 0 337.124 46.3333 337.124 103.569C373.244 114.471 400 148.539 400 188.74C400 237.799 360.535 277.319 312.375 277.319H298.997C296.321 277.319 294.314 275.275 294.314 272.549V258.922C294.314 256.196 296.321 254.152 298.997 254.152H313.043C348.495 254.152 377.926 224.853 377.926 188.74C377.926 154.672 351.839 126.054 319.064 123.328C317.726 123.328 316.388 121.966 316.388 120.603V107.657V103.569C316.388 59.2794 279.599 23.1667 236.12 23.1667C197.324 23.1667 164.549 51.1029 157.86 89.2598L157.191 94.7108C157.191 97.4363 154.515 98.799 152.508 98.799H124.415H119.732H118.395C92.3077 99.4804 70.903 121.284 70.2341 148.539C70.2341 149.221 70.2341 149.902 70.2341 150.583C70.2341 151.265 70.2341 157.397 70.2341 161.485C70.2341 163.529 68.8963 164.892 66.8896 164.892C60.8696 164.892 54.8495 166.255 49.4983 168.98C36.1204 175.113 26.7559 188.059 24.7492 203.049C24.0803 205.093 24.0803 207.819 24.0803 209.863C24.0803 233.711 42.8094 253.471 66.2207 254.833H219.398C220.736 254.833 222.074 254.833 223.411 254.833C238.127 252.789 249.498 239.843 249.498 224.172V103.569C249.498 100.843 251.505 98.799 254.181 98.799H266.89C269.565 98.799 271.572 100.843 271.572 103.569V168.299V226.216C270.234 252.108 250.836 273.23 225.418 276.637C224.08 276.637 223.411 276.637 222.074 276.637H66.8896C30.1003 276.637 0 245.975 0 208.5C0 177.838 19.398 152.627 46.8227 143.77C48.1605 126.054 56.1873 109.02 69.5652 96.7549C81.6054 85.1716 96.99 78.3578 113.043 76.3137C113.043 76.3137 116.388 75.6324 125.753 75.6324C128.428 75.6324 131.773 75.6324 135.117 75.6324H137.124C148.495 32.0245 188.629 0 235.452 0ZM129.766 177.157C132.441 177.157 135.117 179.201 135.117 182.608V198.961V218.039C135.117 220.765 133.11 223.49 129.766 223.49H117.057C114.381 223.49 111.706 221.446 111.706 218.039V182.608C111.706 179.882 113.712 177.157 117.057 177.157H129.766ZM175.92 150.583C178.595 150.583 181.271 153.309 181.271 156.034V183.289V217.358C181.271 220.083 178.595 222.809 175.92 222.809H162.542C159.866 222.809 157.191 220.083 157.191 217.358V156.034C157.191 153.309 159.866 150.583 162.542 150.583H175.92ZM222.074 124.691C224.749 124.691 226.756 126.735 226.756 129.461V181.245V218.039C226.756 220.765 224.749 222.809 222.074 222.809H208.027C205.351 222.809 203.344 220.765 203.344 218.039V179.201V129.461C203.344 126.735 205.351 124.691 208.027 124.691H222.074Z" fill="#010061"/>
</g>
<defs>
<clipPath id="clip0_187_31">
<rect width="400" height="278" fill="white"/>
</clipPath>
</defs>
</svg>
