<svg width="400" height="156" viewBox="0 0 400 156" fill="none" xmlns="http://www.w3.org/2000/svg">
<path d="M321.875 0C365.022 0 400 34.9218 400 78C400 121.078 365.022 156 321.875 156C278.728 156 243.75 121.078 243.75 78C243.751 60.2508 249.815 43.0327 260.941 29.1891C265.468 34.385 267.105 37.4618 271.875 45.24H274.609C272.194 39.2837 268.641 33.4894 263.857 25.7705C278.669 9.36669 299.753 0.0016926 321.875 0ZM321.875 34.32C297.713 34.32 278.125 53.8762 278.125 78C278.125 102.124 297.713 121.68 321.875 121.68C346.037 121.68 365.625 102.124 365.625 78C365.625 53.8762 346.037 34.32 321.875 34.32Z" fill="#13BF95"/>
<path d="M200 0C156.853 0 121.875 34.9218 121.875 78C121.881 95.7389 127.944 112.946 139.062 126.782C139.095 126.741 139.117 126.71 139.149 126.669C139.159 126.681 139.169 126.694 139.178 126.706C139.929 125.764 140.65 124.8 141.356 123.825C144.635 119.538 146.903 115.944 149.112 110.504C149.31 110.07 149.512 109.638 149.702 109.2H152.344C151.778 111.53 150.984 113.815 150.005 116.13C147.821 120.806 145.106 125.786 142.348 130.255C142.303 130.327 142.269 130.39 142.224 130.463C157.022 146.718 177.999 155.99 200 156C222.001 155.99 242.978 146.718 257.776 130.463C257.731 130.39 257.697 130.327 257.652 130.255C254.894 125.786 252.179 120.806 249.995 116.13C249.016 113.815 248.222 111.53 247.656 109.2H250.298C250.488 109.638 250.69 110.07 250.888 110.504C253.097 115.944 255.365 119.538 258.644 123.825C259.35 124.8 260.071 125.764 260.822 126.706C260.831 126.694 260.841 126.681 260.851 126.669C260.883 126.71 260.905 126.741 260.938 126.782C272.056 112.946 278.119 95.7389 278.125 78C278.125 34.9218 243.147 0 200 0ZM200 34.32C224.162 34.32 243.75 53.8762 243.75 78C243.75 102.124 224.162 121.68 200 121.68C175.838 121.68 156.25 102.124 156.25 78C156.25 77.2461 156.269 76.4974 156.306 75.7529C157.478 52.6738 176.593 34.32 200 34.32Z" fill="#13BF95"/>
<path d="M78.125 0C34.9777 0 0 34.9218 0 78C0 121.078 34.9777 156 78.125 156C121.272 156 156.25 121.078 156.25 78C156.249 60.2508 150.185 43.0327 139.059 29.1891C134.532 34.385 132.895 37.4618 128.125 45.24H125.391C127.806 39.2837 131.359 33.4894 136.143 25.7705C121.331 9.36669 100.247 0.0016926 78.125 0ZM78.125 34.32C102.287 34.32 121.875 53.8762 121.875 78C121.875 102.124 102.287 121.68 78.125 121.68C53.9625 121.68 34.375 102.124 34.375 78C34.375 53.8762 53.9625 34.32 78.125 34.32Z" fill="#13BF95"/>
</svg>
