<svg width="400" height="400" viewBox="0 0 400 400" fill="none" xmlns="http://www.w3.org/2000/svg">
<path fill-rule="evenodd" clip-rule="evenodd" d="M359.44 286.614C348.473 304.331 330.336 317.717 309.246 323.228C312.198 313.386 313.885 303.543 313.885 293.307C313.885 242.913 276.767 201.181 226.995 189.37C237.118 179.921 250.194 173.228 264.113 169.685C285.625 164.173 308.824 166.929 328.227 177.559C369.141 200 383.06 248.425 359.44 286.614ZM200 372.835C178.067 372.835 156.977 364.567 141.37 350.394C151.915 348.031 161.616 344.094 170.896 339.37C217.294 314.173 237.54 262.992 223.199 216.929C258.63 226.378 284.781 257.087 284.781 293.307C284.781 337.402 246.82 372.835 200 372.835ZM40.5604 286.614C29.5936 268.504 26.6411 247.244 31.7026 227.559C39.295 234.646 47.731 240.945 57.0105 246.063C74.3042 255.512 93.7069 260.236 113.953 260.236C145.166 260.236 174.692 248.425 196.204 227.165C205.062 260.63 189.877 297.244 156.555 315.354C143.901 322.441 129.138 325.984 114.375 325.984C84.0056 326.378 55.7451 311.024 40.5604 286.614ZM40.5604 113.78C51.5271 96.063 69.6645 82.6772 90.7543 77.1654C87.8018 87.0079 86.1146 96.8504 86.1146 107.087C86.1146 157.087 123.233 199.213 173.005 211.024C146.432 235.039 105.095 240.945 71.7734 222.835C52.3707 212.205 38.0296 194.882 32.1244 174.409C26.2193 153.937 29.1718 131.89 40.5604 113.78ZM200 27.5591C221.934 27.5591 243.023 35.8268 258.63 50C248.085 52.3622 238.384 56.2992 229.104 61.0236C202.953 75.1969 183.972 98.4252 175.958 125.984C170.474 144.882 170.896 164.567 176.801 183.465C141.37 174.016 115.219 143.307 115.219 107.087C115.219 62.9921 153.18 27.5591 200 27.5591ZM359.44 113.78C370.406 131.89 373.359 153.15 368.297 172.835C360.705 165.748 352.269 159.449 342.99 154.331C316.838 140.157 286.047 136.22 256.521 143.701C236.275 148.819 218.137 159.055 203.796 173.228C200.422 160.236 200.422 146.457 204.218 133.465C210.123 112.992 224.042 95.6693 243.867 85.0394C263.27 74.4095 286.469 71.6535 307.98 77.1654C329.914 82.2835 348.051 95.2756 359.44 113.78ZM384.748 100C369.563 75.1968 345.099 57.4803 315.573 50C308.824 48.4252 301.653 47.2441 294.483 46.4567C273.393 17.7165 237.962 0 200 0C160.773 0 126.185 18.5039 105.939 46.8504C68.3991 49.6063 34.2334 69.2913 15.2525 100C0.0677895 124.803 -3.72839 153.543 3.86397 181.102C5.55116 187.795 8.08195 194.094 11.4563 200C-4.99379 231.89 -3.72839 269.291 15.2525 300C34.6552 331.89 69.2427 350.394 105.517 353.15C126.607 382.283 162.038 400 200 400C239.227 400 273.815 381.496 294.061 353.15C331.601 350.394 365.767 330.709 384.748 300C404.15 268.11 404.572 230.709 388.544 200C404.994 168.504 403.728 130.709 384.748 100Z" fill="#0092FF"/>
</svg>
