<svg width="400" height="400" viewBox="0 0 400 400" fill="none" xmlns="http://www.w3.org/2000/svg">
<path d="M400 87.9464L304.464 0L295.089 46.875L167.411 46.4286C105.357 46.4286 39.2857 83.9286 38.8393 154.464C39.2857 214.732 88.8393 241.071 125 260.268C145.089 270.982 162.5 280.357 162.5 291.071C162.5 315.625 128.571 315.625 127.232 315.625L17.4107 315.179L0 399.554L125.893 400C197.768 400 254.018 352.679 254.018 291.518C254.464 230.804 204.911 205.357 168.75 186.607C147.768 175.893 129.911 166.518 129.911 155.357C129.911 137.054 154.464 131.25 166.071 131.25L278.571 131.696L269.643 177.232L400 87.9464Z" fill="#F37021"/>
</svg>
