<svg width="400" height="367" viewBox="0 0 400 367" fill="none" xmlns="http://www.w3.org/2000/svg">
<path d="M222.222 73.8359C219.914 70.0055 216.655 66.8366 212.762 64.6369C208.868 62.4372 204.472 61.2812 200 61.2812C195.528 61.2812 191.132 62.4372 187.238 64.6369C183.345 66.8366 180.086 70.0055 177.778 73.8359L141.222 136.447C169.149 150.39 192.943 171.395 210.242 197.377C227.541 223.359 237.742 253.414 239.833 284.558H214.167C212.079 257.862 203.057 232.174 187.993 210.035C172.928 187.897 152.345 170.076 128.278 158.336L94.4444 216.836C107.974 222.904 119.761 232.276 128.721 244.09C137.682 255.905 143.528 269.782 145.722 284.447H86.7778C86.0787 284.398 85.4029 284.175 84.8114 283.799C84.2199 283.423 83.7313 282.906 83.3895 282.294C83.0478 281.682 82.8637 280.995 82.8539 280.294C82.8441 279.594 83.0088 278.901 83.3333 278.28L99.6667 250.503C94.133 245.886 87.8086 242.309 81 239.947L64.8333 267.725C63.1503 270.612 62.0577 273.804 61.619 277.117C61.1802 280.429 61.4042 283.796 62.2777 287.022C63.1513 290.247 64.657 293.267 66.7075 295.905C68.758 298.544 71.3124 300.749 74.2222 302.391C78.0561 304.552 82.3773 305.699 86.7778 305.725H167.5C168.999 287.225 165.696 268.652 157.909 251.804C150.123 234.956 138.117 220.404 123.056 209.558L135.889 187.336C154.897 200.391 170.172 218.177 180.207 238.939C190.242 259.7 194.69 282.719 193.111 305.725H261.5C263.093 270.875 255.511 236.217 239.513 205.215C223.515 174.213 199.66 147.953 170.333 129.058L196.278 84.6137C196.856 83.645 197.793 82.944 198.886 82.663C199.978 82.3821 201.137 82.5441 202.111 83.1137C205.056 84.7248 314.833 276.28 316.889 278.503C317.251 279.152 317.435 279.885 317.423 280.629C317.411 281.372 317.202 282.099 316.819 282.736C316.436 283.373 315.891 283.898 315.24 284.257C314.589 284.616 313.854 284.796 313.111 284.78H286.667C287 291.854 287 298.91 286.667 305.947H313.222C316.594 305.969 319.937 305.322 323.058 304.044C326.178 302.765 329.014 300.88 331.401 298.498C333.788 296.116 335.679 293.285 336.964 290.167C338.249 287.05 338.904 283.708 338.889 280.336C338.892 275.882 337.703 271.508 335.444 267.669L222.222 73.8359Z" fill="#362D59"/>
</svg>
