<svg width="350" height="400" viewBox="0 0 350 400" fill="none" xmlns="http://www.w3.org/2000/svg">
<g clip-path="url(#clip0_260_86)">
<path fill-rule="evenodd" clip-rule="evenodd" d="M145.648 0H204.307V322.278H145.648V0ZM218.518 400L277.131 366.625V87.6095C259.754 75.7694 239.736 67.6192 218.518 63.7463V400ZM72.6427 366.792L131.301 400.167V63.9132C110.082 67.7275 90.0472 75.8208 72.6427 87.6095V366.792ZM291.342 15.3108V360.784L318.582 345.265C328.337 339.369 336.316 331.309 341.784 321.83C347.251 312.35 350.03 301.758 349.864 291.03V127.868C350 80.8093 291.342 15.3108 291.342 15.3108ZM0.000308787 290.905C-0.178412 301.635 2.59523 312.232 8.06385 321.713C13.5325 331.194 21.5189 339.252 31.2819 345.14L58.5228 360.659V15.3108C58.5228 15.3108 0.000308787 80.8093 0.000308787 127.868V290.905Z" fill="#6B0AEA"/>
</g>
<defs>
<clipPath id="clip0_260_86">
<rect width="350" height="400" fill="white"/>
</clipPath>
</defs>
</svg>
