<svg width="400" height="400" viewBox="0 0 400 400" fill="none" xmlns="http://www.w3.org/2000/svg">
<path fill-rule="evenodd" clip-rule="evenodd" d="M201.003 65C117.909 65 50 132.687 50 216.552C50 258.271 66.8718 298.713 97.241 327.236C107.786 337.453 124.236 338.304 136.046 329.364C174.008 300.842 226.31 300.842 264.272 329.364C276.082 338.304 292.532 337.453 303.077 327.236C363.394 269.34 365.924 173.13 308.56 112.254C280.722 82.454 241.495 65.4257 201.003 65ZM200.159 292.754C159.667 294.031 125.923 261.677 125.079 221.235C125.079 219.958 125.079 218.68 125.079 217.403C125.079 175.684 158.823 141.627 200.159 141.627C241.495 141.627 275.238 175.684 275.238 217.403C276.504 258.271 244.447 291.902 204.377 293.179C202.69 292.754 201.424 292.754 200.159 292.754Z" fill="#62D84E"/>
</svg>
