<svg width="400" height="400" viewBox="0 0 400 400" fill="none" xmlns="http://www.w3.org/2000/svg">
<g clip-path="url(#clip0_227_115)">
<path fill-rule="evenodd" clip-rule="evenodd" d="M57.4117 182.398V274.398L200.471 347.998L343.529 274.398V153.598L221.176 215.998C208 223.198 192 223.198 178.823 215.998L13.1764 131.198C-4.70594 122.398 -4.70594 99.1984 13.1764 90.3984L178.823 4.79844C192 -2.40156 208 -2.40156 221.176 4.79844L343.529 67.1984L287.059 95.9984L200.471 51.1984L160 71.9984L86.5882 109.598L125.176 129.598L200.471 168.798L354.824 89.5984C363.294 85.5984 375.529 85.5984 384 89.5984C393.412 93.5984 400.941 102.398 400.941 112.798V280.798C400.941 293.598 393.412 305.598 380.235 311.998L221.176 395.198C208 402.398 192 402.398 178.823 395.198L20.7058 313.598C7.52936 306.398 -5.73844e-05 295.198 -5.73844e-05 282.398V255.998V153.598L57.4117 182.398Z" fill="#175CFF"/>
</g>
<defs>
<clipPath id="clip0_227_115">
<rect width="400" height="400" fill="white"/>
</clipPath>
</defs>
</svg>
