<svg width="400" height="400" viewBox="0 0 400 400" fill="none" xmlns="http://www.w3.org/2000/svg">
<path d="M318.463 85.0294C318.175 83.297 316.733 82.142 315.289 82.142C313.846 82.142 288.451 81.5645 288.451 81.5645C288.451 81.5645 267.095 60.7749 265.076 58.7538C263.055 56.7325 258.727 57.31 257.284 57.8875C257.284 57.8875 253.244 59.0425 246.606 61.0636C245.452 57.31 243.72 52.9789 241.412 48.3589C233.909 33.9218 222.654 26.1257 209.379 26.1257C208.513 26.1257 207.647 26.1257 206.493 26.4144C206.204 25.8369 205.627 25.5482 205.338 24.9707C199.567 18.6184 192.063 15.7309 183.118 16.0197C165.803 16.5971 148.487 29.0132 134.635 51.2464C124.824 66.8385 117.32 86.4731 115.012 101.776C95.0995 107.84 81.2474 112.171 80.9588 112.46C70.8585 115.636 70.5698 115.925 69.4155 125.453C68.5497 132.672 42 336.236 42 336.236L262.478 374.351L358 350.674C357.711 350.385 318.752 86.7619 318.463 85.0294ZM235.64 64.5286C230.445 65.9723 224.674 67.9935 218.613 69.726C218.613 61.0636 217.459 48.6477 213.419 38.2529C226.405 40.8516 232.754 55.5775 235.64 64.5286ZM206.781 73.4796C195.238 76.9446 182.541 80.987 169.843 84.7406C173.305 71.1697 180.231 57.5988 188.312 48.6477C191.487 45.4715 195.816 41.7179 200.721 39.4079C205.916 49.5139 207.07 63.6624 206.781 73.4796ZM183.406 27.5694C187.446 27.5694 190.91 28.4357 193.795 30.1681C189.178 32.7668 184.561 36.2317 180.231 40.8516C169.266 52.6901 160.896 71.1697 157.434 88.7831C147.045 91.9592 136.656 95.1355 127.132 98.0228C133.193 70.3035 156.568 28.4357 183.406 27.5694Z" fill="#95BF47"/>
<path d="M315.289 82.142C313.846 82.142 288.451 81.5645 288.451 81.5645C288.451 81.5645 267.096 60.7749 265.076 58.7537C264.21 57.8875 263.344 57.5987 262.189 57.31V374.062L357.711 350.385C357.711 350.385 318.752 86.7618 318.463 84.7406C318.175 83.2969 316.733 82.142 315.289 82.142Z" fill="#5E8E3E"/>
<path d="M209.091 131.228L198.124 172.808C198.124 172.808 185.714 167.033 170.997 168.187C149.353 169.631 149.353 183.203 149.353 186.667C150.508 205.147 199.278 209.189 202.164 252.789C204.184 287.15 183.984 310.538 154.836 312.271C119.629 314.58 100.294 293.791 100.294 293.791L107.797 262.03C107.797 262.03 127.132 276.755 142.716 275.6C152.817 275.022 156.568 266.649 156.279 260.875C154.836 236.62 115.012 238.064 112.415 198.217C110.394 164.723 132.327 130.651 180.809 127.764C199.567 126.32 209.091 131.228 209.091 131.228Z" fill="white"/>
</svg>
