<svg width="400" height="400" viewBox="0 0 400 400" fill="none" xmlns="http://www.w3.org/2000/svg">
<path d="M108.761 240.997C108.761 259.021 93.9762 273.745 75.8796 273.745C57.783 273.745 43 259.021 43 240.997C43 222.972 57.783 208.249 75.8796 208.249H108.761V240.997Z" fill="#E01E5A"/>
<path d="M125.327 240.997C125.327 222.972 140.112 208.249 158.208 208.249C176.305 208.249 191.089 222.972 191.089 240.997V322.994C191.089 341.018 176.305 355.742 158.208 355.742C140.112 355.742 125.327 341.018 125.327 322.994V240.997Z" fill="#E01E5A"/>
<path d="M158.208 109.496C140.112 109.496 125.327 94.7727 125.327 76.7481C125.327 58.7249 140.112 44 158.208 44C176.305 44 191.089 58.7249 191.089 76.7481V109.496H158.208Z" fill="#36C5F0"/>
<path d="M158.208 125.998C176.305 125.998 191.089 140.721 191.089 158.746C191.089 176.77 176.305 191.494 158.208 191.494H75.8796C57.783 191.494 43 176.77 43 158.746C43 140.721 57.783 125.998 75.8796 125.998H158.208Z" fill="#36C5F0"/>
<path d="M290.239 158.746C290.239 140.721 305.023 125.998 323.12 125.998C341.216 125.998 355.999 140.721 355.999 158.746C355.999 176.77 341.216 191.494 323.12 191.494H290.239V158.746Z" fill="#2EB67D"/>
<path d="M273.673 158.746C273.673 176.77 258.888 191.494 240.792 191.494C222.695 191.494 207.911 176.77 207.911 158.746V76.7481C207.911 58.7249 222.695 44 240.792 44C258.888 44 273.673 58.7249 273.673 76.7481V158.746Z" fill="#2EB67D"/>
<path d="M240.792 290.246C258.888 290.246 273.673 304.97 273.673 322.994C273.673 341.018 258.888 355.742 240.792 355.742C222.695 355.742 207.911 341.018 207.911 322.994V290.246H240.792Z" fill="#ECB22E"/>
<path d="M240.792 273.745C222.695 273.745 207.911 259.021 207.911 240.997C207.911 222.972 222.695 208.249 240.792 208.249H323.12C341.217 208.249 356 222.972 356 240.997C356 259.021 341.217 273.745 323.12 273.745H240.792Z" fill="#ECB22E"/>
</svg>
