<svg width="400" height="400" viewBox="0 0 400 400" fill="none" xmlns="http://www.w3.org/2000/svg">
<path d="M111.193 172.269C111.193 172.269 126.098 154.118 145.973 153.613C176.661 153.109 201.504 200.756 205.303 207.563C239.206 142.269 295.029 86.8067 340.623 50H61.2149C61.2149 72.6891 61.5072 301.345 61.5072 320C61.5072 334.874 59.1691 345.462 58 350C70.2753 348.235 117.33 341.429 165.262 326.555C250.02 300.336 283.339 272.101 283.631 271.849L285.677 270.084L286.846 272.353C286.846 272.605 297.368 292.773 307.889 303.361C319.58 315.21 326.302 316.723 329.809 315.714C334.486 314.454 337.701 307.899 339.162 296.555C340.331 285.714 341.5 261.008 341.5 231.261C341.5 177.311 341.5 106.218 341.5 70.4202C259.08 157.647 198.581 288.235 198.581 288.235C198.581 288.235 158.832 171.513 111.193 172.269Z" fill="#003059"/>
</svg>
