<svg width="400" height="400" viewBox="0 0 400 400" fill="none" xmlns="http://www.w3.org/2000/svg">
<g clip-path="url(#clip0_212_39)">
<path fill-rule="evenodd" clip-rule="evenodd" d="M368.435 172.751L323.423 200.029L368.435 227.077C371.127 228.713 373.486 230.891 375.378 233.486C377.269 236.081 378.656 239.043 379.459 242.202C380.262 245.361 380.466 248.655 380.059 251.897C379.652 255.138 378.641 258.264 377.085 261.095C375.529 263.926 373.459 266.407 370.991 268.396C368.524 270.386 365.708 271.844 362.704 272.689C359.701 273.534 356.568 273.748 353.486 273.32C350.404 272.892 347.432 271.829 344.74 270.193L264.09 221.328C260.394 219.079 257.343 215.822 255.26 211.901C253.177 207.98 252.14 203.541 252.256 199.051C252.319 197.106 252.604 195.176 253.103 193.303C254.754 187.019 258.678 181.664 264.035 178.385L344.686 129.692C347.389 128.049 350.374 126.983 353.47 126.554C356.566 126.126 359.712 126.344 362.728 127.196C365.743 128.047 368.57 129.516 371.045 131.518C373.521 133.52 375.596 136.015 377.154 138.862C378.718 141.683 379.733 144.804 380.141 148.042C380.549 151.279 380.341 154.57 379.53 157.723C378.719 160.876 377.321 163.828 375.416 166.407C373.512 168.987 371.139 171.143 368.435 172.751ZM325.828 304.973L245.205 256.194C241.598 254.017 237.512 252.871 233.353 252.869C229.194 252.867 225.107 254.01 221.498 256.183C217.89 258.357 214.884 261.487 212.782 265.26C210.679 269.034 209.552 273.321 209.512 277.695V375.136C209.721 381.611 212.313 387.746 216.742 392.249C221.17 396.751 227.089 399.268 233.248 399.268C239.407 399.268 245.326 396.751 249.754 392.249C254.183 387.746 256.775 381.611 256.984 375.136V320.523L302.106 347.801C304.798 349.439 307.77 350.504 310.853 350.934C313.936 351.364 317.069 351.151 320.074 350.308C323.078 349.464 325.896 348.007 328.365 346.018C330.834 344.03 332.907 341.549 334.464 338.718C336.022 335.887 337.034 332.761 337.443 329.518C337.852 326.276 337.65 322.981 336.848 319.82C336.046 316.66 334.66 313.697 332.769 311.1C330.878 308.503 328.52 306.323 325.828 304.685V304.973ZM232.907 209.658L199.291 244.582C198.141 245.706 196.65 246.368 195.082 246.45H185.216C183.651 246.351 182.166 245.692 181.007 244.582L147.583 209.543C146.537 208.343 145.919 206.799 145.834 205.174V194.826C145.924 193.193 146.541 191.642 147.583 190.428L181.007 155.389C182.168 154.288 183.654 153.638 185.216 153.55H195.082C196.646 153.626 198.136 154.277 199.291 155.389L232.797 190.428C233.831 191.645 234.438 193.197 234.519 194.826V205.174C234.443 206.796 233.835 208.34 232.797 209.543L232.907 209.658ZM206.123 199.942C205.994 198.267 205.329 196.686 204.238 195.458L194.535 185.369C193.373 184.269 191.888 183.62 190.327 183.53H189.971C188.417 183.615 186.939 184.266 185.79 185.369L176.088 195.458C175.046 196.693 174.439 198.265 174.366 199.914V200.287C174.435 201.911 175.044 203.458 176.088 204.656L185.844 214.717C186.996 215.817 188.473 216.466 190.026 216.556H190.381C191.943 216.466 193.427 215.817 194.59 214.717L204.292 204.57C205.34 203.369 205.967 201.828 206.069 200.201L206.123 199.942ZM54.4698 95.0847L135.12 143.719C138.731 145.896 142.821 147.041 146.983 147.041C151.145 147.041 155.234 145.895 158.845 143.719C162.457 141.543 165.463 138.41 167.568 134.634C169.672 130.857 170.8 126.567 170.84 122.19V24.8346C170.631 18.3604 168.039 12.2247 163.611 7.7224C159.182 3.22011 153.264 0.703419 147.104 0.703419C140.945 0.703419 135.027 3.22011 130.598 7.7224C126.17 12.2247 123.577 18.3604 123.368 24.8346V79.448L78.1921 52.1413C75.5004 50.5031 72.5282 49.4386 69.4452 49.0084C66.3623 48.5783 63.229 48.791 60.2242 49.6345C57.2194 50.4779 54.4021 51.9355 51.9329 53.9241C49.4637 55.9128 47.3912 58.3934 45.8336 61.2244C44.2759 64.0554 43.2637 67.1814 42.8548 70.4239C42.4458 73.6663 42.648 76.9617 43.45 80.122C44.2519 83.2822 45.6379 86.2454 47.5287 88.8423C49.4194 91.4392 51.778 93.619 54.4698 95.2572V95.0847ZM231.458 147.054C236.221 147.45 240.985 146.317 245.123 143.806L325.746 94.941C328.438 93.3028 330.796 91.123 332.687 88.5261C334.578 85.9292 335.964 82.966 336.766 79.8058C337.568 76.6455 337.77 73.3501 337.361 70.1077C336.952 66.8652 335.94 63.7393 334.382 60.9082C332.825 58.0772 330.752 55.5966 328.283 53.608C325.814 51.6194 322.996 50.1617 319.992 49.3183C313.923 47.6149 307.46 48.5166 302.024 51.8252L256.902 79.3618V24.7484C256.693 18.2741 254.101 12.1385 249.672 7.63617C245.244 3.13388 239.325 0.617188 233.166 0.617188C227.007 0.617188 221.088 3.13388 216.66 7.63617C212.231 12.1385 209.639 18.2741 209.43 24.7484V122.19C209.423 128.499 211.693 134.575 215.782 139.191C219.871 143.806 225.474 146.617 231.458 147.054ZM148.895 252.946C144.131 252.539 139.363 253.672 135.23 256.194L54.4698 304.858C49.0335 308.166 45.0696 313.611 43.45 319.993C41.8304 326.375 42.6878 333.173 45.8336 338.89C48.9793 344.608 54.1558 348.777 60.2242 350.48C66.2926 352.184 72.7559 351.282 78.1921 347.973L123.368 320.696V375.309C123.577 381.783 126.17 387.919 130.598 392.421C135.027 396.923 140.945 399.44 147.104 399.44C153.264 399.44 159.182 396.923 163.611 392.421C168.039 387.919 170.631 381.783 170.84 375.309V277.695C170.828 271.418 168.559 265.378 164.489 260.788C160.418 256.197 154.847 253.396 148.895 252.946ZM127.031 207.33C128.587 201.945 128.353 196.163 126.366 190.938C124.378 185.713 120.757 181.356 116.099 178.586L35.5302 129.75C30.0889 126.472 23.6359 125.59 17.579 127.297C11.522 129.004 6.35278 133.161 3.19896 138.862C1.63759 141.683 0.623554 144.801 0.215509 148.037C-0.192536 151.273 0.0135079 154.562 0.821723 157.713C1.62994 160.865 3.02428 163.816 4.92409 166.398C6.82391 168.979 9.19148 171.138 11.8899 172.751L56.9022 200.029L11.8899 227.077C9.1981 228.709 6.83844 230.883 4.9456 233.475C3.05276 236.067 1.66381 239.025 0.85805 242.181C0.0522946 245.338 -0.154487 248.63 0.249511 251.87C0.653509 255.11 1.66037 258.235 3.21262 261.066C4.76487 263.897 6.8321 266.379 9.29628 268.37C11.7605 270.361 14.5733 271.821 17.5743 272.669C20.5753 273.516 23.7055 273.734 26.7864 273.309C29.8673 272.884 32.8384 271.825 35.5302 270.193L116.099 221.328C121.287 218.281 125.184 213.279 127.003 207.33H127.031ZM381.608 45.7315H377.974V50.4167H381.581C383.248 50.4167 384.314 49.6119 384.314 48.1172C384.314 46.6225 383.33 45.7315 381.581 45.7315H381.608ZM373.573 41.4199H381.772C386.2 41.4199 389.151 43.9781 389.151 47.9447C389.166 49.0489 388.9 50.137 388.381 51.097C387.862 52.057 387.109 52.8541 386.2 53.4061L389.397 58.235V59.2123H384.779L381.581 54.6133H377.974V59.2123H373.546L373.573 41.4199ZM396.257 50.6754C396.39 48.4994 396.092 46.3181 395.382 44.2696C394.671 42.221 393.564 40.3499 392.131 38.7747C390.697 37.1994 388.968 35.9544 387.054 35.1183C385.139 34.2823 383.08 33.8734 381.007 33.9177C371.961 33.9177 365.948 40.7875 365.948 50.6754C365.948 60.1034 371.961 67.4044 381.007 67.4044C383.081 67.4567 385.142 67.0546 387.06 66.2236C388.978 65.3926 390.711 64.1509 392.148 62.5774C393.585 61.004 394.695 59.1332 395.407 57.0842C396.119 55.0351 396.418 52.8526 396.285 50.6754H396.257ZM400.029 50.6754C400.029 61.8568 392.923 71.1985 380.898 71.1985C368.873 71.1985 362.068 61.7705 362.068 50.6754C362.068 39.5803 369.091 30.1523 380.898 30.1523C392.704 30.1523 400.001 39.4653 400.001 50.6754H400.029Z" fill="#29B5E8"/>
</g>
<defs>
<clipPath id="clip0_212_39">
<rect width="400" height="400" fill="white"/>
</clipPath>
</defs>
</svg>
