<svg width="400" height="400" viewBox="0 0 400 400" fill="none" xmlns="http://www.w3.org/2000/svg">
<path d="M310.967 105.548H97.7031C97.7031 93.9084 116.98 58.7259 155.533 0C155.533 0 160.871 30.9719 171.547 92.9157L236.7 92.9171L252.692 0C291.542 59.5046 310.967 94.6871 310.967 105.548Z" fill="white"/>
<path d="M204.01 399.999L59 311.399V104.612C59 104.612 112.615 87.3594 204.196 87.3594C295.777 87.3594 349 104.612 349 104.612V311.399L204.01 399.999Z" fill="white"/>
<path d="M204.011 387.545L68.2656 304.952V112.911C68.2656 112.911 119.029 96.8887 204.011 96.8887V387.545Z" fill="#DBDBDB"/>
<path d="M204.196 96.8887C204.134 96.8887 204.075 96.8903 204.012 96.8887V387.301H204.014L338.566 304.947V112.911C338.566 112.911 289.178 96.8887 204.196 96.8887Z" fill="#C6C6C6"/>
<path d="M277.462 342.362L266.016 255.623H203.105C203.105 324.467 203.105 368.509 203.105 387.75L204.012 388.496C228.487 373.896 252.97 358.518 277.462 342.362Z" fill="#3B3B63"/>
<path d="M130.602 343.043L204.013 388.493L204.049 252.979H140.472L130.602 343.043Z" fill="#53537A"/>
<path d="M235.426 317.369C235.426 332.271 219.21 339.659 204.334 339.659C189.458 339.659 172.914 332.271 172.914 317.369" fill="#BC9375"/>
<path d="M204.168 325.078C192.225 325.078 186.418 317.557 186.418 302.096H192.112C192.112 320.197 200.253 320.197 204.168 320.197C208.082 320.197 216.224 320.197 216.224 302.096H221.917C221.917 317.557 216.109 325.078 204.168 325.078Z" fill="white"/>
<path d="M204.012 305.869C207.686 314.161 214.789 318.308 225.319 318.308C235.629 318.308 246.388 313.65 251.287 302.141C258.13 286.042 258.062 263.633 258.062 263.633C258.062 263.633 288.472 230.966 288.472 219.92C288.472 219.92 260.319 219.92 204.012 219.92V305.869Z" fill="#C49A7E"/>
<path d="M118.324 219.92C118.324 232.712 148.471 263.633 148.471 263.633C148.471 263.633 148.397 286.035 155.248 302.141C160.136 313.643 170.906 318.308 181.218 318.308C191.748 318.308 199.346 314.161 204.01 305.869V219.92H118.324Z" fill="#D8B7A0"/>
<path d="M284.841 146.365C261.398 125.74 255.535 82.7324 255.535 82.7324C251.158 96.2843 241.645 136.241 241.645 136.241C241.645 136.241 223.167 131.113 203.264 131.086C202.61 131.086 202.61 184.922 203.264 292.593L222.212 280.841L225.735 223.809L245.911 243.562L271.901 250.079C271.901 250.079 281.626 244.129 281.626 244.151C285.755 239.189 287.124 234.963 288.123 232.769C291.732 224.789 283.627 163.763 283.627 163.763C280.749 158.594 284.841 146.365 284.841 146.365Z" fill="#3B3B63"/>
<path d="M166.869 136.239C166.869 136.239 157.352 96.284 152.979 82.7305C152.979 82.7305 147.119 125.739 123.673 146.363C123.673 146.363 127.764 158.594 124.887 163.761C124.887 163.761 116.781 224.79 120.391 232.758C121.388 234.953 122.769 239.178 126.892 244.14C126.892 244.118 136.622 250.069 136.622 250.069L162.607 243.551L182.779 223.801L186.311 280.833L204.027 292.274V130.785C184.05 130.814 166.869 136.239 166.869 136.239Z" fill="#53537A"/>
<path d="M268.435 42.8765C272.325 49.0965 305.762 106.599 305.762 126.513L290.931 161.173C293.44 180.73 298.43 223.225 294.663 231.528C292.338 236.663 283.473 247.227 275.89 255.782L286.257 336.97L272.243 345.629L264.451 286.307C263.38 292.327 261.77 298.755 259.315 304.527C256.068 312.167 250.331 317.957 242.993 321.386C242.563 339.702 222.878 349.583 204.331 349.583C185.631 349.583 165.781 339.71 165.344 321.401C157.991 317.965 152.246 312.175 148.996 304.527C146.639 298.978 145.051 292.834 143.974 287.016L136.521 346.72L122.431 337.92L132.606 256.03C124.964 247.437 115.929 236.715 113.581 231.523C109.814 223.219 114.609 180.73 117.122 161.17L101.41 125.295V124.126C101.41 104.213 135.723 49.0965 139.618 42.8765L150.731 25.4141C157.497 65.8728 160.877 86.1202 160.872 86.1562L166.344 118.942L173.543 129.096C180.461 127.093 192.203 124.312 204.094 124.312C215.998 124.312 227.821 127.103 234.768 129.102L241.963 118.943L257.552 25.4141L268.435 42.8765ZM204.331 336.565C212.54 336.565 224.231 333.38 227.15 324.938C226.837 324.946 226.534 324.968 226.221 324.968C224.624 324.968 223.13 324.839 221.681 324.669C217.447 329.722 210.85 331.255 204.168 331.255C197.497 331.255 190.914 329.708 186.687 324.663C185.228 324.841 183.718 324.968 182.108 324.968C181.8 324.968 181.504 324.946 181.202 324.938C184.15 333.38 195.998 336.565 204.331 336.565ZM194.718 322.689C197.264 324.325 200.41 325.235 204.174 325.235C207.917 325.235 211.049 324.318 213.591 322.689C211.564 321.915 209.729 320.994 208.112 319.988C206.648 320.36 205.247 320.352 204.167 320.352C203.081 320.352 201.665 320.352 200.19 319.981C198.576 320.994 196.745 321.915 194.718 322.689ZM253.048 259.705C263.134 248.962 278.318 231.658 280.517 226.815C282.176 221.829 279.346 188.775 275.746 161.071L275.547 159.535L278.523 152.653C268.711 143.682 261.866 131.388 257.189 119.779L256.581 123.426L241.09 145.262L235.04 143.051C234.892 142.996 219.096 137.324 204.103 137.324C189.014 137.324 173.475 142.991 173.323 143.047L167.263 145.277L151.753 123.43L151.294 120.632C146.567 132.128 139.714 144.206 129.949 152.982L132.791 159.54L132.593 161.078C128.991 188.775 126.161 221.829 127.875 226.941C130.019 231.666 145.205 248.97 155.285 259.705L156.968 261.499L156.959 263.797C156.959 264.013 156.988 285.267 163.277 300.058C167.843 310.786 177.972 311.932 182.121 311.932C192.55 311.932 196.962 303.725 197.144 303.376C199.587 299.252 200.809 292.477 200.809 283.051H207.115C207.115 290.624 208.429 297.414 211.058 303.42C211.217 303.717 215.741 311.953 226.221 311.953C230.361 311.953 240.493 310.793 245.056 300.066C251.365 285.222 251.373 264.013 251.373 263.805L251.365 261.507L253.048 259.705Z" fill="#333152"/>
<path d="M251.325 201.938H228.551H220.961V202.212C220.961 211.304 230.13 218.669 240.885 218.669C251.643 218.669 260.812 211.302 260.812 202.212V201.938H251.325Z" fill="#333152"/>
<path d="M228.559 201.938V202.212C228.559 207.621 233.636 212.003 239.947 212.003C246.259 212.003 251.334 207.621 251.334 202.212V201.938H228.559Z" fill="white"/>
<path d="M238.12 201.938C238.068 201.938 238.024 201.96 237.977 201.968C238.639 202.087 239.006 203.373 238.863 204.23C238.65 205.538 237.349 206.447 235.859 206.469C236.293 208.18 237.92 209.555 240.081 209.816C242.842 210.151 245.393 208.528 245.784 206.163C246.066 204.422 245.089 201.938 243.457 201.938H238.12Z" fill="#333152"/>
<path d="M178.03 201.938H155.26H147.668V202.212C147.668 211.304 156.839 218.669 167.592 218.669C178.351 218.669 187.521 211.302 187.521 202.212V201.938H178.03Z" fill="#333152"/>
<path d="M155.262 201.938V202.212C155.262 207.621 160.343 212.003 166.645 212.003C172.958 212.003 178.034 207.621 178.034 202.212V201.938H155.262Z" fill="white"/>
<path d="M170.162 201.938H164.819C164.773 201.938 164.723 201.96 164.68 201.968C165.34 202.087 165.705 203.373 165.566 204.23C165.351 205.538 164.058 206.447 162.559 206.469C162.998 208.18 164.625 209.555 166.782 209.816C169.541 210.151 172.098 208.528 172.483 206.163C172.769 204.422 171.794 201.938 170.162 201.938Z" fill="#333152"/>
<path d="M249.04 194.175C250.314 192.977 261.138 182.449 246.662 182.449C233.582 182.449 224.17 191.497 221.676 194.175H249.04Z" fill="#C49A7E"/>
<path d="M186.599 194.175C184.107 191.497 174.695 182.449 161.611 182.449C147.142 182.449 157.966 192.977 159.233 194.175H186.599Z" fill="#D8B7A0"/>
<path d="M117.004 123.067C117.864 112.738 130.399 87.9896 142.357 67.1328L145.544 86.2027C144.329 93.3328 138.773 121.296 123.871 138.922L117.004 123.067Z" fill="#D8B7A0"/>
<path d="M263.039 84.716L265.976 67.1328C277.932 87.988 290.475 112.738 291.335 123.067L284.629 138.546C268.528 119.142 263.476 87.5989 263.039 84.716Z" fill="#C49A7E"/>
<path d="M193.005 294.633C187.389 290.98 181.629 286.372 181.629 282.837C181.629 280.515 186.419 273.357 186.419 273.357H222.038C222.038 273.357 226.71 279.703 226.71 282.837C226.71 286.129 220.895 290.61 215.093 294.262C213.118 291.347 210.606 290.841 209.445 293.139C208.846 294.329 208.728 296.043 209.02 297.837C205.861 299.586 203.552 300.714 203.552 300.714C203.552 300.714 201.769 299.821 199.22 298.384C199.631 296.396 199.552 294.45 198.89 293.139C197.719 290.81 195.156 291.361 193.166 294.381C193.111 294.464 193.057 294.548 193.005 294.633Z" fill="#333152"/>
</svg>
