<svg width="400" height="400" viewBox="0 0 400 400" fill="none" xmlns="http://www.w3.org/2000/svg">
<path d="M150.698 11.5343C201.116 -1.39542 256.837 6.13895 301.301 33.5811C357.301 67.0702 393.861 130.419 394.791 195.628C396.837 261.487 362.511 326.791 307.348 362.605C245.953 403.906 161.023 405.489 98.3249 366.233C34.4187 328.092 -2.88444 251.162 6.69837 177.301C14.4171 99.2546 74.6984 30.4171 150.698 11.5343Z" fill="#010101"/>
<path d="M142.978 43.4418C238.234 5.30116 355.072 75.7199 364.931 177.861C380.281 269.767 304.001 363.162 210.884 365.861C122.326 374.698 36.7453 299.626 34.2343 210.698C27.6296 138.698 75.0718 67.2558 142.978 43.4418Z" fill="white"/>
<path d="M152.557 190.141C195.255 155.256 237.023 119.163 280.651 85.3018C257.766 120.466 234.232 155.163 211.348 190.325C191.72 190.419 172.093 190.421 152.557 190.141ZM188.651 209.581C208.371 209.581 227.999 209.581 247.627 209.861C204.651 244.558 163.07 280.93 119.348 314.699C142.232 279.535 165.766 244.746 188.651 209.581Z" fill="#010101"/>
</svg>
