<svg width="400" height="400" viewBox="0 0 400 400" fill="none" xmlns="http://www.w3.org/2000/svg">
<g clip-path="url(#clip0_757_9)">
<path d="M203.045 49.9951C216.003 49.9951 227.312 57.9357 233.328 69.7107L290.253 180.411L345.462 287.764L347.212 291.158L347.278 291.308C347.295 291.336 347.312 291.373 347.312 291.373L347.362 291.458L347.678 292.114C347.712 292.161 347.737 292.208 347.762 292.264C347.862 292.489 347.962 292.704 348.062 292.929C348.087 292.958 348.103 292.995 348.12 293.033C348.237 293.286 348.345 293.529 348.445 293.783C348.47 293.839 348.503 293.895 348.52 293.961C348.62 294.186 348.72 294.42 348.812 294.654L348.845 294.739L349.145 295.508C349.17 295.573 349.195 295.629 349.22 295.686C349.312 295.948 349.403 296.201 349.495 296.464C349.595 296.745 349.687 297.008 349.77 297.27C349.795 297.336 349.812 297.401 349.837 297.467C349.92 297.729 350.003 298.001 350.087 298.264L350.103 298.32C350.178 298.573 350.253 298.826 350.32 299.089C350.345 299.154 350.353 299.211 350.378 299.267C350.453 299.548 350.52 299.811 350.595 300.083L350.62 300.195C350.678 300.439 350.737 300.692 350.795 300.936C350.812 301.001 350.828 301.067 350.837 301.123C350.903 301.395 350.962 301.667 351.02 301.939L351.045 302.098C351.095 302.333 351.145 302.586 351.195 302.829C351.203 302.886 351.212 302.951 351.22 303.008C351.27 303.289 351.32 303.561 351.37 303.842L351.395 304.02L351.503 304.761C351.512 304.817 351.52 304.864 351.528 304.92C351.562 305.201 351.595 305.483 351.628 305.773C351.637 305.839 351.645 305.895 351.653 305.961C351.687 306.223 351.712 306.486 351.737 306.739L351.745 306.87C351.77 307.151 351.795 307.442 351.812 307.742C351.82 307.798 351.82 307.864 351.828 307.939C351.845 308.211 351.862 308.492 351.87 308.754C351.878 308.783 351.878 308.811 351.878 308.839C351.895 309.129 351.903 309.42 351.912 309.729L351.919 310.382L351.92 310.836C351.92 332.464 336.303 349.995 317.037 349.995C313.378 349.995 309.853 349.367 306.545 348.195L208.52 311.82C206.803 311.183 204.962 310.836 203.045 310.836C201.128 310.836 199.287 311.183 197.562 311.82L99.5449 348.195L97.5314 348.832C94.8159 349.593 91.9799 349.995 89.0533 349.995C69.7866 349.995 54.1699 332.464 54.1699 310.836L54.1783 309.729C54.1866 309.42 54.1949 309.129 54.2116 308.839C54.2283 308.492 54.2449 308.211 54.2616 307.939C54.2616 307.864 54.2699 307.798 54.2783 307.742C54.2949 307.442 54.3199 307.151 54.3449 306.87L54.3533 306.739C54.3783 306.486 54.4033 306.223 54.4366 305.961C54.4449 305.895 54.4449 305.839 54.4533 305.773C54.4866 305.483 54.5199 305.201 54.5616 304.92C54.5699 304.864 54.5783 304.817 54.5866 304.761C54.6199 304.517 54.6533 304.273 54.6949 304.02C54.7033 303.954 54.7116 303.898 54.7199 303.842C54.7616 303.561 54.8116 303.289 54.8616 303.008C54.8699 302.951 54.8866 302.886 54.8949 302.829C54.9449 302.586 54.9866 302.333 55.0366 302.098L55.0699 301.939C55.1283 301.667 55.1866 301.395 55.2449 301.123L55.2866 300.936C55.3533 300.692 55.4033 300.439 55.4699 300.195C55.4783 300.158 55.4866 300.12 55.4949 300.083C55.5616 299.811 55.6366 299.548 55.7116 299.267L55.7616 299.089C55.8366 298.826 55.9033 298.573 55.9866 298.32L56.0033 298.264C56.0783 298.001 56.1699 297.729 56.2533 297.467L56.3116 297.27L56.5866 296.473C56.6866 296.201 56.7699 295.948 56.8699 295.686C56.8949 295.629 56.9199 295.573 56.9449 295.508C57.0366 295.254 57.1366 294.992 57.2366 294.739L57.2783 294.654C57.3699 294.42 57.4699 294.186 57.5616 293.961C57.5866 293.895 57.6116 293.839 57.6366 293.783L57.9949 292.978C58.1199 292.705 58.2199 292.489 58.3283 292.264C58.3533 292.208 58.3783 292.161 58.4033 292.114L58.5658 291.786L58.7283 291.458L58.7699 291.373L58.8033 291.308L58.8783 291.158L60.6283 287.764L115.828 180.411L172.753 69.7107C178.77 57.9357 190.087 49.9951 203.045 49.9951ZM669.175 125.13C699.244 125.13 728.865 151.406 730.015 196.979L730.05 199.736V200.439C730.05 247.352 700.162 275.036 669.175 275.036C646.387 275.036 631.317 261.429 621.29 246.066L620.196 244.352V306.968C620.196 312.958 616.128 317.899 610.805 317.899C605.836 317.899 601.686 313.595 601.155 308.151L601.097 306.968V137.477C601.097 131.477 605.173 126.546 610.489 126.546C615.457 126.546 619.608 130.841 620.139 136.292L620.196 137.477V157.052C630.528 139.774 645.859 125.13 669.175 125.13ZM1651.63 125.13C1681.39 125.13 1711.3 151.406 1712.46 196.979L1712.5 199.736V200.439C1712.5 247.352 1682.61 275.036 1651.63 275.036C1628.84 275.036 1613.77 261.429 1603.74 246.066L1602.65 244.352V306.968C1602.65 312.958 1598.57 317.899 1593.25 317.899C1588.29 317.899 1584.14 313.595 1583.61 308.151L1583.56 306.968V137.477C1583.56 131.477 1587.62 126.546 1592.94 126.546C1597.91 126.546 1602.06 130.841 1602.59 136.292L1602.65 137.477V157.052C1612.97 139.774 1628.3 125.13 1651.63 125.13ZM974.803 125.662C996.082 125.662 1010.48 135.009 1021.74 146.643C1023.32 148.237 1024.72 150.88 1024.72 154.237C1024.72 159.702 1020.81 164.287 1015.8 164.287C1013.14 164.287 1010.96 163.227 1009.55 161.643C1000.31 152.296 989.984 144.355 974.645 144.355C949.271 144.355 930.023 168.084 929.141 197.781L929.11 199.912V200.259C929.11 231.477 949.448 256.171 976.051 256.171C990.766 256.171 1002.34 248.587 1011.73 238.537C1012.68 237.477 1014.71 235.893 1017.05 235.893C1022.07 235.893 1025.82 240.655 1025.35 245.587C1025.35 248.23 1024.41 250.705 1023 252.29C1010.8 266.221 996.082 275.568 974.803 275.568C938.566 275.568 910.617 242.466 909.575 203.232L909.545 200.962V200.615C909.545 160.227 937.553 125.662 974.803 125.662ZM821.594 126.369C839.596 126.369 853.363 131.479 861.972 142.241C870.068 151.365 874.427 164.25 874.912 181.023L874.957 184.213V263.048C874.957 269.048 871.364 273.632 866.04 273.632C861.071 273.632 857.609 269.794 857.17 264.693L857.123 263.582V250.532C848.039 263.582 833.024 275.226 810.797 275.226C787.763 275.226 764.421 260.966 763.268 232.795L763.224 230.601V230.244C763.224 199.738 785.609 183.688 817.843 183.688C832.952 183.688 844.151 185.661 854.699 188.907L857.123 189.679V184.738C857.123 158.994 843.189 145.419 819.249 145.419C806.571 145.419 795.616 148.419 786.233 153.351C785.293 153.698 783.887 154.054 782.947 154.054C778.713 154.054 774.653 149.994 774.653 145.063C774.653 140.648 777.623 137.123 779.969 136.073C792.646 130.073 805.324 126.369 821.594 126.369ZM1121.59 125.138C1159.62 125.138 1180.9 160.05 1181.05 197.438C1181.05 203.038 1177.38 206.947 1173.07 207.443L1172.14 207.497H1079.96C1082.62 238.538 1102.19 256.172 1124.88 256.172C1140.53 256.172 1152.11 249.3 1161.5 239.597C1162.75 238.013 1164.47 236.944 1166.82 236.944C1171.51 236.944 1175.11 241.003 1175.11 245.944C1175.11 248.409 1174.17 251.053 1172.14 252.994C1159.93 266.053 1145.53 274.697 1123.94 274.697C1089.71 274.697 1061.51 245.849 1060.43 202.648L1060.4 200.091V199.744C1060.4 158.466 1086.38 125.138 1121.59 125.138ZM517.379 126.012C530.68 126.012 545.545 130.775 557.915 138.359C560.253 140.3 562.607 143.3 562.607 147.35C562.607 152.29 559.005 156.35 554.313 156.35C552.275 156.35 550.869 155.647 549.929 155.29C538.816 148.053 527.553 144.003 516.597 144.003C502.304 144.003 492.779 152.315 492.067 163.623L492.025 164.994V165.34C492.025 178.747 508.146 184.034 525.049 190.034C544.337 196.54 564.66 204.874 566.265 228.734L566.358 230.947V231.303C566.358 258.819 546.486 274.512 521.131 274.512C504.078 274.512 485.769 267.809 471.844 256.531C470.28 254.937 468.55 252.294 468.55 248.59C468.55 243.65 472.152 239.59 476.852 239.59C478.574 239.59 480.137 240.125 481.543 241.184C494.844 251.234 508.146 256.531 522.079 256.531C536.842 256.531 547.548 248.185 548.321 235.119L548.365 233.59V233.244C548.365 219.134 533.026 213.49 516.439 208.194C496.965 202.032 475.422 194.355 474.241 169.785L474.19 167.637V167.281C474.19 142.587 492.025 126.012 517.379 126.012ZM1267.44 126.012C1280.74 126.012 1295.61 130.775 1307.97 138.359C1310.31 140.3 1312.67 143.3 1312.67 147.35C1312.67 152.29 1309.07 156.35 1304.38 156.35C1302.34 156.35 1300.93 155.647 1299.99 155.29C1288.88 148.053 1277.61 144.003 1266.65 144.003C1252.36 144.003 1242.84 152.315 1242.13 163.623L1242.09 164.994V165.34C1242.09 177.789 1255.99 183.237 1271.51 188.756L1275.11 190.034C1294.54 196.54 1314.88 204.874 1316.34 228.734L1316.42 230.947V231.303C1316.42 258.819 1296.55 274.512 1271.19 274.512C1254.14 274.512 1235.82 267.809 1221.91 256.531C1220.33 254.937 1218.61 252.294 1218.61 248.59C1218.61 243.65 1222.21 239.59 1226.91 239.59C1228.63 239.59 1230.2 240.125 1231.61 241.184C1244.91 251.234 1258.21 256.531 1272.14 256.531C1286.9 256.531 1297.61 248.185 1298.38 235.119L1298.43 233.59V233.244C1298.43 219.134 1283.09 213.49 1266.5 208.194C1247.03 202.032 1225.48 194.355 1224.3 169.785L1224.25 167.637V167.281C1224.25 142.587 1242.09 126.012 1267.44 126.012ZM1366.66 67.8142C1371.62 67.8142 1375.77 72.118 1376.3 77.5625L1376.36 78.7454V153.352C1384.82 137.48 1398.11 125.133 1420.02 125.133C1449.84 125.133 1468 147.705 1468.97 180.993L1469.01 183.333V263.227C1469.01 269.227 1464.93 274.158 1459.61 274.158C1454.65 274.158 1450.5 269.862 1449.96 264.411L1449.91 263.227V188.62C1449.91 161.639 1436.92 145.055 1414.69 145.055C1393.25 145.055 1377.26 162.06 1376.39 187.808L1376.36 190.036V262.87C1376.36 268.87 1372.29 273.802 1366.97 273.802C1362 273.802 1357.85 269.506 1357.32 264.055L1357.26 262.87V78.7454C1357.26 72.7548 1361.33 67.8142 1366.66 67.8142ZM1526.27 127.074C1531.24 127.074 1535.25 130.912 1535.89 136.729L1535.98 138.005V262.87C1535.98 268.87 1531.91 273.802 1526.59 273.802C1521.62 273.802 1517.47 269.506 1516.94 264.055L1516.88 262.87V138.005C1516.88 132.005 1520.95 127.074 1526.27 127.074ZM820.654 199.738C797.462 199.738 784.254 210.657 783.452 227.695L783.413 229.363V229.71C783.413 247.701 797.962 258.285 815.339 258.285C838.008 258.285 856.832 243.114 857.86 221.207L857.905 219.313H858.221V205.738C848.987 202.729 836.31 199.738 820.654 199.738ZM665.89 144.358C642.351 144.358 620.607 166.226 619.608 197.654L619.572 199.914V200.618C619.572 234.124 642.257 256.174 665.89 256.174C689.891 256.174 709.853 236.488 710.768 203.031L710.801 200.618V199.914C710.801 166.043 690.146 144.358 665.89 144.358ZM1648.03 144.358C1624.49 144.358 1602.73 166.226 1601.73 197.654L1601.7 199.914V200.618C1601.7 234.124 1624.4 256.174 1648.03 256.174C1672.02 256.174 1691.99 236.488 1692.9 203.031L1692.93 200.618V199.914C1692.93 166.043 1672.29 144.358 1648.03 144.358ZM1121.28 143.653C1099.51 143.653 1082.94 162.989 1079.88 189.995L1079.65 192.328H1161.81C1159.93 166.575 1146.63 143.653 1121.28 143.653ZM1526.27 71.8679C1532.15 71.8679 1536.91 75.8972 1537.48 81.924L1537.54 83.1554V86.8586C1537.54 93.2054 1532.54 98.1461 1526.27 98.1461C1520.7 98.1461 1515.96 94.1168 1515.38 88.09L1515.33 86.8586V83.1554C1515.33 76.4523 1520.02 71.8679 1526.27 71.8679Z" fill="#394EFF"/>
</g>
<defs>
<clipPath id="clip0_757_9">
<rect width="300" height="300" fill="white" transform="translate(50 50)"/>
</clipPath>
</defs>
</svg>
