<svg width="400" height="400" viewBox="0 0 400 400" fill="none" xmlns="http://www.w3.org/2000/svg">
<path d="M248.808 164.023C233.882 175.265 227.806 196.826 229.259 210.714C204.293 183.334 269.679 109.395 194.518 59C237.184 122.622 129 172.885 129 263.357C129 298.806 151.192 330.154 199.802 341C247.487 330.815 271 298.938 271 263.357C270.868 210.582 239.298 192.857 248.808 164.023ZM199.802 310.313C174.836 310.313 154.494 289.944 154.494 264.945C154.494 239.946 174.836 219.576 199.802 219.576C224.767 219.576 245.11 239.946 245.11 264.945C245.11 290.076 224.767 310.313 199.802 310.313Z" fill="#FA6423"/>
</svg>
