<svg width="400" height="400" viewBox="0 0 400 400" fill="none" xmlns="http://www.w3.org/2000/svg">
<path d="M60.4546 210.754H70.4545C83.1818 210.754 95 216.561 101.818 226.835C109.091 237.109 118.182 253.191 129.545 279.992C148.182 323.768 188.636 317.514 206.364 275.079C232.726 211.648 318.181 210.754 318.181 210.754H339.546C345.454 210.754 350 206.287 350 200.48C350 194.674 345.454 190.206 339.546 190.206H325.455C313.636 190.206 302.273 184.846 295 175.465C286.818 165.191 276.364 147.77 264.09 119.629C245.454 76.2994 210 82.5531 192.727 124.989C166.818 188.866 81.8182 190.206 81.8182 190.206H60.4546C54.5454 190.206 50 194.674 50 200.48C50 206.287 54.5454 210.754 60.4546 210.754Z" fill="#FF6B06"/>
</svg>
