<svg width="400" height="400" viewBox="0 0 400 400" fill="none" xmlns="http://www.w3.org/2000/svg">
<path d="M206.483 113C207.189 113 207.807 113 208.512 113C208.6 113.089 208.689 113.266 208.865 113.354C216.451 115.481 219.097 120.353 216.627 127.795C211.6 142.945 206.748 158.095 202.867 173.599C200.838 181.838 198.809 190.077 198.192 198.494C198.104 199.114 198.015 199.911 198.809 200.266C199.603 200.532 200.044 199.911 200.397 199.291C200.573 198.937 200.838 198.582 201.014 198.317C210.894 183.433 221.038 168.726 232.77 155.171C237.709 149.501 243.708 147.109 251.117 148.438C260.379 150.033 267.348 159.689 265.672 168.992C264.261 177.054 262.496 185.027 261.085 193.09C260.379 196.811 259.762 200.62 259.85 204.43C259.85 205.05 259.85 205.581 260.468 205.847C260.997 206.113 261.438 205.67 261.791 205.316C262.673 204.518 263.643 203.721 264.525 202.924C269.377 198.405 275.11 195.836 281.814 196.19C289.136 196.545 296.545 197.254 303.867 197.785C314.54 198.582 325.125 199.291 335.798 200.089C340.562 200.443 345.237 200.886 350 201.329C350 201.772 350 202.215 350 202.658C349.294 202.746 348.677 202.835 347.971 202.924C342.061 203.632 336.151 204.341 330.241 205.05C320.273 206.29 310.306 207.619 300.338 208.416C292.487 209.037 285.431 211.517 279.609 217.099C273.875 222.503 268.936 228.439 264.525 234.906C262.849 237.387 261.173 239.956 258.792 241.905C255.351 244.652 251.47 245.538 247.324 243.943C243.355 242.437 241.502 239.247 240.885 234.995C240.003 229.148 239.474 223.212 239.121 217.365C238.592 208.151 238.415 199.025 239.385 189.9C239.474 189.191 240.091 188.305 239.209 187.863C238.239 187.42 237.974 188.483 237.621 189.014C231.711 196.899 226.683 205.227 222.096 213.909C212.041 232.957 205.072 253.068 203.043 274.685C202.426 280.71 198.809 284.874 193.252 286.38C192.546 286.557 191.752 286.203 191.223 287C190.341 287 189.371 287 188.489 287C188.4 286.646 188.136 286.646 187.871 286.557C181.961 285.317 178.433 281.684 177.286 275.748C174.904 263.168 173.581 250.499 173.14 237.741C172.435 218.516 173.317 199.291 176.316 180.243C176.404 179.535 176.845 178.471 175.963 178.117C174.993 177.674 174.64 178.737 174.111 179.269C168.818 185.47 163.878 191.938 159.115 198.582C150.559 210.454 143.767 223.389 137.415 236.59C134.593 242.614 128.595 246.069 123.037 245.272C115.804 244.297 111.306 240.045 109.806 232.957C108.042 224.541 107.16 216.124 106.542 207.619C106.278 203.898 103.984 201.24 100.368 200.709C92.0759 199.38 83.696 198.14 75.3161 196.811C66.848 195.482 58.4681 194.153 50 192.824C50 192.469 50 192.115 50 191.761C50.9703 191.584 52.0288 191.318 52.9991 191.229C66.6716 190.166 80.2558 189.103 93.9283 188.128C97.633 187.863 100.368 186.268 102.396 182.99C104.69 179.18 107.248 175.548 109.806 171.915C113.423 166.777 117.216 161.638 121.626 157.12C124.272 154.374 127.448 153.488 131.153 154.462C134.946 155.437 137.327 157.918 138.298 161.727C139.18 164.828 138.033 167.486 136.798 170.232C133.005 178.56 129.565 186.888 128.947 196.19C128.947 196.899 128.595 197.785 129.565 198.14C130.623 198.494 130.888 197.519 131.329 196.899C137.063 187.242 143.149 177.763 149.765 168.549C161.497 152.159 174.199 136.566 189.9 123.72C194.84 119.645 199.691 115.215 206.219 113.62C206.307 113.443 206.395 113.177 206.483 113Z" fill="#3B63FB"/>
</svg>
