<svg width="394" height="400" viewBox="0 0 394 400" fill="none" xmlns="http://www.w3.org/2000/svg">
<path d="M193.892 0L375.206 57.5623C381.604 59.5242 386.961 63.3504 390.309 68.3504C393.658 73.3505 394.777 79.1954 393.466 84.8304L376.106 157.274L317.674 249.383L197.852 398.63L51.9395 269.644L193.892 0Z" fill="#0828CC"/>
<path d="M193.757 0L197.718 398.587L51.8822 269.644L0.702753 85.069C-0.81915 79.3935 0.149301 73.445 3.4287 68.3256C6.70809 63.2062 12.0762 59.2629 18.5384 57.2261L193.757 0Z" fill="#0828CC"/>
<path d="M342.28 277.999L198.476 400.001L78.4102 292.186L117.116 261.415L198.322 330.735L372.165 176.129L358.701 250.525C356.817 260.919 351.067 270.54 342.28 277.999Z" fill="#64CB8B"/>
<path d="M198.384 297.997V399.954L78.3823 292.14L70.5254 271.705L115.185 225.488L198.384 297.997Z" fill="#64CB8B"/>
<path d="M52.1387 267.388L77.6513 292.172L108.05 270.316C110.293 268.707 113.17 267.865 116.112 267.957C119.055 268.05 121.85 269.069 123.944 270.815L198.18 332.716L370.827 183.783L379.083 139.648L198.18 290.241L124.073 226.518C121.965 224.708 119.115 223.647 116.109 223.554C113.102 223.462 110.168 224.344 107.909 226.019L52.1387 267.388Z" fill="white"/>
<path fill-rule="evenodd" clip-rule="evenodd" d="M266.168 64.9947C266.168 64.9947 166.162 61.4913 136.162 99.595C129.269 108.511 124.669 118.546 122.66 129.054C121.825 133.129 121.305 137.244 121.104 141.376C120.658 153.382 122.273 165.379 125.9 176.996C127.893 174.664 130.298 171.919 133.153 168.861C135.21 166.626 137.486 164.262 139.942 161.81C142.386 159.359 145.086 156.832 147.786 154.218C150.513 151.604 153.47 149.055 156.505 146.474C159.591 143.925 162.626 141.256 165.892 138.816C169.184 136.375 172.322 133.848 175.652 131.581L179.189 129.097L180.474 128.165L185.399 125.03L190.145 121.993L194.864 119.325C197.924 117.589 200.779 115.93 203.582 114.628L211.092 110.919L217.084 108.424L222.228 106.255L217.535 109.183L212.185 112.524L205.588 117.264C203.132 118.934 200.676 120.973 198.053 123.11L194.041 126.364L191.045 129.054L190.054 129.954L185.94 133.664L181.953 137.644C180.667 138.848 179.484 140.107 178.276 141.376C177.298 142.384 176.334 143.447 175.382 144.489L174.096 145.931C171.524 148.621 169.21 151.539 166.831 154.305L166.651 154.522C164.259 157.396 162.022 160.314 159.861 163.09C157.675 165.867 155.695 168.644 153.92 171.323C152.146 174.002 150.384 176.475 148.892 178.829C145.858 183.503 143.543 187.506 142.013 190.25L141.498 191.183C157.47 195.322 174.304 196.539 190.877 194.751C195.437 194.196 199.935 193.329 204.328 192.159C212.761 189.914 220.676 186.47 227.732 181.974C241.631 171.535 251.353 157.719 255.559 142.428C256.935 138.534 258.131 134.553 259.16 130.551C264.36 108.981 266.71 87.0016 266.168 64.9947Z" fill="white"/>
</svg>
