<svg width="400" height="400" viewBox="0 0 400 400" fill="none" xmlns="http://www.w3.org/2000/svg">
<g clip-path="url(#clip0_228_136)">
<path d="M333.15 0H66.8499C29.9065 0 0 29.9065 0 66.8499V333.15C0 370.093 29.9065 400 66.8499 400H333.15C370.093 400 400 370.093 400 333.15V66.8499C400 29.9065 370.093 0 333.15 0ZM327.213 306.322C327.213 317.977 317.757 327.433 306.102 327.433H93.8978C82.243 327.433 72.7872 317.977 72.7872 306.322V93.8978C72.7872 82.243 82.243 72.7872 93.8978 72.7872H306.322C317.977 72.7872 327.433 82.243 327.433 93.8978V306.322H327.213Z" fill="#1A1A1A"/>
<path d="M157.669 254.206C150.852 254.206 145.574 248.709 145.574 242.112V157.45C145.574 150.633 151.072 145.355 157.669 145.355H242.551C249.148 145.355 254.645 150.853 254.645 157.45V242.112C254.645 248.929 249.148 254.206 242.551 254.206H157.669Z" fill="#1A1A1A"/>
</g>
<defs>
<clipPath id="clip0_228_136">
<rect width="400" height="400" fill="white"/>
</clipPath>
</defs>
</svg>
