<svg width="400" height="400" viewBox="0 0 400 400" fill="none" xmlns="http://www.w3.org/2000/svg">
<path fill-rule="evenodd" clip-rule="evenodd" d="M226.419 61.0283C231.355 61.8603 236.639 62.9693 242.339 64.5637C279.326 74.7538 317.008 109.553 285.583 102.621C237.681 88.1326 206.396 116.831 190.822 150.59C190.405 151.492 189.988 152.393 189.571 153.294C171.008 204.522 161.692 292.281 96.7563 279.318C31.0561 258.453 46.9771 162.86 70.1286 127.021C95.0877 88.5485 123.801 67.2672 166.906 60.4044C190.753 56.5918 210.497 57.7008 226.419 61.0283Z" fill="#4EC4CD"/>
<path fill-rule="evenodd" clip-rule="evenodd" d="M173.582 337.963C168.646 337.131 163.362 336.022 157.661 334.428C120.674 324.238 82.9926 289.439 114.417 296.371C162.319 310.859 193.605 282.16 209.178 248.401C209.596 247.5 210.013 246.598 210.43 245.697C228.993 194.47 238.309 106.71 303.244 119.673C368.945 140.538 353.024 236.131 329.872 271.97C304.913 310.443 276.2 331.724 233.095 338.587C209.178 342.469 189.434 341.29 173.582 337.963Z" fill="#4EC4CD"/>
</svg>
