<svg width="400" height="400" viewBox="0 0 400 400" fill="none" xmlns="http://www.w3.org/2000/svg">
<path d="M134.865 323.965C192.847 323.965 230.558 293.256 230.558 247.06C230.558 211.233 207.622 188.468 166.61 179.04L140.279 171.142C117.181 165.958 103.699 159.73 106.875 143.823C109.517 130.59 117.424 123.12 135.808 123.12C194.252 123.12 215.906 143.823 215.906 143.823V94.0278C215.906 94.0278 194.824 75 135.808 75C80.184 75 50 103.622 50 147.933C50 183.758 70.918 204.593 113.342 214.493C116.312 215.235 117.83 215.617 117.895 215.637C124.348 217.634 133.057 220.273 144.02 223.553C165.704 228.739 171.28 234.242 171.28 250.741C171.28 265.825 155.607 274.401 134.865 274.401C75.1156 274.4 50 244.172 50 244.172V299.342C50 299.342 65.7055 323.963 134.865 323.963V323.965Z" fill="url(#paint0_linear_583_55)"/>
<path d="M314.193 320.235C334.719 320.235 350.004 305.387 350.004 285.299C350.004 264.773 335.156 250.361 314.193 250.361C293.668 250.361 278.82 264.773 278.82 285.299C278.82 305.824 293.668 320.235 314.193 320.235Z" fill="#E80000"/>
<defs>
<linearGradient id="paint0_linear_583_55" x1="9077.89" y1="75" x2="9077.89" y2="24971.5" gradientUnits="userSpaceOnUse">
<stop stop-color="#9D39FF"/>
<stop offset="1" stop-color="#A380FF"/>
</linearGradient>
</defs>
</svg>
