<svg width="400" height="400" viewBox="0 0 400 400" fill="none" xmlns="http://www.w3.org/2000/svg">
<g clip-path="url(#clip0_747_26)">
<path d="M95.1855 203.445C96.3707 205.506 97.0373 208.083 97.0373 211.102V211.249C97.0373 214.342 96.4447 217.139 95.1855 219.643C93.9262 222.146 92.1484 224.208 89.9262 225.975C87.6299 227.668 84.8892 228.993 81.6299 229.95C78.3707 230.908 74.741 231.349 70.741 231.349C64.667 231.349 58.9633 230.539 53.704 228.846C48.4447 227.153 43.9262 224.649 40.1484 221.336L50.8151 208.746C54.0744 211.249 57.4818 213.016 61.0373 214.047C64.5929 215.151 68.1484 215.667 71.704 215.667C73.5558 215.667 74.8151 215.446 75.6299 215.004C76.4447 214.562 76.8151 213.9 76.8151 213.164V213.016C76.8151 212.133 76.2225 211.47 75.0373 210.881C73.8521 210.292 71.704 209.703 68.5188 209.114C65.1855 208.451 62.0003 207.642 58.9633 206.758C55.9262 205.875 53.2595 204.697 50.9633 203.298C48.667 201.899 46.8151 200.132 45.4818 197.997C44.0003 195.714 43.3336 193.064 43.3336 189.971V189.824C43.3336 187.026 43.8521 184.376 44.9633 181.946C46.0744 179.516 47.704 177.381 49.8521 175.614C52.0003 173.773 54.667 172.375 57.7781 171.344C60.8892 170.313 64.5188 169.798 68.667 169.798C74.4447 169.798 79.5558 170.46 83.8521 171.859C88.2225 173.184 92.0744 175.246 95.5558 177.97L85.8521 191.297C83.0373 189.235 80.0003 187.762 76.8892 186.805C73.704 185.848 70.741 185.406 68.0003 185.406C66.5188 185.406 65.4077 185.627 64.741 186.069C64.0003 186.511 63.704 187.1 63.704 187.836V187.983C63.704 188.793 64.2225 189.456 65.3336 190.045C66.4447 190.634 68.5188 191.223 71.6299 191.812C75.4077 192.475 78.8892 193.284 82.0003 194.242C85.1114 195.199 87.7781 196.45 90.0744 197.923C92.2225 199.543 94.0003 201.31 95.1855 203.445ZM95.9262 187.689H113.482V230.245H133.408V187.689H150.963V170.902H95.9262V187.689ZM327.334 167.221L295.26 230.245H314.371L327.334 204.77L340.371 230.245H359.482L327.334 167.221ZM238 167.221L270.148 230.245H251.037L238.074 204.77L225.111 230.245H212.148H206H189.408L178.148 213.311H178H173.926V230.245H154V170.902H182.963C188.297 170.902 192.667 171.491 196.148 172.743C199.556 173.921 202.371 175.614 204.445 177.676C206.297 179.443 207.63 181.504 208.519 183.787C209.408 186.069 209.852 188.72 209.852 191.738V191.886C209.852 196.229 208.815 199.911 206.667 202.856C204.593 205.875 201.704 208.231 198.074 209.998L208.445 225.017L238 167.221ZM190 193.211C190 191.297 189.334 189.898 187.926 188.94C186.593 187.983 184.741 187.542 182.371 187.542H173.704V199.175H182.297C184.667 199.175 186.593 198.659 187.926 197.628C189.26 196.598 190 195.199 190 193.358V193.211ZM295.704 170.902L282.667 196.45L269.63 170.902H250.519L282.667 233.926L314.741 170.902H295.704Z" fill="#FC4C02"/>
</g>
<defs>
<clipPath id="clip0_747_26">
<rect width="320" height="67" fill="white" transform="translate(40 167)"/>
</clipPath>
</defs>
</svg>
