<svg width="400" height="400" viewBox="0 0 400 400" fill="none" xmlns="http://www.w3.org/2000/svg">
<path d="M298.252 47H100.748C70.5117 47 46 71.5117 46 101.748V299.252C46 329.488 70.5117 354 100.748 354H298.252C328.488 354 353 329.488 353 299.252V101.748C353 71.5117 328.488 47 298.252 47Z" fill="#4945FF"/>
<path fill-rule="evenodd" clip-rule="evenodd" d="M258.474 140H154V192.187H206.29C207.132 192.187 207.816 192.87 207.816 193.713V246H260V141.526C260 140.683 259.317 140 258.474 140Z" fill="white"/>
<path opacity="0.42" fill-rule="evenodd" clip-rule="evenodd" d="M154 140V192H103.763C103.085 192 102.745 191.181 103.225 190.702L154 140Z" fill="white"/>
<path opacity="0.42" fill-rule="evenodd" clip-rule="evenodd" d="M209.297 296.775C208.819 297.255 208 296.916 208 296.237V246H260L209.297 296.775Z" fill="white"/>
<path opacity="0.42" d="M154 192H207.234C207.657 192 208 192.342 208 192.766V246H155.531C154.685 246 154 245.315 154 244.469V192Z" fill="white"/>
</svg>
