<svg width="400" height="400" viewBox="0 0 400 400" fill="none" xmlns="http://www.w3.org/2000/svg">
<path fill-rule="evenodd" clip-rule="evenodd" d="M380 187.4C380 161.8 367.6 141.6 343.9 141.6C320.1 141.6 305.7 161.8 305.7 187.2C305.7 217.3 322.7 232.5 347.1 232.5C359 232.5 368 229.8 374.8 226V206C368 209.4 360.2 211.5 350.3 211.5C340.6 211.5 332 208.1 330.9 196.3H379.8C379.8 195 380 189.8 380 187.4ZM330.6 177.9C330.6 166.6 337.5 161.9 343.8 161.9C349.9 161.9 356.4 166.6 356.4 177.9H330.6ZM267.1 141.6C257.3 141.6 251 146.2 247.5 149.4L246.2 143.2H224.2V259.8L249.2 254.5L249.3 226.2C252.9 228.8 258.2 232.5 267 232.5C284.9 232.5 301.2 218.1 301.2 186.4C301.1 157.4 284.6 141.6 267.1 141.6ZM261.1 210.5C255.2 210.5 251.7 208.4 249.3 205.8L249.2 168.7C251.8 165.8 255.4 163.8 261.1 163.8C270.2 163.8 276.5 174 276.5 187.1C276.5 200.5 270.3 210.5 261.1 210.5ZM189.8 135.7L214.9 130.3V110L189.8 115.3V135.7ZM189.8 143.3H214.9V230.8H189.8V143.3ZM162.9 150.7L161.3 143.3H139.7V230.8H164.7V171.5C170.6 163.8 180.6 165.2 183.7 166.3V143.3C180.5 142.1 168.8 139.9 162.9 150.7ZM112.9 121.6L88.5 126.8L88.4 206.9C88.4 221.7 99.5 232.6 114.3 232.6C122.5 232.6 128.5 231.1 131.8 229.3V209C128.6 210.3 112.8 214.9 112.8 200.1V164.6H131.8V143.3H112.8L112.9 121.6ZM45.3 168.7C45.3 164.8 48.5 163.3 53.8 163.3C61.4 163.3 71 165.6 78.6 169.7V146.2C70.3 142.9 62.1 141.6 53.8 141.6C33.5 141.6 20 152.2 20 169.9C20 197.5 58 193.1 58 205C58 209.6 54 211.1 48.4 211.1C40.1 211.1 29.5 207.7 21.1 203.1V226.9C30.4 230.9 39.8 232.6 48.4 232.6C69.2 232.6 83.5 222.3 83.5 204.4C83.4 174.6 45.3 179.9 45.3 168.7Z" fill="#635BFF"/>
</svg>
