<svg width="400" height="277" viewBox="0 0 400 277" fill="none" xmlns="http://www.w3.org/2000/svg">
<g clip-path="url(#clip0_284_74)">
<path d="M353.066 157.719C349.385 157.719 345.704 158.329 342.023 158.939C327.913 103.722 282.821 62.2335 226.993 52.4714C224.539 51.8612 222.085 51.8612 219.631 51.2511C220.244 37.8282 220.858 21.9648 241.103 7.93172L237.422 0C237.422 0 198.158 12.2026 193.864 45.7599C192.023 36.6079 173.618 25.0154 164.416 23.185L159.508 30.5066C167.483 35.3877 173.005 43.9295 174.232 53.0815C117.483 62.8436 72.6982 104.638 58.5877 159.55C33.4344 153.448 7.36073 168.702 1.22577 193.717C-4.9092 218.732 10.4282 244.663 35.5816 250.764C45.3975 253.205 55.2135 252.595 64.416 248.934C68.7104 258.696 73.6184 268.458 79.7534 277L119.017 250.764V250.154C107.974 234.901 101.839 216.597 101.226 197.988C99.9988 176.633 105.52 155.279 119.017 142.771C147.238 118.976 178.22 129.958 197.852 152.533H202.76C221.778 129.348 252.76 118.976 281.594 142.771C295.091 154.974 300.612 176.328 299.385 197.988C298.772 216.902 292.637 234.596 281.594 250.154L280.98 250.764L320.244 277C326.379 268.458 331.287 258.696 335.582 248.934C359.508 258.086 387.422 246.493 396.625 222.698C405.827 198.903 394.171 171.142 370.244 161.99C364.416 158.939 358.281 157.719 353.066 157.719ZM46.3178 219.037C38.9558 218.427 32.8209 212.326 33.4344 204.394C34.0479 197.073 39.5693 191.581 46.3178 190.971C49.3853 190.971 51.8393 191.581 54.2933 193.412C54.2933 200.733 54.9068 208.055 55.5202 215.377C53.0663 217.817 49.9988 219.037 46.3178 219.037ZM353.68 219.037C349.999 219.037 346.931 217.817 344.477 215.377C345.091 208.055 345.704 200.733 345.704 193.412C351.839 189.141 360.428 190.971 364.723 197.073C366.563 199.513 367.177 201.954 367.177 205.004C367.79 212.936 361.042 219.037 353.68 219.037Z" fill="#008323"/>
</g>
<defs>
<clipPath id="clip0_284_74">
<rect width="400" height="277" fill="white"/>
</clipPath>
</defs>
</svg>
