<svg width="390" height="400" viewBox="0 0 390 400" fill="none" xmlns="http://www.w3.org/2000/svg">
<g clip-path="url(#clip0_281_17)">
<path fill-rule="evenodd" clip-rule="evenodd" d="M13.5561 123.902L49.0106 130.731C14.5989 120.975 -6.25676 88.7802 1.0427 56.5851L2.08549 51.707L190.829 86.829C241.925 96.5851 280.508 137.561 280.508 186.341C280.508 241.951 230.454 287.805 168.93 287.805C109.492 287.805 60.4812 244.878 57.3529 190.244C26.0694 184.39 6.25661 156.097 12.5133 127.805L13.5561 123.902ZM198.128 156.097C202.299 152.195 208.556 152.195 212.727 156.097C216.898 160 216.898 165.853 212.727 169.756L163.716 214.634C159.545 218.536 153.289 218.536 149.118 214.634L125.134 193.17C120.962 189.268 120.962 183.414 125.134 179.512C129.305 175.609 135.561 175.609 139.733 179.512L156.417 194.146L198.128 156.097Z" fill="#19BA84"/>
<path d="M334.732 89.7574C354.544 118.05 364.972 151.221 364.972 185.367C364.972 249.757 327.432 306.343 271.122 337.562L266.951 339.513C261.737 342.44 256.523 345.367 250.266 347.318C236.71 353.172 223.154 357.074 208.555 360.001C207.512 360.001 206.469 360.001 206.469 360.001C204.384 360.001 201.256 360.977 199.17 360.977C184.571 362.928 169.972 363.904 155.373 362.928C154.33 362.928 153.288 362.928 152.245 362.928C145.988 362.928 139.732 361.952 133.475 360.977C132.432 360.977 131.389 360.977 130.346 360.001C128.261 360.001 127.218 359.026 125.133 359.026C124.09 359.026 122.004 358.05 120.961 358.05C119.919 358.05 117.833 357.074 116.79 357.074C112.619 356.099 108.448 355.123 104.277 353.172L53.1807 400.001C39.6246 394.148 27.1112 387.318 15.6406 379.513L63.6085 335.611L94.892 307.318C116.79 318.05 142.86 324.879 169.972 324.879C254.437 325.855 323.261 262.44 323.261 185.367V178.538C323.261 162.928 318.047 148.294 313.876 136.587C308.662 125.855 304.491 118.05 304.491 118.05C304.491 118.05 323.261 99.5135 334.732 89.7574ZM369.143 58.5379L334.732 89.7574C332.646 61.4647 306.576 39.0257 274.25 39.0257C259.651 39.0257 246.095 43.9037 235.667 51.7086C234.625 52.6842 232.539 53.6598 231.496 54.6354C217.94 48.7818 202.298 45.855 186.657 43.9037C194.999 32.1964 206.469 21.4647 218.983 13.6598L220.026 12.6842C234.625 5.85495 250.266 0.976907 266.951 0.00129741C302.405 -1.94992 335.774 12.6842 357.673 39.0257H391.042L369.143 58.5379Z" fill="#19BA84"/>
</g>
<defs>
<clipPath id="clip0_281_17">
<rect width="390" height="400" fill="white"/>
</clipPath>
</defs>
</svg>
