<svg width="324" height="400" viewBox="0 0 324 400" fill="none" xmlns="http://www.w3.org/2000/svg">
<g clip-path="url(#clip0_256_140)">
<path d="M204.598 358.711C169.1 359.356 136.184 340.001 119.403 309.033C111.658 296.13 92.2953 261.291 91.6499 260.001C83.2595 244.517 105.849 232.259 114.24 247.098C114.24 247.743 134.248 283.227 141.993 296.13C160.71 327.743 194.271 340.001 232.351 328.388C249.132 323.227 256.877 348.388 240.096 353.55C228.479 356.775 216.216 358.711 204.598 358.711Z" fill="#00ABC7"/>
<path d="M207.177 400.001C157.48 400.001 111.009 376.775 87.1289 336.13L34.2046 243.872C30.3321 237.42 32.9138 229.678 38.7226 225.807L75.5114 204.517C81.9656 200.646 89.7106 203.226 93.5831 209.033C97.4556 215.484 94.874 223.226 88.4198 227.097L63.2485 241.291L110.364 322.581C135.535 367.743 196.205 385.807 251.711 366.452C296.244 327.743 310.444 266.452 285.272 221.936L240.093 143.872C236.221 137.42 238.802 129.678 244.611 125.807C251.065 121.936 258.81 124.517 262.683 130.968L307.862 209.033C340.133 264.517 322.061 341.291 267.201 387.743C265.91 389.033 264.619 389.678 263.328 390.323C245.256 396.775 226.539 400.001 207.177 400.001Z" fill="#00ABC7"/>
<path d="M203.305 316.13C182.652 316.13 165.226 302.581 156.19 287.097L1.93483 20.0005C-6.45561 4.51661 15.4886 -8.38662 24.5245 6.45209L178.779 274.194C183.297 281.291 194.915 294.194 209.76 289.033C226.54 283.871 234.285 308.388 217.505 314.194C213.632 315.484 208.469 316.13 203.305 316.13ZM169.744 178.065C165.226 178.065 160.708 175.484 158.126 171.613L115.528 96.7747C107.138 81.936 129.728 69.0327 138.118 83.8714L174.907 147.742L198.142 134.194C212.987 125.807 225.895 148.388 211.05 156.775L176.198 176.775C174.907 177.42 172.325 178.065 169.744 178.065Z" fill="#00ABC7"/>
</g>
<defs>
<clipPath id="clip0_256_140">
<rect width="324" height="400" fill="white"/>
</clipPath>
</defs>
</svg>
