<svg width="400" height="400" viewBox="0 0 400 400" fill="none" xmlns="http://www.w3.org/2000/svg">
<path d="M49.9999 249.994C77.6141 249.994 99.9998 227.609 99.9998 199.997C99.9998 172.384 77.6141 150 49.9999 150C22.3857 150 0 172.384 0 199.997C0 227.609 22.3857 249.994 49.9999 249.994Z" fill="#141414"/>
<path d="M199.999 249.994C227.613 249.994 249.999 227.609 249.999 199.997C249.999 172.384 227.613 150 199.999 150C172.385 150 149.999 172.384 149.999 199.997C149.999 227.609 172.385 249.994 199.999 249.994Z" fill="#141414"/>
<path opacity="0.2" d="M49.9999 400.002C77.6141 400.002 99.9998 377.617 99.9998 350.005C99.9998 322.392 77.6141 300.008 49.9999 300.008C22.3857 300.008 0 322.392 0 350.005C0 377.617 22.3857 400.002 49.9999 400.002Z" fill="#141414"/>
<path opacity="0.2" d="M350 400.002C377.614 400.002 400 377.617 400 350.005C400 322.392 377.614 300.008 350 300.008C322.386 300.008 300 322.392 300 350.005C300 377.617 322.386 400.002 350 400.002Z" fill="#141414"/>
<path d="M199.999 400.002C227.613 400.002 249.999 377.617 249.999 350.005C249.999 322.392 227.613 300.008 199.999 300.008C172.385 300.008 149.999 322.392 149.999 350.005C149.999 377.617 172.385 400.002 199.999 400.002Z" fill="#141414"/>
<path d="M350 249.994C377.614 249.994 400 227.609 400 199.997C400 172.384 377.614 150 350 150C322.386 150 300 172.384 300 199.997C300 227.609 322.386 249.994 350 249.994Z" fill="#141414"/>
<path opacity="0.2" d="M49.9999 99.9938C77.6141 99.9938 99.9998 77.6094 99.9998 49.9969C99.9998 22.3844 77.6141 0 49.9999 0C22.3857 0 0 22.3844 0 49.9969C0 77.6094 22.3857 99.9938 49.9999 99.9938Z" fill="#141414"/>
<path opacity="0.2" d="M199.999 99.9938C227.613 99.9938 249.999 77.6094 249.999 49.9969C249.999 22.3844 227.613 0 199.999 0C172.385 0 149.999 22.3844 149.999 49.9969C149.999 77.6094 172.385 99.9938 199.999 99.9938Z" fill="#141414"/>
<path opacity="0.2" d="M350 99.9938C377.614 99.9938 400 77.6094 400 49.9969C400 22.3844 377.614 0 350 0C322.386 0 300 22.3844 300 49.9969C300 77.6094 322.386 99.9938 350 99.9938Z" fill="#141414"/>
</svg>
