<svg width="400" height="66" viewBox="0 0 400 66" fill="none" xmlns="http://www.w3.org/2000/svg">
<g clip-path="url(#clip0_164_198)">
<path fill-rule="evenodd" clip-rule="evenodd" d="M13.8858 64.7C12.3927 65.4 11.3475 66 10.601 66H8.51064C7.9134 65.9 7.31616 65.7 6.71892 65.5C5.52445 65.1 4.47928 64.6 3.43412 64.1C2.38895 63.6 1.6424 63 1.04517 62.5C0.298619 62 0 61.6 0 61.4C0 60.2 0.597238 58.4 1.94102 56C3.28481 53.6 4.92721 50.8 7.16685 47.7C9.25719 44.6 11.7954 41.3 14.3337 37.9C17.0213 34.5 19.7088 31.2 22.5457 28.1C25.3826 25 28.0702 22.2 30.7577 19.8C33.4453 17.4 40.3135 14.2 37.7753 14.3C32.5495 14.4 27.4729 14.7 22.8443 15.2C18.2158 15.6 14.3337 16.3 11.3475 17C9.70511 17.4 8.36133 17.4 7.61478 16.8C6.71892 16.2 6.271 15.5 5.97238 14.5C5.67376 13.6 5.82307 12.6 5.97238 11.7C6.271 10.8 6.71893 10.2 7.31616 10C9.5558 9 12.542 8.1 16.5733 7.3C20.6047 6.5 25.084 5.8 29.8619 5.2C34.7891 4.6 39.7163 4.1 44.7928 3.7C49.8694 3.3 54.6473 3.1 58.9772 2.9C63.3072 2.8 67.0399 2.8 69.8768 2.9C72.863 3 74.6547 3.2 75.252 3.7C75.9985 4.3 76.2971 5.2 76.2971 6.5C76.2971 7.8 76.1478 9 75.8492 10.3C75.4013 11.6 74.9533 12.7 74.2068 13.7C73.4602 14.6 72.5644 15.1 71.6685 15C67.9358 14.6 63.7551 14.4 59.1265 14.2C54.4979 14 40.6122 12.1 44.7928 14C45.5394 14.4 46.2859 14.8 47.0325 15.3C47.779 15.8 48.3763 16.3 48.8242 16.9C49.2721 17.4 49.5707 18 49.5707 18.5C49.72 19 49.4214 19.5 48.9735 19.9C43.1504 24.6 38.2232 29.3 33.8932 33.9C29.5633 38.5 26.2785 42.7 23.7402 46.4C21.2019 50.1 19.7088 53 19.1116 55.2C18.5144 57.4 19.2609 58.3 21.0526 58C22.8443 57.6 23.4416 57.9 22.8443 58.6C22.0978 59.4 20.9033 60.3 19.2609 61.5C17.7678 62.6 15.9761 63.7 13.8858 64.7ZM62.8593 27.1C65.5468 25.6 68.0851 24.6 70.4741 23.9C71.9672 23.5 73.7589 23.5 75.8492 23.8C77.9395 24.1 79.8806 24.6 81.8216 25.3C83.6133 26 85.2557 26.8 86.4502 27.7C87.6446 28.6 88.2419 29.5 88.2419 30.4C88.0926 31.5 87.346 33.1 85.7036 35.2C84.2105 37.3 82.1202 39.5 79.7312 41.7C77.3423 43.9 74.804 46 72.1165 47.8C69.4289 49.6 66.7413 50.8 64.3524 51.2C62.8593 51.5 61.2169 51.3 59.4252 50.6C57.7828 49.9 56.1404 49.2 54.7966 48.4C52.4076 51.8 50.9145 54.7 50.3173 57C49.72 59.4 50.7652 60.6 53.3035 60.8C54.05 60.8 55.0952 60.6 56.439 60.2C57.7828 59.8 59.2758 59.3 60.9183 58.6C62.5607 57.9 64.3524 57.1 66.2934 56.2C68.2344 55.3 70.1754 54.3 72.1165 53.3C73.3109 52.6 74.2068 52.3 74.5054 52.6C74.804 52.8 74.5054 53.3 73.6096 54.2C72.1165 55.5 70.3247 56.8 68.3837 58.1C66.4427 59.3 64.5017 60.5 62.5607 61.4C60.6196 62.4 58.6786 63.2 56.8869 63.8C55.0952 64.4 53.4528 64.8 52.2583 64.9C51.3624 65 50.168 64.9 48.8242 64.7C47.3311 64.5 45.9873 64.2 44.6435 63.7C43.2997 63.2 42.1053 62.7 41.0601 62.1C40.0149 61.5 39.2684 60.8 38.9698 60C38.2232 58 38.2232 55.8 38.9698 53.5C39.7163 51.1 40.7615 48.7 42.2546 46.3C43.7477 43.9 45.6887 41.4 47.9283 39C50.168 36.6 52.7062 34.4 55.2445 32.4C57.6334 30.3 60.1717 28.6 62.8593 27.1ZM60.1717 41C61.9634 39.5 63.7551 38 65.6962 36.5C67.6372 35 69.7275 33.6 71.6685 32.4C73.7589 31.1 75.5506 30.1 77.193 29.3C78.3875 28.8 79.134 28.6 79.2833 28.7C79.4326 28.8 79.134 29.3 78.5368 30C77.193 31.6 75.4013 33.3 73.3109 35.1C71.2206 36.9 68.981 38.5 66.7413 40C64.5017 41.5 62.4113 42.7 60.4703 43.7C58.5293 44.7 56.8869 45.2 55.6924 45.3C57.0362 44 58.5293 42.5 60.1717 41ZM123.18 26.8C124.673 25.7 125.868 25.1 126.614 25.1C127.361 25.1 128.257 25.3 129.302 25.6C130.347 25.9 131.542 26.3 132.587 26.7C133.632 27.1 134.379 27.6 134.976 28.1C135.573 28.6 135.573 29.1 134.976 29.5C134.229 30.1 133.184 31.1 131.542 32.6C129.899 34.1 128.108 35.8 126.166 37.8C124.225 39.8 122.135 41.8 120.045 44C117.954 46.2 116.013 48.3 114.371 50.1C112.729 52 111.385 53.6 110.638 55C109.742 56.4 109.593 57.2 109.892 57.5C110.041 57.6 110.34 57.5 111.086 57.3C111.833 57.1 112.43 56.9 113.177 56.8C113.923 56.7 114.371 56.6 114.67 56.7C114.968 56.8 114.819 57.1 114.222 57.8C113.326 58.6 112.43 59.4 111.236 60.3C110.19 61.2 108.996 62 107.951 62.7C106.756 63.4 105.711 64 104.666 64.5C103.621 65 102.725 65.2 101.829 65.2C100.933 65.2 100.037 65 99.1415 64.7C98.2456 64.3 97.3498 63.9 96.4539 63.4C95.558 62.9 94.9608 62.3 94.5129 61.7C94.0649 61.1 93.7663 60.5 93.7663 60C93.7663 59.3 94.065 58.4 94.6622 57.2C95.2594 56.1 96.006 54.8 97.2004 53.4C95.2594 55 93.3184 56.5 91.3774 57.9C89.4364 59.3 87.794 60.6 86.3009 61.6C84.8078 62.7 83.464 63.5 82.4188 64.2C81.3736 64.8 80.4778 65.2 80.1792 65.2C79.2833 65.2 78.3875 65 77.4916 64.7C76.5957 64.3 75.6999 63.9 74.804 63.4C73.9082 62.9 73.3109 62.3 72.863 61.7C72.4151 61.1 72.1165 60.5 72.1165 60C72.1165 59 72.7137 57.5 73.9082 55.4C75.1027 53.3 76.7451 51 78.6861 48.4C80.7764 45.8 83.1654 43.1 85.8529 40.3C88.5405 37.5 91.5267 34.9 94.5129 32.5C97.6484 30.1 100.784 28 104.069 26.3C107.353 24.6 110.489 23.5 113.624 23C114.371 22.9 115.267 22.9 116.163 23.2C117.059 23.5 117.954 23.8 118.701 24.2C119.597 24.6 120.343 25.1 121.239 25.6C121.837 25.9 122.583 26.4 123.18 26.8ZM87.9433 54.4C88.9884 52.8 90.4815 51 92.4225 48.8C94.3636 46.6 96.6032 44.4 99.1415 42C101.68 39.6 104.218 37.4 106.906 35.4C109.593 33.4 112.131 31.7 114.52 30.4C116.909 29.1 119 28.5 120.791 28.6C118.552 30.4 115.864 32.8 112.878 35.5C109.892 38.3 107.055 41.2 104.367 44.3C102.277 45.9 100.336 47.5 98.2456 49.1C96.1553 50.7 94.3636 52.1 92.7212 53.3C91.0788 54.5 89.735 55.5 88.6898 56.2C87.6446 56.9 87.0474 57.2 86.8981 57.2C86.5995 56.8 86.8981 55.9 87.9433 54.4ZM169.018 42.7C171.407 40.2 173.647 37.9 176.036 35.6C173.498 37.4 170.81 39.5 167.973 41.9C165.136 44.2 162.299 46.6 159.462 49.1C156.626 51.6 154.087 54 151.698 56.4C149.309 58.8 147.219 61 145.427 63L144.233 64.5C143.785 65.1 143.038 65.2 142.143 65C141.247 64.8 140.351 64.3 139.306 63.6C138.41 62.9 137.514 62.2 136.767 61.4C136.021 60.6 135.722 59.9 135.722 59.4C135.722 58.5 136.32 57.2 137.365 55.4C138.41 53.7 139.903 51.7 141.695 49.5C143.486 47.3 145.577 45 147.816 42.6C150.056 40.2 152.445 37.9 154.685 35.6C151.997 37.5 149.309 39.7 146.323 42.1C143.337 44.5 140.5 47 137.663 49.6C134.826 52.2 132.139 54.7 129.75 57.2C127.212 59.7 125.271 61.9 123.628 63.9C123.479 64 123.18 64.3 123.031 64.5C122.583 65.1 121.986 65.2 121.09 65C120.194 64.8 119.149 64.3 118.253 63.6C117.208 62.9 116.461 62.2 115.715 61.4C114.968 60.6 114.67 59.9 114.67 59.4C114.67 58.3 115.416 56.7 116.909 54.6C118.402 52.4 120.343 50 122.583 47.4C124.823 44.7 127.361 42 130.049 39.2C132.736 36.4 135.424 33.9 137.962 31.6C140.5 29.3 142.889 27.4 144.83 26C146.771 24.6 148.264 23.8 149.011 23.8C149.757 23.8 150.653 24 151.848 24.3C153.042 24.6 154.087 25 155.133 25.5C156.178 26 157.074 26.4 157.671 26.9C158.268 27.4 158.268 27.8 157.671 28.2C156.626 29 154.983 30.2 152.893 31.9C150.803 33.6 148.264 35.6 145.577 38C142.889 40.4 139.903 43.1 136.767 46.1C133.632 49.1 130.646 52.3 127.66 55.8C131.094 52.3 135.125 48.6 139.455 44.8C143.785 41 148.115 37.6 152.146 34.4C156.327 31.3 160.06 28.7 163.345 26.8C166.629 24.8 168.869 23.8 170.063 23.8C170.81 23.8 171.706 24 172.9 24.3C174.095 24.6 175.14 25 176.185 25.5C177.23 26 178.126 26.4 178.723 26.9C179.321 27.4 179.321 27.8 178.723 28.2C177.678 29 176.036 30.2 173.946 31.9C171.855 33.6 169.317 35.6 166.629 38C163.942 40.4 160.956 43.1 157.82 46.1C154.685 49.1 151.698 52.3 148.712 55.8C152.146 52.3 156.178 48.6 160.508 44.8C164.838 41 169.168 37.6 173.199 34.4C177.38 31.3 181.112 28.7 184.397 26.8C187.682 24.8 189.922 23.8 191.116 23.8H191.265C192.012 23.8 192.908 24 193.953 24.3C194.998 24.6 196.043 25 197.088 25.5C197.984 26 198.88 26.4 199.328 26.9C199.925 27.4 199.925 27.8 199.328 28.2C198.582 28.7 197.387 29.7 195.745 31.3C194.102 32.9 192.161 34.7 190.071 36.8C187.981 38.9 185.741 41.1 183.501 43.4C181.262 45.7 179.171 47.9 177.38 49.9C175.588 51.9 174.244 53.6 173.199 55.1C172.154 56.5 171.855 57.4 172.303 57.6C172.452 57.7 172.751 57.6 173.498 57.4C174.244 57.2 174.841 57 175.588 56.9C176.334 56.8 176.782 56.7 177.081 56.8C177.38 56.9 177.23 57.2 176.633 57.9C175.737 58.7 174.841 59.5 173.647 60.4C172.602 61.3 171.407 62.1 170.362 62.8C169.168 63.5 168.122 64.1 167.077 64.6C166.032 65.1 165.136 65.3 164.24 65.3C163.345 65.3 162.449 65.1 161.553 64.8C160.657 64.4 159.761 64 158.865 63.5C157.969 63 157.372 62.5 156.924 61.9C156.476 61.3 156.178 60.7 156.178 60.3C156.178 59.4 156.775 58 157.969 56.2C159.164 54.4 160.657 52.4 162.449 50.1C164.688 47.5 166.779 45.1 169.018 42.7ZM215.454 14.3H220.53C223.068 12.1 225.308 10.3 227.1 8.9C229.041 7.6 230.384 6.9 231.131 6.9C231.878 6.9 232.773 7.1 233.819 7.4C234.864 7.7 236.058 8.1 236.954 8.5C237.999 8.9 238.746 9.4 239.343 9.9C239.94 10.4 239.94 10.9 239.343 11.3L235.909 14.2H240.836C242.329 14.2 242.926 14.5 242.479 15.2C242.031 15.8 241.433 16.6 240.687 17.4C239.791 18.2 238.895 18.9 237.85 19.6C236.805 20.3 235.61 20.6 234.117 20.6H228.891C224.412 24.9 220.231 29.1 216.051 33.3C212.019 37.5 208.436 41.4 205.599 44.8C202.613 48.3 200.373 51.1 198.731 53.4C197.088 55.7 196.491 57 196.939 57.2C197.088 57.3 197.387 57.2 198.134 57C198.88 56.8 199.477 56.6 200.224 56.5C200.971 56.4 201.418 56.3 201.717 56.4C202.016 56.5 201.866 56.8 201.269 57.5C200.373 58.3 199.477 59.1 198.432 60C197.387 60.9 196.193 61.7 195.147 62.4C193.953 63.1 192.908 63.7 191.863 64.2C190.817 64.7 189.922 64.9 189.175 64.9C188.279 64.9 187.383 64.7 186.487 64.4C185.592 64 184.696 63.6 183.8 63.1C182.904 62.6 182.307 62 181.859 61.4C181.411 60.8 181.112 60.2 181.112 59.7C181.112 58.7 182.158 56.7 184.099 53.9C186.189 51 188.727 47.7 192.012 43.9C195.147 40.1 198.731 36.2 202.613 32.1C206.495 28 210.228 24.1 213.96 20.5H209.033C207.689 20.5 207.242 20.1 207.54 19.4C207.839 18.6 208.436 17.8 209.183 17C209.929 16.2 210.825 15.5 211.721 15C212.617 14.5 213.96 14.3 215.454 14.3ZM252.632 26.8C254.125 25.7 255.319 25.1 256.066 25.1C256.812 25.1 257.708 25.3 258.753 25.6C259.798 25.9 260.993 26.3 262.038 26.7C263.083 27.1 263.83 27.6 264.427 28.1C265.024 28.6 265.024 29.1 264.427 29.5C263.68 30.1 262.635 31.1 260.993 32.6C259.351 34.1 257.559 35.8 255.618 37.8C253.677 39.8 251.586 41.8 249.496 44C247.406 46.2 245.465 48.3 243.822 50.1C242.18 52 240.836 53.6 240.09 55C239.194 56.4 238.895 57.2 239.343 57.5C239.492 57.6 239.791 57.5 240.538 57.3C241.284 57.1 241.881 56.9 242.628 56.8C243.374 56.7 243.822 56.6 244.121 56.7C244.42 56.8 244.27 57.1 243.673 57.8C242.777 58.6 241.881 59.4 240.687 60.3C239.642 61.2 238.447 62 237.402 62.7C236.208 63.4 235.162 64 234.117 64.5C233.072 65 232.176 65.2 231.28 65.2C230.384 65.2 229.489 65 228.593 64.7C227.697 64.3 226.801 63.9 225.905 63.4C225.009 62.9 224.412 62.3 223.964 61.7C223.516 61.1 223.218 60.5 223.218 60C223.218 59.3 223.516 58.4 224.113 57.2C224.711 56.1 225.457 54.8 226.652 53.4C224.711 55 222.77 56.5 220.829 57.9C218.888 59.3 217.245 60.6 215.752 61.6C214.259 62.7 212.915 63.5 211.87 64.2C210.825 64.8 209.929 65.2 209.63 65.2C208.735 65.2 207.839 65 206.943 64.7C206.047 64.3 205.151 63.9 204.255 63.4C203.359 62.9 202.762 62.3 202.314 61.7C201.866 61.1 201.568 60.5 201.568 60C201.568 59 202.165 57.5 203.359 55.4C204.554 53.3 206.196 51 208.137 48.4C210.228 45.8 212.617 43.1 215.304 40.3C217.992 37.5 220.978 34.9 223.964 32.5C227.1 30.1 230.235 28 233.52 26.3C236.805 24.6 239.94 23.5 243.076 23C243.822 22.9 244.718 22.9 245.614 23.2C246.51 23.4 247.406 23.8 248.152 24.2C249.048 24.6 249.795 25.1 250.691 25.6C251.288 25.9 252.034 26.4 252.632 26.8ZM218.738 54.4C217.693 56 217.395 56.9 217.842 57.2C217.992 57.3 218.589 57 219.634 56.2C220.679 55.5 222.023 54.5 223.666 53.3C225.308 52.1 227.1 50.7 229.19 49.1C231.28 47.5 233.221 46 235.312 44.3C237.999 41.3 240.836 38.3 243.822 35.5C246.809 32.7 249.347 30.4 251.736 28.6C249.944 28.5 247.854 29 245.465 30.4C243.076 31.7 240.388 33.4 237.85 35.4C235.162 37.4 232.624 39.6 230.086 42C227.548 44.4 225.308 46.7 223.367 48.8C221.277 51 219.784 52.8 218.738 54.4ZM275.177 25.9C277.268 24.4 278.611 23.7 279.507 23.7C280.254 23.7 281.15 23.9 282.344 24.2C283.539 24.5 284.584 24.9 285.629 25.3C286.674 25.7 287.421 26.2 287.869 26.7C288.466 27.2 288.466 27.7 287.869 28.1C287.271 28.6 286.077 29.6 284.434 31.2C282.643 32.8 280.702 34.6 278.611 36.7C276.372 38.8 274.132 41 271.893 43.3C269.504 45.6 267.563 47.8 265.771 49.8C263.979 51.8 262.635 53.5 261.59 55C260.545 56.4 260.246 57.3 260.694 57.6C260.844 57.7 261.142 57.6 261.889 57.4C262.635 57.2 263.233 57 263.979 56.9C264.726 56.8 265.174 56.7 265.472 56.8C265.771 56.9 265.622 57.2 265.024 57.9C264.128 58.7 263.083 59.5 262.038 60.4C260.993 61.3 259.798 62.1 258.604 62.8C257.409 63.5 256.215 64.1 255.17 64.6C254.125 65.1 253.08 65.3 252.333 65.3C251.437 65.3 250.541 65.1 249.645 64.8C248.75 64.4 247.854 64 246.958 63.5C246.062 63 245.465 62.5 245.017 61.9C244.569 61.3 244.27 60.7 244.27 60.2C244.27 59.1 245.017 57.5 246.51 55.3C248.003 53.1 249.944 50.7 252.333 48C254.722 45.3 257.26 42.5 260.097 39.7C262.934 36.9 265.622 34.3 268.16 31.9C270.847 29.3 273.087 27.4 275.177 25.9ZM293.094 20.4C291.601 21.1 290.556 21.5 289.81 21.6C289.063 21.7 288.167 21.7 286.973 21.4C285.778 21.2 284.584 20.8 283.539 20.4C282.493 20 281.747 19.5 281.15 18.8C280.702 18.2 280.851 17.6 281.598 16.9C282.493 16.2 283.389 15.4 284.434 14.5C285.48 13.6 286.525 12.8 287.719 12C288.764 11.2 289.81 10.5 290.855 9.9C291.751 9.3 292.647 9 293.393 8.9C294.289 8.8 295.334 8.9 296.529 9C297.574 9.1 298.619 9.4 299.664 9.7C300.56 10 301.456 10.4 302.053 10.9C302.65 11.4 302.949 12 302.949 12.7C302.949 13.3 302.352 14 301.306 15C300.261 16 298.918 16.9 297.424 17.9C296.081 18.9 294.588 19.7 293.094 20.4ZM327.137 0C327.734 0 328.63 0.1 329.675 0.3C331.019 0.6 332.363 0.9 333.557 1.5C334.752 2 335.648 2.6 336.394 3.3C336.991 3.9 336.991 4.6 336.245 5.2C332.064 8.6 327.734 12.2 323.404 16C319.074 19.8 314.894 23.6 311.012 27.4C306.98 31.2 303.397 34.9 299.963 38.4C296.529 41.9 293.692 45.1 291.303 47.8C288.914 50.6 287.122 52.8 285.778 54.5C284.584 56.2 283.987 57.2 284.285 57.4C284.434 57.5 284.882 57.4 285.629 57.2C286.376 57 287.122 56.8 287.869 56.7C288.615 56.6 289.063 56.5 289.362 56.6C289.66 56.7 289.511 57 288.764 57.7C288.018 58.5 286.973 59.3 285.778 60.2C284.584 61.1 283.539 61.9 282.344 62.6C281.15 63.3 280.105 63.9 278.91 64.4C277.865 64.9 276.82 65.1 276.073 65.1C275.177 65.1 274.281 64.9 273.236 64.6C272.191 64.2 271.295 63.8 270.549 63.3C269.802 62.8 269.056 62.2 268.608 61.6C268.16 61 267.861 60.4 267.861 59.9C267.861 58.9 268.608 57.3 270.101 55C271.594 52.7 273.535 50.1 276.073 47.2C278.462 44.3 281.299 41.1 284.584 37.7C287.719 34.3 291.153 30.9 294.588 27.4C298.022 24 301.456 20.6 305.039 17.4C308.473 14.2 311.758 11.3 314.744 8.8C317.731 6.3 320.269 4.2 322.359 2.7C324.449 1.1 326.092 0.3 326.988 0.1C326.838 0 326.988 0 327.137 0ZM344.457 28.9C345.95 30 346.846 31.1 347.144 32.1C347.443 33.4 346.995 35 345.95 37.1C344.905 39.2 343.412 41.4 341.471 43.7C339.53 46.1 337.29 48.5 334.752 50.9C332.214 53.4 329.526 55.6 326.689 57.6C324.001 59.6 321.314 61.3 318.626 62.6C315.939 63.9 313.55 64.7 311.46 64.9C310.564 65 309.22 64.8 307.279 64.4C305.487 64 303.546 63.5 301.754 62.8C299.963 62.1 298.171 61.4 296.678 60.6C295.185 59.8 294.289 59 294.14 58.3C293.692 56.8 293.99 55 294.886 52.8C295.782 50.6 297.126 48.3 298.918 45.8C300.709 43.3 302.8 40.8 305.188 38.3C307.577 35.8 310.116 33.5 312.803 31.4C315.491 29.3 318.029 27.6 320.717 26.2C323.404 24.8 325.793 23.9 328.033 23.6C329.675 23.4 331.467 23.5 333.557 24C335.648 24.5 337.589 25.1 339.53 25.9C341.321 26.8 342.964 27.8 344.457 28.9ZM334.453 31.8C333.408 33.6 331.915 35.8 329.825 38.3C327.734 40.8 325.495 43.5 322.807 46.3C320.119 49.1 317.581 51.7 315.192 54C312.654 56.3 310.564 58.1 308.623 59.5C306.682 60.9 305.487 61.4 304.89 61C304.293 60.6 304.442 59.5 305.487 57.7C306.532 55.9 308.175 53.7 310.116 51.2C312.057 48.7 314.446 46 316.984 43.3C319.522 40.5 322.06 38 324.449 35.8C326.838 33.5 329.078 31.7 331.019 30.4C332.96 29.1 334.304 28.5 335.05 28.8C335.648 28.9 335.498 30 334.453 31.8ZM400 28.1C399.851 28.4 399.552 28.9 398.806 29.5C397.91 30.3 396.715 31.3 395.222 32.4C393.729 33.5 392.236 34.6 390.444 35.8C388.802 37 387.159 38.1 385.816 39.2C384.472 40.3 383.277 41.1 382.381 41.9C381.486 42.6 381.187 43 381.336 43.2C381.486 43.3 381.784 43.2 382.531 43C383.277 42.8 383.875 42.7 384.621 42.5C385.368 42.4 385.816 42.3 386.114 42.4C386.413 42.5 386.264 42.8 385.517 43.5C384.77 44.3 383.725 45.1 382.531 45.9C381.336 46.7 380.142 47.5 379.097 48.2C377.902 48.9 376.857 49.5 375.663 49.9C374.617 50.4 373.572 50.6 372.826 50.6C371.93 50.6 371.034 50.4 369.989 50.1C369.093 49.7 368.197 49.3 367.301 48.8C366.405 48.3 365.808 47.8 365.211 47.2C364.763 46.6 364.464 46.1 364.464 45.6C364.464 45.1 365.062 44.3 366.107 43.2C367.152 42.1 368.346 40.9 369.69 39.6C371.034 38.3 372.378 37.1 373.871 35.8C375.215 34.5 376.409 33.5 377.006 32.6C374.169 34.4 371.034 36.7 367.6 39.3C364.166 41.9 360.732 44.7 357.298 47.5C353.863 50.4 350.579 53.2 347.592 56C344.457 58.8 342.068 61.3 340.127 63.5L339.53 64.3C339.082 64.9 338.335 65 337.29 64.8C336.394 64.6 335.349 64.1 334.453 63.4C333.557 62.7 332.661 62 331.915 61.2C331.168 60.4 330.72 59.7 330.72 59.2C330.72 58.1 331.467 56.5 332.96 54.4C334.453 52.2 336.394 49.8 338.783 47.2C341.172 44.5 343.71 41.8 346.697 39C349.533 36.2 352.37 33.7 354.909 31.4C357.596 29.1 359.836 27.2 362.075 25.8C364.166 24.4 365.659 23.6 366.405 23.6C367.152 23.6 368.048 23.8 369.242 24.1C370.437 24.4 371.631 24.8 372.676 25.3C373.722 25.8 374.617 26.2 375.215 26.7C375.812 27.2 375.812 27.6 375.215 28C374.169 28.8 372.527 29.9 370.287 31.5C368.197 33.1 365.659 35 362.971 37.3C360.284 39.6 357.447 42.2 354.311 45C351.325 47.9 348.339 51 345.203 54.3C348.488 51.1 352.221 47.9 356.252 44.6C360.284 41.3 364.166 38.3 368.048 35.4C371.93 32.6 375.513 30.1 378.798 28.1C382.083 26.1 384.621 24.7 386.413 24C387.01 23.8 387.906 23.7 389.25 23.6C390.594 23.6 391.937 23.7 393.281 24C394.625 24.3 395.969 24.7 397.163 25.4C398.358 26 399.104 26.8 399.552 27.8V28.1H400Z" fill="#F43F85"/>
</g>
<defs>
<clipPath id="clip0_164_198">
<rect width="400" height="66" fill="white"/>
</clipPath>
</defs>
</svg>
