<svg width="400" height="400" viewBox="0 0 400 400" fill="none" xmlns="http://www.w3.org/2000/svg">
<g clip-path="url(#clip0_310_3)">
<path d="M341.06 0H59.2992C26.5948 0 0 26.5948 0 59.2992V341.06C0 373.765 26.5948 400.359 59.2992 400.359H341.06C373.765 400.359 400.359 373.765 400.359 341.06V59.2992C400 26.5948 373.765 0 341.06 0ZM200.18 360.827C111.411 360.827 39.1734 288.949 39.1734 199.82C39.1734 110.692 111.051 38.814 200.18 38.814C289.308 38.814 361.186 110.692 361.186 199.82C361.186 288.949 288.949 360.827 200.18 360.827Z" fill="#050A52"/>
<path d="M336.388 200.178L232.525 143.395L244.025 178.974H156.334L167.475 143.395L63.9712 200.178L167.475 256.961L156.334 221.023H244.025L232.525 256.961L336.388 200.178Z" fill="#050A52"/>
</g>
<defs>
<clipPath id="clip0_310_3">
<rect width="400" height="400" fill="white"/>
</clipPath>
</defs>
</svg>
