<svg width="400" height="400" viewBox="0 0 400 400" fill="none" xmlns="http://www.w3.org/2000/svg">
<path d="M200 365C291.127 365 365 291.127 365 200C365 108.873 291.127 35 200 35C108.873 35 35 108.873 35 200C35 291.127 108.873 365 200 365Z" fill="url(#paint0_linear_1_377)"/>
<path fill-rule="evenodd" clip-rule="evenodd" d="M109.688 198.259C157.79 177.302 189.863 163.486 205.912 156.811C251.735 137.751 261.257 134.441 267.462 134.331C268.827 134.307 271.879 134.645 273.856 136.25C275.525 137.604 275.985 139.434 276.205 140.718C276.425 142.002 276.697 144.928 276.481 147.213C273.997 173.304 263.252 236.618 257.786 265.84C255.474 278.204 250.919 282.35 246.51 282.756C236.928 283.638 229.653 276.424 220.372 270.341C205.85 260.821 197.646 254.895 183.549 245.606C167.258 234.871 177.82 228.971 187.104 219.328C189.533 216.804 231.75 178.404 232.568 174.92C232.67 174.484 232.765 172.861 231.8 172.003C230.835 171.146 229.412 171.439 228.384 171.672C226.928 172.003 203.728 187.337 158.786 217.674C152.201 222.196 146.236 224.399 140.892 224.284C135.001 224.156 123.669 220.952 115.244 218.214C104.911 214.854 96.6982 213.079 97.4133 207.374C97.7858 204.403 101.877 201.364 109.688 198.259Z" fill="white"/>
<defs>
<linearGradient id="paint0_linear_1_377" x1="200" y1="35" x2="200" y2="362.553" gradientUnits="userSpaceOnUse">
<stop stop-color="#2AABEE"/>
<stop offset="1" stop-color="#229ED9"/>
</linearGradient>
</defs>
</svg>
