<svg width="400" height="365" viewBox="0 0 400 365" fill="none" xmlns="http://www.w3.org/2000/svg">
<g clip-path="url(#clip0_260_95)">
<path d="M398.082 202.758L344.749 52.5908C340.915 41.6756 331.154 33.5718 319.302 31.4218L153.028 0.66063C141.35 -1.48935 129.324 2.31446 121.481 10.749L8.53976 130.652C0.522332 139.251 -2.09205 151.324 1.74237 162.074L55.0757 312.242C58.9101 323.157 68.6705 331.261 80.5223 333.411L246.971 364.172C249.063 364.503 251.154 364.834 253.42 364.834C262.832 364.834 272.243 361.03 278.518 354.249L391.459 234.181C399.477 225.747 402.091 213.674 398.082 202.758ZM333.769 56.0639L368.801 154.797L294.204 43.164C292.636 40.6833 290.544 38.6987 288.453 36.8795L317.036 42.1717C324.88 43.6602 331.154 48.9524 333.769 56.0639ZM278.867 316.707L213.856 319.85L318.954 262.131C319.128 261.966 319.302 261.966 319.477 261.8L294.204 307.446C291.067 312.738 285.315 316.377 278.867 316.707ZM115.555 315.715L78.7794 260.808C79.4766 261.304 80.1738 261.8 80.8709 262.131L186.84 320.346C187.363 320.676 187.886 320.842 188.409 321.173L131.938 323.819C125.315 323.984 119.041 321.007 115.555 315.715ZM121.132 48.2909L186.143 45.1486L81.0452 102.867C80.8709 103.033 80.6966 103.033 80.5223 103.198L105.795 57.5523C108.758 52.0947 114.684 48.6217 121.132 48.2909ZM284.444 49.2832L321.045 104.19C320.348 103.694 319.651 103.198 318.954 102.867L212.984 44.6525C212.461 44.3217 211.938 44.1563 211.416 43.8256L267.886 41.1794C274.509 40.8487 280.784 43.9909 284.444 49.2832ZM320.174 240.631C320.174 245.427 317.385 249.893 313.028 252.373L207.058 310.588C202.701 313.069 197.124 313.069 192.766 310.588L86.7968 252.373C82.4395 249.893 79.6509 245.427 79.6509 240.631V124.202C79.6509 119.406 82.4395 114.775 86.7968 112.459L192.766 54.2447C195.032 53.087 197.472 52.4255 199.912 52.4255C202.352 52.4255 204.967 53.087 207.058 54.2447L313.028 112.459C317.385 114.94 320.174 119.406 320.174 124.202V240.631ZM68.4962 245.262L37.6465 199.12C34.1607 193.828 33.8121 187.212 36.9493 181.755L67.9733 125.69V240.631C67.9733 242.285 68.1476 243.773 68.4962 245.262ZM331.503 119.736L362.178 165.713C365.664 171.005 366.013 177.62 362.875 183.078L331.851 239.143V124.202C331.851 122.713 331.677 121.225 331.503 119.736ZM130.196 18.0258C134.379 13.5605 140.479 11.0797 146.579 11.0797C147.973 11.0797 149.368 11.2451 150.762 11.4105L254.64 30.5949L120.609 37.0449C116.949 37.2102 113.289 38.0372 109.978 39.5256L130.196 18.0258ZM17.2544 138.094L91.8513 58.71L26.4918 176.463C24.5746 179.936 23.3546 183.905 23.1803 187.709L12.8971 158.601C10.2827 151.49 12.0256 143.717 17.2544 138.094ZM66.2304 308.934L31.0234 210.035L105.62 321.669C107.189 323.984 109.281 326.134 111.372 327.953L82.7881 322.661C75.1193 321.173 68.6705 315.88 66.2304 308.934ZM269.803 346.972C264.749 352.43 256.732 354.911 249.237 353.588L145.359 334.403L279.389 327.953C283.05 327.788 286.71 326.961 290.021 325.473L269.803 346.972ZM382.57 226.904L307.973 306.288L373.333 188.536C375.25 185.063 376.47 181.093 376.644 177.29L386.928 206.397C389.542 213.343 387.799 221.281 382.57 226.904Z" fill="#041E42"/>
</g>
<defs>
<clipPath id="clip0_260_95">
<rect width="400" height="365" fill="white"/>
</clipPath>
</defs>
</svg>
