<svg width="400" height="400" viewBox="0 0 400 400" fill="none" xmlns="http://www.w3.org/2000/svg">
<path d="M271.273 267.878C271.284 267.897 271.297 267.909 271.306 267.929L271.357 267.98C271.327 267.95 271.3 267.914 271.273 267.878ZM234.891 223.48L234.888 223.483L206.99 248.486L207.001 248.506H206.99V287.758C206.99 307.218 222.753 322.99 242.2 322.99C261.528 322.99 277.22 307.409 277.406 288.114C280.723 289.149 284.254 289.706 287.91 289.706C307.355 289.706 323.122 273.935 323.122 254.472C323.122 247.534 321.117 241.067 317.659 235.619C335.764 234.158 350 218.994 350 200.494C350 182.016 335.784 166.859 317.7 165.379C321.131 159.94 323.122 153.496 323.122 146.584C323.122 127.126 307.355 111.35 287.91 111.35C284.253 111.35 280.728 111.909 277.406 112.943C277.254 93.6193 261.547 78 242.2 78C222.753 78 206.99 93.7752 206.99 113.237V152.456L207.025 152.489L234.886 177.46L234.891 177.463V223.48ZM263.557 113.242C263.557 117.349 262.397 121.187 260.387 124.441L254.292 130.856L246.901 138.635H220.839V113.242C220.839 101.438 230.399 91.8712 242.197 91.8712C253.993 91.8669 263.557 101.438 263.557 113.242ZM248.743 221.869V179.125H314.788C326.583 179.125 336.145 188.697 336.145 200.496C336.145 212.301 326.583 221.868 314.788 221.868L248.743 221.869ZM220.84 262.364H246.903L254.299 270.144L260.387 276.551C262.399 279.803 263.558 283.646 263.558 287.758C263.558 299.562 253.995 309.13 242.2 309.13C230.402 309.13 220.84 299.562 220.84 287.758V262.364ZM241.981 235.735H298.185C304.791 239.366 309.268 246.397 309.268 254.475C309.268 266.279 299.703 275.846 287.91 275.846C282.407 275.846 277.394 273.769 273.607 270.345L273.599 270.336C272.795 269.612 272.046 268.825 271.363 267.981L271.359 267.979L271.309 267.926L263.456 259.666L253.204 248.876L253.151 248.823L252.848 248.501H227.733L241.981 235.735ZM227.786 152.496H252.844L253.141 152.185L253.2 152.12L263.451 141.334L271.313 133.063L271.869 132.478L271.873 132.474C272.231 132.066 272.607 131.672 272.993 131.296C276.842 127.536 282.106 125.215 287.91 125.215C299.703 125.215 309.268 134.785 309.268 146.589C309.268 154.62 304.841 161.614 298.301 165.264H242.035L227.786 152.496ZM206.99 152.461V152.494H207.025L206.99 152.461ZM206.99 152.461V152.494H207.025L206.99 152.461ZM271.873 132.474L272.991 131.295C272.605 131.671 272.231 132.066 271.873 132.474ZM271.36 267.983C272.045 268.827 272.794 269.614 273.596 270.337L271.36 267.983ZM234.888 177.466H234.891V179.127H234.888V177.466ZM234.888 221.869V223.483L234.891 223.48V221.869H234.888ZM128.646 267.983L128.697 267.93C128.707 267.909 128.717 267.899 128.727 267.88C128.7 267.914 128.673 267.95 128.646 267.983ZM165.112 177.469L165.114 177.466L192.978 152.496L193.012 152.461V113.241C193.012 93.7823 177.251 78.0072 157.802 78.0072C138.452 78.0072 122.749 93.625 122.594 112.951C119.275 111.915 115.749 111.357 112.092 111.357C92.6449 111.357 76.8818 127.132 76.8818 146.591C76.8818 153.501 78.8688 159.947 82.3025 165.386C64.2193 166.866 50 182.023 50 200.501C50 219.001 64.2379 234.162 82.3425 235.623C78.8846 241.077 76.8818 247.54 76.8818 254.479C76.8818 273.939 92.6464 289.713 112.092 289.713C115.749 289.713 119.275 289.152 122.594 288.121C122.783 307.417 138.476 323 157.802 323C177.249 323 193.012 307.229 193.012 287.765V248.513H192.998L193.012 248.493L165.112 223.49L165.111 223.487L165.112 177.469ZM157.803 91.8669C169.599 91.8669 179.161 101.434 179.161 113.238V138.632H153.097L145.705 130.853L139.611 124.44C137.603 121.184 136.445 117.346 136.445 113.238C136.442 101.438 146.007 91.8669 157.803 91.8669ZM85.2144 221.869C73.4196 221.869 63.8562 212.302 63.8562 200.498C63.8562 188.698 73.4196 179.128 85.2144 179.128H151.26V221.872L85.2144 221.869ZM179.161 287.759C179.161 299.563 169.599 309.132 157.802 309.132C146.008 309.132 136.445 299.563 136.445 287.759C136.445 283.648 137.603 279.809 139.614 276.553L145.702 270.146L153.099 262.364H179.163L179.161 287.759ZM172.273 248.504H147.158L146.855 248.823L146.802 248.876L136.549 259.666L128.698 267.929L128.647 267.977L128.643 267.98C127.958 268.828 127.21 269.612 126.407 270.335L126.397 270.343C122.61 273.766 117.595 275.845 112.095 275.845C100.3 275.845 90.7351 266.278 90.7351 254.475C90.7351 246.399 95.2123 239.365 101.818 235.736H158.022L172.273 248.504ZM157.967 165.263H101.702C95.1594 161.614 90.7337 154.62 90.7337 146.588C90.7337 134.787 100.299 125.217 112.092 125.217C117.896 125.217 123.161 127.536 127.009 131.296C127.396 131.674 127.771 132.069 128.129 132.475L128.132 132.478L128.688 133.063L136.549 141.335L146.8 152.121L146.859 152.184L147.155 152.494H172.212L157.967 165.263ZM193.012 152.461L193.013 152.494H192.981L193.012 152.461ZM193.012 152.461L193.013 152.494H192.981L193.012 152.461ZM128.131 132.474L127.01 131.295C127.396 131.671 127.771 132.066 128.131 132.474ZM128.64 267.983C127.958 268.827 127.207 269.614 126.406 270.337L128.64 267.983ZM165.114 221.869V223.483L165.112 223.48L165.114 221.869Z" fill="url(#paint0_linear_594_17)"/>
<defs>
<linearGradient id="paint0_linear_594_17" x1="104.197" y1="104.663" x2="295.934" y2="296.27" gradientUnits="userSpaceOnUse">
<stop stop-color="#FF805F"/>
<stop offset="0.5" stop-color="#B74BDD"/>
<stop offset="1" stop-color="#0379FF"/>
</linearGradient>
</defs>
</svg>
