<svg width="400" height="400" viewBox="0 0 400 400" fill="none" xmlns="http://www.w3.org/2000/svg">
<path d="M314.528 314.528C292.64 336.4 249.856 349.424 200.032 349.424C150.208 349.424 107.376 336.4 85.5521 314.528C63.7281 292.656 50.5761 249.856 50.5761 200C50.5761 150.144 63.6801 107.408 85.5521 85.5201C107.424 63.6321 150.224 50.5441 200.032 50.5441C249.84 50.5441 292.64 63.6321 314.528 85.5201C336.416 107.408 349.424 150.192 349.424 200C349.424 249.808 336.336 292.64 314.528 314.528ZM400 200C400 160.444 388.27 121.776 366.294 88.886C344.318 55.9962 313.082 30.3617 276.537 15.2242C239.991 0.0866592 199.778 -3.87401 160.982 3.84303C122.186 11.5601 86.5492 30.6082 58.5787 58.5787C30.6082 86.5492 11.5601 122.186 3.84303 160.982C-3.87401 199.778 0.0866592 239.991 15.2242 276.537C30.3617 313.082 55.9962 344.318 88.886 366.294C121.776 388.27 160.444 400 200 400C253.043 400 303.914 378.929 341.421 341.421C378.929 303.914 400 253.043 400 200Z" fill="#FF5A00"/>
<path d="M238.591 172.029V226.733C238.595 228.225 238.306 229.703 237.739 231.082C237.172 232.462 236.338 233.717 235.286 234.775C234.235 235.833 232.985 236.673 231.608 237.248C230.231 237.823 228.755 238.121 227.263 238.125H172.495C171.003 238.123 169.525 237.826 168.148 237.252C166.77 236.678 165.519 235.838 164.467 234.78C163.415 233.721 162.582 232.466 162.015 231.085C161.449 229.704 161.161 228.225 161.167 226.733V172.029C161.161 170.536 161.449 169.057 162.015 167.677C162.582 166.296 163.415 165.04 164.467 163.982C165.519 162.924 166.77 162.083 168.148 161.509C169.525 160.935 171.003 160.639 172.495 160.637H227.199C228.696 160.633 230.18 160.924 231.564 161.495C232.948 162.066 234.205 162.905 235.264 163.964C236.323 165.023 237.162 166.28 237.733 167.664C238.304 169.048 238.595 170.532 238.591 172.029Z" fill="#FF5A00"/>
<path d="M293.631 105.6C278.128 90.096 241.328 80 199.856 80C158.384 80 121.584 90.032 106.08 105.6C90.5756 121.168 80.5596 157.952 80.5596 199.44C80.5596 240.928 90.5116 277.84 106.08 293.28C121.648 308.72 158.384 318.88 199.856 318.88C241.328 318.88 278.128 308.848 293.631 293.28C309.135 277.712 319.231 240.912 319.231 199.44C319.231 157.968 309.199 121.04 293.631 105.6ZM257.408 256.608C254.208 259.808 244.32 269.696 199.584 269.696C154.848 269.696 144.944 259.872 141.76 256.608C138.576 253.344 128.672 243.52 128.672 198.784C128.672 154.048 138.496 144.208 141.76 140.96C145.024 137.712 154.784 127.936 199.584 127.936C244.384 127.936 254.16 137.696 257.408 140.96C260.656 144.224 270.432 154.048 270.432 198.784C270.432 243.52 260.608 253.312 257.408 256.56V256.608Z" fill="#FF5A00"/>
</svg>
