<svg width="400" height="231" viewBox="0 0 400 231" fill="none" xmlns="http://www.w3.org/2000/svg">
<g clip-path="url(#clip0_238_8)">
<path d="M91.7647 47.0229V0C45.8824 14.1069 12.3529 52.313 2.94118 97.5725C1.17647 105.214 0 112.855 0 120.496V144.595C2.94118 192.794 42.9412 231 91.7647 231C142.353 231 183.529 189.855 183.529 138.718C184.118 88.1679 142.941 47.0229 91.7647 47.0229Z" fill="#080807"/>
<path d="M307.648 183.977L308.236 231C354.118 216.893 387.648 178.687 397.059 133.427C398.824 126.374 400 118.733 400 110.504V86.4046C396.471 38.2061 356.471 0 307.648 0C257.059 0 215.883 41.145 215.883 92.2824C215.883 142.832 257.059 183.977 307.648 183.977Z" fill="#080807"/>
</g>
<defs>
<clipPath id="clip0_238_8">
<rect width="400" height="231" fill="white"/>
</clipPath>
</defs>
</svg>
