<svg width="400" height="400" viewBox="0 0 400 400" fill="none" xmlns="http://www.w3.org/2000/svg">
<path fill-rule="evenodd" clip-rule="evenodd" d="M325.74 35H74.2599C63.852 35.0143 53.8743 39.1426 46.5148 46.4799C39.1552 53.8172 35.0144 63.7646 35 74.141V324.859C35.0144 335.235 39.1552 345.183 46.5148 352.521C53.8743 359.858 63.852 363.987 74.2599 364H325.74C336.148 363.987 346.125 359.858 353.485 352.521C360.845 345.183 364.985 335.235 365 324.859V74.141C364.985 63.7646 360.845 53.8172 353.485 46.4799C346.125 39.1426 336.148 35.0143 325.74 35ZM177.148 271.951C177.148 275.402 175.773 278.712 173.326 281.152C170.879 283.591 167.559 284.962 164.097 284.962H108.971C105.51 284.962 102.19 283.591 99.743 281.152C97.2955 278.712 95.9206 275.402 95.9206 271.951V108.747C95.9206 105.296 97.2955 101.987 99.743 99.5468C102.19 97.1069 105.51 95.736 108.971 95.736H164.097C167.559 95.736 170.879 97.1069 173.326 99.5468C175.773 101.987 177.148 105.296 177.148 108.747V271.951ZM304.079 197.017C304.116 198.748 303.805 200.469 303.164 202.079C302.525 203.688 301.569 205.155 300.354 206.391C299.138 207.629 297.688 208.612 296.087 209.282C294.485 209.953 292.766 210.297 291.029 210.297H235.903C232.441 210.297 229.121 208.926 226.674 206.487C224.227 204.047 222.852 200.738 222.852 197.286V108.747C222.852 105.296 224.227 101.987 226.674 99.5468C229.121 97.1069 232.441 95.736 235.903 95.736H291.029C294.491 95.736 297.81 97.1069 300.258 99.5468C302.704 101.987 304.079 105.296 304.079 108.747V197.017Z" fill="url(#paint0_linear_1_376)"/>
<defs>
<linearGradient id="paint0_linear_1_376" x1="200" y1="364" x2="200" y2="35" gradientUnits="userSpaceOnUse">
<stop stop-color="#0052CC"/>
<stop offset="1" stop-color="#2684FF"/>
</linearGradient>
</defs>
</svg>
