<svg width="331" height="400" viewBox="0 0 331 400" fill="none" xmlns="http://www.w3.org/2000/svg">
<path d="M331 147.018V261.926C331.078 298.415 314.146 333.442 283.916 359.326C253.686 385.209 212.625 399.837 169.738 400.001H151.037V367.799H169.738C202.635 367.674 234.133 356.465 257.339 336.626C280.544 316.787 293.566 289.934 293.555 261.945V147.036C293.51 146.295 293.51 145.553 293.555 144.812V76.4883H330.793V147.018" fill="#9B51E0"/>
<path d="M262.788 20.668H225.768V177.86H262.788V20.668Z" fill="#9B51E0"/>
<path d="M194.183 0H157.162V177.913H194.183V0Z" fill="#9B51E0"/>
<path d="M179.963 302.908V334.989H161.262C118.373 334.825 77.311 320.196 47.0806 294.311C16.8502 268.425 -0.0808885 233.396 0.000290579 196.905V180.883H37.5765V196.905C37.5184 224.901 50.5021 251.775 73.6844 271.643C96.8667 291.511 128.358 302.753 161.262 302.908H179.963Z" fill="#9B51E0"/>
<path d="M125.622 47.3828H88.6016V200.757H125.622V47.3828Z" fill="#9B51E0"/>
</svg>
