<svg width="350" height="400" viewBox="0 0 350 400" fill="none" xmlns="http://www.w3.org/2000/svg">
<path d="M343.23 35.589C338.854 25.0151 330.651 16.4051 320.198 11.4171C314.611 8.93299 308.537 7.68214 302.404 7.75261C301.973 7.75261 294.655 6.766 294.153 6.766C246.941 3.45382 216.519 5.35655 178.778 15.7864C164.213 13.6723 69.2875 0.141638 46.4709 0.000694028C44.0611 -0.0179424 41.6637 0.338859 39.3677 1.05779C31.8505 2.67169 24.8351 6.0274 18.9066 10.8451C12.978 15.6628 8.30817 21.8029 5.28633 28.7532C-5.26095 52.8547 0.69436 83.1577 16.7664 93.517C17.5954 94.0625 18.4579 94.5568 19.3493 94.997C19.9951 95.4903 20.5691 95.9836 21.2149 96.4769C19.9234 120.508 28.3183 142.213 43.9598 152.925C60.1036 163.989 81.1263 161.523 98.7769 146.371L209.344 217.618L132.715 382.523C131.337 385.504 131.22 388.901 132.391 391.966C133.561 395.032 135.923 397.516 138.957 398.872C140.598 399.621 142.386 400.006 144.195 400C146.595 399.991 148.943 399.31 150.964 398.037C152.984 396.763 154.594 394.951 155.603 392.812L232.591 227.062C234.987 227.447 237.41 227.66 239.838 227.696H239.91C258.134 227.484 275.354 217.971 291.139 203.524C308.558 186.827 322.54 166.992 332.324 145.103C343.366 122.055 349.378 96.9946 349.974 71.5298C350.272 59.2211 347.975 46.9849 343.23 35.589ZM97.3418 123.89C85.503 136.364 70.2203 139.253 58.6685 131.642C47.4037 124.172 41.6637 107.964 43.8162 90.3458C44.1293 88.8387 44.0212 87.2763 43.5033 85.8247C42.9853 84.373 42.0769 83.0861 40.8744 82.1006L39.7263 81.3958C38.4734 80.7184 37.2953 79.9155 36.2107 78.9998C35.8553 78.7245 35.4703 78.4881 35.0626 78.2951C34.4276 78.036 33.8256 77.7049 33.2689 77.3085C24.1566 71.6707 21.7171 56.1669 27.6724 42.5658C29.134 38.5095 31.5649 34.8566 34.7609 31.9137C37.9569 28.9708 41.8249 26.8237 46.0404 25.6525C46.2557 25.582 46.4709 25.582 46.6861 25.5115C47.8195 25.1459 49.0097 24.9789 50.202 25.0182C71.7271 25.582 171.245 41.7906 172.321 41.9315C173.302 42.059 174.299 42.0113 175.263 41.7906C198.574 35.6236 222.661 32.7523 246.798 33.2635C245.363 34.4615 243.928 35.6595 242.564 36.928C226.462 52.3591 213.527 70.6851 204.465 90.9096C194.221 112.202 188.648 135.371 188.106 158.915C188.105 163.919 188.513 168.915 189.326 173.855L105.737 122.129C104.348 121.415 102.749 121.201 101.216 121.522C99.6828 121.844 98.3125 122.682 97.3418 123.89ZM309.507 134.673C301.059 153.628 289.004 170.826 273.991 185.342C261.076 197.393 248.161 203.031 239.838 202.89C237.294 202.932 234.772 202.426 232.448 201.41C227.581 198.979 223.836 194.822 221.972 189.782C218.611 181.596 217.023 172.811 217.308 163.989C217.906 142.047 223.16 120.468 232.735 100.635C241.139 81.6551 253.199 64.4498 268.251 49.9653C280.951 38.0556 293.65 32.4178 301.974 32.4883H302.404C304.925 32.4459 307.424 32.9512 309.722 33.9682C314.615 36.4204 318.383 40.5994 320.27 45.6665C323.596 53.8625 325.183 62.6395 324.933 71.4593C324.248 93.3451 318.998 114.86 309.507 134.673Z" fill="#10DBE5"/>
</svg>
