<svg width="400" height="400" viewBox="0 0 400 400" fill="none" xmlns="http://www.w3.org/2000/svg">
<path d="M122.253 194.651C162.157 194.651 194.506 162.27 194.506 122.325C194.506 82.3812 162.157 50 122.253 50C82.3487 50 50 82.3812 50 122.325C50 162.27 82.3487 194.651 122.253 194.651Z" fill="#FF8D3A"/>
<path d="M277.456 194.651C317.36 194.651 349.709 162.27 349.709 122.325C349.709 82.3812 317.36 50 277.456 50C237.552 50 205.203 82.3812 205.203 122.325C205.203 162.27 237.552 194.651 277.456 194.651Z" fill="#B2F260"/>
<path d="M122.253 350C162.157 350 194.506 317.619 194.506 277.674C194.506 237.73 162.157 205.35 122.253 205.35C82.3487 205.35 50 237.73 50 277.674C50 317.619 82.3487 350 122.253 350Z" fill="#4FE5C1"/>
<path d="M250.367 299.146C251.764 302.727 253.635 306.104 255.931 309.185C258.346 307.206 261.202 287.202 262.08 280.313C265.52 256.278 268.668 233.636 286.164 233.636C304.758 233.636 308.126 255.619 310.102 272.327C310.7 277.631 311.629 282.892 312.884 288.081C313.323 287.129 313.909 286.03 314.494 284.637C316.715 277.632 321.134 271.531 327.095 267.24C333.056 262.949 340.241 260.699 347.582 260.822C343.621 244.555 334.138 230.169 320.756 220.126C307.373 210.081 290.921 205.002 274.211 205.755C257.501 206.508 241.571 213.046 229.144 224.253C216.717 235.46 208.564 250.639 206.078 267.197C234.848 264.412 244.51 285.736 250.367 299.146Z" fill="#333333"/>
<path d="M329.871 291.231C327.016 297.534 322.55 306.913 311.496 306.4C297.734 305.741 295.464 288.96 293.415 274.231C292.39 266.903 290.121 250.049 286.094 250.049C284.85 250.928 282.215 257.377 278.774 282.291C275.845 303.176 273.284 321.202 260.986 324.866C259.184 325.432 257.31 325.729 255.422 325.745C244.148 325.745 239.097 314.681 235.071 305.741C229.215 292.77 224.018 281.486 205.789 283.757C207.458 302.278 216.189 319.442 230.17 331.687C244.151 343.933 262.305 350.318 280.864 349.516C299.423 348.715 316.962 340.788 329.836 327.382C342.71 313.978 349.933 296.124 350.002 277.529V277.162C336.459 276.649 333.677 282.805 329.871 291.231Z" fill="#333333"/>
</svg>
