<svg width="400" height="400" viewBox="0 0 400 400" fill="none" xmlns="http://www.w3.org/2000/svg">
<path d="M200 35C167.367 35 135.465 44.6772 108.331 62.8074C81.197 80.9376 60.049 106.707 47.5602 136.858C35.0713 167.006 31.8043 200.183 38.17 232.19C44.5374 264.196 60.252 293.596 83.3272 316.673C106.404 339.748 135.804 355.463 167.81 361.83C199.817 368.196 232.994 364.929 263.142 352.44C293.293 339.951 319.062 318.803 337.193 291.669C355.323 264.535 365 232.633 365 200C365 156.239 347.616 114.271 316.673 83.3268C285.729 52.3844 243.761 35 200 35ZM200 320.999C176.069 320.999 152.675 313.902 132.776 300.607C112.879 287.311 97.3686 268.414 88.2112 246.304C79.052 224.195 76.6562 199.866 81.3257 176.393C85.9936 152.922 97.5188 131.362 114.441 114.439C131.362 97.5184 152.922 85.9932 176.394 81.3254C199.867 76.6559 224.196 79.0516 246.304 88.2108C268.414 97.3683 287.311 112.878 300.607 132.776C313.903 152.675 321 176.068 321 200C321 232.091 308.252 262.868 285.561 285.559C262.868 308.251 232.091 320.999 200 320.999ZM274.8 159.299C274.8 166.044 272.8 172.638 269.053 178.245C265.307 183.853 259.981 188.224 253.749 190.804C247.518 193.385 240.663 194.06 234.048 192.745C227.433 191.428 221.356 188.181 216.588 183.412C211.819 178.644 208.572 172.567 207.255 165.952C205.94 159.337 206.615 152.482 209.196 146.251C211.776 140.019 216.147 134.695 221.755 130.947C227.364 127.2 233.956 125.2 240.701 125.2C249.726 125.258 258.366 128.868 264.749 135.251C271.132 141.634 274.742 150.274 274.8 159.299ZM274.8 240.7C274.8 247.444 272.8 254.037 269.053 259.644C265.307 265.252 259.981 269.623 253.749 272.204C247.518 274.784 240.663 275.461 234.048 274.144C227.433 272.829 221.356 269.582 216.588 264.812C211.819 260.043 208.572 253.966 207.255 247.353C205.94 240.738 206.615 233.881 209.196 227.65C211.776 221.42 216.147 216.094 221.755 212.347C227.364 208.6 233.956 206.6 240.701 206.6C249.726 206.658 258.366 210.269 264.749 216.652C271.132 223.034 274.742 231.673 274.8 240.7ZM193.4 240.7C193.4 247.444 191.4 254.037 187.653 259.644C183.906 265.252 178.58 269.623 172.35 272.204C166.119 274.784 159.262 275.461 152.647 274.144C146.034 272.829 139.957 269.582 135.188 264.812C130.42 260.043 127.171 253.966 125.856 247.353C124.539 240.738 125.216 233.881 127.796 227.65C130.377 221.42 134.748 216.094 140.356 212.347C145.963 208.6 152.556 206.6 159.3 206.6C168.327 206.658 176.966 210.269 183.348 216.652C189.731 223.034 193.342 231.673 193.4 240.7ZM193.4 159.299C193.4 166.044 191.4 172.638 187.653 178.245C183.906 183.853 178.58 188.224 172.35 190.804C166.119 193.385 159.262 194.06 152.647 192.745C146.034 191.428 139.957 188.181 135.188 183.412C130.42 178.644 127.171 172.567 125.856 165.952C124.539 159.337 125.216 152.482 127.796 146.251C130.377 140.019 134.748 134.695 140.356 130.947C145.963 127.2 152.556 125.2 159.3 125.2C168.327 125.258 176.966 128.868 183.348 135.251C189.731 141.634 193.342 150.274 193.4 159.299Z" fill="#F22F46"/>
</svg>
