<svg width="400" height="310" viewBox="0 0 400 310" fill="none" xmlns="http://www.w3.org/2000/svg">
<g clip-path="url(#clip0_284_77)">
<path d="M308.422 0H213.9C128.863 0 122.322 43.2379 122.322 101.146V208.854C122.322 269.078 128.863 310 214.227 310H308.422C393.459 310 400 266.762 400 209.24V101.146C400 43.2379 393.459 0 308.422 0ZM0 77.5965C0 26.6376 17.0074 0 45.789 0C74.5707 0 91.5781 26.6376 91.5781 77.5965V232.403C91.5781 283.362 74.5707 310 45.789 310C17.0074 310 0 283.362 0 232.403V77.5965Z" fill="#1A1A19"/>
</g>
<defs>
<clipPath id="clip0_284_77">
<rect width="400" height="310" fill="white"/>
</clipPath>
</defs>
</svg>
