<svg width="400" height="400" viewBox="0 0 400 400" fill="none" xmlns="http://www.w3.org/2000/svg">
<g clip-path="url(#clip0_581_32)">
<path fill-rule="evenodd" clip-rule="evenodd" d="M323.392 197.566C323.392 197.588 323.393 197.609 323.393 197.63C323.393 197.628 323.393 197.625 323.393 197.623C323.392 197.618 323.392 197.613 323.392 197.609C323.392 197.59 323.392 197.571 323.39 197.552C323.39 197.534 323.389 197.515 323.389 197.497C323.39 197.52 323.392 197.543 323.392 197.566ZM225.954 197.171L225.951 197.112C225.953 197.131 225.953 197.151 225.954 197.171ZM117.252 208.181V204.509C117.252 203.648 117.139 203.085 116.921 202.707C116.707 202.335 115.803 201.817 115.803 201.817L115.283 201.571L115.803 201.329C115.803 201.329 116.879 200.784 117.12 200.301C117.371 199.8 117.483 199.04 117.483 197.801C117.483 196.163 117.237 195.086 116.821 194.484C116.276 193.716 115.539 193.412 113.755 193.412H104.229V194.301H105.397H113.115C113.747 194.301 114.275 194.34 114.709 194.442C115.143 194.544 115.501 194.712 115.781 194.986C116.358 195.549 116.516 196.465 116.516 197.708C116.516 198.97 116.363 199.896 115.803 200.467C115.529 200.745 115.179 200.916 114.756 201.019C114.332 201.122 113.818 201.162 113.203 201.162H105.397H104.229V208.181H105.143V202.289V201.958H105.397H113.54C114.567 201.947 115.314 202.093 115.778 202.69C116.244 203.289 116.355 204.251 116.338 205.576V208.181H117.252ZM155.58 203.416L154.905 204.871L154.904 204.874L153.413 208.181H152.42L159.109 193.412H160.828L167.516 208.181H166.542L165.051 204.874L165.049 204.871L164.375 203.416L164.373 203.413L160.196 194.209L159.977 193.727L159.758 194.209L155.581 203.413L155.58 203.416ZM63.1891 206.206L63.1882 206.208C62.8907 206.738 62.4515 207.022 61.65 207.181C60.8564 207.339 59.6545 207.384 57.7731 207.384C55.5525 207.384 54.2131 207.323 53.3945 207.044C52.9768 206.902 52.6673 206.694 52.4435 206.381C52.2209 206.07 52.1073 205.687 52.0316 205.257C51.9535 204.849 51.9535 204.658 51.9535 203.331V203.237V193.412H51.0391V203.561C51.0391 204.635 51.0396 204.98 51.0727 205.324L51.073 205.328L51.0733 205.332C51.1395 206.172 51.3326 206.718 51.7075 207.185C52.0464 207.606 52.5222 207.901 53.4444 208.087C54.372 208.273 55.719 208.343 57.7731 208.343C60.2948 208.343 61.8256 208.231 62.7923 207.892C63.2695 207.724 63.5922 207.506 63.8253 207.236C64.0561 206.968 64.2159 206.629 64.3436 206.181C64.47 205.686 64.5071 205.272 64.5071 203.561V193.412H63.5926V203.237C63.5926 204.2 63.5845 204.78 63.5313 205.192C63.4739 205.636 63.3633 205.891 63.1891 206.206ZM78.0029 208.181V194.4V193.62L78.4334 194.163L89.562 208.181H91.4986V193.412H90.5843V207.193V207.973L90.1535 207.43L79.0252 193.412H77.0883V208.181H78.0029ZM130.739 207.292V206.961V201.248V200.917H130.993H140.75V200.121H130.993H130.739V199.79V194.631V194.301H130.993H141.123V193.412H129.824V208.181H141.212V207.292H130.993H130.739ZM179.325 207.292V206.961V193.412H178.41V208.181H188.731V207.292H179.579H179.325ZM214.869 199.767L214.868 199.766C214.569 199.585 214.343 199.307 214.196 198.914C214.052 198.531 213.992 198.059 213.992 197.5C213.992 196.862 214.05 196.304 214.236 195.84C214.428 195.363 214.738 195.024 215.189 194.785C215.629 194.551 216.211 194.409 216.962 194.324C217.716 194.239 218.658 194.208 219.829 194.208C221.034 194.208 221.955 194.266 222.65 194.397C223.336 194.526 223.834 194.733 224.163 195.064C224.605 195.508 224.782 196.118 224.823 197.169H225.7C225.665 196.292 225.586 195.699 225.441 195.255C225.286 194.776 225.044 194.448 224.64 194.127L224.637 194.124C224.271 193.824 223.755 193.602 222.977 193.458C222.199 193.314 221.177 193.25 219.811 193.25C217.378 193.25 215.846 193.436 214.871 193.815L214.868 193.815C214.213 194.063 213.759 194.484 213.462 195.089C213.162 195.703 213.007 196.541 213.007 197.662C213.007 198.402 213.076 198.948 213.217 199.373C213.356 199.79 213.569 200.113 213.889 200.394C214.548 200.958 215.401 201.171 217.556 201.195L217.761 201.196C222.832 201.241 222.96 201.242 223.772 201.53L223.775 201.531L223.777 201.532C224.209 201.694 224.549 201.948 224.769 202.38C224.986 202.804 225.062 203.35 225.062 204.024C225.062 204.681 225.01 205.252 224.833 205.725C224.652 206.213 224.351 206.562 223.911 206.806C223.478 207.045 222.907 207.186 222.167 207.271C221.425 207.356 220.493 207.384 219.331 207.384C217.205 207.384 215.849 207.249 215.109 206.928C214.685 206.748 214.367 206.467 214.17 205.979C213.983 205.514 213.921 204.902 213.921 204.116V204.03H213.007V204.764C213.007 205.547 213.144 206.192 213.392 206.692C213.639 207.189 214.004 207.562 214.489 207.782C215.404 208.179 216.715 208.343 219.598 208.343C222.342 208.343 223.647 208.178 224.471 207.785C225.007 207.521 225.389 207.106 225.64 206.524C225.896 205.934 226.03 205.147 226.03 204.116C226.03 203.18 225.934 202.498 225.741 201.986C225.551 201.486 225.258 201.124 224.823 200.851C224.032 200.359 223.283 200.26 219.491 200.236C217.813 200.225 216.829 200.207 216.188 200.146C215.536 200.083 215.215 199.973 214.869 199.767ZM239.163 202.12H239.416H247.88C249.138 202.12 249.816 201.869 250.336 201.335C250.655 201.005 250.859 200.637 250.99 200.091C251.125 199.527 251.183 198.765 251.183 197.639C251.183 195.802 250.985 194.924 250.542 194.329L250.54 194.326C250.053 193.652 249.43 193.412 247.56 193.412H238.248V208.181H239.163V202.45V202.12ZM239.163 201.231V200.901V194.631V194.301H239.416H247.116C248.247 194.301 249.05 194.448 249.555 195.003C250.078 195.576 250.215 196.499 250.215 197.754C250.215 199.042 250.078 199.981 249.513 200.552C249.235 200.83 248.881 200.996 248.445 201.096C248.01 201.195 247.477 201.231 246.831 201.231H239.416H239.163ZM264.028 207.292V206.961V201.248V200.917H264.283H274.039V200.121H264.283H264.028V199.79V194.631V194.301H264.283H274.413V193.412H263.115V208.181H274.502V207.292H264.283H264.028ZM287.488 207.292V206.961V201.248V200.917H287.742H297.499V200.121H287.742H287.488V199.79V194.631V194.301H287.742H297.872V193.412H286.574V208.181H297.962V207.292H287.742H287.488ZM311.252 206.336C310.953 205.932 310.783 205.411 310.685 204.573C310.589 203.745 310.559 202.564 310.559 200.808C310.559 199.255 310.559 198.057 310.655 197.149C310.752 196.237 310.947 195.549 311.377 195.078C311.801 194.617 312.406 194.412 313.218 194.311C314.037 194.209 315.121 194.208 316.539 194.208C317.783 194.208 318.756 194.226 319.513 194.295C320.265 194.364 320.829 194.487 321.243 194.714C321.672 194.951 321.944 195.302 322.096 195.803C322.239 196.277 322.269 196.863 322.269 197.546V197.609H323.137C323.105 196.574 323.031 195.858 322.889 195.326C322.738 194.757 322.513 194.391 322.155 194.071L322.152 194.068L322.149 194.065C321.829 193.76 321.433 193.554 320.737 193.426C320.038 193.297 319.053 193.25 317.57 193.25C315.121 193.25 313.668 193.279 312.712 193.399C311.771 193.517 311.338 193.721 310.93 194.055C310.646 194.29 310.429 194.528 310.259 194.818C310.09 195.107 309.957 195.462 309.858 195.946C309.654 196.93 309.592 198.396 309.592 200.808C309.592 202.915 309.637 204.245 309.771 205.171C309.904 206.075 310.117 206.575 310.46 207.031L310.463 207.033C310.854 207.565 311.282 207.889 312.144 208.085C313.027 208.284 314.338 208.343 316.486 208.343C318.077 208.343 320.092 208.251 320.763 208.182C321.817 208.024 322.324 207.718 322.708 207.12L322.711 207.118V207.115C323.11 206.519 323.255 205.819 323.255 203.977V203.66H322.376V204.209C322.376 204.859 322.343 205.424 322.183 205.882C322.015 206.367 321.718 206.695 321.269 206.913C320.829 207.124 320.227 207.239 319.422 207.304C318.612 207.369 317.57 207.384 316.236 207.384C314.575 207.384 313.498 207.339 312.764 207.193C312.018 207.045 311.59 206.787 311.252 206.336ZM336.283 200.963H336.538H347.651H347.905V201.294V208.181H348.819V193.412H347.905V199.836V200.167H347.651H336.538H336.283V199.836V193.412H335.37V208.181H336.283V201.294V200.963Z" fill="black"/>
</g>
<defs>
<clipPath id="clip0_581_32">
<rect width="300" height="16.75" fill="white" transform="translate(50 192)"/>
</clipPath>
</defs>
</svg>
