<svg width="390" height="400" viewBox="0 0 390 400" fill="none" xmlns="http://www.w3.org/2000/svg">
<g clip-path="url(#clip0_315_309)">
<path d="M194.784 51.6008C209.037 51.6008 223.289 53.2008 237.974 56.4008C241.429 57.2008 244.884 55.6008 246.612 52.4008C248.339 48.4008 245.748 44.4008 242.293 43.2008H241.429C211.196 36.0008 179.668 36.0008 149.436 43.2008C145.117 44.0008 142.525 48.0008 143.389 51.6008V52.4008C145.117 55.6008 148.572 57.2008 152.027 56.4008C165.848 54.0008 180.1 51.6008 194.784 51.6008Z" fill="#5B627D"/>
<path d="M287.209 70.3994C286.346 73.5994 288.073 75.9994 290.665 77.5994C374.884 126.799 399.502 229.999 346.379 307.199C293.256 384.399 182.691 408.799 98.4719 359.599C14.2526 310.399 -10.3653 207.199 42.7576 129.599C57.0101 108.399 76.4453 90.3994 99.3357 77.1994C101.927 75.5994 103.655 73.1994 102.791 69.9994C101.927 65.9994 98.4719 63.5994 94.153 64.3994C93.2892 64.3994 92.4254 65.1994 91.5616 65.1994C0.432053 118.799 -27.2091 229.599 29.3689 314.799C85.947 399.999 206.445 424.799 298.439 372.799C389.568 319.599 417.209 208.799 361.063 123.599C345.515 99.9994 324.352 80.3994 299.303 66.3994C295.847 63.9994 290.665 65.5994 289.369 68.7994C288.073 68.7994 287.209 69.5994 287.209 70.3994Z" fill="#5B627D"/>
<path d="M234.95 118.001C225.88 116.401 215.515 114.801 206.445 114.801C202.126 114.801 198.671 114.801 194.784 114.801C183.123 114.801 171.03 115.601 160.232 118.001C119.634 124.401 82.4914 142.401 53.1226 168.001C50.5313 170.401 48.8037 174.401 48.8037 178.001L67.3751 315.601C124.817 380.401 228.472 390.801 299.302 337.601C307.94 331.201 315.282 323.601 323.056 315.601L325.648 294.401C343.355 285.201 354.153 268.001 353.289 248.401C353.289 234.401 347.242 220.401 336.445 210.001L340.764 177.201C341.628 173.201 339.9 170.001 337.309 167.201C320.465 152.401 301.03 140.001 279.867 131.201C265.614 126.001 250.93 121.201 234.95 118.001Z" fill="#46DB83"/>
<path d="M177.076 286.001C171.03 289.201 165.415 290.001 158.505 290.001C134.751 289.201 116.179 272.001 117.043 250.001C117.043 249.201 117.043 249.201 117.043 248.401C116.179 226.401 133.887 208.401 156.777 206.801C157.641 206.801 157.641 206.801 158.505 206.801C168.438 206.801 177.94 210.001 185.714 216.001C194.784 224.001 200.83 235.601 199.967 248.001C200.398 264.001 191.329 278.001 177.076 286.001Z" fill="#46DB83"/>
<path d="M320.465 286.001C314.418 289.201 307.94 290.001 301.893 290.001C278.139 289.201 259.568 272.001 260.432 250.001C260.432 249.201 260.432 249.201 260.432 248.401C259.568 226.401 277.276 208.401 300.166 206.801C301.03 206.801 301.03 206.801 301.893 206.801C311.827 206.801 321.329 210.001 329.103 216.001C338.173 224.401 344.219 235.601 343.355 248.001C343.787 264.001 334.717 278.001 320.465 286.001Z" fill="#46DB83"/>
<path d="M126.977 125.2C122.658 98 117.907 69.6 113.588 47.2C99.336 48 87.243 38 87.243 24.4C86.8111 10.8 97.6084 0 111.861 0C126.113 0 138.206 10 138.206 22.8C139.07 32 133.024 40.8 124.818 44.8L155.05 118.4C145.549 120.4 136.479 122.8 126.977 125.2Z" fill="#5B627D"/>
<path d="M234.95 117.999L265.183 44.399C252.658 38.799 247.475 23.999 254.385 13.199C260.432 1.59899 276.412 -3.20101 288.073 3.19899C299.734 9.59899 305.781 23.599 298.87 34.399C294.551 42.399 285.482 47.599 275.98 46.799C271.661 69.599 267.342 97.599 262.591 124.799C253.522 121.999 244.452 119.599 234.95 117.999Z" fill="#5B627D"/>
<path d="M177.076 286.001C171.03 289.201 165.415 290.001 158.505 290.001C134.751 289.201 116.179 272.001 117.043 250.001C117.043 249.201 117.043 249.201 117.043 248.401C116.179 226.401 133.887 208.401 156.777 206.801C157.641 206.801 157.641 206.801 158.505 206.801C168.438 206.801 177.94 210.001 185.714 216.001C194.784 224.001 200.83 235.601 199.967 248.001C200.398 264.001 191.329 278.001 177.076 286.001Z" fill="white"/>
<path d="M320.465 286.001C314.418 289.201 307.94 290.001 301.893 290.001C278.139 289.201 259.568 272.001 260.432 250.001C260.432 249.201 260.432 249.201 260.432 248.401C259.568 226.401 277.276 208.401 300.166 206.801C301.03 206.801 301.03 206.801 301.893 206.801C311.827 206.801 321.329 210.001 329.103 216.001C338.173 224.401 344.219 235.601 343.355 248.001C343.787 264.001 334.717 278.001 320.465 286.001Z" fill="white"/>
<path d="M304.485 233.6C301.03 228 292.824 226.4 286.778 229.6C285.05 230.4 283.322 232 282.459 233.6C279.867 237.6 278.14 242 278.14 246.8C278.14 252.4 279.003 256.8 282.459 260.8C285.05 264.8 288.505 266.4 293.256 267.2C297.575 267.2 301.894 264.8 304.053 261.6C307.508 257.6 309.236 252.4 308.372 247.6C309.236 243.2 307.508 237.6 304.485 233.6Z" fill="#5B627D"/>
<path d="M296.711 246.401C299.573 246.401 301.894 244.252 301.894 241.601C301.894 238.95 299.573 236.801 296.711 236.801C293.849 236.801 291.528 238.95 291.528 241.601C291.528 244.252 293.849 246.401 296.711 246.401Z" fill="white"/>
<path d="M161.528 233.6C158.073 228 149.867 226.4 143.82 229.6C142.093 230.4 140.365 232 139.502 233.6C136.91 237.6 135.183 242.8 135.183 247.6C135.183 253.2 136.046 257.6 139.502 261.6C142.957 267.2 150.299 269.6 156.345 266.4C158.073 265.6 159.801 264 161.528 261.6C164.983 257.6 166.711 252.4 165.847 247.6C165.847 242.4 164.12 237.6 161.528 233.6Z" fill="#5B627D"/>
<path d="M153.322 246.401C156.185 246.401 158.505 244.252 158.505 241.601C158.505 238.95 156.185 236.801 153.322 236.801C150.46 236.801 148.14 238.95 148.14 241.601C148.14 244.252 150.46 246.401 153.322 246.401Z" fill="white"/>
</g>
<defs>
<clipPath id="clip0_315_309">
<rect width="390" height="400" fill="white"/>
</clipPath>
</defs>
</svg>
