<svg width="400" height="86" viewBox="0 0 400 86" fill="none" xmlns="http://www.w3.org/2000/svg">
<path d="M112.422 62.0928L100.301 23.7479H106.61L115.825 54.2029C116.534 51.4414 117.668 47.7332 125.394 23.7479H131.703L119.015 62.0928H112.422ZM137.657 62.0928V23.8268H143.541V62.0928H137.657ZM212.369 45.9974C212.369 51.2048 211.944 54.5185 210.668 56.9644C208.683 60.8304 204.501 62.9607 198.405 62.9607C192.663 62.9607 188.41 61.0671 186.426 56.8066C185.221 54.3607 184.795 50.7314 184.795 46.3919V23.8268H190.679V46.2341C190.679 49.3901 190.891 51.5992 191.388 53.0194C192.238 55.4653 194.365 57.3589 198.689 57.3589C202.445 57.3589 204.714 55.9387 205.848 53.335C206.415 51.9937 206.982 49.469 206.982 46.313V23.8268H212.369V45.9974ZM219.812 54.7552C222.435 56.0965 225.837 57.3589 229.807 57.3589C234.485 57.3589 236.895 55.4653 236.895 52.0726C236.895 49.469 236.045 48.0488 231.508 46.313L226.688 44.4983C221.655 42.6048 219.316 39.291 219.316 33.847C219.316 28.0084 223.427 22.88 232.288 22.88C235.761 22.88 239.164 23.5112 241.928 24.6158L240.652 30.0598C237.817 29.0341 234.414 28.324 231.579 28.324C226.83 28.324 225.483 31.0855 225.483 33.3736C225.483 35.6616 226.121 37.2396 230.09 38.6598L234.911 40.5534C240.794 42.7626 242.85 46.2341 242.85 51.2048C242.85 57.28 239.093 62.724 229.807 62.724C225.483 62.724 221.301 61.6194 218.324 60.0414L219.812 54.7552ZM259.082 62.0928V29.8231H248.804V23.8268H275.315V29.8231H265.036V62.0928H259.082ZM320.539 62.0928V29.8231H310.26V23.8268H336.771V29.8231H326.493V62.0928H320.539ZM292.043 62.8818C282.049 62.8818 275.74 53.5717 275.74 42.5259C275.74 30.3754 282.119 22.9589 292.894 22.9589C303.243 22.9589 308.63 31.8745 308.701 42.5259C308.772 53.4928 302.534 62.8818 292.043 62.8818ZM292.469 28.4818C285.664 28.4818 281.978 33.2158 281.978 42.6048C281.978 54.0451 286.443 57.3589 292.327 57.3589C298.423 57.3589 302.534 53.1772 302.534 42.9203C302.676 33.847 300.337 28.4818 292.469 28.4818ZM335.566 62.0928L348.822 23.7479H355.626L368.527 62.0928H362.219L358.745 52.0726H345.348L341.804 62.1717H335.566V62.0928ZM357.186 46.4708L352.224 30.7699C351.444 33.3736 350.523 36.3717 346.979 46.4708H357.186ZM374.198 62.0928V23.8268H380.578V56.3332L397.732 56.0965L397.803 62.0928H374.198ZM0 4.6543L34.5206 42.9992L0 81.2653H76.2006V4.6543H0ZM68.8286 73.0598H17.3666L44.5862 42.9992L17.3666 12.8598H68.8286V73.0598ZM170.689 45.524C175.793 43.6304 177.778 39.6066 177.778 34.7148C177.778 29.4286 175.297 26.1148 171.682 24.8525C169.555 24.1424 166.507 23.8268 163.53 23.8268H152.897V62.1717H158.781V46.4708L160.766 46.313C163.388 46.313 164.664 46.6286 165.231 46.5497L172.958 62.0928H179.479L170.689 45.524ZM169.13 40.3167C167.712 41.1846 165.657 41.4213 163.176 41.4213H158.781V29.2708H163.247C165.586 29.2708 167.358 29.3497 168.705 29.902C170.548 30.691 171.54 32.5057 171.54 35.1093C171.469 37.4763 170.689 39.3699 169.13 40.3167Z" fill="#394EFF"/>
</svg>
