<svg width="400" height="400" viewBox="0 0 400 400" fill="none" xmlns="http://www.w3.org/2000/svg">
<g clip-path="url(#clip0_537_15)">
<path fill-rule="evenodd" clip-rule="evenodd" d="M89.9403 269.986C67.9048 269.986 50 287.952 50 309.849C50 331.857 67.9048 349.635 89.9403 349.635C112.042 349.635 129.936 331.857 129.936 309.849C129.936 287.952 112.048 269.986 89.9403 269.986ZM50.0389 151.915V209.423C87.4873 209.423 122.678 224.067 149.186 250.598C175.667 277.051 190.289 312.413 190.289 350.006H248.04C248.04 240.793 159.179 151.933 50.0384 151.933V151.916L50.0389 151.915ZM50.1106 49.9941V107.513C183.65 107.513 292.326 216.299 292.326 349.989L350 349.994C350 184.619 215.447 49.9998 50.1163 49.9998L50.1106 49.9941Z" fill="#00ADEE"/>
</g>
<defs>
<clipPath id="clip0_537_15">
<rect width="300" height="300" fill="white" transform="translate(50 50)"/>
</clipPath>
</defs>
</svg>
