<svg width="400" height="400" viewBox="0 0 400 400" fill="none" xmlns="http://www.w3.org/2000/svg">
<path d="M199.994 50C117.158 50 50 117.165 50 200.009C50 282.853 117.158 350 199.994 350C282.83 350 350 282.841 350 199.985C350 117.13 282.842 50 199.994 50ZM133.569 237.401C133.498 240.672 132.15 243.786 129.811 246.075C127.472 248.363 124.33 249.645 121.059 249.645C117.787 249.645 114.645 248.363 112.307 246.075C109.968 243.786 108.619 240.672 108.548 237.401V206.143C108.509 204.498 108.796 202.862 109.39 201.327C109.985 199.793 110.876 198.391 112.013 197.202C113.15 196.012 114.51 195.059 116.016 194.396C117.522 193.733 119.143 193.373 120.788 193.337C122.433 193.302 124.069 193.592 125.602 194.189C127.135 194.786 128.535 195.68 129.722 196.82C130.909 197.959 131.86 199.321 132.521 200.828C133.18 202.335 133.537 203.958 133.569 205.603C133.569 205.779 133.569 205.961 133.569 206.143V237.401ZM173.1 261.674C173.029 264.945 171.68 268.058 169.341 270.347C167.003 272.636 163.861 273.917 160.589 273.917C157.318 273.917 154.176 272.636 151.838 270.347C149.499 268.058 148.15 264.945 148.079 261.674V149.82C148.04 148.175 148.326 146.539 148.921 145.004C149.516 143.47 150.407 142.068 151.543 140.879C152.68 139.689 154.041 138.736 155.546 138.073C157.053 137.41 158.674 137.05 160.319 137.014C161.964 136.979 163.6 137.269 165.132 137.866C166.666 138.463 168.066 139.357 169.253 140.497C170.44 141.636 171.391 142.998 172.051 144.505C172.711 146.012 173.068 147.635 173.1 149.28C173.1 149.456 173.1 149.638 173.1 149.82V261.674ZM212.631 237.401C212.631 240.719 211.313 243.9 208.967 246.246C206.622 248.592 203.441 249.91 200.123 249.91C196.806 249.91 193.625 248.592 191.279 246.246C188.933 243.9 187.615 240.719 187.615 237.401V112.528C187.615 109.21 188.933 106.028 191.279 103.682C193.625 101.337 196.806 100.019 200.123 100.019C203.441 100.019 206.622 101.337 208.967 103.682C211.313 106.028 212.631 109.21 212.631 112.528V237.401ZM252.168 274.934C252.097 278.205 250.748 281.319 248.409 283.608C246.071 285.896 242.929 287.178 239.657 287.178C236.385 287.178 233.243 285.896 230.905 283.608C228.566 281.319 227.217 278.205 227.146 274.934V149.82C227.108 148.175 227.394 146.539 227.989 145.004C228.583 143.47 229.474 142.068 230.611 140.879C231.748 139.689 233.108 138.736 234.614 138.073C236.12 137.41 237.742 137.05 239.386 137.014C241.032 136.979 242.667 137.269 244.2 137.866C245.733 138.463 247.134 139.357 248.32 140.497C249.508 141.636 250.459 142.998 251.119 144.505C251.779 146.012 252.136 147.635 252.168 149.28C252.168 149.456 252.168 149.638 252.168 149.82V274.934ZM291.71 184.852C291.749 186.497 291.463 188.134 290.868 189.668C290.274 191.203 289.383 192.604 288.246 193.794C287.109 194.983 285.748 195.937 284.243 196.599C282.737 197.263 281.115 197.622 279.47 197.658C277.825 197.693 276.19 197.404 274.657 196.807C273.124 196.209 271.723 195.315 270.536 194.176C269.349 193.036 268.398 191.675 267.738 190.167C267.078 188.66 266.721 187.038 266.689 185.392C266.689 185.216 266.689 185.034 266.689 184.852V149.82C266.65 148.175 266.937 146.539 267.531 145.004C268.126 143.47 269.017 142.068 270.154 140.879C271.291 139.689 272.651 138.736 274.157 138.073C275.663 137.41 277.284 137.05 278.929 137.014C280.574 136.979 282.21 137.269 283.743 137.866C285.276 138.463 286.676 139.357 287.863 140.497C289.05 141.636 290.001 142.998 290.661 144.505C291.321 146.012 291.678 147.635 291.71 149.28C291.71 149.456 291.71 149.638 291.71 149.82V184.852Z" fill="url(#paint0_linear_584_143)"/>
<defs>
<linearGradient id="paint0_linear_584_143" x1="50" y1="200.003" x2="350" y2="200.003" gradientUnits="userSpaceOnUse">
<stop stop-color="#5095F8"/>
<stop offset="1" stop-color="#4463F3"/>
</linearGradient>
</defs>
</svg>
