<svg width="400" height="300" viewBox="0 0 400 300" fill="none" xmlns="http://www.w3.org/2000/svg">
<path d="M83.3557 67.4219C37.2907 67.4219 0 104.363 0 150.008C0 195.653 37.2907 232.593 83.3557 232.593C88.2913 232.593 93.0075 232.169 97.7236 231.319C113.956 271.551 153.66 299.999 200.054 299.999C243.377 299.999 280.777 275.266 298.764 239.281C289.552 237.476 280.777 234.398 272.551 229.939C258.512 255.416 231.312 272.718 200.054 272.718C165.724 272.718 136.111 251.807 123.717 222.19C121.085 216.034 119.33 209.452 118.343 202.659C118.343 202.659 118.343 202.659 118.343 202.552C117.795 199.792 115.382 197.776 112.421 197.776C111.653 197.776 110.995 197.882 110.337 198.2C109.788 198.519 109.35 198.731 108.801 199.049C103.208 201.916 97.1752 203.826 90.7042 204.675C88.2913 204.994 85.7687 205.206 83.2461 205.206C52.4264 205.206 27.4197 180.367 27.4197 149.901C27.4197 119.436 52.4264 94.5966 83.2461 94.5966C85.7687 94.5966 88.2913 94.8089 90.7042 95.1274C100.685 96.5073 109.788 100.435 117.356 106.273C119.659 107.972 121.743 109.989 123.717 112.005C128.214 116.676 131.724 122.09 134.356 128.034C134.466 128.247 134.576 128.565 134.685 128.777C135.672 130.688 137.647 132.068 140.06 132.068C141.705 132.068 143.24 131.431 144.337 130.37C149.163 125.911 154.537 122.09 160.46 118.905C172.195 112.536 185.686 108.927 199.944 108.927C214.202 108.927 227.693 112.536 239.428 118.905C248.203 123.576 255.88 129.839 262.351 137.269C265.751 141.197 268.822 145.337 271.455 149.901C277.048 159.349 280.668 170.07 281.984 181.428C282.093 181.534 282.203 181.747 282.422 181.853C284.068 183.658 285.932 185.25 287.797 186.736C294.268 191.725 301.836 194.91 309.952 196.077C310.061 194.379 310.171 192.574 310.171 190.876C310.171 176.439 307.319 162.64 302.165 150.008C297.339 138.225 290.539 127.503 282.093 118.162C280.229 116.039 278.255 114.022 276.171 112.112C269.48 105.742 262.022 100.329 253.906 95.7643C238.003 86.8476 219.577 81.8584 200.054 81.8584C180.421 81.8584 162.105 86.9537 146.202 95.7643C139.84 88.546 132.272 82.4954 123.717 77.8247C115.711 73.4725 107.046 70.3941 97.7236 68.6957C93.1171 67.9526 88.2913 67.4219 83.3557 67.4219Z" fill="url(#paint0_linear_188_95)"/>
<path d="M200.056 0C156.733 0 119.332 24.7332 101.345 60.7185C110.558 62.5231 119.332 65.6015 127.558 70.0598C141.597 44.5835 168.797 27.2809 200.056 27.2809C234.385 27.2809 263.998 48.1927 276.392 77.8089C279.024 83.9656 280.779 90.547 281.766 97.3407C282.315 100.101 284.728 102.118 287.689 102.118C288.457 102.118 289.115 102.011 289.773 101.693C290.321 101.374 290.76 101.162 291.308 100.844C296.902 97.9776 302.934 96.0669 309.405 95.2177C311.818 94.8992 314.341 94.6869 316.863 94.6869C347.683 94.6869 372.69 119.526 372.69 149.992C372.69 180.457 347.683 205.296 316.863 205.296C314.341 205.296 311.818 205.084 309.405 204.766C299.425 203.386 290.321 199.458 282.753 193.62C280.45 191.815 278.366 189.905 276.392 187.888C271.895 183.217 268.386 177.803 265.753 171.859C265.644 171.647 265.534 171.328 265.424 171.116C264.437 169.205 262.463 167.825 260.05 167.825C258.405 167.825 256.869 168.462 255.773 169.524C250.947 173.982 245.572 177.803 239.65 180.988C227.914 187.357 214.424 190.966 200.165 190.966C185.907 190.966 172.417 187.357 160.681 180.988C151.907 176.317 144.229 170.054 137.758 162.624C134.358 158.696 131.287 154.556 128.655 149.992C123.061 140.544 119.442 129.823 118.126 118.465C118.016 118.359 117.907 118.146 117.687 118.04C116.042 116.236 114.177 114.643 112.313 113.157C105.842 108.168 98.2741 104.984 90.1578 103.816C90.0482 105.514 89.9385 107.319 89.9385 109.017C89.9385 123.454 92.7901 137.254 97.945 149.886C102.771 161.668 109.571 172.39 118.016 181.731C119.881 183.854 121.855 185.871 123.939 187.782C130.629 194.151 138.087 199.67 146.204 204.129C162.107 213.046 180.533 218.035 200.056 218.035C219.688 218.035 238.005 212.939 253.908 204.129C260.269 211.347 267.837 217.398 276.282 222.068C284.289 226.421 292.954 229.605 302.276 231.197C306.992 232.047 311.709 232.471 316.644 232.471C362.709 232.471 400 195.531 400 149.886C400 104.347 362.709 67.2999 316.644 67.2999C311.709 67.2999 306.883 67.7245 302.276 68.5737C286.263 28.4485 246.56 0 200.056 0Z" fill="url(#paint1_linear_188_95)"/>
<defs>
<linearGradient id="paint0_linear_188_95" x1="-0.00109679" y1="183.737" x2="310.259" y2="183.737" gradientUnits="userSpaceOnUse">
<stop offset="5.32779e-08" stop-color="#0658D4"/>
<stop offset="1" stop-color="#2C7EF9"/>
</linearGradient>
<linearGradient id="paint1_linear_188_95" x1="440.698" y1="208.872" x2="184.109" y2="95.2517" gradientUnits="userSpaceOnUse">
<stop offset="1.11884e-07" stop-color="#198852"/>
<stop offset="1" stop-color="#43B476"/>
</linearGradient>
</defs>
</svg>
