<svg width="400" height="400" viewBox="0 0 400 400" fill="none" xmlns="http://www.w3.org/2000/svg">
<g clip-path="url(#clip0_105_19)">
<path d="M143.883 50.7836C142.249 48.1173 139.959 45.9112 137.23 44.3741C134.502 42.837 131.424 42.0199 128.29 42H33.5C28.5935 42 23.8879 43.9434 20.4185 47.4026C16.9491 50.8618 15 55.5535 15 60.4456C15 63.9229 15.9765 67.3307 17.819 70.2832L42.2214 106.032L164.233 79.6816L143.883 50.7836Z" fill="#C9F4FF"/>
<path d="M164.762 80.3844C163.107 77.717 160.801 75.5119 158.058 73.9757C155.316 72.4394 152.227 71.6223 149.081 71.6008H54.6431C51.2485 71.4447 47.8767 72.2283 44.9012 73.8649C41.9257 75.5015 39.4626 77.9273 37.7844 80.8735C36.1063 83.8198 35.2787 87.1716 35.3933 90.5579C35.5078 93.9442 36.5601 97.2328 38.4336 100.06L65.655 143.099L191.719 123.424L164.762 80.3844Z" fill="#51B9FF"/>
<path d="M64.5093 141.342C62.9812 138.901 62.0356 136.143 61.7455 133.28C61.4553 130.417 61.8282 127.526 62.8355 124.829C64.2183 121.31 66.6471 118.297 69.7963 116.193C72.9454 114.089 76.6644 112.996 80.4546 113.059H174.893C178.04 113.072 181.132 113.886 183.876 115.423C186.62 116.96 188.925 119.17 190.574 121.843L275.409 255.968C277.252 258.921 278.228 262.329 278.228 265.806C278.214 269.281 277.239 272.686 275.409 275.644L228.014 350.568C226.335 353.198 224.018 355.363 221.277 356.863C218.536 358.363 215.46 359.149 212.333 359.149C209.206 359.149 206.13 358.363 203.389 356.863C200.648 355.363 198.331 353.198 196.652 350.568L64.5093 141.342Z" fill="#007BFC"/>
<path d="M303.424 184.206C305.103 186.836 307.42 189.002 310.161 190.502C312.902 192.002 315.978 192.788 319.105 192.788C322.231 192.788 325.308 192.002 328.049 190.502C330.79 189.002 333.107 186.836 334.786 184.206L351.083 158.47L382.181 109.282C384.023 106.33 385 102.922 385 99.4447C384.986 95.9694 384.011 92.5652 382.181 89.6071L357.514 50.7836C355.859 48.1162 353.553 45.9111 350.81 44.3749C348.068 42.8386 344.979 42.0215 341.833 42H247.043C244.613 42 242.208 42.4771 239.963 43.4041C237.719 44.3311 235.679 45.6898 233.961 47.4026C232.243 49.1154 230.881 51.1488 229.951 53.3867C229.021 55.6247 228.543 58.0232 228.543 60.4456C228.509 63.9401 229.521 67.3653 231.45 70.2832L303.424 184.206Z" fill="#007BFC"/>
</g>
<defs>
<clipPath id="clip0_105_19">
<rect width="370" height="317" fill="white" transform="translate(15 42)"/>
</clipPath>
</defs>
</svg>
