<svg width="400" height="264" viewBox="0 0 400 264" fill="none" xmlns="http://www.w3.org/2000/svg">
<g clip-path="url(#clip0_228_159)">
<path d="M65.122 0H119.283L89.4498 114.237H157.183L167.683 0H221.844L232.472 114.237H374.597L399.949 171.202H37.2091C37.2091 171.202 -6.06874 171.355 1.74176 142.413C14.0337 114.39 65.122 0 65.122 0Z" fill="#3C73E7"/>
<path d="M269.347 0.458984H323.508L358.975 81.1597H289.833L269.347 0.458984Z" fill="#3C73E7"/>
<path d="M55.8774 199.562L49.6802 263.817H32.3178C30.7301 253.955 29.3217 242.715 28.1181 230.128C27.5547 235.518 26.2743 246.758 24.2513 263.817H6.99135L0.768555 199.562H14.2641L15.7237 221.981L17.1322 243.634C17.6444 232.425 18.9248 217.724 20.9734 199.562H35.4164C35.5957 201.431 36.1079 208.505 36.9273 220.756L38.4638 245.196C39.2577 229.638 40.5381 214.447 42.3307 199.562H55.8774Z" fill="#3C73E7"/>
<path d="M92.5992 199.562L100.538 263.786H86.3252L85.5826 252.24H80.6146L79.7695 263.786H65.4033L72.4968 199.562H92.5992ZM85.2241 240.878C84.5326 233.588 83.8156 224.615 83.0986 213.896C81.6901 226.208 80.7938 235.181 80.4353 240.878H85.2241Z" fill="#3C73E7"/>
<path d="M144.559 199.562V263.786H132.369L125.148 234.599V263.786H113.521V199.562H125.148L132.932 228.474V199.562H144.559Z" fill="#3C73E7"/>
<path d="M191.78 199.562V263.786H179.591L172.369 234.599V263.786H160.743V199.562H172.369L180.154 228.474V199.562H191.78Z" fill="#3C73E7"/>
<path d="M232.01 199.562L239.949 263.786H225.736L224.994 252.24H220.026L219.181 263.786H204.814L211.908 199.562H232.01ZM224.635 240.878C223.944 233.588 223.227 224.615 222.51 213.896C221.101 226.208 220.205 235.181 219.846 240.878H224.635Z" fill="#3C73E7"/>
<path d="M252.933 209.945C252.933 209.945 253.496 199.562 262.331 199.562C271.166 199.562 276.492 199.562 276.492 199.562V212.426H266.838V224.615H275.417V236.835H266.838V263.817H252.933V209.945Z" fill="#3C73E7"/>
<path d="M304.354 199.562V263.786H290.448V199.562H304.354Z" fill="#3C73E7"/>
<path d="M351.575 199.562V263.786H339.386L332.164 234.599V263.786H320.538V199.562H332.164L339.949 228.474V199.562H351.575Z" fill="#3C73E7"/>
<path d="M367.76 199.562H378.157C384.866 199.562 389.399 199.93 391.78 200.665C394.136 201.4 395.954 202.625 397.184 204.31C398.413 205.994 399.181 207.893 399.488 209.975C399.796 212.058 399.949 216.131 399.949 222.226V244.737C399.949 250.494 399.719 254.353 399.283 256.313C398.822 258.243 398.054 259.774 396.928 260.877C395.801 261.979 394.418 262.745 392.779 263.174C391.14 263.602 388.63 263.817 385.327 263.817H367.785V199.562H367.76ZM381.665 210.557V252.822C383.662 252.822 384.892 252.332 385.353 251.382C385.814 250.402 386.044 247.799 386.044 243.511V218.551C386.044 215.641 385.967 213.773 385.814 212.946C385.66 212.119 385.301 211.537 384.764 211.139C384.226 210.741 383.202 210.557 381.665 210.557Z" fill="#3C73E7"/>
</g>
<defs>
<clipPath id="clip0_228_159">
<rect width="400" height="264" fill="white"/>
</clipPath>
</defs>
</svg>
