<svg width="400" height="360" viewBox="0 0 400 360" fill="none" xmlns="http://www.w3.org/2000/svg">
<path d="M116.137 286.44H234.085L304.575 360V286.44H334.689C370.617 286.44 400 255.749 400 218.223V121.338C400 83.8118 370.617 53.1206 334.689 53.1206H116.137C80.2099 53.1206 50.8262 83.8118 50.8262 121.338V218.223C50.8262 255.749 80.2099 286.44 116.137 286.44Z" fill="#00E785"/>
<path d="M266.518 338.997L190.724 259.897H78.0178C35.0064 259.897 0 223.333 0 178.407V81.4894C0 36.5641 35.0064 0 78.0178 0H296.569C339.581 0 374.587 36.5641 374.587 81.4894V178.374C374.587 223.3 339.581 259.864 296.569 259.864H266.455V233.32H296.569C325.572 233.32 349.174 208.667 349.174 178.374V81.4894C349.174 51.1963 325.572 26.5438 296.569 26.5438H78.0178C49.0152 26.5438 25.413 51.1963 25.413 81.4894V178.374C25.413 208.667 49.0152 233.32 78.0178 233.32H201.239L266.741 301.67L266.518 338.964V338.997Z" fill="#1D1D1B"/>
</svg>
