<svg width="400" height="400" viewBox="0 0 400 400" fill="none" xmlns="http://www.w3.org/2000/svg">
<g clip-path="url(#clip0_534_10)">
<path d="M280.227 224.581V198.797C280.227 194.854 283.788 192.958 287.424 192.958C291.515 192.958 292.955 195.461 292.955 200.542V224.581H304.167V199.632C304.167 189.622 299.848 183.858 291.742 183.858C285.455 183.858 282.121 187.347 280.682 191.517H280.227V184.768H269.015V224.581H280.227ZM242.424 225.491C254.091 225.491 261.061 217.452 261.061 204.637C261.061 191.821 254.091 183.858 242.424 183.858C230.758 183.858 223.788 191.821 223.788 204.637C223.788 217.452 230.758 225.491 242.424 225.491ZM242.424 216.618C238.03 216.618 235.454 213.737 235.454 208.732V200.617C235.454 195.612 238.03 192.731 242.424 192.731C246.818 192.731 249.394 195.612 249.394 200.617V208.732C249.394 213.737 246.818 216.618 242.424 216.618ZM201.591 225.491C211.818 225.491 218.636 219.879 218.636 212.22C218.636 205.319 214.167 201.376 205.53 200.238L201.061 199.632C197.803 199.177 196.894 198.039 196.894 195.916C196.894 193.944 198.409 192.579 202.197 192.579C205.53 192.579 208.864 194.172 211.364 196.674L217.803 190.077C213.788 186.133 209.924 183.858 201.591 183.858C192.121 183.858 186.136 189.167 186.136 196.826C186.136 204.03 190.53 207.973 199.545 209.111L203.864 209.642C206.667 210.021 207.879 211.007 207.879 212.978C207.879 215.329 206.364 216.77 201.97 216.77C197.651 216.77 194.242 214.798 191.439 211.689L184.848 218.362C188.939 222.912 193.939 225.491 201.591 225.491ZM179.697 224.581V215.86H172.424V193.489H180.303V184.768H172.424V174H162.348V180.522C162.348 183.252 161.439 184.768 158.409 184.768H155.606V193.489H161.212V212.978C161.212 220.562 165.303 224.581 173.03 224.581H179.697ZM152.045 224.581V215.86H148.333V198.418C148.333 189.015 142.576 183.858 131.364 183.858C123.03 183.858 118.485 186.74 115.303 191.442L121.97 197.357C123.712 194.93 126.061 192.655 130.53 192.655C135.227 192.655 137.121 195.082 137.121 198.949V201.452H130.833C120.303 201.452 113.788 205.471 113.788 213.888C113.788 220.789 118.182 225.491 126.136 225.491C132.197 225.491 136.591 222.761 137.803 217.604H138.258C138.939 221.851 141.818 224.581 145.833 224.581H152.045ZM130.303 217.68C126.97 217.68 125.076 216.315 125.076 213.433V212.296C125.076 209.414 127.348 207.822 131.667 207.822H137.121V212.523C137.121 216.163 134.015 217.68 130.303 217.68ZM61.1364 224.581H72.6516L77.5001 207.746L80.2273 197.432H80.4546L83.2576 207.746L88.1061 224.581H99.8486L110.833 184.768H100.455L96.591 200.845L93.8637 212.978H93.5607L90.3031 200.845L85.6819 184.768H75.4546L70.9091 200.845L67.7273 212.978H67.4243L64.697 200.845L60.8334 184.768H50L61.1364 224.581Z" fill="#161616"/>
<path d="M321.971 224.581L329.32 211.613H329.623L337.274 224.581H350.002L336.744 204.713L349.926 184.769H338.108L330.911 197.281H330.608L323.183 184.769H310.456L323.411 204.333L310.305 224.581H321.971Z" fill="#0F62FE"/>
</g>
<defs>
<clipPath id="clip0_534_10">
<rect width="300" height="51.49" fill="white" transform="translate(50 174)"/>
</clipPath>
</defs>
</svg>
