<svg width="400" height="400" viewBox="0 0 400 390" fill="none" xmlns="http://www.w3.org/2000/svg">
<g clip-path="url(#clip0_43_23)">
<path fill-rule="evenodd" clip-rule="evenodd" d="M33.1288 309.91C56.4417 318.267 81.595 305.035 88.3435 279.964L114.724 183.16C122.086 158.089 108.589 130.928 85.276 122.571L83.4355 121.875C60.1226 113.517 34.9693 126.75 28.2208 151.821L1.84044 248.625C-5.52153 273.696 7.9754 300.857 31.2883 309.214L33.1288 309.91Z" fill="#084F99"/>
<path fill-rule="evenodd" clip-rule="evenodd" d="M312.27 34.1248C317.178 20.1962 326.38 9.74977 337.423 4.17834C338.037 4.17834 338.65 3.48191 339.264 3.48191C339.877 3.48191 339.877 3.48191 340.491 2.78548C349.693 -1.39309 359.509 -2.08952 368.712 1.39263L370.552 2.08905C393.865 10.4462 406.135 40.3926 398.159 68.9462L334.356 314.089C316.564 371.893 263.804 401.143 217.791 386.518C217.791 386.518 205.521 382.339 200.613 378.16C246.012 367.018 303.067 59.1962 312.27 34.1248Z" fill="#5EB7FF"/>
<path fill-rule="evenodd" clip-rule="evenodd" d="M40.4907 342.642C50.3067 346.125 60.7361 346.125 69.9386 344.035C71.1656 343.339 73.0061 343.339 74.2331 342.642C93.2515 335.678 109.202 318.267 115.951 294.589L165.644 107.946C173.62 79.3924 199.386 63.3746 222.699 71.7317L224.54 72.4282C247.853 80.7853 260.123 110.732 252.147 139.285C252.147 139.285 204.908 316.178 198.159 330.803C149.693 430.392 58.8957 381.642 33.1288 339.857C34.3558 340.553 36.1963 341.25 37.4233 341.946L40.4907 342.642Z" fill="#1479FB"/>
</g>
<defs>
<clipPath id="clip0_43_23">
<rect width="400" height="390" fill="white"/>
</clipPath>
</defs>
</svg>
