<svg xmlns="http://www.w3.org/2000/svg" width="199" height="36" viewBox="0 0 199 36" fill="none">
<path d="M87.8206 35.2944L90.0137 29.8311H91.3405L93.518 35.2944H91.8478L90.9737 32.9062C90.9164 32.7449 90.867 32.607 90.8254 32.4925C90.7837 32.3781 90.7473 32.2714 90.7161 32.1726C90.6849 32.0685 90.6537 31.9592 90.6224 31.8448C90.5912 31.7251 90.56 31.5846 90.5288 31.4233H90.7941C90.7629 31.5846 90.7317 31.7251 90.7005 31.8448C90.6693 31.9592 90.6355 32.0685 90.599 32.1726C90.5678 32.2714 90.5288 32.3781 90.482 32.4925C90.4403 32.607 90.3909 32.7449 90.3337 32.9062L89.4595 35.2944H87.8206ZM88.9132 34.4827L89.4049 33.3355H91.9414L92.3863 34.4827H88.9132Z" fill="black"/>
<path d="M98.9816 35.2944V34.2096L101.783 30.5102L102.501 31.3453H99.1845V29.8311H103.43V30.9082L100.644 34.6154L99.9181 33.874H103.516V35.2944H98.9816Z" fill="black"/>
<path d="M108.42 35.3725C107.988 35.3725 107.592 35.3022 107.233 35.1618C106.874 35.0213 106.562 34.8235 106.297 34.5686C106.031 34.3136 105.826 34.0119 105.68 33.6632C105.54 33.3146 105.47 32.9348 105.47 32.5238C105.47 32.1075 105.54 31.7277 105.68 31.3843C105.826 31.0357 106.031 30.7339 106.297 30.4789C106.562 30.224 106.874 30.0263 107.233 29.8858C107.592 29.7453 107.985 29.675 108.412 29.675C108.844 29.675 109.237 29.7453 109.59 29.8858C109.949 30.0263 110.262 30.224 110.527 30.4789C110.792 30.7339 110.995 31.0357 111.136 31.3843C111.281 31.7277 111.354 32.1049 111.354 32.516C111.354 32.9322 111.281 33.3146 111.136 33.6632C110.995 34.0119 110.792 34.3136 110.527 34.5686C110.262 34.8235 109.949 35.0213 109.59 35.1618C109.237 35.3022 108.846 35.3725 108.42 35.3725ZM108.412 33.8115C108.589 33.8115 108.75 33.7803 108.896 33.7179C109.047 33.6554 109.177 33.567 109.286 33.4525C109.401 33.3329 109.486 33.195 109.544 33.0389C109.606 32.8828 109.637 32.7111 109.637 32.5238C109.637 32.3365 109.606 32.1647 109.544 32.0087C109.486 31.8526 109.401 31.7173 109.286 31.6028C109.177 31.4831 109.047 31.3921 108.896 31.3296C108.75 31.2672 108.589 31.236 108.412 31.236C108.235 31.236 108.071 31.2672 107.92 31.3296C107.775 31.3921 107.644 31.4831 107.53 31.6028C107.421 31.7173 107.335 31.8526 107.272 32.0087C107.215 32.1647 107.187 32.3365 107.187 32.5238C107.187 32.7111 107.215 32.8828 107.272 33.0389C107.335 33.195 107.421 33.3329 107.53 33.4525C107.644 33.567 107.775 33.6554 107.92 33.7179C108.071 33.7803 108.235 33.8115 108.412 33.8115Z" fill="black"/>
<path d="M113.5 35.2944V29.8311H114.952L116.942 33.0701L115.764 33.0623L117.777 29.8311H119.182V35.2944H117.559V33.991C117.559 33.5228 117.569 33.1013 117.59 32.7267C117.616 32.3521 117.658 31.98 117.715 31.6106L117.902 32.1023L116.583 34.1471H116.068L114.773 32.1023L114.968 31.6106C115.025 31.9592 115.064 32.3182 115.085 32.6877C115.111 33.0519 115.124 33.4863 115.124 33.991V35.2944H113.5Z" fill="black"/>
<path d="M120.858 35.2944L123.051 29.8311H124.378L126.555 35.2944H124.885L124.011 32.9062C123.954 32.7449 123.904 32.607 123.863 32.4925C123.821 32.3781 123.785 32.2714 123.753 32.1726C123.722 32.0685 123.691 31.9592 123.66 31.8448C123.629 31.7251 123.597 31.5846 123.566 31.4233H123.831C123.8 31.5846 123.769 31.7251 123.738 31.8448C123.707 31.9592 123.673 32.0685 123.636 32.1726C123.605 32.2714 123.566 32.3781 123.519 32.4925C123.478 32.607 123.428 32.7449 123.371 32.9062L122.497 35.2944H120.858ZM121.951 34.4827L122.442 33.3355H124.979L125.424 34.4827H121.951Z" fill="black"/>
<path d="M129.144 35.2944V31.2672H127.458V29.8311H132.562V31.2672H130.829V35.2944H129.144Z" fill="black"/>
<path d="M137.031 35.3725C136.599 35.3725 136.204 35.3022 135.845 35.1618C135.486 35.0213 135.173 34.8235 134.908 34.5686C134.643 34.3136 134.437 34.0119 134.291 33.6632C134.151 33.3146 134.081 32.9348 134.081 32.5238C134.081 32.1075 134.151 31.7277 134.291 31.3843C134.437 31.0357 134.643 30.7339 134.908 30.4789C135.173 30.224 135.486 30.0263 135.845 29.8858C136.204 29.7453 136.596 29.675 137.023 29.675C137.455 29.675 137.848 29.7453 138.202 29.8858C138.561 30.0263 138.873 30.224 139.138 30.4789C139.404 30.7339 139.606 31.0357 139.747 31.3843C139.893 31.7277 139.965 32.1049 139.965 32.516C139.965 32.9322 139.893 33.3146 139.747 33.6632C139.606 34.0119 139.404 34.3136 139.138 34.5686C138.873 34.8235 138.561 35.0213 138.202 35.1618C137.848 35.3022 137.458 35.3725 137.031 35.3725ZM137.023 33.8115C137.2 33.8115 137.361 33.7803 137.507 33.7179C137.658 33.6554 137.788 33.567 137.897 33.4525C138.012 33.3329 138.098 33.195 138.155 33.0389C138.217 32.8828 138.248 32.7111 138.248 32.5238C138.248 32.3365 138.217 32.1647 138.155 32.0087C138.098 31.8526 138.012 31.7173 137.897 31.6028C137.788 31.4831 137.658 31.3921 137.507 31.3296C137.361 31.2672 137.2 31.236 137.023 31.236C136.846 31.236 136.682 31.2672 136.531 31.3296C136.386 31.3921 136.256 31.4831 136.141 31.6028C136.032 31.7173 135.946 31.8526 135.884 32.0087C135.826 32.1647 135.798 32.3365 135.798 32.5238C135.798 32.7111 135.826 32.8828 135.884 33.0389C135.946 33.195 136.032 33.3329 136.141 33.4525C136.256 33.567 136.386 33.6554 136.531 33.7179C136.682 33.7803 136.846 33.8115 137.023 33.8115Z" fill="black"/>
<path d="M148.657 35.3725C148.188 35.3725 147.772 35.3022 147.408 35.1618C147.049 35.0213 146.745 34.8235 146.495 34.5686C146.245 34.3136 146.055 34.0119 145.925 33.6632C145.8 33.3146 145.738 32.9348 145.738 32.5238C145.738 32.1075 145.808 31.7277 145.949 31.3843C146.094 31.0357 146.302 30.7339 146.573 30.4789C146.843 30.224 147.163 30.0263 147.533 29.8858C147.908 29.7453 148.324 29.675 148.782 29.675C149.099 29.675 149.393 29.7141 149.664 29.7921C149.939 29.8702 150.186 29.9768 150.405 30.1121C150.629 30.2422 150.821 30.3905 150.983 30.557L149.984 31.6184C149.879 31.5196 149.768 31.4337 149.648 31.3609C149.528 31.2828 149.396 31.223 149.25 31.1814C149.104 31.1345 148.94 31.1111 148.758 31.1111C148.571 31.1111 148.399 31.1475 148.243 31.2204C148.087 31.288 147.952 31.3843 147.837 31.5092C147.723 31.634 147.632 31.7849 147.564 31.9618C147.502 32.1335 147.47 32.3208 147.47 32.5238C147.47 32.7267 147.504 32.9166 147.572 33.0935C147.64 33.2652 147.733 33.4135 147.853 33.5384C147.973 33.6632 148.116 33.7621 148.282 33.835C148.449 33.9026 148.631 33.9364 148.828 33.9364C148.964 33.9364 149.086 33.9156 149.195 33.874C149.31 33.8271 149.406 33.7673 149.484 33.6945C149.567 33.6164 149.632 33.5254 149.679 33.4213C149.726 33.312 149.749 33.195 149.749 33.0701V32.8438L149.968 33.2184H148.579V32.0321H151.264C151.269 32.0893 151.274 32.183 151.279 32.313C151.29 32.4431 151.295 32.5732 151.295 32.7033C151.3 32.8281 151.303 32.914 151.303 32.9608C151.303 33.3094 151.238 33.632 151.107 33.9286C150.977 34.2252 150.793 34.4801 150.553 34.6935C150.319 34.9068 150.041 35.0733 149.718 35.193C149.396 35.3126 149.042 35.3725 148.657 35.3725Z" fill="black"/>
<path d="M153.333 35.2944V33.9286H154.293V31.197H153.333V29.8311H156.939V31.197H155.979V33.9286H156.939V35.2944H153.333Z" fill="black"/>
<path d="M160.836 35.2944L158.659 29.8311H160.344L161.218 32.2194C161.281 32.3807 161.33 32.5186 161.367 32.633C161.408 32.7475 161.445 32.8568 161.476 32.9608C161.507 33.0597 161.536 33.1663 161.562 33.2808C161.593 33.3953 161.627 33.5358 161.663 33.7023H161.39C161.442 33.4837 161.486 33.3042 161.523 33.1637C161.564 33.0233 161.609 32.8854 161.656 32.7501C161.708 32.6096 161.773 32.4327 161.851 32.2194L162.725 29.8311H164.356L162.163 35.2944H160.836Z" fill="black"/>
<path d="M166.112 35.2944V29.8311H170.194V31.197H167.727V33.9286H170.334V35.2944H166.112ZM166.916 33.1716V31.8916H169.905V33.1716H166.916Z" fill="black"/>
<path d="M172.535 35.2944V29.8311H175.048C175.443 29.8311 175.776 29.8858 176.047 29.995C176.323 30.1043 176.531 30.2578 176.671 30.4555C176.817 30.6532 176.89 30.8848 176.89 31.1501C176.89 31.4779 176.814 31.7485 176.663 31.9618C176.518 32.1752 176.302 32.3182 176.016 32.3911L175.992 32.2428C176.232 32.3 176.44 32.3937 176.617 32.5238C176.794 32.6486 176.931 32.8021 177.03 32.9842C177.129 33.1663 177.179 33.3745 177.179 33.6086C177.179 33.8948 177.127 34.1445 177.022 34.3579C176.918 34.566 176.77 34.7403 176.578 34.8808C176.39 35.0213 176.172 35.1253 175.922 35.193C175.677 35.2606 175.412 35.2944 175.126 35.2944H172.535ZM174.096 33.9676H175.079C175.178 33.9676 175.261 33.952 175.329 33.9208C175.396 33.8844 175.448 33.8324 175.485 33.7647C175.521 33.6919 175.54 33.606 175.54 33.5072C175.54 33.4187 175.519 33.3459 175.477 33.2886C175.441 33.2262 175.386 33.1794 175.313 33.1481C175.24 33.1117 175.149 33.0935 175.04 33.0935H174.096V33.9676ZM174.096 31.9696H174.759C174.879 31.9696 174.975 31.954 175.048 31.9228C175.126 31.8916 175.181 31.8474 175.212 31.7901C175.248 31.7277 175.266 31.6522 175.266 31.5638C175.266 31.4441 175.225 31.3479 175.142 31.275C175.063 31.197 174.931 31.1579 174.743 31.1579H174.096V31.9696Z" fill="black"/>
<path d="M178.543 35.2944L180.736 29.8311H182.063L184.241 35.2944H182.57L181.696 32.9062C181.639 32.7449 181.59 32.607 181.548 32.4925C181.506 32.3781 181.47 32.2714 181.439 32.1726C181.407 32.0685 181.376 31.9592 181.345 31.8448C181.314 31.7251 181.283 31.5846 181.251 31.4233H181.517C181.486 31.5846 181.454 31.7251 181.423 31.8448C181.392 31.9592 181.358 32.0685 181.322 32.1726C181.29 32.2714 181.251 32.3781 181.205 32.4925C181.163 32.607 181.113 32.7449 181.056 32.9062L180.182 35.2944H178.543ZM179.636 34.4827L180.127 33.3355H182.664L183.109 34.4827H179.636Z" fill="black"/>
<path d="M188.454 35.3725C188.017 35.3725 187.614 35.3022 187.245 35.1618C186.88 35.0213 186.563 34.8261 186.292 34.5764C186.027 34.3214 185.822 34.0197 185.676 33.6711C185.53 33.3224 185.457 32.94 185.457 32.5238C185.457 32.1075 185.53 31.7251 185.676 31.3765C185.827 31.0279 186.037 30.7287 186.308 30.4789C186.579 30.224 186.899 30.0263 187.268 29.8858C187.643 29.7453 188.054 29.675 188.501 29.675C188.756 29.675 189.006 29.7063 189.25 29.7687C189.5 29.8259 189.734 29.917 189.953 30.0419C190.177 30.1615 190.379 30.315 190.562 30.5023L189.555 31.6809C189.482 31.5924 189.393 31.5118 189.289 31.4389C189.191 31.3661 189.073 31.3088 188.938 31.2672C188.808 31.2204 188.657 31.197 188.486 31.197C188.309 31.197 188.14 31.2282 187.978 31.2906C187.822 31.3479 187.684 31.4337 187.565 31.5482C187.45 31.6626 187.359 31.8031 187.291 31.9696C187.224 32.1361 187.19 32.3286 187.19 32.5472C187.19 32.7449 187.224 32.9244 187.291 33.0857C187.359 33.247 187.455 33.3849 187.58 33.4994C187.705 33.6138 187.856 33.7023 188.033 33.7647C188.21 33.8271 188.407 33.8584 188.626 33.8584C188.782 33.8584 188.93 33.835 189.071 33.7881C189.211 33.7413 189.339 33.6815 189.453 33.6086C189.568 33.5306 189.667 33.4447 189.75 33.3511L190.554 34.6154C190.418 34.7611 190.239 34.8912 190.015 35.0057C189.792 35.1201 189.544 35.2112 189.274 35.2788C189.003 35.3413 188.73 35.3725 188.454 35.3725Z" fill="black"/>
<path d="M193.653 33.7413L193.083 32.4925L195.682 29.8311H197.594L193.653 33.7413ZM192.482 35.2944V29.8311H194.168V35.2944H192.482ZM195.908 35.2944L193.926 32.7111L195.019 31.7667L197.821 35.2944H195.908Z" fill="black"/>
<path d="M1 1.34018H5.46315L9.00101 14.1853L13.2328 1.34018H17.696L21.9278 14.1853L25.4657 1.34018H29.9288L24.1322 20.4855H20.0092L15.4916 7.32733L10.9468 20.4855H6.79665L1 1.34018Z" fill="black"/>
<path d="M37.0731 17.2197C37.6446 17.2197 38.2388 17.1018 38.8557 16.866C39.4816 16.621 39.9896 16.3126 40.3797 15.9407L42.9786 18.5941C42.3618 19.2472 41.5 19.7824 40.3933 20.1997C39.2956 20.617 38.198 20.8256 37.1003 20.8256C35.6943 20.8256 34.4016 20.4991 33.2223 19.8459C32.0521 19.1928 31.1313 18.2902 30.4601 17.1381C29.7978 16.0132 29.4667 14.716 29.4667 13.2464C29.4667 11.8313 29.7888 10.5477 30.4328 9.39562C31.0769 8.24355 31.9704 7.34094 33.1134 6.68779C34.202 6.06186 35.4539 5.7489 36.869 5.7489C38.3567 5.7489 39.6404 6.10722 40.7199 6.82387C41.7994 7.53144 42.6249 8.55651 43.1964 9.89908C43.7588 11.287 44.04 12.8564 44.04 14.6072H33.6441C33.88 15.4145 34.3018 16.0541 34.9096 16.5258C35.5265 16.9884 36.2476 17.2197 37.0731 17.2197ZM37.0459 9.34119C36.2748 9.34119 35.59 9.54983 34.9912 9.96712C34.3925 10.3844 33.9616 10.9559 33.6986 11.6816H40.1347C39.917 10.9378 39.5406 10.3617 39.0053 9.95351C38.4701 9.5453 37.817 9.34119 37.0459 9.34119Z" fill="black"/>
<path d="M52.6675 5.7489C53.9193 5.7489 55.0261 5.99836 55.9876 6.49729C56.9492 6.98715 57.6931 7.69472 58.2192 8.62001C58.7363 9.49994 58.9948 10.584 58.9948 11.8721V20.4855H55.0623V19.0431C54.5725 19.5965 53.9466 20.0319 53.1846 20.3494C52.4226 20.6669 51.6379 20.8256 50.8305 20.8256C49.7964 20.8256 48.8711 20.6351 48.0547 20.2541C47.2382 19.8731 46.5942 19.3288 46.1224 18.6213C45.6417 17.9228 45.4013 17.1245 45.4013 16.2264C45.4013 15.3102 45.6598 14.4892 46.1769 13.7635C46.6939 13.0287 47.4197 12.4527 48.354 12.0354C49.2702 11.6272 50.2817 11.4231 51.3884 11.4231C52.5496 11.4231 53.7742 11.668 55.0623 12.1579V11.8721C55.0623 10.974 54.7721 10.271 54.1915 9.76301C53.62 9.25501 52.8081 9.00101 51.7558 9.00101C50.5765 9.00101 49.3292 9.34573 48.0138 10.0352L46.6531 7.32733C48.7396 6.27504 50.7443 5.7489 52.6675 5.7489ZM51.7558 18.009C52.6267 18.009 53.366 17.8185 53.9738 17.4375C54.5816 17.0565 54.9444 16.5575 55.0623 15.9407V14.6072C54.128 14.2534 53.0984 14.0765 51.9735 14.0765C51.4837 14.0765 51.0346 14.1627 50.6264 14.335C50.2273 14.5074 49.9098 14.7523 49.6739 15.0698C49.438 15.3873 49.3201 15.732 49.3201 16.104C49.3201 16.6755 49.5469 17.1381 50.0005 17.4919C50.4541 17.8366 51.0392 18.009 51.7558 18.009Z" fill="black"/>
<path d="M70.4254 19.5602C69.9899 19.9412 69.4683 20.2496 68.8606 20.4855C68.2618 20.7122 67.6767 20.8256 67.1052 20.8256C66.2888 20.8256 65.5495 20.6397 64.8873 20.2677C64.2341 19.8958 63.7216 19.3697 63.3497 18.6893C62.9777 18.018 62.7918 17.2606 62.7918 16.4169V9.36841H60.8051V6.07547H62.7918V2.11579H66.6834V6.07547H69.8131V9.36841H66.6834V15.7774C66.6834 16.231 66.8149 16.6165 67.078 16.934C67.3411 17.2424 67.6677 17.3966 68.0577 17.3966C68.3389 17.3966 68.602 17.3558 68.8469 17.2742C69.1009 17.1835 69.3005 17.0655 69.4457 16.9204L70.4254 19.5602Z" fill="black"/>
<path d="M80.7402 5.7489C81.7562 5.7489 82.6769 5.98476 83.5024 6.45647C84.3279 6.92819 84.9674 7.58133 85.421 8.4159C85.8746 9.3049 86.1014 10.271 86.1014 11.3142V20.4855H82.1689V12.1851C82.1689 11.5954 82.0555 11.0738 81.8287 10.6203C81.6019 10.1667 81.2844 9.81291 80.8762 9.55891C80.4589 9.3049 79.9782 9.17791 79.4339 9.17791C78.8805 9.17791 78.3725 9.30037 77.9099 9.5453C77.4472 9.79023 77.0844 10.1259 76.8213 10.5522C76.5582 10.9786 76.4267 11.4458 76.4267 11.9538V20.4855H72.3581V1H76.4267V7.8308C76.8893 7.19579 77.5062 6.69233 78.2773 6.3204C79.0574 5.9394 79.8784 5.7489 80.7402 5.7489Z" fill="black"/>
<path d="M95.7766 17.2197C96.3481 17.2197 96.9423 17.1018 97.5592 16.866C98.1851 16.621 98.6931 16.3126 99.0832 15.9407L101.682 18.5941C101.065 19.2472 100.203 19.7824 99.0968 20.1997C97.9991 20.617 96.9015 20.8256 95.8038 20.8256C94.3978 20.8256 93.1051 20.4991 91.9258 19.8459C90.7556 19.1928 89.8348 18.2902 89.1635 17.1381C88.5013 16.0132 88.1702 14.716 88.1702 13.2464C88.1702 11.8313 88.4922 10.5477 89.1363 9.39562C89.7804 8.24355 90.6739 7.34094 91.8169 6.68779C92.9055 6.06186 94.1574 5.7489 95.5725 5.7489C97.0602 5.7489 98.3438 6.10722 99.4233 6.82387C100.503 7.53144 101.328 8.55651 101.9 9.89908C102.462 11.287 102.743 12.8564 102.743 14.6072H92.3476C92.5835 15.4145 93.0053 16.0541 93.6131 16.5258C94.2299 16.9884 94.9511 17.2197 95.7766 17.2197ZM95.7494 9.34119C94.9783 9.34119 94.2934 9.54983 93.6947 9.96712C93.096 10.3844 92.6651 10.9559 92.402 11.6816H98.8382C98.6205 10.9378 98.244 10.3617 97.7088 9.95351C97.1736 9.5453 96.5205 9.34119 95.7494 9.34119Z" fill="black"/>
<path d="M109.003 8.75608C109.493 7.80358 110.164 7.06426 111.017 6.53812C111.879 6.01197 112.854 5.7489 113.943 5.7489V9.17791C112.945 9.17791 112.074 9.3548 111.33 9.70858C110.586 10.0624 110.015 10.5749 109.616 11.2462C109.207 11.9084 109.003 12.6931 109.003 13.6002V20.4855H104.935V6.07547H109.003V8.75608Z" fill="black"/>
<path d="M131.701 20.8256C130.041 20.8256 128.549 20.4582 127.224 19.7235C125.909 18.9887 124.884 17.9591 124.149 16.6346C123.405 15.3465 123.033 13.8724 123.033 12.2123V1.34018H127.129V12.0354C127.129 12.9879 127.324 13.8542 127.714 14.6344C128.113 15.4054 128.662 16.0087 129.361 16.4441C130.059 16.8705 130.839 17.0837 131.701 17.0837C132.581 17.0837 133.361 16.8705 134.042 16.4441C134.731 16.0178 135.271 15.4145 135.661 14.6344C136.051 13.8905 136.246 13.0242 136.246 12.0354V1.34018H140.369V12.2123C140.369 13.8633 140.002 15.3465 139.267 16.6618C138.541 17.9681 137.516 18.9841 136.192 19.7098C134.903 20.4537 133.407 20.8256 131.701 20.8256Z" fill="black"/>
<path d="M151.759 5.7489C152.775 5.7489 153.695 5.98476 154.521 6.45647C155.346 6.92819 155.986 7.58133 156.44 8.4159C156.893 9.3049 157.12 10.271 157.12 11.3142V20.4855H153.187V12.1851C153.187 11.5954 153.074 11.0738 152.847 10.6203C152.62 10.1667 152.303 9.81291 151.895 9.55891C151.477 9.3049 150.997 9.17791 150.452 9.17791C149.899 9.17791 149.391 9.30037 148.928 9.5453C148.466 9.79023 148.103 10.1259 147.84 10.5522C147.577 10.9786 147.445 11.4458 147.445 11.9538L147.418 11.8721V20.4855H143.349V6.07547H147.418V7.88522C147.844 7.21394 148.439 6.69233 149.201 6.3204C149.972 5.9394 150.824 5.7489 151.759 5.7489Z" fill="black"/>
<path d="M159.964 6.07547H164.033V20.4855H159.964V6.07547Z" fill="black"/>
<path d="M174.103 20.8256C172.715 20.8256 171.413 20.4855 170.197 19.8051C168.991 19.1157 168.029 18.1813 167.313 17.002C166.587 15.8681 166.224 14.6253 166.224 13.2737C166.224 11.9402 166.573 10.6974 167.272 9.5453C167.979 8.38415 168.946 7.45887 170.17 6.76944C171.35 6.08908 172.66 5.7489 174.103 5.7489C175.482 5.7489 176.77 6.08908 177.967 6.76944C179.174 7.44072 180.144 8.36147 180.879 9.53169C181.587 10.6838 181.94 11.9311 181.94 13.2737C181.94 14.5981 181.587 15.8454 180.879 17.0156C180.172 18.1768 179.214 19.1021 178.008 19.7915C176.829 20.4809 175.527 20.8256 174.103 20.8256ZM174.103 17.3966C174.801 17.3966 175.454 17.2061 176.062 16.8251C176.679 16.4441 177.169 15.9361 177.532 15.3011C177.885 14.6843 178.062 14.0084 178.062 13.2737C178.062 12.557 177.885 11.8812 177.532 11.2462C177.178 10.6112 176.697 10.1032 176.089 9.72219C175.482 9.35933 174.819 9.17791 174.103 9.17791C173.404 9.17791 172.751 9.36387 172.143 9.7358C171.545 10.0987 171.055 10.5976 170.674 11.2326C170.302 11.9039 170.116 12.5842 170.116 13.2737C170.116 13.9903 170.297 14.6707 170.66 15.3147C171.023 15.9497 171.513 16.4577 172.13 16.8387C172.774 17.2107 173.431 17.3966 174.103 17.3966Z" fill="black"/>
<path d="M192.459 5.7489C193.475 5.7489 194.396 5.98476 195.222 6.45647C196.047 6.92819 196.687 7.58133 197.14 8.4159C197.594 9.3049 197.821 10.271 197.821 11.3142V20.4855H193.888V12.1851C193.888 11.5954 193.775 11.0738 193.548 10.6203C193.321 10.1667 193.004 9.81291 192.595 9.55891C192.178 9.3049 191.697 9.17791 191.153 9.17791C190.6 9.17791 190.092 9.30037 189.629 9.5453C189.166 9.79023 188.804 10.1259 188.54 10.5522C188.277 10.9786 188.146 11.4458 188.146 11.9538L188.119 11.8721V20.4855H184.05V6.07547H188.119V7.88522C188.545 7.21394 189.139 6.69233 189.901 6.3204C190.672 5.9394 191.525 5.7489 192.459 5.7489Z" fill="black"/>
</svg>