<svg width="400" height="400" viewBox="0 0 400 400" fill="none" xmlns="http://www.w3.org/2000/svg">
<g clip-path="url(#clip0_333_57)">
<path d="M350 200C350 282.5 282.5 350 200 350C117.5 350 50 282.5 50 200C50 117.5 117.5 50 200 50C282.5 50 350 117.5 350 200Z" fill="#4353FF"/>
<path d="M245.75 180.725C245.75 180.725 232.775 221.375 231.8 224.825C231.425 221.375 221.975 148.325 221.975 148.325C199.85 148.325 188.075 164 181.85 180.725C181.85 180.725 166.1 221.525 164.825 224.975C164.75 221.75 162.425 181.175 162.425 181.175C161.075 160.775 142.475 148.4 127.4 148.4L145.55 259.1C168.725 259.025 181.175 243.35 187.7 226.7C187.7 226.7 201.575 190.7 202.175 189.05C202.325 190.625 212.15 259.1 212.15 259.1C235.325 259.1 247.85 244.4 254.6 228.35L287 148.325C264.05 148.325 251.975 164 245.75 180.725Z" fill="white"/>
</g>
<defs>
<clipPath id="clip0_333_57">
<rect width="300" height="300" fill="white" transform="translate(50 50)"/>
</clipPath>
</defs>
</svg>
