<svg width="400" height="400" viewBox="0 0 400 400" fill="none" xmlns="http://www.w3.org/2000/svg">
<path d="M174.396 319.964C149.844 354.764 101.919 363.506 67.2778 339.297C32.8051 315.088 24.7334 266.839 48.9484 231.702C55.7203 221.873 64.6828 213.75 75.1295 207.973C85.5764 202.197 97.2224 198.924 109.15 198.415L109.99 222.455C94.6878 223.632 79.8898 231.534 70.3047 245.32C53.4887 269.528 58.7017 302.143 81.7396 318.451C104.946 334.59 137.4 328.37 154.216 304.329C159.429 296.764 162.456 288.526 163.633 280.12V263.14L257.466 262.468L258.644 260.618C267.556 245.151 286.894 239.772 302.029 248.514C305.652 250.632 308.82 253.444 311.356 256.788C313.89 260.131 315.741 263.942 316.804 268.001C317.865 272.06 318.117 276.288 317.544 280.445C316.971 284.601 315.584 288.604 313.464 292.224C304.551 307.523 285.045 312.903 269.91 304.161C263.016 300.294 258.139 294.074 255.953 287.013L187.512 287.349C185.508 299.028 181.036 310.147 174.396 319.964ZM296.816 199.928C339.36 205.139 369.629 243.302 364.416 285.163C359.203 327.193 320.526 356.95 277.982 351.738C266.168 350.362 254.826 346.298 244.826 339.857C234.828 333.417 226.439 324.771 220.303 314.584L241.155 302.48C245.469 309.157 251.2 314.803 257.943 319.017C264.685 323.229 272.274 325.906 280.168 326.857C309.596 330.387 335.661 310.381 339.192 282.305C342.723 254.23 321.872 228.508 292.78 224.977C283.699 223.969 274.955 225.145 267.052 228.003L252.758 235.401L209.373 155.208H205.673C197.207 154.962 189.183 151.375 183.354 145.233C177.525 139.091 174.365 130.89 174.564 122.425C175.068 104.941 190.203 91.3236 207.859 91.9961C225.516 93.0048 239.473 107.295 238.969 124.779C238.633 132.176 235.774 138.901 231.234 144.113L263.184 203.122C273.61 199.76 285.045 198.583 296.816 199.928ZM137.232 154.2C120.416 114.692 138.241 69.4683 177.086 52.9928C216.099 36.5172 261.166 55.1783 277.982 94.686C287.903 117.718 285.885 142.936 274.619 163.11L253.767 151.005C260.83 137.388 262.007 120.744 255.28 105.109C243.846 78.2104 213.409 65.2654 187.344 76.193C161.111 87.2888 149.34 118.222 160.775 145.121C165.483 156.217 173.387 164.791 182.972 170.507L189.53 174.038L137.905 257.928C138.409 258.769 139.082 259.778 139.587 261.123C147.826 276.421 142.109 295.755 126.638 303.993C111.336 312.23 91.9973 306.178 83.5893 290.375C75.3495 274.74 81.0669 255.407 96.5376 247.169C103.096 243.638 110.327 242.798 117.221 244.311L156.066 180.93C148.163 173.701 141.436 164.623 137.232 154.2Z" fill="black"/>
</svg>
