<svg width="400" height="189" viewBox="0 0 400 189" fill="none" xmlns="http://www.w3.org/2000/svg">
<path fill-rule="evenodd" clip-rule="evenodd" d="M228.849 3.5318C220.923 8.57763 217.972 17.1022 217.972 40.6426C217.972 40.6426 221.985 35.9278 227.938 33.3002C232.279 31.3953 235.986 28.484 238.126 26.5792C244.824 20.6147 245.864 12.9412 245.864 0.0125524C245.864 0.0125524 234.941 -0.345451 228.849 3.5318ZM181.842 9.04641C175.378 15.9701 173.488 27.0074 173.488 27.0074L152.088 127.769L134.29 45.2994C132.556 36.5317 129.432 25.697 124.485 18.368C118.188 9.0329 105.387 8.44524 104.025 8.44524C102.658 8.44524 89.8567 9.0329 83.5535 18.368C78.6121 25.697 75.4883 36.5317 73.7541 45.2994L55.9561 127.769L34.5508 27.0074C34.5508 27.0074 32.6666 15.9701 26.2022 9.04641C15.7191 -2.18005 0 0.217898 0 0.217898L40.9819 188.521C40.9819 188.521 54.4999 189.71 61.27 185.515C70.1522 180.017 74.3822 175.768 79.7627 150.147C84.554 127.303 97.9552 60.2072 99.2058 55.4316C99.8284 53.0742 100.612 47.4339 104.025 47.4339C107.504 47.4339 108.227 53.0674 108.833 55.4316C110.061 60.214 123.485 127.303 128.282 150.147C133.662 175.768 137.887 180.017 146.774 185.515C153.539 189.71 167.057 188.521 167.057 188.521L208.039 0.217898C208.039 0.217898 192.325 -2.18005 181.842 9.04641ZM245.85 30.9596C245.85 30.9596 243.288 35.7826 237.435 39.7544C233.683 42.3077 230.076 44.0369 226.207 46.293C219.726 50.0689 217.969 54.2772 217.969 60.6942V62.8423V72.7583V73.0285V75.2643V188.522C217.969 188.522 228.314 190.116 235.078 185.921C243.782 180.531 245.783 175.33 245.861 151.911V37.782L245.85 37.7887V30.9596ZM348.001 94.8269L400 0.84069C400 0.84069 378.056 -3.69853 367.189 8.31825C360.235 16.012 352.459 29.8458 352.459 29.8458L333.327 63.3631C332.399 65.1058 331.182 67.0039 329.242 67.0039C327.302 67.0039 326.09 65.1058 325.162 63.3631L306.03 29.8458C306.03 29.8458 298.254 16.012 291.3 8.31825C280.434 -3.69853 258.489 0.84069 258.489 0.84069L310.482 94.8269L258.623 188.523C258.623 188.523 281.479 192.035 292.345 180.005C299.299 172.318 306.03 159.808 306.03 159.808L325.162 126.297C326.09 124.548 327.302 122.657 329.242 122.657C331.182 122.657 332.399 124.548 333.327 126.297L352.459 159.808C352.459 159.808 359.579 172.318 366.533 180.005C377.405 192.035 399.861 188.523 399.861 188.523L348.001 94.8269Z" fill="black"/>
</svg>
