<svg width="400" height="241" viewBox="0 0 400 241" fill="none" xmlns="http://www.w3.org/2000/svg">
<g clip-path="url(#clip0_221_2)">
<path d="M37.1876 0H362.813C383.281 0 400 16.9206 400 37.7946V163.513C400 184.387 383.281 201.308 362.656 201.308H245.938L262.031 241L191.563 201.308H37.3439C16.7189 201.308 0.000109797 184.387 0.000109797 163.513V37.7946C-0.15614 17.0787 16.5626 0 37.1876 0Z" fill="#7F54B3"/>
<path d="M22.8131 34.4734C25.1568 31.3107 28.4381 29.7293 33.1256 29.4131C41.4068 28.7805 46.0943 32.7339 47.3443 41.2733C52.3443 75.7471 57.9693 104.844 63.7506 128.723L99.3756 60.0915C102.657 53.7661 106.719 50.6034 111.563 50.2871C118.751 49.8127 123.126 54.3986 124.844 64.045C128.751 85.7097 134.063 104.37 140.157 120.183C144.376 78.4354 151.563 48.2313 161.563 29.7293C164.063 25.1434 167.657 22.7713 172.344 22.4551C176.094 22.1388 179.532 23.2457 182.657 25.7759C185.782 28.3061 187.344 31.3107 187.657 35.106C187.813 38.1106 187.344 40.4826 186.094 43.0128C179.688 54.873 174.532 74.7982 170.313 102.472C166.251 129.355 164.844 150.229 165.782 165.094C166.094 169.206 165.469 172.843 163.907 176.006C162.032 179.643 159.063 181.54 155.313 181.857C151.094 182.173 146.719 180.275 142.501 175.689C127.344 160.034 115.313 136.63 106.563 105.635C95.9381 126.667 88.1256 142.481 83.1256 153.076C73.5943 171.736 65.4693 181.224 58.5943 181.699C54.2193 182.015 50.4693 178.22 47.1881 170.313C38.9068 148.806 30.0006 107.058 20.3131 45.3849C19.5318 41.1152 20.4693 37.3199 22.8131 34.4734ZM372.188 60.2497C366.407 49.8127 357.657 43.6454 346.251 41.1152C343.126 40.4826 340.157 40.1663 337.501 40.1663C321.876 40.1663 309.219 48.3894 299.219 64.8356C290.782 78.7517 286.563 94.249 286.563 111.17C286.563 123.821 289.219 134.732 294.376 143.746C300.157 154.183 308.907 160.35 320.313 162.88C323.438 163.513 326.407 163.829 329.063 163.829C344.844 163.829 357.501 155.606 367.344 139.16C375.782 125.086 380.001 109.588 380.001 92.5095C380.157 79.8586 377.344 69.1053 372.188 60.2497ZM351.719 105.793C349.376 116.704 345.313 124.769 339.376 130.146C334.688 134.416 330.313 136.313 326.251 135.365C322.344 134.574 319.063 131.095 316.719 124.611C314.844 119.551 313.751 114.332 313.751 109.588C313.751 105.477 314.063 101.365 314.844 97.5699C316.251 90.77 319.063 84.2864 323.438 77.961C328.751 69.896 334.532 66.5751 340.313 67.6821C344.219 68.4728 347.501 71.9518 349.844 78.4354C351.719 83.4958 352.813 88.7143 352.813 93.4584C352.813 97.8862 352.501 101.998 351.719 105.793ZM270.469 60.2497C264.688 49.8127 255.782 43.6454 244.532 41.1152C241.407 40.4826 238.438 40.1663 235.782 40.1663C220.157 40.1663 207.501 48.3894 197.501 64.8356C189.063 78.7517 184.844 94.249 184.844 111.17C184.844 123.821 187.501 134.732 192.657 143.746C198.438 154.183 207.188 160.35 218.751 162.88C221.876 163.513 224.844 163.829 227.501 163.829C243.282 163.829 255.938 155.606 265.782 139.16C274.219 125.086 278.438 109.588 278.438 92.5095C278.282 79.8586 275.626 69.1053 270.469 60.2497ZM249.844 105.793C247.501 116.704 243.438 124.769 237.501 130.146C232.813 134.416 228.438 136.313 224.376 135.365C220.469 134.574 217.188 131.095 214.844 124.611C212.969 119.551 211.876 114.332 211.876 109.588C211.876 105.477 212.188 101.365 212.969 97.5699C214.376 90.77 217.188 84.2864 221.563 77.961C226.876 69.896 232.657 66.5751 238.438 67.6821C242.344 68.4728 245.626 71.9518 247.969 78.4354C249.844 83.4958 250.938 88.7143 250.938 93.4584C251.094 97.8862 250.626 101.998 249.844 105.793Z" fill="white"/>
</g>
<defs>
<clipPath id="clip0_221_2">
<rect width="400" height="241" fill="white"/>
</clipPath>
</defs>
</svg>
