<svg width="400" height="400" viewBox="0 0 400 400" fill="none" xmlns="http://www.w3.org/2000/svg">
<path d="M120.362 169.227C134.981 169.227 141.714 172.463 152.294 185.178L208.656 252.914C210.387 254.994 210.579 255.688 210.964 256.844C211.157 257.306 211.157 257.769 211.157 258.231C211.157 258.693 211.157 259.156 210.964 259.618C210.579 260.774 210.387 261.699 208.656 263.548L170.183 310.246C168.452 312.327 167.875 312.558 166.913 313.021C166.528 313.252 166.144 313.252 165.759 313.252C165.374 313.252 164.99 313.252 164.605 313.021C163.643 312.558 162.874 312.327 161.335 310.246L51.6882 178.936C48.6104 175.237 49.7645 169.227 54.9583 169.227H120.362Z" fill="#08CF65"/>
<path d="M279.639 86.2312C265.019 86.2312 258.287 89.6989 247.707 102.183L191.344 170.15C189.613 172.23 189.421 172.924 189.036 174.08C188.844 174.542 188.844 175.004 188.844 175.467C188.844 175.929 188.844 176.391 189.036 176.854C189.421 178.01 189.613 178.934 191.344 180.784L230.009 227.02C231.741 229.1 232.318 229.332 233.279 229.794C233.664 230.025 234.049 230.025 234.434 230.025C234.818 230.025 235.203 230.025 235.588 229.794C236.55 229.332 237.319 229.1 238.858 227.02L348.312 95.7096C351.39 92.0107 350.236 86 345.042 86H279.639V86.2312Z" fill="#08CF65"/>
</svg>
