<svg width="400" height="400" viewBox="0 0 400 400" fill="none" xmlns="http://www.w3.org/2000/svg">
<g clip-path="url(#clip0_581_36)">
<path d="M62.9414 247.338L52.7188 152H71.3863L76.7198 212.155L82.0534 152H99.8319L104.943 212.155L110.055 152H128.944L118.5 247.338H95.6096L90.8317 201.389L86.2757 247.338H62.9414Z" fill="black"/>
<path d="M134.367 152H163.702C168.369 152 171.962 153.073 174.48 155.219C177.073 157.29 178.814 160.25 179.703 164.098C180.591 167.871 181.036 172.718 181.036 178.637C181.036 184.038 180.332 188.256 178.925 191.29C177.517 194.323 175.073 196.432 171.591 197.616C174.48 198.208 176.554 199.651 177.814 201.944C179.147 204.238 179.814 207.346 179.814 211.267L179.592 247.338H160.924V210.046C160.924 207.383 160.406 205.681 159.368 204.941C158.331 204.201 156.442 203.831 153.701 203.831V247.338H134.367V152ZM158.368 187.294C161.035 187.294 162.369 184.408 162.369 178.637C162.369 176.121 162.257 174.235 162.035 172.977C161.813 171.719 161.406 170.868 160.813 170.424C160.22 169.906 159.368 169.647 158.257 169.647H153.813V187.294H158.368Z" fill="black"/>
<path d="M186.43 247.338V152H204.875V247.338H186.43Z" fill="black"/>
<path d="M220.717 247.338V170.313H209.383V152H251.162V170.313H239.828V247.338H220.717Z" fill="black"/>
<path d="M256.555 247.338V152H294.779V170.424H276V188.959H294.001V206.939H276V228.803H296.001V247.338H256.555Z" fill="black"/>
<path d="M300.672 152H330.006C334.672 152 338.267 153.073 340.784 155.219C343.378 157.29 345.118 160.25 346.007 164.098C346.896 167.871 347.34 172.718 347.34 178.637C347.34 184.038 346.637 188.256 345.23 191.29C343.822 194.323 341.379 196.432 337.896 197.616C340.784 198.208 342.86 199.651 344.12 201.944C345.45 204.238 346.119 207.346 346.119 211.267L345.895 247.338H327.23V210.046C327.23 207.383 326.711 205.681 325.672 204.941C324.636 204.201 322.746 203.831 320.006 203.831V247.338H300.672V152ZM324.674 187.294C327.339 187.294 328.672 184.408 328.672 178.637C328.672 176.121 328.563 174.235 328.34 172.977C328.119 171.719 327.71 170.868 327.118 170.424C326.526 169.906 325.672 169.647 324.562 169.647H320.117V187.294H324.674Z" fill="black"/>
</g>
<defs>
<clipPath id="clip0_581_36">
<rect width="300" height="95.45" fill="white" transform="translate(50 152)"/>
</clipPath>
</defs>
</svg>
