<svg width="400" height="400" viewBox="0 0 400 400" fill="none" xmlns="http://www.w3.org/2000/svg">
<g clip-path="url(#clip0_535_20)">
<path d="M223.629 240.107C229.377 240.107 234.093 237.418 237.401 232.417L238.021 239.073H249.309V167.743H237.113V193.504C234.051 188.872 229.503 186.433 224.168 186.433C212.384 186.433 204.155 196.4 204.155 213.643C204.155 230.636 212.134 240.107 223.629 240.107ZM298.683 235.599V225.634C294.878 228.197 288.511 230.471 282.556 230.471C273.623 230.471 270.233 226.254 269.737 217.652H299.176V211.162C299.176 193.218 291.281 186.433 279.082 186.433C264.194 186.433 257.126 197.805 257.126 213.435C257.126 231.379 265.932 240.107 281.563 240.107C289.338 240.107 295.085 238.038 298.683 235.599ZM167.187 202.021C169.461 199.251 173.019 196.896 177.443 196.896C181.742 196.896 183.687 198.755 183.687 202.644V239.073H195.884V201.402C195.884 191.149 191.79 186.64 181.826 186.64C174.547 186.64 170.246 189.329 167.765 191.768H167.148L166.856 187.467H154.943V239.073H167.142V202.024L167.187 202.021ZM145.024 203.883C145.024 191.353 138.654 186.64 125.712 186.64C117.69 186.64 111.239 190.033 107.56 192.677V203.263C111.446 200.078 117.401 196.4 124.307 196.4C130.139 196.4 132.825 198.466 132.825 204.006V207.273H130.882C112.192 207.273 103.879 213.312 103.879 224.104C103.879 234.068 110.246 239.816 119.675 239.816C126.87 239.816 129.931 237.46 132.286 234.979H132.783C132.867 236.303 133.279 238.038 133.694 239.073H145.601C145.19 234.881 144.983 230.673 144.982 226.461V203.883H145.024ZM336.23 239.073H349.999L333.169 212.485L347.726 187.467H335.527L326.717 203.056L316.876 187.467H303.065L318.654 212.196L302.445 239.073H314.852L325.228 221.622L336.23 239.073ZM227.229 196.069C233.804 196.069 237.07 201.321 237.07 213.189C237.07 225.18 233.594 230.432 226.691 230.432C220.032 230.432 216.724 225.301 216.724 213.601C216.766 201.405 220.24 196.069 227.229 196.069ZM278.874 196.069C284.913 196.069 286.772 201.113 286.772 207.564V208.599H269.737C270.026 200.37 273.003 196.066 278.877 196.066L278.874 196.069ZM132.825 226.747C131.294 229.021 128.4 230.841 124.099 230.841C118.971 230.841 116.409 227.863 116.409 223.355C116.409 217.403 120.626 215.336 131.086 215.336H132.825V226.747Z" fill="black"/>
<path d="M85.8093 226.958V239.073H73.4056V218.645L50 167.743H62.9421L81.1776 207.564C84.6935 215.174 85.8093 217.818 85.8093 226.958ZM109.131 167.743L93.915 202.229H81.3037L96.5196 167.743H109.131Z" fill="#FC3F1D"/>
</g>
<defs>
<clipPath id="clip0_535_20">
<rect width="300" height="120.56" fill="white" transform="translate(50 140)"/>
</clipPath>
</defs>
</svg>
