<svg width="400" height="400" viewBox="0 0 400 400" fill="none" xmlns="http://www.w3.org/2000/svg">
<path d="M93.4011 176.176L77.4437 205.717V223.505H67.55V205.717L51.2734 176.176H62.7628L72.6564 196.823L82.2309 176.176H93.4011ZM132.337 202.858H109.039V214.929H135.529V223.505H99.4649V176.176H134.571V184.434H109.359V194.599H132.656V202.858H132.337ZM163.614 206.352H153.401V223.505H143.507V176.176H164.252C169.039 176.176 172.869 177.446 175.742 179.987C178.614 182.529 179.89 186.34 179.89 191.423C179.89 197.14 178.614 200.952 175.742 203.176C172.869 205.399 169.039 206.352 163.614 206.352ZM168.401 196.505C169.678 195.234 170.316 193.646 170.316 191.105C170.316 188.564 169.678 186.976 168.401 185.705C167.124 184.752 165.21 184.117 162.976 184.117H153.72V198.411H162.976C165.21 198.411 166.805 197.776 168.401 196.505ZM186.593 176.176H196.486V223.505H186.593V176.176ZM239.571 220.011C236.061 223.187 231.593 224.776 225.848 224.776C219.146 224.776 213.72 222.552 209.571 218.105C205.742 213.658 203.827 207.623 203.827 199.999C203.827 191.74 206.061 185.387 210.529 180.94C214.359 177.129 219.465 175.223 225.21 175.223C233.188 175.223 238.933 177.764 242.763 183.164C244.678 186.023 245.954 189.199 245.954 192.058H236.061C235.422 189.834 234.465 187.929 233.507 186.976C231.593 185.07 229.039 183.799 225.529 183.799C222.018 183.799 219.146 185.387 216.912 188.246C214.678 191.105 213.72 195.234 213.72 200.634C213.72 206.034 214.678 209.846 216.912 212.705C219.146 215.246 222.018 216.517 225.21 216.517C228.72 216.517 231.273 215.246 233.188 213.023C234.146 211.752 235.103 209.846 235.742 207.623H245.635C245.316 212.387 243.082 216.834 239.571 220.011Z" fill="black"/>
<path d="M318.722 186.342H325.105L334.998 213.659H328.615L327.02 207.942H316.807L314.892 213.659H308.828L318.722 186.342ZM318.403 203.495H325.424L321.913 192.695L318.403 203.495Z" fill="url(#paint0_linear_583_97)"/>
<path d="M347.448 213.659H341.703V186.342H347.448V213.659Z" fill="url(#paint1_linear_583_97)"/>
<path d="M284.893 207.941C289.361 207.941 292.872 204.447 292.872 200C293.191 195.553 289.361 192.059 284.893 192.059C280.425 192.059 276.914 195.553 276.914 200C276.914 204.447 280.744 207.941 284.893 207.941Z" fill="url(#paint2_linear_583_97)"/>
<defs>
<linearGradient id="paint0_linear_583_97" x1="299.835" y1="214.196" x2="358.941" y2="182.805" gradientUnits="userSpaceOnUse">
<stop stop-color="#FF0067"/>
<stop offset="0.47" stop-color="#DB27B1"/>
<stop offset="0.83" stop-color="#C340E1"/>
<stop offset="1" stop-color="#BA4AF4"/>
</linearGradient>
<linearGradient id="paint1_linear_583_97" x1="283.797" y1="232.065" x2="342.902" y2="200.675" gradientUnits="userSpaceOnUse">
<stop stop-color="#FF0067"/>
<stop offset="0.47" stop-color="#DB27B1"/>
<stop offset="0.83" stop-color="#C340E1"/>
<stop offset="1" stop-color="#BA4AF4"/>
</linearGradient>
<linearGradient id="paint2_linear_583_97" x1="277.034" y1="200" x2="293.064" y2="200" gradientUnits="userSpaceOnUse">
<stop stop-color="#FF0067"/>
<stop offset="0.99" stop-color="#BA4AF4"/>
</linearGradient>
</defs>
</svg>
