
<svg width="400" height="125" viewBox="0 0 400 125" fill="none" xmlns="http://www.w3.org/2000/svg">
<g clip-path="url(#clip0_221_22)">
<path fill-rule="evenodd" clip-rule="evenodd" d="M22.5589 17.6923L37.2054 64.0385L52.6936 17.6923H74.5791L37.2054 125H15.4882L26.5993 91.7308L0 17.6923H22.5589ZM253.872 15.9615C273.569 15.9615 288.047 33.4615 288.047 57.5C288.047 81.5385 273.569 99.0385 253.872 99.0385C246.633 99.0385 240.404 96.9231 235.69 92.5L235.354 92.3077L235.017 92.1154V125H213.973V17.6923H232.66V25.7692L232.828 25.5769C237.374 19.6154 244.444 16.3462 253.03 16.1538H253.535L253.872 15.9615ZM112.963 15.9615C134.68 15.9615 150.168 33.0769 150.168 57.5C150.168 81.7308 134.68 99.0385 112.963 99.0385C91.0774 99.0385 75.5892 81.7308 75.5892 57.5C75.7576 33.0769 91.0774 15.9615 112.963 15.9615ZM185.354 0V17.6923H202.694V38.4615H185.354V67.1154C185.354 73.4615 188.047 77.1154 193.098 77.3077H193.266H193.434C196.801 77.3077 199.327 76.3462 201.684 73.8462L201.852 73.6538L202.357 73.0769H202.525V95.9615L201.852 96.3461C198.316 98.2692 196.296 99.0385 190.236 99.0385C173.569 99.0385 164.31 88.6538 163.973 69.2308V68.6538V68.0769V38.4615H156.397V17.6923H164.646V0H185.354ZM334.007 15.9615C355.724 15.9615 371.212 33.0769 371.212 57.5C371.212 81.7308 355.724 99.0385 334.007 99.0385C312.121 99.0385 296.633 81.7308 296.633 57.5C296.801 33.0769 312.121 15.9615 334.007 15.9615ZM388.552 72.6923C394.949 72.6923 400.168 78.6538 400.168 85.9615C400.168 93.2692 394.949 99.2308 388.552 99.2308C382.155 99.2308 376.936 93.2692 376.936 85.9615C376.936 78.6538 382.155 72.6923 388.552 72.6923ZM250.673 37.6923C241.246 37.6923 234.68 45.7692 234.68 57.5C234.68 69.4231 241.077 77.3077 250.673 77.3077C260.269 77.3077 266.835 69.2308 266.835 57.5C266.667 45.5769 260.269 37.6923 250.673 37.6923ZM112.963 37.6923C103.367 37.6923 96.8013 45.7692 96.8013 57.5C96.8013 69.2308 103.367 77.3077 112.963 77.3077C122.391 77.3077 128.956 69.2308 128.956 57.5C128.956 45.7692 122.391 37.6923 112.963 37.6923ZM334.007 37.6923C324.411 37.6923 317.845 45.7692 317.845 57.5C317.845 69.2308 324.411 77.3077 334.007 77.3077C343.434 77.3077 350 69.2308 350 57.5C350 45.7692 343.434 37.6923 334.007 37.6923Z" fill="#0042E4"/>
</g>
<defs>
<clipPath id="clip0_221_22">
<rect width="400" height="125" fill="white"/>
</clipPath>
</defs>
</svg>
