<svg width="400" height="400" viewBox="0 0 400 400" fill="none" xmlns="http://www.w3.org/2000/svg">
<g clip-path="url(#clip0_705_6)">
<path d="M336.715 253.57C335.858 252.713 280.572 199.57 280.572 199.57C280.572 199.57 322.572 154.999 333.715 143.856C337.143 140.427 340.143 136.999 342.286 132.713C357.715 106.57 348.715 73.1416 322.572 57.713C303.286 46.5701 279.286 48.2844 262.143 61.1416C259.143 63.2844 256.572 65.4273 254.001 67.9987C252.715 69.713 194.429 122.856 143.858 169.142L238.572 229.142L139.143 340.999C133.143 345.284 127.143 347.856 120.715 349.142C122.001 349.142 122.858 349.142 124.143 348.713C143.858 345.713 312.286 317.427 320.429 315.713C330.286 313.999 339.286 307.999 344.858 298.999C354.286 283.57 350.001 264.284 336.715 253.57Z" fill="url(#paint0_linear_705_6)"/>
<path d="M246.715 180.712C245.001 169.141 239.001 159.712 230.43 152.855C221.43 145.998 152.001 73.9981 144.287 65.8553C132.287 54.2838 115.144 47.8553 97.5724 50.8553C67.5724 55.141 46.5724 83.4267 51.2867 113.427C53.4296 128.427 62.001 141.284 73.1438 149.427C84.2867 157.998 171.715 217.998 177.287 222.284C186.287 229.141 198.287 232.998 210.287 230.855C233.858 226.57 250.572 204.284 246.715 180.712Z" fill="url(#paint1_linear_705_6)"/>
<path d="M148.572 340.571C149 340.571 248.429 228.714 248.429 228.714L148.143 165.285C112.572 197.857 79.5719 227.428 71.8576 234.714C67.1434 238.999 62.4291 244.571 59.0005 250.571C40.5719 282.285 51.2862 322.571 83.0005 340.999C95.8576 348.285 125.001 357.285 148.572 340.571Z" fill="url(#paint2_linear_705_6)"/>
<path d="M292.573 107.426H107.43V292.569H292.573V107.426Z" fill="black"/>
<path d="M194.003 257.855H124.574V269.427H194.003V257.855Z" fill="white"/>
<path d="M152.002 178.141L122.859 131.855H142.574L160.574 162.284L179.431 131.855H198.717L169.145 177.713V208.57H152.002V178.141Z" fill="white"/>
<path d="M228.286 147.284H204.715V131.855H268.572V147.284H245.001V208.57H228.286V147.284Z" fill="white"/>
</g>
<defs>
<linearGradient id="paint0_linear_705_6" x1="80.3563" y1="284.653" x2="324.74" y2="173.253" gradientUnits="userSpaceOnUse">
<stop stop-color="#905CFB"/>
<stop offset="0.1649" stop-color="#6677F8"/>
<stop offset="0.3776" stop-color="#3596F5"/>
<stop offset="0.5401" stop-color="#17A9F3"/>
<stop offset="0.6317" stop-color="#0CB0F2"/>
</linearGradient>
<linearGradient id="paint1_linear_705_6" x1="179.901" y1="170.559" x2="54.5777" y2="59.8677" gradientUnits="userSpaceOnUse">
<stop stop-color="#905CFB"/>
<stop offset="0.0717604" stop-color="#A554E6"/>
<stop offset="0.2523" stop-color="#D641B5"/>
<stop offset="0.3901" stop-color="#F43597"/>
<stop offset="0.4677" stop-color="#FF318C"/>
</linearGradient>
<linearGradient id="paint2_linear_705_6" x1="71.3558" y1="301.508" x2="367.24" y2="115.071" gradientUnits="userSpaceOnUse">
<stop stop-color="#905CFB"/>
<stop offset="0.1649" stop-color="#6677F8"/>
<stop offset="0.3776" stop-color="#3596F5"/>
<stop offset="0.5401" stop-color="#17A9F3"/>
<stop offset="0.6317" stop-color="#0CB0F2"/>
</linearGradient>
<clipPath id="clip0_705_6">
<rect width="300" height="300" fill="white" transform="translate(50 50)"/>
</clipPath>
</defs>
</svg>
