<svg width="400" height="400" viewBox="0 0 400 400" fill="none" xmlns="http://www.w3.org/2000/svg">
<path d="M200 144V310H62L200 144Z" fill="#03363D"/>
<path d="M200 84C200 102.3 192.73 119.85 179.79 132.79C166.85 145.73 149.3 153 131 153C112.7 153 95.1496 145.73 82.2096 132.79C69.2696 119.85 62 102.3 62 84H200Z" fill="#03363D"/>
<path d="M222 250V84H360L222 250Z" fill="#03363D"/>
<path d="M306.103 290.005C305.354 289.958 304.617 290.241 304.041 290.797C303.465 291.353 303.093 292.14 303 293H309C308.957 292.16 308.629 291.374 308.086 290.813C307.544 290.252 306.831 289.962 306.103 290.005Z" fill="#03363D"/>
<path d="M291 241C272.699 241.004 255.148 248.275 242.209 261.215C229.269 274.154 222 291.703 222 310H360C360.002 300.939 358.219 291.967 354.752 283.596C351.285 275.225 346.203 267.618 339.796 261.211C333.388 254.803 325.781 249.72 317.409 246.253C309.036 242.785 300.062 241 291 241Z" fill="#03363D"/>
</svg>
