<svg width="393" height="400" viewBox="0 0 393 400" fill="none" xmlns="http://www.w3.org/2000/svg">
<path d="M374.329 87.1154L216.235 4.65397C204.18 -1.55132 189.377 -1.55132 177.322 4.65397L19.3803 87.1154C7.32483 93.3207 0 105.042 0 117.59V282.375C0 294.924 7.47743 306.507 19.3803 312.85L177.322 395.312C183.273 398.483 189.988 400 196.702 400C203.417 400 210.131 398.483 216.083 395.312L282.159 360.838C294.214 354.632 301.539 342.911 301.539 330.363V199.914C301.539 199.914 301.539 199.914 301.539 199.776C301.539 199.224 301.539 198.811 301.386 198.259C301.386 197.845 301.234 197.294 301.081 196.88C301.081 196.742 301.081 196.742 300.928 196.604C300.776 196.191 300.623 195.915 300.471 195.501C300.471 195.363 300.471 195.363 300.318 195.225C300.165 194.812 299.86 194.398 299.555 193.984C299.25 193.571 298.945 193.157 298.639 192.743L298.487 192.605C298.182 192.33 297.876 191.916 297.571 191.64L297.419 191.502C296.656 190.813 295.74 190.261 294.824 189.71L202.806 141.722C198.839 139.654 193.803 139.654 189.835 141.722L104.379 186.262L25.3317 145.031V117.452C25.3317 113.316 27.7733 109.454 31.7409 107.248L189.683 24.7867C193.65 22.7183 198.686 22.7183 202.654 24.7867L360.595 107.248C364.563 109.317 367.005 113.178 367.005 117.452V282.237C367.005 286.374 364.563 290.235 360.595 292.442L329.923 308.437C323.666 311.609 321.53 318.78 325.192 324.433C328.702 330.087 336.637 332.018 342.894 328.708L373.566 312.712C385.622 306.507 392.947 294.786 392.947 282.237V117.452C393.71 105.042 386.232 93.3207 374.329 87.1154ZM196.855 165.44L262.931 199.914L196.855 234.388L130.779 199.914L196.855 165.44ZM190.446 257.968C192.429 259.071 194.718 259.485 196.855 259.485C198.991 259.485 201.28 258.933 203.264 257.968L275.749 220.184V330.225C275.749 334.362 273.308 338.223 269.34 340.429L203.264 374.903C199.296 376.971 194.261 376.971 190.293 374.903L32.3513 292.442C28.3837 290.373 25.9421 286.512 25.9421 282.237V172.197L190.446 257.968Z" fill="#14105E"/>
</svg>
