<svg width="400" height="361" viewBox="0 0 400 361" fill="none" xmlns="http://www.w3.org/2000/svg">
<g opacity="0.9">
<path d="M286.404 296.304C260.891 296.304 240.067 274.595 240.067 247.998C240.067 234.484 244.067 223.558 251.927 215.65C254.134 213.494 256.478 211.625 258.96 210.043C256.754 207.599 255.651 204.293 255.927 200.699C256.616 193.942 262.27 189.053 268.752 189.772C278.957 190.779 290.955 195.235 301.435 201.561C303.09 201.561 304.745 201.705 306.262 201.705C312.744 201.849 317.846 207.456 317.57 214.213C317.57 214.357 317.57 214.357 317.57 214.357C326.948 224.133 332.188 235.634 332.74 247.423C333.43 260.793 329.292 272.582 321.156 281.64C312.606 290.841 299.919 296.304 286.404 296.304ZM294.402 225.714C284.611 225.858 273.716 227.296 268.2 233.046C265.028 236.353 263.373 241.097 263.373 247.854C263.373 261.081 273.716 271.863 286.404 271.863C293.575 271.863 300.056 269.276 304.194 264.675C307.917 260.506 309.71 255.043 309.434 248.573C308.882 238.078 299.919 229.74 294.402 225.714Z" fill="#F9B21D"/>
</g>
<path d="M104.645 361C91.9574 361 79.8217 356.112 70.582 347.198C61.3423 338.285 55.4124 326.208 54.1712 313.125L52.6543 296.305L42.1734 294.436C15.2818 289.548 -2.9218 263.813 0.387941 235.635L11.5583 143.624C12.3858 136.579 15.6955 130.397 20.798 126.084C25.3489 122.346 31.1409 120.333 37.0709 120.477C43.0009 120.621 48.7929 122.777 53.2059 126.659C58.1705 130.972 61.3423 137.298 61.894 144.342L77.3394 310.825C78.7185 325.489 90.4405 336.56 104.507 336.56H349.014C356.875 336.56 364.046 333.253 369.286 327.215C374.527 321.176 377.009 313.413 376.181 305.362L352.599 50.3186C351.22 35.6543 339.498 24.5842 325.432 24.5842H80.925C73.0643 24.5842 65.8932 27.8909 60.6528 33.9291C55.4124 39.9673 52.9301 47.7308 53.6196 55.7818L55.1366 72.4588C55.2745 73.4651 56.1019 74.3278 57.0672 74.3278H305.436C311.917 74.3278 317.158 79.7909 317.158 86.548C317.158 93.305 312.055 98.6244 305.574 98.6244H57.3431C44.242 98.6244 33.3474 88.417 32.1063 74.7591L30.5893 58.082C29.2103 43.274 33.8991 28.4659 43.5525 17.3959C53.2059 6.32577 66.8586 0 81.0629 0H325.57C338.257 0 350.393 4.88809 359.633 13.8017C369.01 22.7153 374.802 34.7917 376.043 47.8746L399.763 302.918C401.142 317.726 396.454 332.534 386.8 343.604C377.147 354.674 363.494 361 349.29 361H104.645ZM36.6572 145.061C35.0023 145.061 34.8644 146.068 34.7265 146.787L23.694 238.654C21.9013 253.749 31.6926 267.695 46.1727 270.283L50.3099 271.002L38.7258 146.787C38.5879 146.068 38.5879 145.061 36.6572 145.061C36.7951 145.061 36.7951 145.061 36.6572 145.061Z" fill="#226DB4"/>
</svg>
