<svg width="400" height="367" viewBox="0 0 400 367" fill="none" xmlns="http://www.w3.org/2000/svg">
<path d="M364.577 367H141.431C128.743 367 117.296 360.146 110.952 348.721C104.608 337.297 104.608 323.588 110.952 312.307L179.496 189.783C183.771 182.215 191.356 177.645 199.769 177.645C208.182 177.645 215.767 182.215 220.042 189.783L252.728 248.189L292.309 177.502L209.975 30.4167C206.94 24.9903 201.838 24.4191 199.769 24.4191C197.7 24.4191 192.735 24.9903 189.563 30.4167L25.0315 324.445C21.9973 329.872 23.9281 334.727 25.0315 336.583C26.1348 338.44 29.031 342.724 35.2371 342.724H77.1631C83.6451 342.724 88.8858 348.15 88.8858 354.862C88.8858 361.574 83.6451 367 77.1631 367H35.2371C22.549 367 11.1021 360.146 4.75805 348.721C-1.58602 337.297 -1.58602 323.588 4.75805 312.307L169.428 18.1358C175.772 6.71167 187.219 0 199.907 0C212.595 0 223.904 6.85448 230.386 18.1358L306.101 153.369L365.956 46.5533C369.266 40.6984 376.437 38.842 381.954 42.1265C387.608 45.5537 389.539 52.9794 386.229 58.6914L319.617 177.502L395.056 312.164C401.4 323.588 401.4 337.154 395.056 348.579C388.712 360.146 377.403 367 364.577 367ZM199.907 201.921L131.363 324.445C128.329 329.872 130.26 334.727 131.363 336.583C132.329 338.44 135.363 342.724 141.569 342.724H364.715C370.783 342.724 373.817 338.44 374.92 336.583C375.886 334.727 377.954 329.872 374.92 324.445L306.239 201.779L273.415 260.47C269.14 268.039 261.555 272.608 253.142 272.608C244.729 272.608 237.144 268.039 232.868 260.47L199.907 201.921Z" fill="#27123B"/>
<path d="M388.16 111.957C382.919 111.957 378.23 108.387 376.851 102.961L367.749 67.6889L333.684 77.1138C327.478 78.8274 320.996 74.9718 319.341 68.5457C317.686 62.1196 321.41 55.408 327.616 53.6944L373.128 41.1278C379.334 39.4142 385.816 43.2698 387.471 49.6959L399.607 96.6776C401.262 103.104 397.538 109.815 391.332 111.529C390.091 111.815 389.126 111.957 388.16 111.957Z" fill="#27123B"/>
</svg>
