<svg width="400" height="400" viewBox="0 0 400 400" fill="none" xmlns="http://www.w3.org/2000/svg">
<path d="M389.932 96.966C383.449 81.6556 374.07 67.8625 362.346 56.0005C350.484 44.1384 336.69 34.897 321.38 28.4143C316.277 26.2074 311.035 24.4143 305.794 23.035V12.0005C305.794 5.51774 300.553 0.276367 294.07 0.276367C287.587 0.276367 282.346 5.51774 282.346 12.0005V18.7591C278.622 18.4833 274.897 18.2074 271.173 18.2074H152.966C146.484 18.2074 141.242 23.4488 141.242 29.9315C141.242 36.4143 146.484 41.6557 152.966 41.6557H271.173C274.897 41.6557 278.622 41.7936 282.346 42.2074V48.2763C282.346 54.7591 287.587 60.0005 294.07 60.0005C300.553 60.0005 305.794 54.7591 305.794 48.2763V47.4488C320.69 52.5522 334.346 61.1039 345.794 72.5522C365.794 92.5522 376.69 119.035 376.69 147.173V270.897C376.69 299.035 365.656 325.655 345.794 345.518C325.794 365.518 299.311 376.552 271.035 376.552H242.346C235.863 376.552 230.622 381.793 230.622 388.276C230.622 394.759 235.863 400 242.346 400H271.035C288.415 400 305.38 396.552 321.242 389.793C336.553 383.311 350.346 373.931 362.208 362.207C374.07 350.345 383.311 336.552 389.794 321.242C396.553 305.38 400.001 288.414 400.001 271.035V147.311C400.001 129.794 396.69 112.966 389.932 96.966Z" fill="#226DB4"/>
<path d="M257.931 270.896C257.931 253.517 254.483 236.552 247.724 220.69C241.241 205.379 231.862 191.586 220.138 179.724C208.414 167.862 194.483 158.621 179.172 152.138C163.31 145.379 146.345 141.931 128.966 141.931C111.586 141.931 94.6207 145.379 78.7586 152.138C63.4483 158.621 49.6552 168 37.7931 179.724C32.5517 184.965 27.7241 190.759 23.4483 196.69V147.172C23.4483 122.621 32.1379 98.7586 47.7241 79.862C60 64.9655 76.2759 53.7931 94.2069 47.5862V48.1379C94.2069 54.6207 99.4483 59.862 105.931 59.862C112.414 59.862 117.655 54.6207 117.655 48.1379V32.4138V32.2758V11.7241C117.655 5.24138 112.414 0 105.931 0C99.4483 0 94.2069 5.24138 94.2069 11.7241V22.8965C69.1035 29.931 46.4828 44.6896 29.6552 64.8275C20.2759 76.1379 12.9655 88.8275 7.86207 102.621C2.62069 116.965 0 131.862 0 147.172V270.896C0 288.276 3.44828 305.241 10.2069 321.103C16.6897 336.414 26.069 350.207 37.7931 362.069C49.6552 373.931 63.4483 383.172 78.7586 389.655C94.6207 396.414 111.586 399.862 128.966 399.862C129.655 399.862 130.207 399.862 130.897 399.724C147.586 399.448 163.862 396.138 179.172 389.655C194.483 383.172 208.276 373.793 220.138 362.069C232 350.207 241.241 336.414 247.724 321.103C254.483 305.241 257.931 288.276 257.931 270.896ZM203.586 345.517C183.586 365.517 157.103 376.414 128.966 376.414C100.828 376.414 74.2069 365.379 54.3448 345.517C34.3448 325.517 23.4483 299.034 23.4483 270.896C23.4483 242.758 34.4828 216.138 54.3448 196.276C74.2069 176.414 100.828 165.379 128.966 165.379C157.103 165.379 183.724 176.414 203.586 196.276C223.586 216.276 234.483 242.758 234.483 270.896C234.483 299.034 223.586 325.517 203.586 345.517Z" fill="#226DB4"/>
<path d="M128.966 282.758C125.793 282.758 122.759 281.517 120.414 279.034L82.4829 238.62C78.0691 233.931 78.3449 226.483 83.0346 222.069C87.7243 217.655 95.1725 217.931 99.5863 222.62L129.517 254.483L237.379 154.069C242.069 149.655 249.517 149.931 253.931 154.621C258.345 159.31 258.069 166.758 253.379 171.172L136.966 279.586C134.759 281.655 131.862 282.758 128.966 282.758Z" fill="#089949"/>
</svg>
