<svg width="400" height="329" viewBox="0 0 400 329" fill="none" xmlns="http://www.w3.org/2000/svg">
<path d="M399.967 161.28C399.415 141.364 391.83 122.495 378.865 108.419C350.73 77.8698 304.94 77.8698 276.805 108.419C263.84 122.495 256.255 141.364 255.703 161.28C255.151 181.197 261.496 200.515 273.632 215.49L307.285 256.97C307.423 257.12 307.423 257.12 307.423 257.12C307.423 257.12 307.423 257.12 307.423 257.27C311.698 262.361 314.181 269.1 314.181 275.989C314.181 291.263 302.733 303.543 288.804 303.543C274.736 303.543 263.426 291.113 263.426 275.989C263.426 268.95 258.185 263.26 251.703 263.26H147.85C141.368 263.26 136.127 268.95 136.127 275.989C136.127 291.263 124.679 303.543 110.749 303.543C96.8196 303.543 85.3722 291.113 85.3722 275.989C85.3722 268.95 80.1313 263.26 73.6491 263.26H23.5843V151.996L97.6471 110.964H199.845C206.328 110.964 211.569 105.274 211.569 98.2358C211.569 91.1975 206.328 85.5071 199.845 85.5071H113.094L138.609 25.4574H376.52V72.6286C376.52 79.6668 381.761 85.3573 388.244 85.3573C394.726 85.3573 399.967 79.6668 399.967 72.6286V12.7287C399.967 5.69049 394.726 0 388.244 0H131.162C126.61 0 122.473 2.84524 120.542 7.33773L85.9239 88.9513L6.48222 132.828C2.62047 134.924 0 139.417 0 144.209V275.989C0 283.027 5.24094 288.717 11.7232 288.717H63.3051C68.546 311.779 87.8548 329 110.749 329C133.644 329 152.953 311.779 158.194 288.717H241.497C246.738 311.779 266.047 329 288.942 329C315.836 329 337.765 305.19 337.765 275.989C337.765 262.661 333.214 249.932 324.939 240.049L291.424 198.718C274.46 177.753 275.425 146.006 293.493 126.389C312.526 105.723 343.42 105.723 362.315 126.389C380.382 146.006 381.348 177.903 364.384 198.718L349.074 217.586C344.799 222.827 345.213 230.914 350.178 235.556C355.005 240.198 362.453 239.749 366.728 234.358L382.037 215.49C394.174 200.665 400.518 181.347 399.967 161.28Z" fill="#089949"/>
</svg>
