<svg width="400" height="400" viewBox="0 0 400 400" fill="none" xmlns="http://www.w3.org/2000/svg">
<path d="M183.111 239.654C180.752 239.654 178.363 239.164 176.065 238.153L127.05 216.311C118.289 212.42 114.337 202.097 118.227 193.335L140.07 144.32C143.96 135.559 154.284 131.607 163.045 135.498L212.06 157.34C220.822 161.23 224.774 171.554 220.883 180.316L199.041 229.331C196.131 235.825 189.759 239.654 183.111 239.654ZM180.139 228.963C183.846 230.617 188.196 228.932 189.851 225.256L211.693 176.241C213.347 172.535 211.662 168.184 207.986 166.53L158.94 144.688C155.234 143.034 150.884 144.718 149.229 148.395L127.387 197.41C125.733 201.116 127.418 205.466 131.094 207.121L180.139 228.963Z" fill="#089949"/>
<path d="M336.865 239.685H283.194C273.605 239.685 265.793 231.873 265.793 222.285V168.613C265.793 159.025 273.605 151.213 283.194 151.213H336.865C346.454 151.213 354.265 159.025 354.265 168.613V222.285C354.265 231.873 346.454 239.685 336.865 239.685ZM283.194 161.261C279.15 161.261 275.841 164.569 275.841 168.613V222.285C275.841 226.328 279.15 229.637 283.194 229.637H336.865C340.909 229.637 344.217 226.328 344.217 222.285V168.613C344.217 164.569 340.909 161.261 336.865 161.261H283.194Z" fill="#F9B21D"/>
<path d="M135.873 178.447L128.643 194.622C128.551 194.806 128.459 194.959 128.367 195.112L131.186 212.512C131.829 216.525 129.103 220.293 125.12 220.937L72.1226 229.514C70.1926 229.821 68.232 229.361 66.639 228.228C65.0461 227.094 64.0045 225.379 63.6981 223.449L55.1205 170.451C54.8142 168.521 55.2737 166.561 56.4072 164.968C57.5406 163.375 59.2562 162.333 61.1861 162.027L114.184 153.449C114.582 153.388 114.98 153.357 115.348 153.357C118.871 153.357 122.026 155.931 122.608 159.545L125.457 177.068L132.932 160.311L132.534 157.952C131.002 148.486 122.057 142.023 112.591 143.554L59.5931 152.132C55.0286 152.836 50.9849 155.318 48.2891 159.086C45.5626 162.854 44.4904 167.449 45.2256 172.044L53.8032 225.042C54.5385 229.637 57.0198 233.65 60.7879 236.376C63.7594 238.551 67.2824 239.654 70.9279 239.654C71.8469 239.654 72.7966 239.593 73.7462 239.44L126.744 230.862C136.21 229.331 142.674 220.385 141.142 210.919L135.873 178.447Z" fill="#E42527"/>
<path d="M199.439 203.751L207.22 186.32L205.015 170.114C204.739 168.184 205.26 166.254 206.454 164.692C207.649 163.13 209.365 162.119 211.325 161.874L264.507 154.644C264.844 154.613 265.181 154.583 265.517 154.583C267.11 154.583 268.642 155.103 269.959 156.084C270.205 156.268 270.419 156.482 270.633 156.666C272.992 154.184 276.086 152.408 279.548 151.642C278.568 150.294 277.404 149.099 276.025 148.058C272.318 145.239 267.754 144.044 263.159 144.657L209.916 151.887C205.321 152.5 201.216 154.889 198.428 158.596C195.61 162.303 194.415 166.867 195.028 171.462L199.439 203.751Z" fill="#226DB4"/>
<path d="M289.933 212.727L282.948 161.261C279.027 161.384 275.872 164.631 275.872 168.583V183.686L280.008 214.075C280.283 216.005 279.763 217.935 278.568 219.497C277.373 221.06 275.658 222.07 273.697 222.316L220.516 229.545C218.586 229.821 216.656 229.3 215.093 228.105C213.531 226.911 212.52 225.195 212.275 223.235L209.824 205.191L202.043 222.622L202.319 224.582C202.931 229.178 205.321 233.283 209.028 236.07C212.091 238.399 215.737 239.624 219.535 239.624C220.332 239.624 221.128 239.563 221.925 239.471L275.045 232.302C279.64 231.69 283.745 229.3 286.533 225.593C289.351 221.887 290.546 217.322 289.933 212.727Z" fill="#226DB4"/>
<path d="M139.886 265.142L147.483 253.93H141.234C140.897 253.93 140.621 253.654 140.621 253.317V251.816C140.621 251.479 140.897 251.204 141.234 251.204H151.496C151.833 251.204 152.109 251.479 152.109 251.816V252.398C152.109 252.521 152.078 252.643 152.017 252.735L144.573 263.948H151.251C151.588 263.948 151.864 264.223 151.864 264.56V266.061C151.864 266.398 151.588 266.674 151.251 266.674H140.407C140.07 266.674 139.794 266.398 139.794 266.061V265.51C139.763 265.357 139.825 265.234 139.886 265.142Z" fill="black"/>
<path d="M171.868 258.831C171.868 254.236 175.238 250.928 179.833 250.928C184.581 250.928 187.798 254.175 187.798 258.862C187.798 263.61 184.52 266.888 179.772 266.888C174.993 266.888 171.868 263.61 171.868 258.831ZM184.153 258.893C184.153 256.105 182.805 253.715 179.772 253.715C176.708 253.715 175.544 256.197 175.544 259.015C175.544 261.68 176.984 264.131 179.925 264.131C182.958 264.101 184.153 261.497 184.153 258.893Z" fill="black"/>
<path d="M209.579 251.173H211.846C212.183 251.173 212.459 251.449 212.459 251.786V257.484H218.892V251.786C218.892 251.449 219.168 251.173 219.505 251.173H221.772C222.109 251.173 222.384 251.449 222.384 251.786V266.031C222.384 266.368 222.109 266.643 221.772 266.643H219.535C219.198 266.643 218.923 266.368 218.923 266.031V260.271H212.489V266.031C212.489 266.368 212.214 266.643 211.877 266.643H209.61C209.273 266.643 208.997 266.368 208.997 266.031V251.786C208.966 251.449 209.242 251.173 209.579 251.173Z" fill="black"/>
<path d="M243.553 258.831C243.553 254.236 246.922 250.928 251.518 250.928C256.266 250.928 259.482 254.175 259.482 258.862C259.482 263.61 256.205 266.888 251.456 266.888C246.677 266.888 243.553 263.61 243.553 258.831ZM255.806 258.893C255.806 256.105 254.458 253.715 251.426 253.715C248.362 253.715 247.198 256.197 247.198 259.015C247.198 261.68 248.638 264.131 251.579 264.131C254.612 264.101 255.806 261.497 255.806 258.893Z" fill="black"/>
</svg>
