<svg width="400" height="370" viewBox="0 0 400 370" fill="none" xmlns="http://www.w3.org/2000/svg">
<path d="M378.17 7.34516C364.225 -1.67112 347.105 -2.3867 332.47 5.19843L195.92 75.8975C195.229 76.1837 194.539 76.47 193.987 76.8993L132.27 108.814C124.538 112.821 117.911 118.975 113.354 126.704C108.798 134.432 106.313 143.305 106.313 152.321V217.582C106.313 226.598 108.798 235.471 113.354 243.2C117.911 250.785 124.538 257.082 132.27 261.089L173.829 282.556L57.2985 342.951C49.9809 346.815 41.4206 346.386 34.5172 341.949C27.4757 337.513 23.3336 329.784 23.3336 321.341V48.5624C23.3336 40.1186 27.4757 32.3904 34.5172 27.9538C41.4206 23.5172 49.9809 23.0879 57.2985 26.952L147.319 73.4645C153.118 76.47 160.16 74.037 163.059 68.0262C165.959 62.0153 163.611 54.7164 157.813 51.711L67.9298 5.19843C53.2945 -2.3867 36.174 -1.52801 22.2291 7.34516C8.28412 16.2183 0 31.6748 0 48.7056V321.341C0 338.371 8.28412 353.828 22.2291 362.701C29.8228 367.567 38.245 370 46.8053 370C53.9849 370 61.1645 368.283 67.7918 364.848L199.924 296.295L226.157 282.699L267.853 261.089C275.585 257.082 282.213 250.928 286.769 243.2C291.325 235.471 293.81 226.741 293.81 217.582V152.321C293.81 143.305 291.325 134.432 286.769 126.704C282.213 119.118 275.585 112.821 267.853 108.814L226.295 87.3468L342.687 26.952C350.004 23.0879 358.565 23.5172 365.468 27.9538C372.509 32.3904 376.652 40.1186 376.652 48.5624V321.198C376.652 329.641 372.509 337.37 365.468 341.806C358.565 346.243 350.004 346.672 342.687 342.808L252.39 296.152C246.591 293.147 239.549 295.58 236.65 301.591C233.75 307.602 236.098 314.9 241.896 317.906L332.193 364.705C338.821 368.139 346 369.857 353.18 369.857C361.74 369.857 370.162 367.424 377.756 362.558C391.701 353.685 399.985 338.228 399.985 321.198V48.7056C400.399 31.6748 392.115 16.2183 378.17 7.34516ZM257.498 130.568C265.506 134.718 270.477 143.019 270.477 152.321V217.582C270.477 226.884 265.506 235.185 257.498 239.335L200.062 269.103L142.901 239.479C134.893 235.328 129.923 227.028 129.923 217.725V152.464C129.923 143.162 134.893 134.861 142.901 130.711L200.338 100.943L257.498 130.568Z" fill="#28163B"/>
</svg>
