<svg width="400" height="400" viewBox="0 0 400 400" fill="none" xmlns="http://www.w3.org/2000/svg">
<path d="M317.242 269.887C310.759 269.887 305.518 264.644 305.518 258.159V194.413C305.518 187.79 300.139 182.409 293.518 182.409H106.483C99.8627 182.409 94.4834 187.79 94.4834 194.413V207.797C94.4834 214.282 89.2421 219.525 82.7593 219.525C76.2765 219.525 71.0352 214.282 71.0352 207.797V194.413C71.0352 174.958 86.8972 158.952 106.483 158.952H293.518C312.966 158.952 328.966 174.82 328.966 194.413V258.159C328.966 264.644 323.725 269.887 317.242 269.887Z" fill="#F9B21D"/>
<path d="M364.552 400H35.4483C16 400 0 384.132 0 364.54V270.99C0 264.505 5.24138 259.262 11.7241 259.262C18.2069 259.262 23.4483 264.505 23.4483 270.99V364.54C23.4483 371.162 28.8276 376.544 35.4483 376.544H364.552C371.172 376.544 376.552 371.162 376.552 364.54V166.126C376.552 162.401 374.897 159.089 372 156.744L207.448 26.078C203.035 22.6285 196.966 22.6285 192.552 26.078L28 156.744C25.1035 158.951 23.4483 162.401 23.4483 166.126V206.278C23.4483 210.693 25.931 214.695 29.7931 216.902L194.345 304.519C197.931 306.451 202.069 306.451 205.655 304.519L311.724 247.948C317.379 244.912 324.552 247.12 327.586 252.777C330.621 258.434 328.414 265.609 322.759 268.644L216.69 325.216C206.207 330.735 193.793 330.735 183.448 325.216L18.7586 237.461C7.17241 231.252 0 219.248 0 206.14V165.988C0 155.088 4.96552 145.016 13.3793 138.255L177.931 7.7268C184.138 2.75957 192 0 200 0C208 0 215.724 2.75957 222.069 7.7268L386.621 138.393C395.172 145.154 400 155.226 400 166.126V364.677C400 384.132 384.138 400 364.552 400Z" fill="#226DB4"/>
</svg>
