<svg width="342" height="400" viewBox="0 0 342 400" fill="none" xmlns="http://www.w3.org/2000/svg">
<path d="M12.5332 400C10.1739 400 7.66727 399.31 5.60295 398.068C1.4743 395.585 -0.590022 391.031 0.147236 386.478L35.978 180.476C37.8948 169.438 43.9404 159.503 52.9349 152.328C61.9295 145.154 73.5781 141.152 85.3743 141.152H232.973L241.231 93.8255H227.37C221.177 93.8255 215.427 91.3418 211.445 86.9265C207.464 82.5112 205.695 76.8541 206.727 71.197L216.164 16.4195C217.786 6.89893 226.485 0 236.807 0H291.806C306.552 0 320.412 6.07106 329.996 16.5574C339.581 27.0438 343.709 40.8417 341.35 54.5016L319.232 181.994C318.2 187.513 314.809 192.48 309.648 195.516L186.084 266.851C178.564 271.128 168.979 270.714 162.049 265.471L104.543 222.559C99.0872 218.558 98.2025 211.107 102.626 206.14C106.902 201.035 114.865 200.207 120.173 204.346L175.467 245.602L294.903 176.337L316.726 50.6382C317.905 43.8772 315.841 36.9783 311.123 31.7351C306.404 26.4919 299.474 23.4564 292.101 23.4564H240.641L232.531 70.3691H246.244C252.437 70.3691 258.188 72.8527 262.169 77.268C266.15 81.6833 267.919 87.3405 266.887 92.9976L257.303 148.051C255.681 157.572 246.981 164.471 236.66 164.471H85.3743C72.9883 164.471 62.6667 172.749 60.6024 184.201L29.1952 364.815L73.2832 339.289C76.5272 337.358 80.3609 336.392 84.3421 336.392H245.802C258.188 336.392 268.509 328.113 270.573 316.661L280.6 258.848C281.78 252.501 288.12 248.086 294.903 249.189C301.686 250.293 306.404 256.226 305.225 262.573L295.198 320.386C293.281 331.425 287.236 341.359 278.241 348.534C269.246 355.709 257.598 359.71 245.802 359.71H85.3743L19.021 398.206C17.1042 399.448 14.7449 400 12.5332 400Z" fill="#089949"/>
</svg>
