

<svg width="384" height="400" viewBox="0 0 384 400" fill="none" xmlns="http://www.w3.org/2000/svg">
<path d="M153.798 201.233H88.1259C81.5306 201.233 76.1982 195.991 76.1982 189.508C76.1982 183.025 81.5306 177.784 88.1259 177.784H153.798C160.393 177.784 165.726 183.025 165.726 189.508C165.726 195.991 160.393 201.233 153.798 201.233Z" fill="#F9B21D"/>
<path d="M92.1959 259.856H26.664C20.0687 259.856 14.7363 254.615 14.7363 248.132C14.7363 241.649 20.0687 236.407 26.664 236.407H92.1959C98.7912 236.407 104.124 241.649 104.124 248.132C104.124 254.615 98.7912 259.856 92.1959 259.856Z" fill="#F9B21D"/>
<path d="M195.756 400C193.09 400 190.424 399.172 188.319 397.517C185.793 395.448 184.109 392.551 183.828 389.379C182.425 374.206 186.494 358.895 194.914 346.205C203.474 333.514 216.243 323.997 230.978 319.307L278.127 304.41L223.681 217.096C220.593 212.268 221.576 205.923 225.926 202.198L344.781 99.7113C354.183 91.5731 359.656 80.4002 360.077 68.1238C360.498 55.8474 355.867 44.2607 347.027 35.5707L339.87 28.5359L37.4689 317.1C28.7687 325.376 23.9977 336.411 23.8573 348.412C23.8573 356.55 25.9622 364.412 30.172 371.309L189.722 233.372C194.633 229.096 202.211 229.51 206.561 234.476C210.911 239.303 210.49 246.752 205.438 251.028L36.4866 396.965C31.7156 401.103 24.6993 400.828 20.2089 396.414L20.0686 396.276C7.01829 383.448 -0.1383 366.205 0.00202517 347.998C0.142351 329.79 7.5796 312.824 20.7702 300.134L331.731 3.29344C336.362 -1.12054 343.939 -1.12054 348.43 3.43138L363.866 18.6044C370.742 25.3633 375.934 33.2258 379.442 42.0537C382.81 50.4679 384.353 59.4338 383.932 68.5376C383.652 77.6414 381.547 86.4694 377.618 94.7456C373.548 103.298 367.795 110.884 360.638 117.091L249.36 213.095L306.473 304.686C308.437 307.72 308.718 311.582 307.455 314.893C306.192 318.203 303.385 320.824 299.877 321.928L238.274 341.515C228.592 344.549 220.313 350.757 214.7 359.033C211.472 363.723 209.227 369.102 208.105 374.62L311.524 360.136C325.557 358.205 337.484 350.067 344.36 337.928C351.236 325.79 351.798 311.445 346.044 298.754L304.368 206.475C301.702 200.543 304.368 193.646 310.402 191.026C316.436 188.405 323.452 191.026 326.118 196.957L367.795 289.237C376.635 308.686 375.653 330.618 365.129 349.239C354.604 367.861 336.222 380.413 314.752 383.31L197.159 399.862C196.878 400 196.317 400 195.756 400Z" fill="#089949"/>
</svg>
