<svg width="400" height="255" viewBox="0 0 400 255" fill="none" xmlns="http://www.w3.org/2000/svg">
<path d="M273.983 254.721C240.617 254.721 209.182 241.594 185.468 217.853L116.255 147.749C108.258 139.51 103.708 128.757 103.846 117.166C103.846 105.575 108.396 94.822 116.53 86.7223C133.075 70.1041 159.961 70.2437 176.506 86.862L239.928 151.101C247.373 158.642 259.506 158.642 266.951 151.24C270.536 147.61 272.604 142.722 272.604 137.555C272.604 132.388 270.674 127.5 266.951 123.729L197.738 53.6254C178.436 34.2141 152.791 23.6008 125.492 23.7404C97.7796 23.8801 71.8592 34.9124 52.5568 54.8823C33.2544 74.8521 22.9138 101.386 23.4653 129.595C24.5683 185.594 70.4805 231.26 125.768 231.26C135.695 231.26 145.484 229.863 154.86 227.07C161.064 225.255 167.544 228.746 169.336 235.03C171.129 241.314 167.682 247.878 161.477 249.833C149.896 253.324 137.901 255 125.768 255C57.796 255 1.40543 199.001 0.0266888 130.153C-0.662683 95.5203 12.0218 62.9819 35.874 38.4036C59.5884 13.8253 91.4373 0.279302 125.63 0.139653C158.996 3.19424e-06 190.569 13.1271 214.421 37.0071L283.634 107.111C291.769 115.35 296.181 126.103 296.181 137.694C296.181 149.285 291.631 160.178 283.496 168.278C266.951 184.896 239.928 184.896 223.383 168.138L159.961 103.899C152.516 96.3582 140.521 96.3582 133.075 103.76C129.491 107.39 127.423 112.278 127.423 117.445C127.423 122.612 129.353 127.5 133.075 131.131L202.288 201.235C221.591 220.507 247.097 231.12 274.259 231.12C330.649 231.12 376.561 184.617 376.561 127.5C376.561 99.8494 365.945 73.7349 346.643 54.184C327.34 34.4934 301.558 23.7404 274.259 23.7404C265.573 23.7404 256.886 24.8576 248.614 27.092C247.373 27.3713 246.132 27.7903 245.029 28.0696C238.825 29.885 232.345 26.3938 230.415 20.1095C228.622 13.8253 232.069 7.26177 238.273 5.30668C239.79 4.88773 241.169 4.46879 242.685 4.04984C252.888 1.3965 263.504 0 274.259 0C307.9 0 339.473 13.2667 363.188 37.4261C386.902 61.5854 400 93.5652 400 127.64C399.586 197.744 343.196 254.721 273.983 254.721Z" fill="#0067FF"/>
</svg>
