<svg width="400" height="400" viewBox="0 0 400 400" fill="none" xmlns="http://www.w3.org/2000/svg">
<path d="M264.095 198.896C257.509 198.896 252.184 193.655 252.184 187.172C252.184 161.103 230.744 139.999 204.26 139.999C197.674 139.999 192.35 134.758 192.35 128.275C192.35 121.792 197.674 116.551 204.26 116.551C243.776 116.551 276.006 148.275 276.006 187.172C276.006 193.655 270.681 198.896 264.095 198.896Z" fill="#089949"/>
<path d="M316.362 198.894C309.776 198.894 304.451 193.653 304.451 187.17C304.451 132.686 259.611 88.5481 204.26 88.5481C197.674 88.5481 192.35 83.3067 192.35 76.8239C192.35 70.341 197.674 65.0996 204.26 65.0996C272.783 65.0996 328.273 119.721 328.273 187.17C328.273 193.653 322.948 198.894 316.362 198.894Z" fill="#F9B21D"/>
<path d="M368.77 198.895C362.184 198.895 356.859 193.654 356.859 187.171C356.859 104.273 288.757 37.1003 204.541 36.9624C204.401 36.9624 204.401 36.9624 204.26 36.9624C197.674 36.9624 192.35 31.7209 192.35 25.2381C192.35 18.7553 197.674 13.5139 204.26 13.5139C301.649 13.3759 380.54 91.0318 380.681 186.757C380.681 186.895 380.681 186.895 380.681 187.033C380.681 193.654 375.356 198.895 368.77 198.895Z" fill="#E42527"/>
<path d="M297.305 400C286.796 400 276.426 398.345 266.477 395.034C235.93 384.965 206.783 371.31 179.458 354.62C152.414 337.93 127.331 318.344 104.77 296.137C82.21 273.792 62.3119 248.964 45.4967 222.205C28.4012 195.033 14.8088 165.929 4.71965 135.584C-5.36951 104.825 0.936217 71.1693 21.5349 46.0656L48.7196 12.8239C61.1909 -2.07284 83.331 -4.27976 98.6049 7.72036C99.5858 8.54795 100.567 9.37555 101.407 10.2031L160.821 68.8244C173.573 81.3762 174.694 101.376 163.344 115.308L134.057 151.032C130.834 155.032 130.694 160.825 133.777 164.963C163.204 205.102 200.057 239.171 242.516 265.516C247.42 268.55 254.006 267.447 257.649 263.033L277.687 238.757C290.019 223.86 312.159 221.516 327.433 233.516C328.413 234.343 329.394 235.171 330.235 235.998L389.649 294.62C402.401 307.172 403.522 327.172 392.171 341.103L372.694 364.551C354.197 387.034 326.592 400 297.305 400ZM76.3247 23.4446C76.1845 23.4446 75.9043 23.4446 75.7641 23.4446C72.5412 23.5826 69.4584 25.0998 67.3565 27.5826L40.1718 60.8243C24.6177 79.7211 19.8534 105.101 27.5604 128.273C37.089 156.825 49.9807 184.274 66.0954 209.929C81.9297 235.171 100.707 258.619 122.006 279.585C143.305 300.551 166.847 319.034 192.35 334.758C218.133 350.62 245.598 363.31 274.324 372.827C303.191 382.345 335.14 373.241 354.197 349.931L373.534 326.344C377.178 321.792 376.897 315.31 372.694 311.172L313.14 252.412C308.656 247.999 301.369 247.999 296.885 252.412C296.605 252.688 296.324 252.964 296.044 253.24L276.006 277.516C264.796 291.309 244.758 294.482 229.624 285.102C207.203 271.171 186.044 255.171 166.707 237.24C147.369 219.309 129.713 199.584 114.159 178.481C104.77 165.653 105.191 148.411 115.28 136.135L144.567 100.411C148.21 95.8592 147.93 89.3763 143.726 85.2384L84.452 26.755C82.3501 24.686 79.4075 23.4446 76.3247 23.4446Z" fill="#226DB4"/>
</svg>
