<svg width="400" height="365" viewBox="0 0 400 365" fill="none" xmlns="http://www.w3.org/2000/svg">
<path d="M125.931 121.363H82.3173C75.8069 121.363 70.5518 115.927 70.5518 109.193C70.5518 102.46 75.8069 97.0244 82.3173 97.0244H125.931C132.441 97.0244 137.697 102.46 137.697 109.193C137.697 115.927 132.441 121.363 125.931 121.363Z" fill="#226DB4"/>
<path d="M311.09 365H35.2138C15.8069 365 0 348.651 0 328.578V36.4215C0 16.349 15.8069 0 35.2138 0H334.414C340.924 0 346.179 5.43541 346.179 12.169C346.179 18.9027 340.924 24.3381 334.414 24.3381H35.2138C28.7862 24.3381 23.531 29.7735 23.531 36.4215V328.564C23.531 335.212 28.7862 340.648 35.2138 340.648H311.09C317.517 340.648 322.772 335.212 322.772 328.564V205.404C322.772 198.671 328.028 193.235 334.538 193.235C341.048 193.235 346.303 198.671 346.303 205.404V328.564C346.303 348.651 330.497 365 311.09 365Z" fill="#226DB4"/>
<path d="M81.9306 195.189C75.4202 195.189 70.165 189.754 70.165 183.02C70.165 176.286 75.4202 170.851 81.9306 170.851L193.544 170.723C200.055 170.723 205.31 176.158 205.31 182.892C205.31 189.625 200.055 195.061 193.544 195.061L81.9306 195.189Z" fill="#226DB4"/>
<path d="M81.9306 267.718C75.4202 267.718 70.165 262.283 70.165 255.549C70.165 248.816 75.4202 243.38 81.9306 243.38L193.544 243.252C200.055 243.252 205.31 248.687 205.31 255.421C205.31 262.155 200.055 267.59 193.544 267.59L81.9306 267.718Z" fill="#226DB4"/>
<path d="M388.276 195.717C386.317 195.717 384.358 195.232 382.593 194.219L317.296 157.056C317.255 157.056 317.214 157.013 317.172 157.013L253.476 119.892C249.793 117.738 247.517 113.729 247.476 109.35C247.476 104.97 249.71 100.918 253.365 98.7641L318.62 59.9887L382.276 21.2132C385.917 18.9877 390.427 18.9877 394.082 21.1276C397.724 23.2818 400 27.3334 400 31.6703V183.591C400 187.885 397.807 191.865 394.234 194.062C392.427 195.146 390.358 195.717 388.276 195.717ZM328.703 135.756L376.51 162.976V52.9269L330.538 80.9171C330.496 80.9599 330.455 80.9599 330.414 81.0027L283.034 109.15L328.703 135.756Z" fill="#226DB4"/>
</svg>
