<svg width="400" height="386" viewBox="0 0 400 386" fill="none" xmlns="http://www.w3.org/2000/svg">
<path d="M399.463 252.991L360.429 29.4166C357.905 14.943 347.064 3.67641 332.816 0.734277C318.568 -2.20785 304.237 3.84373 296.279 16.1561C292.734 21.6499 294.265 28.9843 299.699 32.5679C305.134 36.1514 312.389 34.6036 315.933 29.1098C319.975 22.8491 326.278 23.5881 328.113 23.9646C329.947 24.341 336.03 26.1537 337.312 33.53L376.332 257.104C377.16 261.845 375.077 265.205 373.767 266.795C372.457 268.384 369.532 271.034 364.774 271.034H137.964C131.481 271.034 126.226 276.346 126.226 282.9C126.226 289.453 131.481 294.766 137.964 294.766H168.184L146.819 354.445C145.15 359.13 140.709 362.268 135.785 362.268H126.24C120.543 362.268 115.688 358.154 114.682 352.479L73.6615 118.684L255.7 31.8009C261.562 29.0122 264.058 21.9427 261.3 16.0166C258.541 10.0905 251.548 7.56671 245.686 10.3555L20.1727 117.987C5.86949 124.82 -2.21314 140.59 0.531641 156.346L19.552 265.414C22.5175 282.454 37.0966 294.822 54.2135 294.822H80.7372L91.5784 356.634C94.5715 373.646 109.137 386 126.24 386H135.785C150.557 386 163.853 376.56 168.888 362.533L193.149 294.78H364.802C375.229 294.78 385.063 290.151 391.767 282.063C398.47 273.962 401.27 263.365 399.463 252.991ZM54.2135 271.09C48.5033 271.09 43.6482 266.962 42.6551 261.287L23.6347 152.219C22.7244 146.962 25.414 141.706 30.1863 139.433L51.6618 129.184L76.5718 271.09H54.2135Z" fill="#E42527"/>
<path d="M193.946 188.598C188.622 188.598 183.215 187.371 178.153 184.806L124.112 157.378C118.319 154.436 115.988 147.311 118.885 141.455C121.795 135.598 128.843 133.242 134.636 136.17L188.677 163.597C194.015 166.302 200.497 164.532 203.766 159.484L296.275 16.1422C299.82 10.6483 307.089 9.11453 312.509 12.6841C317.944 16.2677 319.461 23.616 315.93 29.0959L223.435 172.424C216.731 182.84 205.504 188.598 193.946 188.598Z" fill="#226DB4"/>
<path d="M193.946 188.598C188.622 188.598 183.215 187.371 178.153 184.806L124.112 157.378C118.319 154.436 115.988 147.311 118.885 141.455C121.795 135.598 128.843 133.242 134.636 136.17L188.677 163.597C194.015 166.302 200.497 164.532 203.766 159.484L296.275 16.1422C299.82 10.6483 307.089 9.11453 312.509 12.6841C317.944 16.2677 319.461 23.616 315.93 29.0959L223.435 172.424C216.731 182.84 205.504 188.598 193.946 188.598Z" fill="#226DB4"/>
</svg>
