<svg width="400" height="352" viewBox="0 0 400 352" fill="none" xmlns="http://www.w3.org/2000/svg">
<path d="M23.5225 123.855C19.3837 123.855 15.5207 121.668 13.3133 117.732L4.75969 101.988C-1.58656 90.3256 -1.58656 76.4765 4.75969 64.8141C11.1059 53.1517 22.4188 46.1543 35.1113 46.1543H300.55C307.034 46.1543 312.277 51.6939 312.277 58.5456C312.277 65.3972 307.034 70.9369 300.55 70.9369H35.1113C29.041 70.9369 26.0058 75.3102 24.9021 77.0596C23.7984 78.809 21.867 83.9112 24.9021 89.4509L33.4558 105.195C36.6289 111.172 34.8354 118.753 29.1789 122.106C27.5234 123.272 25.454 123.855 23.5225 123.855Z" fill="#190C3F"/>
<path d="M23.5225 123.855C19.3837 123.855 15.5207 121.668 13.3133 117.732L4.75969 101.988C-1.58656 90.3256 -1.58656 76.4765 4.75969 64.8141C11.1059 53.1517 22.4188 46.1543 35.1113 46.1543H300.55C307.034 46.1543 312.277 51.6939 312.277 58.5456C312.277 65.3972 307.034 70.9369 300.55 70.9369H35.1113C29.041 70.9369 26.0058 75.3102 24.9021 77.0596C23.7984 78.809 21.867 83.9112 24.9021 89.4509L33.4558 105.195C36.6289 111.172 34.8354 118.753 29.1789 122.106C27.5234 123.272 25.454 123.855 23.5225 123.855Z" fill="#190C3F"/>
<path d="M172.936 352C153.207 352 135.41 341.212 125.615 323.136L45.3212 176.336C38.975 164.673 38.975 150.824 45.3212 139.162C51.6675 127.499 63.1183 120.502 75.8108 120.502H259.99C266.474 120.502 271.717 126.042 271.717 132.893C271.717 139.745 266.474 145.285 259.99 145.285H75.8108C69.7405 145.285 66.7053 149.658 65.6016 151.407C64.6359 153.302 62.5665 158.259 65.6016 163.799L145.757 310.599C151.414 320.949 161.623 327.072 172.798 327.072C184.111 327.072 194.182 320.949 199.839 310.599L235.019 246.164C238.33 240.187 245.366 238.146 251.022 241.645C256.679 245.144 258.61 252.578 255.299 258.555L220.119 322.99C210.462 341.067 192.665 352 172.936 352Z" fill="#190C3F"/>
<path d="M172.936 352C153.207 352 135.41 341.212 125.615 323.136L45.3212 176.336C38.975 164.673 38.975 150.824 45.3212 139.162C51.6675 127.499 63.1183 120.502 75.8108 120.502H259.99C266.474 120.502 271.717 126.042 271.717 132.893C271.717 139.745 266.474 145.285 259.99 145.285H75.8108C69.7405 145.285 66.7053 149.658 65.6016 151.407C64.6359 153.302 62.5665 158.259 65.6016 163.799L145.757 310.599C151.414 320.949 161.623 327.072 172.798 327.072C184.111 327.072 194.182 320.949 199.839 310.599L235.019 246.164C238.33 240.187 245.366 238.146 251.022 241.645C256.679 245.144 258.61 252.578 255.299 258.555L220.119 322.99C210.462 341.067 192.665 352 172.936 352Z" fill="#190C3F"/>
<path d="M399.607 55.338L387.88 9.12581C387.88 8.98003 387.742 8.68847 387.742 8.5427V8.39691C387.742 8.25113 387.604 8.10535 387.604 7.95957V7.8138C387.604 7.66802 387.466 7.52224 387.466 7.37646C387.466 7.37646 387.466 7.37645 387.466 7.23068C387.328 7.0849 387.328 6.93912 387.328 6.79334C386.5 5.04398 385.259 3.4404 383.603 2.27416C383.465 2.12838 383.327 1.98261 383.189 1.98261L383.051 1.83683C382.913 1.69105 382.775 1.69105 382.637 1.69105C382.5 1.54527 382.362 1.54526 382.224 1.39949H382.086C380.016 0.233247 377.671 -0.204092 375.463 0.0874679C375.325 0.0874679 375.05 0.0874685 374.912 0.233248C374.912 0.233248 374.912 0.233248 374.774 0.233248C374.636 0.233248 374.498 0.379029 374.36 0.379029C374.36 0.379029 374.36 0.379029 374.222 0.379029C374.084 0.379029 373.808 0.524809 373.67 0.524809L329.522 13.0619C323.314 14.8112 319.589 21.6629 321.244 28.223C322.9 34.783 329.384 38.7191 335.592 36.9697L352.286 32.159L272.268 178.522C266.749 188.726 256.264 194.995 245.227 194.995H149.896C143.411 194.995 138.169 200.535 138.169 207.386C138.169 214.238 143.411 219.778 149.896 219.778H245.227C264.68 219.778 282.891 208.698 292.548 190.913L372.566 44.5503L376.981 62.0439C378.361 67.5835 383.189 71.228 388.294 71.228C389.26 71.228 390.363 71.0822 391.329 70.7906C397.537 68.8955 401.262 62.0439 399.607 55.338Z" fill="#190C3F"/>
</svg>
