<svg width="288" height="400" viewBox="0 0 288 400" fill="none" xmlns="http://www.w3.org/2000/svg">
<path d="M265.812 317.903C254.268 299.69 238.376 281.614 218.436 264.229C199.696 247.81 180.956 235.254 167.913 227.113C177.657 220.904 190.251 212.073 202.994 201.035C218.436 187.651 230.88 173.715 239.725 159.503C251.269 141.29 257.116 122.663 257.116 104.312C257.116 76.4401 245.422 50.2242 223.983 30.4933C202.694 10.9003 174.209 0 143.925 0C113.641 0 85.1556 10.9003 63.8667 30.6313C42.4279 50.3622 30.734 76.5781 30.734 104.45C30.734 110.935 36.431 116.178 43.4774 116.178H143.925C150.971 116.178 156.668 110.935 156.668 104.45C156.668 97.9648 150.971 92.7216 143.925 92.7216H57.2702C63.5669 53.6737 99.9979 23.5943 144.075 23.5943C192.35 23.5943 231.779 59.8827 231.779 104.45C231.779 158.123 165.214 201.173 144.225 213.453C128.783 204.484 88.4539 178.682 68.2145 144.05C64.9162 138.255 57.1202 136.185 50.9734 139.22C44.8266 142.256 42.4279 149.431 45.7262 155.088C64.9162 188.617 99.0984 213.867 120.087 227.113C107.044 235.116 88.4539 247.81 69.5638 264.091C49.6241 281.476 33.7324 299.552 22.1884 317.765C7.4961 341.083 0 364.815 0 388.272C0 394.757 5.69703 400 12.7434 400H143.925C150.971 400 156.668 394.757 156.668 388.272C156.668 381.787 150.971 376.544 143.925 376.544H26.3863C28.4852 361.09 34.3321 345.498 44.227 329.769C54.4217 313.487 68.6642 297.344 86.8048 281.476C109.893 261.331 133.131 246.982 144.075 240.773C154.869 246.982 178.257 261.331 201.345 281.476C219.486 297.344 233.728 313.487 243.923 329.769C256.217 349.362 262.513 369.093 262.513 388.272C262.513 394.757 268.21 400 275.257 400C282.303 400 288 394.757 288 388.272C288 364.953 280.504 341.221 265.812 317.903Z" fill="#E42527"/>
</svg>
