<svg width="355" height="400" viewBox="0 0 355 400" fill="none" xmlns="http://www.w3.org/2000/svg">
<path d="M177.5 207.831C174.609 207.831 171.762 207.114 169.263 205.748L8.23705 117.471C0.362998 113.154 -2.33916 103.581 2.20803 96.1051C3.6608 93.7188 5.73827 91.7464 8.23705 90.3809L169.263 2.08969C174.362 -0.696564 180.638 -0.696564 185.737 2.08969L346.763 90.3533C354.637 94.6706 357.339 104.243 352.792 111.719C351.339 114.105 349.262 116.078 346.763 117.443L185.737 205.707C183.224 207.1 180.391 207.831 177.5 207.831ZM32.9342 103.912L177.485 183.155L322.037 103.912L177.485 24.6694L32.9342 103.912Z" fill="#089949"/>
<path d="M206.396 399.999C197.301 399.999 189.921 392.992 189.921 384.357V239.596C189.936 234.01 193.074 228.851 198.159 226.051L330.201 153.664C338.076 149.346 348.158 151.912 352.705 159.388C354.158 161.76 354.913 164.464 354.913 167.209V244.658C354.899 250.245 351.761 255.403 346.676 258.204L293.519 287.349V345.612C293.504 351.198 290.366 356.357 285.282 359.157L214.619 397.889C212.134 399.282 209.287 399.999 206.396 399.999ZM214.633 244.121V370.826L268.822 341.101V282.838C268.836 277.252 271.974 272.093 277.059 269.293L330.216 240.148V180.754L214.633 244.121Z" fill="#226DB4"/>
<path d="M148.59 399.999C145.699 399.999 142.852 399.282 140.353 397.916L69.7042 359.198C64.6195 356.398 61.4815 351.24 61.467 345.653V287.349L8.29535 258.217C3.21063 255.417 0.0726332 250.259 0.0581055 244.672V167.223C0.0581055 158.588 7.42368 151.581 16.5326 151.581C19.4236 151.581 22.2711 152.298 24.7698 153.678L156.813 226.065C161.897 228.865 165.035 234.024 165.05 239.61V384.385C165.064 393.006 157.684 400.013 148.59 399.999ZM86.1787 341.129L140.353 370.854V244.121L24.7698 180.768V240.162L77.9269 269.293C83.0116 272.093 86.1496 277.252 86.1642 282.839V341.129H86.1787Z" fill="#226DB4"/>
</svg>
