<svg width="400" height="365" viewBox="0 0 400 365" fill="none" xmlns="http://www.w3.org/2000/svg">
<path d="M81.931 292.371H23.4483C10.4828 292.371 0 281.527 0 268.114V24.2572C0 10.8444 10.4828 0 23.4483 0H306.207C319.172 0 329.655 10.8444 329.655 24.2572V84.7577C329.655 91.4641 324.414 96.8863 317.931 96.8863C311.448 96.8863 306.207 91.4641 306.207 84.7577V24.2572H23.4483V268.114H82.069C88.5517 268.114 93.7931 273.536 93.7931 280.242C93.6552 286.949 88.4138 292.371 81.931 292.371Z" fill="#089949"/>
<path d="M126.897 146.828C132.305 146.828 136.69 142.292 136.69 136.697C136.69 131.101 132.305 126.566 126.897 126.566C121.488 126.566 117.104 131.101 117.104 136.697C117.104 142.292 121.488 146.828 126.897 146.828Z" fill="#E42527"/>
<path d="M156.274 146.828C161.682 146.828 166.067 142.292 166.067 136.697C166.067 131.101 161.682 126.566 156.274 126.566C150.865 126.566 146.48 131.101 146.48 136.697C146.48 142.292 150.865 146.828 156.274 146.828Z" fill="#F9B21D"/>
<path d="M185.518 146.828C190.926 146.828 195.311 142.292 195.311 136.697C195.311 131.101 190.926 126.566 185.518 126.566C180.109 126.566 175.725 131.101 175.725 136.697C175.725 142.292 180.109 146.828 185.518 146.828Z" fill="#089949"/>
<path d="M380.414 365H224.276C219.035 365 214.207 362.86 210.483 359.15L184.414 332.324C177.931 325.618 176.828 315.059 181.793 307.068L182.207 306.497C186.759 299.077 188.138 289.945 185.793 281.241L185.655 280.813C183.448 272.252 177.793 264.975 170.345 260.979L169.793 260.694C161.655 256.413 157.517 246.568 159.862 237.578L168.276 203.903C170.621 194.771 178.897 188.493 188.138 188.921H188.828C197.242 189.349 205.655 185.924 211.724 179.646L212 179.361C218.207 172.94 221.517 164.378 220.966 155.532V154.818C220.552 145.401 226.621 136.697 235.448 134.271L267.862 125.281C276.69 122.856 286.069 127.136 290.345 135.555L290.621 136.126C294.483 143.974 301.517 149.681 309.931 151.964L310.345 152.107C318.621 154.39 327.586 152.963 334.759 148.254L340.69 144.402C346.069 140.835 353.379 142.404 356.828 147.969C360.276 153.534 358.759 161.096 353.379 164.664L347.448 168.516C334.759 176.935 319.035 179.503 304.276 175.365H304.138H304C290.069 171.513 278.207 162.095 271.035 149.396L244.69 156.816C244.69 171.513 239.035 185.782 228.828 196.341L228.552 196.626C218.483 207.185 204.69 213.036 190.483 213.036L183.448 240.432C195.724 247.709 204.828 259.98 208.552 274.392L208.69 274.677C212.552 289.089 210.621 304.5 203.448 317.199L226.207 340.6H376.552V96.8861H93.7932V340.743H163.862C170.345 340.743 175.586 346.165 175.586 352.871C175.586 359.578 170.345 365 163.862 365H89.7932C79.0346 365 70.207 355.868 70.207 344.738V92.8908C70.345 81.6184 79.0346 72.6289 89.7932 72.6289H380.414C391.173 72.6289 400 81.761 400 92.8908V344.881C400 355.868 391.173 365 380.414 365Z" fill="#226DB4"/>
<path d="M283.724 301.218C279.862 301.218 275.862 300.647 271.862 299.648C247.31 292.942 232.69 266.83 239.31 241.431C245.793 216.032 271.034 200.907 295.586 207.756C320.138 214.605 334.758 240.575 328.138 265.974C322.758 287.092 304.138 301.218 283.724 301.218ZM283.862 230.301C273.931 230.301 264.69 237.15 262.069 247.567C258.896 259.981 266.069 272.823 278.069 276.105C290.069 279.387 302.483 271.967 305.655 259.553C308.827 247.139 301.655 234.297 289.655 231.015C287.724 230.587 285.655 230.301 283.862 230.301Z" fill="#226DB4"/>
</svg>
