<svg width="375" height="400" viewBox="0 0 375 400" fill="none" xmlns="http://www.w3.org/2000/svg">
<path d="M79.0312 201.553C77.6199 201.553 76.2086 201.277 74.9384 200.863L26.9533 183.763C20.7435 181.556 17.4974 174.799 19.7556 168.731C22.0137 162.663 28.9292 159.491 35.139 161.698L83.1241 178.798C89.3339 181.005 92.58 187.762 90.3219 193.83C88.4871 198.657 83.8298 201.553 79.0312 201.553Z" fill="#226DB4"/>
<path d="M362.99 302.638C361.579 302.638 360.168 302.362 358.897 301.948L310.912 284.848C304.702 282.641 301.456 275.884 303.715 269.816C305.973 263.748 312.888 260.576 319.098 262.783L367.083 279.883C373.293 282.09 376.539 288.847 374.281 294.915C372.446 299.604 367.93 302.638 362.99 302.638Z" fill="#226DB4"/>
<path d="M310.772 191.762C306.255 191.762 301.88 189.279 299.904 185.004C297.082 179.212 299.763 172.179 305.691 169.421L351.982 148.321C357.91 145.563 365.108 148.183 367.93 153.975C370.753 159.767 368.071 166.8 362.144 169.559L315.852 190.658C314.159 191.348 312.465 191.762 310.772 191.762Z" fill="#226DB4"/>
<path d="M143.954 132.462C139.438 132.462 135.062 129.979 133.087 125.704L111.493 80.3332C108.671 74.5411 111.352 67.5079 117.28 64.7497C123.207 61.9916 130.405 64.6118 133.228 70.4039L154.821 115.637C157.644 121.429 154.962 128.462 149.035 131.221C147.341 132.048 145.647 132.462 143.954 132.462Z" fill="#226DB4"/>
<path d="M236.255 57.7165C230.609 57.7165 225.529 53.7172 224.4 48.063L218.331 13.8623C217.202 7.51858 221.577 1.4507 228.069 0.209548C234.561 -1.03161 240.771 3.38139 242.041 9.72509L248.251 43.9259C249.38 50.2695 245.005 56.3374 238.513 57.5786C237.666 57.7165 236.96 57.7165 236.255 57.7165Z" fill="#226DB4"/>
<path d="M289.179 76.4716C285.792 76.4716 282.405 75.0925 280.006 72.3344C275.772 67.3698 276.477 60.0608 281.417 55.7857L308.656 33.4448C313.736 29.3076 321.216 29.9972 325.592 34.8239C329.967 39.6506 329.12 47.0976 324.18 51.3727L296.942 73.7135C294.683 75.6442 291.861 76.4716 289.179 76.4716Z" fill="#226DB4"/>
<path d="M271.678 400C267.162 400 262.787 397.518 260.811 393.242L239.218 348.009C236.395 342.217 239.077 335.184 245.004 332.426C250.932 329.668 258.13 332.288 260.952 338.08L282.546 383.313C285.368 389.105 282.687 396.139 276.759 398.897C275.066 399.586 273.372 400 271.678 400Z" fill="#226DB4"/>
<path d="M284.379 155.492C281.133 155.492 277.887 154.251 275.488 151.631C271.113 146.804 271.395 139.495 276.334 135.082C281.839 130.117 285.931 124.187 288.613 117.292C292.847 105.984 292.282 93.8479 287.061 82.9533C281.839 72.0587 272.665 63.7844 261.092 59.7851C249.519 55.6479 237.1 56.1995 225.95 61.3021C214.801 66.4046 206.333 75.3685 202.24 86.6768C199.699 93.5721 198.853 100.743 199.841 108.052C200.687 114.396 196.171 120.326 189.538 121.291C183.046 122.119 176.977 117.706 175.989 111.224C174.437 100.33 175.707 89.1591 179.517 78.6782C185.868 61.5779 198.712 47.7872 215.647 40.0645C232.583 32.3417 251.636 31.5143 269.137 37.858C286.637 44.0638 300.75 56.6132 308.654 73.162C316.557 89.7108 317.404 108.328 310.912 125.428C307.101 135.771 300.609 145.149 292.282 152.596C290.165 154.527 287.343 155.492 284.379 155.492Z" fill="#E42527"/>
<path d="M334.341 224.997C333.353 207.621 329.119 190.796 321.639 175.075C314.018 159.216 303.715 145.287 290.59 133.427C277.182 121.154 261.376 111.776 244.016 105.57C226.657 99.3643 208.451 96.6062 189.962 97.5716C172.18 98.5369 154.962 102.674 138.872 109.983C122.783 117.292 108.388 127.497 96.2504 140.323C83.6896 153.424 74.0926 168.869 67.7416 185.832C61.3907 202.794 58.7092 220.722 59.556 238.65C60.2616 252.027 63.0843 265.266 67.7416 277.815L6.9135 305.672C0.985934 308.43 -1.69558 315.464 1.12707 321.256C3.10292 325.531 7.47803 328.013 11.9943 328.013C13.6879 328.013 15.3815 327.599 17.0751 326.91L88.347 294.364C94.2746 291.606 96.9561 284.573 94.1334 278.78C81.2904 251.889 79.8791 221.825 90.3229 193.968C100.767 166.111 121.513 143.908 149.034 131.359C176.555 118.809 207.322 117.43 235.831 127.635C264.339 137.84 287.062 158.112 299.905 185.004C312.748 211.896 314.159 241.96 303.715 269.817C293.271 297.674 272.525 319.877 245.004 332.426C217.483 344.976 186.716 346.355 158.208 336.15C143.671 331.047 130.687 323.186 119.537 313.119C114.739 308.706 107.118 308.982 102.601 313.671C98.0851 318.36 98.3674 325.807 103.166 330.22C116.715 342.493 132.38 352.009 149.881 358.215C165.123 363.593 180.789 366.351 196.878 366.351C199.136 366.351 201.535 366.351 203.935 366.213C221.717 365.248 238.935 361.111 255.025 353.802C271.255 346.355 285.509 336.287 297.647 323.462C310.207 310.361 319.804 294.916 326.155 277.953C332.506 260.715 335.329 243.063 334.341 224.997Z" fill="#E42527"/>
</svg>
