<svg width="353" height="401" viewBox="0 0 353 401" fill="none" xmlns="http://www.w3.org/2000/svg">
<path d="M176.573 400.999C173.381 400.999 170.189 399.893 167.868 397.542L116.942 349.007C114.62 346.795 113.314 343.753 113.314 340.711C113.314 337.669 114.62 334.627 116.942 332.414L167.868 283.879C172.656 279.316 180.49 279.316 185.278 283.879L236.204 332.414C238.526 334.627 239.832 337.669 239.832 340.711C239.832 343.753 238.526 346.795 236.204 349.007L185.278 397.542C182.957 399.893 179.765 400.999 176.573 400.999ZM143.058 340.711L176.573 372.653L210.088 340.711L176.573 308.769L143.058 340.711Z" fill="#E42527"/>
<path d="M276.829 305.729C273.637 305.729 270.445 304.622 268.123 302.272L217.342 253.875C215.021 251.663 213.715 248.621 213.715 245.578C213.715 242.536 215.021 239.494 217.342 237.282L233.157 222.348C248.246 207.967 256.516 188.885 256.516 168.559C256.516 148.232 248.246 129.15 233.157 114.769L233.012 114.631C201.963 85.0398 151.327 85.0398 120.278 114.631C107.946 126.384 100.111 141.318 97.6445 157.773C95.3231 173.675 98.3699 190.13 106.205 204.234C109.397 209.903 107.22 217.094 101.127 220.136C95.178 223.178 87.6334 221.104 84.4414 215.296C74.1402 196.905 70.0777 175.196 73.1245 154.454C76.3165 132.883 86.4727 113.386 102.723 98.0378C122.455 79.2322 148.716 68.8615 176.573 68.8615C204.429 68.8615 230.691 79.2322 250.423 98.0378L250.568 98.1761C270.3 116.982 281.181 142.01 281.181 168.559C281.181 195.108 270.3 220.136 250.568 238.941L243.603 245.578L276.974 277.382L284.083 270.606C312.811 243.228 328.48 206.999 328.48 168.282C328.48 129.565 312.665 93.3364 283.938 65.9577C255.21 38.579 217.197 23.6452 176.573 23.6452C135.948 23.6452 97.9346 38.7173 69.2072 65.9577C40.4797 93.1981 24.8101 129.565 24.8101 168.282C24.8101 206.999 40.6247 243.228 69.2072 270.606L76.3165 277.382L118.392 237.282C123.18 232.719 131.015 232.719 135.803 237.282C140.591 241.845 140.591 249.312 135.803 253.875L85.0218 302.272C80.2339 306.835 72.3991 306.835 67.6112 302.272L51.6515 287.2C34.8212 271.159 21.7633 252.492 12.9129 231.613C4.35265 211.424 0 190.13 0 168.282C0 146.434 4.35265 125.14 12.9129 104.952C21.7633 84.0719 34.8212 65.4046 51.6515 49.3646C68.4817 33.3245 88.3588 20.7414 110.267 12.3066C131.305 4.14828 153.649 0 176.573 0C199.496 0 221.84 4.14828 243.023 12.3066C264.931 20.7414 284.518 33.1863 301.349 49.2263C318.179 65.2663 331.237 84.0719 340.087 104.952C348.647 125.14 353 146.434 353 168.282C353 190.13 348.647 211.424 340.087 231.613C331.237 252.492 318.179 271.159 301.349 287.2L285.389 302.41C283.067 304.484 279.875 305.729 276.829 305.729Z" fill="#E42527"/>
</svg>
