<svg width="400" height="400" viewBox="0 0 400 400" fill="none" xmlns="http://www.w3.org/2000/svg">
<path d="M228.55 316.908H140.551V140.511H317.24V228.157C317.24 234.645 322.481 239.89 328.964 239.89C335.446 239.89 340.688 234.645 340.688 228.157V128.778V35.1967C340.688 15.873 324.964 0 305.516 0H35.1722C15.862 0 0 15.735 0 35.1967V305.176C0 324.5 15.7241 340.373 35.1722 340.373H228.413C234.895 340.373 240.137 335.128 240.137 328.64C240.137 322.153 234.895 316.908 228.55 316.908ZM23.4481 305.176V35.1967C23.4481 28.7095 28.6895 23.4645 35.1722 23.4645H305.516C311.998 23.4645 317.24 28.7095 317.24 35.1967V117.184H140.551V58.5231C140.551 52.0359 135.31 46.7909 128.827 46.7909C122.344 46.7909 117.103 52.0359 117.103 58.5231V117.184H59.0342C52.5514 117.184 47.3101 122.429 47.3101 128.917C47.3101 135.404 52.5514 140.649 59.0342 140.649H117.103V317.046H35.1722C28.6895 316.908 23.4481 311.663 23.4481 305.176Z" fill="#15864A"/>
<path d="M399.584 289.302C398.481 285.161 395.308 282.124 391.308 281.02L260.274 245.961C256.274 244.857 251.999 245.961 248.964 248.998C246.068 251.897 244.826 256.313 245.93 260.316L280.964 391.303C282.067 395.444 285.24 398.48 289.24 399.585C290.205 399.861 291.171 399.999 292.274 399.999C295.309 399.999 298.343 398.756 300.55 396.548L396.412 300.62C399.584 297.721 400.687 293.442 399.584 289.302ZM298.481 365.63L273.93 273.843L365.653 298.411L298.481 365.63Z" fill="#15864A"/>
</svg>
