<svg width="328" height="400" viewBox="0 0 328 400" fill="none" xmlns="http://www.w3.org/2000/svg">
<path d="M164.07 399.998C177.214 399.998 187.869 389.5 187.869 376.55C187.869 363.6 177.214 353.102 164.07 353.102C150.926 353.102 140.271 363.6 140.271 376.55C140.271 389.5 150.926 399.998 164.07 399.998Z" fill="#089949"/>
<path d="M33.4587 109.381C46.6023 109.381 57.2573 98.8828 57.2573 85.9327C57.2573 72.9825 46.6023 62.4844 33.4587 62.4844C20.3151 62.4844 9.66016 72.9825 9.66016 85.9327C9.66016 98.8828 20.3151 109.381 33.4587 109.381Z" fill="#F9B21D"/>
<path d="M214.886 262.068C228.03 262.068 238.685 251.57 238.685 238.62C238.685 225.67 228.03 215.172 214.886 215.172C201.743 215.172 191.088 225.67 191.088 238.62C191.088 251.57 201.743 262.068 214.886 262.068Z" fill="#E42527"/>
<path d="M123.612 363.31C121.233 363.31 118.713 362.62 116.613 361.103C95.3342 345.793 65.096 320.413 41.0175 286.207C13.8592 247.448 0 205.517 0 161.655C0 149.793 1.25992 138.069 3.91976 126.62C5.31968 120.276 11.7593 116.276 18.1989 117.655C24.6385 119.034 28.6982 125.379 27.2983 131.724C25.0585 141.517 23.9385 151.586 23.9385 161.655C23.9385 200.689 36.3978 238.069 60.7563 272.827C82.8749 304.276 111.013 327.862 130.752 342.069C136.072 345.931 137.192 353.241 133.272 358.482C131.032 361.655 127.252 363.31 123.612 363.31Z" fill="#226DB4"/>
<path d="M229.166 343.724C227.486 343.724 225.667 343.31 223.987 342.621C189.549 326.483 153.011 300.414 126.413 272.552C91.6947 236.552 73.3558 198.621 73.3558 162.897C73.3558 139.034 82.7352 116.69 99.9542 99.7241C117.173 82.7586 139.852 73.5172 164.07 73.5172C188.289 73.5172 210.967 82.7586 228.186 99.7241C245.405 116.552 254.785 139.034 254.785 162.897C254.785 175.448 252.685 188.276 248.485 200.828C246.525 207.034 239.666 210.345 233.506 208.276C227.206 206.345 223.847 199.586 225.946 193.517C229.306 183.31 231.126 172.966 231.126 162.897C231.126 126.621 201.168 97.1034 164.35 97.1034C127.533 97.1034 97.1543 126.483 97.1543 162.759C97.1543 183.448 105.274 216.276 143.632 256.276C166.59 280.138 197.388 302.759 227.066 317.793C248.065 298.759 265.004 278.069 277.743 256.414C295.242 226.345 304.202 194.483 304.202 161.517C304.202 124.552 289.643 89.931 263.184 63.8621C236.726 37.7931 201.448 23.4483 164.07 23.4483C129.772 23.4483 96.7344 35.8621 71.1159 58.2069C66.2162 62.4828 58.6567 62.069 54.317 57.2414C49.9772 52.4138 50.3972 44.9655 55.2969 40.6897C85.2551 14.3448 123.893 0 164.07 0C186.189 0 207.748 4.27586 227.906 12.6897C247.505 20.8276 265.004 32.5517 279.983 47.3103C294.962 62.069 306.862 79.4483 315.121 98.6207C323.661 118.483 328 139.724 328 161.517C328 198.621 318.061 234.483 298.462 268.138C283.343 294.069 262.764 318.345 237.006 340.69C234.766 342.759 231.966 343.724 229.166 343.724Z" fill="#226DB4"/>
</svg>
