<svg width="400" height="400" viewBox="0 0 400 400" fill="none" xmlns="http://www.w3.org/2000/svg">
<path d="M200.001 78.1241C178.442 78.1241 160.863 60.5793 160.863 39.0621C160.863 17.5448 178.428 0 200.001 0C221.574 0 239.139 17.5448 239.139 39.0621C239.139 60.5793 221.56 78.1241 200.001 78.1241ZM200.001 23.4345C191.35 23.4345 184.343 30.4276 184.343 39.0621C184.343 47.6966 191.35 54.6897 200.001 54.6897C208.652 54.6897 215.659 47.6966 215.659 39.0621C215.659 30.4276 208.652 23.4345 200.001 23.4345Z" fill="#E42527"/>
<path d="M200.001 78.1241C178.442 78.1241 160.863 60.5793 160.863 39.0621C160.863 17.5448 178.428 0 200.001 0C221.574 0 239.139 17.5448 239.139 39.0621C239.139 60.5793 221.56 78.1241 200.001 78.1241ZM200.001 23.4345C191.35 23.4345 184.343 30.4276 184.343 39.0621C184.343 47.6966 191.35 54.6897 200.001 54.6897C208.652 54.6897 215.659 47.6966 215.659 39.0621C215.659 30.4276 208.652 23.4345 200.001 23.4345Z" fill="#E42527"/>
<path d="M360.779 195.739C339.179 195.739 321.559 178.194 321.559 156.594C321.559 134.994 339.137 117.449 360.779 117.449C382.379 117.449 400 134.994 400 156.594C400 178.194 382.421 195.739 360.779 195.739ZM360.779 140.939C352.128 140.939 345.052 147.973 345.052 156.635C345.052 165.297 352.1 172.332 360.779 172.332C369.43 172.332 376.506 165.297 376.506 156.635C376.506 147.973 369.458 140.939 360.779 140.939Z" fill="#089949"/>
<path d="M360.779 195.739C339.179 195.739 321.559 178.194 321.559 156.594C321.559 134.994 339.137 117.449 360.779 117.449C382.379 117.449 400 134.994 400 156.594C400 178.194 382.421 195.739 360.779 195.739ZM360.779 140.939C352.128 140.939 345.052 147.973 345.052 156.635C345.052 165.297 352.1 172.332 360.779 172.332C369.43 172.332 376.506 165.297 376.506 156.635C376.506 147.973 369.458 140.939 360.779 140.939Z" fill="#089949"/>
<path d="M299.131 381.215C277.53 381.215 259.91 363.671 259.91 342.071C259.91 320.512 277.489 302.926 299.131 302.926C320.731 302.926 338.351 320.471 338.351 342.071C338.351 363.671 320.773 381.215 299.131 381.215ZM299.131 326.402C290.48 326.402 283.404 333.436 283.404 342.098C283.404 350.733 290.452 357.795 299.131 357.795C307.782 357.795 314.858 350.76 314.858 342.098C314.858 333.436 307.823 326.402 299.131 326.402Z" fill="#226DB4"/>
<path d="M101.756 382.028C80.1554 382.028 62.5352 364.483 62.5352 342.883C62.5352 321.324 80.1139 303.738 101.756 303.738C123.398 303.738 140.976 321.283 140.976 342.883C140.935 364.497 123.37 382.028 101.756 382.028ZM101.756 327.228C93.1045 327.228 86.0288 334.262 86.0288 342.924C86.0288 351.559 93.0769 358.621 101.756 358.621C110.448 358.621 117.483 351.587 117.483 342.924C117.455 334.262 110.407 327.228 101.756 327.228Z" fill="#F9B21D"/>
<path d="M101.756 382.028C80.1554 382.028 62.5352 364.483 62.5352 342.883C62.5352 321.324 80.1139 303.738 101.756 303.738C123.398 303.738 140.976 321.283 140.976 342.883C140.935 364.497 123.37 382.028 101.756 382.028ZM101.756 327.228C93.1045 327.228 86.0288 334.262 86.0288 342.924C86.0288 351.559 93.0769 358.621 101.756 358.621C110.448 358.621 117.483 351.587 117.483 342.924C117.455 334.262 110.407 327.228 101.756 327.228Z" fill="#F9B21D"/>
<path d="M39.2206 195.545C17.5788 195.545 0 178 0 156.442C0 134.883 17.5788 117.297 39.2206 117.297C60.8624 117.297 78.4411 134.842 78.4411 156.442C78.4411 178.042 60.8209 195.545 39.2206 195.545ZM39.2206 140.745C30.5694 140.745 23.4936 147.78 23.4936 156.442C23.4936 165.104 30.5417 172.138 39.2206 172.138C47.8994 172.138 54.9475 165.104 54.9475 156.442C54.9475 147.78 47.8718 140.745 39.2206 140.745Z" fill="#226DB4"/>
<path d="M39.2206 195.545C17.5788 195.545 0 178 0 156.442C0 134.883 17.5788 117.297 39.2206 117.297C60.8624 117.297 78.4411 134.842 78.4411 156.442C78.4411 178.042 60.8209 195.545 39.2206 195.545ZM39.2206 140.745C30.5694 140.745 23.4936 147.78 23.4936 156.442C23.4936 165.104 30.5417 172.138 39.2206 172.138C47.8994 172.138 54.9475 165.104 54.9475 156.442C54.9475 147.78 47.8718 140.745 39.2206 140.745Z" fill="#226DB4"/>
<path d="M70.6056 238.206C67.275 238.206 63.9583 236.799 61.6366 234.068C57.4492 229.103 58.0711 221.723 63.0462 217.544L110.089 177.861L81.8411 63.1577C80.2795 56.8681 84.149 50.537 90.4508 48.9784C96.7527 47.4198 103.096 51.2818 104.658 57.5715L134.633 179.296C135.683 183.627 134.204 188.165 130.791 191.047L78.165 235.434C75.9677 237.268 73.2728 238.206 70.6056 238.206Z" fill="#226DB4"/>
<path d="M178.469 347.308C173.853 347.308 169.472 344.577 167.592 339.998L144.417 283.364L26.3818 274.688C19.9279 274.219 15.0772 268.591 15.5471 262.15C16.0169 255.708 21.6554 250.867 28.1093 251.336L153.427 260.522C157.891 260.84 161.76 263.653 163.446 267.791L189.359 331.184C191.819 337.157 188.93 344.04 182.946 346.453C181.44 346.991 179.92 347.308 178.469 347.308Z" fill="#F9B21D"/>
<path d="M178.469 347.308C173.853 347.308 169.472 344.577 167.592 339.998L144.417 283.364L26.3818 274.688C19.9279 274.219 15.0772 268.591 15.5471 262.15C16.0169 255.708 21.6554 250.867 28.1093 251.336L153.427 260.522C157.891 260.84 161.76 263.653 163.446 267.791L189.359 331.184C191.819 337.157 188.93 344.04 182.946 346.453C181.44 346.991 179.92 347.308 178.469 347.308Z" fill="#F9B21D"/>
<path d="M200 399.999C198.507 399.999 197.029 399.723 195.578 399.143C189.594 396.688 186.691 389.847 189.165 383.874L236.595 267.778C238.281 263.64 242.15 260.826 246.614 260.509L314.829 255.516C321.282 255.047 326.921 259.888 327.391 266.33C327.861 272.771 323.01 278.399 316.556 278.867L255.583 283.323L210.89 392.702C208.997 397.267 204.616 399.999 200 399.999Z" fill="#226DB4"/>
<path d="M200 399.999C198.507 399.999 197.029 399.723 195.578 399.143C189.594 396.688 186.691 389.847 189.165 383.874L236.595 267.778C238.281 263.64 242.15 260.826 246.614 260.509L314.829 255.516C321.282 255.047 326.921 259.888 327.391 266.33C327.861 272.771 323.01 278.399 316.556 278.867L255.583 283.323L210.89 392.702C208.997 397.267 204.616 399.999 200 399.999Z" fill="#226DB4"/>
<path d="M372.746 274.73C370.079 274.73 367.384 273.834 365.187 271.958L269.181 191.061C265.781 188.165 264.289 183.641 265.339 179.31L281.743 112.703C283.305 106.413 289.648 102.592 295.95 104.11C302.252 105.668 306.08 111.999 304.56 118.289L289.883 177.82L380.292 254.027C385.267 258.206 385.848 265.585 381.702 270.551C379.408 273.323 376.077 274.73 372.746 274.73Z" fill="#089949"/>
<path d="M372.746 274.73C370.079 274.73 367.384 273.834 365.187 271.958L269.181 191.061C265.781 188.165 264.289 183.641 265.339 179.31L281.743 112.703C283.305 106.413 289.648 102.592 295.95 104.11C302.252 105.668 306.08 111.999 304.56 118.289L289.883 177.82L380.292 254.027C385.267 258.206 385.848 265.585 381.702 270.551C379.408 273.323 376.077 274.73 372.746 274.73Z" fill="#089949"/>
<path d="M200.002 138.125C197.846 138.125 195.69 137.546 193.824 136.374L135.657 100.387C130.142 96.9942 128.456 89.7666 131.856 84.2494C135.256 78.7459 142.497 77.0632 148.025 80.4563L200.002 112.608L300.582 50.3873C306.096 46.9942 313.338 48.6632 316.751 54.1804C320.151 59.6839 318.479 66.9114 312.951 70.3183L206.179 136.374C204.299 137.546 202.144 138.125 200.002 138.125Z" fill="#E42527"/>
<path d="M200.002 138.125C197.846 138.125 195.69 137.546 193.824 136.374L135.657 100.387C130.142 96.9942 128.456 89.7666 131.856 84.2494C135.256 78.7459 142.497 77.0632 148.025 80.4563L200.002 112.608L300.582 50.3873C306.096 46.9942 313.338 48.6632 316.751 54.1804C320.151 59.6839 318.479 66.9114 312.951 70.3183L206.179 136.374C204.299 137.546 202.144 138.125 200.002 138.125Z" fill="#E42527"/>
</svg>
