<svg width="400" height="345" viewBox="0 0 400 345" fill="none" xmlns="http://www.w3.org/2000/svg">
<path d="M154.648 344.999C151.655 344.999 148.648 343.784 146.358 341.353L71.434 261.804C66.8547 256.942 66.8547 249.063 71.434 244.201C76.0133 239.339 83.434 239.339 88.0133 244.201L162.937 323.75C167.517 328.612 167.517 336.491 162.937 341.353C160.648 343.784 157.655 344.999 154.648 344.999Z" fill="#FFAE00"/>
<path d="M154.745 200.518C151.752 200.518 148.759 199.302 146.469 196.886L71.4487 117.424C66.8694 112.577 66.8556 104.698 71.4349 99.8218C76.0004 94.9598 83.4349 94.9452 88.0142 99.8071L163.035 179.268C167.614 184.116 167.628 191.994 163.049 196.871C160.759 199.302 157.752 200.532 154.745 200.532V200.518Z" fill="#FFAE00"/>
<path d="M154.648 272.801C151.655 272.801 148.648 271.586 146.359 269.155L71.5863 189.767C67.007 184.905 67.007 177.026 71.5863 172.164C76.1656 167.302 83.5863 167.302 88.1656 172.164L162.938 251.552C167.517 256.414 167.517 264.293 162.938 269.155C160.648 271.586 157.655 272.801 154.648 272.801Z" fill="#FFAE00"/>
<path d="M242 252.256C239.007 252.256 236.001 251.04 233.711 248.609C229.132 243.747 229.132 235.868 233.711 231.006L379.987 75.7012C384.566 70.8392 391.987 70.8392 396.566 75.7012C401.145 80.5632 401.145 88.4419 396.566 93.3039L250.29 248.609C248.001 251.04 245.007 252.256 242 252.256Z" fill="#006EB9"/>
<path d="M242.014 180.043C239.021 180.043 236.014 178.828 233.725 176.397C229.145 171.535 229.145 163.656 233.725 158.794L337.711 48.3892L320.29 29.8931L250.318 104.185C245.738 109.047 238.318 109.047 233.738 104.185C229.159 99.3228 229.159 91.4441 233.738 86.5821L311.987 3.5037C316.387 -1.1679 324.166 -1.1679 328.566 3.5037L362.566 39.6025C367.145 44.4644 367.145 52.3432 362.566 57.2052L250.29 176.412C248 178.843 245.007 180.058 242 180.058L242.014 180.043Z" fill="#006EB9"/>
<path d="M154.745 200.516C151.752 200.516 148.745 199.301 146.455 196.87C141.876 192.008 141.876 184.129 146.455 179.267L233.738 86.5967C238.317 81.7347 245.738 81.7347 250.317 86.5967C254.896 91.4587 254.896 99.3374 250.317 104.199L163.034 196.87C160.745 199.301 157.752 200.516 154.745 200.516Z" fill="#009C3E"/>
<path d="M154.648 272.802C151.655 272.802 148.648 271.586 146.358 269.155C141.779 264.293 141.779 256.414 146.358 251.552L233.724 158.794C238.303 153.932 245.724 153.932 250.303 158.794C254.882 163.656 254.882 171.535 250.303 176.397L162.938 269.155C160.648 271.586 157.655 272.802 154.648 272.802Z" fill="#009C3E"/>
<path d="M154.648 345C151.655 345 148.648 343.784 146.358 341.353C141.779 336.491 141.779 328.613 146.358 323.751L233.71 231.007C238.289 226.145 245.71 226.145 250.289 231.007C254.869 235.869 254.869 243.748 250.289 248.61L162.938 341.353C160.648 343.784 157.655 345 154.648 345Z" fill="#009C3E"/>
<path d="M79.7241 265.45C76.731 265.45 73.7241 264.234 71.4345 261.803L3.43448 189.606C1.24138 187.277 0 184.1 0 180.805C0 177.51 1.24138 174.332 3.43448 172.003L71.4345 99.8057C76.0138 94.9437 83.4345 94.9437 88.0138 99.8057C92.5931 104.668 92.5931 112.546 88.0138 117.408L28.3034 180.805L88.0138 244.201C92.5931 249.063 92.5931 256.941 88.0138 261.803C85.7241 264.234 82.731 265.45 79.7241 265.45Z" fill="#F70011"/>
</svg>
