<svg width="400" height="353" viewBox="0 0 400 353" fill="none" xmlns="http://www.w3.org/2000/svg">
<path d="M353.258 41.0269H204.343C199.38 41.0269 194.554 39.2873 190.555 36.2429L156.774 9.71363C148.776 3.47996 138.849 0.000711235 128.921 0.000711235H46.6046C20.9583 -0.144258 0 21.891 0 48.8552V304.001C0 330.965 20.9583 353 46.6046 353H69.9069C76.3875 353 81.627 347.491 81.627 340.678C81.627 333.864 76.3875 328.355 69.9069 328.355H46.6046C33.9193 328.355 23.4402 317.483 23.4402 304.001V48.8552C23.4402 35.5181 33.7815 24.5005 46.6046 24.5005H129.059C134.023 24.5005 138.849 26.2401 142.847 29.2844L176.629 55.8137C184.626 62.0474 194.554 65.5266 204.481 65.5266H353.395C366.081 65.5266 376.56 76.3993 376.56 89.8814V160.916C375.733 139.461 358.911 122.209 338.228 122.209C317.132 122.209 299.897 140.331 299.897 162.511C299.897 173.239 303.895 182.951 310.376 190.2L302.103 193.389C299.759 194.259 297.415 195.419 295.209 196.724C295.209 196.144 295.209 195.564 295.209 194.984C295.209 173.529 278.525 155.987 258.118 155.987C237.711 155.987 221.027 173.529 221.027 194.984C221.027 204.987 224.612 214.12 230.541 221.078L224.75 223.253C221.855 224.413 219.097 225.717 216.477 227.312C216.477 227.022 216.477 226.877 216.477 226.587C216.477 206.291 200.758 189.62 181.317 189.62C162.013 189.62 146.156 206.146 146.156 226.587C146.156 235.575 149.19 243.838 154.292 250.217L144.226 254.131C132.782 258.625 122.992 266.454 116.098 277.036C109.066 287.619 105.481 299.941 105.481 312.844V340.678C105.481 347.491 110.72 353 117.201 353H353.395C379.042 353 400 330.965 400 304.145V89.8814C399.862 62.9172 378.904 41.0269 353.258 41.0269ZM338.228 146.854C346.363 146.854 353.12 153.813 353.12 162.511C353.12 171.064 346.501 178.167 338.228 178.167C330.093 178.167 323.337 171.209 323.337 162.511C323.337 153.813 329.955 146.854 338.228 146.854ZM258.118 180.632C265.701 180.632 271.768 187.011 271.768 194.984C271.768 202.957 265.701 209.336 258.118 209.336C250.534 209.336 244.467 202.957 244.467 194.984C244.467 187.011 250.534 180.632 258.118 180.632ZM232.885 246.303L267.632 232.821C266.391 237.75 265.701 242.969 265.701 248.187V328.355H209.307V281.82C209.445 266.164 218.821 251.812 232.885 246.303ZM181.317 214.265C187.797 214.265 193.037 219.774 193.037 226.587C193.037 233.401 187.797 238.909 181.317 238.909C174.836 238.909 169.597 233.401 169.597 226.587C169.597 219.774 174.836 214.265 181.317 214.265ZM152.361 277.181L188.625 263.119C186.832 269.208 185.867 275.442 185.867 281.82V328.355H128.921V312.844C128.921 297.042 138.297 282.69 152.361 277.181ZM353.258 328.355H289.142V248.187C289.142 234.126 297.553 221.368 310.238 216.439L351.051 200.493C351.603 200.203 352.154 199.913 352.706 199.623C366.219 193.824 375.732 180.052 376.422 163.961V303.856C376.422 317.483 366.081 328.355 353.258 328.355Z" fill="#226DB4"/>
</svg>
