<svg width="381" height="400" viewBox="0 0 381 400" fill="none" xmlns="http://www.w3.org/2000/svg">
<path d="M290.044 400H178.101C171.524 400 166.232 394.759 166.232 388.276C166.232 381.793 171.538 376.552 178.101 376.552H290.044C327.13 376.552 357.29 346.759 357.29 310.124V89.8897C357.29 53.2552 327.13 23.4621 290.044 23.4621H67.2327C56.3135 23.4621 47.4748 32.2207 47.4748 42.9793V106.359C47.4748 112.855 42.1687 118.083 35.606 118.083C29.0433 118.083 23.7373 112.841 23.7373 106.359V42.9655C23.7792 19.2828 43.2579 0.0413793 67.2327 0H290.002C340.227 0 380.958 40.2345 381 89.8483V310.097C381.014 359.766 340.283 400 290.044 400Z" fill="#226DB4"/>
<path d="M93.1205 400H67.2327C43.202 399.958 23.7373 380.717 23.7373 357.034V153.31C23.7373 146.814 29.0433 141.586 35.606 141.586C42.1687 141.586 47.4748 146.827 47.4748 153.31V357.02C47.4748 367.807 56.3414 376.538 67.2327 376.538H93.1205C99.6971 376.538 104.989 381.779 104.989 388.262C104.989 394.745 99.6971 400 93.1205 400Z" fill="#226DB4"/>
<path d="M59.3157 305.651H11.8687C5.29205 305.651 0 300.41 0 293.927C0 287.445 5.30602 282.203 11.8687 282.203H59.3297C65.9063 282.203 71.1984 287.445 71.1984 293.927C71.1984 300.41 65.8924 305.651 59.3157 305.651Z" fill="#F9B21D"/>
<path d="M59.3157 211.847H11.8687C5.29205 211.847 0 206.605 0 200.123C0 193.626 5.30602 188.398 11.8687 188.398H59.3297C65.9063 188.398 71.1984 193.64 71.1984 200.123C71.1984 206.605 65.8924 211.847 59.3157 211.847Z" fill="#F9B21D"/>
<path d="M59.3157 118.081H11.8687C5.29205 118.081 0 112.84 0 106.357C0 99.8604 5.30602 94.6328 11.8687 94.6328H59.3297C65.9063 94.6328 71.1984 99.8742 71.1984 106.357C71.1984 112.84 65.8924 118.081 59.3157 118.081Z" fill="#F9B21D"/>
<path d="M178.115 400.003H162.281C138.25 399.962 118.813 380.721 118.785 357.038V278.596C118.785 254.859 138.264 235.631 162.281 235.59H261V199.231C260.959 179.921 245.124 164.279 225.576 164.238C216.234 164.238 207.368 167.99 200.637 174.831C193.907 181.59 190.151 190.707 190.151 200.169C190.151 206.665 184.845 211.893 178.282 211.893C171.72 211.893 166.414 206.652 166.414 200.169V198.334C166.414 197.824 166.456 197.355 166.497 196.845C167.293 182.417 173.381 168.776 183.602 158.445C194.843 147.024 209.728 140.734 225.562 140.734C258.18 140.734 284.738 166.927 284.738 199.19V247.286C284.738 253.783 279.432 259.01 272.869 259.01H162.308C151.389 259.01 142.551 267.769 142.551 278.555V356.996C142.551 367.783 151.417 376.514 162.336 376.514H178.171C184.747 376.514 190.039 381.755 190.039 388.238C190.025 394.721 184.678 400.003 178.115 400.003Z" fill="#089949"/>
</svg>
