<svg width="400" height="352" viewBox="0 0 400 352" fill="none" xmlns="http://www.w3.org/2000/svg">
<path d="M23.5225 123.854C19.3837 123.854 15.5207 121.668 13.3133 117.732L4.75969 101.988C-1.58656 90.3251 -1.58656 76.476 4.75969 64.8136C11.1059 53.1512 22.4188 46.1538 35.1113 46.1538H300.55C307.034 46.1538 312.277 51.6934 312.277 58.5451C312.277 65.3968 307.034 70.9364 300.55 70.9364H35.1113C29.041 70.9364 26.0058 75.3098 24.9021 77.0591C23.7984 78.8085 21.867 83.9108 24.9021 89.4504L33.4558 105.195C36.6289 111.172 34.8354 118.752 29.1789 122.105C27.5234 123.271 25.454 123.854 23.5225 123.854Z" fill="#00123F"/>
<path d="M23.5225 123.854C19.3837 123.854 15.5207 121.668 13.3133 117.732L4.75969 101.988C-1.58656 90.3251 -1.58656 76.476 4.75969 64.8136C11.1059 53.1512 22.4188 46.1538 35.1113 46.1538H300.55C307.034 46.1538 312.277 51.6934 312.277 58.5451C312.277 65.3968 307.034 70.9364 300.55 70.9364H35.1113C29.041 70.9364 26.0058 75.3098 24.9021 77.0591C23.7984 78.8085 21.867 83.9108 24.9021 89.4504L33.4558 105.195C36.6289 111.172 34.8354 118.752 29.1789 122.105C27.5234 123.271 25.454 123.854 23.5225 123.854Z" fill="#00123F"/>
<path d="M172.937 352C153.208 352 135.411 341.212 125.616 323.136L45.3222 176.335C38.9759 164.673 38.9759 150.824 45.3222 139.161C51.6684 127.499 63.1193 120.501 75.8118 120.501H259.991C266.475 120.501 271.718 126.041 271.718 132.893C271.718 139.744 266.475 145.284 259.991 145.284H75.8118C69.7414 145.284 66.7063 149.657 65.6026 151.407C64.6369 153.302 62.5674 158.258 65.6026 163.798L145.758 310.598C151.415 320.949 161.624 327.072 172.799 327.072C184.112 327.072 194.183 320.949 199.84 310.598L235.02 246.164C238.331 240.187 245.367 238.146 251.023 241.645C256.68 245.143 258.611 252.578 255.3 258.555L220.12 322.99C210.463 341.066 192.665 352 172.937 352Z" fill="#00123F"/>
<path d="M172.937 352C153.208 352 135.411 341.212 125.616 323.136L45.3222 176.335C38.9759 164.673 38.9759 150.824 45.3222 139.161C51.6684 127.499 63.1193 120.501 75.8118 120.501H259.991C266.475 120.501 271.718 126.041 271.718 132.893C271.718 139.744 266.475 145.284 259.991 145.284H75.8118C69.7414 145.284 66.7063 149.657 65.6026 151.407C64.6369 153.302 62.5674 158.258 65.6026 163.798L145.758 310.598C151.415 320.949 161.624 327.072 172.799 327.072C184.112 327.072 194.183 320.949 199.84 310.598L235.02 246.164C238.331 240.187 245.367 238.146 251.023 241.645C256.68 245.143 258.611 252.578 255.3 258.555L220.12 322.99C210.463 341.066 192.665 352 172.937 352Z" fill="#00123F"/>
<path d="M399.608 55.3381L387.881 9.12582C387.881 8.98004 387.743 8.68848 387.743 8.5427V8.39692C387.743 8.25114 387.605 8.10536 387.605 7.95958V7.8138C387.605 7.66802 387.467 7.52225 387.467 7.37647C387.467 7.37647 387.467 7.37646 387.467 7.23068C387.329 7.0849 387.329 6.93912 387.329 6.79334C386.501 5.04398 385.26 3.44041 383.604 2.27417C383.466 2.12839 383.328 1.98261 383.19 1.98261L383.052 1.83683C382.914 1.69105 382.776 1.69105 382.638 1.69105C382.5 1.54527 382.363 1.54527 382.225 1.39949H382.087C380.017 0.233247 377.672 -0.204092 375.464 0.087468C375.326 0.087468 375.051 0.0874686 374.913 0.233248C374.913 0.233248 374.913 0.233248 374.775 0.233248C374.637 0.233248 374.499 0.379029 374.361 0.379029C374.361 0.379029 374.361 0.379029 374.223 0.379029C374.085 0.379029 373.809 0.524809 373.671 0.524809L329.523 13.0619C323.315 14.8112 319.59 21.6629 321.245 28.223C322.901 34.7831 329.385 38.7191 335.593 36.9698L352.287 32.159L272.269 178.522C266.75 188.727 256.265 194.995 245.228 194.995H149.897C143.412 194.995 138.17 200.535 138.17 207.386C138.17 214.238 143.412 219.778 149.897 219.778H245.228C264.681 219.778 282.892 208.699 292.549 190.913L372.567 44.5503L376.982 62.0439C378.362 67.5836 383.19 71.2281 388.295 71.2281C389.261 71.2281 390.364 71.0823 391.33 70.7907C397.538 68.8956 401.263 62.0439 399.608 55.3381Z" fill="#00123F"/>
</svg>
