<svg width="365" height="400" viewBox="0 0 365 400" fill="none" xmlns="http://www.w3.org/2000/svg">
<path d="M85.1669 94.0694H255.359C262.076 94.0694 267.506 88.828 267.506 82.3452C267.506 75.8625 262.076 70.6211 255.359 70.6211H85.1669C78.4507 70.6211 73.0205 75.8625 73.0205 82.3452C73.0205 88.828 78.4507 94.0694 85.1669 94.0694Z" fill="#2148AA"/>
<path d="M85.1669 152.689H206.488C213.204 152.689 218.634 147.448 218.634 140.965C218.634 134.483 213.204 129.241 206.488 129.241H85.1669C78.4507 129.241 73.0205 134.483 73.0205 140.965C73.0205 147.448 78.4507 152.689 85.1669 152.689Z" fill="#2148AA"/>
<path d="M352.817 296.276C346.101 296.276 340.671 301.517 340.671 308V349.103C340.671 364.276 327.953 376.552 312.234 376.552H52.7297C37.0108 376.552 24.2928 364.276 24.2928 349.103V50.8966C24.2928 35.7241 37.0108 23.4483 52.7297 23.4483H312.234C327.953 23.4483 340.671 35.7241 340.671 50.8966V245.241C336.812 249.655 328.81 258.483 319.236 265.931C313.234 270.621 298.23 281.103 289.942 276.414C280.51 271.034 272.794 267.862 265.077 269.931C257.218 272 253.645 278.207 250.93 283.034C248.644 286.897 246.215 291.31 241.07 296C240.784 296.276 240.499 296.414 240.356 296.552C237.927 293.931 234.64 286.759 233.068 280.552C231.925 275.862 227.924 272.414 223.065 271.586C218.206 270.897 213.348 273.103 210.776 277.241C202.488 290.897 191.056 307.862 176.766 317.517C175.337 318.483 172.622 320 170.621 318.759C169.335 318.069 168.335 316.276 168.621 313.931C170.621 299.586 183.482 278.345 205.06 254.069C222.351 234.621 239.07 219.862 239.213 219.724C243.5 216 244.5 209.793 241.499 204.966C238.498 200.138 232.353 198.069 226.923 200C213.92 204.552 206.489 208 197.2 212.414C189.341 216.138 180.481 220.276 165.334 226.483C140.612 236.552 119.32 238.069 111.175 237.517C110.747 237.517 110.175 237.379 109.603 237.379C102.887 237.379 97.457 242.621 97.457 249.103C97.457 255.172 102.316 260.276 108.46 260.828C109.603 260.966 137.469 263.448 174.765 248C176.766 247.172 178.624 246.345 180.481 245.655C159.046 271.172 146.9 293.103 144.471 310.897C142.899 322.207 148.186 333.103 158.046 338.897C162.476 341.517 167.335 342.759 172.336 342.759C178.624 342.759 184.911 340.69 190.913 336.69C202.202 329.103 211.633 318.621 219.35 308C223.637 314.069 228.495 317.793 234.211 319.448C245.071 322.621 253.788 316.552 257.932 312.69C265.792 305.517 269.793 298.483 272.365 293.931C272.508 293.793 272.508 293.655 272.651 293.379C273.937 293.931 275.509 294.759 277.795 296.138C284.083 299.724 294.657 303.034 309.233 298.207C317.235 295.586 325.809 290.759 334.669 283.724C346.958 274.069 356.961 262.897 360.962 258.207C362.391 256.966 363.535 255.31 364.249 253.517C364.821 252 365.106 250.345 364.964 248.69V50.8966C364.964 22.7586 341.242 0 312.234 0H52.7297C23.5783 0 0 22.7586 0 50.8966V349.103C0 377.241 23.7212 400 52.7297 400H312.234C341.242 400 364.964 377.241 364.964 349.103V308C364.964 301.517 359.533 296.276 352.817 296.276Z" fill="#2148AA"/>
</svg>
