<svg width="355" height="400" viewBox="0 0 355 400" fill="none" xmlns="http://www.w3.org/2000/svg">
<path d="M272.401 94.069C265.865 94.069 260.581 88.8276 260.581 82.3448V35.1724C260.581 32 259.33 29.1034 257.105 26.8966C254.88 24.6897 251.96 23.4483 248.762 23.4483H201.206C194.671 23.4483 189.387 18.2069 189.387 11.7241C189.387 5.24138 194.671 0 201.206 0H248.762C258.217 0 267.117 3.72414 273.791 10.2069C280.466 16.8276 284.081 25.6552 284.081 35.0345V82.3448C284.22 88.8276 278.936 94.069 272.401 94.069Z" fill="#013B00"/>
<path d="M319.543 400H82.1811C75.6457 400 70.3617 394.759 70.3617 388.276V313.793C70.3617 307.311 75.6457 302.069 82.1811 302.069C88.7166 302.069 94.0006 307.311 94.0006 313.793V376.552H319.543C326.078 376.552 331.362 371.311 331.362 364.828V105.793C331.362 99.3107 326.078 94.0694 319.543 94.0694H105.681C99.1455 94.0694 93.8615 99.3107 93.8615 105.793V266.621C93.8615 273.104 88.5775 278.345 82.0421 278.345C75.5066 278.345 70.2227 273.104 70.2227 266.621V105.793C70.2227 86.3452 86.0746 70.6211 105.681 70.6211H319.543C339.149 70.6211 355.001 86.3452 355.001 105.793V364.828C355.001 384.276 339.01 400 319.543 400Z" fill="#013B00"/>
<path d="M319.543 400H82.1811C75.6457 400 70.3617 394.759 70.3617 388.276V313.793C70.3617 307.311 75.6457 302.069 82.1811 302.069C88.7166 302.069 94.0006 307.311 94.0006 313.793V376.552H319.543C326.078 376.552 331.362 371.311 331.362 364.828V105.793C331.362 99.3107 326.078 94.0694 319.543 94.0694H105.681C99.1455 94.0694 93.8615 99.3107 93.8615 105.793V266.621C93.8615 273.104 88.5775 278.345 82.0421 278.345C75.5066 278.345 70.2227 273.104 70.2227 266.621V105.793C70.2227 86.3452 86.0746 70.6211 105.681 70.6211H319.543C339.149 70.6211 355.001 86.3452 355.001 105.793V364.828C355.001 384.276 339.01 400 319.543 400Z" fill="#013B00"/>
<path d="M248.763 150.758H177.429C170.893 150.758 165.609 145.517 165.609 139.034C165.609 132.551 170.893 127.31 177.429 127.31H248.763C255.298 127.31 260.582 132.551 260.582 139.034C260.582 145.517 255.298 150.758 248.763 150.758Z" fill="#013B00"/>
<path d="M248.763 150.758H177.429C170.893 150.758 165.609 145.517 165.609 139.034C165.609 132.551 170.893 127.31 177.429 127.31H248.763C255.298 127.31 260.582 132.551 260.582 139.034C260.582 145.517 255.298 150.758 248.763 150.758Z" fill="#013B00"/>
<path d="M231.105 197.655H195.23C188.694 197.655 183.41 192.413 183.41 185.931C183.41 179.448 188.694 174.207 195.23 174.207H231.105C237.64 174.207 242.924 179.448 242.924 185.931C242.924 192.413 237.64 197.655 231.105 197.655Z" fill="#013B00"/>
<path d="M231.105 197.655H195.23C188.694 197.655 183.41 192.413 183.41 185.931C183.41 179.448 188.694 174.207 195.23 174.207H231.105C237.64 174.207 242.924 179.448 242.924 185.931C242.924 192.413 237.64 197.655 231.105 197.655Z" fill="#013B00"/>
<path d="M281.302 234.759C280.885 234.345 280.468 233.931 280.051 233.517C279.912 233.379 279.773 233.379 279.634 233.241C279.634 233.241 279.634 233.241 279.495 233.241C279.356 233.103 279.217 233.103 279.217 232.965C279.217 232.965 279.078 232.965 279.078 232.828C278.939 232.69 278.799 232.69 278.799 232.552L278.66 232.414C278.521 232.276 278.521 232.276 278.382 232.276C278.243 232.276 278.243 232.138 278.243 232.138C278.104 232.138 278.104 232 277.965 232C277.826 232 277.826 231.862 277.687 231.862C277.548 231.862 277.548 231.724 277.548 231.724C277.409 231.724 277.27 231.586 277.27 231.586H277.131C276.992 231.586 276.853 231.448 276.714 231.448C276.714 231.448 276.714 231.448 276.575 231.448C276.436 231.448 276.297 231.31 276.157 231.31C275.323 231.034 274.35 230.897 273.376 230.759L225.403 227.448C218.868 227.034 213.306 231.862 212.889 238.345C212.472 244.828 217.338 250.345 223.874 250.759L243.48 252.138L152.401 330.759L93.8602 304.138C85.9342 300.552 76.7568 301.517 69.8041 306.759L23.6389 341.241V35.1724C23.6389 28.6897 28.9228 23.4483 35.4583 23.4483H201.626C208.161 23.4483 213.445 18.2069 213.445 11.7241C213.445 5.24138 208.161 0 201.626 0H35.4583C15.991 0 0 15.7241 0 35.1724V341.103C0 350.069 5.00587 358.069 13.0709 362.069C16.4081 363.724 20.0235 364.552 23.6389 364.552C28.6447 364.552 33.6506 362.897 37.8222 359.862L83.9875 325.379L142.667 352C151.15 355.862 161.022 354.483 167.975 348.414L259.193 269.655L257.803 289.103C257.385 295.586 262.252 301.103 268.788 301.517C269.066 301.517 269.344 301.517 269.622 301.517C275.74 301.517 281.024 296.828 281.441 290.621L284.779 243.172C284.501 240.414 283.527 237.241 281.302 234.759Z" fill="#013B00"/>
</svg>
