<svg width="400" height="400" viewBox="0 0 400 400" fill="none" xmlns="http://www.w3.org/2000/svg">
<path d="M140.794 399.999C129.387 400.027 118.45 395.503 110.408 387.42L12.5894 289.6C-4.19648 272.813 -4.19648 245.613 12.5894 228.827L110.408 131.006C127.194 114.248 154.38 114.248 171.18 131.006L207.938 167.765C212.517 172.344 212.517 179.765 207.938 184.344C203.359 188.924 195.938 188.924 191.359 184.344L154.601 147.586C146.973 139.958 134.601 139.958 126.974 147.586L29.1547 245.406C21.5272 253.034 21.5272 265.406 29.1547 273.034L126.974 370.855C134.601 378.482 146.973 378.482 154.601 370.855L191.359 334.096C195.966 329.558 203.386 329.613 207.924 334.234C212.407 338.799 212.407 346.11 207.924 350.675L171.166 387.434C163.139 395.503 152.187 400.027 140.794 399.999Z" fill="#226DB4"/>
<path d="M259.205 400C247.799 400.027 236.861 395.503 228.82 387.42L131.001 289.6C114.215 272.813 114.215 245.613 131.001 228.827L228.82 131.007C245.605 114.22 272.805 114.22 289.591 131.007L387.41 228.827C404.196 245.613 404.196 272.813 387.41 289.6L289.591 387.42C281.55 395.503 270.612 400.027 259.205 400ZM259.205 141.862C254.019 141.848 249.054 143.903 245.399 147.586L147.58 245.407C139.952 253.034 139.952 265.407 147.58 273.034L245.399 370.855C253.026 378.482 265.398 378.482 273.026 370.855L370.845 273.034C378.472 265.407 378.472 253.034 370.845 245.407L273.026 147.586C269.357 143.903 264.391 141.834 259.205 141.862Z" fill="#089949"/>
<path d="M199.993 102.855C171.635 102.855 148.573 79.7793 148.573 51.4345C148.573 23.0896 171.649 0 199.993 0C228.351 0 251.413 23.0759 251.413 51.4207C251.413 79.7655 228.351 102.855 199.993 102.855ZM199.993 23.4345C184.531 23.4345 172.007 35.9586 172.007 51.4207C172.007 66.8827 184.531 79.4069 199.993 79.4069C215.455 79.4069 227.979 66.8827 227.979 51.4207C227.965 35.9724 215.455 23.4483 199.993 23.4345Z" fill="#089949"/>
</svg>
