<svg width="400" height="400" viewBox="0 0 400 400" fill="none" xmlns="http://www.w3.org/2000/svg">
<path d="M396.497 379.862L349.348 332.828C363.823 316.414 375.542 298.069 384.089 277.793C394.429 253.103 399.806 227.034 399.806 200C399.806 172.966 394.567 146.759 384.089 122.207C374.025 98.3448 359.55 76.9655 341.214 58.6207C322.878 40.2759 301.509 25.7931 277.658 15.7241C252.981 5.24138 226.924 0 199.903 0C172.882 0 146.687 5.24138 122.01 15.7241C98.2971 25.7931 76.9282 40.2759 58.4544 58.6207C39.9806 76.9655 25.7806 98.3448 15.7165 122.207C5.23884 146.759 0 172.966 0 200C0 227.034 5.23884 253.241 15.7165 277.793C25.7806 301.655 40.2563 323.034 58.5922 341.379C76.9282 359.724 98.2971 374.207 122.148 384.276C146.687 394.759 172.882 400 199.903 400L388.225 399.862C392.913 399.862 397.186 396.966 399.117 392.552C400.909 388.276 399.944 383.172 396.497 379.862ZM199.903 376.552C176.052 376.552 153.029 371.862 131.247 362.621C110.291 353.793 91.4039 340.966 75.1359 324.828C58.868 308.69 46.1845 289.793 37.3612 268.69C28.1243 246.897 23.4369 223.862 23.4369 200C23.4369 176.138 28.1243 153.103 37.3612 131.31C46.1845 110.345 59.0058 91.4483 75.1359 75.1724C91.4039 58.8966 110.153 46.2069 131.247 37.3793C153.029 28.1379 176.052 23.4483 199.903 23.4483C223.753 23.4483 246.777 28.1379 268.559 37.3793C289.515 46.2069 308.402 59.0345 324.67 75.1724C340.938 91.4483 353.621 110.207 362.445 131.31C371.682 153.103 376.369 176.138 376.369 200C376.369 223.862 371.682 246.897 362.583 268.552C355.276 285.931 345.212 301.931 332.804 316.138L228.303 211.724H243.882C250.361 211.724 255.6 206.483 255.6 200C255.6 193.517 250.361 188.276 243.882 188.276H200.179C200.179 188.276 200.179 188.276 200.041 188.276C197.008 188.276 193.975 189.379 191.631 191.724C188.874 194.483 187.771 198.483 188.322 202.069V243.724C188.322 250.207 193.561 255.448 200.041 255.448C206.52 255.448 211.759 250.207 211.759 243.724V228.414L359.963 376.414L199.903 376.552Z" fill="#E42527"/>
<path d="M199.903 278.897C156.476 278.897 121.045 243.449 121.045 200C121.045 156.552 156.476 121.104 199.903 121.104C243.331 121.104 278.762 156.552 278.762 200C278.762 206.897 277.934 213.656 276.142 220.138C274.488 226.345 278.21 232.828 284.552 234.483C290.756 236.138 297.235 232.414 298.89 226.069C301.096 217.518 302.199 208.828 302.199 199.862C302.199 172.552 291.583 146.759 272.282 127.449C252.981 108.138 227.338 97.5176 199.903 97.5176C172.468 97.5176 146.826 108.138 127.525 127.449C108.224 146.759 97.7461 172.69 97.7461 200C97.7461 227.311 108.362 253.104 127.663 272.414C146.964 291.724 172.606 302.345 200.041 302.345C209.278 302.345 218.377 301.104 227.2 298.759C233.404 297.104 237.127 290.621 235.472 284.276C233.818 278.069 227.338 274.345 220.997 276C214.103 277.931 207.072 278.897 199.903 278.897Z" fill="#E42527"/>
</svg>
