<svg width="400" height="400" viewBox="0 0 400 400" fill="none" xmlns="http://www.w3.org/2000/svg">
<path d="M353.219 400H47.0531C33.9514 400 21.4013 394.483 12.437 384.828C3.61058 375.172 -0.940538 362.207 0.162763 349.103L20.5738 108.138C21.1255 101.655 26.7799 96.8276 33.2618 97.3793C39.7437 97.931 44.5706 103.586 44.019 110.069L23.7458 351.034C23.1942 357.655 25.4008 364 29.814 368.966C34.3651 373.793 40.4332 376.552 47.0531 376.552H353.081C359.701 376.552 365.907 373.793 370.32 368.966C374.733 364.138 376.94 357.655 376.388 351.034L353.495 76C353.081 71.1724 351.288 66.7586 348.254 63.0345L322.74 32C318.189 26.4828 311.707 23.4483 304.536 23.4483H95.5983C88.5648 23.4483 81.9449 26.6207 77.3938 32L60.8443 52.2759H310.466C316.948 52.2759 322.189 57.5172 322.189 64C322.189 70.4828 316.948 75.7241 310.466 75.7241H44.019C37.9508 75.7241 32.5722 72.2759 30.0898 66.8966C27.4695 61.3793 28.2969 55.1724 32.1585 50.4828L59.4652 17.1034C68.2916 6.2069 81.5312 0 95.5983 0H304.536C318.603 0 331.843 6.2069 340.807 17.2414L366.183 48.1379C372.251 55.5862 375.837 64.4138 376.664 73.931L399.833 349.103C400.937 362.207 396.524 375.172 387.559 384.828C378.871 394.483 366.321 400 353.219 400Z" fill="#089949"/>
<path d="M200.136 223.725C173.381 223.725 148.281 213.38 129.387 194.484C110.493 175.587 100.149 150.484 100.149 123.725C100.149 117.242 105.39 112.001 111.872 112.001C118.354 112.001 123.595 117.242 123.595 123.725C123.595 165.932 157.935 200.277 200.136 200.277C242.337 200.277 276.678 165.932 276.678 123.725C276.678 117.242 281.918 112.001 288.4 112.001C294.882 112.001 300.123 117.242 300.123 123.725C300.123 150.484 289.779 175.587 270.885 194.484C251.991 213.38 226.891 223.725 200.136 223.725Z" fill="#089949"/>
<path d="M76.8428 265.379C84.3833 265.379 90.4962 259.265 90.4962 251.724C90.4962 244.182 84.3833 238.068 76.8428 238.068C69.3023 238.068 63.1895 244.182 63.1895 251.724C63.1895 259.265 69.3023 265.379 76.8428 265.379Z" fill="#E42527"/>
<path d="M76.8428 306.345C84.3833 306.345 90.4962 300.231 90.4962 292.689C90.4962 285.148 84.3833 279.034 76.8428 279.034C69.3023 279.034 63.1895 285.148 63.1895 292.689C63.1895 300.231 69.3023 306.345 76.8428 306.345Z" fill="#E42527"/>
<path d="M76.8428 347.447C84.3833 347.447 90.4962 341.333 90.4962 333.792C90.4962 326.25 84.3833 320.137 76.8428 320.137C69.3023 320.137 63.1895 326.25 63.1895 333.792C63.1895 341.333 69.3023 347.447 76.8428 347.447Z" fill="#E42527"/>
</svg>
