<svg width="323" height="400" viewBox="0 0 323 400" fill="none" xmlns="http://www.w3.org/2000/svg">
<path d="M282.673 0H40.4545C18.1918 0 0.127215 19.5862 0 43.7241V356.138C0.127215 380.414 18.1918 400 40.4545 400H71.2406C77.2198 400 82.054 394.759 82.054 388.276V299.862H161.945C184.208 299.862 202.273 280.276 202.273 256.138V215.172C202.273 208.69 197.438 203.448 191.459 203.448H100.755C78.4919 203.448 60.4273 223.034 60.4273 247.172V287.31V288V376.552H40.3273C30.0228 376.552 21.6266 367.448 21.6266 356.276V43.7241C21.6266 32.5517 30.0228 23.4483 40.3273 23.4483H282.545C292.85 23.4483 301.246 32.5517 301.246 43.7241V356.138C301.246 367.31 292.85 376.414 282.545 376.414H114.494C108.515 376.414 103.681 381.655 103.681 388.138C103.681 394.621 108.515 399.862 114.494 399.862H282.673C304.935 399.862 323 380.276 323 356.138V43.7241C323 19.5862 304.935 0 282.673 0ZM82.054 247.31C82.054 236.138 90.4502 227.034 100.755 227.034H180.646V256.138C180.646 267.31 172.25 276.414 161.945 276.414H82.054V247.31Z" fill="#191F27"/>
<path d="M262.571 76.9663C262.571 70.4836 257.737 65.2422 251.758 65.2422H100.753C78.4904 65.2422 60.4258 84.8284 60.4258 108.966V149.794C60.4258 156.277 65.26 161.518 71.2391 161.518H222.244C244.507 161.518 262.571 141.932 262.571 117.794V76.9663ZM240.944 117.794C240.944 128.966 232.548 138.07 222.244 138.07H82.0524V108.966C82.0524 97.7939 90.4486 88.6905 100.753 88.6905H240.944V117.794Z" fill="#191F27"/>
</svg>
