<svg width="380" height="400" viewBox="0 0 380 400" fill="none" xmlns="http://www.w3.org/2000/svg">
<path d="M63.8593 400C54.1816 400 44.7843 396.827 37.0701 390.896C28.5144 384.413 22.7639 375.033 20.9405 364.55C1.1642 251.164 -4.30585 151.159 3.26806 40.3947C3.26806 40.2568 3.26806 40.1189 3.26806 39.9809C4.10961 28.532 9.43939 18.0487 18.2756 10.4621C27.2521 2.8755 38.613 -0.710901 50.2544 0.116729C66.945 1.35817 215.618 12.6691 295.705 20.1178C295.705 20.1178 295.705 20.1178 295.845 20.1178C304.401 20.9454 311.695 24.5318 316.884 30.3252C322.214 36.2566 324.879 43.8432 324.598 52.3954C324.458 57.9129 323.616 66.741 323.476 67.1548C322.775 73.6379 317.024 78.3278 310.432 77.6381C303.84 76.9484 299.071 71.2929 299.773 64.8098C299.773 64.6719 300.614 56.3956 300.754 51.7057C300.895 46.6019 298.51 43.8432 293.461 43.2914C213.514 35.9807 65.2619 24.8077 48.431 23.4283C43.1012 23.0145 37.9117 24.6698 33.9845 28.1182C29.917 31.5667 27.5326 36.2566 27.1119 41.4982V41.6362C27.1119 41.6362 27.1119 41.6362 27.1119 41.7741C19.5379 150.607 24.8677 248.82 44.3635 360.412C46.1869 370.205 55.1634 377.102 65.2619 376.413C81.2513 375.309 223.753 365.24 307.767 358.343C310.152 358.205 312.396 356.963 313.798 355.17C314.78 353.791 315.201 352.411 314.92 350.894C313.237 342.893 312.256 337.238 312.256 337.1C311.134 330.755 315.481 324.686 322.074 323.582C328.525 322.479 334.697 326.755 335.819 333.238C335.819 333.238 336.801 338.617 338.343 346.204C340.027 354.342 338.203 362.481 333.014 369.24C327.544 376.413 319.128 380.964 309.871 381.792C225.717 388.827 83.0746 398.759 67.0853 399.862C65.9632 400 64.8411 400 63.8593 400Z" fill="#226DB4"/>
<path d="M354.895 221.922C370.323 209.37 380.001 190.472 380.001 169.23C380.001 131.435 348.723 100.812 310.433 100.812C272.143 100.812 240.865 131.573 240.865 169.23C240.865 191.852 252.086 211.991 269.338 224.405L275.509 302.616C275.789 306.892 278.454 310.479 282.381 312.272C284.065 312.962 285.748 313.376 287.431 313.376C289.815 313.376 292.2 312.686 294.303 311.168L317.867 294.892L344.095 309.099C347.882 311.168 352.651 311.031 356.297 308.686C359.944 306.341 362.048 302.202 361.627 297.788L354.895 221.922ZM310.433 124.262C335.679 124.262 356.157 144.401 356.157 169.23C356.157 194.059 335.679 214.198 310.433 214.198C285.187 214.198 264.709 194.059 264.709 169.23C264.709 144.401 285.187 124.262 310.433 124.262ZM322.776 271.028C318.848 268.821 313.939 269.097 310.152 271.718L297.67 280.408L294.163 235.854C299.353 237.096 304.823 237.785 310.433 237.785C318.007 237.785 325.3 236.544 332.033 234.475L335.82 278.201L322.776 271.028Z" fill="#F9B21D"/>
<path d="M214.917 137.918C214.777 137.918 214.496 137.918 214.356 137.918L84.8984 131.71C78.3063 131.435 73.257 125.917 73.5375 119.434C73.818 112.951 79.4283 107.985 86.0204 108.261L215.478 114.468C222.07 114.744 227.12 120.262 226.839 126.745C226.559 133.09 221.229 137.918 214.917 137.918Z" fill="#226DB4"/>
<path d="M208.324 212.128L86.7207 211.438C80.1286 211.438 74.7988 206.058 74.7988 199.575C74.7988 193.092 80.2689 187.851 86.861 187.851L208.464 188.54C215.056 188.54 220.386 193.92 220.386 200.403C220.246 207.024 214.916 212.128 208.324 212.128Z" fill="#226DB4"/>
<path d="M94.0148 291.167C87.5629 291.167 82.3734 286.202 82.0929 279.856C81.8124 273.373 87.0019 267.994 93.594 267.718L235.254 262.614C241.846 262.338 247.316 267.442 247.597 273.925C247.877 280.408 242.688 285.788 236.096 286.064L94.4356 291.167C94.2953 291.167 94.155 291.167 94.0148 291.167Z" fill="#226DB4"/>
</svg>
