<svg width="400" height="400" viewBox="0 0 400 400" fill="none" xmlns="http://www.w3.org/2000/svg">
<path d="M54.4226 267.824C50.4219 267.824 46.5592 265.754 44.3519 262.029C29.4528 236.918 21.7273 208.081 22.0032 178.693C22.1412 172.346 27.3835 167.104 33.7294 167.104H33.8673C40.3512 167.241 45.4556 172.484 45.4556 178.969C45.1796 203.942 51.6635 228.501 64.4933 249.887C67.8042 255.406 66.0108 262.581 60.4926 266.03C58.5613 267.272 56.4919 267.824 54.4226 267.824Z" fill="#3F249D"/>
<path d="M256.25 66.1056C254.181 66.1056 252.111 65.5537 250.318 64.4499C228.935 51.6184 204.241 45.1337 179.271 45.4097H179.133C172.787 45.4097 167.545 40.3047 167.407 33.8199C167.269 27.3352 172.511 21.9543 178.995 21.9543C208.38 21.5404 237.212 29.2668 262.458 44.3059C267.976 47.6172 269.907 54.7918 266.459 60.4487C264.113 64.036 260.251 66.1056 256.25 66.1056Z" fill="#3F249D"/>
<path d="M252.802 321.079C248.663 321.079 244.662 318.872 242.593 315.147C239.42 309.49 241.351 302.315 247.146 299.142C257.906 293.071 267.839 285.482 276.668 276.79C285.497 267.96 292.947 258.026 299.017 247.264C302.19 241.607 309.363 239.537 315.019 242.711C320.676 245.884 322.745 253.059 319.572 258.716C312.536 271.409 303.707 282.999 293.222 293.347C282.876 303.695 271.15 312.525 258.596 319.7C256.802 320.527 254.871 321.079 252.802 321.079Z" fill="#3F249D"/>
<path d="M323.022 219.808C303.294 219.808 283.566 212.357 268.667 197.318C254.044 182.693 246.181 163.377 246.181 142.957C246.181 122.399 254.182 103.083 268.667 88.5957C298.741 58.5176 347.577 58.5176 377.514 88.5957C391.999 103.221 400 122.537 400 142.957C400 163.515 391.999 182.831 377.514 197.318C362.477 212.219 342.749 219.808 323.022 219.808ZM323.022 89.2855C309.364 89.2855 295.568 94.5285 285.222 104.876C275.151 114.948 269.495 128.47 269.495 142.681C269.495 156.892 275.013 170.414 285.222 180.486C306.053 201.319 339.99 201.319 360.959 180.486C371.03 170.414 376.686 156.892 376.686 142.681C376.686 128.47 371.168 114.948 360.959 104.876C350.475 94.5285 336.817 89.2855 323.022 89.2855Z" fill="#3F249D"/>
<path d="M76.9098 153.857C56.3545 153.857 37.0409 145.855 22.5556 131.367C-7.51854 101.289 -7.51854 52.447 22.5556 22.5068C52.6298 -7.43326 101.466 -7.57123 131.402 22.5068C146.025 36.994 153.889 56.4482 153.889 77.0061C153.889 97.5641 145.887 116.88 131.402 131.505C116.779 145.855 97.4651 153.857 76.9098 153.857ZM76.9098 23.3347C63.2523 23.3347 49.4568 28.5777 39.1102 38.9256C18.1411 59.8975 18.1411 93.8388 39.1102 114.673C49.1809 124.745 62.7005 130.402 76.9098 130.402C91.1192 130.402 104.639 124.883 114.709 114.673C124.78 104.601 130.436 91.0794 130.436 76.8681C130.436 62.6569 124.918 49.1356 114.709 39.0636C104.225 28.5777 90.5673 23.3347 76.9098 23.3347Z" fill="#3F249D"/>
<path d="M142.851 400C122.296 400 102.982 391.997 88.497 377.51C58.4229 347.432 58.4229 298.59 88.497 268.65C103.12 254.025 122.434 246.16 142.851 246.16C163.406 246.16 182.72 254.163 197.205 268.65C227.28 298.728 227.28 347.57 197.205 377.51C182.72 391.997 163.406 400 142.851 400ZM142.851 269.478C128.504 269.478 115.122 274.996 105.052 285.206C84.2204 306.04 84.2204 339.982 105.052 360.954C115.122 371.026 128.642 376.682 142.851 376.682C157.061 376.682 170.58 371.164 180.651 360.954C201.482 340.12 201.482 306.178 180.651 285.206C170.58 274.996 157.199 269.478 142.851 269.478Z" fill="#3F249D"/>
</svg>
