<svg width="400" height="400" viewBox="0 0 400 400" fill="none" xmlns="http://www.w3.org/2000/svg">
<path d="M325.032 296.04C318.549 296.04 313.308 290.786 313.308 284.304C313.308 281.201 314.549 278.208 316.742 276.015L365.13 227.636C380.372 212.355 380.372 187.628 365.13 172.347L323.818 131.043C319.335 126.354 319.515 118.934 324.191 114.452C328.729 110.121 335.86 110.121 340.398 114.452L381.71 155.756C406.097 180.153 406.097 219.83 381.71 244.227L333.322 292.606C331.129 294.813 328.149 296.054 325.032 296.04Z" fill="#089949"/>
<path d="M68.0452 289.104C64.9278 289.104 61.9484 287.876 59.7553 285.67L18.3057 244.227C-6.09501 219.831 -6.09501 180.154 18.2643 155.771L66.7072 107.281C71.2453 102.661 78.68 102.592 83.3008 107.143C87.9216 111.68 87.9906 119.114 83.4387 123.734C83.3973 123.775 83.356 123.83 83.3008 123.872L34.8717 172.348C19.6437 187.628 19.6437 212.342 34.8717 227.623L76.3213 269.065C80.9007 273.644 80.9007 281.077 76.3213 285.656C74.1143 287.849 71.1349 289.09 68.0314 289.09L68.0452 289.104Z" fill="#089949"/>
<path d="M200.008 244.71C175.303 244.71 155.289 224.685 155.289 199.985C155.289 175.285 175.317 155.274 200.021 155.274C224.726 155.274 244.74 175.299 244.74 199.999C244.712 224.685 224.698 244.696 200.008 244.71ZM200.008 178.733C188.269 178.733 178.752 188.263 178.752 199.999C178.752 211.735 188.283 221.251 200.021 221.251C211.76 221.251 221.277 211.735 221.277 199.999C221.263 188.263 211.746 178.747 200.008 178.733Z" fill="#F9B21D"/>
<path d="M200.007 303.378C179.662 303.406 159.758 297.42 142.791 286.167C137.398 282.581 135.922 275.299 139.509 269.907C143.095 264.515 150.378 263.039 155.771 266.625C168.875 275.327 184.269 279.947 200.007 279.919C244.201 279.919 280.134 243.98 280.134 199.807V101.945C280.161 92.608 276.451 83.6437 269.83 77.0653L227.677 34.9058C220.366 27.5551 210.407 23.4315 200.035 23.4591C189.662 23.4315 179.703 27.5551 172.379 34.9196L116.598 90.7186C112.018 95.2973 104.583 95.311 100.004 90.7324C95.4245 86.1537 95.4108 78.7203 99.9902 74.1416L155.771 18.3288C167.468 6.55114 183.4 -0.0410307 200.007 0.000342743C216.614 -0.0548219 232.56 6.55114 244.27 18.3288L286.437 60.4884C297.472 71.4661 303.652 86.402 303.61 101.958V200.096C303.445 257.178 257.112 303.378 200.007 303.378Z" fill="#E42527"/>
<path d="M200.008 400C183.401 400.042 167.483 393.45 155.773 381.672L113.606 339.498C102.571 328.535 96.3914 313.599 96.4328 298.056V199.918C96.5983 142.712 143.11 96.4707 200.326 96.6362C220.643 96.6913 240.492 102.718 257.403 113.972C262.838 117.502 264.369 124.77 260.838 130.204C257.307 135.638 250.037 137.168 244.603 133.638C244.534 133.596 244.465 133.541 244.382 133.5C231.251 124.729 215.802 120.054 199.995 120.081C155.8 120.081 119.868 156.021 119.868 200.194V298.042C119.84 307.379 123.551 316.329 130.172 322.922L172.352 365.095C187.622 380.348 212.367 380.348 227.637 365.095L283.556 309.186C288.135 304.607 295.57 304.607 300.149 309.186C304.729 313.764 304.729 321.198 300.149 325.776L244.23 381.686C232.547 393.449 216.616 400.055 200.008 400Z" fill="#E42527"/>
</svg>
