<svg width="400" height="353" viewBox="0 0 400 353" fill="none" xmlns="http://www.w3.org/2000/svg">
<path d="M336.506 312.737C334.851 312.737 333.196 312.592 331.54 312.303L294.99 306.944C288.645 305.93 284.093 299.703 285.059 293.041C286.024 286.379 291.955 281.599 298.3 282.613L334.851 287.972C341.195 288.986 347.126 284.206 348.092 277.544L376.367 65.9511C376.781 62.7649 375.953 59.4338 374.16 56.8269C372.229 54.22 369.609 52.4821 366.436 52.0476L181.061 24.82C174.716 23.8062 168.785 28.5855 167.82 35.2476L164.372 60.7373C163.406 67.3993 157.475 72.1787 151.13 71.1649C144.786 70.1511 140.234 63.9235 141.2 57.2614L144.648 31.7718C147.406 11.6407 165.199 -2.40756 184.371 0.344165L369.747 27.7166C378.988 29.02 387.263 34.089 392.918 42.0545C398.574 49.8752 400.918 59.5786 399.677 69.4269L371.402 281.02C368.781 299.413 353.747 312.737 336.506 312.737Z" fill="#089949"/>
<path d="M43.5458 352.854C37.7528 352.854 32.7874 348.364 31.9598 342.281L0.374303 106.357C-1.00498 96.6537 1.47773 86.9503 6.99485 79.1296C12.6499 71.3089 20.9256 66.2399 30.1668 64.7917L215.542 37.4192C234.714 34.5227 252.507 48.7158 255.265 68.8468L281.61 265.378C282.575 272.04 278.024 278.268 271.679 279.281C265.334 280.295 259.403 275.516 258.438 268.854L232.094 72.1779C231.128 65.5158 225.197 60.7365 218.852 61.7503L33.4771 89.1227C30.4426 89.5572 27.6841 91.2951 25.7531 93.902C23.8221 96.5089 23.1324 99.6951 23.5462 103.026L55.1318 338.95C56.0973 345.612 51.5456 351.84 45.2009 352.854C44.6492 352.854 44.0975 352.854 43.5458 352.854Z" fill="#E42527"/>
<path d="M350.849 119.538C350.849 99.2621 335.125 82.6069 315.677 82.6069C296.229 82.6069 280.506 99.1173 280.506 119.538C280.506 132.283 286.574 143.435 295.954 150.097L270.161 254.662C263.678 255.241 257.747 257.704 252.644 261.469L168.922 202.379C169.611 199.483 170.025 196.297 170.025 193.255C170.025 172.979 154.301 156.324 134.854 156.324C115.406 156.324 99.6818 172.835 99.6818 193.255C99.6818 201.655 102.44 209.476 106.854 215.704L33.4763 333.883C29.8902 339.531 31.5453 347.207 36.9245 350.973C38.8555 352.276 41.0624 353 43.2692 353C47.1312 353 50.8553 350.973 53.0621 347.352L126.44 229.172C129.061 229.897 131.819 230.186 134.716 230.186C142.577 230.186 149.75 227.435 155.681 222.945L239.127 281.89C238.3 284.931 237.886 288.262 237.886 291.593C237.886 311.869 253.61 328.524 273.057 328.524C292.367 328.524 308.229 312.014 308.229 291.593C308.229 278.848 302.022 267.552 292.643 261.035L318.436 156.614C336.642 154.731 350.849 138.8 350.849 119.538ZM315.677 107.372C322.16 107.372 327.401 112.876 327.401 119.683C327.401 126.49 322.16 131.993 315.677 131.993C309.195 131.993 303.953 126.49 303.953 119.683C303.953 112.876 309.195 107.372 315.677 107.372ZM123.268 193.255C123.268 186.448 128.509 180.945 134.991 180.945C141.474 180.945 146.715 186.448 146.715 193.255C146.715 195.572 146.164 197.745 145.06 199.483C144.922 199.628 144.784 199.917 144.646 200.062C144.508 200.207 144.371 200.497 144.233 200.641C142.026 203.538 138.715 205.566 134.991 205.566C128.509 205.421 123.268 200.062 123.268 193.255ZM273.333 303.614C266.851 303.614 261.609 298.11 261.609 291.304C261.609 284.497 266.851 278.993 273.333 278.993C279.816 278.993 285.057 284.497 285.057 291.304C285.057 298.11 279.816 303.614 273.333 303.614Z" fill="#226DB4"/>
</svg>
