<svg width="397" height="400" viewBox="0 0 397 400" fill="none" xmlns="http://www.w3.org/2000/svg">
<path d="M198.569 142.184C178.214 142.184 161.735 125.769 161.735 105.492C161.735 85.214 178.214 68.7988 198.569 68.7988C218.924 68.7988 235.403 85.214 235.403 105.492C235.403 125.631 218.924 142.184 198.569 142.184ZM198.569 92.1112C191.23 92.1112 185.276 98.0427 185.276 105.354C185.276 112.665 191.23 118.596 198.569 118.596C205.908 118.596 211.862 112.665 211.862 105.354C211.862 98.0427 205.908 92.1112 198.569 92.1112Z" fill="#226DB4"/>
<path d="M119.086 400.001C112.855 400.001 106.762 398.346 101.362 395.311L17.7245 347.169C6.78515 340.823 0 329.236 0 316.683V220.537C0 207.984 6.78515 196.397 17.7245 190.052L85.576 151.152C91.2533 147.841 98.4539 149.772 101.639 155.428C104.962 161.084 103.023 168.257 97.3461 171.429L29.4946 210.329C25.8943 212.398 23.5403 216.261 23.5403 220.537V316.683C23.5403 320.822 25.7559 324.684 29.4946 326.891L113.132 375.033C116.732 377.102 121.302 377.102 124.902 375.033L192.615 335.995C198.292 332.685 205.493 334.616 208.678 340.272C212.001 345.927 210.063 353.1 204.385 356.273L136.672 395.173C131.272 398.346 125.179 400.001 119.086 400.001Z" fill="#E42527"/>
<path d="M278.052 400.001C271.821 400.001 265.728 398.346 260.328 395.311L192.476 356.273C186.799 352.962 184.86 345.927 188.183 340.272C191.507 334.616 198.569 332.685 204.246 335.995L272.098 375.033C275.698 377.102 280.268 377.102 283.868 375.033L367.505 326.891C371.105 324.822 373.46 320.96 373.46 316.683V220.537C373.46 216.399 371.244 212.536 367.505 210.329L299.792 171.429C294.115 168.119 292.176 161.084 295.5 155.428C298.823 149.772 305.885 147.841 311.562 151.152L379.275 190.052C390.215 196.397 397 207.984 397 220.537V316.683C397 329.236 390.215 340.823 379.275 347.169L295.638 395.311C290.376 398.346 284.283 400.001 278.052 400.001Z" fill="#F9B21D"/>
<path d="M91.3912 173.084C84.883 173.084 79.6211 167.842 79.6211 161.359V83.283C79.6211 70.7302 86.4062 59.143 97.3456 52.7976L180.983 4.65557C191.922 -1.55186 205.354 -1.55186 216.293 4.65557L299.931 52.7976C310.87 59.143 317.655 70.7302 317.655 83.283V161.359C317.655 167.842 312.393 173.084 305.885 173.084C299.377 173.084 294.115 167.842 294.115 161.359V83.283C294.115 79.1448 291.899 75.2823 288.161 73.0753L204.523 24.9332C200.923 22.864 196.353 22.864 192.753 24.9332L109.116 73.0753C105.515 75.1444 103.161 79.0068 103.161 83.283V161.359C103.161 167.704 97.8995 173.084 91.3912 173.084Z" fill="#089949"/>
<path d="M170.876 250.331C168.799 250.331 166.86 249.779 164.922 248.814L97.2088 209.914C86.2695 203.568 79.4844 191.981 79.4844 179.428V161.358C79.4844 154.875 84.7463 149.633 91.2545 149.633C97.7627 149.633 103.025 154.875 103.025 161.358V179.291C103.025 183.429 105.24 187.291 108.979 189.498L176.692 228.536C182.369 231.847 184.308 238.882 180.985 244.538C179.046 248.124 175.169 250.469 170.876 250.331Z" fill="#226DB4"/>
<path d="M226.265 250.47C219.757 250.47 214.495 245.228 214.495 238.745C214.495 234.607 216.711 230.607 220.449 228.537L288.301 189.5C291.901 187.43 294.255 183.568 294.255 179.292V161.221C294.255 154.738 299.517 149.496 306.025 149.496C312.534 149.496 317.796 154.738 317.796 161.221V179.43C317.796 191.983 311.01 203.57 300.071 209.915L232.22 248.815C230.281 249.919 228.342 250.47 226.265 250.47Z" fill="#226DB4"/>
<path d="M198.571 202.879C192.063 202.879 186.801 197.637 186.801 191.154C186.801 187.016 189.016 183.015 192.755 180.946L260.468 142.046C271.407 135.839 284.839 135.839 295.779 142.046L311.703 151.15C317.38 154.461 319.319 161.496 315.996 167.152C312.672 172.807 305.61 174.739 299.933 171.428L284.008 162.324C280.408 160.255 275.839 160.255 272.238 162.324L204.525 201.224C202.587 202.327 200.648 202.879 198.571 202.879Z" fill="#226DB4"/>
<path d="M198.432 357.789C196.355 357.789 194.417 357.237 192.478 356.271L176.692 347.167C165.753 340.822 159.106 329.235 158.968 316.682V238.606C158.968 232.123 164.23 226.881 170.738 226.881C177.246 226.881 182.508 232.123 182.508 238.606V316.682C182.508 320.82 184.724 324.682 188.462 326.889L204.248 335.994C209.926 339.304 211.864 346.339 208.541 351.995C206.602 355.582 202.725 357.789 198.432 357.789Z" fill="#226DB4"/>
<path d="M198.571 357.927C192.063 357.927 186.801 352.685 186.801 346.201C186.801 342.063 189.016 338.063 192.755 335.994L208.679 326.889C212.28 324.82 214.634 320.958 214.634 316.682V238.606C214.634 232.123 219.896 226.881 226.404 226.881C232.912 226.881 238.174 232.123 238.174 238.606V316.682C238.174 329.235 231.389 340.822 220.45 347.167L204.525 356.271C202.587 357.375 200.648 357.927 198.571 357.927Z" fill="#226DB4"/>
<path d="M198.571 202.879C196.494 202.879 194.555 202.327 192.617 201.362L124.904 162.324C121.304 160.255 116.734 160.255 113.134 162.324L97.3478 171.428C91.6704 174.739 84.4699 172.807 81.285 167.152C77.9616 161.496 79.9003 154.323 85.5776 151.15L101.363 142.046C112.303 135.839 125.735 135.839 136.674 142.046L204.387 181.084C210.064 184.395 212.003 191.43 208.68 197.085C206.741 200.534 202.725 202.879 198.571 202.879Z" fill="#226DB4"/>
</svg>
