<svg width="400" height="361" viewBox="0 0 400 361" fill="none" xmlns="http://www.w3.org/2000/svg">
<path d="M344.176 119.94H315.369L331.082 93.1228C339.077 79.4893 341.695 63.4586 338.525 47.7275C335.355 31.9965 326.671 18.5127 314.128 9.82322C288.353 -8.00529 254.032 0.234779 237.491 28.251L200.138 91.9243L162.509 27.8016C146.106 -0.214685 111.647 -8.45475 85.8718 9.52358C73.3287 18.2131 64.6451 31.6969 61.4748 47.4279C58.3046 63.1589 60.9235 79.3394 68.918 92.8232L84.907 119.94H55.5479C24.9483 119.94 0 147.058 0 180.318C0 213.578 24.9483 240.695 55.5479 240.695H85.0448L69.0558 267.812C61.0613 281.446 58.4425 297.477 61.6127 313.208C64.7829 328.939 73.4666 342.422 86.0097 351.112C95.2447 357.554 105.582 360.551 115.782 360.551C134.114 360.551 152.033 350.662 162.646 332.684L200.138 269.011L237.767 333.134C248.38 351.112 266.299 361 284.631 361C294.831 361 305.169 358.004 314.404 351.561C326.947 342.872 335.631 329.388 338.801 313.657C341.971 297.926 339.352 281.746 331.358 268.262L315.093 240.695H344.452C375.052 240.695 400 213.578 400 180.318C399.724 147.058 374.776 119.94 344.176 119.94ZM190.627 237.549C190.214 238.148 189.938 238.747 189.662 239.347L142.798 318.901C133.287 335.081 113.439 339.726 98.5527 329.538C91.3853 324.594 86.4232 316.803 84.4935 307.664C82.7016 298.525 84.2178 289.236 88.7664 281.446L127.912 214.926H55.5479C37.9049 214.926 23.57 199.345 23.57 180.168C23.57 160.991 37.9049 145.41 55.5479 145.41H127.912L88.7664 79.0398C84.2178 71.2492 82.7016 61.9604 84.4935 52.8214C86.2853 43.6824 91.2474 36.0416 98.5527 30.9478C113.439 20.6102 133.287 25.4044 142.798 41.5849L189.938 121.589C190.214 122.038 190.489 122.637 190.765 123.087L224.397 180.168L190.627 237.549ZM344.176 214.926H271.95L311.371 281.895C315.92 289.686 317.436 298.975 315.644 308.114C313.853 317.253 308.89 324.893 301.585 329.987C286.699 340.325 266.85 335.531 257.34 319.35L213.921 245.19L252.102 180.168L214.059 115.596L257.34 42.0344C266.85 25.8539 286.699 21.2095 301.585 31.3972C308.753 36.3413 313.715 44.1319 315.644 53.2709C317.436 62.4098 315.92 71.6986 311.371 79.4893L272.502 145.56H344.176C361.819 145.56 376.154 161.141 376.154 180.318C376.154 199.495 361.819 214.926 344.176 214.926Z" fill="#00123F"/>
</svg>
