<svg width="400" height="400" viewBox="0 0 400 400" fill="none" xmlns="http://www.w3.org/2000/svg">
<path d="M393.632 88.1743L292.646 4.18679C287.253 -0.296037 279.923 -1.26157 273.541 1.6902C267.159 4.64197 263.188 10.8076 263.188 17.7732V51.0979H76.9204C57.1468 51.0979 41.0521 67.0154 41.0521 86.6019V256.067L6.45184 284.605C2.36892 287.984 0.0139349 292.936 0 298.205C0 303.474 2.32712 308.44 6.3961 311.833L107.382 395.807C110.712 398.566 114.754 400 118.864 400C121.428 400 124.034 399.448 126.487 398.303C132.869 395.352 136.84 389.186 136.84 382.22V348.896H323.094C342.867 348.896 358.962 332.978 358.962 313.392V143.927L393.548 115.389C397.645 112.009 399.986 107.057 400 101.788C400 96.5193 397.687 91.5537 393.604 88.1606L393.632 88.1743ZM335.078 313.406C335.078 319.93 329.713 325.24 323.121 325.24H124.926C118.321 325.24 112.97 330.537 112.97 337.075V369.544L27.2705 298.274L112.677 227.804V253.943C112.677 263.722 120.718 271.695 130.611 271.695H269.054C278.948 271.695 286.988 263.736 286.988 253.943V203.362L335.091 163.679V313.419L335.078 313.406ZM189.639 220.825C192.594 223.252 196.203 224.466 199.826 224.466C203.449 224.466 207.058 223.252 210.012 220.825L263.09 177.21V248.011H136.589V177.21L189.653 220.811L189.639 220.825ZM143.32 151.996H256.332L199.826 198.424L143.32 151.996ZM286.988 172.548V146.079C286.988 136.299 278.948 128.327 269.054 128.327H130.597C120.718 128.327 112.663 136.285 112.663 146.079V196.99L64.9643 236.342V86.6019C64.9643 80.0777 70.3292 74.7672 76.9204 74.7672H275.13C281.735 74.7672 287.086 69.4706 287.086 62.9326V30.4631L372.785 101.733L286.974 172.534L286.988 172.548Z" fill="#010213"/>
</svg>
