<svg width="300" height="300" viewBox="0 0 300 300" fill="none" xmlns="http://www.w3.org/2000/svg">
<path d="M300 150C300 166.041 298.711 181.769 296.247 197.105C288.093 247.876 247.876 288.093 197.105 296.247C181.768 298.711 166.039 300 150 300C133.961 300 118.232 298.711 102.895 296.247C52.1241 288.093 11.9073 247.876 3.75269 197.105C1.28944 181.769 0 166.041 0 150C0 133.959 1.28944 118.231 3.75269 102.895C11.9072 52.1236 52.1241 11.907 102.895 3.75269C118.232 1.28944 133.961 0 150 0C166.039 0 181.768 1.28944 197.105 3.75269C247.876 11.907 288.093 52.1236 296.247 102.895C298.711 118.231 300 133.959 300 150Z" fill="url(#paint0_linear_332_7)"/>
<path d="M239.062 243.75H87.2003C76.5454 243.75 67.0257 237.389 62.9484 227.545C58.8711 217.701 61.105 206.472 68.6394 198.939L173.828 93.75H98.4374C77.7267 93.75 60.9374 76.9607 60.9374 56.25H200.987C211.641 56.25 221.161 62.6092 225.238 72.453C229.317 82.2967 227.084 93.5248 219.551 101.061L114.361 206.25H201.562C222.273 206.25 239.062 223.039 239.062 243.75Z" fill="white"/>
<defs>
<linearGradient id="paint0_linear_332_7" x1="70.9981" y1="286.835" x2="229.002" y2="13.1648" gradientUnits="userSpaceOnUse">
<stop stop-color="#0845BF"/>
<stop offset="0.6" stop-color="#0B5CFF"/>
<stop offset="1" stop-color="#4F90EE"/>
</linearGradient>
</defs>
</svg>
