<svg width="400" height="400" viewBox="0 0 400 400" fill="none" xmlns="http://www.w3.org/2000/svg">
<g clip-path="url(#clip0_290_11)">
<path d="M356.364 0H43.6364C19.0909 0 0 19.0909 0 43.6364V356.364C0 380.909 19.0909 400 43.6364 400H356.364C380.909 400 400 380.909 400 356.364V43.6364C400 19.0909 380.909 0 356.364 0ZM109.091 112.727C109.091 110.909 110.909 109.091 111.818 109.091H212.727C214.545 109.091 215.455 110.909 215.455 112.727V124.545C215.455 126.364 213.636 128.182 212.727 128.182H128.182V156.364C128.182 158.182 126.364 160 125.455 160H112.727C110.909 160 110 158.182 110 156.364V112.727H109.091ZM290.909 287.273C290.909 289.091 289.091 290.909 288.182 290.909H195.455C193.636 290.909 192.727 289.091 192.727 287.273V274.545C192.727 272.727 194.545 270.909 195.455 270.909H271.818V241.818C271.818 240 273.636 238.182 275.455 238.182H288.182C290 238.182 290.909 240 290.909 241.818V287.273ZM290.909 155.455C290.909 157.273 289.091 159.091 288.182 159.091H275.455C273.636 159.091 271.818 157.273 271.818 155.455V141.818L137.273 271.818H164.545C166.364 271.818 168.182 273.636 168.182 275.455V288.182C168.182 290 166.364 291.818 165.455 291.818H112.727C110.909 291.818 109.091 290 110 288.182V272.727L259.091 129.091H243.636C241.818 129.091 240 127.273 240.909 125.455V112.727C240.909 110.909 242.727 109.091 243.636 109.091H288.182C290 109.091 290.909 110.909 290.909 112.727V155.455Z" fill="#F44238"/>
<path d="M288.183 239.092H275.455C273.637 239.092 271.819 240.91 271.819 242.728V271.819H195.455C193.637 271.819 191.819 273.637 192.728 275.455V288.183C192.728 290.001 194.546 291.819 195.455 291.819H288.183C290.001 291.819 290.91 290.001 290.91 288.183V243.637C290.91 240.91 289.092 239.092 288.183 239.092Z" fill="white"/>
<path d="M111.819 159.091H124.546C126.364 159.091 127.273 157.273 127.273 155.454V127.273H211.819C213.637 127.273 214.546 125.454 214.546 123.636V111.818C214.546 110 212.728 108.182 211.819 108.182H111.819C110.001 108.182 108.182 110 109.091 111.818V155.454C109.091 157.273 110.91 159.091 111.819 159.091Z" fill="white"/>
<path d="M288.183 109.092H243.637C241.819 109.092 240.91 110.91 240.91 112.728V125.455C240.91 127.274 242.728 129.092 243.637 129.092H259.092L109.092 271.819V287.274C109.092 289.092 110.91 290.91 111.819 290.91H164.546C166.365 290.91 168.183 289.092 167.274 287.274V274.546C167.274 272.728 165.455 270.91 163.637 270.91H136.365L270.91 140.91V154.546C270.91 156.365 272.728 158.183 274.546 158.183H287.274C289.092 158.183 290.001 156.365 290.001 154.546V111.819C290.91 110.91 289.092 109.092 288.183 109.092Z" fill="white"/>
</g>
<defs>
<clipPath id="clip0_290_11">
<rect width="400" height="400" fill="white"/>
</clipPath>
</defs>
</svg>
