<svg width="400" height="300" viewBox="0 0 400 300" fill="none" xmlns="http://www.w3.org/2000/svg">
<g clip-path="url(#clip0_277_11)">
<path d="M399.038 135.704C405.288 178.515 371.153 202.242 336.057 204.821C313.942 253.822 235.576 286.833 167.788 250.727C138.942 255.369 123.076 247.632 110.576 232.674C135.576 198.632 210.576 136.736 302.403 169.231C351.442 186.252 364.423 146.536 351.923 131.578C305.769 75.3559 201.442 125.904 197.596 130.03C238.461 62.461 385.576 43.8922 399.038 135.704ZM258.653 58.3346C258.653 58.3346 225.48 45.4396 178.365 67.1031C176.442 66.5873 174.519 65.5557 172.596 64.5241C217.788 32.5447 257.211 18.6182 291.346 24.2919C270.673 -0.98216 172.596 -19.5509 115.865 40.7975C46.1533 25.8393 -2.40435 89.2824 -0.000500623 147.052C2.40335 204.821 61.538 241.443 95.1918 231.643C96.1533 231.643 96.6341 231.643 97.5957 231.643C105.288 192.958 135.576 104.241 258.653 58.3346Z" fill="#236BF5"/>
</g>
<defs>
<clipPath id="clip0_277_11">
<rect width="400" height="300" fill="white"/>
</clipPath>
</defs>
</svg>
